<svg xmlns="http://www.w3.org/2000/svg" xmlns:xlink="http://www.w3.org/1999/xlink" width="145" height="145" viewBox="0 0 145 145">
  <defs>
    <clipPath id="clip-path">
      <path id="Trazado_611025" data-name="Trazado 611025" d="M72.628,1.073a11,11,0,0,0-8.919,4.552A10.54,10.54,0,0,1,53.171,7.88a10.955,10.955,0,0,0-9.324-.6c-.156.058-.312.119-.466.184l-.12.05a11.051,11.051,0,0,0-6.3,7.8,10.581,10.581,0,0,1-8.714,6.368,10.966,10.966,0,0,0-9.2,3.715,11.091,11.091,0,0,0-2.6,9.664,10.617,10.617,0,0,1-5.353,9.395,11.053,11.053,0,0,0-6.932,7.179c-.011.033-.016.065-.027.094-.049.174-.1.347-.14.521A11.1,11.1,0,0,0,5.7,61.525,10.665,10.665,0,0,1,4.61,72.3,11.249,11.249,0,0,0,6.623,90.121a10.661,10.661,0,0,1,3.332,10.292,11.1,11.1,0,0,0,.377,9.374c.076.162.16.313.246.466.018.033.033.066.049.094a11,11,0,0,0,8.387,5.485,10.618,10.618,0,0,1,7.21,8.042,11.159,11.159,0,0,0,14.481,10.394,10.542,10.542,0,0,1,9.859,4.364A11.023,11.023,0,0,0,58.4,144.81c.031.008.062.008.094.016.175.03.349.063.531.087a10.986,10.986,0,0,0,9-2.671A10.514,10.514,0,0,1,78.8,142.2a11.147,11.147,0,0,0,17.436-3.876,10.544,10.544,0,0,1,9.838-4.4,10.96,10.96,0,0,0,9.241-1.359c.147-.091.29-.19.43-.29.031-.021.067-.041.1-.065a11.079,11.079,0,0,0,4.553-8.954,10.606,10.606,0,0,1,7.207-8.041,11.205,11.205,0,0,0,8.775-15.557,10.656,10.656,0,0,1,3.316-10.334,11.23,11.23,0,0,0,1.717-17.792,10.671,10.671,0,0,1-1.151-10.8,11.221,11.221,0,0,0-5.632-16.957,10.637,10.637,0,0,1-5.427-9.394,11.092,11.092,0,0,0-2.721-9.578,10.96,10.96,0,0,0-9.29-3.608,10.583,10.583,0,0,1-8.744-6.334,11.053,11.053,0,0,0-6.381-7.675.884.884,0,0,0-.107-.042c-.156-.066-.32-.128-.48-.19a10.975,10.975,0,0,0-9.364.732A10.528,10.528,0,0,1,81.563,5.477a11,11,0,0,0-8.778-4.405h-.157" transform="translate(-1.105 -1.072)" fill="#e36849"/>
    </clipPath>
    <clipPath id="clip-path-2">
      <path id="Trazado_611025-2" data-name="Trazado 611025" d="M72.628,1.073a11,11,0,0,0-8.919,4.552A10.54,10.54,0,0,1,53.171,7.88a10.955,10.955,0,0,0-9.324-.6c-.156.058-.312.119-.466.184l-.12.05a11.051,11.051,0,0,0-6.3,7.8,10.581,10.581,0,0,1-8.714,6.368,10.966,10.966,0,0,0-9.2,3.715,11.091,11.091,0,0,0-2.6,9.664,10.617,10.617,0,0,1-5.353,9.395,11.053,11.053,0,0,0-6.932,7.179c-.011.033-.016.065-.027.094-.049.174-.1.347-.14.521A11.1,11.1,0,0,0,5.7,61.525,10.665,10.665,0,0,1,4.61,72.3,11.249,11.249,0,0,0,6.623,90.121a10.661,10.661,0,0,1,3.332,10.292,11.1,11.1,0,0,0,.377,9.374c.076.162.16.313.246.466.018.033.033.066.049.094a11,11,0,0,0,8.387,5.485,10.618,10.618,0,0,1,7.21,8.042,11.159,11.159,0,0,0,14.481,10.394,10.542,10.542,0,0,1,9.859,4.364A11.023,11.023,0,0,0,58.4,144.81c.031.008.062.008.094.016.175.03.349.063.531.087a10.986,10.986,0,0,0,9-2.671A10.514,10.514,0,0,1,78.8,142.2a11.147,11.147,0,0,0,17.436-3.876,10.544,10.544,0,0,1,9.838-4.4,10.96,10.96,0,0,0,9.241-1.359c.147-.091.29-.19.43-.29.031-.021.067-.041.1-.065a11.079,11.079,0,0,0,4.553-8.954,10.606,10.606,0,0,1,7.207-8.041,11.205,11.205,0,0,0,8.775-15.557,10.656,10.656,0,0,1,3.316-10.334,11.23,11.23,0,0,0,1.717-17.792,10.671,10.671,0,0,1-1.151-10.8,11.221,11.221,0,0,0-5.632-16.957,10.637,10.637,0,0,1-5.427-9.394,11.092,11.092,0,0,0-2.721-9.578,10.96,10.96,0,0,0-9.29-3.608,10.583,10.583,0,0,1-8.744-6.334,11.053,11.053,0,0,0-6.381-7.675.884.884,0,0,0-.107-.042c-.156-.066-.32-.128-.48-.19a10.975,10.975,0,0,0-9.364.732A10.528,10.528,0,0,1,81.563,5.477a11,11,0,0,0-8.778-4.405h-.157" transform="translate(-1.105 -1.072)" fill="#fff"/>
    </clipPath>
    <clipPath id="clip-path-3">
      <rect id="Rectángulo_378432" data-name="Rectángulo 378432" width="145" height="145" fill="none"/>
    </clipPath>
    <clipPath id="clip-path-4">
      <rect id="Rectángulo_378717" data-name="Rectángulo 378717" width="62.104" height="69.452" fill="#fef0d7"/>
    </clipPath>
  </defs>
  <g id="Grupo_1099907" data-name="Grupo 1099907" transform="translate(-728 -6634)">
    <g id="Grupo_1099403" data-name="Grupo 1099403" transform="translate(408 -2917)">
      <g id="Grupo_1074143" data-name="Grupo 1074143" transform="translate(320 9551)">
        <g id="Grupo_1074028" data-name="Grupo 1074028" transform="translate(0)">
          <g id="Grupo_1074021" data-name="Grupo 1074021" transform="translate(0 0)">
            <g id="Grupo_1074018" data-name="Grupo 1074018" transform="translate(0.458 0.445)">
              <g id="Grupo_1074017" data-name="Grupo 1074017" clip-path="url(#clip-path)">
                <path id="Trazado_611056" data-name="Trazado 611056" d="M0,0H159.982V159.745H0Z" transform="translate(-6.043 155.081) rotate(-90)" fill="#e36849"/>
              </g>
            </g>
            <g id="Grupo_1074020" data-name="Grupo 1074020">
              <g id="Grupo_1074019" data-name="Grupo 1074019" clip-path="url(#clip-path-3)">
                <path id="Trazado_611027" data-name="Trazado 611027" d="M20.249,131.032a10.9,10.9,0,0,0,3.616,4.062,11.024,11.024,0,0,0,5.073,1.81h.016l.019.007a10.9,10.9,0,0,1,4.815,3.022,12.1,12.1,0,0,1,2.625,5.093l.008.031v.037a10.709,10.709,0,0,0,4.6,8.467A10.524,10.524,0,0,0,50.432,155l.046-.016.059-.006a11.233,11.233,0,0,1,5.789.823,12.248,12.248,0,0,1,4.569,3.676l.041.051.031.067a10.436,10.436,0,0,0,3.067,3.8,10.284,10.284,0,0,0,4.475,1.982l-.052-.011.607.091c.207.021.434.059.623.068a10.424,10.424,0,0,0,1.183.021,10.176,10.176,0,0,0,2.36-.37,10.3,10.3,0,0,0,4.15-2.287l.053-.048.074-.043a11.357,11.357,0,0,1,5.736-1.625,12.385,12.385,0,0,1,5.746,1.54l.081.042.067.059a10.338,10.338,0,0,0,16.157-3.62l.034-.078.055-.077a11.557,11.557,0,0,1,4.634-3.831,12.516,12.516,0,0,1,5.909-.928l.1.006.095.028a10.15,10.15,0,0,0,4.707.26,10.352,10.352,0,0,0,8.475-10.1v-.1l.021-.095a11.669,11.669,0,0,1,2.717-5.4,12.575,12.575,0,0,1,5.041-3.242l.1-.035.091-.011a10.192,10.192,0,0,0,7.623-5.136,10.3,10.3,0,0,0,.518-9.236l-.033-.077-.018-.084a11.647,11.647,0,0,1,.277-6.021,12.54,12.54,0,0,1,3.278-5.015l.065-.063.074-.044a10.529,10.529,0,0,0,1.669-16.617l-.054-.05-.04-.056a11.479,11.479,0,0,1-2.132-5.553,12.44,12.44,0,0,1,.982-5.834l.028-.067.035-.049a10.714,10.714,0,0,0-5.28-16.206l-.046-.016-.036-.021a11.179,11.179,0,0,1-4.085-4.125,12.123,12.123,0,0,1-1.405-5.609V55.69l.006-.028a11.015,11.015,0,0,0-11.72-13.118,11.009,11.009,0,0,1,9.378,3.476,11.17,11.17,0,0,1,2.6,4.512,11.421,11.421,0,0,1,.3,5.236l.005-.064a11.464,11.464,0,0,0,1.449,5.282,10.389,10.389,0,0,0,3.9,3.749l-.08-.036a11.431,11.431,0,0,1,7.355,7.3,11.56,11.56,0,0,1,.539,5.341,11.717,11.717,0,0,1-1.925,5.029l.062-.116a11.205,11.205,0,0,0-.821,5.28,10.17,10.17,0,0,0,1.972,4.9l-.094-.106a11.766,11.766,0,0,1,3.837,9.877,11.592,11.592,0,0,1-1.719,5.194,11.84,11.84,0,0,1-3.88,3.855l.138-.107a11,11,0,0,0-2.864,4.4,10.042,10.042,0,0,0-.2,5.206l-.051-.161a11.966,11.966,0,0,1,1,5.409,11.961,11.961,0,0,1-10.383,11.3l.186-.045a10.859,10.859,0,0,0-4.357,2.812,9.9,9.9,0,0,0-2.28,4.61l.021-.191a12.039,12.039,0,0,1-1.275,5.4,11.841,11.841,0,0,1-3.581,4.216,12.075,12.075,0,0,1-5.066,2.187,11.844,11.844,0,0,1-5.5-.33l.189.035a10.853,10.853,0,0,0-5.129.765,9.9,9.9,0,0,0-3.98,3.275l.09-.155a11.89,11.89,0,0,1-3.363,4.378,11.869,11.869,0,0,1-15.308-.258l.147.1a10.86,10.86,0,0,0-5.034-1.39,10.066,10.066,0,0,0-5,1.39l.126-.09a11.725,11.725,0,0,1-7.451,2.92,11.4,11.4,0,0,1-1.371-.048c-.235-.017-.429-.054-.646-.079l-.655-.107.026,0-.078-.014a11.452,11.452,0,0,1-2.583-.843,11.648,11.648,0,0,1-5.706-5.742l.072.117a11.123,11.123,0,0,0-4.095-3.406,10.164,10.164,0,0,0-5.241-.813l.1-.022a11.473,11.473,0,0,1-5.317.369,11.2,11.2,0,0,1-4.887-2.08,11.328,11.328,0,0,1-3.45-4.022,11.473,11.473,0,0,1-1.265-5.127l.01.069a11.574,11.574,0,0,0-2.392-4.932,10.512,10.512,0,0,0-4.571-3.017l.036.009a11.03,11.03,0,0,1-8.654-6.206" transform="translate(-10.501 -21.928)" fill="#ffc278"/>
                <path id="Trazado_611028" data-name="Trazado 611028" d="M101.257,6.584a11.015,11.015,0,0,0-9.731.72l-.016.01-.024.008A10.945,10.945,0,0,1,85.8,7.77a12,12,0,0,1-5.157-2.548L80.61,5.2l-.031-.041a10.635,10.635,0,0,0-8.634-4.115,10.43,10.43,0,0,0-8.382,4.395l-.034.049-.058.052a11.351,11.351,0,0,1-5.224,2.774,12.384,12.384,0,0,1-5.911-.279l-.073-.021-.082-.044a10.324,10.324,0,0,0-9.264-.28,10.251,10.251,0,0,0-5.778,7.23L37.122,15l-.039.088A11.6,11.6,0,0,1,33.348,19.8a12.541,12.541,0,0,1-5.587,2.15l-.1.015-.1-.009A10.42,10.42,0,0,0,16.839,29.57a10.289,10.289,0,0,0-.152,4.726l.018.09v.09a11.7,11.7,0,0,1-1.52,5.842,12.515,12.515,0,0,1-4.246,4.228l-.085.054-.084.028a10.262,10.262,0,0,0-6.444,6.627c-.1.358-.213.779-.3,1.2a11.2,11.2,0,0,0-.166,1.171,10.34,10.34,0,0,0,.081,2.4,10.5,10.5,0,0,0,1.779,4.438l.049.07.028.066A11.571,11.571,0,0,1,6.722,66.5,12.436,12.436,0,0,1,4.552,72l-.046.068-.048.044A10.537,10.537,0,0,0,1.127,81,10.711,10.711,0,0,0,6.24,89.12l.042.025.027.026a11.1,11.1,0,0,1,3.084,4.876,12.11,12.11,0,0,1,.18,5.728l0,.028-.008.017a11.138,11.138,0,0,0-.514,7.395,11.994,11.994,0,0,0,.948,2.354,12.108,12.108,0,0,1-1.057-2.32,11.127,11.127,0,0,1,.246-7.588l-.013.044a11.6,11.6,0,0,0-.347-5.477,10.4,10.4,0,0,0-3.045-4.475l.069.051a11.274,11.274,0,0,1-3.909-3.634A11.5,11.5,0,0,1,.1,81.125,11.667,11.667,0,0,1,3.607,71.2l-.094.111a11.144,11.144,0,0,0,1.854-4.962A10.134,10.134,0,0,0,4.439,61.2l.078.137a11.757,11.757,0,0,1-2.086-5.07A11.927,11.927,0,0,1,2.319,53.5a12.46,12.46,0,0,1,.191-1.394c.09-.424.192-.84.326-1.313a11.858,11.858,0,0,1,7.4-7.713l-.17.082a10.854,10.854,0,0,0,3.675-3.687A9.984,9.984,0,0,0,15,34.464l.018.18a12.034,12.034,0,0,1,.141-5.527A11.909,11.909,0,0,1,27.71,20.254l-.194.006a10.874,10.874,0,0,0,4.863-1.818A9.941,9.941,0,0,0,35.6,14.406l-.055.169a11.923,11.923,0,0,1,2.376-4.968,11.706,11.706,0,0,1,4.343-3.343A11.984,11.984,0,0,1,47.63,5.2a11.61,11.61,0,0,1,5.26,1.471l-.155-.063a10.97,10.97,0,0,0,5.238.367A10.054,10.054,0,0,0,62.647,4.6l-.091.1A11.636,11.636,0,0,1,66.7,1.215a11.8,11.8,0,0,1,10.444.007A11.266,11.266,0,0,1,81.2,4.68l-.063-.065a11.335,11.335,0,0,0,4.783,2.569,10.44,10.44,0,0,0,5.439-.254l-.04.017a11.035,11.035,0,0,1,4.948-1.365,11.184,11.184,0,0,1,4.986,1" transform="translate(0 0)" fill="#ffc278"/>
              </g>
            </g>
          </g>
        </g>
      </g>
      <g id="Grupo_1074144" data-name="Grupo 1074144" transform="translate(347.117 9578.125)">
        <rect id="Rectángulo_378411" data-name="Rectángulo 378411" width="91.063" height="91.062" transform="translate(0)" fill="none"/>
      </g>
    </g>
    <g id="Grupo_1099434" data-name="Grupo 1099434" transform="translate(768.948 6668)">
      <g id="Grupo_1099433" data-name="Grupo 1099433" clip-path="url(#clip-path-4)">
        <path id="Trazado_873595" data-name="Trazado 873595" d="M14.119,51.68c-1.628.976-3.038,1.847-4.475,2.668-.536.306-.461.759-.461,1.219q0,5.969,0,11.938c0,1.546-.382,1.932-1.9,1.939q-2.713.012-5.426,0c-1.4-.008-1.833-.425-1.84-1.794Q0,64.558.012,61.465c0-1.147.459-1.748,1.3-1.769.877-.022,1.345.6,1.352,1.818.008,1.447.029,2.895-.009,4.34-.018.663.213.913.872.877a17.6,17.6,0,0,1,2.169,0c.691.048.839-.248.835-.884-.026-3.581.017-7.163-.026-10.744A3.26,3.26,0,0,1,8.268,52c2.028-1.183,4.028-2.413,6.048-3.61,1.512-.9,2.451-.378,2.461,1.355.011,1.845.017,3.69-.005,5.535-.007.592.144.829.735.528a2.064,2.064,0,0,1,.2-.071c2.921-1.119,2.921-1.12,2.921-4.278,0-1.664.01-3.328,0-4.992a3.71,3.71,0,0,0-1.973-3.492,3.567,3.567,0,0,0-3.97.371c-1.757,1.207-3.544,2.373-5.286,3.6a3.149,3.149,0,0,1-2.013.616c-1.3-.041-2.6.013-3.906-.021-.6-.016-.859.176-.818.8.038.576.01,1.157,0,1.736a1.229,1.229,0,0,1-1.306,1.3A1.224,1.224,0,0,1,.026,50.084C.019,44.405-.057,38.723.091,33.048.15,30.8,1.625,29.218,3.683,28.13c-.348-.273-.645-.5-.936-.735C.461,25.566.079,23.052.522,20.423A5.984,5.984,0,0,1,4.8,15.547a6.342,6.342,0,0,1,8.3,5.395,9.915,9.915,0,0,1-.135,3.017c-.049.24-.274.509-.058.7.25.225.531-.018.792-.111,2.346-.833,4.71-1.621,7.031-2.518.929-.359,2.112-.095,2.766-.624.713-.577,1.272-1.432,2.058-2.02q3.647-2.729,7.275-5.483c.306-.233.7-.383.872-.789a8.069,8.069,0,0,1-4.768-5.144,6.348,6.348,0,0,1,2.633-6.925,6.417,6.417,0,0,1,7.5.329,7.054,7.054,0,0,1,3.01,6.265c-.042.538.164.6.6.57a9.037,9.037,0,0,1,5.849,1.905c2.9,2.028,5.9,3.929,8.768,6a10.985,10.985,0,0,1,4.791,9.262c.039,14.108.02,28.216.016,42.324,0,1.3-.446,1.738-1.784,1.739q-22.193.009-44.386,0c-1.383,0-1.8-.434-1.8-1.828q-.01-7.271,0-14.542V51.68M38,66.723q10.147,0,20.294.01c.748,0,1.174-.06,1.169-1.027q-.063-11.232-.006-22.464c0-.79-.267-.951-.994-.945q-5.7.048-11.395,0a2.674,2.674,0,0,0-1.777.608c-3.934,3.068-7.889,6.109-11.831,9.165a6.8,6.8,0,0,1-1.681.961c-4.662,1.849-9.307,3.741-13.982,5.558a1.374,1.374,0,0,0-1.039,1.58c.069,1.77.084,3.547,0,5.316-.051,1.03.305,1.261,1.278,1.256,6.656-.039,13.312-.02,19.968-.02M48.244,33.681c0-1.518-.018-3.036,0-4.554a4.931,4.931,0,0,0-2.337-4.375c-1.4-.955-2.832-1.874-4.209-2.864a1.431,1.431,0,0,0-1.584-.134c-3.223,1.356-6.454,2.695-9.7,3.988-1.223.487-2.4,1.234-3.815,1.009-.28-.045-.378.17-.473.359a5.5,5.5,0,0,1-2.008,1.929c-2.619,1.8-5.122,3.811-7.892,5.335A4.784,4.784,0,0,0,13.5,39.877c.092.63.029.9.824.554A6.321,6.321,0,0,1,23.3,46.372c-.073,2.021.032,4.049-.031,6.071-.03.969.269.992,1.039.661q2.533-1.088,5.119-2.052a12.645,12.645,0,0,0,3.451-1.971c3.375-2.662,6.828-5.225,10.185-7.909,1.32-1.055,2.617-1.9,4.393-1.592.615.107.807-.2.8-.805-.031-1.7-.011-3.4-.011-5.1M2.669,38.947c0,1.7.008,3.4,0,5.1,0,.487.045.816.679.829,2.419.049,4.832.238,6.8-1.683a1.854,1.854,0,0,0,.738-1.513c-.044-1.844.027-3.691-.032-5.534a2.166,2.166,0,0,1,1.083-2.061c3.712-2.509,7.4-5.061,11.088-7.6.559-.385,1.072-.818.667-1.6s-1.045-.628-1.692-.4Q13.634,27.473,5.28,30.465a3.6,3.6,0,0,0-2.6,3.707c-.025,1.591,0,3.183-.006,4.775M43.346,10.965a5.814,5.814,0,0,0-3.893,1.362q-6.259,4.742-12.544,9.447c-.62.465-1.193.967-.729,1.783.448.786,1.153.508,1.818.236,4.034-1.653,8.08-3.279,12.1-4.962a2.172,2.172,0,0,1,2.317.256c1.294.92,2.649,1.755,3.93,2.692a1.019,1.019,0,0,0,1.49-.084q2.578-2.151,5.235-4.206c.587-.453.541-.664-.047-1.051-2.232-1.467-4.434-2.979-6.65-4.469a5.152,5.152,0,0,0-3.029-1M59.44,32.078c0-2.061.016-4.121,0-6.181a9.3,9.3,0,0,0-2.722-6.75c-.392-.393-.7-.6-1.248-.14-1.882,1.579-3.806,3.109-5.735,4.629-.408.321-.436.554-.135.965a8.314,8.314,0,0,1,1.435,5.12c-.006,3,.015,6-.014,9-.006.645.161.95.841.871a3.267,3.267,0,0,1,.866,0c1.056.163,1.337-.277,1.314-1.314-.068-3.035-.032-6.072-.018-9.109,0-1.044.5-1.615,1.335-1.606s1.31.576,1.315,1.635c.012,3.109.037,6.218-.016,9.326-.015.867.252,1.187,1.089,1.063a1.516,1.516,0,0,1,.433,0c.952.136,1.336-.175,1.292-1.225-.087-2.093-.026-4.192-.026-6.289m-49-10.022c.006-2.449-1.449-4.1-3.631-4.113a3.751,3.751,0,0,0-3.74,4.042c-.01,2.391,1.511,4.1,3.669,4.123s3.7-1.647,3.7-4.052M39.328,6.932a4.544,4.544,0,0,0-4.291-4.213,3.6,3.6,0,0,0-3.574,3.7,4.526,4.526,0,0,0,4.292,4.206,3.589,3.589,0,0,0,3.573-3.7" transform="translate(0 0)" fill="#fef0d7"/>
        <path id="Trazado_873596" data-name="Trazado 873596" d="M1.485,253.39c-.812-.074-1.315-.48-1.327-1.3a1.2,1.2,0,0,1,1.247-1.338,1.319,1.319,0,1,1,.08,2.637" transform="translate(-0.124 -196.318)" fill="#fef0d7"/>
        <path id="Trazado_873597" data-name="Trazado 873597" d="M234.987,224.6c0,1.049.008,2.1,0,3.147-.009.848-.412,1.409-1.293,1.421-.934.013-1.357-.552-1.358-1.458,0-1.411-.033-2.822.01-4.232.02-.674-.219-.911-.874-.856a4.367,4.367,0,0,1-1.187-.055,1.284,1.284,0,0,1-1.137-1.264,1.2,1.2,0,0,1,1.056-1.313,11.911,11.911,0,0,1,3.773.007,1.21,1.21,0,0,1,1.01,1.347c.007,1.085,0,2.17,0,3.256" transform="translate(-179.403 -172.12)" fill="#fef0d7"/>
        <path id="Trazado_873598" data-name="Trazado 873598" d="M245.148,274.986a1.329,1.329,0,0,1,1.37,1.426,1.245,1.245,0,0,1-1.347,1.233,1.284,1.284,0,0,1-1.273-1.41,1.27,1.27,0,0,1,1.25-1.249" transform="translate(-190.951 -215.293)" fill="#fef0d7"/>
      </g>
    </g>
  </g>
</svg>
