<svg xmlns="http://www.w3.org/2000/svg" xmlns:xlink="http://www.w3.org/1999/xlink" width="145" height="145" viewBox="0 0 145 145">
  <defs>
    <clipPath id="clip-path">
      <path id="Trazado_611025" data-name="Trazado 611025" d="M72.628,1.073a11,11,0,0,0-8.919,4.552A10.54,10.54,0,0,1,53.171,7.88a10.955,10.955,0,0,0-9.324-.6c-.156.058-.312.119-.466.184l-.12.05a11.051,11.051,0,0,0-6.3,7.8,10.581,10.581,0,0,1-8.714,6.368,10.966,10.966,0,0,0-9.2,3.715,11.091,11.091,0,0,0-2.6,9.664,10.617,10.617,0,0,1-5.353,9.395,11.053,11.053,0,0,0-6.932,7.179c-.011.033-.016.065-.027.094-.049.174-.1.347-.14.521A11.1,11.1,0,0,0,5.7,61.525,10.665,10.665,0,0,1,4.61,72.3,11.249,11.249,0,0,0,6.623,90.121a10.661,10.661,0,0,1,3.332,10.292,11.1,11.1,0,0,0,.377,9.374c.076.162.16.313.246.466.018.033.033.066.049.094a11,11,0,0,0,8.387,5.485,10.618,10.618,0,0,1,7.21,8.042,11.159,11.159,0,0,0,14.481,10.394,10.542,10.542,0,0,1,9.859,4.364A11.023,11.023,0,0,0,58.4,144.81c.031.008.062.008.094.016.175.03.349.063.531.087a10.986,10.986,0,0,0,9-2.671A10.514,10.514,0,0,1,78.8,142.2a11.147,11.147,0,0,0,17.436-3.876,10.544,10.544,0,0,1,9.838-4.4,10.96,10.96,0,0,0,9.241-1.359c.147-.091.29-.19.43-.29.031-.021.067-.041.1-.065a11.079,11.079,0,0,0,4.553-8.954,10.606,10.606,0,0,1,7.207-8.041,11.205,11.205,0,0,0,8.775-15.557,10.656,10.656,0,0,1,3.316-10.334,11.23,11.23,0,0,0,1.717-17.792,10.671,10.671,0,0,1-1.151-10.8,11.221,11.221,0,0,0-5.632-16.957,10.637,10.637,0,0,1-5.427-9.394,11.092,11.092,0,0,0-2.721-9.578,10.96,10.96,0,0,0-9.29-3.608,10.583,10.583,0,0,1-8.744-6.334,11.053,11.053,0,0,0-6.381-7.675.884.884,0,0,0-.107-.042c-.156-.066-.32-.128-.48-.19a10.975,10.975,0,0,0-9.364.732A10.528,10.528,0,0,1,81.563,5.477a11,11,0,0,0-8.778-4.405h-.157" transform="translate(-1.105 -1.072)" fill="#e36849"/>
    </clipPath>
    <clipPath id="clip-path-2">
      <path id="Trazado_611025-2" data-name="Trazado 611025" d="M72.628,1.073a11,11,0,0,0-8.919,4.552A10.54,10.54,0,0,1,53.171,7.88a10.955,10.955,0,0,0-9.324-.6c-.156.058-.312.119-.466.184l-.12.05a11.051,11.051,0,0,0-6.3,7.8,10.581,10.581,0,0,1-8.714,6.368,10.966,10.966,0,0,0-9.2,3.715,11.091,11.091,0,0,0-2.6,9.664,10.617,10.617,0,0,1-5.353,9.395,11.053,11.053,0,0,0-6.932,7.179c-.011.033-.016.065-.027.094-.049.174-.1.347-.14.521A11.1,11.1,0,0,0,5.7,61.525,10.665,10.665,0,0,1,4.61,72.3,11.249,11.249,0,0,0,6.623,90.121a10.661,10.661,0,0,1,3.332,10.292,11.1,11.1,0,0,0,.377,9.374c.076.162.16.313.246.466.018.033.033.066.049.094a11,11,0,0,0,8.387,5.485,10.618,10.618,0,0,1,7.21,8.042,11.159,11.159,0,0,0,14.481,10.394,10.542,10.542,0,0,1,9.859,4.364A11.023,11.023,0,0,0,58.4,144.81c.031.008.062.008.094.016.175.03.349.063.531.087a10.986,10.986,0,0,0,9-2.671A10.514,10.514,0,0,1,78.8,142.2a11.147,11.147,0,0,0,17.436-3.876,10.544,10.544,0,0,1,9.838-4.4,10.96,10.96,0,0,0,9.241-1.359c.147-.091.29-.19.43-.29.031-.021.067-.041.1-.065a11.079,11.079,0,0,0,4.553-8.954,10.606,10.606,0,0,1,7.207-8.041,11.205,11.205,0,0,0,8.775-15.557,10.656,10.656,0,0,1,3.316-10.334,11.23,11.23,0,0,0,1.717-17.792,10.671,10.671,0,0,1-1.151-10.8,11.221,11.221,0,0,0-5.632-16.957,10.637,10.637,0,0,1-5.427-9.394,11.092,11.092,0,0,0-2.721-9.578,10.96,10.96,0,0,0-9.29-3.608,10.583,10.583,0,0,1-8.744-6.334,11.053,11.053,0,0,0-6.381-7.675.884.884,0,0,0-.107-.042c-.156-.066-.32-.128-.48-.19a10.975,10.975,0,0,0-9.364.732A10.528,10.528,0,0,1,81.563,5.477a11,11,0,0,0-8.778-4.405h-.157" transform="translate(-1.105 -1.072)" fill="#fff"/>
    </clipPath>
    <clipPath id="clip-path-3">
      <rect id="Rectángulo_378432" data-name="Rectángulo 378432" width="145" height="145" fill="none"/>
    </clipPath>
    <clipPath id="clip-path-4">
      <rect id="Rectángulo_378715" data-name="Rectángulo 378715" width="79.99" height="80.03" fill="#fef0d7"/>
    </clipPath>
  </defs>
  <g id="Grupo_1099909" data-name="Grupo 1099909" transform="translate(-308 -6634)">
    <g id="Grupo_1099402" data-name="Grupo 1099402" transform="translate(-12 -2917)">
      <g id="Grupo_1074143" data-name="Grupo 1074143" transform="translate(320 9551)">
        <g id="Grupo_1074028" data-name="Grupo 1074028" transform="translate(0)">
          <g id="Grupo_1074021" data-name="Grupo 1074021" transform="translate(0 0)">
            <g id="Grupo_1074018" data-name="Grupo 1074018" transform="translate(0.458 0.445)">
              <g id="Grupo_1074017" data-name="Grupo 1074017" clip-path="url(#clip-path)">
                <path id="Trazado_611056" data-name="Trazado 611056" d="M0,0H159.982V159.745H0Z" transform="translate(-6.043 155.081) rotate(-90)" fill="#e36849"/>
              </g>
            </g>
            <g id="Grupo_1074020" data-name="Grupo 1074020">
              <g id="Grupo_1074019" data-name="Grupo 1074019" clip-path="url(#clip-path-3)">
                <path id="Trazado_611027" data-name="Trazado 611027" d="M20.249,131.032a10.9,10.9,0,0,0,3.616,4.062,11.024,11.024,0,0,0,5.073,1.81h.016l.019.007a10.9,10.9,0,0,1,4.815,3.022,12.1,12.1,0,0,1,2.625,5.093l.008.031v.037a10.709,10.709,0,0,0,4.6,8.467A10.524,10.524,0,0,0,50.432,155l.046-.016.059-.006a11.233,11.233,0,0,1,5.789.823,12.248,12.248,0,0,1,4.569,3.676l.041.051.031.067a10.436,10.436,0,0,0,3.067,3.8,10.284,10.284,0,0,0,4.475,1.982l-.052-.011.607.091c.207.021.434.059.623.068a10.424,10.424,0,0,0,1.183.021,10.176,10.176,0,0,0,2.36-.37,10.3,10.3,0,0,0,4.15-2.287l.053-.048.074-.043a11.357,11.357,0,0,1,5.736-1.625,12.385,12.385,0,0,1,5.746,1.54l.081.042.067.059a10.338,10.338,0,0,0,16.157-3.62l.034-.078.055-.077a11.557,11.557,0,0,1,4.634-3.831,12.516,12.516,0,0,1,5.909-.928l.1.006.095.028a10.15,10.15,0,0,0,4.707.26,10.352,10.352,0,0,0,8.475-10.1v-.1l.021-.095a11.669,11.669,0,0,1,2.717-5.4,12.575,12.575,0,0,1,5.041-3.242l.1-.035.091-.011a10.192,10.192,0,0,0,7.623-5.136,10.3,10.3,0,0,0,.518-9.236l-.033-.077-.018-.084a11.647,11.647,0,0,1,.277-6.021,12.54,12.54,0,0,1,3.278-5.015l.065-.063.074-.044a10.529,10.529,0,0,0,1.669-16.617l-.054-.05-.04-.056a11.479,11.479,0,0,1-2.132-5.553,12.44,12.44,0,0,1,.982-5.834l.028-.067.035-.049a10.714,10.714,0,0,0-5.28-16.206l-.046-.016-.036-.021a11.179,11.179,0,0,1-4.085-4.125,12.123,12.123,0,0,1-1.405-5.609V55.69l.006-.028a11.015,11.015,0,0,0-11.72-13.118,11.009,11.009,0,0,1,9.378,3.476,11.17,11.17,0,0,1,2.6,4.512,11.421,11.421,0,0,1,.3,5.236l.005-.064a11.464,11.464,0,0,0,1.449,5.282,10.389,10.389,0,0,0,3.9,3.749l-.08-.036a11.431,11.431,0,0,1,7.355,7.3,11.56,11.56,0,0,1,.539,5.341,11.717,11.717,0,0,1-1.925,5.029l.062-.116a11.205,11.205,0,0,0-.821,5.28,10.17,10.17,0,0,0,1.972,4.9l-.094-.106a11.766,11.766,0,0,1,3.837,9.877,11.592,11.592,0,0,1-1.719,5.194,11.84,11.84,0,0,1-3.88,3.855l.138-.107a11,11,0,0,0-2.864,4.4,10.042,10.042,0,0,0-.2,5.206l-.051-.161a11.966,11.966,0,0,1,1,5.409,11.961,11.961,0,0,1-10.383,11.3l.186-.045a10.859,10.859,0,0,0-4.357,2.812,9.9,9.9,0,0,0-2.28,4.61l.021-.191a12.039,12.039,0,0,1-1.275,5.4,11.841,11.841,0,0,1-3.581,4.216,12.075,12.075,0,0,1-5.066,2.187,11.844,11.844,0,0,1-5.5-.33l.189.035a10.853,10.853,0,0,0-5.129.765,9.9,9.9,0,0,0-3.98,3.275l.09-.155a11.89,11.89,0,0,1-3.363,4.378,11.869,11.869,0,0,1-15.308-.258l.147.1a10.86,10.86,0,0,0-5.034-1.39,10.066,10.066,0,0,0-5,1.39l.126-.09a11.725,11.725,0,0,1-7.451,2.92,11.4,11.4,0,0,1-1.371-.048c-.235-.017-.429-.054-.646-.079l-.655-.107.026,0-.078-.014a11.452,11.452,0,0,1-2.583-.843,11.648,11.648,0,0,1-5.706-5.742l.072.117a11.123,11.123,0,0,0-4.095-3.406,10.164,10.164,0,0,0-5.241-.813l.1-.022a11.473,11.473,0,0,1-5.317.369,11.2,11.2,0,0,1-4.887-2.08,11.328,11.328,0,0,1-3.45-4.022,11.473,11.473,0,0,1-1.265-5.127l.01.069a11.574,11.574,0,0,0-2.392-4.932,10.512,10.512,0,0,0-4.571-3.017l.036.009a11.03,11.03,0,0,1-8.654-6.206" transform="translate(-10.501 -21.928)" fill="#ffc278"/>
                <path id="Trazado_611028" data-name="Trazado 611028" d="M101.257,6.584a11.015,11.015,0,0,0-9.731.72l-.016.01-.024.008A10.945,10.945,0,0,1,85.8,7.77a12,12,0,0,1-5.157-2.548L80.61,5.2l-.031-.041a10.635,10.635,0,0,0-8.634-4.115,10.43,10.43,0,0,0-8.382,4.395l-.034.049-.058.052a11.351,11.351,0,0,1-5.224,2.774,12.384,12.384,0,0,1-5.911-.279l-.073-.021-.082-.044a10.324,10.324,0,0,0-9.264-.28,10.251,10.251,0,0,0-5.778,7.23L37.122,15l-.039.088A11.6,11.6,0,0,1,33.348,19.8a12.541,12.541,0,0,1-5.587,2.15l-.1.015-.1-.009A10.42,10.42,0,0,0,16.839,29.57a10.289,10.289,0,0,0-.152,4.726l.018.09v.09a11.7,11.7,0,0,1-1.52,5.842,12.515,12.515,0,0,1-4.246,4.228l-.085.054-.084.028a10.262,10.262,0,0,0-6.444,6.627c-.1.358-.213.779-.3,1.2a11.2,11.2,0,0,0-.166,1.171,10.34,10.34,0,0,0,.081,2.4,10.5,10.5,0,0,0,1.779,4.438l.049.07.028.066A11.571,11.571,0,0,1,6.722,66.5,12.436,12.436,0,0,1,4.552,72l-.046.068-.048.044A10.537,10.537,0,0,0,1.127,81,10.711,10.711,0,0,0,6.24,89.12l.042.025.027.026a11.1,11.1,0,0,1,3.084,4.876,12.11,12.11,0,0,1,.18,5.728l0,.028-.008.017a11.138,11.138,0,0,0-.514,7.395,11.994,11.994,0,0,0,.948,2.354,12.108,12.108,0,0,1-1.057-2.32,11.127,11.127,0,0,1,.246-7.588l-.013.044a11.6,11.6,0,0,0-.347-5.477,10.4,10.4,0,0,0-3.045-4.475l.069.051a11.274,11.274,0,0,1-3.909-3.634A11.5,11.5,0,0,1,.1,81.125,11.667,11.667,0,0,1,3.607,71.2l-.094.111a11.144,11.144,0,0,0,1.854-4.962A10.134,10.134,0,0,0,4.439,61.2l.078.137a11.757,11.757,0,0,1-2.086-5.07A11.927,11.927,0,0,1,2.319,53.5a12.46,12.46,0,0,1,.191-1.394c.09-.424.192-.84.326-1.313a11.858,11.858,0,0,1,7.4-7.713l-.17.082a10.854,10.854,0,0,0,3.675-3.687A9.984,9.984,0,0,0,15,34.464l.018.18a12.034,12.034,0,0,1,.141-5.527A11.909,11.909,0,0,1,27.71,20.254l-.194.006a10.874,10.874,0,0,0,4.863-1.818A9.941,9.941,0,0,0,35.6,14.406l-.055.169a11.923,11.923,0,0,1,2.376-4.968,11.706,11.706,0,0,1,4.343-3.343A11.984,11.984,0,0,1,47.63,5.2a11.61,11.61,0,0,1,5.26,1.471l-.155-.063a10.97,10.97,0,0,0,5.238.367A10.054,10.054,0,0,0,62.647,4.6l-.091.1A11.636,11.636,0,0,1,66.7,1.215a11.8,11.8,0,0,1,10.444.007A11.266,11.266,0,0,1,81.2,4.68l-.063-.065a11.335,11.335,0,0,0,4.783,2.569,10.44,10.44,0,0,0,5.439-.254l-.04.017a11.035,11.035,0,0,1,4.948-1.365,11.184,11.184,0,0,1,4.986,1" transform="translate(0 0)" fill="#ffc278"/>
              </g>
            </g>
          </g>
        </g>
      </g>
      <g id="Grupo_1074144" data-name="Grupo 1074144" transform="translate(347.117 9578.125)">
        <rect id="Rectángulo_378411" data-name="Rectángulo 378411" width="91.063" height="91.062" transform="translate(0)" fill="none"/>
      </g>
    </g>
    <g id="Grupo_1099430" data-name="Grupo 1099430" transform="translate(340.005 6664.625)">
      <g id="Grupo_1099429" data-name="Grupo 1099429" clip-path="url(#clip-path-4)">
        <path id="Trazado_873586" data-name="Trazado 873586" d="M36.823,9.281c-1.385.908-2.744,1.856-4.159,2.713a6.185,6.185,0,0,1-7.317-.633,6.656,6.656,0,0,1-1.694-7.427,6.249,6.249,0,0,1,6.1-3.927,6.044,6.044,0,0,1,3.054.976c.732.477,1.464.954,2.185,1.448,1.132.775,2.076,1.738,3.65.465a2.807,2.807,0,0,1,3.4.33c.732.594,1.192.41,1.822-.042,1.048-.751,2.129-1.457,3.219-2.148a6.218,6.218,0,0,1,8.151,1.119,6.714,6.714,0,0,1-.017,8.611,6.25,6.25,0,0,1-8.156,1.09c-1.318-.839-2.608-1.721-3.93-2.6-.21.429.037.664.156.9,1.74,3.5,3.513,6.981,5.227,10.492a1.111,1.111,0,0,0,1.549.707,17.534,17.534,0,0,1,6.048-.67c2.044.172,2.649.771,3.334,2.714,1.008,2.859,2.173,5.664,3.229,8.507.185.5.537.575.934.687a15.669,15.669,0,0,1,10.572,9.313c1.637,3.774,3.433,7.494,4.812,11.362a17.945,17.945,0,0,1-8.98,21.885,40.933,40.933,0,0,1-13.025,4.476c-2.8.358-5.621.744-8.41-.178a10.7,10.7,0,0,1-6.937-12.865c.161-.6-1.056-2.677-1.607-2.741-.5-.058-1.879,2.061-1.735,2.654a10.4,10.4,0,0,1-3.667,11.178c-2.595,2.177-5.694,2.487-8.951,2.264a39.477,39.477,0,0,1-16.4-5.178A18.045,18.045,0,0,1,1.5,51.71c1.477-3.482,2.981-6.954,4.567-10.387A15.229,15.229,0,0,1,16.16,32.687a1.763,1.763,0,0,0,1.332-1.267c1.027-2.983,2.368-5.849,3.268-8.885.4-1.335,1.639-1.679,2.882-1.817a18.377,18.377,0,0,1,6.3.633c.477.113.966.364,1.289-.284q2.886-5.795,5.786-11.583l-.194-.2M54.162,60.716C52.454,65.6,49.97,67.3,44.984,66.94c-.7-.051-.867.236-.982.778a8.164,8.164,0,0,0,5.191,9.2c2.324.832,4.7.471,7.047.2a37.683,37.683,0,0,0,12.351-4.147,15.38,15.38,0,0,0,7.824-19.289c-1.543-4.077-3.353-8.065-5.251-11.992A12.4,12.4,0,0,0,63.3,35.2a1.814,1.814,0,0,0-1.824.32,28.7,28.7,0,0,1-16.216,5.735,1.526,1.526,0,0,0-1.307.551,11.078,11.078,0,0,0-2.492,5.633,93.03,93.03,0,0,0-.139,12.236,4.965,4.965,0,0,0,5.208,4.814,5.016,5.016,0,0,0,5-5.017c.05-1.123.008-2.25.024-3.374a9.073,9.073,0,0,1,1.14-4.425c.161-.284.229-.577.718-.454,1.521.383,1.721.929,1.3,2.343-1.125,3.748-.84,4.522,2.583,5.541a6.845,6.845,0,0,0,1.224.206c1.458.156.663,1.265.788,1.945.143.776-.475.7-.99.663a12.453,12.453,0,0,1-4.158-1.2M38.7,54.151c0-1.625.025-3.25-.006-4.875a11.975,11.975,0,0,0-2.546-7.292,1.634,1.634,0,0,0-1.344-.733,28.755,28.755,0,0,1-16.44-5.815,1.6,1.6,0,0,0-1.6-.256,12.684,12.684,0,0,0-8.207,6.974Q5.993,47.631,3.706,53.235A15.222,15.222,0,0,0,9.683,71.959a34.622,34.622,0,0,0,17.923,5.462,8.136,8.136,0,0,0,8.386-9.476c-.1-.7-.251-1.081-1.155-.991-4.466.443-7.35-1.422-8.787-5.648-.2-.6-.354-.588-.833-.357a9.163,9.163,0,0,1-3.345.932c-.527.038-1.325.353-1.214-.653.078-.713-.645-1.876.936-1.939a6.778,6.778,0,0,0,3.582-1.318,1.131,1.131,0,0,0,.584-1.014,6.821,6.821,0,0,0-.7-3.873c-.8-1.241.427-1.2.957-1.582.616-.446,1.019-.394,1.4.41a10.965,10.965,0,0,1,1,4.59,15.6,15.6,0,0,0,.235,4.473A5.145,5.145,0,0,0,38.683,59.4c.062-1.748.012-3.5.015-5.249M39.951,25.87a3.146,3.146,0,0,0,.419-.238A19.408,19.408,0,0,1,45.846,22.7c.771-.28.483-.659.248-1.127-1.754-3.492-3.489-6.994-5.249-10.484-.171-.339-.229-.794-.805-.828-.649-.038-.736.459-.927.838-1.756,3.491-3.485,7-5.255,10.481-.3.6-.352.895.392,1.167a18.96,18.96,0,0,1,5.257,2.819c.129.1.27.186.442.3m-17.559.281c-.991,1.831-.99,1.829.824,2.733,1.746.87,3.507,1.711,5.23,2.627a4.659,4.659,0,0,1,2.489,4.766c-.4,2.1-.4,2.093,1.821,2.241.58.039,1.162.084,1.738.155a.687.687,0,0,0,.857-.5c.779-2.349,1.566-4.7,2.365-7.089a30.513,30.513,0,0,1-15.324-4.93m19.861,4.915c.79,2.387,1.557,4.7,2.322,7.02a.736.736,0,0,0,.93.583c1.02-.194,2.062-.173,3.092-.344.939-.156.9-.511.685-1.245a4.508,4.508,0,0,1,2.491-5.7c1.88-.973,3.75-1.977,5.686-2.827,1.262-.554.716-1.288.363-1.975-.487-.947-.835.062-1.2.2a17.285,17.285,0,0,0-1.63.9,30.6,30.6,0,0,1-12.736,3.382M29.456,10.26a2.567,2.567,0,0,0,1.455-.268q2.416-1.545,4.81-3.126c.581-.383.255-.666-.138-.925C34.126,4.98,32.7,3.965,31.2,3.07a3.5,3.5,0,0,0-4.171.457A4.021,4.021,0,0,0,26.05,8a3.533,3.533,0,0,0,3.407,2.262m20.922,0A3.576,3.576,0,0,0,53.9,8.033a4,4,0,0,0-1.035-4.558,3.521,3.521,0,0,0-4.179-.365c-1.457.882-2.843,1.881-4.277,2.8-.611.394-.6.693,0,1.081,1.4.9,2.772,1.839,4.162,2.752a2.864,2.864,0,0,0,1.8.514M56.35,23.455a21.885,21.885,0,0,0-14.687,4.726A22.036,22.036,0,0,0,56.35,23.455m-32.736.018a22.068,22.068,0,0,0,14.693,4.686,21.982,21.982,0,0,0-14.693-4.686m4.741,12.108a2.045,2.045,0,0,0-1.146-1.8q-2.94-1.483-5.884-2.957c-.211-.105-.434-.286-.692-.149-.768.407-.9,2.583-.179,3.091a26.319,26.319,0,0,0,6.014,3.207c1.4.521,1.909.148,1.886-1.392m23.253.086c.05,1.546.5,1.834,1.973,1.277a26.213,26.213,0,0,0,5.185-2.664c1.756-1.157,1.769-1.29.85-3.154-.245-.5-.476-.567-.945-.327-1.954,1-3.919,1.981-5.882,2.965a2.084,2.084,0,0,0-1.182,1.9M39.982,43.212a21.335,21.335,0,0,1,2.136-3.225.69.69,0,0,0,.122-.7q-1.059-3.2-2.134-6.4c-.729,1.446-1.105,2.923-1.7,4.307-.671,1.557-.907,2.928.489,4.234a8.5,8.5,0,0,1,1.087,1.781m-.081-38A1.143,1.143,0,0,0,38.743,6.5a1.242,1.242,0,1,0,2.482-.081,1.167,1.167,0,0,0-1.324-1.2" transform="translate(0 0)" fill="#fef0d7"/>
      </g>
    </g>
  </g>
</svg>
