<svg xmlns="http://www.w3.org/2000/svg" xmlns:xlink="http://www.w3.org/1999/xlink" width="1240" height="468" viewBox="0 0 1240 468">
  <defs>
    <clipPath id="clip-path">
      <rect id="Rectángulo_377901" data-name="Rectángulo 377901" width="1240" height="468" transform="translate(0.332 20.216)" fill="#fee7bd"/>
    </clipPath>
    <linearGradient id="linear-gradient" x1="1.019" y1="0.33" x2="0.211" y2="0.161" gradientUnits="objectBoundingBox">
      <stop offset="0" stop-color="#fee6bd"/>
      <stop offset="0.46" stop-color="#f7f1e7"/>
      <stop offset="1" stop-color="#eddbbb"/>
    </linearGradient>
    <clipPath id="clip-path-2">
      <rect id="Rectángulo_378430" data-name="Rectángulo 378430" width="1051.979" height="631.703" transform="translate(0 0)" fill="none"/>
    </clipPath>
  </defs>
  <g id="Grupo_1075263" data-name="Grupo 1075263" transform="translate(1240.332 488.216) rotate(180)">
    <g id="Grupo_154360" data-name="Grupo 154360" clip-path="url(#clip-path)">
      <path id="Trazado_610761" data-name="Trazado 610761" d="M0,0H648.937V1323.84H0Z" transform="translate(1270.342 -99.144) rotate(90)" fill="url(#linear-gradient)"/>
      <rect id="Rectángulo_378306" data-name="Rectángulo 378306" width="1305.641" height="515.882" transform="translate(1270.342 488.216) rotate(180)" fill="none"/>
      <g id="Grupo_1073803" data-name="Grupo 1073803" transform="translate(68.237 -176.13) rotate(30)">
        <g id="Enmascarar_grupo_1073803" data-name="Enmascarar grupo 1073803" transform="translate(0 0)" clip-path="url(#clip-path-2)">
          <path id="Trazado_611020" data-name="Trazado 611020" d="M1118.284,379.857h-739.9c-.2,0-.456,0-.436,0q-.138-.006-.276-.007c-.092,0-.184,0-.276,0s-.181-.01-.272-.012c-.724-.023-1.429-.059-2.113-.142a27.15,27.15,0,0,1-3.958-.743,25.291,25.291,0,0,1-3.724-1.353q-.906-.412-1.782-.9c-.581-.328-1.148-.682-1.7-1.057a23.57,23.57,0,0,1-3.09-2.506,20.619,20.619,0,0,1-2.514-2.923,19.074,19.074,0,0,1-1.842-3.179,17.8,17.8,0,0,1-1.595-7.006c0-.161,0-.322-.01-.483q.015-.241.009-.483c.018-.318.019-.635.052-.944.048-.62.123-1.224.225-1.815a17.805,17.805,0,0,1,.977-3.419c.219-.553.462-1.1.739-1.639s.589-1.067.926-1.589a21.286,21.286,0,0,1,2.351-3,22.885,22.885,0,0,1,2.968-2.62,23.2,23.2,0,0,1,3.4-2.1,25.244,25.244,0,0,1,3.675-1.5c.16-.042.314-.1.473-.146s.319-.086.476-.137q.244-.053.481-.123c.161-.04.325-.069.484-.114.649-.146,1.306-.269,1.977-.369s1.354-.182,2.059-.226c.354-.014.708-.044,1.072-.048.091,0,.179-.015.272-.011s.184,0,.276,0,.184,0,.276-.008H714.937q2.14-.014,4.28-.045c5.711-.116,11.437-.448,17.149-1s11.411-1.324,17.063-2.331,11.259-2.231,16.793-3.673A209.312,209.312,0,0,0,802.343,321,194.071,194.071,0,0,0,857.1,284.851a175.73,175.73,0,0,0,21.062-23.817,163.507,163.507,0,0,0,15.947-26.79q3.3-7,5.88-14.248a152.774,152.774,0,0,0,4.383-14.653,149.056,149.056,0,0,0,4.211-29.911c.191-5,.137-9.982-.165-14.988a147.36,147.36,0,0,0-1.689-15,151.091,151.091,0,0,0-7.94-29.437,159.729,159.729,0,0,0-13.809-27.722,169.842,169.842,0,0,0-19.158-25.055,183.062,183.062,0,0,0-23.858-21.671A196.341,196.341,0,0,0,814.068,23.9a211.033,211.033,0,0,0-64.462-21.16A222.855,222.855,0,0,0,715.364,0L695.8,0H0V23.577H695.8l19.486,0a192.177,192.177,0,0,1,29.5,2.354,181.6,181.6,0,0,1,55.473,18.21,169.2,169.2,0,0,1,24.022,15.214,157.711,157.711,0,0,1,20.553,18.669,146.228,146.228,0,0,1,16.5,21.575,137.582,137.582,0,0,1,11.884,23.857,130,130,0,0,1,6.832,25.332,126.842,126.842,0,0,1,1.455,12.917q.39,6.471.142,12.924a128.263,128.263,0,0,1-3.626,25.759q-1.563,6.37-3.771,12.609t-5.061,12.259a140.812,140.812,0,0,1-13.726,23.061,151.448,151.448,0,0,1-18.142,20.513,167.134,167.134,0,0,1-47.154,31.138,180.045,180.045,0,0,1-27.64,9.632q-7.141,1.861-14.449,3.161c-4.864.867-9.77,1.527-14.689,2.005s-9.853.763-14.778.864l-3.691.04H377.935l-.57.01-.57,0c-.19,0-.378.014-.567.019-.757.016-1.507.065-2.257.106-1.5.1-2.974.268-4.437.482s-2.908.488-4.335.813l-1.068.254q-.528.143-1.061.275-.524.156-1.051.3c-.35.1-.694.218-1.044.32a54.173,54.173,0,0,0-8.04,3.277,50.491,50.491,0,0,0-7.307,4.514,48.381,48.381,0,0,0-6.316,5.585,45.027,45.027,0,0,0-5.06,6.45q-1.1,1.7-2.013,3.468c-.609,1.18-1.15,2.382-1.633,3.6a39.012,39.012,0,0,0-2.145,7.513q-.338,1.927-.489,3.9a37.361,37.361,0,0,0-.1,3.976,39.5,39.5,0,0,0,.978,7.79,40.21,40.21,0,0,0,2.516,7.417,41.631,41.631,0,0,0,4.01,6.934,44.8,44.8,0,0,0,5.387,6.26,49.541,49.541,0,0,0,6.584,5.34q1.773,1.2,3.655,2.265t3.859,1.953a54.528,54.528,0,0,0,8.181,2.965,57.481,57.481,0,0,0,8.667,1.632c1.477.169,2.976.259,4.487.306.189.005.377.019.567.02l.571,0,.57.009c.05,0,.292,0,.489,0h739.9Z" transform="translate(-32.895 50.405)" fill="#e36849"/>
          <path id="Trazado_611021" data-name="Trazado 611021" d="M1118.284,379.856h-739.9c-.2,0-.434,0-.507,0l-.668-.01-.668,0c-.222,0-.444-.016-.666-.022-1.774-.055-3.537-.164-5.278-.361a67.5,67.5,0,0,1-10.237-1.929,64.217,64.217,0,0,1-9.666-3.5q-2.328-1.062-4.551-2.3t-4.306-2.667a58.12,58.12,0,0,1-7.748-6.285,52.835,52.835,0,0,1-6.345-7.372,49.144,49.144,0,0,1-4.733-8.186,47.34,47.34,0,0,1-2.974-8.767,46.415,46.415,0,0,1-1.153-9.174,44.292,44.292,0,0,1,.122-4.664q.177-2.314.577-4.588a46.07,46.07,0,0,1,2.534-8.879q.857-2.162,1.931-4.256t2.375-4.095a52.928,52.928,0,0,1,5.963-7.6,56.867,56.867,0,0,1,7.432-6.573,59.577,59.577,0,0,1,8.61-5.317,63.808,63.808,0,0,1,9.5-3.869,64.522,64.522,0,0,1,10.114-2.319c1.726-.253,3.468-.452,5.229-.568.881-.05,1.763-.106,2.652-.126.222-.006.443-.022.666-.021l.668-.005.668-.01H714.918l3.495-.038q6.993-.143,13.987-.818c4.655-.453,9.3-1.077,13.9-1.9s9.164-1.817,13.668-2.991a170.257,170.257,0,0,0,26.147-9.112,158.16,158.16,0,0,0,44.621-29.466A143.347,143.347,0,0,0,847.9,212.644a133.226,133.226,0,0,0,12.986-21.817q2.686-5.7,4.787-11.6a124.42,124.42,0,0,0,3.567-11.927,122.218,122.218,0,0,0-4.543-72.8,130.188,130.188,0,0,0-11.241-22.568,138.409,138.409,0,0,0-15.612-20.415,149.284,149.284,0,0,0-19.45-17.668,160.17,160.17,0,0,0-22.732-14.4A171.78,171.78,0,0,0,743.185,2.231,181.93,181.93,0,0,0,715.266,0L695.8,0H0V23.577H695.8l19.389,0a151.219,151.219,0,0,1,23.175,1.848,142.341,142.341,0,0,1,43.488,14.278,133,133,0,0,1,18.862,11.945,123.874,123.874,0,0,1,16.144,14.666,114.718,114.718,0,0,1,12.952,16.935,108.031,108.031,0,0,1,9.317,18.7,101.548,101.548,0,0,1,6.608,40.175,100.523,100.523,0,0,1-2.845,20.222q-1.225,4.994-2.953,9.882t-3.967,9.607a110.544,110.544,0,0,1-10.765,18.088,119.1,119.1,0,0,1-14.248,16.109,131.243,131.243,0,0,1-37.022,24.451,140.962,140.962,0,0,1-21.666,7.55q-5.6,1.459-11.324,2.479c-3.813.68-7.662,1.2-11.524,1.572s-7.74.6-11.615.68l-2.906.032H377.89l-.963.012-.963.01c-.321,0-.641.02-.961.028-1.282.031-2.56.106-3.837.184-2.553.17-5.089.454-7.606.824a94.6,94.6,0,0,0-14.781,3.391,92.621,92.621,0,0,0-13.86,5.648,86.785,86.785,0,0,0-12.517,7.727,82.307,82.307,0,0,0-10.781,9.538,76.688,76.688,0,0,0-8.671,11.048q-1.882,2.919-3.462,5.973t-2.824,6.219a66.874,66.874,0,0,0-3.039,39.7,68.713,68.713,0,0,0,4.348,12.816,71.779,71.779,0,0,0,6.9,11.943,77,77,0,0,0,9.219,10.709,84.061,84.061,0,0,0,11.242,9.121q3.032,2.057,6.26,3.874t6.628,3.36a93.415,93.415,0,0,0,14.123,5.112,97.826,97.826,0,0,0,14.945,2.819c2.535.283,5.09.446,7.653.525.32.009.64.026.961.03l.962.009.963.012.56,0h739.9Z" transform="translate(-32.895 81.842)" fill="#f79621"/>
          <path id="Trazado_611022" data-name="Trazado 611022" d="M1118.284,379.857h-739.9l-.577,0-1.061-.012-1.061-.011c-.354-.005-.706-.023-1.059-.033-2.825-.087-5.645-.268-8.444-.58a107.919,107.919,0,0,1-16.514-3.115,103.237,103.237,0,0,1-15.608-5.649q-3.751-1.712-7.32-3.711t-6.911-4.277A92.694,92.694,0,0,1,307.425,352.4a85.045,85.045,0,0,1-10.177-11.821,79.28,79.28,0,0,1-7.623-13.194,75.869,75.869,0,0,1-4.806-14.166,73.709,73.709,0,0,1,3.359-43.828q1.385-3.494,3.122-6.874t3.824-6.6a84.6,84.6,0,0,1,9.574-12.2,90.842,90.842,0,0,1,11.9-10.527,95.905,95.905,0,0,1,13.819-8.53,102.243,102.243,0,0,1,15.315-6.24,104.662,104.662,0,0,1,16.337-3.748c2.781-.409,5.582-.721,8.4-.909,1.409-.087,2.818-.168,4.232-.2.353-.009.706-.03,1.06-.031l1.061-.011,1.061-.012,1.191,0H714.9l2.71-.03q5.42-.113,10.824-.634c3.6-.35,7.182-.83,10.733-1.464s7.07-1.4,10.543-2.308a131.149,131.149,0,0,0,20.173-7.03,122.249,122.249,0,0,0,34.488-22.779,110.988,110.988,0,0,0,13.275-15.007A102.976,102.976,0,0,0,827.67,147.41q2.072-4.4,3.694-8.944t2.749-9.2a93.6,93.6,0,0,0,2.65-18.838A94.6,94.6,0,0,0,830.61,73a100.679,100.679,0,0,0-8.675-17.415A106.819,106.819,0,0,0,809.87,39.813a115.469,115.469,0,0,0-15.042-13.666A123.914,123.914,0,0,0,777.255,15.02q-4.664-2.436-9.565-4.505t-10-3.731a135.33,135.33,0,0,0-20.931-5.058A140.985,140.985,0,0,0,715.169,0L695.8,0H0V23.577H695.8l19.292,0a110.308,110.308,0,0,1,16.852,1.342,105.264,105.264,0,0,1,16.279,3.934q3.958,1.3,7.777,2.9t7.447,3.509a96.8,96.8,0,0,1,13.7,8.676,90.089,90.089,0,0,1,11.736,10.664,83.25,83.25,0,0,1,9.406,12.3,78.494,78.494,0,0,1,6.749,13.549,73.623,73.623,0,0,1,3.877,14.384,71.569,71.569,0,0,1,.832,7.372c.147,2.469.172,4.948.079,7.42a72.834,72.834,0,0,1-2.065,14.686q-.887,3.617-2.136,7.155t-2.875,6.955a80.277,80.277,0,0,1-7.8,13.115,86.744,86.744,0,0,1-10.355,11.7,95.33,95.33,0,0,1-26.89,17.763,101.827,101.827,0,0,1-15.691,5.467q-4.051,1.056-8.2,1.8c-2.762.494-5.554.865-8.358,1.139s-5.626.436-8.453.5l-2.122.023H377.844l-1.355.014-1.355.016c-.452,0-.9.026-1.355.038-1.807.047-3.612.148-5.417.261-3.608.243-7.2.64-10.776,1.166a134.7,134.7,0,0,0-21,4.82,131.089,131.089,0,0,0-19.68,8.019,123.2,123.2,0,0,0-17.726,10.94A116.323,116.323,0,0,0,283.931,228.7a108.313,108.313,0,0,0-12.282,15.646,97.664,97.664,0,0,0-14.186,35.748,94.576,94.576,0,0,0,.94,37.788,97.278,97.278,0,0,0,6.18,18.214,101.892,101.892,0,0,0,9.791,16.95,109.187,109.187,0,0,0,13.05,15.158,118.672,118.672,0,0,0,15.9,12.9,128.761,128.761,0,0,0,38.326,17.51,138.3,138.3,0,0,0,21.223,4.005c3.593.4,7.205.633,10.818.744.451.014.9.033,1.355.04l1.355.016,1.355.014,1.234,0h739.293Z" transform="translate(-32.895 113.278)" fill="#ffbe30"/>
          <path id="Trazado_611023" data-name="Trazado 611023" d="M1118.284,379.857H378.991l-1.252,0-1.453-.015-1.453-.018c-.484-.008-.969-.028-1.453-.042-3.876-.119-7.752-.373-11.609-.8a148.388,148.388,0,0,1-22.792-4.3,138.249,138.249,0,0,1-41.155-18.8,127.289,127.289,0,0,1-17.065-13.846,117.256,117.256,0,0,1-14.008-16.27,109.44,109.44,0,0,1-10.514-18.2,104.431,104.431,0,0,1-6.638-19.565,101.461,101.461,0,0,1-1.01-40.554,104.9,104.9,0,0,1,15.236-38.393,116.262,116.262,0,0,1,13.185-16.8,124.83,124.83,0,0,1,16.362-14.481A132.294,132.294,0,0,1,312.4,166.027a140.806,140.806,0,0,1,21.135-8.611,144.767,144.767,0,0,1,22.559-5.177c3.836-.564,7.7-.991,11.569-1.251,1.936-.122,3.873-.23,5.811-.281.484-.014.969-.037,1.453-.041l1.453-.017,1.453-.015H714.88l1.925-.022q3.848-.082,7.663-.449c2.54-.248,5.067-.583,7.567-1.031s4.975-.989,7.419-1.625a92.073,92.073,0,0,0,14.2-4.947,86.351,86.351,0,0,0,24.356-16.091,78.659,78.659,0,0,0,9.381-10.6,72.711,72.711,0,0,0,7.063-11.872q1.459-3.094,2.6-6.292t1.932-6.474a65.862,65.862,0,0,0,1.869-13.3c.085-2.243.061-4.494-.071-6.732a64.576,64.576,0,0,0-.754-6.679A66.566,66.566,0,0,0,796.521,51.5a71.074,71.074,0,0,0-6.107-12.261A75.367,75.367,0,0,0,781.9,28.1a81.667,81.667,0,0,0-10.634-9.663,87.78,87.78,0,0,0-12.412-7.859q-3.29-1.719-6.741-3.177t-7.037-2.625a95.326,95.326,0,0,0-14.728-3.56A100.068,100.068,0,0,0,715.072,0L695.8,0H0V23.577H695.8l19.194,0a69.353,69.353,0,0,1,10.528.836A65.244,65.244,0,0,1,735.6,26.853q2.449.8,4.818,1.8t4.623,2.181a60.6,60.6,0,0,1,8.542,5.407,56.277,56.277,0,0,1,7.328,6.661,51.716,51.716,0,0,1,5.859,7.656,48.923,48.923,0,0,1,4.182,8.4c.129.364.274.724.4,1.089s.246.732.374,1.1q.164.554.34,1.1c.11.369.2.742.312,1.112q.6,2.23.972,4.509a43.986,43.986,0,0,1,.52,4.6c.09,1.546.106,3.115.048,4.668a45.105,45.105,0,0,1-1.284,9.149q-.549,2.241-1.319,4.429t-1.782,4.3a50.033,50.033,0,0,1-4.842,8.142,54.354,54.354,0,0,1-6.462,7.3,59.407,59.407,0,0,1-16.757,11.076,62.748,62.748,0,0,1-9.717,3.385q-2.506.653-5.075,1.114c-1.711.308-3.445.535-5.193.705s-3.513.272-5.291.311q-.669,0-1.337.016h-335.8l-1.271,0-1.747.017-1.747.022c-.582.006-1.166.032-1.749.048-2.332.062-4.665.189-7,.339-4.664.315-9.32.826-13.946,1.507a174.869,174.869,0,0,0-27.226,6.249,169.644,169.644,0,0,0-25.5,10.39,159.547,159.547,0,0,0-22.935,14.153,150.328,150.328,0,0,0-19.71,17.446,139.992,139.992,0,0,0-15.893,20.244,126.617,126.617,0,0,0-18.384,46.33,122.14,122.14,0,0,0,1.219,48.851,125.818,125.818,0,0,0,8.012,23.614,132.009,132.009,0,0,0,12.681,21.958,141.406,141.406,0,0,0,16.882,19.607,153.223,153.223,0,0,0,20.558,16.682,166.737,166.737,0,0,0,49.642,22.674,178.652,178.652,0,0,0,27.5,5.191c4.651.512,9.32.82,13.983.963.583.017,1.167.041,1.749.05l1.747.022,1.747.017,1.305,0h739.293Z" transform="translate(-32.895 144.715)" fill="#8ad0ce"/>
          <path id="Trazado_611024" data-name="Trazado 611024" d="M1118.284,379.856H378.991l-1.323,0-1.845-.018-1.845-.024c-.615-.01-1.232-.034-1.848-.052-4.926-.151-9.86-.478-14.774-1.018a188.758,188.758,0,0,1-29.07-5.488,176.23,176.23,0,0,1-52.471-23.965,161.85,161.85,0,0,1-21.723-17.627,149.47,149.47,0,0,1-17.84-20.72,139.543,139.543,0,0,1-13.4-23.21,132.973,132.973,0,0,1-8.47-24.963,129.031,129.031,0,0,1-1.288-51.617,133.856,133.856,0,0,1,19.433-48.976,147.935,147.935,0,0,1,16.8-21.393,158.822,158.822,0,0,1,20.827-18.435,168.662,168.662,0,0,1,24.237-14.956A179.286,179.286,0,0,1,321.338,96.41,184.828,184.828,0,0,1,350.119,89.8q7.335-1.08,14.738-1.593c2.463-.158,4.928-.292,7.392-.358.616-.017,1.232-.044,1.847-.051l1.846-.023,1.845-.017H714.861q.57-.014,1.141-.014,2.275-.051,4.5-.265c1.483-.145,2.953-.335,4.4-.6s2.881-.575,4.294-.943a52.957,52.957,0,0,0,8.224-2.864,50.438,50.438,0,0,0,14.224-9.4,46.22,46.22,0,0,0,5.488-6.2,42.416,42.416,0,0,0,4.1-6.9q.846-1.791,1.508-3.64t1.115-3.747a38.164,38.164,0,0,0,1.089-7.765c.049-1.324.036-2.665-.04-3.98a36.936,36.936,0,0,0-.442-3.906q-.318-1.931-.823-3.818l-.264-.941q-.151-.465-.288-.935-.165-.462-.317-.927c-.107-.308-.232-.613-.34-.921a41.517,41.517,0,0,0-3.54-7.107,43.844,43.844,0,0,0-4.973-6.5,47.857,47.857,0,0,0-6.226-5.661,51.569,51.569,0,0,0-7.251-4.59q-1.916-1-3.918-1.849t-4.078-1.518A55.207,55.207,0,0,0,723.922.713,59.136,59.136,0,0,0,714.975,0L695.8,0H0V23.577H695.8l19.1,0a28.527,28.527,0,0,1,4.2.33,25.3,25.3,0,0,1,3.873.938c.627.205,1.248.433,1.859.689s1.21.544,1.8.853a24.492,24.492,0,0,1,3.381,2.138,22.565,22.565,0,0,1,2.921,2.659,20.227,20.227,0,0,1,2.313,3.016,19.355,19.355,0,0,1,1.615,3.242c.044.141.107.277.155.417s.09.282.145.42q.054.214.129.424c.043.142.072.287.119.427q.227.858.375,1.748A16.474,16.474,0,0,1,738,42.709c.034.624.04,1.281.017,1.916a17.409,17.409,0,0,1-.5,3.612c-.141.577-.307,1.143-.5,1.7s-.431,1.107-.688,1.651a19.781,19.781,0,0,1-1.882,3.169,21.973,21.973,0,0,1-2.568,2.893,23.9,23.9,0,0,1-10.367,5.691q-.961.25-1.95.431c-.66.122-1.337.2-2.027.272s-1.4.108-2.128.127c-.184,0-.368,0-.552.008H379.069l-1.316,0-2.14.019-2.14.028c-.713.009-1.428.038-2.143.058-2.856.078-5.717.231-8.576.417q-8.579.58-17.116,1.849a214.994,214.994,0,0,0-33.448,7.678,208.1,208.1,0,0,0-31.32,12.761,195.9,195.9,0,0,0-28.144,17.367,184.263,184.263,0,0,0-24.175,21.4,171.67,171.67,0,0,0-19.5,24.842,155.569,155.569,0,0,0-22.581,56.912,150.989,150.989,0,0,0-1.9,14.988,147.353,147.353,0,0,0-.386,14.991,150.219,150.219,0,0,0,3.778,29.936,154.4,154.4,0,0,0,9.844,29.012,162.148,162.148,0,0,0,15.572,26.966,173.619,173.619,0,0,0,20.713,24.056,187.709,187.709,0,0,0,25.216,20.461,204.694,204.694,0,0,0,60.958,27.838,218.982,218.982,0,0,0,33.779,6.378c5.708.627,11.435,1.008,17.148,1.183.714.021,1.43.048,2.143.06l2.14.029,2.14.02,1.376,0h739.293Z" transform="translate(-32.895 176.151)" fill="#137c78"/>
        </g>
      </g>
    </g>
  </g>
</svg>
