<svg xmlns="http://www.w3.org/2000/svg" xmlns:xlink="http://www.w3.org/1999/xlink" width="120" height="120" viewBox="0 0 120 120">
  <defs>
    <clipPath id="clip-path">
      <path id="Trazado_611025" data-name="Trazado 611025" d="M60.2,1.073a9.086,9.086,0,0,0-7.37,3.762A8.709,8.709,0,0,1,44.126,6.7a9.052,9.052,0,0,0-7.7-.5c-.129.048-.258.1-.385.152l-.1.042a9.132,9.132,0,0,0-5.208,6.448,8.743,8.743,0,0,1-7.2,5.262,9.061,9.061,0,0,0-7.6,3.07,9.166,9.166,0,0,0-2.151,7.986,8.774,8.774,0,0,1-4.423,7.764,9.134,9.134,0,0,0-5.728,5.933c-.009.028-.014.054-.022.078-.041.144-.08.286-.116.43A9.17,9.17,0,0,0,4.9,51.028a8.813,8.813,0,0,1-.9,8.9A9.3,9.3,0,0,0,5.664,74.658a8.81,8.81,0,0,1,2.754,8.505,9.174,9.174,0,0,0,.312,7.746c.063.134.132.259.2.385.015.028.027.055.041.078A9.093,9.093,0,0,0,15.9,95.9a8.774,8.774,0,0,1,5.958,6.646,9.221,9.221,0,0,0,11.966,8.589,8.71,8.71,0,0,1,8.146,3.606,9.108,9.108,0,0,0,6.471,5.105c.026.006.051.006.078.013.145.025.288.052.438.072a9.077,9.077,0,0,0,7.439-2.208,8.687,8.687,0,0,1,8.9-.034,9.21,9.21,0,0,0,14.407-3.2,8.712,8.712,0,0,1,8.129-3.639,9.056,9.056,0,0,0,7.636-1.123c.121-.075.24-.157.355-.239.026-.017.055-.034.079-.054a9.155,9.155,0,0,0,3.762-7.4,8.764,8.764,0,0,1,5.955-6.644,9.26,9.26,0,0,0,7.25-12.855A8.806,8.806,0,0,1,115.614,74a9.281,9.281,0,0,0,1.419-14.7,8.818,8.818,0,0,1-.951-8.922,9.273,9.273,0,0,0-4.654-14.013,8.79,8.79,0,0,1-4.484-7.763,9.166,9.166,0,0,0-2.249-7.915A9.056,9.056,0,0,0,97.02,17.7a8.745,8.745,0,0,1-7.225-5.234,9.134,9.134,0,0,0-5.272-6.342.731.731,0,0,0-.088-.034c-.129-.054-.264-.106-.4-.157a9.068,9.068,0,0,0-7.737.605,8.7,8.7,0,0,1-8.714-1.827,9.088,9.088,0,0,0-7.253-3.64H60.2" transform="translate(-1.105 -1.072)" fill="#b0dfde"/>
    </clipPath>
    <clipPath id="clip-path-3">
      <rect id="Rectángulo_378432" data-name="Rectángulo 378432" width="120" height="120" fill="none"/>
    </clipPath>
    <clipPath id="clip-path-4">
      <rect id="Rectángulo_378929" data-name="Rectángulo 378929" width="62.819" height="69.616" fill="#3c5756"/>
    </clipPath>
  </defs>
  <g id="Grupo_1099929" data-name="Grupo 1099929" transform="translate(-810 -11897.76)">
    <g id="Grupo_1099498" data-name="Grupo 1099498" transform="translate(502.001 2752.76)">
      <g id="Grupo_1074149" data-name="Grupo 1074149" transform="translate(307.999 9145)">
        <g id="Grupo_1074143" data-name="Grupo 1074143" transform="translate(0)">
          <g id="Grupo_1074028" data-name="Grupo 1074028" transform="translate(0 0)">
            <g id="Grupo_1074021" data-name="Grupo 1074021" transform="translate(0)">
              <g id="Grupo_1074018" data-name="Grupo 1074018" transform="translate(0.458 0.445)">
                <g id="Grupo_1074017" data-name="Grupo 1074017" clip-path="url(#clip-path)">
                  <path id="Trazado_611056" data-name="Trazado 611056" d="M0,0H132.2V131.995H0Z" transform="translate(-4.993 128.152) rotate(-90)" fill="#b0dfde"/>
                </g>
              </g>
              <g id="Grupo_1074020" data-name="Grupo 1074020">
                <g id="Grupo_1074019" data-name="Grupo 1074019" clip-path="url(#clip-path-3)">
                  <path id="Trazado_611027" data-name="Trazado 611027" d="M20.249,115.762a9.02,9.02,0,0,0,2.992,3.361,9.123,9.123,0,0,0,4.2,1.5h.014l.016.006a9.021,9.021,0,0,1,3.985,2.5,10.017,10.017,0,0,1,2.172,4.215l.007.026v.031a8.863,8.863,0,0,0,3.81,7.007,8.71,8.71,0,0,0,7.784,1.188l.038-.013.049,0a9.3,9.3,0,0,1,4.791.681,10.136,10.136,0,0,1,3.782,3.042l.034.042.026.055a8.636,8.636,0,0,0,2.538,3.148,8.51,8.51,0,0,0,3.7,1.641l-.043-.009.5.075c.171.017.359.049.516.056a8.63,8.63,0,0,0,.979.017,8.421,8.421,0,0,0,1.953-.306,8.526,8.526,0,0,0,3.434-1.892l.044-.04.061-.036a9.4,9.4,0,0,1,4.747-1.344,10.25,10.25,0,0,1,4.755,1.275l.067.035.055.049a8.556,8.556,0,0,0,13.372-3l.028-.065.046-.064a9.565,9.565,0,0,1,3.835-3.171,10.358,10.358,0,0,1,4.89-.768l.079,0,.078.023a8.4,8.4,0,0,0,3.9.215,8.567,8.567,0,0,0,7.014-8.358v-.079l.017-.078a9.657,9.657,0,0,1,2.249-4.465,10.407,10.407,0,0,1,4.172-2.683l.079-.029.075-.009A8.435,8.435,0,0,0,123.4,115.3a8.526,8.526,0,0,0,.429-7.643l-.028-.064-.015-.07a9.639,9.639,0,0,1,.229-4.983,10.378,10.378,0,0,1,2.713-4.15l.054-.052.061-.036a8.713,8.713,0,0,0,1.382-13.752l-.045-.041-.033-.046a9.5,9.5,0,0,1-1.765-4.6,10.3,10.3,0,0,1,.812-4.828l.023-.056.029-.04a8.867,8.867,0,0,0-4.37-13.412l-.038-.013-.029-.017a9.252,9.252,0,0,1-3.381-3.414,10.033,10.033,0,0,1-1.163-4.642v-.03l.005-.023a9.116,9.116,0,0,0-9.7-10.856,9.111,9.111,0,0,1,7.761,2.877,9.245,9.245,0,0,1,2.152,3.734,9.452,9.452,0,0,1,.244,4.333l0-.053a9.488,9.488,0,0,0,1.2,4.371,8.6,8.6,0,0,0,3.228,3.1l-.067-.03a9.46,9.46,0,0,1,6.087,6.04,9.567,9.567,0,0,1,.446,4.42,9.7,9.7,0,0,1-1.593,4.162l.051-.1a9.273,9.273,0,0,0-.679,4.369,8.417,8.417,0,0,0,1.632,4.057l-.078-.088a9.738,9.738,0,0,1,3.175,8.174,9.593,9.593,0,0,1-1.422,4.3,9.8,9.8,0,0,1-3.211,3.19l.114-.089a9.1,9.1,0,0,0-2.37,3.641,8.311,8.311,0,0,0-.168,4.308l-.043-.133a9.9,9.9,0,0,1,.824,4.477,9.9,9.9,0,0,1-8.593,9.348l.154-.037a8.987,8.987,0,0,0-3.606,2.328,8.193,8.193,0,0,0-1.887,3.815l.017-.158a9.963,9.963,0,0,1-1.055,4.468,9.8,9.8,0,0,1-2.963,3.489,9.993,9.993,0,0,1-4.192,1.81,9.8,9.8,0,0,1-4.553-.273l.157.029a8.982,8.982,0,0,0-4.245.633,8.192,8.192,0,0,0-3.294,2.71l.075-.129a9.84,9.84,0,0,1-2.783,3.623,9.822,9.822,0,0,1-12.669-.213l.121.084a8.988,8.988,0,0,0-4.166-1.15,8.33,8.33,0,0,0-4.138,1.15l.1-.075a9.7,9.7,0,0,1-6.166,2.417,9.436,9.436,0,0,1-1.134-.04c-.194-.014-.355-.044-.534-.066l-.542-.088.021,0-.064-.012a9.478,9.478,0,0,1-2.137-.7,9.64,9.64,0,0,1-4.722-4.752l.059.1a9.205,9.205,0,0,0-3.389-2.819,8.411,8.411,0,0,0-4.337-.673l.086-.018a9.495,9.495,0,0,1-4.4.305,9.265,9.265,0,0,1-4.044-1.721,9.375,9.375,0,0,1-2.855-3.328,9.5,9.5,0,0,1-1.047-4.243l.008.057a9.578,9.578,0,0,0-1.98-4.082,8.7,8.7,0,0,0-3.783-2.5l.03.007a9.129,9.129,0,0,1-7.162-5.136" transform="translate(-12.182 -25.469)" fill="#3c5756"/>
                  <path id="Trazado_611028" data-name="Trazado 611028" d="M83.8,5.449a9.116,9.116,0,0,0-8.053.6l-.013.008-.02.006a9.058,9.058,0,0,1-4.708.371,9.933,9.933,0,0,1-4.268-2.109L66.712,4.3l-.026-.034A8.8,8.8,0,0,0,59.54.86,8.632,8.632,0,0,0,52.6,4.5l-.028.041-.048.043a9.394,9.394,0,0,1-4.323,2.3,10.249,10.249,0,0,1-4.892-.231l-.061-.017-.068-.036a8.544,8.544,0,0,0-7.667-.232,8.484,8.484,0,0,0-4.782,5.984l-.014.068-.033.072a9.6,9.6,0,0,1-3.09,3.9,10.379,10.379,0,0,1-4.623,1.78l-.08.012-.08-.007a8.624,8.624,0,0,0-8.878,6.3,8.515,8.515,0,0,0-.126,3.911l.015.075v.074a9.686,9.686,0,0,1-1.258,4.835,10.358,10.358,0,0,1-3.514,3.5l-.07.044-.07.023A8.493,8.493,0,0,0,3.58,42.418c-.085.3-.176.644-.251.992a9.265,9.265,0,0,0-.137.969,8.557,8.557,0,0,0,.067,1.988A8.693,8.693,0,0,0,4.731,50.04l.041.058.024.055a9.576,9.576,0,0,1,.768,4.878,10.291,10.291,0,0,1-1.8,4.559l-.038.056-.039.036A8.72,8.72,0,0,0,.933,67.038a8.865,8.865,0,0,0,4.231,6.717l.035.02.022.022a9.187,9.187,0,0,1,2.553,4.035,10.022,10.022,0,0,1,.149,4.741l0,.023-.007.014a9.218,9.218,0,0,0-.425,6.12,9.926,9.926,0,0,0,.784,1.948,10.021,10.021,0,0,1-.875-1.92,9.208,9.208,0,0,1,.2-6.28l-.01.037A9.6,9.6,0,0,0,7.3,77.982a8.606,8.606,0,0,0-2.52-3.7l.057.042A9.33,9.33,0,0,1,1.6,71.314,9.521,9.521,0,0,1,.081,67.138a9.656,9.656,0,0,1,2.9-8.214l-.078.092a9.223,9.223,0,0,0,1.535-4.107,8.386,8.386,0,0,0-.769-4.264l.065.113a9.73,9.73,0,0,1-1.727-4.2,9.871,9.871,0,0,1-.092-2.287,10.311,10.311,0,0,1,.158-1.154c.075-.351.159-.7.27-1.087a9.814,9.814,0,0,1,6.126-6.383l-.141.068a8.983,8.983,0,0,0,3.041-3.052,8.262,8.262,0,0,0,1.039-4.146l.015.149a9.959,9.959,0,0,1,.117-4.574,9.856,9.856,0,0,1,10.389-7.335l-.161.005a9,9,0,0,0,4.024-1.5,8.227,8.227,0,0,0,2.667-3.34l-.046.14a9.867,9.867,0,0,1,1.967-4.111,9.688,9.688,0,0,1,3.594-2.767A9.918,9.918,0,0,1,39.418,4.3a9.609,9.609,0,0,1,4.353,1.218l-.128-.052a9.078,9.078,0,0,0,4.335.3A8.321,8.321,0,0,0,51.846,3.8l-.076.084A9.63,9.63,0,0,1,55.2,1.006a9.764,9.764,0,0,1,8.643.006A9.323,9.323,0,0,1,67.2,3.873l-.052-.054A9.381,9.381,0,0,0,71.11,5.945a8.64,8.64,0,0,0,4.5-.21l-.033.014a9.132,9.132,0,0,1,4.095-1.13,9.256,9.256,0,0,1,4.126.829" transform="translate(0 0)" fill="#3c5756"/>
                </g>
              </g>
            </g>
          </g>
        </g>
        <g id="Grupo_1074144" data-name="Grupo 1074144" transform="translate(23.322 23.326)">
          <rect id="Rectángulo_378411" data-name="Rectángulo 378411" width="73.516" height="73.515" transform="translate(0 0)" fill="none"/>
        </g>
      </g>
      <g id="Grupo_1099537" data-name="Grupo 1099537" transform="translate(336.59 9170.192)">
        <g id="Grupo_1099536" data-name="Grupo 1099536" clip-path="url(#clip-path-4)">
          <path id="Trazado_873955" data-name="Trazado 873955" d="M59.054,61.425c1.347-3.6,4.278-4.572,7.234-2.458.326.233.5.287.8-.025a4.307,4.307,0,0,1,7.293,1.991c.121.541.393.464.784.394A4.292,4.292,0,0,1,80.4,66.565c-.893,4.691-1.862,9.367-2.8,14.05-.042.209-.077.419-.121.658.444.011.661-.314.958-.472a3.941,3.941,0,0,1,4.388.4,3.626,3.626,0,0,1,1.34,4.175c-1.132,3.088-2.4,6.126-3.681,9.159a7.006,7.006,0,0,1-2.3,2.713c-1.687,1.315-3.367,2.637-5.061,3.942a4.681,4.681,0,0,0-1.959,3.468c-.253,2.923-.606,5.836-.9,8.755-.074.742-.348,1.34-1.163,1.258-.8-.08-.987-.678-.9-1.447.35-3.132.661-6.268.99-9.4a6.23,6.23,0,0,1,2.64-4.207c1.608-1.3,3.231-2.577,4.884-3.816a7.3,7.3,0,0,0,2.455-3.246c.931-2.355,1.872-4.706,2.8-7.061.544-1.378.265-2.407-.773-2.911-1.062-.516-1.985-.116-2.769,1.152A43.217,43.217,0,0,1,75.9,87.9c-1.776,2.261-4.323,3.328-6.811,4.491-.632.3-1.251.255-1.56-.462-.289-.67.11-1.092.692-1.378.909-.447,1.79-.967,2.732-1.33a8.031,8.031,0,0,0,3.06-2.367c.742-.835.629-1.975.836-2.981,1.219-5.918,2.374-11.849,3.557-17.774a2.274,2.274,0,1,0-4.432-1.022c-.187.773-.307,1.562-.458,2.343-.141.73-.414,1.417-1.315,1.212-.859-.2-.9-.853-.714-1.636.347-1.441.618-2.9.895-4.36a2.33,2.33,0,0,0-1.747-2.918,2.29,2.29,0,0,0-2.729,2.006c-.75,3.65-1.466,7.307-2.2,10.96-.042.213-.107.422-.147.635-.127.676-.509,1.062-1.213.921s-.914-.652-.782-1.316q.686-3.459,1.385-6.916c.227-1.135.473-2.267.67-3.407a2.3,2.3,0,0,0-1.905-2.71,2.493,2.493,0,0,0-2.575,1.866c-.977,2.978-.535,5.883.1,8.853C62.582,76.833,63.8,83.083,65,89.336a9.41,9.41,0,0,1-.421,5.362,13.95,13.95,0,0,0-.356,8.632c.714,3.212,1.307,6.451,1.97,9.675.153.746.172,1.462-.721,1.647s-1.161-.513-1.3-1.239c-.83-4.224-1.677-8.446-2.485-12.674a8.968,8.968,0,0,1,.452-5.033,14.067,14.067,0,0,0,.41-8.414c-1.624-7.754-3.126-15.534-4.67-23.3a2.312,2.312,0,1,0-4.494.905c.693,3.366,1.36,6.737,2.036,10.106.029.142.039.287.061.431.1.669-.119,1.194-.811,1.314s-1.036-.284-1.171-.97c-.7-3.549-1.426-7.093-2.142-10.639-.229-1.134-.442-2.272-.69-3.4A2.319,2.319,0,0,0,48.1,59.889a2.287,2.287,0,0,0-1.888,2.721c.857,4.4,1.746,8.8,2.622,13.2.057.284.092.572.147.857.138.717-.071,1.264-.845,1.357-.692.083-1.02-.336-1.15-1.015C46.513,74.52,46,72.04,45.5,69.557c-.519-2.589-1.022-5.181-1.56-7.766a2.31,2.31,0,0,0-2.78-2.069c-1.323.295-1.986,1.5-1.676,3.054,1.007,5.038,2,10.078,3.035,15.111.152.742-.024,1.268-.729,1.439-.822.2-1.161-.359-1.305-1.085Q39.2,71.8,37.912,65.363a2.286,2.286,0,1,0-4.535.553c.158.817.358,1.626.518,2.442.136.7.095,1.36-.763,1.526-.774.15-1.143-.345-1.251-1.032a20.026,20.026,0,0,1-.555-3.423,4.276,4.276,0,0,1,5.084-4.164c.627.127.91.151,1.148-.585a4.229,4.229,0,0,1,6.987-1.913c.493.435.71.422,1.214.028a4.273,4.273,0,0,1,6.515,1.359c.135.227.106.867.7.479,2.19-1.418,4.176-1.039,6.078.791" transform="translate(-24.506 -45.068)" fill="#3c5756"/>
          <path id="Trazado_873956" data-name="Trazado 873956" d="M20.7,135.277c-.461-2.328-.909-4.592-1.359-6.855-.028-.142-.083-.279-.109-.421-.123-.679-.009-1.271.763-1.44s1.133.355,1.271,1.01c.41,1.946.785,3.9,1.176,5.85q1.055,5.265,2.109,10.531a8.716,8.716,0,0,1,.184,1.179.938.938,0,0,1-.808,1.1.923.923,0,0,1-1.149-.74,25.841,25.841,0,0,1-.547-2.543c-.338-2.319-1.842-4.054-2.987-5.955a1.675,1.675,0,0,0-2.331-.472,1.826,1.826,0,0,0-.931,2.313c1.159,2.962,2.228,5.962,3.6,8.839a5.322,5.322,0,0,0,1.64,1.86c1.145.888,2.225,1.876,3.44,2.655a10.475,10.475,0,0,1,4.978,7.874c.31,2.363.854,4.7,1.347,7.033.166.785-.012,1.345-.794,1.485-.751.134-1.077-.4-1.212-1.087q-.876-4.471-1.779-8.936a5.611,5.611,0,0,0-2.134-3.427c-1.632-1.265-3.243-2.559-4.89-3.8a9.237,9.237,0,0,1-3.093-4.108c-.922-2.357-1.869-4.7-2.809-7.054a4.1,4.1,0,0,1,1.013-5.022c1.415-1.176,3.139-1.185,5.024-.032a3.448,3.448,0,0,0,.389.165" transform="translate(-10.836 -98.99)" fill="#3c5756"/>
          <path id="Trazado_873957" data-name="Trazado 873957" d="M104.873,1.125a1.019,1.019,0,0,1,.884-1.1.935.935,0,0,1,1.136.768q.678,2.9,1.289,5.807a.938.938,0,0,1-.675,1.193.917.917,0,0,1-1.276-.664c-.476-2-.908-4-1.358-6.005" transform="translate(-82.048 -0.006)" fill="#3c5756"/>
          <path id="Trazado_873958" data-name="Trazado 873958" d="M171.777,1.116c-.466,2.035-.909,4.076-1.41,6.1-.148.6-.689.719-1.229.572a.888.888,0,0,1-.686-1.082q.623-3.018,1.334-6.017a.892.892,0,0,1,1.093-.673,1.038,1.038,0,0,1,.9,1.1" transform="translate(-131.771 0)" fill="#3c5756"/>
          <path id="Trazado_873959" data-name="Trazado 873959" d="M34.791,21.735a1.057,1.057,0,0,1,.711-.952.9.9,0,0,1,1.152.347c.791,1.459,1.562,2.93,2.293,4.419a.887.887,0,0,1-.42,1.122.754.754,0,0,1-1.085-.031,30.356,30.356,0,0,1-2.65-4.905" transform="translate(-27.219 -16.203)" fill="#3c5756"/>
          <path id="Trazado_873960" data-name="Trazado 873960" d="M238.613,21.905a3.131,3.131,0,0,1-.175.492q-.962,1.88-1.944,3.75c-.3.57-.74.955-1.4.63a1.023,1.023,0,0,1-.424-1.561q1-1.921,2-3.84a1.014,1.014,0,0,1,1.263-.576c.466.133.7.486.672,1.1" transform="translate(-183.449 -16.234)" fill="#3c5756"/>
          <path id="Trazado_873961" data-name="Trazado 873961" d="M211.327,122.182c-.141.706-.264,1.563-.5,2.389a.936.936,0,0,1-1.179.685.914.914,0,0,1-.791-1.1c.125-.85.329-1.69.515-2.53a.936.936,0,0,1,1.19-.8c.658.122.825.615.761,1.359" transform="translate(-163.393 -94.507)" fill="#3c5756"/>
          <path id="Trazado_873962" data-name="Trazado 873962" d="M2.374,78.328C1.454,78.3-.015,77.246,0,76.614a.9.9,0,0,1,1.04-.97c.907.022,2.423,1.093,2.387,1.709a.929.929,0,0,1-1.054.976" transform="translate(0 -59.179)" fill="#3c5756"/>
          <path id="Trazado_873963" data-name="Trazado 873963" d="M275.449,75.632a.882.882,0,0,1,.887,1.032c-.016.624-1.565,1.672-2.43,1.654a.916.916,0,0,1-.99-1.032c0-.6,1.6-1.664,2.533-1.654" transform="translate(-213.518 -59.171)" fill="#3c5756"/>
        </g>
      </g>
    </g>
  </g>
</svg>
