<svg xmlns="http://www.w3.org/2000/svg" xmlns:xlink="http://www.w3.org/1999/xlink" width="120" height="120" viewBox="0 0 120 120">
  <defs>
    <clipPath id="clip-path">
      <path id="Trazado_611025" data-name="Trazado 611025" d="M60.2,1.073a9.086,9.086,0,0,0-7.37,3.762A8.709,8.709,0,0,1,44.126,6.7a9.052,9.052,0,0,0-7.7-.5c-.129.048-.258.1-.385.152l-.1.042a9.132,9.132,0,0,0-5.208,6.448,8.743,8.743,0,0,1-7.2,5.262,9.061,9.061,0,0,0-7.6,3.07,9.166,9.166,0,0,0-2.151,7.986,8.774,8.774,0,0,1-4.423,7.764,9.134,9.134,0,0,0-5.728,5.933c-.009.028-.014.054-.022.078-.041.144-.08.286-.116.43A9.17,9.17,0,0,0,4.9,51.028a8.813,8.813,0,0,1-.9,8.9A9.3,9.3,0,0,0,5.664,74.658a8.81,8.81,0,0,1,2.754,8.505,9.174,9.174,0,0,0,.312,7.746c.063.134.132.259.2.385.015.028.027.055.041.078A9.093,9.093,0,0,0,15.9,95.9a8.774,8.774,0,0,1,5.958,6.646,9.221,9.221,0,0,0,11.966,8.589,8.71,8.71,0,0,1,8.146,3.606,9.108,9.108,0,0,0,6.471,5.105c.026.006.051.006.078.013.145.025.288.052.438.072a9.077,9.077,0,0,0,7.439-2.208,8.687,8.687,0,0,1,8.9-.034,9.21,9.21,0,0,0,14.407-3.2,8.712,8.712,0,0,1,8.129-3.639,9.056,9.056,0,0,0,7.636-1.123c.121-.075.24-.157.355-.239.026-.017.055-.034.079-.054a9.155,9.155,0,0,0,3.762-7.4,8.764,8.764,0,0,1,5.955-6.644,9.26,9.26,0,0,0,7.25-12.855A8.806,8.806,0,0,1,115.614,74a9.281,9.281,0,0,0,1.419-14.7,8.818,8.818,0,0,1-.951-8.922,9.273,9.273,0,0,0-4.654-14.013,8.79,8.79,0,0,1-4.484-7.763,9.166,9.166,0,0,0-2.249-7.915A9.056,9.056,0,0,0,97.02,17.7a8.745,8.745,0,0,1-7.225-5.234,9.134,9.134,0,0,0-5.272-6.342.731.731,0,0,0-.088-.034c-.129-.054-.264-.106-.4-.157a9.068,9.068,0,0,0-7.737.605,8.7,8.7,0,0,1-8.714-1.827,9.088,9.088,0,0,0-7.253-3.64H60.2" transform="translate(-1.105 -1.072)" fill="#b0dfde"/>
    </clipPath>
    <clipPath id="clip-path-2">
      <path id="Trazado_611025-2" data-name="Trazado 611025" d="M60.2,1.073a9.086,9.086,0,0,0-7.37,3.762A8.709,8.709,0,0,1,44.126,6.7a9.052,9.052,0,0,0-7.7-.5c-.129.048-.258.1-.385.152l-.1.042a9.132,9.132,0,0,0-5.208,6.448,8.743,8.743,0,0,1-7.2,5.262,9.061,9.061,0,0,0-7.6,3.07,9.166,9.166,0,0,0-2.151,7.986,8.774,8.774,0,0,1-4.423,7.764,9.134,9.134,0,0,0-5.728,5.933c-.009.028-.014.054-.022.078-.041.144-.08.286-.116.43A9.17,9.17,0,0,0,4.9,51.028a8.813,8.813,0,0,1-.9,8.9A9.3,9.3,0,0,0,5.664,74.658a8.81,8.81,0,0,1,2.754,8.505,9.174,9.174,0,0,0,.312,7.746c.063.134.132.259.2.385.015.028.027.055.041.078A9.093,9.093,0,0,0,15.9,95.9a8.774,8.774,0,0,1,5.958,6.646,9.221,9.221,0,0,0,11.966,8.589,8.71,8.71,0,0,1,8.146,3.606,9.108,9.108,0,0,0,6.471,5.105c.026.006.051.006.078.013.145.025.288.052.438.072a9.077,9.077,0,0,0,7.439-2.208,8.687,8.687,0,0,1,8.9-.034,9.21,9.21,0,0,0,14.407-3.2,8.712,8.712,0,0,1,8.129-3.639,9.056,9.056,0,0,0,7.636-1.123c.121-.075.24-.157.355-.239.026-.017.055-.034.079-.054a9.155,9.155,0,0,0,3.762-7.4,8.764,8.764,0,0,1,5.955-6.644,9.26,9.26,0,0,0,7.25-12.855A8.806,8.806,0,0,1,115.614,74a9.281,9.281,0,0,0,1.419-14.7,8.818,8.818,0,0,1-.951-8.922,9.273,9.273,0,0,0-4.654-14.013,8.79,8.79,0,0,1-4.484-7.763,9.166,9.166,0,0,0-2.249-7.915A9.056,9.056,0,0,0,97.02,17.7a8.745,8.745,0,0,1-7.225-5.234,9.134,9.134,0,0,0-5.272-6.342.731.731,0,0,0-.088-.034c-.129-.054-.264-.106-.4-.157a9.068,9.068,0,0,0-7.737.605,8.7,8.7,0,0,1-8.714-1.827,9.088,9.088,0,0,0-7.253-3.64H60.2" transform="translate(-1.105 -1.072)" fill="#fff"/>
    </clipPath>
    <clipPath id="clip-path-3">
      <rect id="Rectángulo_378432" data-name="Rectángulo 378432" width="120" height="120" fill="none"/>
    </clipPath>
    <clipPath id="clip-path-4">
      <rect id="Rectángulo_378928" data-name="Rectángulo 378928" width="67.32" height="61.869" fill="#3c5756"/>
    </clipPath>
  </defs>
  <g id="Grupo_1099928" data-name="Grupo 1099928" transform="translate(-180.001 -11897.76)">
    <g id="Grupo_1099497" data-name="Grupo 1099497" transform="translate(-127.999 2752.76)">
      <g id="Grupo_1074149" data-name="Grupo 1074149" transform="translate(308 9145)">
        <g id="Grupo_1074143" data-name="Grupo 1074143" transform="translate(0)">
          <g id="Grupo_1074028" data-name="Grupo 1074028" transform="translate(0 0)">
            <g id="Grupo_1074021" data-name="Grupo 1074021" transform="translate(0)">
              <g id="Grupo_1074018" data-name="Grupo 1074018" transform="translate(0.458 0.445)">
                <g id="Grupo_1074017" data-name="Grupo 1074017" clip-path="url(#clip-path)">
                  <path id="Trazado_611056" data-name="Trazado 611056" d="M0,0H132.2V131.995H0Z" transform="translate(-4.993 128.152) rotate(-90)" fill="#b0dfde"/>
                </g>
              </g>
              <g id="Grupo_1074020" data-name="Grupo 1074020">
                <g id="Grupo_1074019" data-name="Grupo 1074019" clip-path="url(#clip-path-3)">
                  <path id="Trazado_611027" data-name="Trazado 611027" d="M20.249,115.762a9.02,9.02,0,0,0,2.992,3.361,9.123,9.123,0,0,0,4.2,1.5h.014l.016.006a9.021,9.021,0,0,1,3.985,2.5,10.017,10.017,0,0,1,2.172,4.215l.007.026v.031a8.863,8.863,0,0,0,3.81,7.007,8.71,8.71,0,0,0,7.784,1.188l.038-.013.049,0a9.3,9.3,0,0,1,4.791.681,10.136,10.136,0,0,1,3.782,3.042l.034.042.026.055a8.636,8.636,0,0,0,2.538,3.148,8.51,8.51,0,0,0,3.7,1.641l-.043-.009.5.075c.171.017.359.049.516.056a8.63,8.63,0,0,0,.979.017,8.421,8.421,0,0,0,1.953-.306,8.526,8.526,0,0,0,3.434-1.892l.044-.04.061-.036a9.4,9.4,0,0,1,4.747-1.344,10.25,10.25,0,0,1,4.755,1.275l.067.035.055.049a8.556,8.556,0,0,0,13.372-3l.028-.065.046-.064a9.565,9.565,0,0,1,3.835-3.171,10.358,10.358,0,0,1,4.89-.768l.079,0,.078.023a8.4,8.4,0,0,0,3.9.215,8.567,8.567,0,0,0,7.014-8.358v-.079l.017-.078a9.657,9.657,0,0,1,2.249-4.465,10.407,10.407,0,0,1,4.172-2.683l.079-.029.075-.009A8.435,8.435,0,0,0,123.4,115.3a8.526,8.526,0,0,0,.429-7.643l-.028-.064-.015-.07a9.639,9.639,0,0,1,.229-4.983,10.378,10.378,0,0,1,2.713-4.15l.054-.052.061-.036a8.713,8.713,0,0,0,1.382-13.752l-.045-.041-.033-.046a9.5,9.5,0,0,1-1.765-4.6,10.3,10.3,0,0,1,.812-4.828l.023-.056.029-.04a8.867,8.867,0,0,0-4.37-13.412l-.038-.013-.029-.017a9.252,9.252,0,0,1-3.381-3.414,10.033,10.033,0,0,1-1.163-4.642v-.03l.005-.023a9.116,9.116,0,0,0-9.7-10.856,9.111,9.111,0,0,1,7.761,2.877,9.245,9.245,0,0,1,2.152,3.734,9.452,9.452,0,0,1,.244,4.333l0-.053a9.488,9.488,0,0,0,1.2,4.371,8.6,8.6,0,0,0,3.228,3.1l-.067-.03a9.46,9.46,0,0,1,6.087,6.04,9.567,9.567,0,0,1,.446,4.42,9.7,9.7,0,0,1-1.593,4.162l.051-.1a9.273,9.273,0,0,0-.679,4.369,8.417,8.417,0,0,0,1.632,4.057l-.078-.088a9.738,9.738,0,0,1,3.175,8.174,9.593,9.593,0,0,1-1.422,4.3,9.8,9.8,0,0,1-3.211,3.19l.114-.089a9.1,9.1,0,0,0-2.37,3.641,8.311,8.311,0,0,0-.168,4.308l-.043-.133a9.9,9.9,0,0,1,.824,4.477,9.9,9.9,0,0,1-8.593,9.348l.154-.037a8.987,8.987,0,0,0-3.606,2.328,8.193,8.193,0,0,0-1.887,3.815l.017-.158a9.963,9.963,0,0,1-1.055,4.468,9.8,9.8,0,0,1-2.963,3.489,9.993,9.993,0,0,1-4.192,1.81,9.8,9.8,0,0,1-4.553-.273l.157.029a8.982,8.982,0,0,0-4.245.633,8.192,8.192,0,0,0-3.294,2.71l.075-.129a9.84,9.84,0,0,1-2.783,3.623,9.822,9.822,0,0,1-12.669-.213l.121.084a8.988,8.988,0,0,0-4.166-1.15,8.33,8.33,0,0,0-4.138,1.15l.1-.075a9.7,9.7,0,0,1-6.166,2.417,9.436,9.436,0,0,1-1.134-.04c-.194-.014-.355-.044-.534-.066l-.542-.088.021,0-.064-.012a9.478,9.478,0,0,1-2.137-.7,9.64,9.64,0,0,1-4.722-4.752l.059.1a9.205,9.205,0,0,0-3.389-2.819,8.411,8.411,0,0,0-4.337-.673l.086-.018a9.495,9.495,0,0,1-4.4.305,9.265,9.265,0,0,1-4.044-1.721,9.375,9.375,0,0,1-2.855-3.328,9.5,9.5,0,0,1-1.047-4.243l.008.057a9.578,9.578,0,0,0-1.98-4.082,8.7,8.7,0,0,0-3.783-2.5l.03.007a9.129,9.129,0,0,1-7.162-5.136" transform="translate(-12.182 -25.469)" fill="#3c5756"/>
                  <path id="Trazado_611028" data-name="Trazado 611028" d="M83.8,5.449a9.116,9.116,0,0,0-8.053.6l-.013.008-.02.006a9.058,9.058,0,0,1-4.708.371,9.933,9.933,0,0,1-4.268-2.109L66.712,4.3l-.026-.034A8.8,8.8,0,0,0,59.54.86,8.632,8.632,0,0,0,52.6,4.5l-.028.041-.048.043a9.394,9.394,0,0,1-4.323,2.3,10.249,10.249,0,0,1-4.892-.231l-.061-.017-.068-.036a8.544,8.544,0,0,0-7.667-.232,8.484,8.484,0,0,0-4.782,5.984l-.014.068-.033.072a9.6,9.6,0,0,1-3.09,3.9,10.379,10.379,0,0,1-4.623,1.78l-.08.012-.08-.007a8.624,8.624,0,0,0-8.878,6.3,8.515,8.515,0,0,0-.126,3.911l.015.075v.074a9.686,9.686,0,0,1-1.258,4.835,10.358,10.358,0,0,1-3.514,3.5l-.07.044-.07.023A8.493,8.493,0,0,0,3.58,42.418c-.085.3-.176.644-.251.992a9.265,9.265,0,0,0-.137.969,8.557,8.557,0,0,0,.067,1.988A8.693,8.693,0,0,0,4.731,50.04l.041.058.024.055a9.576,9.576,0,0,1,.768,4.878,10.291,10.291,0,0,1-1.8,4.559l-.038.056-.039.036A8.72,8.72,0,0,0,.933,67.038a8.865,8.865,0,0,0,4.231,6.717l.035.02.022.022a9.187,9.187,0,0,1,2.553,4.035,10.022,10.022,0,0,1,.149,4.741l0,.023-.007.014a9.218,9.218,0,0,0-.425,6.12,9.926,9.926,0,0,0,.784,1.948,10.021,10.021,0,0,1-.875-1.92,9.208,9.208,0,0,1,.2-6.28l-.01.037A9.6,9.6,0,0,0,7.3,77.982a8.606,8.606,0,0,0-2.52-3.7l.057.042A9.33,9.33,0,0,1,1.6,71.314,9.521,9.521,0,0,1,.081,67.138a9.656,9.656,0,0,1,2.9-8.214l-.078.092a9.223,9.223,0,0,0,1.535-4.107,8.386,8.386,0,0,0-.769-4.264l.065.113a9.73,9.73,0,0,1-1.727-4.2,9.871,9.871,0,0,1-.092-2.287,10.311,10.311,0,0,1,.158-1.154c.075-.351.159-.7.27-1.087a9.814,9.814,0,0,1,6.126-6.383l-.141.068a8.983,8.983,0,0,0,3.041-3.052,8.262,8.262,0,0,0,1.039-4.146l.015.149a9.959,9.959,0,0,1,.117-4.574,9.856,9.856,0,0,1,10.389-7.335l-.161.005a9,9,0,0,0,4.024-1.5,8.227,8.227,0,0,0,2.667-3.34l-.046.14a9.867,9.867,0,0,1,1.967-4.111,9.688,9.688,0,0,1,3.594-2.767A9.918,9.918,0,0,1,39.418,4.3a9.609,9.609,0,0,1,4.353,1.218l-.128-.052a9.078,9.078,0,0,0,4.335.3A8.321,8.321,0,0,0,51.846,3.8l-.076.084A9.63,9.63,0,0,1,55.2,1.006a9.764,9.764,0,0,1,8.643.006A9.323,9.323,0,0,1,67.2,3.873l-.052-.054A9.381,9.381,0,0,0,71.11,5.945a8.64,8.64,0,0,0,4.5-.21l-.033.014a9.132,9.132,0,0,1,4.095-1.13,9.256,9.256,0,0,1,4.126.829" transform="translate(0 0)" fill="#3c5756"/>
                </g>
              </g>
            </g>
          </g>
        </g>
        <g id="Grupo_1074144" data-name="Grupo 1074144" transform="translate(23.322 23.326)">
          <rect id="Rectángulo_378411" data-name="Rectángulo 378411" width="73.516" height="73.515" transform="translate(0 0)" fill="none"/>
        </g>
      </g>
    </g>
    <g id="Grupo_1099535" data-name="Grupo 1099535" transform="translate(205.921 11926.825)">
      <g id="Grupo_1099534" data-name="Grupo 1099534" clip-path="url(#clip-path-4)">
        <path id="Trazado_873939" data-name="Trazado 873939" d="M3.648,120.207a10.654,10.654,0,0,1,1.389-.181,1.006,1.006,0,0,0,.986-.583,7.155,7.155,0,0,1,6.631-3.65c5.464.033,10.929.009,16.393.009.593,0,1.233.092,1.525-.62.3-.736-.292-1.091-.7-1.488a15.789,15.789,0,0,0-17.974-2.9c-.158.076-.324.137-.475.224a.9.9,0,0,1-1.41-.381.981.981,0,0,1,.546-1.39,17.071,17.071,0,0,1,7.325-2.005A17.623,17.623,0,0,1,31.4,112.406c1.594,1.548,1.7,2.9.277,4.581-.413.489-.082.747.056,1.1,1.846,4.768,1.842,12.263-2.942,16.946a10.307,10.307,0,0,1-2.278,1.845c-.839.446-.721.806-.206,1.451a11.756,11.756,0,0,1,2.672,6.5c.108,1.347-.21,1.7-1.561,1.7q-8.775,0-17.549,0c-1.258,0-1.633-.421-1.5-1.663a8.43,8.43,0,0,1,.677-2.951c.462-.923.046-.993-.726-1.066A8.367,8.367,0,0,1,.972,134.2a24.465,24.465,0,0,1-.145-4.615,5.625,5.625,0,0,0-.419-2.344,3.985,3.985,0,0,1-.137-3.18c.984-2.238,1.327-4.7,2.476-6.873a19.247,19.247,0,0,1,3.746-5.026c.549-.522,1.146-.98,1.792-.288.607.65.133,1.205-.388,1.7a15.992,15.992,0,0,0-4.249,6.634m16.807-2.454c-2.694,0-5.389-.022-8.083.007a5.163,5.163,0,0,0-5.034,3.567A12.072,12.072,0,0,0,26.808,134.2c3.908-3.484,4.413-7.967,3.815-12.781a8.961,8.961,0,0,0-.89-2.889,1.247,1.247,0,0,0-1.3-.794c-2.659.036-5.319.015-7.978.016m5.056,26.8c1.565,0,1.574-.023,1.146-1.409a12.191,12.191,0,0,0-2.423-4.251.841.841,0,0,0-1.051-.373,14.005,14.005,0,0,1-9.06-.07.587.587,0,0,0-.738.142,11.838,11.838,0,0,0-2.908,5.381c-.074.34-.009.5.364.583,1.557.336,2.018-.008,2.057-1.583a3.719,3.719,0,0,1,.011-.42,1.03,1.03,0,0,1,1.008-1.02.99.99,0,0,1,1.014,1,5.237,5.237,0,0,1,.011,1.153c-.087.72.24.9.9.878,1.434-.037,2.871,0,4.306-.018.694-.01,1.51.265,2.05-.131.506-.371.119-1.181.215-1.789.005-.034.007-.07.012-.1.1-.585.413-1.022,1.022-.992a.987.987,0,0,1,.972,1.04,4.372,4.372,0,0,1,0,.734c-.118.959.139,1.523,1.089,1.248M2.782,130.235c0,.832-.013,1.6,0,2.362a6.449,6.449,0,0,0,5.544,6.284c1.146.148,2.384.389,3.093-1.017.19-.376.31-.522-.117-.789a13.8,13.8,0,0,1-5.131-5.69c-.142-.289-.276-.577-.671-.553a8.215,8.215,0,0,1-2.72-.6m2.265-8.1a3.24,3.24,0,0,0-3.018,3.072,3.606,3.606,0,0,0,2.58,3.536c.5.1.567-.127.477-.492a13.985,13.985,0,0,1-.039-6.116" transform="translate(0 -84.688)" fill="#3c5756"/>
        <path id="Trazado_873940" data-name="Trazado 873940" d="M193.409,120.157a15.089,15.089,0,0,0-4.361-6.839,2.316,2.316,0,0,1-.673-.793.984.984,0,0,1,1.617-1.006,18.119,18.119,0,0,1,5.931,9.9,4.984,4.984,0,0,0,.505,1.364,5.4,5.4,0,0,1-4.421,8c-.386.029-.757,0-.966.443a14.128,14.128,0,0,1-5.632,6.128,13.493,13.493,0,0,1,3.182,6.109c.486,2.69.5,3.1-2.417,3.06-5.462-.072-10.925-.019-16.388-.022-1.4,0-1.709-.355-1.588-1.776a12.291,12.291,0,0,1,2.892-6.738c.354-.44.351-.615-.14-.937-5.233-3.437-7.073-8.427-6.541-14.475a12.213,12.213,0,0,1,1.209-4.848c.2-.366.047-.54-.177-.8a2.889,2.889,0,0,1,.15-4.366,17.83,17.83,0,0,1,20.125-3.777c.159.073.312.157.47.231.628.295.95.753.609,1.426-.32.633-.876.625-1.443.355a15.812,15.812,0,0,0-4.271-1.38,15.628,15.628,0,0,0-13.944,4.406c-.375.357-.816.716-.536,1.346.263.592.781.61,1.326.609,5.533,0,11.066.021,16.6-.012a7.074,7.074,0,0,1,6.617,3.66c.578,1,1.559.274,2.266.736m-16.64-2.445v.017c-2.519,0-5.043.09-7.555-.039a1.83,1.83,0,0,0-2.067,1.423,15.649,15.649,0,0,0-.6,8.179,12.008,12.008,0,0,0,14.116,9.731,12.144,12.144,0,0,0,9.544-14.366c-.6-3.021-2.459-5.028-5.985-4.954-2.483.052-4.968.01-7.452.01m8.555,26.807c1.553,0,1.548,0,1.154-1.368a11.83,11.83,0,0,0-2.537-4.421.759.759,0,0,0-.971-.292,14.128,14.128,0,0,1-8.965.067c-.3-.1-.567-.221-.845.1a11.582,11.582,0,0,0-2.843,5.3c-.05.241-.13.562.214.584a5.231,5.231,0,0,0,1.974-.054c.514-.179.163-.876.235-1.337.038-.24-.011-.493.029-.733a.978.978,0,0,1,.925-.863.892.892,0,0,1,.982.768,3.78,3.78,0,0,1,.078,1.143c-.1.85.182,1.171,1.087,1.135,1.748-.07,3.5-.078,5.25,0,.95.043,1.286-.268,1.135-1.177a3.619,3.619,0,0,1,0-.419c-.035-.743.172-1.426,1-1.438s1.07.652,1.047,1.4a3.877,3.877,0,0,1,0,.42c-.132.932.151,1.439,1.055,1.188m9.827-19.168a3.58,3.58,0,0,0-2.308-3.213c-.384-.113-.81-.34-.641.506a12.142,12.142,0,0,1-.1,5.412c-.172.681.084.8.694.59a3.612,3.612,0,0,0,2.351-3.294" transform="translate(-129.785 -84.656)" fill="#3c5756"/>
        <path id="Trazado_873941" data-name="Trazado 873941" d="M182.595,0a46.788,46.788,0,0,1,5.336.215,8.917,8.917,0,0,1-1.1,17.66,1.4,1.4,0,0,0-1.386.868c-.577,1.233-1.241,2.449-2.824,2.463s-2.273-1.2-2.839-2.434a1.463,1.463,0,0,0-1.474-.9A8.923,8.923,0,0,1,177.258.216,46.841,46.841,0,0,1,182.595,0m.262,2.007c-.6,0-.92-.006-1.234,0-1.739.039-3.5-.173-5.184.489a7.043,7.043,0,0,0-4.4,7.267,6.878,6.878,0,0,0,6.43,6.139,3.515,3.515,0,0,1,3.258,2.314,3.8,3.8,0,0,0,.364.636c.321.465.689.453,1.013.023a4.91,4.91,0,0,0,.511-.912,3.234,3.234,0,0,1,2.993-2.037A6.95,6.95,0,0,0,188,2.256c-1.779-.495-3.621-.157-5.142-.25" transform="translate(-134.311 0.001)" fill="#3c5756"/>
        <path id="Trazado_873942" data-name="Trazado 873942" d="M31.13,9.035A8.916,8.916,0,0,1,40.037.074c2.45-.018,4.9-.022,7.349,0a8.934,8.934,0,0,1,.46,17.85,1.337,1.337,0,0,0-1.308.821,9.7,9.7,0,0,1-.77,1.369,2.622,2.622,0,0,1-4.489-.519,2.563,2.563,0,0,0-2.475-1.76,8.744,8.744,0,0,1-7.674-8.8M43.975,2.053c-.9,0-1.49,0-2.085,0a10.877,10.877,0,0,0-4.638.594A6.974,6.974,0,0,0,39.817,16a3.087,3.087,0,0,1,2.777,1.864c.259.5.353,1.294,1.038,1.328.784.039.86-.825,1.13-1.338a2.854,2.854,0,0,1,2.783-1.837,4.852,4.852,0,0,0,1.033-.162,6.938,6.938,0,0,0,.83-13.45c-1.885-.6-3.822-.227-5.431-.347" transform="translate(-24.587 -0.046)" fill="#3c5756"/>
        <path id="Trazado_873943" data-name="Trazado 873943" d="M88.955,192.1a3.55,3.55,0,0,1-2.524-1.147.921.921,0,0,1-.059-1.322.867.867,0,0,1,1.307-.155,1.689,1.689,0,0,0,2.583-.019.843.843,0,0,1,1.228.127.907.907,0,0,1,.033,1.322,3.486,3.486,0,0,1-2.569,1.193" transform="translate(-68.019 -149.473)" fill="#3c5756"/>
        <path id="Trazado_873944" data-name="Trazado 873944" d="M63.4,185.026c.038.769-.144,1.5-1.037,1.486s-1.05-.756-1.013-1.519c.008-.173,0-.347,0-.52.025-.657.269-1.207.992-1.226.8-.021,1.038.558,1.055,1.26,0,.173,0,.347,0,.52" transform="translate(-48.452 -144.733)" fill="#3c5756"/>
        <path id="Trazado_873945" data-name="Trazado 873945" d="M130.033,184.855a8.151,8.151,0,0,1-.051.837.912.912,0,0,1-.873.776.888.888,0,0,1-.979-.64,3.887,3.887,0,0,1-.008-1.974.877.877,0,0,1,.95-.678.914.914,0,0,1,.919.84,5.871,5.871,0,0,1,.007.839h.036" transform="translate(-101.096 -144.676)" fill="#3c5756"/>
        <path id="Trazado_873946" data-name="Trazado 873946" d="M210.355,192.126A3.563,3.563,0,0,1,207.841,191a.919.919,0,0,1-.088-1.32.89.89,0,0,1,1.385-.128,1.594,1.594,0,0,0,2.409,0,.9.9,0,0,1,1.391.115.955.955,0,0,1-.141,1.4,3.6,3.6,0,0,1-2.442,1.058" transform="translate(-163.899 -149.496)" fill="#3c5756"/>
        <path id="Trazado_873947" data-name="Trazado 873947" d="M249.43,184.744a3.787,3.787,0,0,1,.085-.842.9.9,0,0,1,1.087-.741c1.069.264.871,1.173.891,1.953.017.664-.224,1.2-.917,1.309a.956.956,0,0,1-1.1-.869,5.268,5.268,0,0,1-.046-.811" transform="translate(-197.007 -144.643)" fill="#3c5756"/>
        <path id="Trazado_873948" data-name="Trazado 873948" d="M183.026,184.867c0-.245-.018-.492,0-.735a.914.914,0,0,1,.943-.927.93.93,0,0,1,.991.889,9.838,9.838,0,0,1,.024,1.259.989.989,0,0,1-.975,1.137c-.639.017-1.007-.419-1-1.1,0-.175,0-.35,0-.525h.011" transform="translate(-144.551 -144.701)" fill="#3c5756"/>
        <path id="Trazado_873949" data-name="Trazado 873949" d="M207.222,39.088a.918.918,0,0,1-1,.969.873.873,0,0,1-.934-.918.889.889,0,0,1,.943-1.012.908.908,0,0,1,.994.96" transform="translate(-162.139 -30.114)" fill="#3c5756"/>
        <path id="Trazado_873950" data-name="Trazado 873950" d="M227.159,39.134a.926.926,0,0,1-1.041.921.873.873,0,0,1-.9-.948.888.888,0,0,1,.976-.98c.63.006.929.387.968,1.007" transform="translate(-177.881 -30.114)" fill="#3c5756"/>
        <path id="Trazado_873951" data-name="Trazado 873951" d="M247.1,39.012c-.032.638-.341,1.016-.961,1.039a.874.874,0,0,1-.983-.865.889.889,0,0,1,.886-1.062.932.932,0,0,1,1.058.888" transform="translate(-193.625 -30.108)" fill="#3c5756"/>
        <path id="Trazado_873952" data-name="Trazado 873952" d="M67.3,40.069c-.607-.04-1.007-.324-1.018-.957a.887.887,0,0,1,.964-.989.876.876,0,0,1,.963.887.929.929,0,0,1-.909,1.059" transform="translate(-52.353 -30.111)" fill="#3c5756"/>
        <path id="Trazado_873953" data-name="Trazado 873953" d="M88.175,39.035c-.035.629-.344,1.009-.969,1.018a.965.965,0,0,1-.076-1.928.927.927,0,0,1,1.046.91" transform="translate(-68.108 -30.11)" fill="#3c5756"/>
        <path id="Trazado_873954" data-name="Trazado 873954" d="M107.082,38.054c.645.031,1.017.357,1.025.971a.885.885,0,0,1-.983.974.87.87,0,0,1-.94-.906.916.916,0,0,1,.9-1.038" transform="translate(-83.866 -30.056)" fill="#3c5756"/>
      </g>
    </g>
  </g>
</svg>
