<svg xmlns="http://www.w3.org/2000/svg" xmlns:xlink="http://www.w3.org/1999/xlink" width="120" height="120" viewBox="0 0 120 120">
  <defs>
    <clipPath id="clip-path">
      <path id="Trazado_611025" data-name="Trazado 611025" d="M60.2,1.073a9.086,9.086,0,0,0-7.37,3.762A8.709,8.709,0,0,1,44.126,6.7a9.052,9.052,0,0,0-7.7-.5c-.129.048-.258.1-.385.152l-.1.042a9.132,9.132,0,0,0-5.208,6.448,8.743,8.743,0,0,1-7.2,5.262,9.061,9.061,0,0,0-7.6,3.07,9.166,9.166,0,0,0-2.151,7.986,8.774,8.774,0,0,1-4.423,7.764,9.134,9.134,0,0,0-5.728,5.933c-.009.028-.014.054-.022.078-.041.144-.08.286-.116.43A9.17,9.17,0,0,0,4.9,51.028a8.813,8.813,0,0,1-.9,8.9A9.3,9.3,0,0,0,5.664,74.658a8.81,8.81,0,0,1,2.754,8.505,9.174,9.174,0,0,0,.312,7.746c.063.134.132.259.2.385.015.028.027.055.041.078A9.093,9.093,0,0,0,15.9,95.9a8.774,8.774,0,0,1,5.958,6.646,9.221,9.221,0,0,0,11.966,8.589,8.71,8.71,0,0,1,8.146,3.606,9.108,9.108,0,0,0,6.471,5.105c.026.006.051.006.078.013.145.025.288.052.438.072a9.077,9.077,0,0,0,7.439-2.208,8.687,8.687,0,0,1,8.9-.034,9.21,9.21,0,0,0,14.407-3.2,8.712,8.712,0,0,1,8.129-3.639,9.056,9.056,0,0,0,7.636-1.123c.121-.075.24-.157.355-.239.026-.017.055-.034.079-.054a9.155,9.155,0,0,0,3.762-7.4,8.764,8.764,0,0,1,5.955-6.644,9.26,9.26,0,0,0,7.25-12.855A8.806,8.806,0,0,1,115.614,74a9.281,9.281,0,0,0,1.419-14.7,8.818,8.818,0,0,1-.951-8.922,9.273,9.273,0,0,0-4.654-14.013,8.79,8.79,0,0,1-4.484-7.763,9.166,9.166,0,0,0-2.249-7.915A9.056,9.056,0,0,0,97.02,17.7a8.745,8.745,0,0,1-7.225-5.234,9.134,9.134,0,0,0-5.272-6.342.731.731,0,0,0-.088-.034c-.129-.054-.264-.106-.4-.157a9.068,9.068,0,0,0-7.737.605,8.7,8.7,0,0,1-8.714-1.827,9.088,9.088,0,0,0-7.253-3.64H60.2" transform="translate(-1.105 -1.072)" fill="#b0dfde"/>
    </clipPath>
    <clipPath id="clip-path-2">
      <path id="Trazado_611025-2" data-name="Trazado 611025" d="M60.2,1.073a9.086,9.086,0,0,0-7.37,3.762A8.709,8.709,0,0,1,44.126,6.7a9.052,9.052,0,0,0-7.7-.5c-.129.048-.258.1-.385.152l-.1.042a9.132,9.132,0,0,0-5.208,6.448,8.743,8.743,0,0,1-7.2,5.262,9.061,9.061,0,0,0-7.6,3.07,9.166,9.166,0,0,0-2.151,7.986,8.774,8.774,0,0,1-4.423,7.764,9.134,9.134,0,0,0-5.728,5.933c-.009.028-.014.054-.022.078-.041.144-.08.286-.116.43A9.17,9.17,0,0,0,4.9,51.028a8.813,8.813,0,0,1-.9,8.9A9.3,9.3,0,0,0,5.664,74.658a8.81,8.81,0,0,1,2.754,8.505,9.174,9.174,0,0,0,.312,7.746c.063.134.132.259.2.385.015.028.027.055.041.078A9.093,9.093,0,0,0,15.9,95.9a8.774,8.774,0,0,1,5.958,6.646,9.221,9.221,0,0,0,11.966,8.589,8.71,8.71,0,0,1,8.146,3.606,9.108,9.108,0,0,0,6.471,5.105c.026.006.051.006.078.013.145.025.288.052.438.072a9.077,9.077,0,0,0,7.439-2.208,8.687,8.687,0,0,1,8.9-.034,9.21,9.21,0,0,0,14.407-3.2,8.712,8.712,0,0,1,8.129-3.639,9.056,9.056,0,0,0,7.636-1.123c.121-.075.24-.157.355-.239.026-.017.055-.034.079-.054a9.155,9.155,0,0,0,3.762-7.4,8.764,8.764,0,0,1,5.955-6.644,9.26,9.26,0,0,0,7.25-12.855A8.806,8.806,0,0,1,115.614,74a9.281,9.281,0,0,0,1.419-14.7,8.818,8.818,0,0,1-.951-8.922,9.273,9.273,0,0,0-4.654-14.013,8.79,8.79,0,0,1-4.484-7.763,9.166,9.166,0,0,0-2.249-7.915A9.056,9.056,0,0,0,97.02,17.7a8.745,8.745,0,0,1-7.225-5.234,9.134,9.134,0,0,0-5.272-6.342.731.731,0,0,0-.088-.034c-.129-.054-.264-.106-.4-.157a9.068,9.068,0,0,0-7.737.605,8.7,8.7,0,0,1-8.714-1.827,9.088,9.088,0,0,0-7.253-3.64H60.2" transform="translate(-1.105 -1.072)" fill="#fff"/>
    </clipPath>
    <clipPath id="clip-path-3">
      <rect id="Rectángulo_378432" data-name="Rectángulo 378432" width="120" height="120" fill="none"/>
    </clipPath>
    <clipPath id="clip-path-4">
      <rect id="Rectángulo_379032" data-name="Rectángulo 379032" width="59.933" height="59.94" fill="#3c5756"/>
    </clipPath>
  </defs>
  <g id="Grupo_1099930" data-name="Grupo 1099930" transform="translate(-180 -15992.059)">
    <g id="Grupo_1099600" data-name="Grupo 1099600" transform="translate(-128 6847.059)">
      <g id="Grupo_1074149" data-name="Grupo 1074149" transform="translate(308 9145)">
        <g id="Grupo_1074143" data-name="Grupo 1074143" transform="translate(0)">
          <g id="Grupo_1074028" data-name="Grupo 1074028" transform="translate(0 0)">
            <g id="Grupo_1074021" data-name="Grupo 1074021" transform="translate(0)">
              <g id="Grupo_1074018" data-name="Grupo 1074018" transform="translate(0.458 0.445)">
                <g id="Grupo_1074017" data-name="Grupo 1074017" clip-path="url(#clip-path)">
                  <path id="Trazado_611056" data-name="Trazado 611056" d="M0,0H132.2V131.995H0Z" transform="translate(-4.993 128.152) rotate(-90)" fill="#b0dfde"/>
                </g>
              </g>
              <g id="Grupo_1074020" data-name="Grupo 1074020">
                <g id="Grupo_1074019" data-name="Grupo 1074019" clip-path="url(#clip-path-3)">
                  <path id="Trazado_611027" data-name="Trazado 611027" d="M20.249,115.762a9.02,9.02,0,0,0,2.992,3.361,9.123,9.123,0,0,0,4.2,1.5h.014l.016.006a9.021,9.021,0,0,1,3.985,2.5,10.017,10.017,0,0,1,2.172,4.215l.007.026v.031a8.863,8.863,0,0,0,3.81,7.007,8.71,8.71,0,0,0,7.784,1.188l.038-.013.049,0a9.3,9.3,0,0,1,4.791.681,10.136,10.136,0,0,1,3.782,3.042l.034.042.026.055a8.636,8.636,0,0,0,2.538,3.148,8.51,8.51,0,0,0,3.7,1.641l-.043-.009.5.075c.171.017.359.049.516.056a8.63,8.63,0,0,0,.979.017,8.421,8.421,0,0,0,1.953-.306,8.526,8.526,0,0,0,3.434-1.892l.044-.04.061-.036a9.4,9.4,0,0,1,4.747-1.344,10.25,10.25,0,0,1,4.755,1.275l.067.035.055.049a8.556,8.556,0,0,0,13.372-3l.028-.065.046-.064a9.565,9.565,0,0,1,3.835-3.171,10.358,10.358,0,0,1,4.89-.768l.079,0,.078.023a8.4,8.4,0,0,0,3.9.215,8.567,8.567,0,0,0,7.014-8.358v-.079l.017-.078a9.657,9.657,0,0,1,2.249-4.465,10.407,10.407,0,0,1,4.172-2.683l.079-.029.075-.009A8.435,8.435,0,0,0,123.4,115.3a8.526,8.526,0,0,0,.429-7.643l-.028-.064-.015-.07a9.639,9.639,0,0,1,.229-4.983,10.378,10.378,0,0,1,2.713-4.15l.054-.052.061-.036a8.713,8.713,0,0,0,1.382-13.752l-.045-.041-.033-.046a9.5,9.5,0,0,1-1.765-4.6,10.3,10.3,0,0,1,.812-4.828l.023-.056.029-.04a8.867,8.867,0,0,0-4.37-13.412l-.038-.013-.029-.017a9.252,9.252,0,0,1-3.381-3.414,10.033,10.033,0,0,1-1.163-4.642v-.03l.005-.023a9.116,9.116,0,0,0-9.7-10.856,9.111,9.111,0,0,1,7.761,2.877,9.245,9.245,0,0,1,2.152,3.734,9.452,9.452,0,0,1,.244,4.333l0-.053a9.488,9.488,0,0,0,1.2,4.371,8.6,8.6,0,0,0,3.228,3.1l-.067-.03a9.46,9.46,0,0,1,6.087,6.04,9.567,9.567,0,0,1,.446,4.42,9.7,9.7,0,0,1-1.593,4.162l.051-.1a9.273,9.273,0,0,0-.679,4.369,8.417,8.417,0,0,0,1.632,4.057l-.078-.088a9.738,9.738,0,0,1,3.175,8.174,9.593,9.593,0,0,1-1.422,4.3,9.8,9.8,0,0,1-3.211,3.19l.114-.089a9.1,9.1,0,0,0-2.37,3.641,8.311,8.311,0,0,0-.168,4.308l-.043-.133a9.9,9.9,0,0,1,.824,4.477,9.9,9.9,0,0,1-8.593,9.348l.154-.037a8.987,8.987,0,0,0-3.606,2.328,8.193,8.193,0,0,0-1.887,3.815l.017-.158a9.963,9.963,0,0,1-1.055,4.468,9.8,9.8,0,0,1-2.963,3.489,9.993,9.993,0,0,1-4.192,1.81,9.8,9.8,0,0,1-4.553-.273l.157.029a8.982,8.982,0,0,0-4.245.633,8.192,8.192,0,0,0-3.294,2.71l.075-.129a9.84,9.84,0,0,1-2.783,3.623,9.822,9.822,0,0,1-12.669-.213l.121.084a8.988,8.988,0,0,0-4.166-1.15,8.33,8.33,0,0,0-4.138,1.15l.1-.075a9.7,9.7,0,0,1-6.166,2.417,9.436,9.436,0,0,1-1.134-.04c-.194-.014-.355-.044-.534-.066l-.542-.088.021,0-.064-.012a9.478,9.478,0,0,1-2.137-.7,9.64,9.64,0,0,1-4.722-4.752l.059.1a9.205,9.205,0,0,0-3.389-2.819,8.411,8.411,0,0,0-4.337-.673l.086-.018a9.495,9.495,0,0,1-4.4.305,9.265,9.265,0,0,1-4.044-1.721,9.375,9.375,0,0,1-2.855-3.328,9.5,9.5,0,0,1-1.047-4.243l.008.057a9.578,9.578,0,0,0-1.98-4.082,8.7,8.7,0,0,0-3.783-2.5l.03.007a9.129,9.129,0,0,1-7.162-5.136" transform="translate(-12.182 -25.469)" fill="#3c5756"/>
                  <path id="Trazado_611028" data-name="Trazado 611028" d="M83.8,5.449a9.116,9.116,0,0,0-8.053.6l-.013.008-.02.006a9.058,9.058,0,0,1-4.708.371,9.933,9.933,0,0,1-4.268-2.109L66.712,4.3l-.026-.034A8.8,8.8,0,0,0,59.54.86,8.632,8.632,0,0,0,52.6,4.5l-.028.041-.048.043a9.394,9.394,0,0,1-4.323,2.3,10.249,10.249,0,0,1-4.892-.231l-.061-.017-.068-.036a8.544,8.544,0,0,0-7.667-.232,8.484,8.484,0,0,0-4.782,5.984l-.014.068-.033.072a9.6,9.6,0,0,1-3.09,3.9,10.379,10.379,0,0,1-4.623,1.78l-.08.012-.08-.007a8.624,8.624,0,0,0-8.878,6.3,8.515,8.515,0,0,0-.126,3.911l.015.075v.074a9.686,9.686,0,0,1-1.258,4.835,10.358,10.358,0,0,1-3.514,3.5l-.07.044-.07.023A8.493,8.493,0,0,0,3.58,42.418c-.085.3-.176.644-.251.992a9.265,9.265,0,0,0-.137.969,8.557,8.557,0,0,0,.067,1.988A8.693,8.693,0,0,0,4.731,50.04l.041.058.024.055a9.576,9.576,0,0,1,.768,4.878,10.291,10.291,0,0,1-1.8,4.559l-.038.056-.039.036A8.72,8.72,0,0,0,.933,67.038a8.865,8.865,0,0,0,4.231,6.717l.035.02.022.022a9.187,9.187,0,0,1,2.553,4.035,10.022,10.022,0,0,1,.149,4.741l0,.023-.007.014a9.218,9.218,0,0,0-.425,6.12,9.926,9.926,0,0,0,.784,1.948,10.021,10.021,0,0,1-.875-1.92,9.208,9.208,0,0,1,.2-6.28l-.01.037A9.6,9.6,0,0,0,7.3,77.982a8.606,8.606,0,0,0-2.52-3.7l.057.042A9.33,9.33,0,0,1,1.6,71.314,9.521,9.521,0,0,1,.081,67.138a9.656,9.656,0,0,1,2.9-8.214l-.078.092a9.223,9.223,0,0,0,1.535-4.107,8.386,8.386,0,0,0-.769-4.264l.065.113a9.73,9.73,0,0,1-1.727-4.2,9.871,9.871,0,0,1-.092-2.287,10.311,10.311,0,0,1,.158-1.154c.075-.351.159-.7.27-1.087a9.814,9.814,0,0,1,6.126-6.383l-.141.068a8.983,8.983,0,0,0,3.041-3.052,8.262,8.262,0,0,0,1.039-4.146l.015.149a9.959,9.959,0,0,1,.117-4.574,9.856,9.856,0,0,1,10.389-7.335l-.161.005a9,9,0,0,0,4.024-1.5,8.227,8.227,0,0,0,2.667-3.34l-.046.14a9.867,9.867,0,0,1,1.967-4.111,9.688,9.688,0,0,1,3.594-2.767A9.918,9.918,0,0,1,39.418,4.3a9.609,9.609,0,0,1,4.353,1.218l-.128-.052a9.078,9.078,0,0,0,4.335.3A8.321,8.321,0,0,0,51.846,3.8l-.076.084A9.63,9.63,0,0,1,55.2,1.006a9.764,9.764,0,0,1,8.643.006A9.323,9.323,0,0,1,67.2,3.873l-.052-.054A9.381,9.381,0,0,0,71.11,5.945a8.64,8.64,0,0,0,4.5-.21l-.033.014a9.132,9.132,0,0,1,4.095-1.13,9.256,9.256,0,0,1,4.126.829" transform="translate(0 0)" fill="#3c5756"/>
                </g>
              </g>
            </g>
          </g>
        </g>
        <g id="Grupo_1074144" data-name="Grupo 1074144" transform="translate(23.322 23.326)">
          <rect id="Rectángulo_378411" data-name="Rectángulo 378411" width="73.516" height="73.515" transform="translate(0 0)" fill="none"/>
        </g>
      </g>
    </g>
    <g id="Grupo_1099660" data-name="Grupo 1099660" transform="translate(210.033 16022.088)">
      <g id="Grupo_1099659" data-name="Grupo 1099659" clip-path="url(#clip-path-4)">
        <path id="Trazado_874446" data-name="Trazado 874446" d="M176.16.028c.967,0,1.935-.005,2.9,0,.8.006,1.31.418,1.177,1.214-.317,1.9.434,2.858,2.144,3.84a11.325,11.325,0,0,1,5.9,11.372,11.74,11.74,0,0,1-7.228,10.136,1.128,1.128,0,0,0-.8,1.231c.04,1.809.031,3.62,0,5.429-.008.525.152.7.686.7a24.892,24.892,0,0,1,3.643.08,4.879,4.879,0,0,1,3.554,2.336,3.385,3.385,0,0,0,3.194,1.712c1.576-.028,1.862.3,1.862,1.838q0,6.038,0,12.077c0,1.295-.306,1.594-1.592,1.6-.437,0-.877.035-1.31-.006a4.9,4.9,0,0,0-3.487,1,9.789,9.789,0,0,1-5.713,1.779c-.645.007-.9.173-.836.839.053.525.009,1.06.009,1.59a1.036,1.036,0,0,1-1.16,1.157q-2.949.016-5.9,0a1.04,1.04,0,0,1-1.158-1.163c0-.593-.03-1.188.005-1.778.03-.5-.169-.654-.649-.633-.685.031-1.373.018-2.059,0a2.76,2.76,0,0,1-2.846-2.74c-.011-.187-.011-.375-.007-.562.022-1.264.278-2.439-.631-3.7a3.737,3.737,0,0,1,.1-3.678,1.105,1.105,0,0,0-.008-1.089,5.082,5.082,0,0,1,.037-4.159c.112-.249.325-.428.1-.748a4.88,4.88,0,0,1-.429-3.538,2.708,2.708,0,0,1,2.731-2.234,27.412,27.412,0,0,1,2.807.01c.74.055.877-.233.861-.9q-.065-2.666,0-5.335a1,1,0,0,0-.737-1.085,12.16,12.16,0,0,1-3.372-20.174,9.978,9.978,0,0,1,3.278-2.124,1.093,1.093,0,0,0,.827-1.319c-.052-.588-.009-1.185-.01-1.778a1.068,1.068,0,0,1,1.217-1.2h2.9m-.053,5.02a10.407,10.407,0,1,0,10.477,10.334A10.426,10.426,0,0,0,176.107,5.048m4.153,39.263c0,3.294.009,6.5-.008,9.713,0,.548.266.582.7.574a9.241,9.241,0,0,0,5.477-1.867,3.987,3.987,0,0,1,2.608-.849c.561.021,1.125-.03,1.683.012.578.044.747-.173.743-.743q-.033-5.286,0-10.573c0-.5-.125-.713-.67-.736a4.861,4.861,0,0,1-4.125-2.5,2.931,2.931,0,0,0-2.512-1.559c-3.087-.028-6.175-.016-9.263-.019a1.072,1.072,0,0,0-1.214,1.205c0,2.214.015,4.429-.014,6.643-.007.578.225.668.725.624a2.771,2.771,0,0,0,2.444-2.746c.041-.934.012-1.871.019-2.806a.871.871,0,1,1,1.741-.026,13.315,13.315,0,0,1,0,1.683,1.664,1.664,0,0,0,.727,1.521,3.45,3.45,0,0,0,5.079-.768c.4-.532.833-.929,1.46-.453.583.444.347.995-.013,1.484a5.363,5.363,0,0,1-5.587,2.187m-1.976-1.023a5.251,5.251,0,0,1-2.555,2.431c-.47.192-.142.469-.058.681a3.309,3.309,0,0,1-.448,3.44.671.671,0,0,0,0,1,3.261,3.261,0,0,1-.593,4.728,2,2,0,0,0-.87,1.945c0,.6.248.736.787.72,1-.031,2-.06,2.994.007.8.054.991-.237.985-1-.034-4.3-.014-8.61-.02-12.916a1.378,1.378,0,0,0-.222-1.035m.225-12.563c0-.9-.013-1.807.005-2.71.009-.455-.121-.57-.6-.5a11.734,11.734,0,0,1-3.539,0c-.481-.075-.606.04-.6.495q.02,2.663,0,5.327c0,.435.141.609.594.6q1.775-.033,3.551,0c.449.009.608-.156.6-.6-.02-.872-.006-1.745-.005-2.617m-7.967,15.348c-.654,0-1.309.015-1.962,0s-1.095.184-1.214.876c-.216,1.256.021,2.191.629,2.446a.721.721,0,0,0,.271.062c1.495,0,2.992.056,4.482-.03a1.68,1.68,0,0,0-.244-3.343c-.653-.023-1.308,0-1.962-.007m.374,8.546v-.012c.5,0,1,.028,1.494-.006a1.694,1.694,0,1,0,.042-3.385c-1.025-.054-2.056-.04-3.082,0a1.03,1.03,0,0,0-1.1,1.119c-.1,2.121.038,2.288,2.177,2.289h.467m-.964-18.9c0,.012,0,.023,0,.035-.529,0-1.059,0-1.589,0a.912.912,0,0,0-.943.62c-.655,1.712.078,2.777,1.907,2.777h1.028c1.5,0,1.532,0,1.48-1.538-.02-.608.419-1.441.019-1.736-.436-.321-1.251-.127-1.9-.158m-.126,8.533c2.026,0,2.026,0,2.025-2.031a6.862,6.862,0,0,1,0-.745c.055-.5-.167-.642-.644-.626-.9.031-1.8-.007-2.7.015a1.063,1.063,0,0,0-1.161,1.156c-.1,2.071.039,2.231,2.1,2.232h.373m6.37-42.5v.005c-.654,0-1.313-.043-1.962.011-.789.066-.362.714-.444,1.1s.107.573.531.51a12.287,12.287,0,0,1,3.633,0c.411.062.54-.094.565-.5.046-.748-.028-1.3-1.016-1.141a8.177,8.177,0,0,1-1.307.012" transform="translate(-133.256 -0.021)" fill="#3c5756"/>
        <path id="Trazado_874447" data-name="Trazado 874447" d="M0,45.846c0-2.09-.006-4.181,0-6.271,0-1.118.393-1.566,1.524-1.508a3.8,3.8,0,0,0,3.719-1.979,4.864,4.864,0,0,1,4.238-2.165c.935-.028,1.872-.026,2.808,0,.478.013.653-.139.647-.638q-.037-2.9,0-5.8c.006-.457-.19-.634-.58-.81A12.085,12.085,0,0,1,4.877,14.716,11.362,11.362,0,0,1,6.321,9.641c.32-.59.668-1.164,1.426-.778.79.4.45,1.009.143,1.591a10.4,10.4,0,1,0,19.468,6.177A9.839,9.839,0,0,0,22.372,6.514c-3.795-2.27-7.661-2.033-11.363.419a3.569,3.569,0,0,1-.461.318.873.873,0,0,1-1.177-.213.823.823,0,0,1,.2-1.231,9.807,9.807,0,0,1,2.731-1.6.841.841,0,0,0,.637-.968c-.042-.684,0-1.372-.01-2.059A1,1,0,0,1,13.989.019c2.028-.027,4.056-.023,6.084,0,.715.007,1.185.458,1.055,1.14-.394,2.064.6,2.987,2.329,4.016a11.311,11.311,0,0,1,5.707,11.291A11.7,11.7,0,0,1,22,26.535a1.247,1.247,0,0,0-.861,1.385c.045,1.653.054,3.308,0,4.96-.027.781.123,1.137,1,1.047a20.5,20.5,0,0,1,2.619-.014A2.771,2.771,0,0,1,27.6,36.751a4.388,4.388,0,0,1-.516,2.977c-.17.225-.054.384.046.589a4.91,4.91,0,0,1,.005,4.481.719.719,0,0,0-.014.681c.728,1.79.966,3.547-.542,5.1a.484.484,0,0,0-.092.589,5.9,5.9,0,0,1,.178,2.683,2.708,2.708,0,0,1-2.675,2.5c-.748.028-1.5.026-2.246,0-.437-.014-.62.13-.6.584.027.623.014,1.248,0,1.872a1.015,1.015,0,0,1-1.109,1.113c-2,.015-3.994.018-5.991,0-.755-.007-1.116-.437-1.118-1.2,0-.744.21-1.656-.14-2.183s-1.33-.173-2.031-.3a11.032,11.032,0,0,1-4.722-1.9,3.658,3.658,0,0,0-2.518-.783c-.714.048-1.435.018-2.152.007C.388,53.555.015,53.2.008,52.211c-.015-2.121,0-4.243,0-6.365m12.929-1.552a5.363,5.363,0,0,1-5.675-2.319c-.345-.5-.432-1.029.117-1.4.531-.356.99-.138,1.334.4a3.59,3.59,0,0,0,1.784,1.447A2.879,2.879,0,0,0,14.586,39.7c0-.281.011-.562,0-.842-.029-.623.231-1.09.864-1.1s.9.44.9,1.068c-.01.9-.034,1.811.014,2.713a2.78,2.78,0,0,0,2.41,2.684c.569.061.767-.088.757-.688-.032-2.089-.008-4.18-.014-6.27,0-1.25-.276-1.514-1.56-1.516-2.745,0-5.491.036-8.235-.011a3.548,3.548,0,0,0-3.344,1.8A4.5,4.5,0,0,1,2.6,39.792c-.8.034-.885.363-.88,1.024.025,3.338.048,6.676-.012,10.013-.016.911.3,1.119,1.111,1.043a6.251,6.251,0,0,1,4.636,1.275,7.907,7.907,0,0,0,4.853,1.43c.284,0,.532.032.669-.335a.826.826,0,0,1,1.013-.613c.541.138.688.576.687,1.087,0,.936.013,1.872,0,2.807-.007.447.1.7.622.686,1.185-.027,2.371-.007,3.556-.01.184,0,.375.011.5-.178a2.446,2.446,0,0,0-.462-2.181,3.412,3.412,0,0,1-.864-5.122c.2-.28.313-.428.037-.769a3.327,3.327,0,0,1-.494-3.674c.094-.213.263-.429-.127-.591a4.8,4.8,0,0,1-2.5-2.409c-.383.366-.26.728-.262,1.051-.013,1.965-.008,3.93-.01,5.9,0,.572-.246,1.034-.836,1.039-.621.006-.928-.428-.909-1.063.007-.249,0-.5,0-.748,0-1.711,0-3.422,0-5.157m6.482-13.62c0-.9,0-1.807,0-2.71,0-.368-.051-.562-.53-.483a11.54,11.54,0,0,1-3.631.01c-.523-.081-.578.114-.576.527.009,1.745.022,3.489-.007,5.234-.009.557.218.681.72.668,1.058-.029,2.121-.061,3.176.006.749.048.9-.258.858-.915-.047-.776-.011-1.557-.012-2.336M22.7,46.051c-.623,0-1.246-.01-1.868,0A1.7,1.7,0,0,0,19,47.748a1.733,1.733,0,0,0,1.767,1.688c1.307.029,2.615.009,3.923.007.606,0,1.11-.27,1.1-.886-.007-.819.432-1.783-.506-2.4a1.256,1.256,0,0,0-.632-.1c-.654-.012-1.308,0-1.962,0m-.47,8.578c2.712-.032,2.852-.153,2.683-2.365,0-.031,0-.062,0-.093a.845.845,0,0,0-.763-.918,12.513,12.513,0,0,0-3.988.077,1.477,1.477,0,0,0-1.13,1.628,1.507,1.507,0,0,0,1.343,1.556c.613.086,1.239.081,1.86.116m1.062-18.9v0c-.561,0-1.121,0-1.682,0-.288,0-.512.067-.4.425a7.24,7.24,0,0,1,.117,2.321c-.009.561.221.68.719.661.84-.032,1.681-.007,2.522-.009a1.119,1.119,0,0,0,1.28-1.241c.057-2.05-.032-2.16-2.089-2.16H23.29m.069,8.5c.342,0,.684,0,1.025,0,1.253-.014,1.447-.211,1.454-1.477,0-.248,0-.5,0-.745a1.039,1.039,0,0,0-1.148-1.163c-.931-.022-1.864.006-2.8-.011-.384-.007-.589.1-.556.521.022.278,0,.559,0,.838,0,2.039,0,2.039,2.018,2.038M17.049,1.741c-.623,0-1.248-.023-1.87.006-.809.037-.413.68-.487,1.069-.084.445.134.615.589.546a12.592,12.592,0,0,1,3.541-.006c.229.03.477.112.587-.259.26-.88-.055-1.354-.957-1.358-.467,0-.935,0-1.4,0" transform="translate(0 0)" fill="#3c5756"/>
        <path id="Trazado_874448" data-name="Trazado 874448" d="M69.08,50.557a1.308,1.308,0,0,1-.493.969c-.681.684-1.348,1.384-2.058,2.037-.4.368-.358.6.023.954.711.652,1.368,1.362,2.059,2.037a1.089,1.089,0,0,1,.019,1.774c-.6.589-1.192,1.187-1.784,1.785a1.1,1.1,0,0,1-1.777-.026c-.7-.71-1.425-1.395-2.111-2.117-.314-.331-.523-.318-.832.008-.685.723-1.411,1.407-2.112,2.116a1.1,1.1,0,0,1-1.777.012c-.591-.6-1.181-1.2-1.784-1.785a1.079,1.079,0,0,1,.023-1.768c.669-.652,1.3-1.341,1.994-1.969.428-.389.512-.658.03-1.084-.7-.618-1.342-1.3-1.99-1.973-.695-.721-.7-1.121-.024-1.832.58-.609,1.185-1.194,1.784-1.784a1.076,1.076,0,0,1,1.712.019c.705.7,1.428,1.393,2.109,2.12.33.352.548.387.894.012.655-.709,1.353-1.377,2.046-2.05s1.159-.693,1.837-.045c.608.581,1.2,1.183,1.786,1.782a1.229,1.229,0,0,1,.425.807M58.988,49.535c-.25.313-.5.592-.712.9s.095.449.253.611c.653.669,1.323,1.322,1.98,1.989.823.836.818,1.158-.027,2.011-.658.664-1.3,1.347-1.994,1.971-.468.421-.206.655.1.962s.528.58.955.106c.667-.74,1.394-1.427,2.108-2.124.731-.714,1.058-.709,1.8.021.69.677,1.387,1.348,2.042,2.059.364.4.614.381.961-.01.305-.345.63-.584.106-1.042-.679-.594-1.291-1.265-1.927-1.907-.883-.891-.886-1.212-.025-2.08.636-.642,1.251-1.31,1.925-1.909.485-.431.289-.684-.068-1.047s-.592-.447-.971-.034c-.61.665-1.271,1.285-1.912,1.922-.933.928-1.166.925-2.124-.029-.619-.616-1.232-1.237-1.854-1.85-.151-.148-.325-.273-.621-.518" transform="translate(-45.501 -38.599)" fill="#3c5756"/>
        <path id="Trazado_874449" data-name="Trazado 874449" d="M202.1,55.083a1.135,1.135,0,0,1-.442.889q-1.885,1.886-3.771,3.771c-.424.425-.9.639-1.378.146-.465-.476-.3-.954.134-1.388,1-.989,1.956-2.014,2.983-2.968.446-.414.271-.628-.061-.941s-.53-.609-1.015-.1c-1.727,1.8-3.51,3.544-5.277,5.305-.879.876-1.121.875-2,.005-.775-.769-1.528-1.559-2.321-2.309-.341-.322-.549-1.025-1.285-.307-.7.682-.135.94.223,1.3,1.223,1.246,2.49,2.452,3.679,3.729.507.545.866.7,1.342.026a3.423,3.423,0,0,1,.592-.6.826.826,0,0,1,1.249.023.808.808,0,0,1,0,1.184q-.889.961-1.85,1.854a.888.888,0,0,1-1.338-.029q-3.079-3.074-6.133-6.173a1,1,0,0,1,.041-1.566q.952-.966,1.918-1.919a1.015,1.015,0,0,1,1.625.034c.9.909,1.833,1.784,2.7,2.718.408.438.647.466,1.083.017,1.693-1.746,3.427-3.452,5.152-5.167.869-.864,1.239-.863,2.1-.01.554.548,1.1,1.105,1.651,1.656a1.034,1.034,0,0,1,.391.813" transform="translate(-150.415 -42.241)" fill="#3c5756"/>
      </g>
    </g>
  </g>
</svg>
