<svg xmlns="http://www.w3.org/2000/svg" xmlns:xlink="http://www.w3.org/1999/xlink" width="116" height="116" viewBox="0 0 116 116">
  <defs>
    <clipPath id="clip-path">
      <rect id="Rect치ngulo_378477" data-name="Rect치ngulo 378477" width="90" height="89.999" fill="none"/>
    </clipPath>
    <clipPath id="clip-path-2">
      <rect id="Rect치ngulo_379028" data-name="Rect치ngulo 379028" width="51.37" height="56.327" fill="#12263f"/>
    </clipPath>
  </defs>
  <g id="Grupo_1100032" data-name="Grupo 1100032" transform="translate(-744 -14320)">
    <circle id="Elipse_6041" data-name="Elipse 6041" cx="58" cy="58" r="58" transform="translate(744 14320)" fill="#851717"/>
    <g id="Grupo_1099947" data-name="Grupo 1099947">
      <g id="Grupo_1099555" data-name="Grupo 1099555" transform="translate(420 8631)">
        <g id="Grupo_1074114" data-name="Grupo 1074114" transform="translate(257 -26)">
          <g id="Grupo_1074112" data-name="Grupo 1074112" transform="translate(80 5728)">
            <g id="Grupo_1074103" data-name="Grupo 1074103" clip-path="url(#clip-path)">
              <path id="Trazado_611090" data-name="Trazado 611090" d="M45,0c2.318.367,4.306,2.287,6.625,2.654S56.587,1.835,58.9,2.2C61,3.267,62.293,5.709,64.385,6.773s4.974.756,7.065,1.82c1.66,1.66,2.139,4.382,3.8,6.041s4.5,2.255,6.157,3.916c1.066,2.09.681,4.828,1.746,6.918S86.733,29,87.8,31.093c.368,2.318-.844,4.8-.477,7.12S89.632,42.682,90,45c-.367,2.318-2.286,4.306-2.654,6.625s.819,4.964.452,7.282c-1.064,2.09-3.506,3.388-4.571,5.479s-.755,4.974-1.821,7.065c-1.659,1.659-4.382,2.14-6.041,3.8s-2.255,4.5-3.915,6.158c-2.09,1.065-4.828.68-6.918,1.745S61,86.732,58.907,87.8c-2.319.368-4.8-.844-7.121-.477S47.317,89.632,45,90c-2.317-.367-4.305-2.287-6.624-2.654s-4.964.819-7.282.452C29,86.732,27.7,84.29,25.615,83.226s-4.975-.755-7.066-1.82c-1.66-1.66-2.14-4.382-3.8-6.041s-4.5-2.256-6.158-3.915c-1.066-2.091-.679-4.829-1.744-6.919S3.267,61,2.2,58.906c-.368-2.318.844-4.8.477-7.121S.368,47.317,0,45c.368-2.317,2.286-4.306,2.654-6.624s-.818-4.964-.451-7.282C3.267,29,5.709,27.7,6.774,25.614s.754-4.974,1.819-7.065c1.66-1.66,4.382-2.14,6.041-3.8s2.255-4.5,3.915-6.158c2.091-1.065,4.829-.68,6.92-1.745S29,3.267,31.093,2.2c2.318-.368,4.8.844,7.12.477S42.682.367,45,0" transform="translate(0 0)" fill="#ffac47" fill-rule="evenodd"/>
              <path id="Trazado_611091" data-name="Trazado 611091" d="M46.344,88.074A41.73,41.73,0,1,0,4.614,46.344a41.811,41.811,0,0,0,41.73,41.731" transform="translate(-1.345 -1.345)" fill="#fef0d7" fill-rule="evenodd"/>
            </g>
          </g>
        </g>
      </g>
      <g id="Grupo_1099649" data-name="Grupo 1099649" transform="translate(776.315 14349.837)">
        <g id="Grupo_1099648" data-name="Grupo 1099648" clip-path="url(#clip-path-2)">
          <path id="Trazado_874422" data-name="Trazado 874422" d="M36.7,145.407c-.151-.327-.262-.536-.347-.756a.992.992,0,0,1,.527-1.425c2.15-1.028,4.3-2.048,6.438-3.108.871-.433.737.394.988.721.3.387.34.7-.234.956-1.731.784-3.43,1.637-5.153,2.44-.462.216-.606.4-.338.929q2.785,5.539,5.481,11.122c.293.609.548.616,1.086.354,1.654-.8,3.354-1.519,4.994-2.352.8-.408.768.268.968.612.209.362.53.738-.175,1.06-2.112.966-4.188,2.009-6.285,3.009-.9.43-1.237.346-1.646-.574-.319-.719-.616-.677-1.071-.173-.243.269-.515.511-.758.779-.543.6-1.035,1.108-.321,2.031a2.415,2.415,0,0,1-.29,2.945,2.613,2.613,0,0,1-2.947.815c-.542-.211-.713-.074-.936.382a2.553,2.553,0,0,1-2.5,1.475c-.433-.009-.632.066-.8.468a2.6,2.6,0,0,1-2.808,1.677c-.378-.027-.445.117-.571.374a2.69,2.69,0,0,1-4.128,1.243c-.287-.167-.582-.324-.85-.519-.755-.548-1.327-.881-2.217.05-1.047,1.1-2.983.559-3.911-.843-.066-.1-.09-.282-.172-.31-1.214-.4-2.134-1.535-3.388-1.663a3.381,3.381,0,0,1-2.978-1.679.866.866,0,0,0-.7-.451c-2.143-.451-3-2.054-2.161-4.031.117-.275.143-.423-.11-.6-.348-.239-.683-.5-1.018-.756-.228-.175-.387-.2-.583.08a.958.958,0,0,1-1.425.252c-1.985-1.15-3.968-2.3-5.967-3.43-.835-.47-.093-.848.04-1.244.154-.457.388-.655.926-.327,1.52.927,3.091,1.77,4.621,2.68.492.292.755.363,1.1-.244q3.071-5.39,6.243-10.721c.344-.58.2-.789-.331-1.079-1.564-.851-3.076-1.8-4.649-2.632-.839-.445-.212-.816-.041-1.211.188-.434.361-.762.982-.385,1.91,1.157,3.86,2.248,5.809,3.338.586.328.9.752.623,1.394-.173.406.013.546.3.7.161.083.316.178.479.256,1.334.646,1.339.648,2.3-.437,2.931-3.316,6.868-4.46,11.034-2.667a16.675,16.675,0,0,0,6.3,1.521c.149,0,.3-.022.575-.044M18.008,155.623c-.151,0-.3,0-.453,0a2.108,2.108,0,0,1-2.183-2.9c.27-.626.415-1.319.7-1.95.236-.515.827-1.2.671-1.484-.235-.431-1.016-.534-1.507-.863-.526-.353-.748-.183-1.026.308-1.458,2.572-2.949,5.126-4.429,7.687-.872,1.509-.867,1.512.651,2.443.225.138.385.242.6-.028,1.012-1.252,2.728-1.171,4.059.139.2.2.313.444.734.346a2.892,2.892,0,0,1,3.083,1.412,1.425,1.425,0,0,0,.894.609,2.815,2.815,0,0,1,2.392,2.283c.073.46.371.561.7.705.932.407,1.8,1.009,1.743,2.09-.048.976.456,1.326,1.139,1.69.4.213.775.467,1.163.7a.833.833,0,0,0,1.264-.218.857.857,0,0,0-.364-1.3c-.543-.327-1.078-.667-1.627-.984-.844-.487,0-.83.115-1.216.116-.409.337-.669.849-.337,1.063.689,2.154,1.337,3.252,1.968a.865.865,0,0,0,1.325-.292.844.844,0,0,0-.411-1.218c-.566-.346-1.113-.729-1.7-1.033-.861-.446-.125-.829.029-1.213.162-.4.35-.728.913-.349,1,.673,2.055,1.265,3.093,1.881.516.307,1.078.418,1.426-.178.333-.569.06-1.031-.5-1.346-.735-.416-1.431-.913-2.2-1.265-.78-.36-.48-.734-.21-1.25.3-.575.546-.716,1.152-.328,1.525.975,3.1,1.869,4.657,2.794a.826.826,0,0,0,1.207-.162.952.952,0,0,0-.054-1.252,2.682,2.682,0,0,0-.581-.425c-4.655-2.92-9.318-5.828-13.961-8.768-.524-.332-.761-.274-1.141.21a7.159,7.159,0,0,1-5.48,3.093m8.133-10.75a6.648,6.648,0,0,0-4.448,1.46,13.494,13.494,0,0,0-4.342,6.125c-.445,1.245-.184,1.534,1.156,1.3a3.756,3.756,0,0,0,.609-.173,7.083,7.083,0,0,0,3.519-3c.645-.983.97-1.06,1.977-.432q2.114,1.317,4.222,2.646c1.728,1.083,2.133,1.032,3.579-.447.126-.129.25-.263.365-.4a.4.4,0,0,1,.472-.139c1.206.326,1.388.859.55,1.731a7.545,7.545,0,0,1-1.089.952c-.382.269-.529.432-.027.74,1.9,1.169,3.8,2.361,5.683,3.557.317.2.5.191.722-.148a9.543,9.543,0,0,1,2.292-2.426.6.6,0,0,0,.205-.9c-1.286-2.561-2.538-5.137-3.8-7.711-.141-.288-.275-.5-.671-.453-2.7.327-5.188-.508-7.655-1.431a8.411,8.411,0,0,0-3.322-.845m-9.749,16.18a.509.509,0,0,0-.48.194c-.634.914-1.3,1.812-1.879,2.757-.274.443.042.779.434,1.036.419.274.787.3,1.091-.144.564-.818,1.136-1.63,1.667-2.469a.92.92,0,0,0-.832-1.375m-2.447-.254a.946.946,0,0,0-.622-.928.64.64,0,0,0-.9.093c-.486.647-.941,1.319-1.389,1.993a.588.588,0,0,0,.219.858c.307.229.672.6,1.037.287a10.762,10.762,0,0,0,1.654-2.3m4.469,5.759a.782.782,0,0,0,.675-.38c.356-.521.719-1.038,1.079-1.556a.8.8,0,0,0-.285-1.281.753.753,0,0,0-1.208.261c-.326.5-.7.979-1.023,1.484a.926.926,0,0,0,.762,1.471m4.447.147a1.163,1.163,0,0,0-1.088-.821c-.374-.032-1.506,1.426-1.416,1.832a1.131,1.131,0,0,0,1.046.855c.42.059,1.478-1.276,1.457-1.866" transform="translate(0 -114.596)" fill="#12263f"/>
          <path id="Trazado_874423" data-name="Trazado 874423" d="M56.269.014c4.354,0,8.708.013,13.062-.013a2.137,2.137,0,0,1,1.675.7q2.758,2.82,5.576,5.58a1.862,1.862,0,0,1,.6,1.44c-.017,4.717-.032,9.434.012,14.151.007.8-.321.833-.947.851-.687.02-.92-.143-.913-.884.039-4.233-.009-8.466.042-12.7.01-.84-.247-1.016-1.012-.968-1.024.065-2.055.019-3.083.015-1.673-.005-2.274-.618-2.278-2.32,0-1.119-.021-2.238.009-3.356.013-.487-.1-.685-.64-.684q-12.518.024-25.036-.006c-.77,0-.634.432-.634.868q0,9.933,0,19.865A1.062,1.062,0,0,1,41.1,23.584c-.381-.178-.2-.53-.2-.8-.013-3.538-.008-7.075-.008-10.613q0-4.9,0-9.8c0-1.764.586-2.36,2.323-2.361q6.531,0,13.062,0M70.827,3.252c0,.988,0,1.825,0,2.662,0,.216,0,.441.3.442.9,0,1.807,0,2.779,0L70.827,3.252" transform="translate(-33.44 -0.001)" fill="#12263f"/>
          <path id="Trazado_874424" data-name="Trazado 874424" d="M109.177,39.2a9.072,9.072,0,1,1-9.072-9.118,9.077,9.077,0,0,1,9.072,9.118m-1.818-.053A7.253,7.253,0,1,0,100.09,46.4a7.269,7.269,0,0,0,7.269-7.259" transform="translate(-74.517 -24.62)" fill="#12263f"/>
          <path id="Trazado_874425" data-name="Trazado 874425" d="M249.441,210.317a3.914,3.914,0,0,1-.8-1.453,2.979,2.979,0,0,1,1.528-.928,1.4,1.4,0,0,1,.814,1.358c-.1.64-.993.614-1.543,1.023" transform="translate(-203.53 -170.205)" fill="#12263f"/>
          <path id="Trazado_874426" data-name="Trazado 874426" d="M125.186,61.737c-.145.177-.246.323-.368.445q-2.62,2.621-5.246,5.237a.953.953,0,0,1-1.5.028c-.606-.587-1.2-1.186-1.8-1.782-.634-.633.182-.784.4-1.1.188-.268.408-.716.9-.229.422.421.738,1.242,1.365,1.095.5-.117.874-.783,1.3-1.208,1.044-1.044,2.078-2.1,3.137-3.127.188-.182.34-.638.673-.425a8.483,8.483,0,0,1,1.145,1.063" transform="translate(-94.981 -49.62)" fill="#12263f"/>
        </g>
      </g>
    </g>
  </g>
</svg>
