<svg xmlns="http://www.w3.org/2000/svg" xmlns:xlink="http://www.w3.org/1999/xlink" width="122.752" height="122.752" viewBox="0 0 122.752 122.752">
  <defs>
    <clipPath id="clip-path">
      <rect id="Rect치ngulo_378442" data-name="Rect치ngulo 378442" width="122.752" height="122.752" fill="none"/>
    </clipPath>
    <clipPath id="clip-path-2">
      <rect id="Rect치ngulo_379198" data-name="Rect치ngulo 379198" width="66.461" height="65.053" fill="#fff"/>
    </clipPath>
  </defs>
  <g id="Grupo_1074050" data-name="Grupo 1074050" transform="translate(-886.113 -393.669)">
    <g id="Grupo_1074049" data-name="Grupo 1074049" transform="translate(886.113 393.669)">
      <g id="Grupo_1074048" data-name="Grupo 1074048" clip-path="url(#clip-path)">
        <path id="Trazado_611054" data-name="Trazado 611054" d="M122.752,61.376c0,7.637-11.233,12.986-13.987,19.627-2.855,6.884,1.2,18.584-3.99,23.772S87.887,105.91,81,108.765c-6.641,2.754-11.99,13.987-19.627,13.987S48.39,111.519,41.749,108.765c-6.884-2.855-18.584,1.2-23.773-3.99S16.842,87.887,13.987,81C11.233,74.362,0,69.013,0,61.376S11.233,48.39,13.987,41.749c2.855-6.884-1.2-18.584,3.99-23.772s16.888-1.135,23.772-3.99C48.39,11.233,53.739,0,61.376,0S74.362,11.233,81,13.987c6.884,2.855,18.584-1.2,23.773,3.99s1.134,16.888,3.989,23.772c2.754,6.641,13.987,11.99,13.987,19.627" fill="#137c78"/>
      </g>
    </g>
    <g id="Grupo_1099887" data-name="Grupo 1099887" transform="translate(914.113 422.519)">
      <g id="Grupo_1099886" data-name="Grupo 1099886" clip-path="url(#clip-path-2)">
        <path id="Trazado_874897" data-name="Trazado 874897" d="M208.132,136.322c0,2.642.008,5.285,0,7.927a4.473,4.473,0,0,1-4.792,4.821c-2.642.022-5.285.034-7.927-.011-.808-.014-1.088.2-1.068,1.045.068,2.861.033,5.725.1,8.587.019.826-.228,1.1-1.056,1.056-1.171-.065-2.348-.038-3.522-.008-.6.015-.846-.164-.842-.807q.037-6.826.009-13.653c0-.622.292-.81.819-.937,2.6-.627,5.182-1.308,7.787-1.9.659-.151.926-.38.916-1.075-.034-2.385-.042-4.772,0-7.156.015-.77-.3-.9-.97-.892-4.918.021-9.836-.014-14.754.033-.941.009-1.16-.289-1.141-1.179.049-2.338.017-2.272,2.4-2.591,4.284-.574,8.557-1.233,12.834-1.867a8.087,8.087,0,0,0,2.381-1.094c1.308-.66,2.6-1.359,3.9-2.037a3.148,3.148,0,0,1,4.535,1.562,4.6,4.6,0,0,1,.4,2.031c-.014,2.716-.006,5.432-.006,8.148" transform="translate(-141.677 -96.809)" fill="#fff"/>
        <path id="Trazado_874898" data-name="Trazado 874898" d="M0,135.894c0-2.753-.006-5.505,0-8.258a3.781,3.781,0,0,1,2.025-3.53,2.455,2.455,0,0,1,2.6-.028c1.269.731,2.647,1.283,3.871,2.078,2.5,1.62,5.376,1.54,8.132,2,3.034.5,6.084.914,9.129,1.355.352.051.656.095.651.556-.009.807.013,1.615-.007,2.422-.019.741-.611.495-.989.5-4.808.015-9.616.01-14.424.01-.257,0-.515.018-.77,0-.481-.035-.638.193-.636.651.011,2.532.015,5.065,0,7.6,0,.584.324.717.8.831,2.6.623,5.183,1.3,7.788,1.9a1,1,0,0,1,.934,1.18c-.026,4.4-.029,8.809.013,13.212.008.827-.226,1.1-1.052,1.052a27.7,27.7,0,0,0-3.3,0c-.825.05-1.075-.219-1.056-1.049.066-2.862.026-5.726.093-8.587.02-.835-.243-1.067-1.058-1.052-2.605.046-5.211.028-7.817.013C1.813,148.719.011,146.916,0,143.821c-.007-2.642,0-5.285,0-7.927" transform="translate(0 -96.473)" fill="#fff"/>
        <path id="Trazado_874899" data-name="Trazado 874899" d="M84.576,46.51c-.137-.184-.032-.522-.033-.833-.008-4.73.015-9.459-.024-14.189-.007-.871.169-1.2,1.128-1.2q9.954.062,19.908,0c.951-.006,1.15.314,1.138,1.194-.047,3.372-.066,6.747.009,10.118.024,1.065-.351,1.243-1.3,1.236-5.279-.041-10.559,0-15.839-.041a2.375,2.375,0,0,0-1.892.83c-.981,1.011-2.06,1.928-3.094,2.881M95.833,33.545c-1.868,0-3.737.006-5.605,0-.754,0-1.474.094-1.478,1.045,0,.927.7,1.1,1.454,1.1q5.6.007,11.21,0c.75,0,1.463-.15,1.477-1.078.015-.95-.691-1.072-1.453-1.069-1.868.008-3.737,0-5.6,0M94.386,37.5c-1.463,0-2.926-.007-4.389,0-.7,0-1.247.267-1.253,1.06s.551,1.068,1.244,1.071q4.224.02,8.448,0c.737,0,1.341-.265,1.308-1.123-.03-.785-.6-1.015-1.3-1.015q-2.03,0-4.06,0" transform="translate(-65.895 -23.621)" fill="#fff"/>
        <path id="Trazado_874900" data-name="Trazado 874900" d="M92.421,180.326c-5.135,0-10.27-.02-15.405.02-.866.007-1.16-.223-1.1-1.1a26.7,26.7,0,0,0,.006-3.079c-.027-.636.219-.875.826-.813a4.371,4.371,0,0,0,.44,0c10.16,0,20.32.015,30.481-.023,1.023,0,1.349.288,1.257,1.288a16.889,16.889,0,0,0,0,2.748c.057.789-.236.976-.991.972-5.172-.031-10.343-.016-15.515-.016" transform="translate(-59.194 -136.722)" fill="#fff"/>
        <path id="Trazado_874901" data-name="Trazado 874901" d="M136.447,236.3c0,2.052-.044,4.106.02,6.156.028.9-.3,1.1-1.133,1.088q-4.562-.064-9.124,0c-.79.011-1.087-.176-1.078-1.03q.063-6.265,0-12.532c-.01-.906.308-1.084,1.133-1.072,3.041.044,6.084.056,9.124-.006.92-.019,1.095.311,1.076,1.131-.048,2.088-.016,4.177-.016,6.266" transform="translate(-97.573 -178.496)" fill="#fff"/>
        <path id="Trazado_874902" data-name="Trazado 874902" d="M143.971,16.519c-1.065-1.017-2.061-1.87-2.934-2.833a2.456,2.456,0,0,0-2.354-1.047c-.726.124-.941-.214-.927-.927.04-2.052-.02-4.106.031-6.157.019-.771-.21-.991-.982-.985-4.655.034-9.31,0-13.965.035-.853.007-1.211-.21-1.109-1.1.125-1.08-.459-2.483.252-3.169.654-.632,2.031-.178,3.088-.181,5.938-.016,11.876.009,17.814-.026.854-.005,1.114.217,1.107,1.094-.041,5.056-.02,10.112-.02,15.3" transform="translate(-94.839 0)" fill="#fff"/>
        <path id="Trazado_874903" data-name="Trazado 874903" d="M22.33,65.827a5.638,5.638,0,1,1-5.61,5.666,5.59,5.59,0,0,1,5.61-5.666" transform="translate(-13.038 -51.33)" fill="#fff"/>
        <path id="Trazado_874904" data-name="Trazado 874904" d="M245.114,71.429A5.61,5.61,0,0,1,239.5,77.1a5.638,5.638,0,0,1-.062-11.276,5.592,5.592,0,0,1,5.674,5.6" transform="translate(-182.345 -51.33)" fill="#fff"/>
        <path id="Trazado_874905" data-name="Trazado 874905" d="M101.2,208.055h21.888c-2.48,1.1-4.706,2.786-7.653,2.544a42.106,42.106,0,0,0-6.7,0c-2.91.228-5.079-1.5-7.532-2.543" transform="translate(-78.913 -162.236)" fill="#fff"/>
      </g>
    </g>
  </g>
</svg>
