<svg xmlns="http://www.w3.org/2000/svg" xmlns:xlink="http://www.w3.org/1999/xlink" width="400" height="740" viewBox="0 0 400 740">
  <defs>
    <clipPath id="clip-path">
      <rect id="Rectángulo_378734" data-name="Rectángulo 378734" width="400" height="367" transform="translate(285 1455)" fill="#fff" stroke="#707070" stroke-width="1"/>
    </clipPath>
    <clipPath id="clip-path-2">
      <rect id="Rectángulo_378722" data-name="Rectángulo 378722" width="378.906" height="366.717" fill="#fee7bd"/>
    </clipPath>
    <clipPath id="clip-path-3">
      <rect id="Rectángulo_378727" data-name="Rectángulo 378727" width="85.626" height="81.523" fill="#3c5756"/>
    </clipPath>
  </defs>
  <g id="Grupo_1099921" data-name="Grupo 1099921" transform="translate(-2399.965 10664.739)">
    <path id="Trazado_875159" data-name="Trazado 875159" d="M0,0H400V740H0Z" transform="translate(2399.965 -10664.739)" fill="#fff7e9"/>
    <path id="Trazado_875160" data-name="Trazado 875160" d="M36,0H217a36,36,0,0,1,0,72H36A36,36,0,0,1,36,0Z" transform="translate(2502.965 -10190.739)" fill="#ffac47"/>
    <path id="Trazado_875161" data-name="Trazado 875161" d="M36,0H217a36,36,0,0,1,0,72H36A36,36,0,0,1,36,0Z" transform="translate(2502.965 -10108.739)" fill="#8ad0ce"/>
    <path id="Trazado_875162" data-name="Trazado 875162" d="M36,0H217a36,36,0,0,1,0,72H36A36,36,0,0,1,36,0Z" transform="translate(2502.965 -10026.739)" fill="#fee7bd"/>
    <path id="Trazado_875163" data-name="Trazado 875163" d="M-88.708-2.391h-4.228L-93.674,0h-3.3l4.693-12.8h2.9L-84.647,0h-3.313ZM-92.2-4.772h2.751l-1.38-4.438ZM-81.554-9.51l.1,1.116a3.225,3.225,0,0,1,2.716-1.292,2.713,2.713,0,0,1,2.219.888,4.226,4.226,0,0,1,.76,2.672V0h-2.971V-6a1.6,1.6,0,0,0-.29-1.059A1.342,1.342,0,0,0-80.077-7.4a1.413,1.413,0,0,0-1.292.686V0h-2.962V-9.51Zm10.881-2.364V-9.51h1.564v2.057h-1.564V-3.1a1.111,1.111,0,0,0,.193.747,1.037,1.037,0,0,0,.765.211,4.345,4.345,0,0,0,.738-.053V-.079a5.466,5.466,0,0,1-1.67.255,3.1,3.1,0,0,1-2.259-.721,2.954,2.954,0,0,1-.729-2.188v-4.72h-1.213V-9.51h1.213v-2.364Zm7.33,12.05a4.889,4.889,0,0,1-3.542-1.305,4.507,4.507,0,0,1-1.354-3.4v-.246A5.84,5.84,0,0,1-67.7-7.348,3.955,3.955,0,0,1-66.12-9.075a4.763,4.763,0,0,1,2.461-.611A4.117,4.117,0,0,1-60.5-8.442a4.887,4.887,0,0,1,1.16,3.467v1.151h-5.889a2.135,2.135,0,0,0,.694,1.257,2.066,2.066,0,0,0,1.389.457,2.662,2.662,0,0,0,2.2-.984l1.354,1.6A3.784,3.784,0,0,1-61.159-.277,5.3,5.3,0,0,1-63.343.176ZM-63.677-7.4q-1.3,0-1.547,1.723h2.988v-.229a1.467,1.467,0,0,0-.36-1.1A1.434,1.434,0,0,0-63.677-7.4Zm10.512,4.729a.684.684,0,0,0-.4-.606,6.016,6.016,0,0,0-1.5-.475A6.853,6.853,0,0,1-56.892-4.4a3.062,3.062,0,0,1-1.1-.971,2.319,2.319,0,0,1-.378-1.31,2.628,2.628,0,0,1,1.081-2.158,4.453,4.453,0,0,1,2.83-.848,4.934,4.934,0,0,1,3.023.853,2.666,2.666,0,0,1,1.143,2.241h-2.971q0-1.143-1.2-1.143a1.194,1.194,0,0,0-.782.259.8.8,0,0,0-.316.646.737.737,0,0,0,.387.642,3.654,3.654,0,0,0,1.235.4,10.671,10.671,0,0,1,1.49.378A2.706,2.706,0,0,1-50.309-2.76,2.491,2.491,0,0,1-51.464-.642a5.068,5.068,0,0,1-2.993.817,5.172,5.172,0,0,1-2.18-.439,3.645,3.645,0,0,1-1.494-1.2,2.707,2.707,0,0,1-.536-1.591H-55.9a1.145,1.145,0,0,0,.439.962,1.808,1.808,0,0,0,1.081.3,1.422,1.422,0,0,0,.91-.246A.787.787,0,0,0-53.165-2.672Zm8.35-2.153a5.809,5.809,0,0,1,.976-3.56,3.211,3.211,0,0,1,2.725-1.3,2.731,2.731,0,0,1,2.145,1V-13.5H-36V0h-2.663l-.149-1.02a2.8,2.8,0,0,1-2.32,1.2,3.205,3.205,0,0,1-2.689-1.3A5.993,5.993,0,0,1-44.815-4.825Zm2.962.185q0,2.531,1.477,2.531a1.458,1.458,0,0,0,1.406-.826V-6.557A1.419,1.419,0,0,0-40.359-7.4q-1.371,0-1.485,2.215ZM-29.716.176a4.889,4.889,0,0,1-3.542-1.305,4.507,4.507,0,0,1-1.354-3.4v-.246a5.84,5.84,0,0,1,.541-2.575,3.955,3.955,0,0,1,1.578-1.727,4.763,4.763,0,0,1,2.461-.611,4.117,4.117,0,0,1,3.164,1.244,4.887,4.887,0,0,1,1.16,3.467v1.151H-31.6A2.135,2.135,0,0,0-30.9-2.566a2.066,2.066,0,0,0,1.389.457,2.662,2.662,0,0,0,2.2-.984l1.354,1.6A3.784,3.784,0,0,1-27.532-.277,5.3,5.3,0,0,1-29.716.176ZM-30.05-7.4q-1.3,0-1.547,1.723h2.988v-.229a1.467,1.467,0,0,0-.36-1.1A1.434,1.434,0,0,0-30.05-7.4ZM-16.91,0h-2.971V-13.5h2.971Zm7.181,0a3.344,3.344,0,0,1-.281-.853A2.754,2.754,0,0,1-12.3.176a3.374,3.374,0,0,1-2.285-.813,2.588,2.588,0,0,1-.94-2.043,2.66,2.66,0,0,1,1.143-2.338,5.821,5.821,0,0,1,3.322-.791h.914v-.5q0-1.316-1.134-1.316a.927.927,0,0,0-1.055,1.042h-2.962A2.655,2.655,0,0,1-14.12-8.825a4.931,4.931,0,0,1,2.993-.86A4.323,4.323,0,0,1-8.253-8.8,3.086,3.086,0,0,1-7.172-6.363v4.21a4.311,4.311,0,0,0,.4,2V0Zm-1.854-1.934a1.652,1.652,0,0,0,.918-.237,1.487,1.487,0,0,0,.523-.536V-4.228H-11q-1.547,0-1.547,1.389a.848.848,0,0,0,.272.655A.986.986,0,0,0-11.584-1.934ZM1.67-9.51l.1,1.116A3.225,3.225,0,0,1,4.482-9.686,2.713,2.713,0,0,1,6.7-8.8a4.226,4.226,0,0,1,.76,2.672V0H4.491V-6A1.6,1.6,0,0,0,4.2-7.062,1.342,1.342,0,0,0,3.146-7.4a1.413,1.413,0,0,0-1.292.686V0H-1.107V-9.51ZM13.7.176A4.889,4.889,0,0,1,10.16-1.129a4.507,4.507,0,0,1-1.354-3.4v-.246a5.84,5.84,0,0,1,.541-2.575,3.955,3.955,0,0,1,1.578-1.727,4.763,4.763,0,0,1,2.461-.611A4.117,4.117,0,0,1,16.55-8.442a4.887,4.887,0,0,1,1.16,3.467v1.151H11.821a2.135,2.135,0,0,0,.694,1.257,2.066,2.066,0,0,0,1.389.457,2.662,2.662,0,0,0,2.2-.984l1.354,1.6A3.784,3.784,0,0,1,15.886-.277,5.3,5.3,0,0,1,13.7.176ZM13.368-7.4q-1.3,0-1.547,1.723H14.81v-.229a1.467,1.467,0,0,0-.36-1.1A1.434,1.434,0,0,0,13.368-7.4Zm5.186,2.575a6.421,6.421,0,0,1,.475-2.549,3.821,3.821,0,0,1,1.362-1.709,3.591,3.591,0,0,1,2.065-.6,2.855,2.855,0,0,1,2.32,1l.105-.826h2.689V-.36a4.009,4.009,0,0,1-.584,2.184,3.75,3.75,0,0,1-1.692,1.424,6.219,6.219,0,0,1-2.566.5,5.365,5.365,0,0,1-2.026-.4A3.657,3.657,0,0,1,19.2,2.32L20.443.58a2.716,2.716,0,0,0,2.18.976A1.764,1.764,0,0,0,24.592-.466v-.3a2.781,2.781,0,0,1-2.153.94,3.437,3.437,0,0,1-2.812-1.332A5.517,5.517,0,0,1,18.554-4.72Zm2.971.185a3.383,3.383,0,0,0,.439,1.85,1.386,1.386,0,0,0,1.23.681,1.573,1.573,0,0,0,1.4-.642v-4a1.534,1.534,0,0,0-1.38-.65,1.4,1.4,0,0,0-1.239.708A3.858,3.858,0,0,0,21.524-4.641Zm7.356-.2a5.613,5.613,0,0,1,.554-2.536,3.96,3.96,0,0,1,1.591-1.709,4.791,4.791,0,0,1,2.435-.6,4.373,4.373,0,0,1,3.366,1.323,5.076,5.076,0,0,1,1.23,3.6v.105a4.925,4.925,0,0,1-1.235,3.529A4.384,4.384,0,0,1,33.478.176a4.434,4.434,0,0,1-3.261-1.217,4.761,4.761,0,0,1-1.327-3.3Zm2.962.185a3.538,3.538,0,0,0,.413,1.934,1.376,1.376,0,0,0,1.222.615q1.582,0,1.617-2.435v-.3q0-2.558-1.635-2.558-1.485,0-1.608,2.206Zm11.54,2.549a1.317,1.317,0,0,0,.967-.338,1.241,1.241,0,0,0,.334-.945h2.777A3.288,3.288,0,0,1,46.34-.826a4.168,4.168,0,0,1-2.887,1,4.22,4.22,0,0,1-3.27-1.3,5.125,5.125,0,0,1-1.2-3.6v-.123A5.792,5.792,0,0,1,39.52-7.4a3.872,3.872,0,0,1,1.534-1.7,4.573,4.573,0,0,1,2.373-.593,4.116,4.116,0,0,1,2.944,1.028,3.647,3.647,0,0,1,1.09,2.786H44.684A1.626,1.626,0,0,0,44.323-7a1.244,1.244,0,0,0-.967-.4q-1.151,0-1.345,1.468a10.357,10.357,0,0,0-.062,1.283,4.068,4.068,0,0,0,.343,1.986A1.187,1.187,0,0,0,43.383-2.109ZM51.838,0H48.867V-9.51h2.971ZM48.691-11.962A1.322,1.322,0,0,1,49.148-13a1.724,1.724,0,0,1,1.187-.4,1.724,1.724,0,0,1,1.187.4,1.322,1.322,0,0,1,.457,1.037,1.322,1.322,0,0,1-.457,1.037,1.724,1.724,0,0,1-1.187.4,1.724,1.724,0,0,1-1.187-.4A1.322,1.322,0,0,1,48.691-11.962ZM59.019,0a3.344,3.344,0,0,1-.281-.853A2.754,2.754,0,0,1,56.452.176a3.374,3.374,0,0,1-2.285-.813,2.588,2.588,0,0,1-.94-2.043,2.66,2.66,0,0,1,1.143-2.338,5.821,5.821,0,0,1,3.322-.791h.914v-.5q0-1.316-1.134-1.316a.927.927,0,0,0-1.055,1.042H53.455a2.655,2.655,0,0,1,1.173-2.239,4.931,4.931,0,0,1,2.993-.86A4.323,4.323,0,0,1,60.5-8.8a3.086,3.086,0,0,1,1.081,2.435v4.21a4.311,4.311,0,0,0,.4,2V0ZM57.164-1.934a1.652,1.652,0,0,0,.918-.237,1.487,1.487,0,0,0,.523-.536V-4.228h-.861q-1.547,0-1.547,1.389a.848.848,0,0,0,.272.655A.986.986,0,0,0,57.164-1.934Zm10.072-.176a1.317,1.317,0,0,0,.967-.338,1.241,1.241,0,0,0,.334-.945h2.777A3.288,3.288,0,0,1,70.194-.826a4.168,4.168,0,0,1-2.887,1,4.22,4.22,0,0,1-3.27-1.3,5.125,5.125,0,0,1-1.2-3.6v-.123A5.792,5.792,0,0,1,63.374-7.4a3.872,3.872,0,0,1,1.534-1.7,4.573,4.573,0,0,1,2.373-.593,4.116,4.116,0,0,1,2.944,1.028,3.647,3.647,0,0,1,1.09,2.786H68.537A1.626,1.626,0,0,0,68.177-7a1.244,1.244,0,0,0-.967-.4q-1.151,0-1.345,1.468A10.357,10.357,0,0,0,65.8-4.649a4.068,4.068,0,0,0,.343,1.986A1.187,1.187,0,0,0,67.236-2.109ZM75.691,0H72.721V-9.51h2.971ZM72.545-11.962A1.322,1.322,0,0,1,73-13a1.724,1.724,0,0,1,1.187-.4,1.724,1.724,0,0,1,1.187.4,1.322,1.322,0,0,1,.457,1.037,1.322,1.322,0,0,1-.457,1.037,1.724,1.724,0,0,1-1.187.4,1.724,1.724,0,0,1-1.187-.4A1.322,1.322,0,0,1,72.545-11.962Zm4.6,7.119A5.613,5.613,0,0,1,77.7-7.378a3.96,3.96,0,0,1,1.591-1.709,4.791,4.791,0,0,1,2.435-.6,4.373,4.373,0,0,1,3.366,1.323,5.076,5.076,0,0,1,1.23,3.6v.105a4.925,4.925,0,0,1-1.235,3.529A4.384,4.384,0,0,1,81.738.176a4.434,4.434,0,0,1-3.261-1.217,4.761,4.761,0,0,1-1.327-3.3Zm2.962.185a3.538,3.538,0,0,0,.413,1.934,1.376,1.376,0,0,0,1.222.615q1.582,0,1.617-2.435v-.3q0-2.558-1.635-2.558-1.485,0-1.608,2.206ZM82.125-13.5h3.129l-2.443,2.76-2.417,0Zm8.218,3.99.1,1.116a3.225,3.225,0,0,1,2.716-1.292,2.713,2.713,0,0,1,2.219.888,4.226,4.226,0,0,1,.76,2.672V0H93.164V-6a1.6,1.6,0,0,0-.29-1.059A1.342,1.342,0,0,0,91.819-7.4a1.413,1.413,0,0,0-1.292.686V0H87.565V-9.51Z" transform="translate(2629.965 -10148.739)" fill="#12263f"/>
    <path id="Trazado_875164" data-name="Trazado 875164" d="M-92.193,0V-12.8h4.122a6.064,6.064,0,0,1,3.05.769,5.406,5.406,0,0,1,2.114,2.171,6.554,6.554,0,0,1,.769,3.142v.589a6.592,6.592,0,0,1-.743,3.151A5.429,5.429,0,0,1-84.973-.8a5.93,5.93,0,0,1-3.01.8Zm3.085-10.415v8.042h1.072A2.4,2.4,0,0,0-86-3.318a4.63,4.63,0,0,0,.712-2.808V-6.68A4.592,4.592,0,0,0-86-9.475a2.442,2.442,0,0,0-2.074-.94Zm14.08,9.387a3.054,3.054,0,0,1-2.54,1.2,3,3,0,0,1-2.369-.91,3.826,3.826,0,0,1-.8-2.615V-9.51h2.962v6.179a1.065,1.065,0,0,0,1.187,1.222,1.548,1.548,0,0,0,1.45-.729V-9.51h2.979V0H-74.94Zm10.239-5.8-.976-.07a1.752,1.752,0,0,0-1.793.879V0h-2.962V-9.51h2.777l.1,1.222a2.294,2.294,0,0,1,2.083-1.4,2.888,2.888,0,0,1,.826.105ZM-58.627,0a3.344,3.344,0,0,1-.281-.853A2.754,2.754,0,0,1-61.194.176a3.374,3.374,0,0,1-2.285-.813,2.588,2.588,0,0,1-.94-2.043,2.66,2.66,0,0,1,1.143-2.338,5.821,5.821,0,0,1,3.322-.791h.914v-.5q0-1.316-1.134-1.316a.927.927,0,0,0-1.055,1.042h-2.962a2.655,2.655,0,0,1,1.173-2.239,4.931,4.931,0,0,1,2.993-.86,4.323,4.323,0,0,1,2.874.888A3.086,3.086,0,0,1-56.07-6.363v4.21a4.311,4.311,0,0,0,.4,2V0Zm-1.854-1.934a1.652,1.652,0,0,0,.918-.237,1.487,1.487,0,0,0,.523-.536V-4.228H-59.9q-1.547,0-1.547,1.389a.848.848,0,0,0,.272.655A.986.986,0,0,0-60.482-1.934ZM-51.71-9.51l.1,1.116A3.225,3.225,0,0,1-48.9-9.686a2.713,2.713,0,0,1,2.219.888,4.226,4.226,0,0,1,.76,2.672V0h-2.971V-6a1.6,1.6,0,0,0-.29-1.059A1.342,1.342,0,0,0-50.234-7.4a1.413,1.413,0,0,0-1.292.686V0h-2.962V-9.51Zm10.881-2.364V-9.51h1.564v2.057H-40.83V-3.1a1.111,1.111,0,0,0,.193.747,1.037,1.037,0,0,0,.765.211,4.345,4.345,0,0,0,.738-.053V-.079A5.466,5.466,0,0,1-40.8.176a3.1,3.1,0,0,1-2.259-.721,2.954,2.954,0,0,1-.729-2.188v-4.72H-45V-9.51h1.213v-2.364ZM-33.5.176a4.889,4.889,0,0,1-3.542-1.305,4.507,4.507,0,0,1-1.354-3.4v-.246a5.84,5.84,0,0,1,.541-2.575,3.955,3.955,0,0,1,1.578-1.727,4.763,4.763,0,0,1,2.461-.611,4.117,4.117,0,0,1,3.164,1.244,4.887,4.887,0,0,1,1.16,3.467v1.151H-35.38a2.135,2.135,0,0,0,.694,1.257,2.066,2.066,0,0,0,1.389.457,2.662,2.662,0,0,0,2.2-.984l1.354,1.6A3.784,3.784,0,0,1-31.315-.277,5.3,5.3,0,0,1-33.5.176ZM-33.833-7.4q-1.3,0-1.547,1.723h2.988v-.229a1.467,1.467,0,0,0-.36-1.1A1.434,1.434,0,0,0-33.833-7.4ZM-20.694,0h-2.971V-13.5h2.971Zm7.181,0a3.344,3.344,0,0,1-.281-.853A2.754,2.754,0,0,1-16.08.176a3.374,3.374,0,0,1-2.285-.813,2.588,2.588,0,0,1-.94-2.043,2.66,2.66,0,0,1,1.143-2.338A5.821,5.821,0,0,1-14.84-5.81h.914v-.5q0-1.316-1.134-1.316a.927.927,0,0,0-1.055,1.042h-2.962A2.655,2.655,0,0,1-17.9-8.825a4.931,4.931,0,0,1,2.993-.86,4.323,4.323,0,0,1,2.874.888,3.086,3.086,0,0,1,1.081,2.435v4.21a4.311,4.311,0,0,0,.4,2V0Zm-1.854-1.934a1.652,1.652,0,0,0,.918-.237,1.487,1.487,0,0,0,.523-.536V-4.228h-.861q-1.547,0-1.547,1.389a.848.848,0,0,0,.272.655A.986.986,0,0,0-15.368-1.934ZM-2.114-9.51l.1,1.116A3.225,3.225,0,0,1,.7-9.686,2.713,2.713,0,0,1,2.918-8.8a4.226,4.226,0,0,1,.76,2.672V0H.708V-6a1.6,1.6,0,0,0-.29-1.059A1.342,1.342,0,0,0-.637-7.4a1.413,1.413,0,0,0-1.292.686V0H-4.891V-9.51ZM9.918.176A4.889,4.889,0,0,1,6.376-1.129a4.507,4.507,0,0,1-1.354-3.4v-.246a5.84,5.84,0,0,1,.541-2.575A3.955,3.955,0,0,1,7.141-9.075,4.763,4.763,0,0,1,9.6-9.686a4.117,4.117,0,0,1,3.164,1.244,4.887,4.887,0,0,1,1.16,3.467v1.151H8.038a2.135,2.135,0,0,0,.694,1.257,2.066,2.066,0,0,0,1.389.457,2.662,2.662,0,0,0,2.2-.984l1.354,1.6A3.784,3.784,0,0,1,12.1-.277,5.3,5.3,0,0,1,9.918.176ZM9.584-7.4q-1.3,0-1.547,1.723h2.988v-.229a1.467,1.467,0,0,0-.36-1.1A1.434,1.434,0,0,0,9.584-7.4ZM14.77-4.825a6.421,6.421,0,0,1,.475-2.549,3.821,3.821,0,0,1,1.362-1.709,3.591,3.591,0,0,1,2.065-.6,2.855,2.855,0,0,1,2.32,1L21.1-9.51h2.689V-.36A4.009,4.009,0,0,1,23.2,1.824a3.75,3.75,0,0,1-1.692,1.424,6.219,6.219,0,0,1-2.566.5,5.365,5.365,0,0,1-2.026-.4,3.657,3.657,0,0,1-1.5-1.028L16.66.58a2.716,2.716,0,0,0,2.18.976A1.764,1.764,0,0,0,20.808-.466v-.3a2.781,2.781,0,0,1-2.153.94,3.437,3.437,0,0,1-2.812-1.332A5.517,5.517,0,0,1,14.77-4.72Zm2.971.185a3.383,3.383,0,0,0,.439,1.85,1.386,1.386,0,0,0,1.23.681,1.573,1.573,0,0,0,1.4-.642v-4a1.534,1.534,0,0,0-1.38-.65,1.4,1.4,0,0,0-1.239.708A3.858,3.858,0,0,0,17.741-4.641Zm7.356-.2a5.613,5.613,0,0,1,.554-2.536,3.96,3.96,0,0,1,1.591-1.709,4.791,4.791,0,0,1,2.435-.6,4.373,4.373,0,0,1,3.366,1.323,5.076,5.076,0,0,1,1.23,3.6v.105a4.925,4.925,0,0,1-1.235,3.529A4.384,4.384,0,0,1,29.694.176a4.434,4.434,0,0,1-3.261-1.217,4.761,4.761,0,0,1-1.327-3.3Zm2.962.185a3.538,3.538,0,0,0,.413,1.934,1.376,1.376,0,0,0,1.222.615q1.582,0,1.617-2.435v-.3q0-2.558-1.635-2.558-1.485,0-1.608,2.206ZM39.6-2.109a1.317,1.317,0,0,0,.967-.338,1.241,1.241,0,0,0,.334-.945h2.777A3.288,3.288,0,0,1,42.557-.826a4.168,4.168,0,0,1-2.887,1,4.22,4.22,0,0,1-3.27-1.3,5.125,5.125,0,0,1-1.2-3.6v-.123A5.792,5.792,0,0,1,35.736-7.4a3.872,3.872,0,0,1,1.534-1.7,4.573,4.573,0,0,1,2.373-.593,4.116,4.116,0,0,1,2.944,1.028,3.647,3.647,0,0,1,1.09,2.786H40.9A1.626,1.626,0,0,0,40.54-7a1.244,1.244,0,0,0-.967-.4q-1.151,0-1.345,1.468a10.357,10.357,0,0,0-.062,1.283,4.068,4.068,0,0,0,.343,1.986A1.187,1.187,0,0,0,39.6-2.109ZM48.054,0H45.083V-9.51h2.971ZM44.908-11.962A1.322,1.322,0,0,1,45.365-13a1.724,1.724,0,0,1,1.187-.4,1.724,1.724,0,0,1,1.187.4,1.322,1.322,0,0,1,.457,1.037,1.322,1.322,0,0,1-.457,1.037,1.724,1.724,0,0,1-1.187.4,1.724,1.724,0,0,1-1.187-.4A1.322,1.322,0,0,1,44.908-11.962ZM55.235,0a3.344,3.344,0,0,1-.281-.853A2.754,2.754,0,0,1,52.668.176a3.374,3.374,0,0,1-2.285-.813,2.588,2.588,0,0,1-.94-2.043,2.66,2.66,0,0,1,1.143-2.338,5.821,5.821,0,0,1,3.322-.791h.914v-.5q0-1.316-1.134-1.316a.927.927,0,0,0-1.055,1.042H49.671a2.655,2.655,0,0,1,1.173-2.239,4.931,4.931,0,0,1,2.993-.86,4.323,4.323,0,0,1,2.874.888,3.086,3.086,0,0,1,1.081,2.435v4.21a4.311,4.311,0,0,0,.4,2V0ZM53.38-1.934a1.652,1.652,0,0,0,.918-.237,1.487,1.487,0,0,0,.523-.536V-4.228H53.96q-1.547,0-1.547,1.389a.848.848,0,0,0,.272.655A.986.986,0,0,0,53.38-1.934Zm10.072-.176a1.317,1.317,0,0,0,.967-.338,1.241,1.241,0,0,0,.334-.945h2.777A3.288,3.288,0,0,1,66.41-.826a4.168,4.168,0,0,1-2.887,1,4.22,4.22,0,0,1-3.27-1.3,5.125,5.125,0,0,1-1.2-3.6v-.123A5.792,5.792,0,0,1,59.59-7.4a3.872,3.872,0,0,1,1.534-1.7A4.573,4.573,0,0,1,63.5-9.686a4.116,4.116,0,0,1,2.944,1.028,3.647,3.647,0,0,1,1.09,2.786H64.753A1.626,1.626,0,0,0,64.393-7a1.244,1.244,0,0,0-.967-.4q-1.151,0-1.345,1.468a10.357,10.357,0,0,0-.062,1.283,4.068,4.068,0,0,0,.343,1.986A1.187,1.187,0,0,0,63.453-2.109ZM71.908,0H68.937V-9.51h2.971ZM68.761-11.962A1.322,1.322,0,0,1,69.218-13a1.724,1.724,0,0,1,1.187-.4,1.724,1.724,0,0,1,1.187.4,1.322,1.322,0,0,1,.457,1.037,1.322,1.322,0,0,1-.457,1.037,1.724,1.724,0,0,1-1.187.4,1.724,1.724,0,0,1-1.187-.4A1.322,1.322,0,0,1,68.761-11.962Zm4.6,7.119a5.613,5.613,0,0,1,.554-2.536A3.96,3.96,0,0,1,75.5-9.088a4.791,4.791,0,0,1,2.435-.6A4.373,4.373,0,0,1,81.3-8.363a5.076,5.076,0,0,1,1.23,3.6v.105A4.925,4.925,0,0,1,81.3-1.129,4.384,4.384,0,0,1,77.955.176a4.434,4.434,0,0,1-3.261-1.217,4.761,4.761,0,0,1-1.327-3.3Zm2.962.185a3.538,3.538,0,0,0,.413,1.934,1.376,1.376,0,0,0,1.222.615q1.582,0,1.617-2.435v-.3q0-2.558-1.635-2.558-1.485,0-1.608,2.206ZM78.341-13.5H81.47l-2.443,2.76-2.417,0Zm8.218,3.99.1,1.116a3.225,3.225,0,0,1,2.716-1.292,2.713,2.713,0,0,1,2.219.888,4.226,4.226,0,0,1,.76,2.672V0H89.38V-6a1.6,1.6,0,0,0-.29-1.059A1.342,1.342,0,0,0,88.036-7.4a1.413,1.413,0,0,0-1.292.686V0H83.782V-9.51Z" transform="translate(2629.965 -10066.739)" fill="#12263f"/>
    <path id="Trazado_875165" data-name="Trazado 875165" d="M-107.363,0V-12.8h4.122a6.064,6.064,0,0,1,3.05.769,5.406,5.406,0,0,1,2.114,2.171,6.554,6.554,0,0,1,.769,3.142v.589a6.592,6.592,0,0,1-.743,3.151A5.429,5.429,0,0,1-100.143-.8a5.93,5.93,0,0,1-3.01.8Zm3.085-10.415v8.042h1.072a2.4,2.4,0,0,0,2.039-.945,4.63,4.63,0,0,0,.712-2.808V-6.68a4.592,4.592,0,0,0-.712-2.795,2.442,2.442,0,0,0-2.074-.94ZM-91.261.176A4.889,4.889,0,0,1-94.8-1.129a4.507,4.507,0,0,1-1.354-3.4v-.246a5.84,5.84,0,0,1,.541-2.575,3.955,3.955,0,0,1,1.578-1.727,4.763,4.763,0,0,1,2.461-.611,4.117,4.117,0,0,1,3.164,1.244,4.887,4.887,0,0,1,1.16,3.467v1.151h-5.889a2.135,2.135,0,0,0,.694,1.257,2.066,2.066,0,0,0,1.389.457,2.662,2.662,0,0,0,2.2-.984l1.354,1.6A3.784,3.784,0,0,1-89.077-.277,5.3,5.3,0,0,1-91.261.176ZM-91.6-7.4q-1.3,0-1.547,1.723h2.988v-.229a1.467,1.467,0,0,0-.36-1.1A1.434,1.434,0,0,0-91.6-7.4Zm10.512,4.729a.684.684,0,0,0-.4-.606,6.016,6.016,0,0,0-1.5-.475A6.853,6.853,0,0,1-84.81-4.4a3.062,3.062,0,0,1-1.1-.971,2.319,2.319,0,0,1-.378-1.31,2.628,2.628,0,0,1,1.081-2.158,4.453,4.453,0,0,1,2.83-.848,4.934,4.934,0,0,1,3.023.853,2.666,2.666,0,0,1,1.143,2.241H-81.18q0-1.143-1.2-1.143a1.194,1.194,0,0,0-.782.259.8.8,0,0,0-.316.646.737.737,0,0,0,.387.642,3.654,3.654,0,0,0,1.235.4,10.671,10.671,0,0,1,1.49.378A2.706,2.706,0,0,1-78.227-2.76,2.491,2.491,0,0,1-79.383-.642a5.068,5.068,0,0,1-2.993.817,5.172,5.172,0,0,1-2.18-.439,3.645,3.645,0,0,1-1.494-1.2,2.707,2.707,0,0,1-.536-1.591h2.769a1.145,1.145,0,0,0,.439.962,1.808,1.808,0,0,0,1.081.3,1.422,1.422,0,0,0,.91-.246A.787.787,0,0,0-81.083-2.672Zm13.069-2.013a5.735,5.735,0,0,1-1,3.538A3.2,3.2,0,0,1-71.706.176a2.742,2.742,0,0,1-2.153-.958V3.656h-2.962V-9.51h2.769l.088.879a2.742,2.742,0,0,1,2.241-1.055,3.224,3.224,0,0,1,2.733,1.3,5.805,5.805,0,0,1,.976,3.564Zm-2.962-.185q0-2.531-1.477-2.531a1.394,1.394,0,0,0-1.406.756V-2.9a1.439,1.439,0,0,0,1.424.791q1.415,0,1.459-2.443Zm9.932,3.841a3.054,3.054,0,0,1-2.54,1.2,3,3,0,0,1-2.369-.91,3.826,3.826,0,0,1-.8-2.615V-9.51H-63.8v6.179a1.065,1.065,0,0,0,1.187,1.222,1.548,1.548,0,0,0,1.45-.729V-9.51h2.979V0h-2.777Zm9.088,1.2A4.889,4.889,0,0,1-55.5-1.129a4.507,4.507,0,0,1-1.354-3.4v-.246a5.84,5.84,0,0,1,.541-2.575,3.955,3.955,0,0,1,1.578-1.727,4.763,4.763,0,0,1,2.461-.611,4.117,4.117,0,0,1,3.164,1.244,4.887,4.887,0,0,1,1.16,3.467v1.151h-5.889a2.135,2.135,0,0,0,.694,1.257,2.066,2.066,0,0,0,1.389.457,2.662,2.662,0,0,0,2.2-.984l1.354,1.6A3.784,3.784,0,0,1-49.772-.277,5.3,5.3,0,0,1-51.957.176ZM-52.291-7.4q-1.3,0-1.547,1.723h2.988v-.229a1.467,1.467,0,0,0-.36-1.1A1.434,1.434,0,0,0-52.291-7.4Zm-.035-6.108H-49.2l-2.443,2.76-2.417,0ZM-41.779-2.672a.684.684,0,0,0-.4-.606,6.016,6.016,0,0,0-1.5-.475A6.853,6.853,0,0,1-45.505-4.4a3.062,3.062,0,0,1-1.1-.971,2.319,2.319,0,0,1-.378-1.31A2.628,2.628,0,0,1-45.9-8.837a4.453,4.453,0,0,1,2.83-.848,4.934,4.934,0,0,1,3.023.853A2.666,2.666,0,0,1-38.9-6.592h-2.971q0-1.143-1.2-1.143a1.194,1.194,0,0,0-.782.259.8.8,0,0,0-.316.646.737.737,0,0,0,.387.642,3.654,3.654,0,0,0,1.235.4,10.671,10.671,0,0,1,1.49.378A2.706,2.706,0,0,1-38.922-2.76,2.491,2.491,0,0,1-40.078-.642a5.068,5.068,0,0,1-2.993.817,5.172,5.172,0,0,1-2.18-.439,3.645,3.645,0,0,1-1.494-1.2,2.707,2.707,0,0,1-.536-1.591h2.769a1.145,1.145,0,0,0,.439.962,1.808,1.808,0,0,0,1.081.3,1.422,1.422,0,0,0,.91-.246A.787.787,0,0,0-41.779-2.672Zm8.35-2.153a5.809,5.809,0,0,1,.976-3.56,3.211,3.211,0,0,1,2.725-1.3,2.731,2.731,0,0,1,2.145,1V-13.5h2.971V0h-2.663l-.149-1.02a2.8,2.8,0,0,1-2.32,1.2,3.205,3.205,0,0,1-2.689-1.3A5.993,5.993,0,0,1-33.429-4.825Zm2.962.185q0,2.531,1.477,2.531a1.458,1.458,0,0,0,1.406-.826V-6.557A1.419,1.419,0,0,0-28.973-7.4q-1.371,0-1.485,2.215ZM-18.33.176a4.889,4.889,0,0,1-3.542-1.305,4.507,4.507,0,0,1-1.354-3.4v-.246a5.84,5.84,0,0,1,.541-2.575,3.955,3.955,0,0,1,1.578-1.727,4.763,4.763,0,0,1,2.461-.611,4.117,4.117,0,0,1,3.164,1.244,4.887,4.887,0,0,1,1.16,3.467v1.151H-20.21a2.135,2.135,0,0,0,.694,1.257,2.066,2.066,0,0,0,1.389.457,2.662,2.662,0,0,0,2.2-.984l1.354,1.6A3.784,3.784,0,0,1-16.146-.277,5.3,5.3,0,0,1-18.33.176ZM-18.664-7.4q-1.3,0-1.547,1.723h2.988v-.229a1.467,1.467,0,0,0-.36-1.1A1.434,1.434,0,0,0-18.664-7.4ZM-5.524,0H-8.495V-13.5h2.971ZM1.657,0a3.344,3.344,0,0,1-.281-.853A2.754,2.754,0,0,1-.91.176,3.374,3.374,0,0,1-3.195-.637a2.588,2.588,0,0,1-.94-2.043A2.66,2.66,0,0,1-2.993-5.019,5.821,5.821,0,0,1,.33-5.81h.914v-.5q0-1.316-1.134-1.316A.927.927,0,0,0-.945-6.587H-3.907A2.655,2.655,0,0,1-2.733-8.825a4.931,4.931,0,0,1,2.993-.86A4.323,4.323,0,0,1,3.133-8.8,3.086,3.086,0,0,1,4.214-6.363v4.21a4.311,4.311,0,0,0,.4,2V0ZM-.2-1.934a1.652,1.652,0,0,0,.918-.237,1.487,1.487,0,0,0,.523-.536V-4.228H.382q-1.547,0-1.547,1.389a.848.848,0,0,0,.272.655A.986.986,0,0,0-.2-1.934ZM13.056-9.51l.1,1.116a3.225,3.225,0,0,1,2.716-1.292,2.713,2.713,0,0,1,2.219.888,4.226,4.226,0,0,1,.76,2.672V0H15.877V-6a1.6,1.6,0,0,0-.29-1.059A1.342,1.342,0,0,0,14.533-7.4a1.413,1.413,0,0,0-1.292.686V0H10.279V-9.51ZM25.088.176a4.889,4.889,0,0,1-3.542-1.305,4.507,4.507,0,0,1-1.354-3.4v-.246a5.84,5.84,0,0,1,.541-2.575,3.955,3.955,0,0,1,1.578-1.727,4.763,4.763,0,0,1,2.461-.611,4.117,4.117,0,0,1,3.164,1.244A4.887,4.887,0,0,1,29.1-4.975v1.151H23.208A2.135,2.135,0,0,0,23.9-2.566a2.066,2.066,0,0,0,1.389.457,2.662,2.662,0,0,0,2.2-.984l1.354,1.6A3.784,3.784,0,0,1,27.272-.277,5.3,5.3,0,0,1,25.088.176ZM24.754-7.4q-1.3,0-1.547,1.723H26.2v-.229a1.467,1.467,0,0,0-.36-1.1A1.434,1.434,0,0,0,24.754-7.4ZM29.94-4.825a6.421,6.421,0,0,1,.475-2.549,3.821,3.821,0,0,1,1.362-1.709,3.591,3.591,0,0,1,2.065-.6,2.855,2.855,0,0,1,2.32,1l.105-.826h2.689V-.36a4.009,4.009,0,0,1-.584,2.184,3.75,3.75,0,0,1-1.692,1.424,6.219,6.219,0,0,1-2.566.5,5.365,5.365,0,0,1-2.026-.4,3.657,3.657,0,0,1-1.5-1.028L31.83.58a2.716,2.716,0,0,0,2.18.976A1.764,1.764,0,0,0,35.978-.466v-.3a2.781,2.781,0,0,1-2.153.94,3.437,3.437,0,0,1-2.812-1.332A5.517,5.517,0,0,1,29.94-4.72Zm2.971.185a3.383,3.383,0,0,0,.439,1.85,1.386,1.386,0,0,0,1.23.681,1.573,1.573,0,0,0,1.4-.642v-4A1.534,1.534,0,0,0,34.6-7.4a1.4,1.4,0,0,0-1.239.708A3.858,3.858,0,0,0,32.911-4.641Zm7.356-.2a5.613,5.613,0,0,1,.554-2.536,3.96,3.96,0,0,1,1.591-1.709,4.791,4.791,0,0,1,2.435-.6,4.373,4.373,0,0,1,3.366,1.323,5.076,5.076,0,0,1,1.23,3.6v.105a4.925,4.925,0,0,1-1.235,3.529A4.384,4.384,0,0,1,44.864.176,4.434,4.434,0,0,1,41.6-1.042a4.761,4.761,0,0,1-1.327-3.3Zm2.962.185a3.538,3.538,0,0,0,.413,1.934,1.376,1.376,0,0,0,1.222.615q1.582,0,1.617-2.435v-.3q0-2.558-1.635-2.558-1.485,0-1.608,2.206Zm11.54,2.549a1.317,1.317,0,0,0,.967-.338,1.241,1.241,0,0,0,.334-.945h2.777A3.288,3.288,0,0,1,57.727-.826a4.168,4.168,0,0,1-2.887,1,4.22,4.22,0,0,1-3.27-1.3,5.125,5.125,0,0,1-1.2-3.6v-.123A5.792,5.792,0,0,1,50.906-7.4a3.872,3.872,0,0,1,1.534-1.7,4.573,4.573,0,0,1,2.373-.593,4.116,4.116,0,0,1,2.944,1.028,3.647,3.647,0,0,1,1.09,2.786H56.07A1.626,1.626,0,0,0,55.709-7a1.244,1.244,0,0,0-.967-.4q-1.151,0-1.345,1.468a10.357,10.357,0,0,0-.062,1.283,4.068,4.068,0,0,0,.343,1.986A1.187,1.187,0,0,0,54.769-2.109ZM63.224,0H60.253V-9.51h2.971ZM60.078-11.962A1.322,1.322,0,0,1,60.535-13a1.724,1.724,0,0,1,1.187-.4,1.724,1.724,0,0,1,1.187.4,1.322,1.322,0,0,1,.457,1.037,1.322,1.322,0,0,1-.457,1.037,1.724,1.724,0,0,1-1.187.4,1.724,1.724,0,0,1-1.187-.4A1.322,1.322,0,0,1,60.078-11.962ZM70.4,0a3.344,3.344,0,0,1-.281-.853A2.754,2.754,0,0,1,67.838.176a3.374,3.374,0,0,1-2.285-.813,2.588,2.588,0,0,1-.94-2.043,2.66,2.66,0,0,1,1.143-2.338,5.821,5.821,0,0,1,3.322-.791h.914v-.5q0-1.316-1.134-1.316A.927.927,0,0,0,67.8-6.587H64.841a2.655,2.655,0,0,1,1.173-2.239,4.931,4.931,0,0,1,2.993-.86,4.323,4.323,0,0,1,2.874.888,3.086,3.086,0,0,1,1.081,2.435v4.21a4.311,4.311,0,0,0,.4,2V0ZM68.55-1.934a1.652,1.652,0,0,0,.918-.237,1.487,1.487,0,0,0,.523-.536V-4.228H69.13q-1.547,0-1.547,1.389a.848.848,0,0,0,.272.655A.986.986,0,0,0,68.55-1.934Zm10.072-.176a1.317,1.317,0,0,0,.967-.338,1.241,1.241,0,0,0,.334-.945H82.7A3.288,3.288,0,0,1,81.58-.826a4.168,4.168,0,0,1-2.887,1,4.22,4.22,0,0,1-3.27-1.3,5.125,5.125,0,0,1-1.2-3.6v-.123A5.792,5.792,0,0,1,74.76-7.4a3.872,3.872,0,0,1,1.534-1.7,4.573,4.573,0,0,1,2.373-.593,4.116,4.116,0,0,1,2.944,1.028A3.647,3.647,0,0,1,82.7-5.871H79.923A1.626,1.626,0,0,0,79.563-7a1.244,1.244,0,0,0-.967-.4q-1.151,0-1.345,1.468a10.357,10.357,0,0,0-.062,1.283,4.068,4.068,0,0,0,.343,1.986A1.187,1.187,0,0,0,78.623-2.109ZM87.078,0H84.107V-9.51h2.971ZM83.931-11.962A1.322,1.322,0,0,1,84.388-13a1.724,1.724,0,0,1,1.187-.4,1.724,1.724,0,0,1,1.187.4,1.322,1.322,0,0,1,.457,1.037,1.322,1.322,0,0,1-.457,1.037,1.724,1.724,0,0,1-1.187.4,1.724,1.724,0,0,1-1.187-.4A1.322,1.322,0,0,1,83.931-11.962Zm4.6,7.119a5.613,5.613,0,0,1,.554-2.536,3.96,3.96,0,0,1,1.591-1.709,4.791,4.791,0,0,1,2.435-.6,4.373,4.373,0,0,1,3.366,1.323,5.076,5.076,0,0,1,1.23,3.6v.105a4.925,4.925,0,0,1-1.235,3.529A4.384,4.384,0,0,1,93.125.176a4.434,4.434,0,0,1-3.261-1.217,4.761,4.761,0,0,1-1.327-3.3Zm2.962.185A3.538,3.538,0,0,0,91.9-2.725a1.376,1.376,0,0,0,1.222.615q1.582,0,1.617-2.435v-.3q0-2.558-1.635-2.558-1.485,0-1.608,2.206ZM93.511-13.5H96.64L94.2-10.74l-2.417,0Zm8.218,3.99.1,1.116a3.225,3.225,0,0,1,2.716-1.292,2.713,2.713,0,0,1,2.219.888,4.226,4.226,0,0,1,.76,2.672V0H104.55V-6a1.6,1.6,0,0,0-.29-1.059,1.342,1.342,0,0,0-1.055-.338,1.413,1.413,0,0,0-1.292.686V0H98.952V-9.51Z" transform="translate(2629.965 -9984.739)" fill="#12263f"/>
    <g id="Trazado_875166" data-name="Trazado 875166" transform="translate(2454.965 -10639.739)" fill="#63502f">
      <path d="M 259 61.5 L 31 61.5 C 26.88232231140137 61.5 22.88803482055664 60.69364166259766 19.12817764282227 59.10335540771484 C 15.49632167816162 57.56721496582031 12.23446464538574 55.36800003051758 9.433250427246094 52.56674957275391 C 6.631999969482422 49.76553726196289 4.432785511016846 46.50367736816406 2.896642923355103 42.87182235717773 C 1.306357145309448 39.11196517944336 0.5 35.11767959594727 0.5 31 C 0.5 26.88232231140137 1.306357145309448 22.88803482055664 2.896642923355103 19.12817764282227 C 4.432785511016846 15.49632167816162 6.631999969482422 12.23446464538574 9.433250427246094 9.433250427246094 C 12.23446464538574 6.631999969482422 15.49632167816162 4.432785511016846 19.12817764282227 2.896642923355103 C 22.88803482055664 1.306357145309448 26.88232231140137 0.5 31 0.5 L 259 0.5 C 263.11767578125 0.5 267.1119689941406 1.306357145309448 270.871826171875 2.896642923355103 C 274.5036926269531 4.432785511016846 277.7655334472656 6.631999969482422 280.5667419433594 9.433250427246094 C 283.3680114746094 12.23446464538574 285.5671997070312 15.49632167816162 287.1033630371094 19.12817764282227 C 288.6936340332031 22.88803482055664 289.5 26.88232231140137 289.5 31 C 289.5 35.11767959594727 288.6936340332031 39.11196517944336 287.1033630371094 42.87182235717773 C 285.5671997070312 46.50367736816406 283.3680114746094 49.76553726196289 280.5667419433594 52.56674957275391 C 277.7655334472656 55.36800003051758 274.5036926269531 57.56721496582031 270.871826171875 59.10335540771484 C 267.1119689941406 60.69364166259766 263.11767578125 61.5 259 61.5 Z" stroke="none"/>
      <path d="M 31 1 C 26.9495849609375 1 23.0208740234375 1.793037414550781 19.32296752929688 3.357154846191406 C 15.75070190429688 4.868076324462891 12.54226684570312 7.031307220458984 9.78680419921875 9.786808013916016 C 7.031341552734375 12.54227066040039 4.868072509765625 15.75069046020508 3.357147216796875 19.32295989990234 C 1.79302978515625 23.02084732055664 1 26.94957733154297 1 31 C 1 35.05042266845703 1.79302978515625 38.9791145324707 3.357147216796875 42.67704010009766 C 4.868072509765625 46.24930572509766 7.031341552734375 49.45772933959961 9.78680419921875 52.21319198608398 C 12.54226684570312 54.96865463256836 15.75070190429688 57.13192367553711 19.32296752929688 58.64284515380859 C 23.0208740234375 60.20696258544922 26.9495849609375 61 31 61 L 259 61 C 263.0504150390625 61 266.9791259765625 60.20696258544922 270.6770324707031 58.64284515380859 C 274.2492980957031 57.13192367553711 277.4577331542969 54.96865463256836 280.2131958007812 52.21319198608398 C 282.9686584472656 49.45772933959961 285.1319274902344 46.24930572509766 286.6428527832031 42.67704010009766 C 288.2069702148438 38.9791145324707 289 35.05042266845703 289 31 C 289 26.94957733154297 288.2069702148438 23.02084732055664 286.6428527832031 19.32295989990234 C 285.1319274902344 15.75069046020508 282.9686584472656 12.54227066040039 280.2131958007812 9.786808013916016 C 277.4577331542969 7.031307220458984 274.2492980957031 4.868076324462891 270.6770324707031 3.357154846191406 C 266.9791259765625 1.793037414550781 263.0504150390625 1 259 1 L 31 1 M 31 0 L 259 0 C 276.1208190917969 0 290 13.87915420532227 290 31 C 290 48.12080764770508 276.1208190917969 62 259 62 L 31 62 C 13.87918090820312 62 0 48.12080764770508 0 31 C 0 13.87915420532227 13.87918090820312 0 31 0 Z" stroke="none" fill="#707070"/>
    </g>
    <path id="Trazado_875167" data-name="Trazado 875167" d="M-102.7-4.342V0h-3.085V-12.8h5.106a5.948,5.948,0,0,1,2.6.541,4.074,4.074,0,0,1,1.749,1.538,4.2,4.2,0,0,1,.62,2.263,3.7,3.7,0,0,1-1.34,2.993,5.561,5.561,0,0,1-3.678,1.121Zm0-2.382h2.021a1.906,1.906,0,0,0,1.367-.448,1.665,1.665,0,0,0,.47-1.266,2.059,2.059,0,0,0-.483-1.433,1.712,1.712,0,0,0-1.318-.545H-102.7Zm14.247-.105-.976-.07a1.752,1.752,0,0,0-1.793.879V0h-2.962V-9.51h2.777l.1,1.222a2.294,2.294,0,0,1,2.083-1.4,2.888,2.888,0,0,1,.826.105Zm.378,1.986a5.613,5.613,0,0,1,.554-2.536,3.96,3.96,0,0,1,1.591-1.709,4.791,4.791,0,0,1,2.435-.6A4.373,4.373,0,0,1-80.13-8.363a5.076,5.076,0,0,1,1.23,3.6v.105a4.925,4.925,0,0,1-1.235,3.529A4.384,4.384,0,0,1-83.479.176a4.434,4.434,0,0,1-3.261-1.217,4.761,4.761,0,0,1-1.327-3.3Zm2.962.185A3.538,3.538,0,0,0-84.7-2.725a1.376,1.376,0,0,0,1.222.615q1.582,0,1.617-2.435v-.3q0-2.558-1.635-2.558-1.485,0-1.608,2.206Zm11.54,2.549a1.317,1.317,0,0,0,.967-.338,1.241,1.241,0,0,0,.334-.945H-69.5A3.288,3.288,0,0,1-70.616-.826a4.168,4.168,0,0,1-2.887,1,4.22,4.22,0,0,1-3.27-1.3,5.125,5.125,0,0,1-1.2-3.6v-.123A5.792,5.792,0,0,1-77.436-7.4a3.872,3.872,0,0,1,1.534-1.7,4.573,4.573,0,0,1,2.373-.593,4.116,4.116,0,0,1,2.944,1.028A3.647,3.647,0,0,1-69.5-5.871h-2.777A1.626,1.626,0,0,0-72.633-7a1.244,1.244,0,0,0-.967-.4q-1.151,0-1.345,1.468a10.357,10.357,0,0,0-.062,1.283,4.068,4.068,0,0,0,.343,1.986A1.187,1.187,0,0,0-73.573-2.109ZM-63.642.176a4.889,4.889,0,0,1-3.542-1.305,4.507,4.507,0,0,1-1.354-3.4v-.246A5.84,5.84,0,0,1-68-7.348a3.955,3.955,0,0,1,1.578-1.727,4.763,4.763,0,0,1,2.461-.611,4.117,4.117,0,0,1,3.164,1.244,4.887,4.887,0,0,1,1.16,3.467v1.151h-5.889a2.135,2.135,0,0,0,.694,1.257,2.066,2.066,0,0,0,1.389.457,2.662,2.662,0,0,0,2.2-.984l1.354,1.6A3.784,3.784,0,0,1-61.458-.277,5.3,5.3,0,0,1-63.642.176ZM-63.976-7.4q-1.3,0-1.547,1.723h2.988v-.229a1.467,1.467,0,0,0-.36-1.1A1.434,1.434,0,0,0-63.976-7.4Zm10.512,4.729a.684.684,0,0,0-.4-.606,6.016,6.016,0,0,0-1.5-.475A6.853,6.853,0,0,1-57.19-4.4a3.062,3.062,0,0,1-1.1-.971,2.319,2.319,0,0,1-.378-1.31,2.628,2.628,0,0,1,1.081-2.158,4.453,4.453,0,0,1,2.83-.848,4.934,4.934,0,0,1,3.023.853A2.666,2.666,0,0,1-50.59-6.592h-2.971q0-1.143-1.2-1.143a1.194,1.194,0,0,0-.782.259.8.8,0,0,0-.316.646.737.737,0,0,0,.387.642,3.654,3.654,0,0,0,1.235.4,10.671,10.671,0,0,1,1.49.378A2.706,2.706,0,0,1-50.607-2.76,2.491,2.491,0,0,1-51.763-.642a5.068,5.068,0,0,1-2.993.817,5.172,5.172,0,0,1-2.18-.439,3.645,3.645,0,0,1-1.494-1.2,2.707,2.707,0,0,1-.536-1.591H-56.2a1.145,1.145,0,0,0,.439.962,1.808,1.808,0,0,0,1.081.3,1.422,1.422,0,0,0,.91-.246A.787.787,0,0,0-53.464-2.672ZM-49.6-4.843a5.613,5.613,0,0,1,.554-2.536,3.96,3.96,0,0,1,1.591-1.709,4.791,4.791,0,0,1,2.435-.6,4.373,4.373,0,0,1,3.366,1.323,5.076,5.076,0,0,1,1.23,3.6v.105a4.925,4.925,0,0,1-1.235,3.529A4.384,4.384,0,0,1-45,.176a4.434,4.434,0,0,1-3.261-1.217,4.761,4.761,0,0,1-1.327-3.3Zm2.962.185a3.538,3.538,0,0,0,.413,1.934A1.376,1.376,0,0,0-45-2.109q1.582,0,1.617-2.435v-.3q0-2.558-1.635-2.558-1.485,0-1.608,2.206Zm11.628-.167a5.809,5.809,0,0,1,.976-3.56,3.211,3.211,0,0,1,2.725-1.3,2.731,2.731,0,0,1,2.145,1V-13.5h2.971V0h-2.663L-29-1.02a2.8,2.8,0,0,1-2.32,1.2,3.205,3.205,0,0,1-2.689-1.3A5.993,5.993,0,0,1-35.007-4.825Zm2.962.185q0,2.531,1.477,2.531a1.458,1.458,0,0,0,1.406-.826V-6.557A1.419,1.419,0,0,0-30.551-7.4q-1.371,0-1.485,2.215ZM-19.907.176a4.889,4.889,0,0,1-3.542-1.305,4.507,4.507,0,0,1-1.354-3.4v-.246a5.84,5.84,0,0,1,.541-2.575,3.955,3.955,0,0,1,1.578-1.727,4.763,4.763,0,0,1,2.461-.611A4.117,4.117,0,0,1-17.06-8.442,4.887,4.887,0,0,1-15.9-4.975v1.151h-5.889a2.135,2.135,0,0,0,.694,1.257,2.066,2.066,0,0,0,1.389.457,2.662,2.662,0,0,0,2.2-.984l1.354,1.6A3.784,3.784,0,0,1-17.723-.277,5.3,5.3,0,0,1-19.907.176ZM-20.241-7.4q-1.3,0-1.547,1.723H-18.8v-.229a1.467,1.467,0,0,0-.36-1.1A1.434,1.434,0,0,0-20.241-7.4ZM-7.1,0h-2.971V-13.5H-7.1ZM.079,0A3.344,3.344,0,0,1-.2-.853,2.754,2.754,0,0,1-2.487.176,3.374,3.374,0,0,1-4.772-.637a2.588,2.588,0,0,1-.94-2.043A2.66,2.66,0,0,1-4.57-5.019,5.821,5.821,0,0,1-1.248-5.81h.914v-.5q0-1.316-1.134-1.316A.927.927,0,0,0-2.522-6.587H-5.484A2.655,2.655,0,0,1-4.311-8.825a4.931,4.931,0,0,1,2.993-.86A4.323,4.323,0,0,1,1.556-8.8,3.086,3.086,0,0,1,2.637-6.363v4.21a4.311,4.311,0,0,0,.4,2V0ZM-1.775-1.934a1.652,1.652,0,0,0,.918-.237,1.487,1.487,0,0,0,.523-.536V-4.228H-1.2q-1.547,0-1.547,1.389a.848.848,0,0,0,.272.655A.986.986,0,0,0-1.775-1.934ZM11.479-9.51l.1,1.116a3.225,3.225,0,0,1,2.716-1.292A2.713,2.713,0,0,1,16.51-8.8a4.226,4.226,0,0,1,.76,2.672V0H14.3V-6a1.6,1.6,0,0,0-.29-1.059A1.342,1.342,0,0,0,12.955-7.4a1.413,1.413,0,0,0-1.292.686V0H8.7V-9.51ZM23.511.176a4.889,4.889,0,0,1-3.542-1.305,4.507,4.507,0,0,1-1.354-3.4v-.246a5.84,5.84,0,0,1,.541-2.575,3.955,3.955,0,0,1,1.578-1.727,4.763,4.763,0,0,1,2.461-.611,4.117,4.117,0,0,1,3.164,1.244,4.887,4.887,0,0,1,1.16,3.467v1.151H21.63a2.135,2.135,0,0,0,.694,1.257,2.066,2.066,0,0,0,1.389.457,2.662,2.662,0,0,0,2.2-.984l1.354,1.6A3.784,3.784,0,0,1,25.695-.277,5.3,5.3,0,0,1,23.511.176ZM23.177-7.4q-1.3,0-1.547,1.723h2.988v-.229a1.467,1.467,0,0,0-.36-1.1A1.434,1.434,0,0,0,23.177-7.4Zm5.186,2.575a6.421,6.421,0,0,1,.475-2.549A3.821,3.821,0,0,1,30.2-9.083a3.591,3.591,0,0,1,2.065-.6,2.855,2.855,0,0,1,2.32,1l.105-.826H37.38V-.36A4.009,4.009,0,0,1,36.8,1.824,3.75,3.75,0,0,1,35.1,3.248a6.219,6.219,0,0,1-2.566.5,5.365,5.365,0,0,1-2.026-.4,3.657,3.657,0,0,1-1.5-1.028L30.252.58a2.716,2.716,0,0,0,2.18.976A1.764,1.764,0,0,0,34.4-.466v-.3a2.781,2.781,0,0,1-2.153.94,3.437,3.437,0,0,1-2.812-1.332A5.517,5.517,0,0,1,28.362-4.72Zm2.971.185a3.383,3.383,0,0,0,.439,1.85A1.386,1.386,0,0,0,33-2.109a1.573,1.573,0,0,0,1.4-.642v-4a1.534,1.534,0,0,0-1.38-.65,1.4,1.4,0,0,0-1.239.708A3.858,3.858,0,0,0,31.333-4.641Zm7.356-.2a5.613,5.613,0,0,1,.554-2.536,3.96,3.96,0,0,1,1.591-1.709,4.791,4.791,0,0,1,2.435-.6,4.373,4.373,0,0,1,3.366,1.323,5.076,5.076,0,0,1,1.23,3.6v.105A4.925,4.925,0,0,1,46.63-1.129,4.384,4.384,0,0,1,43.286.176a4.434,4.434,0,0,1-3.261-1.217,4.761,4.761,0,0,1-1.327-3.3Zm2.962.185a3.538,3.538,0,0,0,.413,1.934,1.376,1.376,0,0,0,1.222.615q1.582,0,1.617-2.435v-.3Q44.9-7.4,43.269-7.4q-1.485,0-1.608,2.206Zm11.54,2.549a1.317,1.317,0,0,0,.967-.338,1.241,1.241,0,0,0,.334-.945H57.27A3.288,3.288,0,0,1,56.149-.826a4.168,4.168,0,0,1-2.887,1,4.22,4.22,0,0,1-3.27-1.3,5.125,5.125,0,0,1-1.2-3.6v-.123A5.792,5.792,0,0,1,49.329-7.4a3.872,3.872,0,0,1,1.534-1.7,4.573,4.573,0,0,1,2.373-.593A4.116,4.116,0,0,1,56.18-8.657a3.647,3.647,0,0,1,1.09,2.786H54.492A1.626,1.626,0,0,0,54.132-7a1.244,1.244,0,0,0-.967-.4q-1.151,0-1.345,1.468a10.357,10.357,0,0,0-.062,1.283A4.068,4.068,0,0,0,52.1-2.663,1.187,1.187,0,0,0,53.191-2.109ZM61.646,0H58.676V-9.51h2.971ZM58.5-11.962A1.322,1.322,0,0,1,58.957-13a1.724,1.724,0,0,1,1.187-.4,1.724,1.724,0,0,1,1.187.4,1.322,1.322,0,0,1,.457,1.037,1.322,1.322,0,0,1-.457,1.037,1.724,1.724,0,0,1-1.187.4,1.724,1.724,0,0,1-1.187-.4A1.322,1.322,0,0,1,58.5-11.962ZM68.827,0a3.344,3.344,0,0,1-.281-.853A2.754,2.754,0,0,1,66.261.176a3.374,3.374,0,0,1-2.285-.813,2.588,2.588,0,0,1-.94-2.043,2.66,2.66,0,0,1,1.143-2.338A5.821,5.821,0,0,1,67.5-5.81h.914v-.5q0-1.316-1.134-1.316a.927.927,0,0,0-1.055,1.042H63.264a2.655,2.655,0,0,1,1.173-2.239,4.931,4.931,0,0,1,2.993-.86A4.323,4.323,0,0,1,70.3-8.8a3.086,3.086,0,0,1,1.081,2.435v4.21a4.311,4.311,0,0,0,.4,2V0ZM66.973-1.934a1.652,1.652,0,0,0,.918-.237,1.487,1.487,0,0,0,.523-.536V-4.228h-.861q-1.547,0-1.547,1.389a.848.848,0,0,0,.272.655A.986.986,0,0,0,66.973-1.934Zm10.072-.176a1.317,1.317,0,0,0,.967-.338,1.241,1.241,0,0,0,.334-.945h2.777A3.288,3.288,0,0,1,80-.826a4.168,4.168,0,0,1-2.887,1,4.22,4.22,0,0,1-3.27-1.3,5.125,5.125,0,0,1-1.2-3.6v-.123A5.792,5.792,0,0,1,73.182-7.4a3.872,3.872,0,0,1,1.534-1.7,4.573,4.573,0,0,1,2.373-.593,4.116,4.116,0,0,1,2.944,1.028,3.647,3.647,0,0,1,1.09,2.786H78.346A1.626,1.626,0,0,0,77.985-7a1.244,1.244,0,0,0-.967-.4q-1.151,0-1.345,1.468a10.357,10.357,0,0,0-.062,1.283,4.068,4.068,0,0,0,.343,1.986A1.187,1.187,0,0,0,77.045-2.109ZM85.5,0H82.529V-9.51H85.5ZM82.354-11.962A1.322,1.322,0,0,1,82.811-13,1.724,1.724,0,0,1,84-13.4a1.724,1.724,0,0,1,1.187.4,1.322,1.322,0,0,1,.457,1.037,1.322,1.322,0,0,1-.457,1.037,1.724,1.724,0,0,1-1.187.4,1.724,1.724,0,0,1-1.187-.4A1.322,1.322,0,0,1,82.354-11.962Zm4.6,7.119A5.613,5.613,0,0,1,87.5-7.378a3.96,3.96,0,0,1,1.591-1.709,4.791,4.791,0,0,1,2.435-.6A4.373,4.373,0,0,1,94.9-8.363a5.076,5.076,0,0,1,1.23,3.6v.105a4.925,4.925,0,0,1-1.235,3.529A4.384,4.384,0,0,1,91.547.176a4.434,4.434,0,0,1-3.261-1.217,4.761,4.761,0,0,1-1.327-3.3Zm2.962.185a3.538,3.538,0,0,0,.413,1.934,1.376,1.376,0,0,0,1.222.615q1.582,0,1.617-2.435v-.3q0-2.558-1.635-2.558-1.485,0-1.608,2.206ZM91.934-13.5h3.129l-2.443,2.76-2.417,0Zm8.218,3.99.1,1.116a3.225,3.225,0,0,1,2.716-1.292,2.713,2.713,0,0,1,2.219.888,4.226,4.226,0,0,1,.76,2.672V0h-2.971V-6a1.6,1.6,0,0,0-.29-1.059,1.342,1.342,0,0,0-1.055-.338,1.413,1.413,0,0,0-1.292.686V0H97.374V-9.51Z" transform="translate(2599.965 -10602.739)" fill="#fff"/>
    <g id="Enmascarar_grupo_1073829" data-name="Enmascarar grupo 1073829" transform="translate(2114.965 -12030.739)" clip-path="url(#clip-path)">
      <g id="Grupo_1099444" data-name="Grupo 1099444" transform="translate(-337 76.358)">
        <g id="Grupo_1099442" data-name="Grupo 1099442" transform="translate(611 1378.642)">
          <g id="Grupo_1099438" data-name="Grupo 1099438" clip-path="url(#clip-path-2)">
            <path id="Trazado_873599" data-name="Trazado 873599" d="M178.834,96.648v7.06a70.558,70.558,0,0,1,61.121,101.6l5.553,2.907a73.352,73.352,0,0,0,8.077-34.416,77.2,77.2,0,0,0-74.751-77.155" transform="translate(34.315 18.545)" fill="#8ad0ce"/>
            <path id="Trazado_873600" data-name="Trazado 873600" d="M343.944,176.806A168.045,168.045,0,0,0,180.28,20.775L203.058,64.6a8.506,8.506,0,0,1-.406,8.529L182.038,104.99A84.009,84.009,0,0,1,250.251,228.7l20.215,35.775a1.341,1.341,0,0,0,1.164.682l54,.155v.38c13.037-27.418,20.468-58.639,18.312-88.882" transform="translate(34.592 3.986)" fill="#8ad0ce"/>
            <path id="Trazado_873601" data-name="Trazado 873601" d="M148.219,222.175a77.2,77.2,0,0,0,104.234-26.226l-5.521-2.889a70.547,70.547,0,0,1-117.026,4.027l-5.207,3.418c-.122.081-.253.139-.378.211a73.378,73.378,0,0,0,23.9,21.459" transform="translate(23.855 37.044)" fill="#fee7bd"/>
            <path id="Trazado_873602" data-name="Trazado 873602" d="M294.648,237.821a8.511,8.511,0,0,1-7.369-4.317l-18.238-32.276a84,84,0,0,1-139.823-.733l-6.017.039-34.76.229a1.344,1.344,0,0,0-1.16.687L61.434,247.587l-.546.977-.482-.269-.1-.058-.1.2c17.316,25.6,37.929,43.464,65.724,56.973a168.035,168.035,0,0,0,219.153-67.443Z" transform="translate(11.552 38.471)" fill="#fee7bd"/>
            <path id="Trazado_873603" data-name="Trazado 873603" d="M128.379,209.58a70.54,70.54,0,0,1,56.134-105.751V96.7A73.338,73.338,0,0,0,150.59,106.92a77.2,77.2,0,0,0-27.8,106.261c.31-.091,5.318-3.424,5.589-3.6" transform="translate(21.484 18.556)" fill="#ffac47"/>
            <path id="Trazado_873604" data-name="Trazado 873604" d="M120.009,188.761A83.985,83.985,0,0,1,201.3,104.827l23.032-35.6a1.347,1.347,0,0,0,.064-1.348l-24.437-47.02-7.893.274c-30.824,2.2-56.606,11.117-82.2,28.434A168.028,168.028,0,0,0,60.874,276.723l24.815-44.3a8.509,8.509,0,0,1,7.353-4.343l36.613-.241a83.613,83.613,0,0,1-9.646-39.078" transform="translate(6.904 4.003)" fill="#ffac47"/>
            <path id="Trazado_873605" data-name="Trazado 873605" d="M60.247,240.782l.2-.139-.468-.263c.089.133.175.269.266.4" transform="translate(11.509 46.124)" fill="#7de314"/>
          </g>
        </g>
        <g id="Grupo_1099443" data-name="Grupo 1099443" transform="translate(779 1525)">
          <g id="Grupo_1099440" data-name="Grupo 1099440" clip-path="url(#clip-path-3)">
            <path id="Trazado_873609" data-name="Trazado 873609" d="M.034,185.817c0-2.911-.064-5.824.016-8.733a10.258,10.258,0,0,1,4.8-8.438,1.266,1.266,0,0,1,1.6.015,11.113,11.113,0,0,0,12.056.009,1.381,1.381,0,0,1,1.72.034c2.656,1.736,3.638,4.422,4.283,7.32.28,1.257.109,2.921.992,3.653s2.487.188,3.773.216c1.57.034,3.143-.024,4.713.017a3.608,3.608,0,1,1-.1,7.2c-3.927.017-7.855.01-11.783,0-1.731,0-2.378-.5-2.831-2.214-.577-2.183-1.118-4.376-1.677-6.563-.091-.356-.183-.713-.3-1.061a1.254,1.254,0,0,0-1.617-.922,1.229,1.229,0,0,0-.968,1.588c.724,2.951,1.444,5.905,2.284,8.825a4.116,4.116,0,0,0,2.772,2.718c.766.261.77.6.508,1.209-.712,1.65-1.46,3.29-2.068,4.978-.284.788-.72.906-1.442.9-5.083-.024-10.166-.041-15.248.01-1.128.011-1.54-.3-1.513-1.474.071-3.094.024-6.191.024-9.287Z" transform="translate(0 -121.657)" fill="#3c5756"/>
            <path id="Trazado_873610" data-name="Trazado 873610" d="M210.151,185.89c0,3.1-.034,6.192.019,9.287.018,1.03-.324,1.358-1.352,1.349-5.175-.042-10.35-.031-15.525-.005a1.165,1.165,0,0,1-1.308-.89c-.626-1.683-1.362-3.326-2.071-4.978-.253-.59-.3-.936.481-1.219a4.783,4.783,0,0,0,3.1-3.615c.593-2.464,1.244-4.914,1.872-7.369.237-.927.262-1.842-.857-2.139-1.226-.325-1.614.61-1.856,1.548-.6,2.32-1.142,4.655-1.747,6.973-.46,1.763-1.1,2.227-2.959,2.229q-5.753.007-11.506,0c-2.384-.006-4.077-1.512-4.077-3.6s1.689-3.585,4.085-3.6c2.356-.019,4.715-.055,7.069.02,1.024.032,1.457-.267,1.634-1.307a29.9,29.9,0,0,1,1.395-5.629,8.79,8.79,0,0,1,3.507-4.343,1.189,1.189,0,0,1,1.483-.059,11.114,11.114,0,0,0,12.289.01,1.162,1.162,0,0,1,1.479.042,10.284,10.284,0,0,1,4.826,8.568c.06,2.91.012,5.822.012,8.733Z" transform="translate(-124.545 -121.609)" fill="#3c5756"/>
            <path id="Trazado_873611" data-name="Trazado 873611" d="M65.5,27.851c0-2.211-.059-4.057.023-5.9.045-1.01-.315-1.291-1.256-1.2a17.421,17.421,0,0,1-2.216.009c-1.62-.05-2.58-.861-2.595-2.437q-.073-7.9,0-15.8C59.465.822,60.493.009,62.419.006Q74.061-.009,85.7,0c4.417,0,4.715.3,4.715,4.7q0,6.375,0,12.75c0,2.553-.762,3.312-3.292,3.315-3.973,0-7.946.02-11.919-.015a2.841,2.841,0,0,0-1.993.734c-2.462,2.074-4.963,4.1-7.715,6.364M72.581,12.78a1.351,1.351,0,0,0-1.231,2.037,2.96,2.96,0,0,0,1.067,1.055c.674.375,1.17.708,1.2,1.62a1.172,1.172,0,0,0,1.3,1.01,1.22,1.22,0,0,0,1.32-1.166,1.621,1.621,0,0,1,.979-1.478,3.607,3.607,0,0,0,1.543-4.11,3.661,3.661,0,0,0-3.334-2.664,7.175,7.175,0,0,1-.827-.07.947.947,0,0,1-.863-1.068c.045-.545.425-.775.945-.829a2.065,2.065,0,0,1,1.768.57,1.168,1.168,0,0,0,1.741-.019A1.3,1.3,0,0,0,78.332,5.8,3.425,3.425,0,0,0,77.2,4.813a1.379,1.379,0,0,1-.953-1.324,1.231,1.231,0,0,0-1.3-1.2,1.26,1.26,0,0,0-1.377,1.266c0,.74-.4,1.012-.927,1.365a3.724,3.724,0,0,0,.017,6.282,4.279,4.279,0,0,0,2.243.619c.679.017,1.249.208,1.187,1-.067.858-.747.94-1.437.932a1.485,1.485,0,0,1-1.1-.505,1.392,1.392,0,0,0-.973-.473" transform="translate(-42.931 0)" fill="#3c5756"/>
            <path id="Trazado_873612" data-name="Trazado 873612" d="M82.259,196.081c.275-1.414,1.206-1.495,2.223-1.494q9.984.012,19.968,0c1.248,0,2.5.013,3.744,0,.894-.009,1.481.372,1.828,1.49-1.782,0-3.452-.03-5.12.006a6.361,6.361,0,1,0-.2,12.72c3.189.048,6.379.038,9.568-.007a1.368,1.368,0,0,1,1.53,1.026c.7,1.854,1.5,3.669,2.249,5.5.758,1.856.607,2.086-1.364,2.087q-11.51,0-23.019,0-9.083,0-18.166,0c-1.9,0-2.064-.242-1.352-1.993.763-1.879,1.581-3.737,2.29-5.636a1.369,1.369,0,0,1,1.558-.985c3.05.039,6.1.024,9.152.013a6.372,6.372,0,1,0,.127-12.73c-1.646-.034-3.293-.006-5.011-.006" transform="translate(-53.292 -140.601)" fill="#3c5756"/>
            <path id="Trazado_873613" data-name="Trazado 873613" d="M132.618,46.257a4.53,4.53,0,0,1,4.959-2.4,47.006,47.006,0,0,0,5.266.034c.928,0,1.681-.275,1.684-1.38s-.734-1.374-1.673-1.374c-2.219,0-4.44-.054-6.657.021-1.063.036-1.165-.444-1.194-1.319-.032-.967.36-1.149,1.214-1.131,2.172.047,4.345.009,6.518.018.986,0,1.792-.236,1.786-1.415-.006-1.209-.855-1.361-1.823-1.355-2.219.014-4.439-.026-6.657.019-.792.016-1.008-.252-1.028-1.027-.074-2.822-.1-2.822,2.71-2.822,2.543,0,5.086-.015,7.628,0,2.138.017,2.954.807,2.964,2.94q.035,7.42,0,14.841c-.009,2.2-.815,2.95-3.068,2.966-2.967.021-2.967.021-2.967,3.057V59.96a67.378,67.378,0,0,1-5.213-4.339,9.08,9.08,0,0,0-7.8-2.8c-2.983.257-6.005.066-9.011.052-1.981-.009-2.874-.9-2.916-2.863,0-.185,0-.37,0-.555,0-2.752,0-2.743,2.761-2.719.673.006,1.233-.1,1.058.971-.122.747.429,1.289,1.285,1.3q1.179.016,2.358.014c5.733,0,11.466.017,17.2-.014,1.02-.006,2.41.442,2.523-1.314.069-1.076-.635-1.433-2.632-1.433h-9.273Z" transform="translate(-84.784 -23.207)" fill="#3c5756"/>
            <path id="Trazado_873614" data-name="Trazado 873614" d="M22.437,121.244a8.57,8.57,0,1,1,8.693-8.607,8.73,8.73,0,0,1-8.693,8.607" transform="translate(-9.955 -75.223)" fill="#3c5756"/>
            <path id="Trazado_873615" data-name="Trazado 873615" d="M241.113,104.106a8.569,8.569,0,1,1-.137,17.138,8.57,8.57,0,1,1,.137-17.138" transform="translate(-167.87 -75.223)" fill="#3c5756"/>
            <path id="Trazado_873616" data-name="Trazado 873616" d="M99.954,286.631c6.427,0,12.853-.013,19.28.024.54,0,1.489-.526,1.526.734.035,1.182-.732,1.183-1.574,1.182q-16.436-.01-32.873,0-3.052,0-6.1,0c-.524,0-1.061-.015-1.195-.674-.155-.767-.125-1.3.966-1.283,3.744.06,7.49.023,11.235.023h8.738" transform="translate(-57.045 -207.049)" fill="#3c5756"/>
          </g>
        </g>
        <circle id="Elipse_6034" data-name="Elipse 6034" cx="24" cy="24" r="24" transform="translate(906 1486)" fill="#d2edec"/>
        <circle id="Elipse_6035" data-name="Elipse 6035" cx="24" cy="24" r="24" transform="translate(790 1669)" fill="#fef0d7"/>
        <circle id="Elipse_6033" data-name="Elipse 6033" cx="24" cy="24" r="24" transform="translate(685 1486)" fill="#ffdfb9"/>
        <text id="_2" data-name="2" transform="translate(930 1516)" fill="#12263f" font-size="18" font-family="Roboto-Black, Roboto" font-weight="800"><tspan x="-5.212" y="0">2</tspan></text>
        <text id="_3" data-name="3" transform="translate(814 1699)" fill="#12263f" font-size="18" font-family="Roboto-Black, Roboto" font-weight="800"><tspan x="-5.212" y="0">3</tspan></text>
        <text id="_1" data-name="1" transform="translate(709 1516)" fill="#12263f" font-size="18" font-family="Roboto-Black, Roboto" font-weight="800"><tspan x="-5.212" y="0">1</tspan></text>
        <circle id="Elipse_11487" data-name="Elipse 11487" cx="24" cy="24" r="24" transform="translate(685 1486)" fill="#ffdfb9"/>
        <text id="_1-2" data-name="1" transform="translate(709 1516)" fill="#12263f" font-size="18" font-family="Roboto-Black, Roboto" font-weight="800"><tspan x="-5.212" y="0">1</tspan></text>
      </g>
    </g>
    <path id="Trazado_875168" data-name="Trazado 875168" d="M24,0A24,24,0,1,1,0,24,24,24,0,0,1,24,0Z" transform="translate(2445.965 -10178.739)" fill="#ffdfb9"/>
    <path id="Trazado_875169" data-name="Trazado 875169" d="M24,0A24,24,0,1,1,0,24,24,24,0,0,1,24,0Z" transform="translate(2445.965 -10096.739)" fill="#d2edec"/>
    <path id="Trazado_874944" data-name="Trazado 874944" d="M24,0A24,24,0,1,1,0,24,24,24,0,0,1,24,0Z" transform="translate(2445.965 -10014.739)" fill="#fef0d7"/>
    <path id="Trazado_875170" data-name="Trazado 875170" d="M2.136,0H-.835V-9.457L-3.753-8.6v-2.25L1.863-12.8h.272Z" transform="translate(2469.965 -10148.739)" fill="#12263f"/>
    <path id="Trazado_875171" data-name="Trazado 875171" d="M4.5,0H-4.43V-1.934L-.316-6.258A4.909,4.909,0,0,0,1.2-9.009a1.913,1.913,0,0,0-.36-1.257A1.287,1.287,0,0,0-.2-10.7a1.3,1.3,0,0,0-1.1.576,2.366,2.366,0,0,0-.422,1.437H-4.693A4.2,4.2,0,0,1-4.1-10.859a4.129,4.129,0,0,1,1.635-1.56,4.856,4.856,0,0,1,2.338-.562,4.777,4.777,0,0,1,3.195.958A3.42,3.42,0,0,1,4.184-9.272,4,4,0,0,1,3.9-7.8a6.456,6.456,0,0,1-.875,1.5,22.029,22.029,0,0,1-1.912,2.1L-.536-2.285H4.5Z" transform="translate(2469.965 -10066.739)" fill="#12263f"/>
    <path id="Trazado_875172" data-name="Trazado 875172" d="M-1.723-7.638h1.4A1.453,1.453,0,0,0,1.336-9.264,1.406,1.406,0,0,0,.94-10.3a1.5,1.5,0,0,0-1.116-.4,1.606,1.606,0,0,0-1.024.343,1.046,1.046,0,0,0-.435.853H-4.6a3.032,3.032,0,0,1,.563-1.8,3.715,3.715,0,0,1,1.56-1.235,5.334,5.334,0,0,1,2.193-.444,5.241,5.241,0,0,1,3.357.976A3.243,3.243,0,0,1,4.3-9.325a2.7,2.7,0,0,1-.505,1.56A3.6,3.6,0,0,1,2.32-6.574a3.441,3.441,0,0,1,1.6,1.121A2.951,2.951,0,0,1,4.5-3.595,3.3,3.3,0,0,1,3.182-.853,5.472,5.472,0,0,1-.281.176,5.675,5.675,0,0,1-2.615-.3,3.656,3.656,0,0,1-4.245-1.63,3.45,3.45,0,0,1-4.8-3.56h2.979a1.334,1.334,0,0,0,.475,1.02,1.676,1.676,0,0,0,1.169.431,1.755,1.755,0,0,0,1.248-.435,1.454,1.454,0,0,0,.466-1.112,1.7,1.7,0,0,0-.483-1.371,2.021,2.021,0,0,0-1.336-.4H-1.723Z" transform="translate(2469.965 -9984.739)" fill="#12263f"/>
  </g>
</svg>
