<svg xmlns="http://www.w3.org/2000/svg" xmlns:xlink="http://www.w3.org/1999/xlink" width="1030" height="413" viewBox="0 0 1030 413">
  <defs>
    <clipPath id="clip-path">
      <rect id="Rect치ngulo_378722" data-name="Rect치ngulo 378722" width="378.906" height="366.717" fill="#fee7bd"/>
    </clipPath>
    <clipPath id="clip-path-2">
      <rect id="Rect치ngulo_378727" data-name="Rect치ngulo 378727" width="85.626" height="81.523" fill="#3c5756"/>
    </clipPath>
  </defs>
  <g id="Grupo_1099446" data-name="Grupo 1099446" transform="translate(-285 -883)">
    <path id="Trazado_875144" data-name="Trazado 875144" d="M0,0H1030V413H0Z" transform="translate(285 883)" fill="#fff7e9"/>
    <g id="Grupo_1099439" data-name="Grupo 1099439" transform="translate(611 895.642)">
      <g id="Grupo_1099438" data-name="Grupo 1099438" clip-path="url(#clip-path)">
        <path id="Trazado_873599" data-name="Trazado 873599" d="M178.834,96.648v7.06a70.558,70.558,0,0,1,61.121,101.6l5.553,2.907a73.352,73.352,0,0,0,8.077-34.416,77.2,77.2,0,0,0-74.751-77.155" transform="translate(34.315 18.545)" fill="#8ad0ce"/>
        <path id="Trazado_873600" data-name="Trazado 873600" d="M343.944,176.806A168.045,168.045,0,0,0,180.28,20.775L203.058,64.6a8.506,8.506,0,0,1-.406,8.529L182.038,104.99A84.009,84.009,0,0,1,250.251,228.7l20.215,35.775a1.341,1.341,0,0,0,1.164.682l54,.155v.38c13.037-27.418,20.468-58.639,18.312-88.882" transform="translate(34.592 3.986)" fill="#8ad0ce"/>
        <path id="Trazado_873601" data-name="Trazado 873601" d="M148.219,222.175a77.2,77.2,0,0,0,104.234-26.226l-5.521-2.889a70.547,70.547,0,0,1-117.026,4.027l-5.207,3.418c-.122.081-.253.139-.378.211a73.378,73.378,0,0,0,23.9,21.459" transform="translate(23.855 37.044)" fill="#fee7bd"/>
        <path id="Trazado_873602" data-name="Trazado 873602" d="M294.648,237.821a8.511,8.511,0,0,1-7.369-4.317l-18.238-32.276a84,84,0,0,1-139.823-.733l-6.017.039-34.76.229a1.344,1.344,0,0,0-1.16.687L61.434,247.587l-.546.977-.482-.269-.1-.058-.1.2c17.316,25.6,37.929,43.464,65.724,56.973a168.035,168.035,0,0,0,219.153-67.443Z" transform="translate(11.552 38.471)" fill="#fee7bd"/>
        <path id="Trazado_873603" data-name="Trazado 873603" d="M128.379,209.58a70.54,70.54,0,0,1,56.134-105.751V96.7A73.338,73.338,0,0,0,150.59,106.92a77.2,77.2,0,0,0-27.8,106.261c.31-.091,5.318-3.424,5.589-3.6" transform="translate(21.484 18.556)" fill="#ffac47"/>
        <path id="Trazado_873604" data-name="Trazado 873604" d="M120.009,188.761A83.985,83.985,0,0,1,201.3,104.827l23.032-35.6a1.347,1.347,0,0,0,.064-1.348l-24.437-47.02-7.893.274c-30.824,2.2-56.606,11.117-82.2,28.434A168.028,168.028,0,0,0,60.874,276.723l24.815-44.3a8.509,8.509,0,0,1,7.353-4.343l36.613-.241a83.613,83.613,0,0,1-9.646-39.078" transform="translate(6.904 4.003)" fill="#ffac47"/>
        <path id="Trazado_873605" data-name="Trazado 873605" d="M60.247,240.782l.2-.139-.468-.263c.089.133.175.269.266.4" transform="translate(11.509 46.124)" fill="#7de314"/>
        <path id="Trazado_873606" data-name="Trazado 873606" d="M289.1,271.6a4.273,4.273,0,0,0-2.948-3.337A174.438,174.438,0,0,1,244.8,297.841a4.212,4.212,0,0,0,1.807,2.2l36.05,14.59a4.3,4.3,0,0,0,6.435-4.46Z" transform="translate(22.068 90.39) rotate(-14)" fill="#fee7bd"/>
        <path id="Trazado_873607" data-name="Trazado 873607" d="M265.5,42.337,258.15,4.148a4.3,4.3,0,0,0-7.239-2.979L218.527,22.122a4.291,4.291,0,0,0-.939,1.28,172.933,172.933,0,0,1,46.883,21.89,4.245,4.245,0,0,0,1.026-2.956" transform="matrix(0.875, 0.485, -0.485, 0.875, 154.67, -60.263)" fill="#8ad0ce"/>
        <path id="Trazado_873608" data-name="Trazado 873608" d="M36.388,139.153a4.3,4.3,0,0,0-1.5.336L2.621,160.615a4.3,4.3,0,0,0-.209,7.826l31.944,22.181a4.259,4.259,0,0,0,1.874.434,174.426,174.426,0,0,1,.159-51.9" transform="translate(0 26.701)" fill="#ffac47"/>
      </g>
    </g>
    <path id="Trazado_875145" data-name="Trazado 875145" d="M28,0H182a28,28,0,0,1,28,28V44a28,28,0,0,1-28,28H28A28,28,0,0,1,0,44V28A28,28,0,0,1,28,0Z" transform="translate(1020 913)" fill="#8ad0ce"/>
    <path id="Trazado_875146" data-name="Trazado 875146" d="M28,0H182a28,28,0,0,1,28,28V44a28,28,0,0,1-28,28H28A28,28,0,0,1,0,44V28A28,28,0,0,1,28,0Z" transform="translate(370 1054)" fill="#ffac47"/>
    <path id="Trazado_875147" data-name="Trazado 875147" d="M28,0H182a28,28,0,0,1,28,28V44a28,28,0,0,1-28,28H28A28,28,0,0,1,0,44V28A28,28,0,0,1,28,0Z" transform="translate(1020 1190)" fill="#fee7bd"/>
    <path id="Trazado_875148" data-name="Trazado 875148" d="M-40.54,0V-12.8h4.122a6.064,6.064,0,0,1,3.05.769,5.406,5.406,0,0,1,2.114,2.171,6.554,6.554,0,0,1,.769,3.142v.589a6.592,6.592,0,0,1-.743,3.151A5.429,5.429,0,0,1-33.319-.8a5.93,5.93,0,0,1-3.01.8Zm3.085-10.415v8.042h1.072a2.4,2.4,0,0,0,2.039-.945,4.63,4.63,0,0,0,.712-2.808V-6.68a4.592,4.592,0,0,0-.712-2.795,2.442,2.442,0,0,0-2.074-.94Zm14.08,9.387a3.054,3.054,0,0,1-2.54,1.2,3,3,0,0,1-2.369-.91,3.826,3.826,0,0,1-.8-2.615V-9.51h2.962v6.179a1.065,1.065,0,0,0,1.187,1.222,1.548,1.548,0,0,0,1.45-.729V-9.51h2.979V0h-2.777Zm10.239-5.8-.976-.07a1.752,1.752,0,0,0-1.793.879V0h-2.962V-9.51h2.777l.1,1.222a2.294,2.294,0,0,1,2.083-1.4,2.888,2.888,0,0,1,.826.105ZM-6.974,0a3.344,3.344,0,0,1-.281-.853A2.754,2.754,0,0,1-9.541.176a3.374,3.374,0,0,1-2.285-.813,2.588,2.588,0,0,1-.94-2.043,2.66,2.66,0,0,1,1.143-2.338A5.821,5.821,0,0,1-8.3-5.81h.914v-.5q0-1.316-1.134-1.316A.927.927,0,0,0-9.576-6.587h-2.962a2.655,2.655,0,0,1,1.173-2.239,4.931,4.931,0,0,1,2.993-.86A4.323,4.323,0,0,1-5.5-8.8,3.086,3.086,0,0,1-4.417-6.363v4.21a4.311,4.311,0,0,0,.4,2V0ZM-8.829-1.934a1.652,1.652,0,0,0,.918-.237,1.487,1.487,0,0,0,.523-.536V-4.228h-.861Q-9.8-4.228-9.8-2.839a.848.848,0,0,0,.272.655A.986.986,0,0,0-8.829-1.934ZM-.057-9.51l.1,1.116A3.225,3.225,0,0,1,2.755-9.686,2.713,2.713,0,0,1,4.975-8.8a4.226,4.226,0,0,1,.76,2.672V0H2.764V-6a1.6,1.6,0,0,0-.29-1.059A1.342,1.342,0,0,0,1.419-7.4a1.413,1.413,0,0,0-1.292.686V0H-2.834V-9.51Zm10.881-2.364V-9.51h1.564v2.057H10.824V-3.1a1.111,1.111,0,0,0,.193.747,1.037,1.037,0,0,0,.765.211A4.345,4.345,0,0,0,12.52-2.2V-.079a5.466,5.466,0,0,1-1.67.255A3.1,3.1,0,0,1,8.591-.545a2.954,2.954,0,0,1-.729-2.188v-4.72H6.649V-9.51H7.862v-2.364ZM18.154.176a4.889,4.889,0,0,1-3.542-1.305,4.507,4.507,0,0,1-1.354-3.4v-.246A5.84,5.84,0,0,1,13.8-7.348a3.955,3.955,0,0,1,1.578-1.727,4.763,4.763,0,0,1,2.461-.611A4.117,4.117,0,0,1,21-8.442a4.887,4.887,0,0,1,1.16,3.467v1.151H16.273a2.135,2.135,0,0,0,.694,1.257,2.066,2.066,0,0,0,1.389.457,2.662,2.662,0,0,0,2.2-.984l1.354,1.6A3.784,3.784,0,0,1,20.338-.277,5.3,5.3,0,0,1,18.154.176ZM17.82-7.4q-1.3,0-1.547,1.723h2.988v-.229a1.467,1.467,0,0,0-.36-1.1A1.434,1.434,0,0,0,17.82-7.4ZM30.959,0H27.989V-13.5h2.971ZM38.14,0a3.344,3.344,0,0,1-.281-.853A2.754,2.754,0,0,1,35.574.176a3.374,3.374,0,0,1-2.285-.813,2.588,2.588,0,0,1-.94-2.043,2.66,2.66,0,0,1,1.143-2.338,5.821,5.821,0,0,1,3.322-.791h.914v-.5q0-1.316-1.134-1.316a.927.927,0,0,0-1.055,1.042H32.577A2.655,2.655,0,0,1,33.75-8.825a4.931,4.931,0,0,1,2.993-.86,4.323,4.323,0,0,1,2.874.888A3.086,3.086,0,0,1,40.7-6.363v4.21a4.311,4.311,0,0,0,.4,2V0ZM36.286-1.934a1.652,1.652,0,0,0,.918-.237,1.487,1.487,0,0,0,.523-.536V-4.228h-.861q-1.547,0-1.547,1.389a.848.848,0,0,0,.272.655A.986.986,0,0,0,36.286-1.934ZM-45.861,14.49l.1,1.116a3.225,3.225,0,0,1,2.716-1.292,2.713,2.713,0,0,1,2.219.888,4.226,4.226,0,0,1,.76,2.672V24H-43.04V18a1.6,1.6,0,0,0-.29-1.059,1.342,1.342,0,0,0-1.055-.338,1.413,1.413,0,0,0-1.292.686V24h-2.962V14.49Zm12.032,9.686a4.889,4.889,0,0,1-3.542-1.305,4.507,4.507,0,0,1-1.354-3.4v-.246a5.84,5.84,0,0,1,.541-2.575,3.955,3.955,0,0,1,1.578-1.727,4.763,4.763,0,0,1,2.461-.611,4.117,4.117,0,0,1,3.164,1.244,4.887,4.887,0,0,1,1.16,3.467v1.151H-35.71a2.135,2.135,0,0,0,.694,1.257,2.066,2.066,0,0,0,1.389.457,2.662,2.662,0,0,0,2.2-.984l1.354,1.6a3.784,3.784,0,0,1-1.569,1.217A5.3,5.3,0,0,1-33.829,24.176Zm-.334-7.576q-1.3,0-1.547,1.723h2.988v-.229a1.467,1.467,0,0,0-.36-1.1A1.434,1.434,0,0,0-34.163,16.6Zm5.186,2.575a6.421,6.421,0,0,1,.475-2.549,3.821,3.821,0,0,1,1.362-1.709,3.591,3.591,0,0,1,2.065-.6,2.855,2.855,0,0,1,2.32,1l.105-.826h2.689V23.64a4.009,4.009,0,0,1-.584,2.184,3.75,3.75,0,0,1-1.692,1.424,6.219,6.219,0,0,1-2.566.5,5.365,5.365,0,0,1-2.026-.4,3.657,3.657,0,0,1-1.5-1.028l1.239-1.74a2.716,2.716,0,0,0,2.18.976,1.764,1.764,0,0,0,1.969-2.021v-.3a2.781,2.781,0,0,1-2.153.94,3.437,3.437,0,0,1-2.812-1.332,5.517,5.517,0,0,1-1.072-3.564Zm2.971.185a3.383,3.383,0,0,0,.439,1.85,1.387,1.387,0,0,0,1.23.681,1.573,1.573,0,0,0,1.4-.642v-4a1.534,1.534,0,0,0-1.38-.65,1.4,1.4,0,0,0-1.239.708A3.858,3.858,0,0,0-26.007,19.359Zm7.356-.2a5.613,5.613,0,0,1,.554-2.536,3.96,3.96,0,0,1,1.591-1.709,4.791,4.791,0,0,1,2.435-.6,4.373,4.373,0,0,1,3.366,1.323,5.076,5.076,0,0,1,1.23,3.6v.105a4.925,4.925,0,0,1-1.235,3.529,4.384,4.384,0,0,1-3.344,1.305,4.434,4.434,0,0,1-3.261-1.217,4.761,4.761,0,0,1-1.327-3.3Zm2.962.185a3.538,3.538,0,0,0,.413,1.934,1.376,1.376,0,0,0,1.222.615q1.582,0,1.617-2.435v-.3q0-2.558-1.635-2.558-1.485,0-1.608,2.206Zm11.54,2.549a1.317,1.317,0,0,0,.967-.338,1.241,1.241,0,0,0,.334-.945H-.07a3.288,3.288,0,0,1-1.121,2.566,4.168,4.168,0,0,1-2.887,1,4.22,4.22,0,0,1-3.27-1.3,5.125,5.125,0,0,1-1.2-3.6v-.123A5.792,5.792,0,0,1-8.011,16.6a3.872,3.872,0,0,1,1.534-1.7A4.573,4.573,0,0,1-4.1,14.314,4.116,4.116,0,0,1-1.16,15.343,3.647,3.647,0,0,1-.07,18.129H-2.848A1.626,1.626,0,0,0-3.208,17a1.244,1.244,0,0,0-.967-.4q-1.151,0-1.345,1.468a10.357,10.357,0,0,0-.062,1.283,4.068,4.068,0,0,0,.343,1.986A1.187,1.187,0,0,0-4.148,21.891ZM4.307,24H1.336V14.49H4.307ZM1.16,12.038A1.322,1.322,0,0,1,1.617,11,1.724,1.724,0,0,1,2.8,10.6,1.724,1.724,0,0,1,3.99,11a1.405,1.405,0,0,1,0,2.074,1.724,1.724,0,0,1-1.187.4,1.724,1.724,0,0,1-1.187-.4A1.322,1.322,0,0,1,1.16,12.038ZM11.487,24a3.344,3.344,0,0,1-.281-.853,2.754,2.754,0,0,1-2.285,1.028,3.374,3.374,0,0,1-2.285-.813,2.588,2.588,0,0,1-.94-2.043,2.66,2.66,0,0,1,1.143-2.338,5.821,5.821,0,0,1,3.322-.791h.914v-.5q0-1.316-1.134-1.316a.927.927,0,0,0-1.055,1.042H5.924A2.655,2.655,0,0,1,7.1,15.175a4.931,4.931,0,0,1,2.993-.86,4.323,4.323,0,0,1,2.874.888,3.086,3.086,0,0,1,1.081,2.435v4.21a4.311,4.311,0,0,0,.4,2V24ZM9.633,22.066a1.652,1.652,0,0,0,.918-.237,1.487,1.487,0,0,0,.523-.536V19.772h-.861q-1.547,0-1.547,1.389a.848.848,0,0,0,.272.655A.986.986,0,0,0,9.633,22.066Zm10.072-.176a1.317,1.317,0,0,0,.967-.338,1.241,1.241,0,0,0,.334-.945h2.777a3.288,3.288,0,0,1-1.121,2.566,4.168,4.168,0,0,1-2.887,1,4.22,4.22,0,0,1-3.27-1.3,5.125,5.125,0,0,1-1.2-3.6v-.123a5.792,5.792,0,0,1,.532-2.544,3.872,3.872,0,0,1,1.534-1.7,4.573,4.573,0,0,1,2.373-.593,4.116,4.116,0,0,1,2.944,1.028,3.647,3.647,0,0,1,1.09,2.786H21.006A1.626,1.626,0,0,0,20.646,17a1.244,1.244,0,0,0-.967-.4q-1.151,0-1.345,1.468a10.357,10.357,0,0,0-.062,1.283,4.068,4.068,0,0,0,.343,1.986A1.187,1.187,0,0,0,19.705,21.891ZM28.16,24H25.189V14.49H28.16ZM25.014,12.038A1.322,1.322,0,0,1,25.471,11a1.943,1.943,0,0,1,2.373,0,1.405,1.405,0,0,1,0,2.074,1.943,1.943,0,0,1-2.373,0A1.322,1.322,0,0,1,25.014,12.038Zm4.6,7.119a5.613,5.613,0,0,1,.554-2.536,3.96,3.96,0,0,1,1.591-1.709,4.791,4.791,0,0,1,2.435-.6,4.373,4.373,0,0,1,3.366,1.323,5.076,5.076,0,0,1,1.23,3.6v.105a4.925,4.925,0,0,1-1.235,3.529,4.384,4.384,0,0,1-3.344,1.305,4.434,4.434,0,0,1-3.261-1.217,4.761,4.761,0,0,1-1.327-3.3Zm2.962.185a3.538,3.538,0,0,0,.413,1.934,1.376,1.376,0,0,0,1.222.615q1.582,0,1.617-2.435v-.3q0-2.558-1.635-2.558-1.485,0-1.608,2.206ZM34.594,10.5h3.129l-2.443,2.76-2.417,0Zm8.218,3.99.1,1.116a3.225,3.225,0,0,1,2.716-1.292,2.713,2.713,0,0,1,2.219.888,4.226,4.226,0,0,1,.76,2.672V24H45.633V18a1.6,1.6,0,0,0-.29-1.059,1.342,1.342,0,0,0-1.055-.338A1.413,1.413,0,0,0,43,17.285V24H40.034V14.49Z" transform="translate(1125 943)" fill="#12263f"/>
    <path id="Trazado_875149" data-name="Trazado 875149" d="M-27.562-2.391H-31.79L-32.528,0h-3.3l4.693-12.8h2.9L-23.5,0h-3.313Zm-3.489-2.382H-28.3l-1.38-4.438ZM-20.408-9.51l.1,1.116A3.225,3.225,0,0,1-17.6-9.686a2.713,2.713,0,0,1,2.219.888,4.226,4.226,0,0,1,.76,2.672V0h-2.971V-6a1.6,1.6,0,0,0-.29-1.059A1.342,1.342,0,0,0-18.932-7.4a1.413,1.413,0,0,0-1.292.686V0h-2.962V-9.51Zm10.881-2.364V-9.51h1.564v2.057H-9.527V-3.1a1.111,1.111,0,0,0,.193.747,1.037,1.037,0,0,0,.765.211A4.345,4.345,0,0,0-7.831-2.2V-.079A5.466,5.466,0,0,1-9.5.176,3.1,3.1,0,0,1-11.76-.545a2.954,2.954,0,0,1-.729-2.188v-4.72H-13.7V-9.51h1.213v-2.364ZM-2.2.176A4.889,4.889,0,0,1-5.739-1.129a4.507,4.507,0,0,1-1.354-3.4v-.246a5.84,5.84,0,0,1,.541-2.575A3.955,3.955,0,0,1-4.975-9.075a4.763,4.763,0,0,1,2.461-.611A4.117,4.117,0,0,1,.65-8.442a4.887,4.887,0,0,1,1.16,3.467v1.151H-4.078a2.135,2.135,0,0,0,.694,1.257A2.066,2.066,0,0,0-2-2.109,2.662,2.662,0,0,0,.2-3.094l1.354,1.6A3.784,3.784,0,0,1-.013-.277,5.3,5.3,0,0,1-2.2.176ZM-2.531-7.4q-1.3,0-1.547,1.723H-1.09v-.229a1.467,1.467,0,0,0-.36-1.1A1.434,1.434,0,0,0-2.531-7.4ZM7.98-2.672a.684.684,0,0,0-.4-.606,6.016,6.016,0,0,0-1.5-.475A6.853,6.853,0,0,1,4.254-4.4a3.062,3.062,0,0,1-1.1-.971,2.319,2.319,0,0,1-.378-1.31A2.628,2.628,0,0,1,3.858-8.837a4.453,4.453,0,0,1,2.83-.848,4.934,4.934,0,0,1,3.023.853,2.666,2.666,0,0,1,1.143,2.241H7.884q0-1.143-1.2-1.143a1.194,1.194,0,0,0-.782.259.8.8,0,0,0-.316.646.737.737,0,0,0,.387.642,3.654,3.654,0,0,0,1.235.4,10.671,10.671,0,0,1,1.49.378A2.706,2.706,0,0,1,10.837-2.76,2.491,2.491,0,0,1,9.681-.642,5.068,5.068,0,0,1,6.688.176a5.172,5.172,0,0,1-2.18-.439,3.645,3.645,0,0,1-1.494-1.2A2.707,2.707,0,0,1,2.479-3.05H5.247a1.145,1.145,0,0,0,.439.962,1.808,1.808,0,0,0,1.081.3,1.422,1.422,0,0,0,.91-.246A.787.787,0,0,0,7.98-2.672Zm8.35-2.153a5.809,5.809,0,0,1,.976-3.56,3.211,3.211,0,0,1,2.725-1.3,2.731,2.731,0,0,1,2.145,1V-13.5h2.971V0H22.482l-.149-1.02a2.8,2.8,0,0,1-2.32,1.2,3.205,3.205,0,0,1-2.689-1.3A5.993,5.993,0,0,1,16.33-4.825Zm2.962.185q0,2.531,1.477,2.531a1.458,1.458,0,0,0,1.406-.826V-6.557A1.419,1.419,0,0,0,20.786-7.4q-1.371,0-1.485,2.215ZM31.43.176a4.889,4.889,0,0,1-3.542-1.305,4.507,4.507,0,0,1-1.354-3.4v-.246a5.84,5.84,0,0,1,.541-2.575,3.955,3.955,0,0,1,1.578-1.727,4.763,4.763,0,0,1,2.461-.611,4.117,4.117,0,0,1,3.164,1.244,4.887,4.887,0,0,1,1.16,3.467v1.151H29.549a2.135,2.135,0,0,0,.694,1.257,2.066,2.066,0,0,0,1.389.457,2.662,2.662,0,0,0,2.2-.984l1.354,1.6A3.784,3.784,0,0,1,33.614-.277,5.3,5.3,0,0,1,31.43.176ZM31.1-7.4q-1.3,0-1.547,1.723h2.988v-.229a1.467,1.467,0,0,0-.36-1.1A1.434,1.434,0,0,0,31.1-7.4ZM-54.949,24H-57.92V10.5h2.971Zm7.181,0a3.344,3.344,0,0,1-.281-.853,2.754,2.754,0,0,1-2.285,1.028,3.374,3.374,0,0,1-2.285-.813,2.588,2.588,0,0,1-.94-2.043,2.66,2.66,0,0,1,1.143-2.338A5.821,5.821,0,0,1-49.1,18.19h.914v-.5q0-1.316-1.134-1.316a.927.927,0,0,0-1.055,1.042h-2.962a2.655,2.655,0,0,1,1.173-2.239,4.931,4.931,0,0,1,2.993-.86,4.323,4.323,0,0,1,2.874.888,3.086,3.086,0,0,1,1.081,2.435v4.21a4.311,4.311,0,0,0,.4,2V24Zm-1.854-1.934a1.652,1.652,0,0,0,.918-.237,1.487,1.487,0,0,0,.523-.536V19.772h-.861q-1.547,0-1.547,1.389a.848.848,0,0,0,.272.655A.986.986,0,0,0-49.623,22.066Zm13.254-7.576.1,1.116a3.225,3.225,0,0,1,2.716-1.292,2.713,2.713,0,0,1,2.219.888,4.226,4.226,0,0,1,.76,2.672V24h-2.971V18a1.6,1.6,0,0,0-.29-1.059,1.342,1.342,0,0,0-1.055-.338,1.413,1.413,0,0,0-1.292.686V24h-2.962V14.49Zm12.032,9.686a4.889,4.889,0,0,1-3.542-1.305,4.507,4.507,0,0,1-1.354-3.4v-.246a5.84,5.84,0,0,1,.541-2.575,3.955,3.955,0,0,1,1.578-1.727,4.763,4.763,0,0,1,2.461-.611,4.117,4.117,0,0,1,3.164,1.244,4.887,4.887,0,0,1,1.16,3.467v1.151h-5.889a2.135,2.135,0,0,0,.694,1.257,2.066,2.066,0,0,0,1.389.457,2.662,2.662,0,0,0,2.2-.984l1.354,1.6a3.784,3.784,0,0,1-1.569,1.217A5.3,5.3,0,0,1-24.337,24.176Zm-.334-7.576q-1.3,0-1.547,1.723h2.988v-.229a1.467,1.467,0,0,0-.36-1.1A1.434,1.434,0,0,0-24.671,16.6Zm5.186,2.575a6.421,6.421,0,0,1,.475-2.549,3.821,3.821,0,0,1,1.362-1.709,3.591,3.591,0,0,1,2.065-.6,2.855,2.855,0,0,1,2.32,1l.105-.826h2.689V23.64a4.009,4.009,0,0,1-.584,2.184,3.75,3.75,0,0,1-1.692,1.424,6.219,6.219,0,0,1-2.566.5,5.365,5.365,0,0,1-2.026-.4,3.657,3.657,0,0,1-1.5-1.028l1.239-1.74a2.716,2.716,0,0,0,2.18.976,1.764,1.764,0,0,0,1.969-2.021v-.3a2.781,2.781,0,0,1-2.153.94,3.437,3.437,0,0,1-2.812-1.332,5.517,5.517,0,0,1-1.072-3.564Zm2.971.185a3.383,3.383,0,0,0,.439,1.85,1.387,1.387,0,0,0,1.23.681,1.573,1.573,0,0,0,1.4-.642v-4a1.534,1.534,0,0,0-1.38-.65,1.4,1.4,0,0,0-1.239.708A3.858,3.858,0,0,0-16.515,19.359Zm7.356-.2A5.613,5.613,0,0,1-8.6,16.622a3.96,3.96,0,0,1,1.591-1.709,4.791,4.791,0,0,1,2.435-.6,4.373,4.373,0,0,1,3.366,1.323,5.076,5.076,0,0,1,1.23,3.6v.105a4.925,4.925,0,0,1-1.235,3.529,4.384,4.384,0,0,1-3.344,1.305,4.434,4.434,0,0,1-3.261-1.217,4.761,4.761,0,0,1-1.327-3.3Zm2.962.185a3.538,3.538,0,0,0,.413,1.934,1.376,1.376,0,0,0,1.222.615q1.582,0,1.617-2.435v-.3q0-2.558-1.635-2.558-1.485,0-1.608,2.206Zm11.54,2.549a1.317,1.317,0,0,0,.967-.338,1.241,1.241,0,0,0,.334-.945H9.422A3.288,3.288,0,0,1,8.3,23.174a4.168,4.168,0,0,1-2.887,1,4.22,4.22,0,0,1-3.27-1.3,5.125,5.125,0,0,1-1.2-3.6v-.123A5.792,5.792,0,0,1,1.481,16.6a3.872,3.872,0,0,1,1.534-1.7,4.573,4.573,0,0,1,2.373-.593,4.116,4.116,0,0,1,2.944,1.028,3.647,3.647,0,0,1,1.09,2.786H6.645A1.626,1.626,0,0,0,6.284,17a1.244,1.244,0,0,0-.967-.4q-1.151,0-1.345,1.468a10.357,10.357,0,0,0-.062,1.283,4.068,4.068,0,0,0,.343,1.986A1.187,1.187,0,0,0,5.344,21.891ZM13.8,24H10.828V14.49H13.8ZM10.652,12.038A1.322,1.322,0,0,1,11.109,11a1.724,1.724,0,0,1,1.187-.4,1.724,1.724,0,0,1,1.187.4,1.405,1.405,0,0,1,0,2.074,1.724,1.724,0,0,1-1.187.4,1.724,1.724,0,0,1-1.187-.4A1.322,1.322,0,0,1,10.652,12.038ZM20.979,24a3.344,3.344,0,0,1-.281-.853,2.754,2.754,0,0,1-2.285,1.028,3.374,3.374,0,0,1-2.285-.813,2.588,2.588,0,0,1-.94-2.043,2.66,2.66,0,0,1,1.143-2.338,5.821,5.821,0,0,1,3.322-.791h.914v-.5q0-1.316-1.134-1.316a.927.927,0,0,0-1.055,1.042H15.416a2.655,2.655,0,0,1,1.173-2.239,4.931,4.931,0,0,1,2.993-.86,4.323,4.323,0,0,1,2.874.888,3.086,3.086,0,0,1,1.081,2.435v4.21a4.311,4.311,0,0,0,.4,2V24Zm-1.854-1.934a1.652,1.652,0,0,0,.918-.237,1.487,1.487,0,0,0,.523-.536V19.772h-.861q-1.547,0-1.547,1.389a.848.848,0,0,0,.272.655A.986.986,0,0,0,19.125,22.066ZM29.2,21.891a1.317,1.317,0,0,0,.967-.338,1.241,1.241,0,0,0,.334-.945h2.777a3.288,3.288,0,0,1-1.121,2.566,4.168,4.168,0,0,1-2.887,1,4.22,4.22,0,0,1-3.27-1.3,5.125,5.125,0,0,1-1.2-3.6v-.123a5.792,5.792,0,0,1,.532-2.544,3.872,3.872,0,0,1,1.534-1.7,4.573,4.573,0,0,1,2.373-.593,4.116,4.116,0,0,1,2.944,1.028,3.647,3.647,0,0,1,1.09,2.786H30.5A1.626,1.626,0,0,0,30.138,17a1.244,1.244,0,0,0-.967-.4q-1.151,0-1.345,1.468a10.357,10.357,0,0,0-.062,1.283,4.068,4.068,0,0,0,.343,1.986A1.187,1.187,0,0,0,29.2,21.891ZM37.652,24H34.682V14.49h2.971ZM34.506,12.038A1.322,1.322,0,0,1,34.963,11a1.943,1.943,0,0,1,2.373,0,1.405,1.405,0,0,1,0,2.074,1.943,1.943,0,0,1-2.373,0A1.322,1.322,0,0,1,34.506,12.038Zm4.6,7.119a5.613,5.613,0,0,1,.554-2.536,3.96,3.96,0,0,1,1.591-1.709,4.791,4.791,0,0,1,2.435-.6,4.373,4.373,0,0,1,3.366,1.323,5.076,5.076,0,0,1,1.23,3.6v.105a4.925,4.925,0,0,1-1.235,3.529A4.384,4.384,0,0,1,43.7,24.176a4.434,4.434,0,0,1-3.261-1.217,4.761,4.761,0,0,1-1.327-3.3Zm2.962.185a3.538,3.538,0,0,0,.413,1.934,1.376,1.376,0,0,0,1.222.615q1.582,0,1.617-2.435v-.3q0-2.558-1.635-2.558-1.485,0-1.608,2.206ZM44.086,10.5h3.129l-2.443,2.76-2.417,0ZM52.3,14.49l.1,1.116a3.225,3.225,0,0,1,2.716-1.292,2.713,2.713,0,0,1,2.219.888,4.226,4.226,0,0,1,.76,2.672V24H55.125V18a1.6,1.6,0,0,0-.29-1.059A1.342,1.342,0,0,0,53.78,16.6a1.413,1.413,0,0,0-1.292.686V24H49.526V14.49Z" transform="translate(475 1084)" fill="#12263f"/>
    <path id="Trazado_875150" data-name="Trazado 875150" d="M-46.217,0V-12.8H-42.1a6.064,6.064,0,0,1,3.05.769,5.406,5.406,0,0,1,2.114,2.171,6.554,6.554,0,0,1,.769,3.142v.589a6.592,6.592,0,0,1-.743,3.151A5.429,5.429,0,0,1-39-.8a5.93,5.93,0,0,1-3.01.8Zm3.085-10.415v8.042h1.072a2.4,2.4,0,0,0,2.039-.945,4.63,4.63,0,0,0,.712-2.808V-6.68a4.592,4.592,0,0,0-.712-2.795,2.442,2.442,0,0,0-2.074-.94ZM-30.116.176a4.889,4.889,0,0,1-3.542-1.305,4.507,4.507,0,0,1-1.354-3.4v-.246a5.84,5.84,0,0,1,.541-2.575,3.955,3.955,0,0,1,1.578-1.727,4.763,4.763,0,0,1,2.461-.611,4.117,4.117,0,0,1,3.164,1.244,4.887,4.887,0,0,1,1.16,3.467v1.151H-32A2.135,2.135,0,0,0-31.3-2.566a2.066,2.066,0,0,0,1.389.457,2.662,2.662,0,0,0,2.2-.984l1.354,1.6A3.784,3.784,0,0,1-27.932-.277,5.3,5.3,0,0,1-30.116.176ZM-30.45-7.4q-1.3,0-1.547,1.723h2.988v-.229a1.467,1.467,0,0,0-.36-1.1A1.434,1.434,0,0,0-30.45-7.4Zm10.512,4.729a.684.684,0,0,0-.4-.606,6.016,6.016,0,0,0-1.5-.475A6.853,6.853,0,0,1-23.665-4.4a3.062,3.062,0,0,1-1.1-.971,2.319,2.319,0,0,1-.378-1.31A2.628,2.628,0,0,1-24.06-8.837a4.453,4.453,0,0,1,2.83-.848,4.934,4.934,0,0,1,3.023.853,2.666,2.666,0,0,1,1.143,2.241h-2.971q0-1.143-1.2-1.143a1.194,1.194,0,0,0-.782.259.8.8,0,0,0-.316.646.737.737,0,0,0,.387.642,3.654,3.654,0,0,0,1.235.4,10.671,10.671,0,0,1,1.49.378A2.706,2.706,0,0,1-17.082-2.76,2.491,2.491,0,0,1-18.237-.642,5.068,5.068,0,0,1-21.23.176a5.172,5.172,0,0,1-2.18-.439,3.645,3.645,0,0,1-1.494-1.2A2.707,2.707,0,0,1-25.44-3.05h2.769a1.145,1.145,0,0,0,.439.962,1.808,1.808,0,0,0,1.081.3,1.422,1.422,0,0,0,.91-.246A.787.787,0,0,0-19.938-2.672ZM-6.869-4.685a5.735,5.735,0,0,1-1,3.538A3.2,3.2,0,0,1-10.56.176a2.742,2.742,0,0,1-2.153-.958V3.656h-2.962V-9.51h2.769l.088.879a2.742,2.742,0,0,1,2.241-1.055,3.224,3.224,0,0,1,2.733,1.3,5.805,5.805,0,0,1,.976,3.564Zm-2.962-.185q0-2.531-1.477-2.531a1.394,1.394,0,0,0-1.406.756V-2.9a1.439,1.439,0,0,0,1.424.791q1.415,0,1.459-2.443ZM.1-1.028a3.054,3.054,0,0,1-2.54,1.2,3,3,0,0,1-2.369-.91,3.826,3.826,0,0,1-.8-2.615V-9.51H-2.65v6.179A1.065,1.065,0,0,0-1.463-2.109a1.548,1.548,0,0,0,1.45-.729V-9.51H2.966V0H.189ZM9.189.176A4.889,4.889,0,0,1,5.647-1.129a4.507,4.507,0,0,1-1.354-3.4v-.246a5.84,5.84,0,0,1,.541-2.575A3.955,3.955,0,0,1,6.412-9.075a4.763,4.763,0,0,1,2.461-.611,4.117,4.117,0,0,1,3.164,1.244A4.887,4.887,0,0,1,13.2-4.975v1.151H7.308A2.135,2.135,0,0,0,8-2.566a2.066,2.066,0,0,0,1.389.457,2.662,2.662,0,0,0,2.2-.984l1.354,1.6A3.784,3.784,0,0,1,11.373-.277,5.3,5.3,0,0,1,9.189.176ZM8.855-7.4q-1.3,0-1.547,1.723H10.3v-.229a1.467,1.467,0,0,0-.36-1.1A1.434,1.434,0,0,0,8.855-7.4ZM8.82-13.509h3.129l-2.443,2.76-2.417,0ZM19.367-2.672a.684.684,0,0,0-.4-.606,6.016,6.016,0,0,0-1.5-.475A6.853,6.853,0,0,1,15.64-4.4a3.062,3.062,0,0,1-1.1-.971,2.319,2.319,0,0,1-.378-1.31,2.628,2.628,0,0,1,1.081-2.158,4.453,4.453,0,0,1,2.83-.848,4.934,4.934,0,0,1,3.023.853,2.666,2.666,0,0,1,1.143,2.241H19.27q0-1.143-1.2-1.143a1.194,1.194,0,0,0-.782.259.8.8,0,0,0-.316.646.737.737,0,0,0,.387.642,3.654,3.654,0,0,0,1.235.4,10.671,10.671,0,0,1,1.49.378A2.706,2.706,0,0,1,22.223-2.76,2.491,2.491,0,0,1,21.067-.642a5.068,5.068,0,0,1-2.993.817A5.172,5.172,0,0,1,15.9-.264a3.645,3.645,0,0,1-1.494-1.2,2.707,2.707,0,0,1-.536-1.591h2.769a1.145,1.145,0,0,0,.439.962,1.808,1.808,0,0,0,1.081.3,1.422,1.422,0,0,0,.91-.246A.787.787,0,0,0,19.367-2.672Zm8.35-2.153a5.809,5.809,0,0,1,.976-3.56,3.211,3.211,0,0,1,2.725-1.3,2.731,2.731,0,0,1,2.145,1V-13.5h2.971V0H33.869l-.149-1.02A2.8,2.8,0,0,1,31.4.176a3.205,3.205,0,0,1-2.689-1.3A5.993,5.993,0,0,1,27.716-4.825Zm2.962.185q0,2.531,1.477,2.531a1.458,1.458,0,0,0,1.406-.826V-6.557A1.419,1.419,0,0,0,32.172-7.4q-1.371,0-1.485,2.215ZM42.816.176a4.889,4.889,0,0,1-3.542-1.305,4.507,4.507,0,0,1-1.354-3.4v-.246a5.84,5.84,0,0,1,.541-2.575,3.955,3.955,0,0,1,1.578-1.727A4.763,4.763,0,0,1,42.5-9.686a4.117,4.117,0,0,1,3.164,1.244,4.887,4.887,0,0,1,1.16,3.467v1.151H40.935a2.135,2.135,0,0,0,.694,1.257,2.066,2.066,0,0,0,1.389.457,2.662,2.662,0,0,0,2.2-.984l1.354,1.6A3.784,3.784,0,0,1,45-.277,5.3,5.3,0,0,1,42.816.176ZM42.482-7.4q-1.3,0-1.547,1.723h2.988v-.229a1.467,1.467,0,0,0-.36-1.1A1.434,1.434,0,0,0,42.482-7.4ZM-54.949,24H-57.92V10.5h2.971Zm7.181,0a3.344,3.344,0,0,1-.281-.853,2.754,2.754,0,0,1-2.285,1.028,3.374,3.374,0,0,1-2.285-.813,2.588,2.588,0,0,1-.94-2.043,2.66,2.66,0,0,1,1.143-2.338A5.821,5.821,0,0,1-49.1,18.19h.914v-.5q0-1.316-1.134-1.316a.927.927,0,0,0-1.055,1.042h-2.962a2.655,2.655,0,0,1,1.173-2.239,4.931,4.931,0,0,1,2.993-.86,4.323,4.323,0,0,1,2.874.888,3.086,3.086,0,0,1,1.081,2.435v4.21a4.311,4.311,0,0,0,.4,2V24Zm-1.854-1.934a1.652,1.652,0,0,0,.918-.237,1.487,1.487,0,0,0,.523-.536V19.772h-.861q-1.547,0-1.547,1.389a.848.848,0,0,0,.272.655A.986.986,0,0,0-49.623,22.066Zm13.254-7.576.1,1.116a3.225,3.225,0,0,1,2.716-1.292,2.713,2.713,0,0,1,2.219.888,4.226,4.226,0,0,1,.76,2.672V24h-2.971V18a1.6,1.6,0,0,0-.29-1.059,1.342,1.342,0,0,0-1.055-.338,1.413,1.413,0,0,0-1.292.686V24h-2.962V14.49Zm12.032,9.686a4.889,4.889,0,0,1-3.542-1.305,4.507,4.507,0,0,1-1.354-3.4v-.246a5.84,5.84,0,0,1,.541-2.575,3.955,3.955,0,0,1,1.578-1.727,4.763,4.763,0,0,1,2.461-.611,4.117,4.117,0,0,1,3.164,1.244,4.887,4.887,0,0,1,1.16,3.467v1.151h-5.889a2.135,2.135,0,0,0,.694,1.257,2.066,2.066,0,0,0,1.389.457,2.662,2.662,0,0,0,2.2-.984l1.354,1.6a3.784,3.784,0,0,1-1.569,1.217A5.3,5.3,0,0,1-24.337,24.176Zm-.334-7.576q-1.3,0-1.547,1.723h2.988v-.229a1.467,1.467,0,0,0-.36-1.1A1.434,1.434,0,0,0-24.671,16.6Zm5.186,2.575a6.421,6.421,0,0,1,.475-2.549,3.821,3.821,0,0,1,1.362-1.709,3.591,3.591,0,0,1,2.065-.6,2.855,2.855,0,0,1,2.32,1l.105-.826h2.689V23.64a4.009,4.009,0,0,1-.584,2.184,3.75,3.75,0,0,1-1.692,1.424,6.219,6.219,0,0,1-2.566.5,5.365,5.365,0,0,1-2.026-.4,3.657,3.657,0,0,1-1.5-1.028l1.239-1.74a2.716,2.716,0,0,0,2.18.976,1.764,1.764,0,0,0,1.969-2.021v-.3a2.781,2.781,0,0,1-2.153.94,3.437,3.437,0,0,1-2.812-1.332,5.517,5.517,0,0,1-1.072-3.564Zm2.971.185a3.383,3.383,0,0,0,.439,1.85,1.387,1.387,0,0,0,1.23.681,1.573,1.573,0,0,0,1.4-.642v-4a1.534,1.534,0,0,0-1.38-.65,1.4,1.4,0,0,0-1.239.708A3.858,3.858,0,0,0-16.515,19.359Zm7.356-.2A5.613,5.613,0,0,1-8.6,16.622a3.96,3.96,0,0,1,1.591-1.709,4.791,4.791,0,0,1,2.435-.6,4.373,4.373,0,0,1,3.366,1.323,5.076,5.076,0,0,1,1.23,3.6v.105a4.925,4.925,0,0,1-1.235,3.529,4.384,4.384,0,0,1-3.344,1.305,4.434,4.434,0,0,1-3.261-1.217,4.761,4.761,0,0,1-1.327-3.3Zm2.962.185a3.538,3.538,0,0,0,.413,1.934,1.376,1.376,0,0,0,1.222.615q1.582,0,1.617-2.435v-.3q0-2.558-1.635-2.558-1.485,0-1.608,2.206Zm11.54,2.549a1.317,1.317,0,0,0,.967-.338,1.241,1.241,0,0,0,.334-.945H9.422A3.288,3.288,0,0,1,8.3,23.174a4.168,4.168,0,0,1-2.887,1,4.22,4.22,0,0,1-3.27-1.3,5.125,5.125,0,0,1-1.2-3.6v-.123A5.792,5.792,0,0,1,1.481,16.6a3.872,3.872,0,0,1,1.534-1.7,4.573,4.573,0,0,1,2.373-.593,4.116,4.116,0,0,1,2.944,1.028,3.647,3.647,0,0,1,1.09,2.786H6.645A1.626,1.626,0,0,0,6.284,17a1.244,1.244,0,0,0-.967-.4q-1.151,0-1.345,1.468a10.357,10.357,0,0,0-.062,1.283,4.068,4.068,0,0,0,.343,1.986A1.187,1.187,0,0,0,5.344,21.891ZM13.8,24H10.828V14.49H13.8ZM10.652,12.038A1.322,1.322,0,0,1,11.109,11a1.724,1.724,0,0,1,1.187-.4,1.724,1.724,0,0,1,1.187.4,1.405,1.405,0,0,1,0,2.074,1.724,1.724,0,0,1-1.187.4,1.724,1.724,0,0,1-1.187-.4A1.322,1.322,0,0,1,10.652,12.038ZM20.979,24a3.344,3.344,0,0,1-.281-.853,2.754,2.754,0,0,1-2.285,1.028,3.374,3.374,0,0,1-2.285-.813,2.588,2.588,0,0,1-.94-2.043,2.66,2.66,0,0,1,1.143-2.338,5.821,5.821,0,0,1,3.322-.791h.914v-.5q0-1.316-1.134-1.316a.927.927,0,0,0-1.055,1.042H15.416a2.655,2.655,0,0,1,1.173-2.239,4.931,4.931,0,0,1,2.993-.86,4.323,4.323,0,0,1,2.874.888,3.086,3.086,0,0,1,1.081,2.435v4.21a4.311,4.311,0,0,0,.4,2V24Zm-1.854-1.934a1.652,1.652,0,0,0,.918-.237,1.487,1.487,0,0,0,.523-.536V19.772h-.861q-1.547,0-1.547,1.389a.848.848,0,0,0,.272.655A.986.986,0,0,0,19.125,22.066ZM29.2,21.891a1.317,1.317,0,0,0,.967-.338,1.241,1.241,0,0,0,.334-.945h2.777a3.288,3.288,0,0,1-1.121,2.566,4.168,4.168,0,0,1-2.887,1,4.22,4.22,0,0,1-3.27-1.3,5.125,5.125,0,0,1-1.2-3.6v-.123a5.792,5.792,0,0,1,.532-2.544,3.872,3.872,0,0,1,1.534-1.7,4.573,4.573,0,0,1,2.373-.593,4.116,4.116,0,0,1,2.944,1.028,3.647,3.647,0,0,1,1.09,2.786H30.5A1.626,1.626,0,0,0,30.138,17a1.244,1.244,0,0,0-.967-.4q-1.151,0-1.345,1.468a10.357,10.357,0,0,0-.062,1.283,4.068,4.068,0,0,0,.343,1.986A1.187,1.187,0,0,0,29.2,21.891ZM37.652,24H34.682V14.49h2.971ZM34.506,12.038A1.322,1.322,0,0,1,34.963,11a1.943,1.943,0,0,1,2.373,0,1.405,1.405,0,0,1,0,2.074,1.943,1.943,0,0,1-2.373,0A1.322,1.322,0,0,1,34.506,12.038Zm4.6,7.119a5.613,5.613,0,0,1,.554-2.536,3.96,3.96,0,0,1,1.591-1.709,4.791,4.791,0,0,1,2.435-.6,4.373,4.373,0,0,1,3.366,1.323,5.076,5.076,0,0,1,1.23,3.6v.105a4.925,4.925,0,0,1-1.235,3.529A4.384,4.384,0,0,1,43.7,24.176a4.434,4.434,0,0,1-3.261-1.217,4.761,4.761,0,0,1-1.327-3.3Zm2.962.185a3.538,3.538,0,0,0,.413,1.934,1.376,1.376,0,0,0,1.222.615q1.582,0,1.617-2.435v-.3q0-2.558-1.635-2.558-1.485,0-1.608,2.206ZM44.086,10.5h3.129l-2.443,2.76-2.417,0ZM52.3,14.49l.1,1.116a3.225,3.225,0,0,1,2.716-1.292,2.713,2.713,0,0,1,2.219.888,4.226,4.226,0,0,1,.76,2.672V24H55.125V18a1.6,1.6,0,0,0-.29-1.059A1.342,1.342,0,0,0,53.78,16.6a1.413,1.413,0,0,0-1.292.686V24H49.526V14.49Z" transform="translate(1125 1220)" fill="#12263f"/>
    <g id="Grupo_1099441" data-name="Grupo 1099441" transform="translate(779 1042)">
      <g id="Grupo_1099440" data-name="Grupo 1099440" clip-path="url(#clip-path-2)">
        <path id="Trazado_873609" data-name="Trazado 873609" d="M.034,185.817c0-2.911-.064-5.824.016-8.733a10.258,10.258,0,0,1,4.8-8.438,1.266,1.266,0,0,1,1.6.015,11.113,11.113,0,0,0,12.056.009,1.381,1.381,0,0,1,1.72.034c2.656,1.736,3.638,4.422,4.283,7.32.28,1.257.109,2.921.992,3.653s2.487.188,3.773.216c1.57.034,3.143-.024,4.713.017a3.608,3.608,0,1,1-.1,7.2c-3.927.017-7.855.01-11.783,0-1.731,0-2.378-.5-2.831-2.214-.577-2.183-1.118-4.376-1.677-6.563-.091-.356-.183-.713-.3-1.061a1.254,1.254,0,0,0-1.617-.922,1.229,1.229,0,0,0-.968,1.588c.724,2.951,1.444,5.905,2.284,8.825a4.116,4.116,0,0,0,2.772,2.718c.766.261.77.6.508,1.209-.712,1.65-1.46,3.29-2.068,4.978-.284.788-.72.906-1.442.9-5.083-.024-10.166-.041-15.248.01-1.128.011-1.54-.3-1.513-1.474.071-3.094.024-6.191.024-9.287Z" transform="translate(0 -121.657)" fill="#3c5756"/>
        <path id="Trazado_873610" data-name="Trazado 873610" d="M210.151,185.89c0,3.1-.034,6.192.019,9.287.018,1.03-.324,1.358-1.352,1.349-5.175-.042-10.35-.031-15.525-.005a1.165,1.165,0,0,1-1.308-.89c-.626-1.683-1.362-3.326-2.071-4.978-.253-.59-.3-.936.481-1.219a4.783,4.783,0,0,0,3.1-3.615c.593-2.464,1.244-4.914,1.872-7.369.237-.927.262-1.842-.857-2.139-1.226-.325-1.614.61-1.856,1.548-.6,2.32-1.142,4.655-1.747,6.973-.46,1.763-1.1,2.227-2.959,2.229q-5.753.007-11.506,0c-2.384-.006-4.077-1.512-4.077-3.6s1.689-3.585,4.085-3.6c2.356-.019,4.715-.055,7.069.02,1.024.032,1.457-.267,1.634-1.307a29.9,29.9,0,0,1,1.395-5.629,8.79,8.79,0,0,1,3.507-4.343,1.189,1.189,0,0,1,1.483-.059,11.114,11.114,0,0,0,12.289.01,1.162,1.162,0,0,1,1.479.042,10.284,10.284,0,0,1,4.826,8.568c.06,2.91.012,5.822.012,8.733Z" transform="translate(-124.545 -121.609)" fill="#3c5756"/>
        <path id="Trazado_873611" data-name="Trazado 873611" d="M65.5,27.851c0-2.211-.059-4.057.023-5.9.045-1.01-.315-1.291-1.256-1.2a17.421,17.421,0,0,1-2.216.009c-1.62-.05-2.58-.861-2.595-2.437q-.073-7.9,0-15.8C59.465.822,60.493.009,62.419.006Q74.061-.009,85.7,0c4.417,0,4.715.3,4.715,4.7q0,6.375,0,12.75c0,2.553-.762,3.312-3.292,3.315-3.973,0-7.946.02-11.919-.015a2.841,2.841,0,0,0-1.993.734c-2.462,2.074-4.963,4.1-7.715,6.364M72.581,12.78a1.351,1.351,0,0,0-1.231,2.037,2.96,2.96,0,0,0,1.067,1.055c.674.375,1.17.708,1.2,1.62a1.172,1.172,0,0,0,1.3,1.01,1.22,1.22,0,0,0,1.32-1.166,1.621,1.621,0,0,1,.979-1.478,3.607,3.607,0,0,0,1.543-4.11,3.661,3.661,0,0,0-3.334-2.664,7.175,7.175,0,0,1-.827-.07.947.947,0,0,1-.863-1.068c.045-.545.425-.775.945-.829a2.065,2.065,0,0,1,1.768.57,1.168,1.168,0,0,0,1.741-.019A1.3,1.3,0,0,0,78.332,5.8,3.425,3.425,0,0,0,77.2,4.813a1.379,1.379,0,0,1-.953-1.324,1.231,1.231,0,0,0-1.3-1.2,1.26,1.26,0,0,0-1.377,1.266c0,.74-.4,1.012-.927,1.365a3.724,3.724,0,0,0,.017,6.282,4.279,4.279,0,0,0,2.243.619c.679.017,1.249.208,1.187,1-.067.858-.747.94-1.437.932a1.485,1.485,0,0,1-1.1-.505,1.392,1.392,0,0,0-.973-.473" transform="translate(-42.931 0)" fill="#3c5756"/>
        <path id="Trazado_873612" data-name="Trazado 873612" d="M82.259,196.081c.275-1.414,1.206-1.495,2.223-1.494q9.984.012,19.968,0c1.248,0,2.5.013,3.744,0,.894-.009,1.481.372,1.828,1.49-1.782,0-3.452-.03-5.12.006a6.361,6.361,0,1,0-.2,12.72c3.189.048,6.379.038,9.568-.007a1.368,1.368,0,0,1,1.53,1.026c.7,1.854,1.5,3.669,2.249,5.5.758,1.856.607,2.086-1.364,2.087q-11.51,0-23.019,0-9.083,0-18.166,0c-1.9,0-2.064-.242-1.352-1.993.763-1.879,1.581-3.737,2.29-5.636a1.369,1.369,0,0,1,1.558-.985c3.05.039,6.1.024,9.152.013a6.372,6.372,0,1,0,.127-12.73c-1.646-.034-3.293-.006-5.011-.006" transform="translate(-53.292 -140.601)" fill="#3c5756"/>
        <path id="Trazado_873613" data-name="Trazado 873613" d="M132.618,46.257a4.53,4.53,0,0,1,4.959-2.4,47.006,47.006,0,0,0,5.266.034c.928,0,1.681-.275,1.684-1.38s-.734-1.374-1.673-1.374c-2.219,0-4.44-.054-6.657.021-1.063.036-1.165-.444-1.194-1.319-.032-.967.36-1.149,1.214-1.131,2.172.047,4.345.009,6.518.018.986,0,1.792-.236,1.786-1.415-.006-1.209-.855-1.361-1.823-1.355-2.219.014-4.439-.026-6.657.019-.792.016-1.008-.252-1.028-1.027-.074-2.822-.1-2.822,2.71-2.822,2.543,0,5.086-.015,7.628,0,2.138.017,2.954.807,2.964,2.94q.035,7.42,0,14.841c-.009,2.2-.815,2.95-3.068,2.966-2.967.021-2.967.021-2.967,3.057V59.96a67.378,67.378,0,0,1-5.213-4.339,9.08,9.08,0,0,0-7.8-2.8c-2.983.257-6.005.066-9.011.052-1.981-.009-2.874-.9-2.916-2.863,0-.185,0-.37,0-.555,0-2.752,0-2.743,2.761-2.719.673.006,1.233-.1,1.058.971-.122.747.429,1.289,1.285,1.3q1.179.016,2.358.014c5.733,0,11.466.017,17.2-.014,1.02-.006,2.41.442,2.523-1.314.069-1.076-.635-1.433-2.632-1.433h-9.273Z" transform="translate(-84.784 -23.207)" fill="#3c5756"/>
        <path id="Trazado_873614" data-name="Trazado 873614" d="M22.437,121.244a8.57,8.57,0,1,1,8.693-8.607,8.73,8.73,0,0,1-8.693,8.607" transform="translate(-9.955 -75.223)" fill="#3c5756"/>
        <path id="Trazado_873615" data-name="Trazado 873615" d="M241.113,104.106a8.569,8.569,0,1,1-.137,17.138,8.57,8.57,0,1,1,.137-17.138" transform="translate(-167.87 -75.223)" fill="#3c5756"/>
        <path id="Trazado_873616" data-name="Trazado 873616" d="M99.954,286.631c6.427,0,12.853-.013,19.28.024.54,0,1.489-.526,1.526.734.035,1.182-.732,1.183-1.574,1.182q-16.436-.01-32.873,0-3.052,0-6.1,0c-.524,0-1.061-.015-1.195-.674-.155-.767-.125-1.3.966-1.283,3.744.06,7.49.023,11.235.023h8.738" transform="translate(-57.045 -207.049)" fill="#3c5756"/>
      </g>
    </g>
    <path id="Trazado_875151" data-name="Trazado 875151" d="M24,0A24,24,0,1,1,0,24,24,24,0,0,1,24,0Z" transform="translate(895 985)" fill="#d2edec"/>
    <path id="Trazado_875152" data-name="Trazado 875152" d="M24,0A24,24,0,1,1,0,24,24,24,0,0,1,24,0Z" transform="translate(867 1171)" fill="#fef0d7"/>
    <path id="Trazado_875153" data-name="Trazado 875153" d="M24,0A24,24,0,1,1,0,24,24,24,0,0,1,24,0Z" transform="translate(675 1066)" fill="#ffdfb9"/>
    <path id="Trazado_875154" data-name="Trazado 875154" d="M4.5,0H-4.43V-1.934L-.316-6.258A4.909,4.909,0,0,0,1.2-9.009a1.913,1.913,0,0,0-.36-1.257A1.287,1.287,0,0,0-.2-10.7a1.3,1.3,0,0,0-1.1.576,2.366,2.366,0,0,0-.422,1.437H-4.693A4.2,4.2,0,0,1-4.1-10.859a4.129,4.129,0,0,1,1.635-1.56,4.856,4.856,0,0,1,2.338-.562,4.777,4.777,0,0,1,3.195.958A3.42,3.42,0,0,1,4.184-9.272,4,4,0,0,1,3.9-7.8a6.456,6.456,0,0,1-.875,1.5,22.029,22.029,0,0,1-1.912,2.1L-.536-2.285H4.5Z" transform="translate(919 1015)" fill="#12263f"/>
    <path id="Trazado_875155" data-name="Trazado 875155" d="M-1.723-7.638h1.4A1.453,1.453,0,0,0,1.336-9.264,1.406,1.406,0,0,0,.94-10.3a1.5,1.5,0,0,0-1.116-.4,1.606,1.606,0,0,0-1.024.343,1.046,1.046,0,0,0-.435.853H-4.6a3.032,3.032,0,0,1,.563-1.8,3.715,3.715,0,0,1,1.56-1.235,5.334,5.334,0,0,1,2.193-.444,5.241,5.241,0,0,1,3.357.976A3.243,3.243,0,0,1,4.3-9.325a2.7,2.7,0,0,1-.505,1.56A3.6,3.6,0,0,1,2.32-6.574a3.441,3.441,0,0,1,1.6,1.121A2.951,2.951,0,0,1,4.5-3.595,3.3,3.3,0,0,1,3.182-.853,5.472,5.472,0,0,1-.281.176,5.675,5.675,0,0,1-2.615-.3,3.656,3.656,0,0,1-4.245-1.63,3.45,3.45,0,0,1-4.8-3.56h2.979a1.334,1.334,0,0,0,.475,1.02,1.676,1.676,0,0,0,1.169.431,1.755,1.755,0,0,0,1.248-.435,1.454,1.454,0,0,0,.466-1.112,1.7,1.7,0,0,0-.483-1.371,2.021,2.021,0,0,0-1.336-.4H-1.723Z" transform="translate(891 1201)" fill="#12263f"/>
    <path id="Trazado_875156" data-name="Trazado 875156" d="M2.136,0H-.835V-9.457L-3.753-8.6v-2.25L1.863-12.8h.272Z" transform="translate(699 1096)" fill="#12263f"/>
    <g id="Trazado_875157" data-name="Trazado 875157" transform="translate(317 908)" fill="#63502f">
      <path d="M 259 61.5 L 31 61.5 C 26.88232231140137 61.5 22.88803482055664 60.69364166259766 19.12817764282227 59.10335540771484 C 15.49632167816162 57.56721496582031 12.23446464538574 55.36800003051758 9.433250427246094 52.56674957275391 C 6.631999969482422 49.76553726196289 4.432785511016846 46.50367736816406 2.896642923355103 42.87182235717773 C 1.306357145309448 39.11196517944336 0.5 35.11767959594727 0.5 31 C 0.5 26.88232231140137 1.306357145309448 22.88803482055664 2.896642923355103 19.12817764282227 C 4.432785511016846 15.49632167816162 6.631999969482422 12.23446464538574 9.433250427246094 9.433250427246094 C 12.23446464538574 6.631999969482422 15.49632167816162 4.432785511016846 19.12817764282227 2.896642923355103 C 22.88803482055664 1.306357145309448 26.88232231140137 0.5 31 0.5 L 259 0.5 C 263.11767578125 0.5 267.1119689941406 1.306357145309448 270.871826171875 2.896642923355103 C 274.5036926269531 4.432785511016846 277.7655334472656 6.631999969482422 280.5667419433594 9.433250427246094 C 283.3680114746094 12.23446464538574 285.5671997070312 15.49632167816162 287.1033630371094 19.12817764282227 C 288.6936340332031 22.88803482055664 289.5 26.88232231140137 289.5 31 C 289.5 35.11767959594727 288.6936340332031 39.11196517944336 287.1033630371094 42.87182235717773 C 285.5671997070312 46.50367736816406 283.3680114746094 49.76553726196289 280.5667419433594 52.56674957275391 C 277.7655334472656 55.36800003051758 274.5036926269531 57.56721496582031 270.871826171875 59.10335540771484 C 267.1119689941406 60.69364166259766 263.11767578125 61.5 259 61.5 Z" stroke="none"/>
      <path d="M 31 1 C 26.9495849609375 1 23.0208740234375 1.793037414550781 19.32296752929688 3.357154846191406 C 15.75070190429688 4.868076324462891 12.54226684570312 7.031307220458984 9.78680419921875 9.786808013916016 C 7.031341552734375 12.54227066040039 4.868072509765625 15.75069046020508 3.357147216796875 19.32295989990234 C 1.79302978515625 23.02084732055664 1 26.94957733154297 1 31 C 1 35.05042266845703 1.79302978515625 38.9791145324707 3.357147216796875 42.67704010009766 C 4.868072509765625 46.24930572509766 7.031341552734375 49.45772933959961 9.78680419921875 52.21319198608398 C 12.54226684570312 54.96865463256836 15.75070190429688 57.13192367553711 19.32296752929688 58.64284515380859 C 23.0208740234375 60.20696258544922 26.9495849609375 61 31 61 L 259 61 C 263.0504150390625 61 266.9791259765625 60.20696258544922 270.6770324707031 58.64284515380859 C 274.2492980957031 57.13192367553711 277.4577331542969 54.96865463256836 280.2131958007812 52.21319198608398 C 282.9686584472656 49.45772933959961 285.1319274902344 46.24930572509766 286.6428527832031 42.67704010009766 C 288.2069702148438 38.9791145324707 289 35.05042266845703 289 31 C 289 26.94957733154297 288.2069702148438 23.02084732055664 286.6428527832031 19.32295989990234 C 285.1319274902344 15.75069046020508 282.9686584472656 12.54227066040039 280.2131958007812 9.786808013916016 C 277.4577331542969 7.031307220458984 274.2492980957031 4.868076324462891 270.6770324707031 3.357154846191406 C 266.9791259765625 1.793037414550781 263.0504150390625 1 259 1 L 31 1 M 31 0 L 259 0 C 276.1208190917969 0 290 13.87915420532227 290 31 C 290 48.12080764770508 276.1208190917969 62 259 62 L 31 62 C 13.87918090820312 62 0 48.12080764770508 0 31 C 0 13.87915420532227 13.87918090820312 0 31 0 Z" stroke="none" fill="#707070"/>
    </g>
    <path id="Trazado_875158" data-name="Trazado 875158" d="M-102.7-4.342V0h-3.085V-12.8h5.106a5.948,5.948,0,0,1,2.6.541,4.074,4.074,0,0,1,1.749,1.538,4.2,4.2,0,0,1,.62,2.263,3.7,3.7,0,0,1-1.34,2.993,5.561,5.561,0,0,1-3.678,1.121Zm0-2.382h2.021a1.906,1.906,0,0,0,1.367-.448,1.665,1.665,0,0,0,.47-1.266,2.059,2.059,0,0,0-.483-1.433,1.712,1.712,0,0,0-1.318-.545H-102.7Zm14.247-.105-.976-.07a1.752,1.752,0,0,0-1.793.879V0h-2.962V-9.51h2.777l.1,1.222a2.294,2.294,0,0,1,2.083-1.4,2.888,2.888,0,0,1,.826.105Zm.378,1.986a5.613,5.613,0,0,1,.554-2.536,3.96,3.96,0,0,1,1.591-1.709,4.791,4.791,0,0,1,2.435-.6A4.373,4.373,0,0,1-80.13-8.363a5.076,5.076,0,0,1,1.23,3.6v.105a4.925,4.925,0,0,1-1.235,3.529A4.384,4.384,0,0,1-83.479.176a4.434,4.434,0,0,1-3.261-1.217,4.761,4.761,0,0,1-1.327-3.3Zm2.962.185A3.538,3.538,0,0,0-84.7-2.725a1.376,1.376,0,0,0,1.222.615q1.582,0,1.617-2.435v-.3q0-2.558-1.635-2.558-1.485,0-1.608,2.206Zm11.54,2.549a1.317,1.317,0,0,0,.967-.338,1.241,1.241,0,0,0,.334-.945H-69.5A3.288,3.288,0,0,1-70.616-.826a4.168,4.168,0,0,1-2.887,1,4.22,4.22,0,0,1-3.27-1.3,5.125,5.125,0,0,1-1.2-3.6v-.123A5.792,5.792,0,0,1-77.436-7.4a3.872,3.872,0,0,1,1.534-1.7,4.573,4.573,0,0,1,2.373-.593,4.116,4.116,0,0,1,2.944,1.028A3.647,3.647,0,0,1-69.5-5.871h-2.777A1.626,1.626,0,0,0-72.633-7a1.244,1.244,0,0,0-.967-.4q-1.151,0-1.345,1.468a10.357,10.357,0,0,0-.062,1.283,4.068,4.068,0,0,0,.343,1.986A1.187,1.187,0,0,0-73.573-2.109ZM-63.642.176a4.889,4.889,0,0,1-3.542-1.305,4.507,4.507,0,0,1-1.354-3.4v-.246A5.84,5.84,0,0,1-68-7.348a3.955,3.955,0,0,1,1.578-1.727,4.763,4.763,0,0,1,2.461-.611,4.117,4.117,0,0,1,3.164,1.244,4.887,4.887,0,0,1,1.16,3.467v1.151h-5.889a2.135,2.135,0,0,0,.694,1.257,2.066,2.066,0,0,0,1.389.457,2.662,2.662,0,0,0,2.2-.984l1.354,1.6A3.784,3.784,0,0,1-61.458-.277,5.3,5.3,0,0,1-63.642.176ZM-63.976-7.4q-1.3,0-1.547,1.723h2.988v-.229a1.467,1.467,0,0,0-.36-1.1A1.434,1.434,0,0,0-63.976-7.4Zm10.512,4.729a.684.684,0,0,0-.4-.606,6.016,6.016,0,0,0-1.5-.475A6.853,6.853,0,0,1-57.19-4.4a3.062,3.062,0,0,1-1.1-.971,2.319,2.319,0,0,1-.378-1.31,2.628,2.628,0,0,1,1.081-2.158,4.453,4.453,0,0,1,2.83-.848,4.934,4.934,0,0,1,3.023.853A2.666,2.666,0,0,1-50.59-6.592h-2.971q0-1.143-1.2-1.143a1.194,1.194,0,0,0-.782.259.8.8,0,0,0-.316.646.737.737,0,0,0,.387.642,3.654,3.654,0,0,0,1.235.4,10.671,10.671,0,0,1,1.49.378A2.706,2.706,0,0,1-50.607-2.76,2.491,2.491,0,0,1-51.763-.642a5.068,5.068,0,0,1-2.993.817,5.172,5.172,0,0,1-2.18-.439,3.645,3.645,0,0,1-1.494-1.2,2.707,2.707,0,0,1-.536-1.591H-56.2a1.145,1.145,0,0,0,.439.962,1.808,1.808,0,0,0,1.081.3,1.422,1.422,0,0,0,.91-.246A.787.787,0,0,0-53.464-2.672ZM-49.6-4.843a5.613,5.613,0,0,1,.554-2.536,3.96,3.96,0,0,1,1.591-1.709,4.791,4.791,0,0,1,2.435-.6,4.373,4.373,0,0,1,3.366,1.323,5.076,5.076,0,0,1,1.23,3.6v.105a4.925,4.925,0,0,1-1.235,3.529A4.384,4.384,0,0,1-45,.176a4.434,4.434,0,0,1-3.261-1.217,4.761,4.761,0,0,1-1.327-3.3Zm2.962.185a3.538,3.538,0,0,0,.413,1.934A1.376,1.376,0,0,0-45-2.109q1.582,0,1.617-2.435v-.3q0-2.558-1.635-2.558-1.485,0-1.608,2.206Zm11.628-.167a5.809,5.809,0,0,1,.976-3.56,3.211,3.211,0,0,1,2.725-1.3,2.731,2.731,0,0,1,2.145,1V-13.5h2.971V0h-2.663L-29-1.02a2.8,2.8,0,0,1-2.32,1.2,3.205,3.205,0,0,1-2.689-1.3A5.993,5.993,0,0,1-35.007-4.825Zm2.962.185q0,2.531,1.477,2.531a1.458,1.458,0,0,0,1.406-.826V-6.557A1.419,1.419,0,0,0-30.551-7.4q-1.371,0-1.485,2.215ZM-19.907.176a4.889,4.889,0,0,1-3.542-1.305,4.507,4.507,0,0,1-1.354-3.4v-.246a5.84,5.84,0,0,1,.541-2.575,3.955,3.955,0,0,1,1.578-1.727,4.763,4.763,0,0,1,2.461-.611A4.117,4.117,0,0,1-17.06-8.442,4.887,4.887,0,0,1-15.9-4.975v1.151h-5.889a2.135,2.135,0,0,0,.694,1.257,2.066,2.066,0,0,0,1.389.457,2.662,2.662,0,0,0,2.2-.984l1.354,1.6A3.784,3.784,0,0,1-17.723-.277,5.3,5.3,0,0,1-19.907.176ZM-20.241-7.4q-1.3,0-1.547,1.723H-18.8v-.229a1.467,1.467,0,0,0-.36-1.1A1.434,1.434,0,0,0-20.241-7.4ZM-7.1,0h-2.971V-13.5H-7.1ZM.079,0A3.344,3.344,0,0,1-.2-.853,2.754,2.754,0,0,1-2.487.176,3.374,3.374,0,0,1-4.772-.637a2.588,2.588,0,0,1-.94-2.043A2.66,2.66,0,0,1-4.57-5.019,5.821,5.821,0,0,1-1.248-5.81h.914v-.5q0-1.316-1.134-1.316A.927.927,0,0,0-2.522-6.587H-5.484A2.655,2.655,0,0,1-4.311-8.825a4.931,4.931,0,0,1,2.993-.86A4.323,4.323,0,0,1,1.556-8.8,3.086,3.086,0,0,1,2.637-6.363v4.21a4.311,4.311,0,0,0,.4,2V0ZM-1.775-1.934a1.652,1.652,0,0,0,.918-.237,1.487,1.487,0,0,0,.523-.536V-4.228H-1.2q-1.547,0-1.547,1.389a.848.848,0,0,0,.272.655A.986.986,0,0,0-1.775-1.934ZM11.479-9.51l.1,1.116a3.225,3.225,0,0,1,2.716-1.292A2.713,2.713,0,0,1,16.51-8.8a4.226,4.226,0,0,1,.76,2.672V0H14.3V-6a1.6,1.6,0,0,0-.29-1.059A1.342,1.342,0,0,0,12.955-7.4a1.413,1.413,0,0,0-1.292.686V0H8.7V-9.51ZM23.511.176a4.889,4.889,0,0,1-3.542-1.305,4.507,4.507,0,0,1-1.354-3.4v-.246a5.84,5.84,0,0,1,.541-2.575,3.955,3.955,0,0,1,1.578-1.727,4.763,4.763,0,0,1,2.461-.611,4.117,4.117,0,0,1,3.164,1.244,4.887,4.887,0,0,1,1.16,3.467v1.151H21.63a2.135,2.135,0,0,0,.694,1.257,2.066,2.066,0,0,0,1.389.457,2.662,2.662,0,0,0,2.2-.984l1.354,1.6A3.784,3.784,0,0,1,25.695-.277,5.3,5.3,0,0,1,23.511.176ZM23.177-7.4q-1.3,0-1.547,1.723h2.988v-.229a1.467,1.467,0,0,0-.36-1.1A1.434,1.434,0,0,0,23.177-7.4Zm5.186,2.575a6.421,6.421,0,0,1,.475-2.549A3.821,3.821,0,0,1,30.2-9.083a3.591,3.591,0,0,1,2.065-.6,2.855,2.855,0,0,1,2.32,1l.105-.826H37.38V-.36A4.009,4.009,0,0,1,36.8,1.824,3.75,3.75,0,0,1,35.1,3.248a6.219,6.219,0,0,1-2.566.5,5.365,5.365,0,0,1-2.026-.4,3.657,3.657,0,0,1-1.5-1.028L30.252.58a2.716,2.716,0,0,0,2.18.976A1.764,1.764,0,0,0,34.4-.466v-.3a2.781,2.781,0,0,1-2.153.94,3.437,3.437,0,0,1-2.812-1.332A5.517,5.517,0,0,1,28.362-4.72Zm2.971.185a3.383,3.383,0,0,0,.439,1.85A1.386,1.386,0,0,0,33-2.109a1.573,1.573,0,0,0,1.4-.642v-4a1.534,1.534,0,0,0-1.38-.65,1.4,1.4,0,0,0-1.239.708A3.858,3.858,0,0,0,31.333-4.641Zm7.356-.2a5.613,5.613,0,0,1,.554-2.536,3.96,3.96,0,0,1,1.591-1.709,4.791,4.791,0,0,1,2.435-.6,4.373,4.373,0,0,1,3.366,1.323,5.076,5.076,0,0,1,1.23,3.6v.105A4.925,4.925,0,0,1,46.63-1.129,4.384,4.384,0,0,1,43.286.176a4.434,4.434,0,0,1-3.261-1.217,4.761,4.761,0,0,1-1.327-3.3Zm2.962.185a3.538,3.538,0,0,0,.413,1.934,1.376,1.376,0,0,0,1.222.615q1.582,0,1.617-2.435v-.3Q44.9-7.4,43.269-7.4q-1.485,0-1.608,2.206Zm11.54,2.549a1.317,1.317,0,0,0,.967-.338,1.241,1.241,0,0,0,.334-.945H57.27A3.288,3.288,0,0,1,56.149-.826a4.168,4.168,0,0,1-2.887,1,4.22,4.22,0,0,1-3.27-1.3,5.125,5.125,0,0,1-1.2-3.6v-.123A5.792,5.792,0,0,1,49.329-7.4a3.872,3.872,0,0,1,1.534-1.7,4.573,4.573,0,0,1,2.373-.593A4.116,4.116,0,0,1,56.18-8.657a3.647,3.647,0,0,1,1.09,2.786H54.492A1.626,1.626,0,0,0,54.132-7a1.244,1.244,0,0,0-.967-.4q-1.151,0-1.345,1.468a10.357,10.357,0,0,0-.062,1.283A4.068,4.068,0,0,0,52.1-2.663,1.187,1.187,0,0,0,53.191-2.109ZM61.646,0H58.676V-9.51h2.971ZM58.5-11.962A1.322,1.322,0,0,1,58.957-13a1.724,1.724,0,0,1,1.187-.4,1.724,1.724,0,0,1,1.187.4,1.322,1.322,0,0,1,.457,1.037,1.322,1.322,0,0,1-.457,1.037,1.724,1.724,0,0,1-1.187.4,1.724,1.724,0,0,1-1.187-.4A1.322,1.322,0,0,1,58.5-11.962ZM68.827,0a3.344,3.344,0,0,1-.281-.853A2.754,2.754,0,0,1,66.261.176a3.374,3.374,0,0,1-2.285-.813,2.588,2.588,0,0,1-.94-2.043,2.66,2.66,0,0,1,1.143-2.338A5.821,5.821,0,0,1,67.5-5.81h.914v-.5q0-1.316-1.134-1.316a.927.927,0,0,0-1.055,1.042H63.264a2.655,2.655,0,0,1,1.173-2.239,4.931,4.931,0,0,1,2.993-.86A4.323,4.323,0,0,1,70.3-8.8a3.086,3.086,0,0,1,1.081,2.435v4.21a4.311,4.311,0,0,0,.4,2V0ZM66.973-1.934a1.652,1.652,0,0,0,.918-.237,1.487,1.487,0,0,0,.523-.536V-4.228h-.861q-1.547,0-1.547,1.389a.848.848,0,0,0,.272.655A.986.986,0,0,0,66.973-1.934Zm10.072-.176a1.317,1.317,0,0,0,.967-.338,1.241,1.241,0,0,0,.334-.945h2.777A3.288,3.288,0,0,1,80-.826a4.168,4.168,0,0,1-2.887,1,4.22,4.22,0,0,1-3.27-1.3,5.125,5.125,0,0,1-1.2-3.6v-.123A5.792,5.792,0,0,1,73.182-7.4a3.872,3.872,0,0,1,1.534-1.7,4.573,4.573,0,0,1,2.373-.593,4.116,4.116,0,0,1,2.944,1.028,3.647,3.647,0,0,1,1.09,2.786H78.346A1.626,1.626,0,0,0,77.985-7a1.244,1.244,0,0,0-.967-.4q-1.151,0-1.345,1.468a10.357,10.357,0,0,0-.062,1.283,4.068,4.068,0,0,0,.343,1.986A1.187,1.187,0,0,0,77.045-2.109ZM85.5,0H82.529V-9.51H85.5ZM82.354-11.962A1.322,1.322,0,0,1,82.811-13,1.724,1.724,0,0,1,84-13.4a1.724,1.724,0,0,1,1.187.4,1.322,1.322,0,0,1,.457,1.037,1.322,1.322,0,0,1-.457,1.037,1.724,1.724,0,0,1-1.187.4,1.724,1.724,0,0,1-1.187-.4A1.322,1.322,0,0,1,82.354-11.962Zm4.6,7.119A5.613,5.613,0,0,1,87.5-7.378a3.96,3.96,0,0,1,1.591-1.709,4.791,4.791,0,0,1,2.435-.6A4.373,4.373,0,0,1,94.9-8.363a5.076,5.076,0,0,1,1.23,3.6v.105a4.925,4.925,0,0,1-1.235,3.529A4.384,4.384,0,0,1,91.547.176a4.434,4.434,0,0,1-3.261-1.217,4.761,4.761,0,0,1-1.327-3.3Zm2.962.185a3.538,3.538,0,0,0,.413,1.934,1.376,1.376,0,0,0,1.222.615q1.582,0,1.617-2.435v-.3q0-2.558-1.635-2.558-1.485,0-1.608,2.206ZM91.934-13.5h3.129l-2.443,2.76-2.417,0Zm8.218,3.99.1,1.116a3.225,3.225,0,0,1,2.716-1.292,2.713,2.713,0,0,1,2.219.888,4.226,4.226,0,0,1,.76,2.672V0h-2.971V-6a1.6,1.6,0,0,0-.29-1.059,1.342,1.342,0,0,0-1.055-.338,1.413,1.413,0,0,0-1.292.686V0H97.374V-9.51Z" transform="translate(462 945)" fill="#fff"/>
  </g>
</svg>
