<svg xmlns="http://www.w3.org/2000/svg" xmlns:xlink="http://www.w3.org/1999/xlink" width="1410" height="555" viewBox="0 0 1410 555">
  <defs>
    <clipPath id="clip-path">
      <rect id="Rectángulo_377901" data-name="Rectángulo 377901" width="1410" height="555" rx="20" fill="#fee7bd"/>
    </clipPath>
    <linearGradient id="linear-gradient" x1="1.019" y1="0.33" x2="0.211" y2="0.161" gradientUnits="objectBoundingBox">
      <stop offset="0" stop-color="#fee6bd"/>
      <stop offset="0.46" stop-color="#f7f1e7"/>
      <stop offset="1" stop-color="#eddbbb"/>
    </linearGradient>
    <clipPath id="clip-path-2">
      <rect id="Rectángulo_378430" data-name="Rectángulo 378430" width="737.198" height="442.68" transform="translate(0 0)" fill="none"/>
    </clipPath>
  </defs>
  <g id="Grupo_1073347" data-name="Grupo 1073347" transform="translate(1410 555) rotate(180)">
    <g id="Grupo_154360" data-name="Grupo 154360" clip-path="url(#clip-path)">
      <path id="Trazado_610761" data-name="Trazado 610761" d="M0,0H737.706V1504.932H0Z" transform="translate(1444.115 -112.706) rotate(90)" fill="url(#linear-gradient)"/>
      <rect id="Rectángulo_378306" data-name="Rectángulo 378306" width="1484.242" height="586.45" transform="translate(1444.115 555) rotate(180)" fill="none"/>
      <g id="Grupo_1073803" data-name="Grupo 1073803" transform="translate(553.346 -169.57) rotate(106)">
        <g id="Enmascarar_grupo_1073803" data-name="Enmascarar grupo 1073803" transform="translate(160.211 0.888)" clip-path="url(#clip-path-2)">
          <path id="Trazado_611020" data-name="Trazado 611020" d="M783.664,517.393h-518.5c-.137,0-.32,0-.306,0l-.193-.005c-.064,0-.129,0-.193,0s-.127-.007-.19-.009c-.507-.016-1-.041-1.481-.1a19.024,19.024,0,0,1-2.774-.521,17.728,17.728,0,0,1-2.61-.948q-.635-.289-1.249-.63c-.407-.23-.8-.478-1.192-.741a16.514,16.514,0,0,1-2.166-1.756,14.449,14.449,0,0,1-1.762-2.048,13.367,13.367,0,0,1-1.291-2.228,12.475,12.475,0,0,1-1.117-4.909c0-.113,0-.226-.007-.339s.009-.226.007-.338c.013-.223.014-.445.036-.662.034-.435.086-.858.158-1.272a12.479,12.479,0,0,1,.685-2.4c.153-.388.323-.771.518-1.148s.413-.748.649-1.114a14.918,14.918,0,0,1,1.648-2.1,16.037,16.037,0,0,1,2.08-1.836,16.262,16.262,0,0,1,2.383-1.474,17.69,17.69,0,0,1,2.576-1.05c.112-.03.22-.07.331-.1s.224-.06.334-.1.226-.053.337-.087.228-.049.34-.08c.455-.1.915-.189,1.386-.259s.949-.128,1.443-.158c.248-.01.5-.031.751-.034.064,0,.126-.011.191-.008s.129,0,.194,0l.193-.006H501.008q1.5-.01,3-.032c4-.081,8.015-.314,12.018-.7s8-.928,11.958-1.633,7.89-1.563,11.768-2.574a146.689,146.689,0,0,0,22.51-7.845,136,136,0,0,0,38.369-25.336,123.143,123.143,0,0,0,14.76-16.69,114.583,114.583,0,0,0,11.175-18.774q2.312-4.906,4.121-9.984a107.049,107.049,0,0,0,3.072-10.269,104.457,104.457,0,0,0,2.951-20.961c.134-3.5.1-7-.116-10.5a103.291,103.291,0,0,0-1.184-10.509,105.887,105.887,0,0,0-5.564-20.629,111.95,111.95,0,0,0-9.677-19.427,119.025,119.025,0,0,0-13.425-17.558,128.287,128.287,0,0,0-16.719-15.186,137.591,137.591,0,0,0-19.547-12.379A147.887,147.887,0,0,0,525.3,253.118a156.17,156.17,0,0,0-24-1.916l-13.706,0H0v16.522H487.6l13.655,0a134.672,134.672,0,0,1,20.672,1.65A127.259,127.259,0,0,1,560.8,282.136,118.574,118.574,0,0,1,577.637,292.8a110.524,110.524,0,0,1,14.4,13.083A102.474,102.474,0,0,1,603.6,321a96.408,96.408,0,0,1,8.328,16.718,91.1,91.1,0,0,1,4.788,17.752,88.888,88.888,0,0,1,1.019,9.052q.273,4.535.1,9.057a89.886,89.886,0,0,1-2.541,18.051q-1.1,4.464-2.642,8.836t-3.546,8.591a98.674,98.674,0,0,1-9.619,16.16,106.125,106.125,0,0,1-12.713,14.375,117.123,117.123,0,0,1-33.044,21.821,126.165,126.165,0,0,1-19.37,6.75q-5,1.3-10.125,2.215c-3.409.607-6.847,1.07-10.294,1.405s-6.9.535-10.356.605l-2.587.028H264.847l-.4.007-.4,0c-.133,0-.265.01-.4.013-.531.011-1.056.045-1.582.074-1.049.069-2.084.188-3.109.338s-2.038.342-3.038.57l-.748.178q-.37.1-.743.192-.367.109-.737.21c-.245.071-.486.153-.732.224a37.96,37.96,0,0,0-5.634,2.3,35.378,35.378,0,0,0-5.121,3.163,33.9,33.9,0,0,0-4.426,3.914,31.556,31.556,0,0,0-3.546,4.52q-.767,1.19-1.411,2.43c-.427.827-.806,1.67-1.144,2.524a27.342,27.342,0,0,0-1.5,5.265q-.237,1.35-.343,2.73a26.171,26.171,0,0,0-.073,2.786,27.681,27.681,0,0,0,.685,5.459,28.179,28.179,0,0,0,1.763,5.2,29.169,29.169,0,0,0,2.81,4.859,31.4,31.4,0,0,0,3.775,4.387,34.716,34.716,0,0,0,4.614,3.742q1.242.843,2.561,1.587t2.7,1.369a38.205,38.205,0,0,0,5.733,2.078,40.271,40.271,0,0,0,6.074,1.144c1.035.118,2.085.181,3.145.215.132,0,.264.013.4.014l.4,0,.4.006c.035,0,.2,0,.343,0h518.5Z" transform="translate(-23.052 -215.877)" fill="#e36849"/>
          <path id="Trazado_611021" data-name="Trazado 611021" d="M783.664,670.993h-518.5c-.139,0-.3,0-.355,0l-.468-.007-.468,0c-.156,0-.311-.011-.466-.016-1.243-.039-2.479-.115-3.7-.253a47.3,47.3,0,0,1-7.173-1.352,45,45,0,0,1-6.774-2.454q-1.632-.744-3.189-1.615t-3.017-1.869a40.738,40.738,0,0,1-5.43-4.4,37.029,37.029,0,0,1-4.447-5.166,34.442,34.442,0,0,1-3.316-5.737,33.171,33.171,0,0,1-2.084-6.143,32.523,32.523,0,0,1-.808-6.429,31.033,31.033,0,0,1,.086-3.269q.124-1.622.4-3.215a32.284,32.284,0,0,1,1.776-6.222q.6-1.515,1.353-2.982t1.665-2.869a37.094,37.094,0,0,1,4.178-5.325,39.846,39.846,0,0,1,5.208-4.606,41.74,41.74,0,0,1,6.034-3.726,44.706,44.706,0,0,1,6.654-2.711,45.213,45.213,0,0,1,7.088-1.625c1.21-.177,2.43-.316,3.664-.4.618-.035,1.236-.074,1.858-.088.156,0,.31-.016.467-.015l.468,0,.468-.007H501l2.449-.026q4.9-.1,9.8-.573c3.262-.317,6.515-.755,9.739-1.329s6.422-1.273,9.578-2.1a119.314,119.314,0,0,0,18.323-6.385,110.834,110.834,0,0,0,31.269-20.649,100.462,100.462,0,0,0,12.031-13.6,93.359,93.359,0,0,0,9.1-15.289q1.882-3.994,3.355-8.126a87.235,87.235,0,0,0,2.5-8.358,85.648,85.648,0,0,0-3.184-51.015,91.24,91.24,0,0,0-7.878-15.815,97,97,0,0,0-10.94-14.307,104.617,104.617,0,0,0-13.63-12.381,112.244,112.244,0,0,0-15.93-10.089A120.38,120.38,0,0,0,520.8,406.363,127.494,127.494,0,0,0,501.24,404.8l-13.638,0H0v16.522H487.6l13.587,0a105.97,105.97,0,0,1,16.241,1.295A99.749,99.749,0,0,1,547.9,432.625,93.2,93.2,0,0,1,561.122,441a86.809,86.809,0,0,1,11.313,10.278,80.391,80.391,0,0,1,9.076,11.868,75.694,75.694,0,0,1,6.529,13.106,71.163,71.163,0,0,1,4.631,28.154,70.449,70.449,0,0,1-1.994,14.171q-.858,3.5-2.07,6.925t-2.78,6.732a77.456,77.456,0,0,1-7.544,12.675,83.446,83.446,0,0,1-9.985,11.289,91.971,91.971,0,0,1-25.944,17.134,98.78,98.78,0,0,1-15.183,5.291q-3.922,1.022-7.936,1.737c-2.672.477-5.369.838-8.076,1.1s-5.424.42-8.14.476l-2.037.022H264.815l-.675.008-.675.007c-.225,0-.449.014-.673.02-.9.022-1.794.075-2.689.129-1.789.119-3.566.318-5.33.578a66.3,66.3,0,0,0-10.358,2.376,64.908,64.908,0,0,0-9.713,3.958,60.821,60.821,0,0,0-8.771,5.415,57.681,57.681,0,0,0-7.555,6.684,53.741,53.741,0,0,0-6.076,7.742q-1.319,2.046-2.426,4.186t-1.979,4.358a46.864,46.864,0,0,0-2.13,27.819,48.152,48.152,0,0,0,3.047,8.981,50.3,50.3,0,0,0,4.836,8.369,53.958,53.958,0,0,0,6.46,7.5,58.9,58.9,0,0,0,7.878,6.392q2.124,1.442,4.387,2.715t4.645,2.355a65.465,65.465,0,0,0,9.9,3.582,68.554,68.554,0,0,0,10.473,1.976c1.776.2,3.567.312,5.363.368.225.006.449.018.674.021l.674.007.675.008.392,0h518.5Z" transform="translate(-23.052 -347.448)" fill="#f79621"/>
          <path id="Trazado_611022" data-name="Trazado 611022" d="M783.664,824.593h-518.5l-.4,0-.743-.009-.743-.008c-.248,0-.495-.016-.742-.023-1.98-.061-3.956-.188-5.917-.406a75.626,75.626,0,0,1-11.573-2.183A72.342,72.342,0,0,1,234.1,818q-2.628-1.2-5.13-2.6t-4.843-3a64.959,64.959,0,0,1-8.694-7.054,59.6,59.6,0,0,1-7.132-8.284,55.558,55.558,0,0,1-5.342-9.246,53.164,53.164,0,0,1-3.368-9.927,51.653,51.653,0,0,1,2.354-30.714q.971-2.449,2.188-4.817t2.68-4.625a59.286,59.286,0,0,1,6.709-8.547,63.656,63.656,0,0,1,8.337-7.377,67.2,67.2,0,0,1,9.684-5.978,71.656,71.656,0,0,1,10.732-4.373,73.34,73.34,0,0,1,11.449-2.627c1.949-.286,3.912-.505,5.886-.637.987-.061,1.975-.118,2.966-.143.247-.007.495-.021.743-.022l.743-.008.743-.009H500.982l1.9-.021q3.8-.079,7.586-.444c2.521-.245,5.033-.582,7.521-1.026s4.954-.983,7.388-1.617a91.913,91.913,0,0,0,14.136-4.926,85.67,85.67,0,0,0,24.168-15.963,77.774,77.774,0,0,0,9.3-10.517,72.158,72.158,0,0,0,7.025-11.8q1.452-3.081,2.589-6.267t1.926-6.448a65.588,65.588,0,0,0,1.857-13.2,66.288,66.288,0,0,0-4.312-26.227,70.543,70.543,0,0,0-6.079-12.2,74.871,74.871,0,0,0-8.455-11.055,80.913,80.913,0,0,0-10.541-9.577,86.846,86.846,0,0,0-12.314-7.8q-3.268-1.707-6.7-3.157t-7-2.615a94.836,94.836,0,0,0-14.668-3.545,98.8,98.8,0,0,0-15.133-1.206l-13.57,0H0v16.522H487.6l13.519,0a77.3,77.3,0,0,1,11.809.941,73.766,73.766,0,0,1,11.408,2.757q2.774.91,5.45,2.033t5.219,2.459a67.837,67.837,0,0,1,9.6,6.08,63.141,63.141,0,0,1,8.225,7.473,58.349,58.349,0,0,1,6.591,8.616,55.006,55.006,0,0,1,4.729,9.495,51.591,51.591,0,0,1,2.717,10.08,50.136,50.136,0,0,1,.583,5.166c.1,1.73.121,3.467.056,5.2a51.032,51.032,0,0,1-1.447,10.291q-.622,2.535-1.5,5.014T562.55,655.4a56.251,56.251,0,0,1-5.468,9.191,60.78,60.78,0,0,1-7.256,8.2,66.8,66.8,0,0,1-18.844,12.448,71.356,71.356,0,0,1-11,3.831q-2.839.74-5.746,1.259c-1.936.346-3.892.606-5.857.8s-3.942.306-5.924.347l-1.487.016H264.783l-.95.01-.949.011c-.316,0-.633.018-.95.027-1.266.033-2.531.1-3.8.183-2.528.17-5.049.449-7.552.817a94.4,94.4,0,0,0-14.719,3.378,91.868,91.868,0,0,0-13.791,5.619,86.344,86.344,0,0,0-12.422,7.666,81.517,81.517,0,0,0-10.684,9.455,75.9,75.9,0,0,0-8.607,10.964,68.44,68.44,0,0,0-9.941,25.051,66.276,66.276,0,0,0,.659,26.481,68.17,68.17,0,0,0,4.331,12.764,71.4,71.4,0,0,0,6.861,11.878,76.52,76.52,0,0,0,9.145,10.622,83.157,83.157,0,0,0,11.142,9.041,90.229,90.229,0,0,0,26.858,12.271,96.9,96.9,0,0,0,14.872,2.807c2.518.279,5.049.444,7.581.521.316.01.633.023.949.028l.95.011.95.01.865,0H783.664Z" transform="translate(-23.052 -479.018)" fill="#ffbe30"/>
          <path id="Trazado_611023" data-name="Trazado 611023" d="M783.664,978.193H265.587l-.877,0-1.018-.01-1.018-.012c-.339-.005-.679-.02-1.018-.03-2.716-.084-5.433-.261-8.135-.56a103.986,103.986,0,0,1-15.972-3.014,96.881,96.881,0,0,1-28.84-13.176,89.2,89.2,0,0,1-11.958-9.7,82.169,82.169,0,0,1-9.817-11.4,76.692,76.692,0,0,1-7.368-12.756,73.182,73.182,0,0,1-4.652-13.71A71.1,71.1,0,0,1,174.2,885.4a73.513,73.513,0,0,1,10.677-26.9,81.472,81.472,0,0,1,9.239-11.77,87.476,87.476,0,0,1,11.466-10.148,92.714,92.714,0,0,1,13.334-8.23,98.679,98.679,0,0,1,14.811-6.035,101.453,101.453,0,0,1,15.809-3.628c2.688-.4,5.394-.694,8.107-.877,1.357-.086,2.714-.161,4.072-.2.339-.009.679-.026,1.019-.029l1.018-.012,1.018-.01H500.969l1.349-.015q2.7-.057,5.37-.315c1.78-.174,3.551-.409,5.3-.722s3.487-.693,5.2-1.139a64.515,64.515,0,0,0,9.949-3.467,60.512,60.512,0,0,0,17.068-11.276,55.123,55.123,0,0,0,6.574-7.43,50.959,50.959,0,0,0,4.95-8.319q1.023-2.168,1.823-4.409t1.354-4.537a46.158,46.158,0,0,0,1.31-9.321c.059-1.572.043-3.149-.05-4.718a45.253,45.253,0,0,0-.528-4.68,46.649,46.649,0,0,0-2.458-9.121,49.814,49.814,0,0,0-4.28-8.592,52.8,52.8,0,0,0-5.97-7.8,57.221,57.221,0,0,0-7.452-6.772,61.52,61.52,0,0,0-8.7-5.507q-2.305-1.2-4.724-2.227t-4.932-1.839a66.8,66.8,0,0,0-10.321-2.495A70.122,70.122,0,0,0,501.1,712l-13.5,0H0v16.522H487.6l13.451,0a48.6,48.6,0,0,1,7.378.586,45.722,45.722,0,0,1,7.061,1.707q1.717.563,3.376,1.258t3.24,1.529a42.456,42.456,0,0,1,5.986,3.789,39.442,39.442,0,0,1,5.136,4.668,36.249,36.249,0,0,1,4.106,5.365,34.288,34.288,0,0,1,2.93,5.883c.09.255.192.508.281.763s.172.513.262.768.156.517.239.774.143.52.219.779q.418,1.562.681,3.16a30.788,30.788,0,0,1,.365,3.223c.063,1.084.074,2.183.034,3.271a31.613,31.613,0,0,1-.9,6.411q-.385,1.57-.924,3.1t-1.248,3.015a35.061,35.061,0,0,1-3.393,5.706,38.085,38.085,0,0,1-4.528,5.115,41.63,41.63,0,0,1-11.743,7.762,43.973,43.973,0,0,1-6.809,2.372q-1.756.458-3.556.78c-1.2.216-2.414.375-3.639.494s-2.461.191-3.708.218q-.469,0-.937.011H264.751l-1.225.012-1.224.015c-.408,0-.817.022-1.226.034-1.634.044-3.269.133-4.9.238-3.268.221-6.531.579-9.773,1.056a122.539,122.539,0,0,0-19.079,4.379,118.883,118.883,0,0,0-17.87,7.281,111.806,111.806,0,0,0-16.072,9.918A105.344,105.344,0,0,0,179.567,836.2a98.1,98.1,0,0,0-11.137,14.187,88.73,88.73,0,0,0-12.883,32.467,85.593,85.593,0,0,0,.854,34.234,88.17,88.17,0,0,0,5.615,16.548,92.508,92.508,0,0,0,8.887,15.388,99.089,99.089,0,0,0,11.83,13.74,107.376,107.376,0,0,0,14.407,11.69,116.847,116.847,0,0,0,34.788,15.889,125.19,125.19,0,0,0,19.272,3.638c3.259.359,6.531.575,9.8.675.409.012.818.028,1.226.035l1.224.015,1.225.012.915,0H783.664Z" transform="translate(-23.052 -610.588)" fill="#8ad0ce"/>
          <path id="Trazado_611024" data-name="Trazado 611024" d="M783.664,1131.793h-519l-1.293-.012-1.293-.017c-.431-.007-.863-.024-1.295-.037-3.452-.106-6.909-.335-10.353-.714a132.274,132.274,0,0,1-20.372-3.846,123.5,123.5,0,0,1-36.77-16.794,113.413,113.413,0,0,1-15.223-12.352,104.741,104.741,0,0,1-12.5-14.52,97.789,97.789,0,0,1-9.393-16.265,93.182,93.182,0,0,1-5.935-17.493,90.421,90.421,0,0,1-.9-36.172,93.8,93.8,0,0,1,13.618-34.321,103.663,103.663,0,0,1,11.77-14.992,111.3,111.3,0,0,1,14.595-12.918A118.191,118.191,0,0,1,206.3,940.858a125.637,125.637,0,0,1,18.889-7.7,129.528,129.528,0,0,1,20.169-4.629q5.14-.757,10.328-1.116c1.726-.111,3.454-.2,5.18-.251.431-.012.864-.031,1.294-.036l1.293-.016,1.293-.012H500.956q.4-.01.8-.01,1.594-.036,3.154-.186c1.039-.1,2.069-.235,3.084-.418s2.019-.4,3.009-.661a37.1,37.1,0,0,0,5.763-2.007,35.347,35.347,0,0,0,9.968-6.59,32.389,32.389,0,0,0,3.846-4.343,29.732,29.732,0,0,0,2.875-4.834q.593-1.255,1.057-2.551t.781-2.626a26.744,26.744,0,0,0,.763-5.442c.034-.928.025-1.867-.028-2.789a25.92,25.92,0,0,0-.31-2.737q-.223-1.353-.577-2.676l-.185-.659q-.106-.326-.2-.655-.115-.324-.222-.65c-.075-.216-.163-.429-.238-.645a29.087,29.087,0,0,0-2.481-4.98,30.723,30.723,0,0,0-3.485-4.552,33.539,33.539,0,0,0-4.363-3.967,36.141,36.141,0,0,0-5.081-3.216q-1.342-.7-2.745-1.3t-2.858-1.064a38.689,38.689,0,0,0-5.974-1.445,41.43,41.43,0,0,0-6.27-.5l-13.434,0H0v16.522H487.6l13.383,0a20,20,0,0,1,2.946.231,17.725,17.725,0,0,1,2.714.658c.44.144.875.3,1.3.483s.848.381,1.261.6a17.161,17.161,0,0,1,2.369,1.5,15.807,15.807,0,0,1,2.047,1.863,14.165,14.165,0,0,1,1.621,2.113,13.561,13.561,0,0,1,1.132,2.272c.031.1.075.194.109.292s.063.2.1.294.055.2.09.3.05.2.083.3q.159.6.263,1.225a11.52,11.52,0,0,1,.146,1.28c.024.437.028.9.012,1.343a12.19,12.19,0,0,1-.353,2.531c-.1.4-.215.8-.352,1.193s-.3.776-.482,1.157a13.861,13.861,0,0,1-1.319,2.221,15.4,15.4,0,0,1-1.8,2.028,16.746,16.746,0,0,1-7.265,3.988q-.673.176-1.367.3c-.463.085-.937.143-1.421.191s-.98.076-1.492.089c-.129,0-.258,0-.387.006H264.72l-1.5.013-1.5.02c-.5.006-1,.027-1.5.041-2,.055-4.007.162-6.01.292q-6.012.407-11.994,1.3a150.657,150.657,0,0,0-23.44,5.38,145.839,145.839,0,0,0-21.948,8.943,137.282,137.282,0,0,0-19.723,12.17,129.127,129.127,0,0,0-16.941,15A120.3,120.3,0,0,0,146.5,971.138a109.019,109.019,0,0,0-15.824,39.882,105.811,105.811,0,0,0-1.329,10.5,103.261,103.261,0,0,0-.27,10.506,105.269,105.269,0,0,0,2.648,20.978,108.2,108.2,0,0,0,6.9,20.331,113.626,113.626,0,0,0,10.912,18.9,121.666,121.666,0,0,0,14.515,16.858,131.539,131.539,0,0,0,17.671,14.339,143.443,143.443,0,0,0,42.717,19.508,153.451,153.451,0,0,0,23.671,4.469c4,.439,8.013.706,12.017.829.5.015,1,.034,1.5.042l1.5.02,1.5.014H783.664Z" transform="translate(-23.052 -742.158)" fill="#137c78"/>
        </g>
      </g>
      <g id="Grupo_1074029" data-name="Grupo 1074029" transform="translate(1936.077 -156.57) rotate(106)">
        <g id="Enmascarar_grupo_1073803-2" data-name="Enmascarar grupo 1073803" transform="translate(160.211 0.888)" clip-path="url(#clip-path-2)">
          <path id="Trazado_611020-2" data-name="Trazado 611020" d="M783.664,517.393h-518.5c-.137,0-.32,0-.306,0l-.193-.005c-.064,0-.129,0-.193,0s-.127-.007-.19-.009c-.507-.016-1-.041-1.481-.1a19.024,19.024,0,0,1-2.774-.521,17.728,17.728,0,0,1-2.61-.948q-.635-.289-1.249-.63c-.407-.23-.8-.478-1.192-.741a16.514,16.514,0,0,1-2.166-1.756,14.449,14.449,0,0,1-1.762-2.048,13.367,13.367,0,0,1-1.291-2.228,12.475,12.475,0,0,1-1.117-4.909c0-.113,0-.226-.007-.339s.009-.226.007-.338c.013-.223.014-.445.036-.662.034-.435.086-.858.158-1.272a12.479,12.479,0,0,1,.685-2.4c.153-.388.323-.771.518-1.148s.413-.748.649-1.114a14.918,14.918,0,0,1,1.648-2.1,16.037,16.037,0,0,1,2.08-1.836,16.262,16.262,0,0,1,2.383-1.474,17.69,17.69,0,0,1,2.576-1.05c.112-.03.22-.07.331-.1s.224-.06.334-.1.226-.053.337-.087.228-.049.34-.08c.455-.1.915-.189,1.386-.259s.949-.128,1.443-.158c.248-.01.5-.031.751-.034.064,0,.126-.011.191-.008s.129,0,.194,0l.193-.006H501.008q1.5-.01,3-.032c4-.081,8.015-.314,12.018-.7s8-.928,11.958-1.633,7.89-1.563,11.768-2.574a146.689,146.689,0,0,0,22.51-7.845,136,136,0,0,0,38.369-25.336,123.143,123.143,0,0,0,14.76-16.69,114.583,114.583,0,0,0,11.175-18.774q2.312-4.906,4.121-9.984a107.049,107.049,0,0,0,3.072-10.269,104.457,104.457,0,0,0,2.951-20.961c.134-3.5.1-7-.116-10.5a103.291,103.291,0,0,0-1.184-10.509,105.887,105.887,0,0,0-5.564-20.629,111.95,111.95,0,0,0-9.677-19.427,119.025,119.025,0,0,0-13.425-17.558,128.287,128.287,0,0,0-16.719-15.186,137.591,137.591,0,0,0-19.547-12.379A147.887,147.887,0,0,0,525.3,253.118a156.17,156.17,0,0,0-24-1.916l-13.706,0H0v16.522H487.6l13.655,0a134.672,134.672,0,0,1,20.672,1.65A127.259,127.259,0,0,1,560.8,282.136,118.574,118.574,0,0,1,577.637,292.8a110.524,110.524,0,0,1,14.4,13.083A102.474,102.474,0,0,1,603.6,321a96.408,96.408,0,0,1,8.328,16.718,91.1,91.1,0,0,1,4.788,17.752,88.888,88.888,0,0,1,1.019,9.052q.273,4.535.1,9.057a89.886,89.886,0,0,1-2.541,18.051q-1.1,4.464-2.642,8.836t-3.546,8.591a98.674,98.674,0,0,1-9.619,16.16,106.125,106.125,0,0,1-12.713,14.375,117.123,117.123,0,0,1-33.044,21.821,126.165,126.165,0,0,1-19.37,6.75q-5,1.3-10.125,2.215c-3.409.607-6.847,1.07-10.294,1.405s-6.9.535-10.356.605l-2.587.028H264.847l-.4.007-.4,0c-.133,0-.265.01-.4.013-.531.011-1.056.045-1.582.074-1.049.069-2.084.188-3.109.338s-2.038.342-3.038.57l-.748.178q-.37.1-.743.192-.367.109-.737.21c-.245.071-.486.153-.732.224a37.96,37.96,0,0,0-5.634,2.3,35.378,35.378,0,0,0-5.121,3.163,33.9,33.9,0,0,0-4.426,3.914,31.556,31.556,0,0,0-3.546,4.52q-.767,1.19-1.411,2.43c-.427.827-.806,1.67-1.144,2.524a27.342,27.342,0,0,0-1.5,5.265q-.237,1.35-.343,2.73a26.171,26.171,0,0,0-.073,2.786,27.681,27.681,0,0,0,.685,5.459,28.179,28.179,0,0,0,1.763,5.2,29.169,29.169,0,0,0,2.81,4.859,31.4,31.4,0,0,0,3.775,4.387,34.716,34.716,0,0,0,4.614,3.742q1.242.843,2.561,1.587t2.7,1.369a38.205,38.205,0,0,0,5.733,2.078,40.271,40.271,0,0,0,6.074,1.144c1.035.118,2.085.181,3.145.215.132,0,.264.013.4.014l.4,0,.4.006c.035,0,.2,0,.343,0h518.5Z" transform="translate(-23.052 -215.877)" fill="#e36849"/>
          <path id="Trazado_611021-2" data-name="Trazado 611021" d="M783.664,670.993h-518.5c-.139,0-.3,0-.355,0l-.468-.007-.468,0c-.156,0-.311-.011-.466-.016-1.243-.039-2.479-.115-3.7-.253a47.3,47.3,0,0,1-7.173-1.352,45,45,0,0,1-6.774-2.454q-1.632-.744-3.189-1.615t-3.017-1.869a40.738,40.738,0,0,1-5.43-4.4,37.029,37.029,0,0,1-4.447-5.166,34.442,34.442,0,0,1-3.316-5.737,33.171,33.171,0,0,1-2.084-6.143,32.523,32.523,0,0,1-.808-6.429,31.033,31.033,0,0,1,.086-3.269q.124-1.622.4-3.215a32.284,32.284,0,0,1,1.776-6.222q.6-1.515,1.353-2.982t1.665-2.869a37.094,37.094,0,0,1,4.178-5.325,39.846,39.846,0,0,1,5.208-4.606,41.74,41.74,0,0,1,6.034-3.726,44.706,44.706,0,0,1,6.654-2.711,45.213,45.213,0,0,1,7.088-1.625c1.21-.177,2.43-.316,3.664-.4.618-.035,1.236-.074,1.858-.088.156,0,.31-.016.467-.015l.468,0,.468-.007H501l2.449-.026q4.9-.1,9.8-.573c3.262-.317,6.515-.755,9.739-1.329s6.422-1.273,9.578-2.1a119.314,119.314,0,0,0,18.323-6.385,110.834,110.834,0,0,0,31.269-20.649,100.462,100.462,0,0,0,12.031-13.6,93.359,93.359,0,0,0,9.1-15.289q1.882-3.994,3.355-8.126a87.235,87.235,0,0,0,2.5-8.358,85.648,85.648,0,0,0-3.184-51.015,91.24,91.24,0,0,0-7.878-15.815,97,97,0,0,0-10.94-14.307,104.617,104.617,0,0,0-13.63-12.381,112.244,112.244,0,0,0-15.93-10.089A120.38,120.38,0,0,0,520.8,406.363,127.494,127.494,0,0,0,501.24,404.8l-13.638,0H0v16.522H487.6l13.587,0a105.97,105.97,0,0,1,16.241,1.295A99.749,99.749,0,0,1,547.9,432.625,93.2,93.2,0,0,1,561.122,441a86.809,86.809,0,0,1,11.313,10.278,80.391,80.391,0,0,1,9.076,11.868,75.694,75.694,0,0,1,6.529,13.106,71.163,71.163,0,0,1,4.631,28.154,70.449,70.449,0,0,1-1.994,14.171q-.858,3.5-2.07,6.925t-2.78,6.732a77.456,77.456,0,0,1-7.544,12.675,83.446,83.446,0,0,1-9.985,11.289,91.971,91.971,0,0,1-25.944,17.134,98.78,98.78,0,0,1-15.183,5.291q-3.922,1.022-7.936,1.737c-2.672.477-5.369.838-8.076,1.1s-5.424.42-8.14.476l-2.037.022H264.815l-.675.008-.675.007c-.225,0-.449.014-.673.02-.9.022-1.794.075-2.689.129-1.789.119-3.566.318-5.33.578a66.3,66.3,0,0,0-10.358,2.376,64.908,64.908,0,0,0-9.713,3.958,60.821,60.821,0,0,0-8.771,5.415,57.681,57.681,0,0,0-7.555,6.684,53.741,53.741,0,0,0-6.076,7.742q-1.319,2.046-2.426,4.186t-1.979,4.358a46.864,46.864,0,0,0-2.13,27.819,48.152,48.152,0,0,0,3.047,8.981,50.3,50.3,0,0,0,4.836,8.369,53.958,53.958,0,0,0,6.46,7.5,58.9,58.9,0,0,0,7.878,6.392q2.124,1.442,4.387,2.715t4.645,2.355a65.465,65.465,0,0,0,9.9,3.582,68.554,68.554,0,0,0,10.473,1.976c1.776.2,3.567.312,5.363.368.225.006.449.018.674.021l.674.007.675.008.392,0h518.5Z" transform="translate(-23.052 -347.448)" fill="#f79621"/>
          <path id="Trazado_611022-2" data-name="Trazado 611022" d="M783.664,824.593h-518.5l-.4,0-.743-.009-.743-.008c-.248,0-.495-.016-.742-.023-1.98-.061-3.956-.188-5.917-.406a75.626,75.626,0,0,1-11.573-2.183A72.342,72.342,0,0,1,234.1,818q-2.628-1.2-5.13-2.6t-4.843-3a64.959,64.959,0,0,1-8.694-7.054,59.6,59.6,0,0,1-7.132-8.284,55.558,55.558,0,0,1-5.342-9.246,53.164,53.164,0,0,1-3.368-9.927,51.653,51.653,0,0,1,2.354-30.714q.971-2.449,2.188-4.817t2.68-4.625a59.286,59.286,0,0,1,6.709-8.547,63.656,63.656,0,0,1,8.337-7.377,67.2,67.2,0,0,1,9.684-5.978,71.656,71.656,0,0,1,10.732-4.373,73.34,73.34,0,0,1,11.449-2.627c1.949-.286,3.912-.505,5.886-.637.987-.061,1.975-.118,2.966-.143.247-.007.495-.021.743-.022l.743-.008.743-.009H500.982l1.9-.021q3.8-.079,7.586-.444c2.521-.245,5.033-.582,7.521-1.026s4.954-.983,7.388-1.617a91.913,91.913,0,0,0,14.136-4.926,85.67,85.67,0,0,0,24.168-15.963,77.774,77.774,0,0,0,9.3-10.517,72.158,72.158,0,0,0,7.025-11.8q1.452-3.081,2.589-6.267t1.926-6.448a65.588,65.588,0,0,0,1.857-13.2,66.288,66.288,0,0,0-4.312-26.227,70.543,70.543,0,0,0-6.079-12.2,74.871,74.871,0,0,0-8.455-11.055,80.913,80.913,0,0,0-10.541-9.577,86.846,86.846,0,0,0-12.314-7.8q-3.268-1.707-6.7-3.157t-7-2.615a94.836,94.836,0,0,0-14.668-3.545,98.8,98.8,0,0,0-15.133-1.206l-13.57,0H0v16.522H487.6l13.519,0a77.3,77.3,0,0,1,11.809.941,73.766,73.766,0,0,1,11.408,2.757q2.774.91,5.45,2.033t5.219,2.459a67.837,67.837,0,0,1,9.6,6.08,63.141,63.141,0,0,1,8.225,7.473,58.349,58.349,0,0,1,6.591,8.616,55.006,55.006,0,0,1,4.729,9.495,51.591,51.591,0,0,1,2.717,10.08,50.136,50.136,0,0,1,.583,5.166c.1,1.73.121,3.467.056,5.2a51.032,51.032,0,0,1-1.447,10.291q-.622,2.535-1.5,5.014T562.55,655.4a56.251,56.251,0,0,1-5.468,9.191,60.78,60.78,0,0,1-7.256,8.2,66.8,66.8,0,0,1-18.844,12.448,71.356,71.356,0,0,1-11,3.831q-2.839.74-5.746,1.259c-1.936.346-3.892.606-5.857.8s-3.942.306-5.924.347l-1.487.016H264.783l-.95.01-.949.011c-.316,0-.633.018-.95.027-1.266.033-2.531.1-3.8.183-2.528.17-5.049.449-7.552.817a94.4,94.4,0,0,0-14.719,3.378,91.868,91.868,0,0,0-13.791,5.619,86.344,86.344,0,0,0-12.422,7.666,81.517,81.517,0,0,0-10.684,9.455,75.9,75.9,0,0,0-8.607,10.964,68.44,68.44,0,0,0-9.941,25.051,66.276,66.276,0,0,0,.659,26.481,68.17,68.17,0,0,0,4.331,12.764,71.4,71.4,0,0,0,6.861,11.878,76.52,76.52,0,0,0,9.145,10.622,83.157,83.157,0,0,0,11.142,9.041,90.229,90.229,0,0,0,26.858,12.271,96.9,96.9,0,0,0,14.872,2.807c2.518.279,5.049.444,7.581.521.316.01.633.023.949.028l.95.011.95.01.865,0H783.664Z" transform="translate(-23.052 -479.018)" fill="#ffbe30"/>
          <path id="Trazado_611023-2" data-name="Trazado 611023" d="M783.664,978.193H265.587l-.877,0-1.018-.01-1.018-.012c-.339-.005-.679-.02-1.018-.03-2.716-.084-5.433-.261-8.135-.56a103.986,103.986,0,0,1-15.972-3.014,96.881,96.881,0,0,1-28.84-13.176,89.2,89.2,0,0,1-11.958-9.7,82.169,82.169,0,0,1-9.817-11.4,76.692,76.692,0,0,1-7.368-12.756,73.182,73.182,0,0,1-4.652-13.71A71.1,71.1,0,0,1,174.2,885.4a73.513,73.513,0,0,1,10.677-26.9,81.472,81.472,0,0,1,9.239-11.77,87.476,87.476,0,0,1,11.466-10.148,92.714,92.714,0,0,1,13.334-8.23,98.679,98.679,0,0,1,14.811-6.035,101.453,101.453,0,0,1,15.809-3.628c2.688-.4,5.394-.694,8.107-.877,1.357-.086,2.714-.161,4.072-.2.339-.009.679-.026,1.019-.029l1.018-.012,1.018-.01H500.969l1.349-.015q2.7-.057,5.37-.315c1.78-.174,3.551-.409,5.3-.722s3.487-.693,5.2-1.139a64.515,64.515,0,0,0,9.949-3.467,60.512,60.512,0,0,0,17.068-11.276,55.123,55.123,0,0,0,6.574-7.43,50.959,50.959,0,0,0,4.95-8.319q1.023-2.168,1.823-4.409t1.354-4.537a46.158,46.158,0,0,0,1.31-9.321c.059-1.572.043-3.149-.05-4.718a45.253,45.253,0,0,0-.528-4.68,46.649,46.649,0,0,0-2.458-9.121,49.814,49.814,0,0,0-4.28-8.592,52.8,52.8,0,0,0-5.97-7.8,57.221,57.221,0,0,0-7.452-6.772,61.52,61.52,0,0,0-8.7-5.507q-2.305-1.2-4.724-2.227t-4.932-1.839a66.8,66.8,0,0,0-10.321-2.495A70.122,70.122,0,0,0,501.1,712l-13.5,0H0v16.522H487.6l13.451,0a48.6,48.6,0,0,1,7.378.586,45.722,45.722,0,0,1,7.061,1.707q1.717.563,3.376,1.258t3.24,1.529a42.456,42.456,0,0,1,5.986,3.789,39.442,39.442,0,0,1,5.136,4.668,36.249,36.249,0,0,1,4.106,5.365,34.288,34.288,0,0,1,2.93,5.883c.09.255.192.508.281.763s.172.513.262.768.156.517.239.774.143.52.219.779q.418,1.562.681,3.16a30.788,30.788,0,0,1,.365,3.223c.063,1.084.074,2.183.034,3.271a31.613,31.613,0,0,1-.9,6.411q-.385,1.57-.924,3.1t-1.248,3.015a35.061,35.061,0,0,1-3.393,5.706,38.085,38.085,0,0,1-4.528,5.115,41.63,41.63,0,0,1-11.743,7.762,43.973,43.973,0,0,1-6.809,2.372q-1.756.458-3.556.78c-1.2.216-2.414.375-3.639.494s-2.461.191-3.708.218q-.469,0-.937.011H264.751l-1.225.012-1.224.015c-.408,0-.817.022-1.226.034-1.634.044-3.269.133-4.9.238-3.268.221-6.531.579-9.773,1.056a122.539,122.539,0,0,0-19.079,4.379,118.883,118.883,0,0,0-17.87,7.281,111.806,111.806,0,0,0-16.072,9.918A105.344,105.344,0,0,0,179.567,836.2a98.1,98.1,0,0,0-11.137,14.187,88.73,88.73,0,0,0-12.883,32.467,85.593,85.593,0,0,0,.854,34.234,88.17,88.17,0,0,0,5.615,16.548,92.508,92.508,0,0,0,8.887,15.388,99.089,99.089,0,0,0,11.83,13.74,107.376,107.376,0,0,0,14.407,11.69,116.847,116.847,0,0,0,34.788,15.889,125.19,125.19,0,0,0,19.272,3.638c3.259.359,6.531.575,9.8.675.409.012.818.028,1.226.035l1.224.015,1.225.012.915,0H783.664Z" transform="translate(-23.052 -610.588)" fill="#8ad0ce"/>
          <path id="Trazado_611024-2" data-name="Trazado 611024" d="M783.664,1131.793h-519l-1.293-.012-1.293-.017c-.431-.007-.863-.024-1.295-.037-3.452-.106-6.909-.335-10.353-.714a132.274,132.274,0,0,1-20.372-3.846,123.5,123.5,0,0,1-36.77-16.794,113.413,113.413,0,0,1-15.223-12.352,104.741,104.741,0,0,1-12.5-14.52,97.789,97.789,0,0,1-9.393-16.265,93.182,93.182,0,0,1-5.935-17.493,90.421,90.421,0,0,1-.9-36.172,93.8,93.8,0,0,1,13.618-34.321,103.663,103.663,0,0,1,11.77-14.992,111.3,111.3,0,0,1,14.595-12.918A118.191,118.191,0,0,1,206.3,940.858a125.637,125.637,0,0,1,18.889-7.7,129.528,129.528,0,0,1,20.169-4.629q5.14-.757,10.328-1.116c1.726-.111,3.454-.2,5.18-.251.431-.012.864-.031,1.294-.036l1.293-.016,1.293-.012H500.956q.4-.01.8-.01,1.594-.036,3.154-.186c1.039-.1,2.069-.235,3.084-.418s2.019-.4,3.009-.661a37.1,37.1,0,0,0,5.763-2.007,35.347,35.347,0,0,0,9.968-6.59,32.389,32.389,0,0,0,3.846-4.343,29.732,29.732,0,0,0,2.875-4.834q.593-1.255,1.057-2.551t.781-2.626a26.744,26.744,0,0,0,.763-5.442c.034-.928.025-1.867-.028-2.789a25.92,25.92,0,0,0-.31-2.737q-.223-1.353-.577-2.676l-.185-.659q-.106-.326-.2-.655-.115-.324-.222-.65c-.075-.216-.163-.429-.238-.645a29.087,29.087,0,0,0-2.481-4.98,30.723,30.723,0,0,0-3.485-4.552,33.539,33.539,0,0,0-4.363-3.967,36.141,36.141,0,0,0-5.081-3.216q-1.342-.7-2.745-1.3t-2.858-1.064a38.689,38.689,0,0,0-5.974-1.445,41.43,41.43,0,0,0-6.27-.5l-13.434,0H0v16.522H487.6l13.383,0a20,20,0,0,1,2.946.231,17.725,17.725,0,0,1,2.714.658c.44.144.875.3,1.3.483s.848.381,1.261.6a17.161,17.161,0,0,1,2.369,1.5,15.807,15.807,0,0,1,2.047,1.863,14.165,14.165,0,0,1,1.621,2.113,13.561,13.561,0,0,1,1.132,2.272c.031.1.075.194.109.292s.063.2.1.294.055.2.09.3.05.2.083.3q.159.6.263,1.225a11.52,11.52,0,0,1,.146,1.28c.024.437.028.9.012,1.343a12.19,12.19,0,0,1-.353,2.531c-.1.4-.215.8-.352,1.193s-.3.776-.482,1.157a13.861,13.861,0,0,1-1.319,2.221,15.4,15.4,0,0,1-1.8,2.028,16.746,16.746,0,0,1-7.265,3.988q-.673.176-1.367.3c-.463.085-.937.143-1.421.191s-.98.076-1.492.089c-.129,0-.258,0-.387.006H264.72l-1.5.013-1.5.02c-.5.006-1,.027-1.5.041-2,.055-4.007.162-6.01.292q-6.012.407-11.994,1.3a150.657,150.657,0,0,0-23.44,5.38,145.839,145.839,0,0,0-21.948,8.943,137.282,137.282,0,0,0-19.723,12.17,129.127,129.127,0,0,0-16.941,15A120.3,120.3,0,0,0,146.5,971.138a109.019,109.019,0,0,0-15.824,39.882,105.811,105.811,0,0,0-1.329,10.5,103.261,103.261,0,0,0-.27,10.506,105.269,105.269,0,0,0,2.648,20.978,108.2,108.2,0,0,0,6.9,20.331,113.626,113.626,0,0,0,10.912,18.9,121.666,121.666,0,0,0,14.515,16.858,131.539,131.539,0,0,0,17.671,14.339,143.443,143.443,0,0,0,42.717,19.508,153.451,153.451,0,0,0,23.671,4.469c4,.439,8.013.706,12.017.829.5.015,1,.034,1.5.042l1.5.02,1.5.014H783.664Z" transform="translate(-23.052 -742.158)" fill="#137c78"/>
        </g>
      </g>
    </g>
  </g>
</svg>
