<svg xmlns="http://www.w3.org/2000/svg" xmlns:xlink="http://www.w3.org/1999/xlink" width="327" height="401" viewBox="0 0 327 401">
  <defs>
    <clipPath id="clip-path">
      <rect id="Rectángulo_378415" data-name="Rectángulo 378415" width="327" height="401" rx="20" transform="translate(-24522.496 -5724)" fill="#fee7bd"/>
    </clipPath>
    <clipPath id="clip-path-2">
      <rect id="Rectángulo_378459" data-name="Rectángulo 378459" width="327" height="401" rx="20" transform="translate(284.668 5976)" fill="#fee7bd"/>
    </clipPath>
    <clipPath id="clip-path-3">
      <rect id="Rectángulo_378476" data-name="Rectángulo 378476" width="436.645" height="59.289" fill="none"/>
    </clipPath>
  </defs>
  <g id="Grupo_1099383" data-name="Grupo 1099383" transform="translate(-284.668 -5976)">
    <g id="Enmascarar_grupo_1073331" data-name="Enmascarar grupo 1073331" transform="translate(24807.164 11700)" clip-path="url(#clip-path)">
      <g id="Grupo_1073727" data-name="Grupo 1073727" transform="translate(-202.84 59.995)">
        <rect id="Rectángulo_378414" data-name="Rectángulo 378414" width="377.631" height="448.609" rx="20" transform="translate(-24343.895 -5808.963)" fill="#fee7bd"/>
      </g>
    </g>
    <g id="Enmascarar_grupo_1073817" data-name="Enmascarar grupo 1073817" clip-path="url(#clip-path-2)">
      <g id="Grupo_1074086" data-name="Grupo 1074086" transform="translate(-393.734 23.926)">
        <g id="Grupo_1074087" data-name="Grupo 1074087" transform="translate(585.668 5995)">
          <g id="Grupo_1074086-2" data-name="Grupo 1074086" transform="translate(0 0)" clip-path="url(#clip-path-3)">
            <path id="Trazado_611083" data-name="Trazado 611083" d="M62.774,6.947h-.289c-.254-.008-.5-.021-.741-.05a9.478,9.478,0,0,1-1.387-.261,8.793,8.793,0,0,1-1.306-.475q-.318-.145-.625-.315c-.2-.111-.4-.24-.6-.371A8.2,8.2,0,0,1,56.748,4.6a7.155,7.155,0,0,1-.881-1.025,6.729,6.729,0,0,1-.646-1.114A6.248,6.248,0,0,1,54.663.007V0H45.215c0,.053-.006.108,0,.162a13.834,13.834,0,0,0,.343,2.731,14.077,14.077,0,0,0,.882,2.6,14.622,14.622,0,0,0,1.406,2.431,15.729,15.729,0,0,0,1.894,2.195,17.4,17.4,0,0,0,2.308,1.872q.622.423,1.281.794t1.353.685a19.163,19.163,0,0,0,2.868,1.039,20.088,20.088,0,0,0,3.038.573c.518.059,1.043.09,1.573.111.066,0,.133.007.2.007H431.485V6.947Z" transform="translate(5.16 0)" fill="#e36849"/>
            <path id="Trazado_611084" data-name="Trazado 611084" d="M64.039,17.966h-.468c-.078,0-.156-.006-.233-.008-.622-.019-1.24-.058-1.851-.127a23.636,23.636,0,0,1-3.589-.676,22.607,22.607,0,0,1-3.388-1.226q-.817-.373-1.6-.808t-1.51-.935a20.313,20.313,0,0,1-2.716-2.2A18.513,18.513,0,0,1,46.461,9.4,17.23,17.23,0,0,1,44.8,6.529,16.615,16.615,0,0,1,43.76,3.456a16.291,16.291,0,0,1-.4-3.216c0-.08.007-.159.007-.24h-9.44a23.457,23.457,0,0,0,.588,5.078A24.033,24.033,0,0,0,36.034,9.57a25.123,25.123,0,0,0,2.419,4.187,27,27,0,0,0,3.231,3.753,29.509,29.509,0,0,0,3.941,3.2q1.063.72,2.195,1.358t2.323,1.178a32.83,32.83,0,0,0,4.951,1.792,34.268,34.268,0,0,0,5.236.988c.891.1,1.783.156,2.683.184.111,0,.223.009.334.01H432.774V17.966Z" transform="translate(3.871 0)" fill="#f79621"/>
            <path id="Trazado_611085" data-name="Trazado 611085" d="M65.3,28.986h-.745c-.124,0-.247-.008-.371-.011-.99-.03-1.979-.094-2.96-.2a37.793,37.793,0,0,1-5.793-1.092,36.283,36.283,0,0,1-5.471-1.98q-1.314-.6-2.562-1.3t-2.421-1.5a32.477,32.477,0,0,1-4.346-3.528,29.879,29.879,0,0,1-3.565-4.145A27.792,27.792,0,0,1,34.395,10.6,26.4,26.4,0,0,1,32.71,5.636,25.866,25.866,0,0,1,32.057,0H22.614a33.112,33.112,0,0,0,.836,7.26,34.056,34.056,0,0,0,2.166,6.385,35.731,35.731,0,0,0,3.433,5.942A38.351,38.351,0,0,0,33.623,24.9a41.57,41.57,0,0,0,5.571,4.522,45.149,45.149,0,0,0,13.435,6.139,48.387,48.387,0,0,0,7.44,1.4c1.259.139,2.526.223,3.788.261.158,0,.316.011.475.014H434.056l.008-8.253Z" transform="translate(2.581 0)" fill="#ffbe30"/>
            <path id="Trazado_611086" data-name="Trazado 611086" d="M66.568,40.007h-.509L65.55,40c-.169,0-.334-.01-.509-.014-1.358-.042-2.717-.13-4.07-.28A52.032,52.032,0,0,1,52.982,38.2a48.467,48.467,0,0,1-14.427-6.591,44.684,44.684,0,0,1-5.982-4.854,41.086,41.086,0,0,1-4.911-5.7,38.293,38.293,0,0,1-3.686-6.381,36.609,36.609,0,0,1-2.327-6.859A35.532,35.532,0,0,1,20.755,0H11.309a42.814,42.814,0,0,0,1.078,9.438A44.11,44.11,0,0,0,15.2,17.716a46.232,46.232,0,0,0,4.445,7.7,49.616,49.616,0,0,0,5.918,6.873,53.732,53.732,0,0,0,7.207,5.848,58.453,58.453,0,0,0,17.4,7.948A62.55,62.55,0,0,0,59.81,47.9c1.63.179,3.267.287,4.9.334.2.006.409.014.613.018l.613.008.613.006h368.8v-8.26Z" transform="translate(1.291 0)" fill="#8ad0ce"/>
            <path id="Trazado_611087" data-name="Trazado 611087" d="M67.836,51.027l-.647-.007-.648-.009c-.216,0-.432-.012-.646-.018-1.728-.053-3.455-.167-5.181-.357a66.128,66.128,0,0,1-10.191-1.924,61.78,61.78,0,0,1-18.393-8.4,56.635,56.635,0,0,1-7.615-6.179,52.5,52.5,0,0,1-6.255-7.263,48.92,48.92,0,0,1-4.7-8.133,46.579,46.579,0,0,1-2.969-8.751A45.2,45.2,0,0,1,9.452,0H0C.005.373,0,.745,0,1.119A52.677,52.677,0,0,0,1.329,11.613,54.248,54.248,0,0,0,4.782,21.783a56.9,56.9,0,0,0,5.46,9.453A60.884,60.884,0,0,0,17.5,39.67a65.83,65.83,0,0,0,8.839,7.173A71.768,71.768,0,0,0,47.711,56.6a76.859,76.859,0,0,0,11.84,2.236c2.005.223,4.011.353,6.016.414.251.008.5.017.752.021l.749.01.75.007H436.644V51.027Z" transform="translate(0 0)" fill="#137c78"/>
          </g>
        </g>
      </g>
    </g>
  </g>
</svg>
