<svg xmlns="http://www.w3.org/2000/svg" xmlns:xlink="http://www.w3.org/1999/xlink" width="400" height="582" viewBox="0 0 400 582">
  <defs>
    <clipPath id="clip-path">
      <rect id="Rectángulo_378651" data-name="Rectángulo 378651" width="400" height="582" transform="translate(1020 4437)" fill="#fff" stroke="#707070" stroke-width="1"/>
    </clipPath>
    <clipPath id="clip-path-2">
      <rect id="Rectángulo_378636" data-name="Rectángulo 378636" width="399.248" height="593.298" fill="none"/>
    </clipPath>
  </defs>
  <g id="Enmascarar_grupo_1073828" data-name="Enmascarar grupo 1073828" transform="translate(-1020 -4437)" clip-path="url(#clip-path)">
    <g id="Grupo_1099353" data-name="Grupo 1099353" transform="translate(1020.752 4421.351)">
      <g id="Grupo_1099350" data-name="Grupo 1099350" transform="translate(0 20)">
        <g id="Grupo_1099349" data-name="Grupo 1099349" clip-path="url(#clip-path-2)">
          <path id="Trazado_873450" data-name="Trazado 873450" d="M393.5,150.967A168.259,168.259,0,0,0,291.585,29.02q-3.984-1.6-8.047-2.993A167.255,167.255,0,0,0,39.961,232.238c.81,1.917,1.666,3.812,2.546,5.7a173.2,173.2,0,0,0,261.748,95.126,168.407,168.407,0,0,0,92.673-149.053,157.864,157.864,0,0,0-3.427-33.041M33.838,167.886a166.856,166.856,0,0,1,3.182-31.494,160.527,160.527,0,0,1,9.217-30.256A162.927,162.927,0,0,1,257.552,17.642q3.755,1.509,7.432,3.21a168.338,168.338,0,0,0-34.3-3.85,174.9,174.9,0,0,0-22.121-1.4A173.148,173.148,0,0,0,35.409,188.751c0,.829.02,1.653.032,2.478a164.014,164.014,0,0,1-1.6-23.343M376.17,245.632A161.63,161.63,0,0,1,347.632,291.9,173.161,173.161,0,0,0,315.989,52.96q-1.386-1.484-2.807-2.937-4.575-4.666-9.517-8.96a163.99,163.99,0,0,1,37.918,28.747,161.624,161.624,0,0,1,34.455,52.626,159.8,159.8,0,0,1,8.84,30.236,178.088,178.088,0,0,1,2.9,31.335,160.876,160.876,0,0,1-11.606,61.624" transform="translate(-1.837 0)" fill="#fbe5bb"/>
        </g>
      </g>
      <g id="Grupo_1099352" data-name="Grupo 1099352">
        <g id="Grupo_1099351" data-name="Grupo 1099351" clip-path="url(#clip-path-2)">
          <path id="Trazado_873451" data-name="Trazado 873451" d="M379.706,629.031c0,3.756-80.033,6.8-178.756,6.8s-178.756-3.046-178.756-6.8,80.032-6.8,178.756-6.8,178.756,3.046,178.756,6.8" transform="translate(-1.517 -42.535)" fill="#e9e8f2"/>
          <path id="Trazado_873452" data-name="Trazado 873452" d="M223.231,192.2l-6.353.1-.415-26.2a2.136,2.136,0,0,1,2.15,1.426l4.466,15.134Z" transform="translate(-14.797 -11.354)" fill="#011627"/>
          <path id="Trazado_873453" data-name="Trazado 873453" d="M379.264,179.557,360.44,160.238c-19.769-.674-70.577,8.628-70.577,8.628s-62.4,9.586-66.387,13.106l.025,9.928c20.332,5.884,63,5.884,75.789.6,19.623,3.882,55.876.883,75.771-1.253a6.9,6.9,0,0,0,4.2-11.686" transform="translate(-15.276 -10.951)" fill="#8ad0ce"/>
          <path id="Trazado_873454" data-name="Trazado 873454" d="M369.447,203.858c-1.67,32.129-1.766,117.246-2.641,200.247-.811,77.066-2.308,152.286-6.365,181.518-.972,7-6.62,12.174-13.272,12.174H76.253c-6.971,0-12.778-5.681-13.367-13.064-2-24.935-4.455-83.654-6.588-149.056-2.833-86.98-5.14-185.782-5.108-232.789,0-7.59,5.6-13.844,12.714-14.226,47.612-2.625,185.258-10.1,293.37.175,7.192.685,12.571,7.336,12.173,15.022" transform="translate(-3.499 -12.549)" fill="#5148a3"/>
          <path id="Trazado_873455" data-name="Trazado 873455" d="M367.18,420.287c-.811,77.066-2.308,152.286-6.365,181.518-.971,7-6.62,12.173-13.271,12.173H76.627c-6.97,0-12.778-5.68-13.367-13.064-2-24.935-4.455-83.654-6.588-149.055,65.275,37.57,193.707,84.576,310.508-31.571" transform="translate(-3.874 -28.73)" fill="#5e54b0"/>
          <rect id="Rectángulo_378637" data-name="Rectángulo 378637" width="370.6" height="274.565" transform="matrix(0.019, -1, 1, 0.019, 65.551, 561.429)" fill="#dedcf2"/>
          <path id="Trazado_873456" data-name="Trazado 873456" d="M359.467,542.908l-.27,14.274C340.562,583.8,313.1,596.5,292,602.533l-25.286-.477c.207-.254.414-.51.6-.78,9.834-.7,68.219-6.938,92.151-58.368" transform="translate(-18.232 -37.112)" fill="#cecbf2"/>
          <path id="Trazado_873457" data-name="Trazado 873457" d="M303.6,546.623a7.7,7.7,0,0,1,3.221-2.112c5.955-3.991,12.005-7.836,18.281-11.332a7.955,7.955,0,0,1,3.936-1.069,55,55,0,0,0,9.611-8.594c2.523-2.982,6.249-7.933,10.1-9.193V207.852H74.177v370.6H252.733c.624-1.014,5.388-1.91,6.593-2.574,15.462-8.518,29.556-19.148,44.1-29.078l.168-.177" transform="translate(-5.071 -14.208)" fill="#f0f0f2"/>
          <path id="Trazado_873458" data-name="Trazado 873458" d="M265.834,600.939s71.873-2.334,96.009-64.129c0,0-42.966,13.526-68.162,6.1,0,0-10.609,42.064-27.848,58.029" transform="translate(-18.172 -36.695)" fill="#dedcf2"/>
          <path id="Trazado_873459" data-name="Trazado 873459" d="M134.914,311.756h-36.6v-36.6h36.6Zm-34.132-2.468h31.665V277.623H100.782Z" transform="translate(-6.721 -18.809)" fill="#b2abf2"/>
          <path id="Trazado_873460" data-name="Trazado 873460" d="M130.5,262.786q-1.937,5.373-3.993,10.688l-4.073,10.649c-2.464,6.151-4.87,12.331-7.38,18.46a66.95,66.95,0,0,1-4.074-5.87c-1.807-2.882-3.548-5.826-5.106-8.934l-7.557,6.881c2.951,1.842,5.718,3.85,8.42,5.918a52.5,52.5,0,0,1,7.526,6.731l1.691,1.925,1.32-2.357c3.707-6.617,7.619-13.133,11.426-19.7l5.872-9.773q2.921-4.894,5.952-9.734Z" transform="translate(-6.721 -17.964)" fill="#fb3569"/>
          <rect id="Rectángulo_378638" data-name="Rectángulo 378638" width="58.878" height="8.752" transform="translate(140.78 250.585)" fill="#5148a3"/>
          <rect id="Rectángulo_378639" data-name="Rectángulo 378639" width="121.932" height="8.752" transform="translate(140.78 264.508)" fill="#d7d5f2"/>
          <rect id="Rectángulo_378640" data-name="Rectángulo 378640" width="71.873" height="8.752" transform="translate(140.78 278.432)" fill="#d7d5f2"/>
          <path id="Trazado_873461" data-name="Trazado 873461" d="M134.914,388.516h-36.6v-36.6h36.6Zm-34.132-2.467h31.665V354.384H100.782Z" transform="translate(-6.721 -24.056)" fill="#b2abf2"/>
          <path id="Trazado_873462" data-name="Trazado 873462" d="M130.5,339.546q-1.937,5.373-3.993,10.688l-4.073,10.649c-2.464,6.151-4.87,12.331-7.38,18.46a66.955,66.955,0,0,1-4.074-5.87c-1.807-2.883-3.548-5.827-5.106-8.935l-7.557,6.882c2.951,1.842,5.718,3.85,8.42,5.918a52.5,52.5,0,0,1,7.526,6.731l1.691,1.925,1.32-2.357c3.707-6.617,7.619-13.133,11.426-19.7l5.872-9.773q2.921-4.894,5.952-9.734Z" transform="translate(-6.721 -23.211)" fill="#fb3569"/>
          <rect id="Rectángulo_378641" data-name="Rectángulo 378641" width="58.878" height="8.752" transform="translate(140.78 322.098)" fill="#5148a3"/>
          <rect id="Rectángulo_378642" data-name="Rectángulo 378642" width="121.932" height="8.752" transform="translate(140.78 336.022)" fill="#d7d5f2"/>
          <rect id="Rectángulo_378643" data-name="Rectángulo 378643" width="71.873" height="8.752" transform="translate(140.78 349.945)" fill="#d7d5f2"/>
          <path id="Trazado_873463" data-name="Trazado 873463" d="M134.914,465.277h-36.6v-36.6h36.6Zm-34.132-2.467h31.665V431.145H100.782Z" transform="translate(-6.721 -29.304)" fill="#b2abf2"/>
          <rect id="Rectángulo_378644" data-name="Rectángulo 378644" width="58.878" height="8.752" transform="translate(140.78 393.611)" fill="#5148a3"/>
          <rect id="Rectángulo_378645" data-name="Rectángulo 378645" width="121.932" height="8.752" transform="translate(140.78 407.535)" fill="#d7d5f2"/>
          <rect id="Rectángulo_378646" data-name="Rectángulo 378646" width="71.873" height="8.752" transform="translate(140.78 421.459)" fill="#d7d5f2"/>
          <path id="Trazado_873464" data-name="Trazado 873464" d="M134.914,542.038h-36.6v-36.6h36.6Zm-34.132-2.468h31.665V507.9H100.782Z" transform="translate(-6.721 -34.551)" fill="#b2abf2"/>
          <rect id="Rectángulo_378647" data-name="Rectángulo 378647" width="58.878" height="8.752" transform="translate(140.78 465.125)" fill="#5148a3"/>
          <rect id="Rectángulo_378648" data-name="Rectángulo 378648" width="121.932" height="8.752" transform="translate(140.78 479.048)" fill="#d7d5f2"/>
          <rect id="Rectángulo_378649" data-name="Rectángulo 378649" width="71.873" height="8.752" transform="translate(140.78 492.973)" fill="#d7d5f2"/>
          <path id="Trazado_873465" data-name="Trazado 873465" d="M304.517,179.1a3.188,3.188,0,0,0-2.484-2.6c-6.2-1.335-25.887-5.075-56.812-6.479,4.611-7.933,10.9-21.25,6.5-28.918-8.226-14.321-45.351-10.741-66.038-4.376-15.285,4.7-7.985,24.163-3.129,34.011-16.956,1.084-35.449,2.937-55.4,5.879a3.22,3.22,0,0,0-2.733,2.835c-.761,7.251-2.34,29.044,3.772,46.228a3.164,3.164,0,0,0,2.838,2.076c18.245.917,150.047,7.131,171.606-3.42a3.2,3.2,0,0,0,1.766-2.4c.8-5.281,3.169-23.819.121-42.832m-89.671-37.206A10.94,10.94,0,1,1,203.9,152.823a10.941,10.941,0,0,1,10.948-10.932" transform="translate(-8.453 -8.965)" fill="#f9b800"/>
          <path id="Trazado_873466" data-name="Trazado 873466" d="M132.824,188.443c-1.381,7.869-3.75,26,1.621,35.539a.84.84,0,0,0,.721.424c8.931.174,139.985,2.537,164.12-7.741a.838.838,0,0,0-.307-1.612l-152.807-3.114a.813.813,0,0,1-.649-.33,74.343,74.343,0,0,1-11.073-23.227.831.831,0,0,0-1.625.06" transform="translate(-8.961 -12.835)" fill="#f9a200"/>
          <path id="Trazado_873467" data-name="Trazado 873467" d="M231.88,134.542a26.57,26.57,0,0,1,12.252.932,19.321,19.321,0,0,1,5.886,2.97,13.949,13.949,0,0,1,5.689,12.536,20.5,20.5,0,0,1-1.688,6.376,29.821,29.821,0,0,1-7.191,9.864.815.815,0,0,1-1.312-.893l.007-.017a94.385,94.385,0,0,0,3.808-10.592,24.41,24.41,0,0,0,.681-4.988,10.621,10.621,0,0,0-.9-4.314c-1.145-2.589-3.727-4.686-6.863-6.324a66.718,66.718,0,0,0-10.421-3.959l-.058-.018a.809.809,0,0,1,.111-1.573" transform="translate(-15.804 -9.174)" fill="#f9ca43"/>
          <path id="Trazado_873468" data-name="Trazado 873468" d="M228.861,161.1a10.927,10.927,0,1,1-15.42-15.435,11.947,11.947,0,0,0-.6,3.787,12.258,12.258,0,0,0,12.253,12.253,11.85,11.85,0,0,0,3.771-.6" transform="translate(-14.34 -9.958)" fill="#f9a200"/>
          <path id="Trazado_873469" data-name="Trazado 873469" d="M209.787,180.163l85.534,4.008a.122.122,0,0,1,.116.136l-1.763,15.575a.122.122,0,0,1-.239.014L290.7,188.163a.123.123,0,0,0-.107-.094Z" transform="translate(-14.341 -12.316)" fill="#f9ca43"/>
          <path id="Trazado_873470" data-name="Trazado 873470" d="M379.613,74.115a12.931,12.931,0,1,0-25.057-6.4c-1.768,6.918-.9,18.148,6.022,19.917a8.524,8.524,0,0,0,2.943.181l2.447,11.725,9.853-2.056-2.93-14.038c3.273-2.667,5.908-6.142,6.721-9.324" transform="translate(-24.183 -3.963)" fill="#f4c587"/>
          <path id="Trazado_873471" data-name="Trazado 873471" d="M381.25,70.09c-.347,5.548-2.44,8.95-4.969,11.39a11.222,11.222,0,0,0-1.592,1.914,12.7,12.7,0,0,0-1.7,3.646c-1.592-.359-4.354-2.17-4.006-5.29a10.525,10.525,0,0,0-.424-4.238,1.638,1.638,0,0,1,.629-1.759,7.241,7.241,0,0,0,1.631-2,1.686,1.686,0,0,0-.514-2.247,4.155,4.155,0,0,0-3.6-.116c-1.259,2.761-4.1.861-3.865-2.658.129-1.759-.488-2.5-1.117-2.8a1.813,1.813,0,0,0-1.875.347,16.2,16.2,0,0,1-5.547,2.928,10.543,10.543,0,0,1-4.6.411c-7-1.066-6.639-8.81-5.252-9.246,1.438-.45,4.623,1.682,4.969,1.926-1.028-1.015-3.262-8,4.572-6.061,7.911,1.965,13.432-1.592,19.07-1.515,4.816.051,4.366,2.748,4.135,3.544a1.259,1.259,0,0,1-.077.219c4.5-.886,4.482,6.06,4.122,11.608" transform="translate(-23.491 -3.74)" fill="#011627"/>
          <path id="Trazado_873472" data-name="Trazado 873472" d="M383.4,70.35c-.347,5.548-2.44,8.95-4.969,11.39a11.223,11.223,0,0,0-1.592,1.914C375.492,79.147,375.7,70.672,375.2,67c-.475-3.518,2.158-6.651,4.161-8.475a1.255,1.255,0,0,1-.077.219c4.5-.886,4.482,6.06,4.123,11.608" transform="translate(-25.644 -4.001)" fill="#011d33"/>
          <path id="Trazado_873473" data-name="Trazado 873473" d="M364.238,89.739s3.909-.661,5.715-3.511c0,0-.186,5.993-5.09,6.508Z" transform="translate(-24.899 -5.894)" fill="#f2b35e"/>
          <path id="Trazado_873474" data-name="Trazado 873474" d="M362.652,231.2c1.914,12.97,2.94,36.842-5.946,70.319l-9.541-4.006c-.693-3.788-4.623-35.391-6.665-57.556-.77-8.269-1.259-15.23-1.233-18.928.026-2.825,15.165-52.482,32.874-61.292l15.487,5.072,7.7,2.53s-2.9,29.3-32.681,63.86" transform="translate(-23.192 -10.919)" fill="#7cafae"/>
          <path id="Trazado_873475" data-name="Trazado 873475" d="M387.629,164.809c-1.194,4.585-14.164,52.393-37.048,71.334-4.4,3.647-7.68,4.636-10.08,3.814-.77-8.27-1.259-15.23-1.233-18.928.025-2.826,15.165-52.483,32.874-61.293Z" transform="translate(-23.192 -10.919)" fill="#8ad0ce"/>
          <path id="Trazado_873476" data-name="Trazado 873476" d="M356.1,311.412l-2.653,5.773-23.815-10.939a2.133,2.133,0,0,1,2.215-1.323l15.578,2.5Z" transform="translate(-22.533 -20.842)" fill="#011627"/>
          <path id="Trazado_873477" data-name="Trazado 873477" d="M362.244,100.579c-.821-.866-3.41-.206-5.989.773a20.088,20.088,0,0,0-9.342,7.375l-18.4,24.074a4.373,4.373,0,0,0,.346,5.711L346.329,156.4l5.561-6.147L339.5,136.884s30.44-28.186,22.748-36.3" transform="translate(-22.396 -6.848)" fill="#f4c587"/>
          <path id="Trazado_873478" data-name="Trazado 873478" d="M337.626,120.521l12.329,7.287s13.351-13.484,14.787-22.377a4.725,4.725,0,0,0-4.652-5.561,11,11,0,0,0-4.974,1.411,23.727,23.727,0,0,0-5.5,4.909Z" transform="translate(-23.08 -6.827)" fill="#ed2458"/>
          <path id="Trazado_873479" data-name="Trazado 873479" d="M396.128,162.968,352.25,156.4s-3.568-45.118,1.2-52.628,20.658-8.466,25.022-7.852c.688.1,2.677.533,4.758,1.008a7.556,7.556,0,0,1,5.876,7.473l-.362,25.022a15.787,15.787,0,0,0,.448,3.971Z" transform="translate(-23.992 -6.546)" fill="#fb3569"/>
          <path id="Trazado_873480" data-name="Trazado 873480" d="M400.116,147.217a1.987,1.987,0,0,1-1.528,2.132c-7.076,1.683-34.479,7.924-44.11,5.959-.8-.155-1.643-1.272-2.363-2.582a32.995,32.995,0,0,1-2.055-4.661c7.474-2.941,36.97-7.962,36.97-7.962-.076-.1-.154-.193-.231-.3-7.936-10.106-12.174-22.562-14.215-30.511a9.355,9.355,0,0,1,6.523-11.339,13.7,13.7,0,0,1,3.351-.578,4.726,4.726,0,0,1,2.569.5c10.158,6.023,14.254,41.106,15.089,49.337" transform="translate(-23.93 -6.656)" fill="#f4c587"/>
          <path id="Trazado_873481" data-name="Trazado 873481" d="M388.533,151.987c-9.516,6.37-24.732,5.715-36.418,3.852a32.995,32.995,0,0,1-2.055-4.661c7.474-2.941,36.97-7.962,36.97-7.962-.076-.1-.154-.193-.231-.3a14.2,14.2,0,0,1,2.4,1.823,4.655,4.655,0,0,1-.668,7.243" transform="translate(-23.93 -9.77)" fill="#f4ce9c"/>
          <path id="Trazado_873482" data-name="Trazado 873482" d="M398.514,121.944l-17.885,6.167s-14.861-23.289-2.34-30.138c0,0,14.233-9.2,20.225,23.97" transform="translate(-25.516 -6.617)" fill="#fb3569"/>
          <path id="Trazado_873483" data-name="Trazado 873483" d="M373.277,108.628a35.551,35.551,0,0,0,7.349,20.292l.573-.2a52.718,52.718,0,0,0,7.185,11.854s-16.156-4.337-15.107-31.949" transform="translate(-25.513 -7.426)" fill="#ed2458"/>
          <path id="Trazado_873484" data-name="Trazado 873484" d="M352.226,161.161c-.1,1.015-.193,1.823-.269,2.389a.982.982,0,0,1-.938.911H309.13a.99.99,0,0,1-.924-.835q-.27-1.27-.463-2.542a90.991,90.991,0,0,1,.475-30.421.979.979,0,0,1,.861-.835c13.8-.976,31.706-.18,39.2.231,1.233.064,2.2.129,2.8.167a.987.987,0,0,1,.874.9c1.733,11.968.86,24.309.269,30.036" transform="translate(-20.964 -8.843)" fill="#d7d5f2"/>
          <path id="Trazado_873485" data-name="Trazado 873485" d="M369.711,166.823H340.43v-3.328h25.954a3.328,3.328,0,0,1,3.328,3.328" transform="translate(-23.271 -11.176)" fill="#d7d5f2"/>
          <path id="Trazado_873486" data-name="Trazado 873486" d="M348.283,130.059c-4.725,7.4-21.663,31.59-40.54,31.025a90.991,90.991,0,0,1,.475-30.421.978.978,0,0,1,.86-.835c13.805-.976,31.706-.18,39.205.231" transform="translate(-20.964 -8.843)" fill="#dddcf2"/>
          <path id="Trazado_873487" data-name="Trazado 873487" d="M342.079,614.8a68.168,68.168,0,0,0,64.82-47.175c9.47-29.183,18.433-63.8,13.523-78.58-9.236-27.789-53.107,41.781-53.107,41.781s49.065-76.837,30.017-94.273-61.28,19.129-59.455,94.273l-7.8,83.974Z" transform="translate(-22.563 -29.549)" fill="#89cecc"/>
          <path id="Trazado_873488" data-name="Trazado 873488" d="M328.288,612.415c-3.795-13.914-13.043-56.323,10.208-71.479a24.67,24.67,0,0,0,11.436-20.967c-.131-9.679,1.386-21.185,8.331-26.871a11.061,11.061,0,0,0,3.863-6.224c1.234-5.775,4.138-16.028,10.006-21.917a6.738,6.738,0,0,1,11.434,4.7,64.781,64.781,0,0,1-2.64,19.949,11.205,11.205,0,0,0,.854,8.5c2.89,5.482,6.175,16.693-2.571,32.133a24.1,24.1,0,0,0-2.077,18.606c5.63,19.311,10.742,60.057-42.918,67.516a5.394,5.394,0,0,1-5.925-3.942" transform="translate(-22.097 -31.651)" fill="#d0ebea"/>
          <path id="Trazado_873489" data-name="Trazado 873489" d="M341.955,484.006q5.69-9.457,11.186-19.016c3.619-6.4,7.185-12.822,10.582-19.334s6.594-13.125,9.7-19.779,6.016-13.4,8.778-20.225a.233.233,0,0,1,.3-.129.236.236,0,0,1,.137.281,190.67,190.67,0,0,1-7.555,20.813c-2.885,6.8-6.131,13.439-9.55,19.98s-6.991,13-10.787,19.328q-5.643,9.52-11.816,18.7a.578.578,0,0,1-.975-.62" transform="translate(-23.37 -27.72)" fill="#3c5756"/>
          <path id="Trazado_873490" data-name="Trazado 873490" d="M385.417,404.712A.244.244,0,0,1,385,404.6c-.671-2.657-4.12-17.793,4.094-18.952,8.628-1.219-1.009,16.255-3.681,19.067" transform="translate(-26.23 -26.358)" fill="#3c5756"/>
          <path id="Trazado_873491" data-name="Trazado 873491" d="M381.941,414.619a.243.243,0,0,1-.229-.361c1.285-2.42,8.887-15.955,15.754-11.3,7.215,4.887-11.658,11.373-15.525,11.664" transform="translate(-26.091 -27.479)" fill="#3c5756"/>
          <path id="Trazado_873492" data-name="Trazado 873492" d="M380.952,414.171a.243.243,0,0,0,.379-.2c.1-2.738.28-18.26-7.993-17.665-8.691.625,4.409,15.679,7.613,17.864" transform="translate(-25.321 -27.09)" fill="#3c5756"/>
          <path id="Trazado_873493" data-name="Trazado 873493" d="M376.872,424.294a.243.243,0,0,0,.353-.242c-.225-2.731-1.864-18.167-10.011-16.6-8.558,1.641,6.219,15.053,9.657,16.847" transform="translate(-24.922 -27.845)" fill="#3c5756"/>
          <path id="Trazado_873494" data-name="Trazado 873494" d="M373,432.337a.243.243,0,0,0,.254-.344c-1.1-2.508-7.7-16.562-14.887-12.423-7.552,4.348,10.8,12.2,14.632,12.767" transform="translate(-24.374 -28.629)" fill="#3c5756"/>
          <path id="Trazado_873495" data-name="Trazado 873495" d="M368.07,443.156a.243.243,0,0,0,.254-.344c-1.1-2.508-7.7-16.562-14.887-12.423-7.552,4.348,10.8,12.2,14.632,12.767" transform="translate(-24.037 -29.369)" fill="#3c5756"/>
          <path id="Trazado_873496" data-name="Trazado 873496" d="M362.728,452.546a.243.243,0,0,0,.254-.344c-1.1-2.508-7.7-16.562-14.887-12.423-7.552,4.348,10.8,12.2,14.632,12.767" transform="translate(-23.672 -30.011)" fill="#3c5756"/>
          <path id="Trazado_873497" data-name="Trazado 873497" d="M356.943,463.4a.243.243,0,0,0,.254-.344c-1.1-2.508-7.7-16.562-14.887-12.423-7.552,4.348,10.8,12.2,14.632,12.767" transform="translate(-23.276 -30.753)" fill="#3c5756"/>
          <path id="Trazado_873498" data-name="Trazado 873498" d="M352.337,471.41a.242.242,0,0,0,.17-.391c-1.641-2.2-11.222-14.41-17.3-8.762-6.382,5.932,13.26,9.457,17.126,9.153" transform="translate(-22.828 -31.498)" fill="#3c5756"/>
          <path id="Trazado_873499" data-name="Trazado 873499" d="M345.641,481.881a.243.243,0,0,0,.171-.392c-1.641-2.195-11.222-14.41-17.3-8.762-6.382,5.933,13.259,9.458,17.126,9.154" transform="translate(-22.37 -32.214)" fill="#3c5756"/>
          <path id="Trazado_873500" data-name="Trazado 873500" d="M377.363,424.865a.243.243,0,0,1-.105-.415c1.971-1.9,13.389-12.422,18.478-5.872,5.348,6.88-14.605,7.207-18.373,6.287" transform="translate(-25.783 -28.468)" fill="#3c5756"/>
          <path id="Trazado_873501" data-name="Trazado 873501" d="M374.476,433.38a.243.243,0,0,1,.015-.428c2.426-1.275,16.332-8.174,19.384-.461,3.207,8.1-16.04,2.828-19.4.889" transform="translate(-25.59 -29.319)" fill="#3c5756"/>
          <path id="Trazado_873502" data-name="Trazado 873502" d="M369.566,443.41a.243.243,0,0,1,.057-.424c2.541-1.029,17.061-6.516,19.334,1.461,2.388,8.38-16.24,1.225-19.391-1.037" transform="translate(-25.256 -30.091)" fill="#3c5756"/>
          <path id="Trazado_873503" data-name="Trazado 873503" d="M364.228,453.708a.243.243,0,0,1,.071-.422c2.571-.946,17.262-5.962,19.277,2.084,2.117,8.454-16.272.7-19.347-1.662" transform="translate(-24.892 -30.821)" fill="#3c5756"/>
          <path id="Trazado_873504" data-name="Trazado 873504" d="M358.511,464.3a.244.244,0,0,1,.088-.419c2.609-.84,17.49-5.257,19.177,2.864,1.772,8.532-16.287.041-19.264-2.445" transform="translate(-24.501 -31.577)" fill="#3c5756"/>
          <path id="Trazado_873505" data-name="Trazado 873505" d="M353.856,472.162a.244.244,0,0,1,.192-.383c2.736-.146,18.253-.613,17.808,7.669-.467,8.7-15.757-4.123-18-7.286" transform="translate(-24.186 -32.246)" fill="#3c5756"/>
          <path id="Trazado_873506" data-name="Trazado 873506" d="M347.739,482.624a.244.244,0,0,1,.192-.383c2.736-.146,18.253-.613,17.808,7.669-.467,8.7-15.757-4.122-18-7.286" transform="translate(-23.768 -32.961)" fill="#3c5756"/>
          <path id="Trazado_873507" data-name="Trazado 873507" d="M117.02,562.981c-10.926-9.413-42.308-39.4-31.507-64.968a24.667,24.667,0,0,0-2.242-23.776c-5.522-7.952-10.7-18.338-8.12-26.937a11.056,11.056,0,0,0-.278-7.32c-2.206-5.478-5.532-15.6-3.96-23.765a6.738,6.738,0,0,1,12.1-2.5,64.76,64.76,0,0,1,8.966,18.014,11.2,11.2,0,0,0,5.462,6.569c5.461,2.929,14.453,10.388,15.836,28.079a24.106,24.106,0,0,0,8.682,16.587c15.466,12.861,42.488,43.783,2.172,79.972a5.392,5.392,0,0,1-7.116.046" transform="translate(-4.82 -28.086)" fill="#89cecc"/>
          <path id="Trazado_873508" data-name="Trazado 873508" d="M140.591,617.1H84.022c-40.637,0-76.047-28.83-83.043-68.86C-.906,537.458-.3,528,4.861,522.275,24.14,500.912,55.4,562.407,55.4,562.407S29.35,494.036,53.839,470.9s60.961,40.456,53.145,88.64c0,0,4.828-64.566,31.161-76.344s23.027,119.317,2.446,133.907" transform="translate(0 -31.855)" fill="#d0ebea"/>
          <path id="Trazado_873509" data-name="Trazado 873509" d="M125.943,604.737q-6.16-9.183-11.816-18.7-5.693-9.489-10.787-19.328c-3.419-6.541-6.666-13.18-9.551-19.981a190.584,190.584,0,0,1-7.554-20.812.233.233,0,0,1,.441-.152Q90.819,536,95.454,545.988c3.1,6.654,6.313,13.257,9.7,19.778S112.111,578.7,115.73,585.1q5.482,9.567,11.187,19.016a.578.578,0,0,1-.975.619" transform="translate(-5.894 -35.93)" fill="#3c5756"/>
          <path id="Trazado_873510" data-name="Trazado 873510" d="M85.794,524.824a.244.244,0,0,0,.413-.115c.671-2.657,4.12-17.792-4.094-18.952-8.628-1.219,1.009,16.255,3.681,19.067" transform="translate(-5.373 -34.569)" fill="#3c5756"/>
          <path id="Trazado_873511" data-name="Trazado 873511" d="M88.645,534.729a.242.242,0,0,0,.228-.361c-1.286-2.421-8.887-15.956-15.754-11.3-7.215,4.887,11.658,11.373,15.526,11.664" transform="translate(-4.887 -35.69)" fill="#3c5756"/>
          <path id="Trazado_873512" data-name="Trazado 873512" d="M90.108,534.282a.243.243,0,0,1-.379-.2c-.1-2.738-.28-18.26,7.993-17.665,8.691.625-4.409,15.679-7.613,17.864" transform="translate(-6.132 -35.3)" fill="#3c5756"/>
          <path id="Trazado_873513" data-name="Trazado 873513" d="M94.063,544.4a.243.243,0,0,1-.353-.242c.225-2.731,1.864-18.168,10.01-16.606,8.558,1.641-6.219,15.053-9.657,16.848" transform="translate(-6.406 -36.055)" fill="#3c5756"/>
          <path id="Trazado_873514" data-name="Trazado 873514" d="M97.637,552.448a.243.243,0,0,1-.254-.344c1.1-2.508,7.7-16.562,14.887-12.423,7.552,4.348-10.8,12.2-14.632,12.767" transform="translate(-6.655 -36.84)" fill="#3c5756"/>
          <path id="Trazado_873515" data-name="Trazado 873515" d="M102.568,563.267a.243.243,0,0,1-.254-.344c1.1-2.508,7.7-16.562,14.887-12.424,7.552,4.348-10.8,12.2-14.632,12.767" transform="translate(-6.992 -37.579)" fill="#3c5756"/>
          <path id="Trazado_873516" data-name="Trazado 873516" d="M107.909,572.657a.243.243,0,0,1-.254-.345c1.1-2.507,7.7-16.561,14.887-12.422,7.552,4.348-10.8,12.2-14.632,12.767" transform="translate(-7.358 -38.221)" fill="#3c5756"/>
          <path id="Trazado_873517" data-name="Trazado 873517" d="M113.695,583.508a.243.243,0,0,1-.254-.344c1.1-2.508,7.7-16.562,14.887-12.423,7.552,4.348-10.8,12.2-14.632,12.767" transform="translate(-7.753 -38.963)" fill="#3c5756"/>
          <path id="Trazado_873518" data-name="Trazado 873518" d="M118.161,591.521a.243.243,0,0,1-.17-.392c1.641-2.2,11.222-14.409,17.3-8.762,6.382,5.933-13.26,9.458-17.126,9.154" transform="translate(-8.062 -39.709)" fill="#3c5756"/>
          <path id="Trazado_873519" data-name="Trazado 873519" d="M124.858,601.991a.243.243,0,0,1-.17-.392c1.64-2.195,11.222-14.409,17.3-8.762,6.382,5.933-13.26,9.458-17.126,9.154" transform="translate(-8.52 -40.424)" fill="#3c5756"/>
          <path id="Trazado_873520" data-name="Trazado 873520" d="M93.073,544.976a.243.243,0,0,0,.105-.415c-1.971-1.9-13.389-12.422-18.478-5.872-5.348,6.88,14.605,7.207,18.373,6.287" transform="translate(-5.045 -36.679)" fill="#3c5756"/>
          <path id="Trazado_873521" data-name="Trazado 873521" d="M95.929,553.491a.243.243,0,0,0-.015-.428c-2.425-1.275-16.332-8.174-19.384-.461-3.207,8.1,16.04,2.828,19.4.889" transform="translate(-5.207 -37.529)" fill="#3c5756"/>
          <path id="Trazado_873522" data-name="Trazado 873522" d="M100.853,563.52a.243.243,0,0,0-.057-.424c-2.541-1.029-17.061-6.516-19.334,1.461-2.388,8.38,16.24,1.225,19.391-1.037" transform="translate(-5.554 -38.301)" fill="#3c5756"/>
          <path id="Trazado_873523" data-name="Trazado 873523" d="M106.2,573.819a.243.243,0,0,0-.071-.422c-2.572-.946-17.262-5.962-19.277,2.084-2.117,8.454,16.272.7,19.347-1.662" transform="translate(-5.925 -39.032)" fill="#3c5756"/>
          <path id="Trazado_873524" data-name="Trazado 873524" d="M111.925,584.415a.244.244,0,0,0-.088-.419c-2.609-.84-17.49-5.257-19.177,2.864-1.772,8.532,16.287.041,19.264-2.445" transform="translate(-6.326 -39.788)" fill="#3c5756"/>
          <path id="Trazado_873525" data-name="Trazado 873525" d="M116.683,592.273a.243.243,0,0,0-.192-.383c-2.736-.146-18.253-.613-17.808,7.669.467,8.7,15.757-4.122,18-7.286" transform="translate(-6.745 -40.457)" fill="#3c5756"/>
          <path id="Trazado_873526" data-name="Trazado 873526" d="M122.8,602.734a.244.244,0,0,0-.192-.383c-2.736-.146-18.253-.613-17.808,7.669.467,8.7,15.757-4.123,18-7.286" transform="translate(-7.163 -41.172)" fill="#3c5756"/>
          <path id="Trazado_873527" data-name="Trazado 873527" d="M190.212,376.835l-2.962-23.56,3.06-1.427,4.663-2.17,169.731-21.336,3.6,28.671L198.578,378.348Z" transform="translate(-12.8 -22.445)" fill="#ffaa48"/>
          <path id="Trazado_873528" data-name="Trazado 873528" d="M190.536,351.847l4.662-2.17,169.731-21.336,3.6,28.67L200.392,378.148a1.763,1.763,0,0,1,1.538-1.992c33.824-4.8,139.849-15.249,136.582-29.942-3.642-16.363-125.248,8.58-147.976,5.633" transform="translate(-13.025 -22.445)" fill="#ff8e1d"/>
          <path id="Trazado_873529" data-name="Trazado 873529" d="M384.785,356.34l-3.6-28.67,25.753-3.237a1.61,1.61,0,0,1,1.028.208,1.65,1.65,0,0,1,.84,1.243l3.188,25.361a1.665,1.665,0,0,1-1.452,1.859Z" transform="translate(-26.057 -22.177)" fill="#ff6e69"/>
          <path id="Trazado_873530" data-name="Trazado 873530" d="M397.774,340.3c-.736-7.888,5.183-12.75,11.318-15.647a1.651,1.651,0,0,1,.841,1.243l3.188,25.361a1.667,1.667,0,0,1-1.453,1.859l-.351.044c-5.629-.713-12.663-3.508-13.542-12.859" transform="translate(-27.187 -22.193)" fill="#ff8b87"/>
          <path id="Trazado_873531" data-name="Trazado 873531" d="M152.55,369.582l11.055-5.058,1.565-.718L192.6,351.243l-7.148,8.174,8.949,6.161-7.147,8.184,8.948,6.151-25.44-4.6-5.95-1.082-11.932-2.159Z" transform="translate(-10.428 -24.01)" fill="#fdddb7"/>
          <path id="Trazado_873532" data-name="Trazado 873532" d="M164.7,365.967l-.314-1.442,1.565-.718,27.432-12.563-7.148,8.174,18.506,4.96-16.7,9.385,8.948,6.151-25.44-4.6-5.95-1.082a7.874,7.874,0,0,1-1.552-1.287s18.807,7.344,20.031-2.262-2.9-14.964-19.375-4.718" transform="translate(-11.214 -24.01)" fill="#fdc078"/>
          <path id="Trazado_873533" data-name="Trazado 873533" d="M152.55,370.5l12.62-5.776,5.6,11.509L152.883,373Z" transform="translate(-10.428 -24.932)" fill="#fb3569"/>
          <path id="Trazado_873534" data-name="Trazado 873534" d="M372.165,326.941l4.622.922a.993.993,0,0,0,.62-.078l4.25-2.037a.988.988,0,0,1,1.407.768L386.895,357a.987.987,0,0,1-1.173,1.092l-4.622-.921a.987.987,0,0,0-.62.078l-4.25,2.036a.987.987,0,0,1-1.407-.768l-3.831-30.478a.988.988,0,0,1,1.173-1.093" transform="translate(-25.36 -22.261)" fill="#b2abf2"/>
          <path id="Trazado_873535" data-name="Trazado 873535" d="M382.108,355.176l-3.15-25.058a.428.428,0,0,1,.2-.418l2.665-1.641a.429.429,0,0,1,.651.318l3.045,27.452a.429.429,0,0,1-.547.459l-2.561-.754a.428.428,0,0,1-.3-.358" transform="translate(-25.905 -22.421)" fill="#beb8f2"/>
          <path id="Trazado_873536" data-name="Trazado 873536" d="M379.611,355.515l-3.15-25.058a.429.429,0,0,0-.3-.356l-2.99-.93a.429.429,0,0,0-.552.47l3.844,27.351a.429.429,0,0,0,.644.309l2.295-1.364a.427.427,0,0,0,.207-.422" transform="translate(-25.471 -22.5)" fill="#beb8f2"/>
          <path id="Trazado_873537" data-name="Trazado 873537" d="M266.551,373.681c.024-1.493-.105-4.416-1.484-4.368-1.85.063-1.095,3.919-1.095,3.919l-.016.266-2.714.349,0,0-6.45.818a6.728,6.728,0,0,0,3.108.438h0l.669,2.051,7.961-.327.015-3.119c0-.008,0-.017,0-.025" transform="translate(-17.417 -25.246)" fill="#f4c587"/>
          <path id="Trazado_873538" data-name="Trazado 873538" d="M341.175,363.565c-.29-1.465-.682-4.364.683-4.563,1.833-.266,1.775,3.662,1.775,3.662l.063.26,2.732-.139,0,0,6.492-.419a6.738,6.738,0,0,1-2.98,1.06l-.293,2.138-7.893,1.1-.569-3.067c0-.008-.007-.016-.008-.024" transform="translate(-23.303 -24.54)" fill="#f4c587"/>
          <path id="Trazado_873539" data-name="Trazado 873539" d="M343.292,469.639s-.078.117-.209.366c-1.92,3.134-16.079,26.279-31.57,46.668-7.85,10.332-16.039,19.958-23.158,25.927,6.909,11.4,17.254,33.4,22.086,68.286H299.928c-.183-.275-.443-.718-.783-1.319-5.329-9.5-29.728-57.941-35.579-69.566a4.864,4.864,0,0,1-.209-.457,5.432,5.432,0,0,1,.274-4.545c5.251-9.848,25.039-46.185,38.179-61.428l18.4-1.737Z" transform="translate(-17.977 -32.104)" fill="#a9a1f0"/>
          <path id="Trazado_873540" data-name="Trazado 873540" d="M314.655,516.834c-1.829,2.4-3.671,4.767-5.512,7.053-.731-17.1.1-41.261,8.046-51.319l6.165-.575c-7.275,8.438-8.894,28.33-8.7,44.84" transform="translate(-21.118 -32.265)" fill="#948be8"/>
          <path id="Trazado_873541" data-name="Trazado 873541" d="M302.1,612.372c-.2,1.045-1.281,1.8-2.926,2.3-5.33-9.5-29.728-57.94-35.579-69.565-.077-.144-.143-.3-.21-.457,4.325-.666,10.673-.771,15.857,4.414,7.836,7.837,23.837,58.045,22.858,63.309" transform="translate(-18.004 -37.209)" fill="#bbb5f2"/>
          <path id="Trazado_873542" data-name="Trazado 873542" d="M311.972,621.254v6.462H285.316a2.172,2.172,0,0,1,1.485-2.163l15.462-4.3Z" transform="translate(-19.504 -42.468)" fill="#011627"/>
          <path id="Trazado_873543" data-name="Trazado 873543" d="M367.779,621.254v6.462H341.123a2.172,2.172,0,0,1,1.485-2.163l15.462-4.3Z" transform="translate(-23.319 -42.468)" fill="#011627"/>
          <path id="Trazado_873544" data-name="Trazado 873544" d="M365.072,610.9H354.558c-.392-.6-1.241-2.011-2.456-4.062-7.836-13.362-30.5-53.447-35.044-64.563a7.948,7.948,0,0,1-.287-1.267,188.169,188.169,0,0,1-1.7-24.32c-.2-16.509,1.424-36.4,8.7-44.839l22.87-1.829,1.881-.157s8.8,28.617-5.538,72.752c6.909,11.4,17.254,33.4,22.086,68.285" transform="translate(-21.537 -32.119)" fill="#b2abf2"/>
          <path id="Trazado_873545" data-name="Trazado 873545" d="M352.229,611.763c-7.837-13.362-30.5-53.447-35.044-64.563a7.946,7.946,0,0,1-.287-1.267c3.121-3.631,8.2-6.57,15.046-.627,10.907,9.483,27.377,54.819,20.285,66.457" transform="translate(-21.663 -37.044)" fill="#bbb5f2"/>
          <path id="Trazado_873546" data-name="Trazado 873546" d="M300.928,408.318s-2.142,10.032-3.513,16.224c-.6,2.769-1.058,4.78-1.1,4.78-.065-.223-35.331-.744-41.13-1.608a1,1,0,0,1-.875-.953c-.614-15.7-.066-38.609,3.291-48.85a.264.264,0,0,1,.236-.209l8.855-.313a.244.244,0,0,1,.262.249c-.065,8.475-.523,35.931.535,36.859h.013c20.128-5.343,33.424-6.179,33.424-6.179" transform="translate(-17.369 -25.798)" fill="#ed5442"/>
          <path id="Trazado_873547" data-name="Trazado 873547" d="M301.512,410.587S299.37,420.619,298,426.811c-14.76,1.67-35.358-.64-35.358-2.913,0-1.869,2.769-4.767,5.433-7.132h.013c20.128-5.343,33.425-6.179,33.425-6.179" transform="translate(-17.954 -28.067)" fill="#ed6a5a"/>
          <path id="Trazado_873548" data-name="Trazado 873548" d="M347.158,465.889l-43.521,3.278a.846.846,0,0,1-.914-.705c-.575-3.226-2.835-16.158-4.232-28.539-1.175-10.475-1.724-20.545-.117-24.02,1.568-3.37,5.159-5.877,9.169-7.64.457-.223.94-.418,1.411-.6a47.15,47.15,0,0,1,9.783-2.638v-.013c.209-.026.405-.052.6-.078.3-.039.588-.078.862-.117a19.548,19.548,0,0,1,2.364-.157c.836.013,3.552.249,6.1.5,1.254.117,2.469.249,3.4.34a2.042,2.042,0,0,1,1.829,1.8l3.4,29.049.091.731a16.438,16.438,0,0,0,.98,3.945l4.911,12.174L347.9,464.7a.871.871,0,0,1-.744,1.189" transform="translate(-20.328 -27.662)" fill="#ede4e4"/>
          <path id="Trazado_873549" data-name="Trazado 873549" d="M347.24,468.477l-43.521,3.278a.846.846,0,0,1-.914-.705c-.575-3.226-2.835-16.158-4.232-28.539,6.061,7.523,22.91,24.438,44.775,13.27l4.637,11.507a.871.871,0,0,1-.744,1.189" transform="translate(-20.41 -30.249)" fill="#e6d6d6"/>
          <path id="Trazado_873550" data-name="Trazado 873550" d="M339.232,436.38c-17.829-2.86-12.656-28.8-12.656-28.8l4.036-2.39c1.254.117,2.469.248,3.4.339a2.043,2.043,0,0,1,1.829,1.8Z" transform="translate(-22.276 -27.698)" fill="#e6d6d6"/>
          <path id="Trazado_873551" data-name="Trazado 873551" d="M372.452,402.095a1.467,1.467,0,0,1-.1.392,2.346,2.346,0,0,1-1.228,1.371c-.392.183-.849.391-1.345.64a.046.046,0,0,1-.026.013c-6.309,2.951-20.389,9.626-28.382,13.414-.823.392-1.58.744-2.259,1.071a8.311,8.311,0,0,1-9.34-1.358c-3.839-3.736-3.683-9.418-3.16-12.749a4.177,4.177,0,0,1,3.134-3.435c4.076-1.032,13.153-2.743,27.991-2.743,0,0-14.982-24.138-17.372-31.948l3-.314,6.047-.614s18.038,19.37,22.975,35.148a2.3,2.3,0,0,1,.065,1.111" transform="translate(-22.308 -25.008)" fill="#ed6a5a"/>
          <path id="Trazado_873552" data-name="Trazado 873552" d="M372.452,402.14a1.467,1.467,0,0,1-.1.392,2.346,2.346,0,0,1-1.228,1.371c-.392.183-.849.391-1.345.64a.046.046,0,0,1-.026.013c-6.309,2.951-20.389,9.626-28.382,13.414-.823.392-1.58.744-2.259,1.071a8.311,8.311,0,0,1-9.34-1.358c-3.839-3.736-3.683-9.418-3.16-12.749a4.177,4.177,0,0,1,3.134-3.435c4.076-1.032,13.153-2.743,27.991-2.743,0,0-14.982-24.138-17.372-31.948l3-.314c2.207,5.839,15.687,37.839,29.088,35.645" transform="translate(-22.308 -25.053)" fill="#ed5442"/>
          <path id="Trazado_873553" data-name="Trazado 873553" d="M309.271,368.015a13.152,13.152,0,0,0-14.623,11.5c-.864,7.213,1.507,18.42,8.72,19.284a8.687,8.687,0,0,0,2.992-.21l2.335,6.667a5.131,5.131,0,0,0,9.662-3.384l-3.128-8.935c2.946-3.124,5.141-6.979,5.538-10.295a13.152,13.152,0,0,0-11.5-14.623" transform="translate(-20.13 -25.15)" fill="#f4c587"/>
          <path id="Trazado_873554" data-name="Trazado 873554" d="M320.945,404.825a5.464,5.464,0,0,1-.261,1.659,6.812,6.812,0,0,1-3.2,3.735,4.744,4.744,0,0,1-1.62.6,7.127,7.127,0,0,1-1.358.13,8.528,8.528,0,0,1-4.637-1.45,12.438,12.438,0,0,1-1.58-1.228c.457-.222.94-.417,1.411-.6a8.43,8.43,0,0,0,2.3,1.464,5.574,5.574,0,0,0,6.975-2.286,4.348,4.348,0,0,0,.51-1.816v-.013c.209-.026.4-.052.6-.078.3-.039.588-.078.862-.117" transform="translate(-21.074 -27.673)" fill="#ed6a5a"/>
          <path id="Trazado_873555" data-name="Trazado 873555" d="M307.232,400.557a7.533,7.533,0,0,0,4.775-3.786s.906,5.006-3.465,7.346Z" transform="translate(-21.002 -27.123)" fill="#f2b35e"/>
          <path id="Trazado_873556" data-name="Trazado 873556" d="M323.933,375.243c-.575,4.937-2.4,5.186-1.345,8.2.757,2.13-2.691,7.993-4.78,11.246-.863,1.345-1.49,2.247-1.49,2.247a18.318,18.318,0,0,1-7.17-5.878c-.85-1.293-1.319-3.736,0-4.559,1.411-.875,3.069-2.194,3.16-3.6.118-1.881-2.691-2.091-4.049-2.078a.518.518,0,0,1-.509-.666c.378-1.45,1.11-4.715.013-5.629-1.411-1.2-5.408-2.011-9.822-.444s-7.863,2.991-9.366.117c-2.4-4.624,1.15-4.741,4.729-5.825,0,0-.392-3.344,1.267-4.794,1.645-1.424,14.015-4.885,23.171,5.5.1.1.183.2.274.3,0,0,6.492.941,5.917,5.865" transform="translate(-19.673 -24.737)" fill="#011627"/>
          <path id="Trazado_873557" data-name="Trazado 873557" d="M325.939,375.773c-.575,4.937-2.4,5.186-1.345,8.2.757,2.13-2.691,7.993-4.78,11.246-5.526-3.017-.811-15.282-.811-15.282-2.886-3.5-.757-7.993.745-10.331.1.1.183.2.274.3,0,0,6.492.941,5.917,5.865" transform="translate(-21.678 -25.266)" fill="#011d33"/>
        </g>
      </g>
    </g>
  </g>
</svg>
