<svg xmlns="http://www.w3.org/2000/svg" xmlns:xlink="http://www.w3.org/1999/xlink" width="400" height="450" viewBox="0 0 400 450">
  <defs>
    <clipPath id="clip-path">
      <rect id="Rectángulo_379008" data-name="Rectángulo 379008" width="347.961" height="449.729" transform="translate(0 0)" fill="none"/>
    </clipPath>
  </defs>
  <g id="Grupo_1099624" data-name="Grupo 1099624" transform="translate(-180 -19465)">
    <g id="Grupo_1099623" data-name="Grupo 1099623" transform="translate(204.509 19465.135)">
      <g id="Grupo_1099622" data-name="Grupo 1099622" transform="translate(0 -0.003)" clip-path="url(#clip-path)">
        <path id="Trazado_874153" data-name="Trazado 874153" d="M152.216,1262.991s-45.122-130.224-10.563-159.167c23.1-19.345,47.583,23.3,76.807.74,26.017-20.085-10.255-70.682,33.155-83.918,45.628-13.912,83.009,98.757,121.295,83.178,46.457-18.9,92.669,19.471,52.733,159.167Z" transform="translate(-102.609 -813.262)" fill="#fee7bd"/>
        <path id="Trazado_874154" data-name="Trazado 874154" d="M88.99,2201.375c-.021-.055-.527-1.372-1.378-3.825l1.905-.661c.838,2.417,1.35,3.749,1.355,3.762Z" transform="translate(-69.892 -1752.554)" fill="#dce6ff"/>
        <path id="Trazado_874155" data-name="Trazado 874155" d="M15.187,1085.647c-.79-2.522-1.571-5.136-2.323-7.767l1.939-.554c.748,2.616,1.524,5.213,2.309,7.719Zm327.586-.059-2-.246c.329-2.677.646-5.373.944-8.012l2,.226c-.3,2.646-.616,5.349-.946,8.033M10.727,1070.061c-.678-2.6-1.336-5.243-1.957-7.864l1.962-.465c.617,2.606,1.272,5.237,1.946,7.82Zm333.854-.549-2.006-.2c.273-2.679.533-5.381.773-8.03l2.008.182c-.241,2.656-.5,5.365-.775,8.052M6.993,1054.291c-.562-2.639-1.1-5.313-1.6-7.945l1.982-.374c.494,2.617,1.028,5.275,1.587,7.9Zm339.049-.891-2.01-.159c.213-2.689.41-5.4.588-8.044l2.012.135c-.178,2.657-.376,5.372-.589,8.069M3.988,1038.366c-.439-2.674-.847-5.37-1.214-8.014l2-.277c.364,2.627.77,5.307,1.206,7.964Zm343.131-1.11-2.013-.109c.146-2.7.274-5.406.382-8.055l2.015.082c-.108,2.657-.238,5.377-.384,8.082M1.763,1022.309c-.3-2.7-.571-5.413-.8-8.068l2.009-.17c.223,2.637.489,5.333.79,8.013Zm346.012-1.223-2.016-.054c.072-2.7.124-5.416.155-8.061l2.016.023c-.031,2.656-.083,5.378-.155,8.091M.4,1006.153c-.151-2.713-.261-5.439-.328-8.1L2.087,998c.066,2.643.175,5.349.325,8.042Zm345.546-1.243c-.012-2.7-.046-5.413-.1-8.06l2.016-.043c.056,2.658.091,5.381.1,8.094ZM2.016,989.957,0,989.942c.021-2.722.089-5.45.2-8.109l2.015.086c-.112,2.636-.18,5.34-.2,8.038M345.6,988.795c-.107-2.71-.241-5.417-.4-8.047l2.013-.119c.157,2.643.291,5.364.4,8.087ZM2.708,973.9.7,973.735c.217-2.715.489-5.432.808-8.076l2,.241c-.315,2.618-.584,5.308-.8,8m341.933-1.185c-.218-2.7-.468-5.4-.741-8.019l2.006-.209c.275,2.634.526,5.348.745,8.066Zm-223.157-7.36-.937-1.786c1.475-.774,2.768-2.76,3.843-5.9l1.908.653c-1.265,3.7-2.84,6-4.814,7.035m-8.392-1.694a37.585,37.585,0,0,1-6.164-5.542l1.48-1.37a35.652,35.652,0,0,0,5.824,5.247ZM4.637,957.946l-1.99-.327c.442-2.692.946-5.378,1.5-7.984l1.973.418c-.546,2.576-1.044,5.231-1.481,7.892m338.325-1.25c-.353-2.7-.741-5.379-1.155-7.964l1.991-.319c.417,2.6.808,5.3,1.164,8.022Zm-241.293-4.838c-1.465-1.88-3.054-4.012-4.858-6.518l1.637-1.178c1.789,2.485,3.363,4.6,4.812,6.456Zm26.562-1.557-1.987-.345c.4-2.335.761-4.94,1.089-7.965l2,.218c-.333,3.067-.7,5.714-1.107,8.092m112.351-7.626-.288-2c1.916-.277,3.968-1.493,6.272-3.718l1.4,1.451c-2.619,2.529-5.035,3.923-7.385,4.263m-232.61-.431-1.95-.515c.7-2.637,1.463-5.262,2.279-7.8l1.92.617c-.805,2.507-1.562,5.1-2.249,7.7m332.435-1.434c-.519-2.681-1.082-5.327-1.672-7.863l1.964-.457c.6,2.56,1.164,5.231,1.688,7.936ZM232.6,939.3a33.4,33.4,0,0,1-4.689-6.868l1.773-.961a31.814,31.814,0,0,0,4.388,6.451Zm-140.467-.579c-1.529-2.2-3.074-4.433-4.614-6.648l1.656-1.151c1.54,2.215,3.084,4.451,4.613,6.647Zm37.936-4.61-2.011-.153c.184-2.424.359-5.063.536-8.068l2.013.118c-.177,3.016-.353,5.666-.538,8.1m123.234-1.982-1.625-1.195c1.348-1.832,2.827-4,4.523-6.634l1.7,1.092c-1.718,2.667-3.221,4.871-4.593,6.736M12.885,926.979,11,926.256c.977-2.543,2.033-5.068,3.14-7.5l1.836.833c-1.09,2.4-2.13,4.888-3.093,7.394m69.994-1.524c-1.721-2.417-3.274-4.55-4.749-6.521l1.615-1.208c1.484,1.984,3.047,4.129,4.777,6.559Zm253.871-.29c-.738-2.645-1.529-5.226-2.35-7.671l1.911-.642c.832,2.477,1.633,5.092,2.381,7.771Zm-112.343-.134c-.957-2.261-1.93-4.741-2.973-7.58l1.893-.7c1.033,2.808,1.993,5.258,2.938,7.489Zm37.8-6.518-1.717-1.057c1.412-2.294,2.8-4.566,4.245-6.89l1.713,1.064c-1.441,2.32-2.83,4.591-4.24,6.883m-131.16-.608-2.014-.1c.133-2.64.264-5.379.395-8.089l2.014.1c-.131,2.711-.262,5.451-.395,8.093m-57.854-5.329c-1.8-2.22-3.557-4.27-5.225-6.093l1.488-1.361c1.7,1.853,3.48,3.934,5.3,6.185Zm-53.671-.17-1.775-.957c1.376-2.553,2.792-4.91,4.208-7.006l1.671,1.129c-1.379,2.041-2.76,4.34-4.1,6.834m312.1-2.424c-1.046-2.563-2.157-5.011-3.3-7.277l1.8-.91c1.17,2.314,2.3,4.812,3.37,7.425Zm-112.878-.192c-.765-2.262-1.6-4.78-2.54-7.7l1.919-.62c.941,2.911,1.77,5.422,2.532,7.674Zm52.035-4.963-1.686-1.107c1.64-2.5,3.15-4.691,4.615-6.7l1.63,1.187c-1.446,1.986-2.937,4.152-4.56,6.623m-138.939-3.1-2.014-.1c.153-3,.3-5.645.439-8.094l2.013.117c-.142,2.444-.285,5.087-.438,8.08m-69.515-.9a51.042,51.042,0,0,0-6.232-4.878l1.1-1.688a53.11,53.11,0,0,1,6.482,5.071Zm-33.81-1.474-1.473-1.378a31.171,31.171,0,0,1,6.384-5.335l1.053,1.72a29.168,29.168,0,0,0-5.964,4.992M324.37,895.79a53.669,53.669,0,0,0-4.754-6.327l1.512-1.335a55.73,55.73,0,0,1,4.935,6.565Zm-110.638-1.413q-1.222-3.838-2.46-7.709l1.92-.616q1.245,3.881,2.461,7.713ZM49.119,892.539a17.626,17.626,0,0,0-7.514-.765l-.25-2a19.653,19.653,0,0,1,8.369.843Zm231.17-.622-1.527-1.317a59.832,59.832,0,0,1,5.749-5.871l1.33,1.515a57.838,57.838,0,0,0-5.552,5.672m-147.5-6.349-2.012-.141c.2-2.827.409-5.549.628-8.09l2.009.173c-.219,2.531-.429,5.241-.626,8.057m181.077-1.424a24.9,24.9,0,0,0-6.824-3.591l.634-1.914a26.911,26.911,0,0,1,7.38,3.877Zm-21.632-2.374-.927-1.791a21.348,21.348,0,0,1,8.027-2.412l.168,2.01a19.337,19.337,0,0,0-7.268,2.193m-83.461-2.79c-.913-2.768-1.758-5.273-2.582-7.658l1.905-.659c.828,2.394,1.676,4.908,2.592,7.685ZM134.2,869.472l-2-.218c.305-2.809.64-5.523.993-8.066l2,.278c-.351,2.524-.682,5.218-.986,8.007m69.283-5.754c-.977-2.645-1.951-5.177-2.9-7.525l1.871-.753c.952,2.366,1.934,4.916,2.917,7.579Zm-67.038-10.21-1.985-.357c.5-2.809,1.059-5.494,1.648-7.981l1.962.465c-.58,2.451-1.127,5.1-1.625,7.873m61-4.728c-1.152-2.566-2.321-5-3.475-7.246l1.793-.923c1.17,2.273,2.354,4.743,3.521,7.343ZM140.2,837.914l-1.92-.617a69.636,69.636,0,0,1,2.931-7.655l1.834.84a67.6,67.6,0,0,0-2.845,7.432m49.853-3.367a73.671,73.671,0,0,0-4.508-6.571l1.594-1.235a75.657,75.657,0,0,1,4.633,6.752Zm-43.124-10.892-1.638-1.176a26.1,26.1,0,0,1,5.784-5.96l1.185,1.632a24.086,24.086,0,0,0-5.33,5.5m33.316-1.533a31.341,31.341,0,0,0-6.283-4.587l.962-1.772a33.348,33.348,0,0,1,6.691,4.88Zm-21.155-6.983-.392-1.978a24.342,24.342,0,0,1,8.362-.124l-.322,1.991a22.319,22.319,0,0,0-7.647.112" transform="translate(0 -648.353)" fill="#fee7bd"/>
        <path id="Trazado_874156" data-name="Trazado 874156" d="M1679.024,2205.067l-2-.275q.277-2.005.541-3.992l2,.266q-.265,1.991-.542,4" transform="translate(-1337.837 -1755.674)" fill="#dce6ff"/>
        <path id="Trazado_874157" data-name="Trazado 874157" d="M460.654,170.361a13.664,13.664,0,0,0-5.08.978v-36.45c-73.071-1.2-112.7,63.4-39.046,91.8l-16.3,25.728,33.409-21.161a122.635,122.635,0,0,0,21.933,1.951v-36.45c20.357,7.067,26.609-25.4,5.08-26.4m-56.024,18.3c-6.026-.027-6.025-9.19,0-9.215,6.057.1,6.056,9.113,0,9.215m13.981,0c-6.053-.1-6.052-9.113,0-9.215,6.057.1,6.056,9.113,0,9.215m13.983,0c-6.057-.1-6.056-9.113,0-9.215,6.053.1,6.052,9.113,0,9.215" transform="translate(-300.948 -107.593)" fill="#ffc278"/>
        <path id="Trazado_874158" data-name="Trazado 874158" d="M968.488,184.078c-1.585-34.677-47.2-49.591-78.411-49.16v36.447c24.683-7.1,24.657,32.531,0,25.423v36.447a122.612,122.612,0,0,0,21.933-1.951l33.409,21.161-16.295-25.728c23.523-8.486,39.363-24.4,39.363-42.64m-45.269,4.608c-6.057-.1-6.056-9.113,0-9.215,6.057.1,6.056,9.113,0,9.215m13.98,0c-6.053-.1-6.052-9.113,0-9.215,6.026.027,6.025,9.19,0,9.215m13.983,0c-6.057-.1-6.056-9.113,0-9.215,6.053.1,6.052,9.113,0,9.215" transform="translate(-710.053 -107.622)" fill="#ffc278"/>
        <path id="Trazado_874159" data-name="Trazado 874159" d="M281.892,571.1V565.43h-3.256a11.483,11.483,0,0,0-1.15-2.857l2.327-2.327-4.01-4.01-2.239,2.239a11.49,11.49,0,0,0-3.293-1.411v-3.349H264.6v3.349a11.489,11.489,0,0,0-3.077,1.279l-2.107-2.106-4.01,4.01,2.106,2.107a11.49,11.49,0,0,0-1.278,3.077h-3.256V571.1h3.256a11.485,11.485,0,0,0,1.411,3.292l-2.239,2.239,4.01,4.01,2.327-2.327a11.485,11.485,0,0,0,2.857,1.15v3.349h5.671v-3.349a11.484,11.484,0,0,0,3.077-1.279l2.455,2.455,4.01-4.01-2.455-2.455a11.487,11.487,0,0,0,1.279-3.076Zm-14.118,2.335c-6.772.4-7.424-9.86-.677-10.341,6.772-.4,7.424,9.86.677,10.341" transform="translate(-201.812 -441.723)" fill="#8ad0ce"/>
        <path id="Trazado_874160" data-name="Trazado 874160" d="M1297.809,30.318V20.427h-5.678a20.009,20.009,0,0,0-2.006-4.982l4.058-4.058-6.994-6.994-3.905,3.9a20.05,20.05,0,0,0-5.743-2.461V0h-9.891V5.838a20.025,20.025,0,0,0-5.366,2.23l-3.674-3.674-6.994,6.994,3.674,3.674a20.031,20.031,0,0,0-2.23,5.366h-5.678v9.891h5.678a20.044,20.044,0,0,0,2.461,5.743l-3.9,3.9,6.994,6.994,4.058-4.058a20.031,20.031,0,0,0,4.982,2.006v5.841h9.891V44.908a20.043,20.043,0,0,0,5.366-2.23l4.282,4.282,6.994-6.994-4.282-4.282a20.026,20.026,0,0,0,2.23-5.366Zm-24.623,4.072c-11.812.7-12.948-17.2-1.18-18.035,11.811-.7,12.948,17.2,1.18,18.035" transform="translate(-995.091 0.003)" fill="#8ad0ce"/>
        <path id="Trazado_874161" data-name="Trazado 874161" d="M464.055,468.3q2.56,0,5.083-.079v16.607a122.634,122.634,0,0,1-21.933-1.951L413.8,504.037l16.3-25.728c-16.834-6.339-28.9-14.82-35.84-28.022,16.711,11.011,41.779,18.012,69.8,18.012" transform="translate(-314.512 -359.213)" fill="#ffa84a"/>
        <path id="Trazado_874162" data-name="Trazado 874162" d="M968.488,240.459c0-13.632-8.852-25.972-23.153-34.875,18.162,31.787-13.306,55.755-55.259,64.614v19.419a122.614,122.614,0,0,0,21.933-1.951l33.409,21.161L929.125,283.1c23.523-8.486,39.363-24.4,39.363-42.64m-17.305,4.608c-6.057-.1-6.056-9.113,0-9.215,6.053.1,6.052,9.113,0,9.215" transform="translate(-710.053 -164.003)" fill="#ffa84a"/>
        <path id="Trazado_874163" data-name="Trazado 874163" d="M461.76,134.851v9.063C404.213,153.5,385,175.046,385,175.046c6.624-22.944,38.378-41,76.756-40.195" transform="translate(-307.135 -107.555)" fill="#ffc278"/>
        <path id="Trazado_874164" data-name="Trazado 874164" d="M923.22,139.551c-11.982,0-23.01.48-33.143,1.331v-5.929a118.293,118.293,0,0,1,33.143,4.6" transform="translate(-710.053 -107.658)" fill="#ffc278"/>
        <path id="Trazado_874165" data-name="Trazado 874165" d="M203.336,28.956V21.789h-5.489a20.066,20.066,0,0,0-.867-3.259l4.749-2.742-3.584-6.207-4.755,2.745a20.33,20.33,0,0,0-2.383-2.383l2.745-4.755L187.545,1.6,184.8,6.354a20.066,20.066,0,0,0-3.259-.867V0h-7.168v5.49a20.069,20.069,0,0,0-3.259.867L168.377,1.6l-6.207,3.584,2.745,4.755a20.33,20.33,0,0,0-2.383,2.383l-4.755-2.745-3.584,6.207,4.749,2.742a20.066,20.066,0,0,0-.867,3.259h-5.49v7.168h5.49a20.063,20.063,0,0,0,.867,3.259l-4.749,2.742,3.584,6.207,4.755-2.745a20.347,20.347,0,0,0,2.383,2.383l-2.745,4.755,6.207,3.584,2.742-4.749a20.048,20.048,0,0,0,3.259.867v5.489h7.168V45.259a20.045,20.045,0,0,0,3.259-.867l2.742,4.749,6.207-3.584L191.007,40.8a20.348,20.348,0,0,0,2.383-2.383l4.755,2.745,3.584-6.207-4.749-2.742a20.063,20.063,0,0,0,.867-3.259Zm-25.375,6.521c-13.283-.227-13.28-19.984,0-20.209,13.282.227,13.28,19.984,0,20.209" transform="translate(-121.724 0.003)" fill="#8ad0ce"/>
        <path id="Trazado_874166" data-name="Trazado 874166" d="M1558.387,271.116v-4.7h-3.6a13.131,13.131,0,0,0-.569-2.138l3.116-1.8-2.351-4.073-3.12,1.8a13.329,13.329,0,0,0-1.563-1.563l1.8-3.12-4.073-2.351-1.8,3.116a13.16,13.16,0,0,0-2.138-.569v-3.6h-4.7v3.6a13.166,13.166,0,0,0-2.138.569l-1.8-3.116-4.073,2.351,1.8,3.12a13.321,13.321,0,0,0-1.563,1.563l-3.12-1.8-2.351,4.073,3.116,1.8a13.169,13.169,0,0,0-.569,2.138h-3.6v4.7h3.6a13.168,13.168,0,0,0,.569,2.138l-3.116,1.8,2.351,4.073,3.12-1.8a13.353,13.353,0,0,0,1.563,1.563l-1.8,3.12,4.073,2.351,1.8-3.116a13.166,13.166,0,0,0,2.138.569v3.6h4.7v-3.6a13.16,13.16,0,0,0,2.138-.569l1.8,3.116,4.073-2.351-1.8-3.12a13.362,13.362,0,0,0,1.563-1.563l3.12,1.8,2.351-4.073-3.116-1.8a13.131,13.131,0,0,0,.569-2.138Zm-16.65,4.278c-8.715-.149-8.714-13.112,0-13.26,8.715.149,8.714,13.112,0,13.26" transform="translate(-1216.629 -201.123)" fill="#8ad0ce"/>
        <path id="Trazado_874167" data-name="Trazado 874167" d="M60.072,357.317v-3.167h-2.8a18.447,18.447,0,0,0-1.684-6.3l2.421-1.4-1.583-2.742L54,345.112a18.674,18.674,0,0,0-4.609-4.609l1.4-2.423L48.051,336.5l-1.4,2.421a18.453,18.453,0,0,0-6.3-1.684v-2.8H37.19v2.8a18.453,18.453,0,0,0-6.3,1.684l-1.4-2.421-2.742,1.583,1.4,2.423a18.674,18.674,0,0,0-4.609,4.609l-2.423-1.4-1.583,2.742,2.421,1.4a18.451,18.451,0,0,0-1.684,6.3h-2.8v3.167h2.8a18.453,18.453,0,0,0,1.684,6.3l-2.421,1.4,1.583,2.742,2.423-1.4a18.674,18.674,0,0,0,4.609,4.609l-1.4,2.423,2.742,1.583,1.4-2.421a18.453,18.453,0,0,0,6.3,1.684v2.8h3.167v-2.8a18.453,18.453,0,0,0,6.3-1.684l1.4,2.421,2.742-1.583-1.4-2.423A18.674,18.674,0,0,0,54,366.356l2.423,1.4,1.583-2.742-2.421-1.4a18.447,18.447,0,0,0,1.684-6.3Zm-21.3,10.488c-15.868-.271-15.865-23.874,0-24.143,15.867.271,15.865,23.874,0,24.143" transform="translate(-13.94 -266.793)" fill="#ffa84a"/>
        <path id="Trazado_874168" data-name="Trazado 874168" d="M1341.516,491.348v-4.324h-3.822a25.2,25.2,0,0,0-2.3-8.6l3.306-1.908-2.162-3.745-3.309,1.91a25.5,25.5,0,0,0-6.294-6.294l1.911-3.309-3.745-2.162-1.909,3.306a25.2,25.2,0,0,0-8.6-2.3V460.1h-4.324v3.822a25.2,25.2,0,0,0-8.6,2.3l-1.908-3.306-3.745,2.162,1.91,3.309a25.5,25.5,0,0,0-6.294,6.294l-3.309-1.91-2.162,3.745,3.306,1.908a25.2,25.2,0,0,0-2.3,8.6h-3.822v4.324h3.822a25.2,25.2,0,0,0,2.3,8.6l-3.306,1.909,2.162,3.745,3.309-1.911a25.5,25.5,0,0,0,6.294,6.294l-1.91,3.309,3.745,2.162,1.908-3.306a25.2,25.2,0,0,0,8.6,2.3v3.822h4.324V514.45a25.191,25.191,0,0,0,8.6-2.3l1.909,3.306,3.745-2.162-1.911-3.309a25.5,25.5,0,0,0,6.294-6.294l3.309,1.911,2.162-3.745-3.306-1.909a25.2,25.2,0,0,0,2.3-8.6ZM1312.43,505.67c-21.669-.37-21.665-32.6,0-32.969,21.668.37,21.665,32.6,0,32.969" transform="translate(-1023.78 -367.041)" fill="#ffa84a"/>
        <path id="Trazado_874169" data-name="Trazado 874169" d="M347.965,910.292S321.153,913.766,332,977.953H370.88s2.063-61.83-22.915-67.661" transform="translate(-262.788 -726.179)" fill="#163260"/>
        <path id="Trazado_874170" data-name="Trazado 874170" d="M644.991,1597.345l-37.8,13.92a1.254,1.254,0,0,1-1.611-.744c.373-.794-12.817-30.8-10.112-30.663.034-.1,37.867-13.9,37.942-13.979a1.255,1.255,0,0,1,1.611.744l10.719,29.112a1.254,1.254,0,0,1-.743,1.611" transform="translate(-474.736 -1249.107)" fill="#8a9edd"/>
        <path id="Trazado_874171" data-name="Trazado 874171" d="M645,1652.786l-37.8,13.92a1.254,1.254,0,0,1-1.611-.744c.356-.742-12.805-30.84-10.112-30.663l.157.027s12.114,28.671,49.63,14.858l.149.083c.4.833.733,2.117-.409,2.519" transform="translate(-474.747 -1304.548)" fill="#7689d6"/>
        <rect id="Rectángulo_379006" data-name="Rectángulo 379006" width="37.882" height="28.828" transform="translate(123.317 332.295) rotate(-20.214)" fill="#fff"/>
        <path id="Trazado_874172" data-name="Trazado 874172" d="M662.737,1677.318l-35.549,13.089-8.054-21.875c6.14,7.331,19.409,17.017,43.6,8.766Z" transform="translate(-493.91 -1331.06)" fill="#f5faff"/>
        <path id="Trazado_874173" data-name="Trazado 874173" d="M798.652,1608.1c-.842-2.285-2.532-6.877-3.372-9.161-.415-1.229-2.219.014-2.951.168l-1.172-3.178a.861.861,0,0,0-1.1-.51l-1.71.631c-.611.164-1.424.553-1.125,1.33l6.309,17.134c.272.773,1.15.567,1.719.285.647-.362,2.693-.543,2.222-1.735l-1.17-3.181c.658-.357,2.835-.578,2.354-1.782m-3.488-4.517a.562.562,0,0,1,.387,1.054.562.562,0,0,1-.387-1.054" transform="translate(-627.948 -1272.694)" fill="#ffc278"/>
        <path id="Trazado_874174" data-name="Trazado 874174" d="M797,1617.753c-.777.1-2.987,1.688-3.429.346l-6.309-17.135a.86.86,0,0,1,.51-1.1s4.37,14.238,10.924,11.825c.484,1.2-1.7,1.429-2.356,1.785l1.171,3.179a.861.861,0,0,1-.51,1.1" transform="translate(-627.99 -1276.277)" fill="#ffa84a"/>
        <path id="Trazado_874175" data-name="Trazado 874175" d="M817.376,1615.493c-1.846-5.013-4.637-4.411-4.637-4.411.735-.153,2.534-1.4,2.951-.169l1.687,4.58" transform="translate(-648.357 -1284.666)" fill="#ffc278"/>
        <path id="Trazado_874176" data-name="Trazado 874176" d="M780.058,1326.031a48.637,48.637,0,0,1,7.47-.475l-3.26,6.519s-6.451-3.09-6.757-3.8,2.547-2.241,2.547-2.241" transform="translate(-620.237 -1057.43)" fill="#e57d61"/>
        <path id="Trazado_874177" data-name="Trazado 874177" d="M305.849,2078.275a2.512,2.512,0,0,1-2.39,1.94H291.7a2.526,2.526,0,0,1-2.377-3.245c.908-3.053,3.007-6.1,2.589-9.366-.086-6.409.024-19.33,0-23.525H305.17c-.256,3.593-1.471,17.865-1.876,23.994-.507,3.752,2.649,6.651,2.555,10.2" transform="translate(-230.717 -1630.651)" fill="#f99370"/>
        <path id="Trazado_874178" data-name="Trazado 874178" d="M368.976,1161.876c-3.141,7.813-5.225,20.365,4.1,24.731,14.088,5.6,30.455,4.715,44.866.52.8-.248,1.619-.529,2.405-.815a1.1,1.1,0,0,1,.112-.038l1.569-.055c3.8-.266,5.314,5.237,1.985,6.976-.4.205-1.094.642-1.492.838-16.7,8.815-46.131,15.353-62.837,4.017-13.584-9.312-14.872-28.123-10.877-42.729,4.278-13.723,24.754-7.077,20.162,6.556" transform="translate(-276.682 -915.62)" fill="#f99370"/>
        <path id="Trazado_874179" data-name="Trazado 874179" d="M554.2,2078.275a2.135,2.135,0,0,1-2.122,1.94H522.7c-.313-2.99.7-5.722.533-9,0,0,0,0,0,0,.134-8.7-1.644-19.261-2.277-27.134H537.84c-.187,3.357-2.631,17.385-2.673,23.4,1.792,6.76,11.565,4.659,16.05,7.313,1.351.74,3.062,1.827,2.985,3.488" transform="translate(-415.586 -1630.651)" fill="#f99370"/>
        <path id="Trazado_874180" data-name="Trazado 874180" d="M560.874,2176.272a2,2,0,0,1-2,1.94H529.218c-.351-2.992.43-5.985.533-9,0,0,0,0,0,0a19.715,19.715,0,0,0-.007-2.288c9.56,11.549,26.757.745,30.924,8.467h0a1.911,1.911,0,0,1,.2.883" transform="translate(-422.109 -1728.648)" fill="#eb5648"/>
        <path id="Trazado_874181" data-name="Trazado 874181" d="M306.168,2187.28a2.5,2.5,0,0,1-2.436,1.94H291.973c-3.411-.239-2.605-3.982-1.257-6.129a12.01,12.01,0,0,1,14.27-.009,7.3,7.3,0,0,1,1.182,4.2" transform="translate(-230.991 -1739.655)" fill="#eb5648"/>
        <path id="Trazado_874182" data-name="Trazado 874182" d="M424.608,1129.9c14.807,3.123,23.689,17.711,27.489,31.287,2.433,8.5,2.858,17.391,4.86,25.976a181.948,181.948,0,0,0,9.6,31.717c1.938,4.58-3.351,8.557-6.813,4.735-6.976-8.735-12.386-18.618-16.941-28.8-3.677-7.981-6.188-16.526-8.96-24.84-2.553-6.7-5.942-13.673-11.757-17.5a8.447,8.447,0,0,0-1.59-.8c.194.056.448.083.646.123-14.315-2.331-10.862-24.1,3.465-21.9" transform="translate(-328.654 -901.248)" fill="#f99370"/>
        <path id="Trazado_874183" data-name="Trazado 874183" d="M518.392,1215.8a19.009,19.009,0,0,1-7.488,5.184c-5.093-6.643-11.727-15.215-15.739-22.831-6.316-17.723-13.2-53.481-16.763-68.911,31.136,5.2,30.5,61.592,39.99,86.558" transform="translate(-381.642 -900.844)" fill="#e8c0a6"/>
        <path id="Trazado_874184" data-name="Trazado 874184" d="M590.031,1301.435c-.148,1.767-1.55,2.91-3.128,3.64-1.528-2.033-3.379-4.542-5.207-7.14l-3.526-57.414s10,12.194,11.279,46.912c0,0,.931,9.8.583,14" transform="translate(-461.231 -989.618)" fill="#d1a68f"/>
        <path id="Trazado_874185" data-name="Trazado 874185" d="M663.259,1575.1a.83.83,0,0,1-1.188.436,16.921,16.921,0,0,0-4.026-1.46L647.6,1578s-1.808-1.492-1.787-5.052c.012-2.069,5.115-4.93,6.892-4.323a23.769,23.769,0,0,1,4.491,2.3c1.257.456,6.659,2.425,6.061,4.171" transform="translate(-515.195 -1251.291)" fill="#f99370"/>
        <path id="Trazado_874186" data-name="Trazado 874186" d="M288.566,1550.587s9.555,3.541,16.2.643c4.04-21.582,15.749-65.132,19.733-107.191,0-1.7,13.185,59.16,9.814,105.823,4.215,1.491,13.376,3.77,17.633.24,3.073-21.97,11.307-84.234-1.451-150.23,0,0-27.09,3.412-51.08-2.838,0,0-10.469,18.053-7.83,56.668,2.2,37.478.552,74.781-3.015,96.885" transform="translate(-230.202 -1114.474)" fill="#1d3f70"/>
        <path id="Trazado_874187" data-name="Trazado 874187" d="M887.39,1083.1c-3.608,5.37-9.692,13.425-13.533,18.749-8.92,12.087-15.236,23.332-30.691,27.842a54.186,54.186,0,0,1-27.877.541,63.651,63.651,0,0,1-12.44-4.2,3.966,3.966,0,0,1,1.732-7.568c14.7.2,32.67-.9,41.268-14.459.9-1.533,1.734-3.113,2.641-4.646,6.294-10.741,13.533-21.1,22.463-29.84,9.317-9.869,24.245,2.652,16.438,13.577" transform="translate(-638.627 -850.352)" fill="#e57d61"/>
        <path id="Trazado_874188" data-name="Trazado 874188" d="M355.286,1472.46s-2.652,8.561-13.1,14.4l5.215,5.356c.4-.566,10.8-8.406,13.731-14.9Z" transform="translate(-272.976 -1174.645)" fill="#1d3f70"/>
        <path id="Trazado_874189" data-name="Trazado 874189" d="M302.414,1605.763c2.082-18.375,6.207-57.939,4.647-83.009-.833-25.4,2.783-38.243,2.819-38.37.467-.833,9.315-4.74,13.117-14.443a.6.6,0,0,1,1.124.424c-3.333,8.853-11.607,13.743-13.151,14.593-5.611,21.278.345,97.757-8.557,120.806" transform="translate(-241.249 -1172.338)" fill="#163860"/>
        <path id="Trazado_874190" data-name="Trazado 874190" d="M371.766,1196.085c-13.964,8.766-47.5,4.13-58.748.881-2.563-6.9,4.236-16.1,2.852-24.841-3.232-20.436,7.1-40.7,19.242-45.048,0-.06-.009-1.109-.015-1.062l10.905.651a61.94,61.94,0,0,1,15.693,15.891c8.056,11.421,2,17.017,4.346,27.858.468,5.252,9.041,23.189,5.724,25.67" transform="translate(-249.243 -898.269)" fill="#eb5648"/>
        <path id="Trazado_874191" data-name="Trazado 874191" d="M270.086,1541.69a.018.018,0,0,0,.009,0c-.009.027-.011.027-.009,0" transform="translate(-215.459 -1229.873)" fill="#d8b09a"/>
        <path id="Trazado_874192" data-name="Trazado 874192" d="M448.257,1458.778c-11.775,6.2-27.317,5.641-39.938,4.271l5.089-3.048s18.805,1.858,35.578-4.692c.246,1.776.084,3.026-.729,3.47" transform="translate(-325.734 -1160.962)" fill="#ce3932"/>
        <path id="Trazado_874193" data-name="Trazado 874193" d="M424.463,1131.031l-.036.014c0-.084.011-.091.036-.014" transform="translate(-338.584 -902.229)" fill="#d8b09a"/>
        <path id="Trazado_874194" data-name="Trazado 874194" d="M305.008,1185.112c-.585,8.211-3.648,30.549-4.567,33.361,0,0-18.1,3.374-30.307-4.155.345-1.078,5.8-31.535,6.771-45.32,1.135-21.095,18.37-36.641,24.436-37.686.1,4.079,5.459,39.106,3.668,53.8" transform="translate(-215.498 -902.496)" fill="#e8c0a6"/>
        <path id="Trazado_874195" data-name="Trazado 874195" d="M886.984,1111.232c-7.208,33.147-51.124,25.79-65.089,17.943,2.48-3.255,1.058-8.485,1.058-8.485,48.531-1.5,42.328-43.325,67.9-51.969,0,0,1.883,23.8-3.872,42.512" transform="translate(-655.662 -852.564)" fill="#1d3f70"/>
        <path id="Trazado_874196" data-name="Trazado 874196" d="M478.406,1129.238s13.393,7.173,17.626,25.661c2.369,10.347-.738,18.662,1.276,27.282a157.328,157.328,0,0,1,4.382,32.335,11.615,11.615,0,0,0,7.515-2.768s.7-69.981-30.8-82.511" transform="translate(-381.645 -900.842)" fill="#e8c0a6"/>
        <path id="Trazado_874197" data-name="Trazado 874197" d="M1291.1,2087.047l.463-.226c0,.3.4,1.357.724,1.357l13.687.264c.324,0,.523-.571.523-.874l1.167-.313a6.254,6.254,0,0,0-1.074-4.1c-3.327-4.092.642-22.655.53-27.5.656-1.347-14.365-.269-14.625-.6a.566.566,0,0,0-.585.593c-.15,4.814,3.594,23.438.407,27.495a5.775,5.775,0,0,0-1.217,3.9" transform="translate(-1029.965 -1639.328)" fill="#f99370"/>
        <path id="Trazado_874198" data-name="Trazado 874198" d="M989.2,2088.939h27.262c2.34-.085,2.38-2.3,1.923-4.125-1.5-6.353,1.153-20.94,1.644-27.472a2.085,2.085,0,0,0-2.156-2.236c-19.856-.074-13.7-2.138-11.995,18.619.845,7.688-7.812,8.21-13.007,9.235-2.136.5-4.416,1.294-5.462,2.8a2.029,2.029,0,0,0,1.79,3.177" transform="translate(-787.393 -1639.377)" fill="#f99370"/>
        <path id="Trazado_874199" data-name="Trazado 874199" d="M1018.088,2178.507c-.082,1.305-.762,2.676-2.285,2.648H987.525c-7.063-2.038,4.324-11.221,16.985-10.5a30.94,30.94,0,0,0,10.373.18c3.1-.34,3.342,5.007,3.2,7.675" transform="translate(-786.062 -1731.592)" fill="#103663"/>
        <path id="Trazado_874200" data-name="Trazado 874200" d="M1303.769,2180.82h-12.086c-5.827-.614-1.711-11.365,6.042-10.57,7.8-.945,11.849,10,6.045,10.57" transform="translate(-1028.24 -1731.257)" fill="#103663"/>
        <path id="Trazado_874201" data-name="Trazado 874201" d="M331.715,1286.683c-.307,3.648-.75,7.731-1.243,11.761-23.761-4.878-26.824-27.59-26.86-27.876a61.394,61.394,0,0,1,2.545-11.935Z" transform="translate(-242.204 -1004.067)" fill="#d1a68f"/>
        <path id="Trazado_874202" data-name="Trazado 874202" d="M1013.495,2186.216a.581.581,0,0,1-.534-.35,6.28,6.28,0,0,0-3.134-3.308.582.582,0,0,1,.4-1.09,7.324,7.324,0,0,1,3.8,3.936.585.585,0,0,1-.533.813" transform="translate(-805.291 -1740.218)" fill="#e8c0a6"/>
        <path id="Trazado_874203" data-name="Trazado 874203" d="M1034.493,2179.753a.581.581,0,0,1-.552-.4,8.03,8.03,0,0,0-3.693-4.257.582.582,0,0,1,.51-1.045,9.078,9.078,0,0,1,4.287,4.938.584.584,0,0,1-.552.764" transform="translate(-821.619 -1734.282)" fill="#e8c0a6"/>
        <path id="Trazado_874204" data-name="Trazado 874204" d="M1060.807,2175.282a.581.581,0,0,1-.545-.379,10.234,10.234,0,0,0-3.736-4.672.582.582,0,0,1,.612-.988,11.3,11.3,0,0,1,4.213,5.256.584.584,0,0,1-.545.784" transform="translate(-842.619 -1730.423)" fill="#e8c0a6"/>
        <path id="Trazado_874205" data-name="Trazado 874205" d="M1018.394,1177.229c-3.977,16.289-16.723,24.083-31.772,24.574v0s8.757-3.91,11.381-19.19,12.6-31.161,12.6-31.161Z" transform="translate(-787.071 -918.561)" fill="#163860"/>
        <path id="Trazado_874206" data-name="Trazado 874206" d="M1316.919,2178.92c-4.54-2.437-8.742.785-9.31-.354a.582.582,0,0,1,.308-.762c.213-.091,5.251-2.185,9.283.025a.585.585,0,0,1-.28,1.091" transform="translate(-1043.1 -1736.544)" fill="#e8c0a6"/>
        <path id="Trazado_874207" data-name="Trazado 874207" d="M985.759,2209.643H1018.3a6.664,6.664,0,0,1-.892,2.648H987.738a1.988,1.988,0,0,1-1.979-2.648" transform="translate(-786.275 -1762.728)" fill="#0f2e54"/>
        <path id="Trazado_874208" data-name="Trazado 874208" d="M1304.014,2212.292h-12.086a2.586,2.586,0,0,1-2.68-2.648h17.447a2.586,2.586,0,0,1-2.68,2.648" transform="translate(-1028.485 -1762.728)" fill="#0f2e54"/>
        <path id="Trazado_874209" data-name="Trazado 874209" d="M1163.823,869.628s-1.543-8.7,6.093-11.518l4.823,3.624Z" transform="translate(-928.33 -684.551)" fill="#8c4225"/>
        <path id="Trazado_874210" data-name="Trazado 874210" d="M1111.742,1491.37s-12.891,2.932-19.532-.218c-3.456-20.293-13.052-76.809-16.394-115.536-.128,2.258-7.149,93.327-8.486,115.536-4.59,1.438-13.806,3.167-18.964-.31-2.318-23.375-9.759-100.349,1.451-163.208,0,0,30.72,3.2,54.71-3.588,6.6,19.9,8.354,143.372,7.215,167.325" transform="translate(-832.682 -1056.248)" fill="#e8c0a6"/>
        <path id="Trazado_874211" data-name="Trazado 874211" d="M1081.314,1632.144c-4.661-44.489-2.067-100.91,3.041-128.45,1.535.592-1.778,14.711-2.737,38.328-1.979,20.77-.765,55.628-.3,90.122" transform="translate(-860.669 -1199.562)" fill="#d1a68f"/>
        <path id="Trazado_874212" data-name="Trazado 874212" d="M1274.65,1608.119c-4.093-69.383-14.9-133.535-13.858-134.541,1.458.215,12.332,65.433,13.858,134.541" transform="translate(-1005.733 -1175.537)" fill="#d1a68f"/>
        <path id="Trazado_874213" data-name="Trazado 874213" d="M1182.5,973.16a64.589,64.589,0,0,1,1.059-17.75,5.1,5.1,0,0,1,3.279-3.765c3.859-1.34,8.428,1.948,7.24,6.3-.35-.22-1.47,12.182-.7,15.625,10.185,3.056-20.448,13.1-10.882-.407" transform="translate(-941.837 -758.927)" fill="#f99370"/>
        <path id="Trazado_874214" data-name="Trazado 874214" d="M1200.764,957.025c-.027.189-.06.38-.1.565-.252-.167-.958,6.675-.965,11.642a18.972,18.972,0,0,1-10.822.993c.242-6.715-.45-17.239,4.547-18.933a5.448,5.448,0,0,1,7.344,5.733" transform="translate(-948.416 -758.574)" fill="#e57d61"/>
        <path id="Trazado_874215" data-name="Trazado 874215" d="M1164.029,884.325c-.784,4.862-2.425,10.343-6.266,13.559h-.006a12.133,12.133,0,0,1-5.446,2.5c-11.346,3.173-24.652-10.017-15.785-19.624,3.3-3.087,3.777-8.026,6.474-11.213,3.735-5.42,11.931-5.139,16.356-.719,4,4,5.367,9.5,4.673,15.492" transform="translate(-904.348 -690.447)" fill="#f99370"/>
        <path id="Trazado_874216" data-name="Trazado 874216" d="M1168.267,973.565l6.376-3.257c.582,3.87-3.453,6.343-6.376,3.257" transform="translate(-931.978 -774.057)" fill="#f9f8f3"/>
        <path id="Trazado_874217" data-name="Trazado 874217" d="M1191.822,939.552a.736.736,0,0,1,1.313-.667.736.736,0,0,1-1.312.667" transform="translate(-950.697 -748.674)" fill="#c16256"/>
        <path id="Trazado_874218" data-name="Trazado 874218" d="M1161.228,934.409a.736.736,0,0,1,1.313-.667.736.736,0,0,1-1.312.667" transform="translate(-926.291 -744.571)" fill="#c16256"/>
        <path id="Trazado_874219" data-name="Trazado 874219" d="M1198.348,884.38c-.784,4.862-2.425,10.343-6.266,13.559h-.006a10.291,10.291,0,0,1-1,.735c2.923-2.9,4.617-9.122,4.617-9.122l-.688-5.269a9.983,9.983,0,0,1-2.687-10.157c-7.89,2.214-10.548-2.655-10.548-2.655a10.565,10.565,0,0,1-5.118-.937c3.469-6.159,12.257-6.445,17.022-1.646,4,4,5.367,9.5,4.673,15.492" transform="translate(-938.668 -690.502)" fill="#e57d61"/>
        <path id="Trazado_874220" data-name="Trazado 874220" d="M1354.266,1505.327a33.59,33.59,0,0,1,.014,4.23l5.321,1.95,2.828-1.188a10.98,10.98,0,0,1,.69-4.719c.957-2.534-8.853-.272-8.853-.272" transform="translate(-1080.357 -1200.123)" fill="#f99370"/>
        <path id="Trazado_874221" data-name="Trazado 874221" d="M1167.182,973.014a.28.28,0,0,1-.127-.527c.172.073,6.767-3.834,6.75-3.136a.279.279,0,0,1-.121.375c-.152.043-6.334,3.3-6.5,3.288" transform="translate(-930.892 -773.227)" fill="#c16256"/>
        <path id="Trazado_874222" data-name="Trazado 874222" d="M1163.772,946.713c-1.347-.016-3.443-.924-1.739-2.122,1.39-.753,2.412-3.635,2.423-3.664a.279.279,0,0,1,.526.184c-.044.127-1.1,3.115-2.683,3.97-1.091.668,1.182,1.316,2.12.985a.279.279,0,0,1,.351.18c.079.5-.649.43-1,.467" transform="translate(-926.495 -750.473)" fill="#c16256"/>
        <path id="Trazado_874223" data-name="Trazado 874223" d="M1108.072,1147.667a18.9,18.9,0,0,1-7.2,3.357v0c-17.473,4.784-53.3.623-56.252-5.535-2.362-4.921-2.521-20.283.818-36.593,4.418-22.647,11.364-38.6,27.176-49.655-.078.321-2.094,8.7,10.888.4l3.991.712c1.344,21.706,30.608,77.271,20.577,87.312" transform="translate(-831.956 -845.003)" fill="#1d3f70"/>
        <path id="Trazado_874224" data-name="Trazado 874224" d="M1174.244,827.948l-.079.162c-2.626-3.115-7.408-4.639-8.5-7.809a13.74,13.74,0,0,0-1.434,6.435,25.221,25.221,0,0,1-3.352-4.664,7.5,7.5,0,0,0-2.186,4.322,13.457,13.457,0,0,0-7.681.75c2.1,5.943,7.01,7.253,10.858,7.274a10.587,10.587,0,0,0,12.743,1.7c-2.631,2.212-2.944,9.083,4.255,13.92a26.32,26.32,0,0,0,.979-8.062c6.748-11.7-5.6-14.025-5.6-14.025" transform="translate(-918.21 -654.389)" fill="#8c4225"/>
        <path id="Trazado_874225" data-name="Trazado 874225" d="M1271.891,951.17c-1.261,5.543-7.891,4.14-6.8-1.438,1.261-5.542,7.891-4.14,6.8,1.438" transform="translate(-1009.122 -754.835)" fill="#f99370"/>
        <path id="Trazado_874226" data-name="Trazado 874226" d="M1279.181,958.538a.279.279,0,0,1-.266-.36c1.027-2.987-.194-4.154-2.233-3.359a.279.279,0,0,1-.2-.519c2.321-.948,4.225.521,2.968,4.041a.279.279,0,0,1-.266.2" transform="translate(-1018.166 -761.061)" fill="#c16256"/>
        <path id="Trazado_874227" data-name="Trazado 874227" d="M1276.736,963.074c-.865-.069.784-2.738,2.9-2.881a.279.279,0,1,1,.037.556c-2.153.223-2.424,2.254-2.933,2.325" transform="translate(-1018.32 -765.987)" fill="#c16256"/>
        <path id="Trazado_874228" data-name="Trazado 874228" d="M1144.462,1694.555a31.84,31.84,0,0,1-3.979.992s6.477-90.377,7.442-102.439,5.023-14.089,5.023-14.089-8.593,113.584-8.486,115.536" transform="translate(-909.812 -1259.652)" fill="#d1a68f"/>
        <path id="Trazado_874229" data-name="Trazado 874229" d="M1083.911,2128.591c-.173,2.607-.268,4.166-.255,4.382-4.59,1.438-13.806,3.168-18.964-.31,0,0-.164-1.432-.432-4.072a28.659,28.659,0,0,0,19.651,0" transform="translate(-849.007 -1698.07)" fill="#d1a68f"/>
        <path id="Trazado_874230" data-name="Trazado 874230" d="M1299.727,2133.191s-12.891,2.932-19.532-.219c0,0-.274-1.571-.754-4.382a47.261,47.261,0,0,0,20.146,0c.05,2.74.1,4.373.139,4.6" transform="translate(-1020.667 -1698.07)" fill="#d1a68f"/>
        <path id="Trazado_874231" data-name="Trazado 874231" d="M514.725,2131.258s12.32,4.588,17.633.24c0,0,.24-1.448.621-4.131,0,0-9.242,3.191-17.99-1.532l0,0q-.1,2.725-.262,5.42" transform="translate(-410.619 -1695.87)" fill="#163860"/>
        <path id="Trazado_874232" data-name="Trazado 874232" d="M288.566,2135.018s9.555,3.541,16.2.643c0,0,.388-1.892,1.056-5.26,0,0-5.966,3.115-16.382-.763-.287,2.151-.58,3.96-.87,5.38" transform="translate(-230.202 -1698.905)" fill="#163860"/>
        <path id="Trazado_874233" data-name="Trazado 874233" d="M476.278,1729.841q-.1,2.724-.262,5.42s1.368.511,3.393,1.028c-.045-32.425-.008-84.754-13.207-106.851,0,0,11.974,49.539,10.075,100.4" transform="translate(-371.911 -1299.874)" fill="#163860"/>
        <path id="Trazado_874234" data-name="Trazado 874234" d="M464.231,1588.27c-1.565-.074.957-4.8,1.88-10.726a.6.6,0,0,1,1.177.242c-1.534,6.112-1.911,10.069-3.058,10.484" transform="translate(-369.938 -1258.104)" fill="#163860"/>
        <path id="Trazado_874235" data-name="Trazado 874235" d="M709.946,1332.009c5.124-2.67,10.492-2.075,18.5.8,2.784.339,4.652,5.553.179,6.4-6.534,1.235-14.94-.475-14.94-.475Z" transform="translate(-566.355 -1061.236)" fill="#f99370"/>
        <path id="Trazado_874236" data-name="Trazado 874236" d="M749.854,1331.222a12.82,12.82,0,0,1,9.225-3.371c2.122-.056,3.583,3.122,1.455,3.117-2.646-.449-6.884.076-9.151,1.6-.968,1-2.5-.309-1.529-1.346" transform="translate(-597.942 -1059.279)" fill="#e57d61"/>
        <path id="Trazado_874237" data-name="Trazado 874237" d="M753.362,1366.2c-1.026,1.822-3.2.564-2.14-1.235,1.026-1.822,3.2-.564,2.14,1.235" transform="translate(-599.055 -1088.185)" fill="#e57d61"/>
        <path id="Trazado_874238" data-name="Trazado 874238" d="M764.084,1367.3c-1.026,1.822-3.2.564-2.14-1.235,1.026-1.822,3.2-.564,2.14,1.235" transform="translate(-607.608 -1089.056)" fill="#e57d61"/>
        <path id="Trazado_874239" data-name="Trazado 874239" d="M775.028,1368.386c-1.026,1.822-3.2.564-2.14-1.235,1.026-1.822,3.2-.564,2.14,1.235" transform="translate(-616.339 -1089.925)" fill="#e57d61"/>
        <path id="Trazado_874240" data-name="Trazado 874240" d="M786.153,1368.386c-1.026,1.822-3.2.564-2.14-1.235,1.026-1.822,3.2-.564,2.14,1.235" transform="translate(-625.214 -1089.925)" fill="#e57d61"/>
        <path id="Trazado_874241" data-name="Trazado 874241" d="M1180.53,1059.994c.07,4.952-12.634,9.324-13.354,9.331l-1.523-4.506c-1.955.482-3.677,3.219-3.677,3.219-5.6-5.566-.479-9.917,3.677-9.164a.009.009,0,0,1,0,.006c-.078.32-.964,7.668,10.84.146,1.52-.7,4.041.968,4.041.968" transform="translate(-924.99 -844.642)" fill="#f4d4be"/>
        <rect id="Rectángulo_379007" data-name="Rectángulo 379007" width="60.782" height="44.309" transform="translate(246.612 332.567) rotate(-8.209)" fill="#8c4225"/>
        <path id="Trazado_874242" data-name="Trazado 874242" d="M1211.916,1680.308l-3.47-1.987-6.334-43.853,3.47,1.987Z" transform="translate(-958.977 -1303.887)" fill="#7f341c"/>
        <path id="Trazado_874243" data-name="Trazado 874243" d="M1202.113,1600.281l60.179-8.668,3.458,1.974-60.167,8.68Z" transform="translate(-958.978 -1269.699)" fill="#7f341c"/>
        <path id="Trazado_874244" data-name="Trazado 874244" d="M1327.792,1572.688c-5.894-12.1-21.144-8.683-24.561,3.538-.059,1,.608,1.9,1.473,1.764,1.036-.172,1.16-1.438,1.6-2.206,2.458-5.572,9.169-9.2,14.751-5.976a12.11,12.11,0,0,1,4.348,4.2c.92,1.47,2.655.135,2.388-1.318" transform="translate(-1039.641 -1248.59)" fill="#8c4225"/>
        <path id="Trazado_874245" data-name="Trazado 874245" d="M1219.269,1610.055l33.25,17.586,26.917-26.266Z" transform="translate(-972.664 -1277.486)" fill="#99452b"/>
        <path id="Trazado_874246" data-name="Trazado 874246" d="M1373.807,1719.753a2.381,2.381,0,0,1-3.176-1.79c-.206-1.826-1.387-5.3,1.425-5.706a2.381,2.381,0,0,1,3.176,1.79c.206,1.826,1.387,5.3-1.425,5.706" transform="translate(-1093.076 -1365.85)" fill="#f4d4be"/>
        <path id="Trazado_874247" data-name="Trazado 874247" d="M1343.411,1529.9a33.316,33.316,0,0,0-2.77,12.387l9.149.522c2.973-4.3,1.769-12.149,1.769-12.149Z" transform="translate(-1069.488 -1220.471)" fill="#f99370"/>
        <path id="Trazado_874248" data-name="Trazado 874248" d="M1286.491,1234.058a18.9,18.9,0,0,1-7.2,3.357c.712-8.757-.714-22.617-6.872-38.225a92.815,92.815,0,0,1-5.879-31.654l4.542.341c7.977,22.356,22.711,59.947,15.406,66.18" transform="translate(-1010.375 -931.394)" fill="#163860"/>
        <path id="Trazado_874249" data-name="Trazado 874249" d="M1262.809,1064.745c33.343,7.372,42.634,59.847,26.531,94.843a12.365,12.365,0,0,1-8.148-.761s-.157-25.01-10.272-45.179-8.111-48.9-8.111-48.9" transform="translate(-1007.27 -849.393)" fill="#1d3f70"/>
        <path id="Trazado_874250" data-name="Trazado 874250" d="M306.111,2213.152a2.5,2.5,0,0,1-2.436,1.94H291.916a2.5,2.5,0,0,1-2.432-1.94Z" transform="translate(-230.934 -1765.528)" fill="#ce3932"/>
        <path id="Trazado_874251" data-name="Trazado 874251" d="M560.784,2213.152a2,2,0,0,1-2,1.94H529.128a9.2,9.2,0,0,1-.1-1.94Z" transform="translate(-422.019 -1765.528)" fill="#ce3932"/>
        <path id="Trazado_874252" data-name="Trazado 874252" d="M640.058,1545.052a17.17,17.17,0,0,1-7.3,5.319,5.442,5.442,0,0,1-2.083-2.557s6.361-2.308,8.044-6.124a6.037,6.037,0,0,1,1.334,3.362" transform="translate(-503.121 -1229.873)" fill="#d1a68f"/>
        <path id="Trazado_874253" data-name="Trazado 874253" d="M388.521,1182.954c-20.946,17.073-62.1,20.022-75.067-5.367-11.926-23.58,4-43.928,19.154-46.332-.011,0,5.012,14.361,3.392,25.021l.134,9.648c6.241,12.628,38.447,10.773,50.275,8.436,4.3,4.28,2.113,8.594,2.113,8.594" transform="translate(-246.728 -902.451)" fill="#e8c0a6"/>
        <path id="Trazado_874254" data-name="Trazado 874254" d="M681.956,1352.395c-1.073,1.241-2.365,1.55-3.164,2.092.97-7.144-2.668-9.792-2.668-9.792a6.623,6.623,0,0,1,3.365-.49c3.476,3.346,2.468,8.19,2.468,8.19" transform="translate(-539.373 -1072.296)" fill="#d1a68f"/>
        <path id="Trazado_874255" data-name="Trazado 874255" d="M397.469,1125.058a13.341,13.341,0,0,0-6.824,3.78s4.36,9.354,7.471,13.542c-3.781,6.671.887,15.5,2.924,18.6,0,0,3.155-21.417-3.571-35.922" transform="translate(-311.635 -897.508)" fill="#d1a68f"/>
        <path id="Trazado_874256" data-name="Trazado 874256" d="M571.06,1351.259c-2.42,0-4.037-.084-4.068-.086a.342.342,0,0,1,.037-.682,95.4,95.4,0,0,0,12.017-.25.341.341,0,1,1,.062.68c-2.953.268-5.835.338-8.048.338" transform="translate(-452.064 -1077.144)" fill="#d1a68f"/>
        <path id="Trazado_874257" data-name="Trazado 874257" d="M581.309,1425.226c-2.105-.82,7.352-2.219,12.046-5.056a.342.342,0,0,1,.317.6,64.722,64.722,0,0,1-12.363,4.451" transform="translate(-463.495 -1132.9)" fill="#d1a68f"/>
        <path id="Trazado_874258" data-name="Trazado 874258" d="M778.319,1350.358c-2.658-.089-6.6-.021-5.349-.716a51.275,51.275,0,0,0,7.9.153c1.18.683-2.121.53-2.555.563" transform="translate(-616.442 -1076.668)" fill="#e57d61"/>
        <path id="Trazado_874259" data-name="Trazado 874259" d="M778.046,1359.607c-.065-.011-5.669-.018-4.217-.776a25.6,25.6,0,0,0,8.2,0c1.123.553-1.434.731-3.98.774" transform="translate(-617.125 -1083.998)" fill="#e57d61"/>
        <path id="Trazado_874260" data-name="Trazado 874260" d="M1342.879,1585.451c-.973,1.851-3.187.657-2.175-1.173.973-1.851,3.187-.656,2.175,1.173" transform="translate(-1069.332 -1263.107)" fill="#f99370"/>
        <path id="Trazado_874261" data-name="Trazado 874261" d="M1353.627,1586.232c-.973,1.851-3.187.656-2.175-1.173.973-1.851,3.187-.656,2.175,1.173" transform="translate(-1077.906 -1263.73)" fill="#f99370"/>
        <path id="Trazado_874262" data-name="Trazado 874262" d="M1364.6,1587.006c-.973,1.851-3.187.656-2.175-1.173.973-1.851,3.187-.656,2.175,1.173" transform="translate(-1086.659 -1264.348)" fill="#f99370"/>
        <path id="Trazado_874263" data-name="Trazado 874263" d="M1375.72,1586.684c-.973,1.851-3.187.656-2.174-1.173.973-1.851,3.187-.656,2.174,1.173" transform="translate(-1095.531 -1264.091)" fill="#f99370"/>
        <path id="Trazado_874264" data-name="Trazado 874264" d="M437.854,1128.571c-.518,6.221-11.467,2.136-11.971,1.33-.162-.43-1.8-3.451-1.525-3.88l10.905.651s1,.645,2.591,1.9" transform="translate(-338.504 -898.276)" fill="#ce3932"/>
        <path id="Trazado_874265" data-name="Trazado 874265" d="M421.132,909.592c13.378-2.083,26.439,14.561,18.85,29.558Z" transform="translate(-335.955 -725.479)" fill="#163260"/>
        <path id="Trazado_874266" data-name="Trazado 874266" d="M431.986,1043.361a64.6,64.6,0,0,0-1.059-17.75c-1.551-6.854-12.258-4.244-10.52,2.532.35-.22.672,14.567.672,14.567,1.745,2.772,10.908,5.117,10.907.65" transform="translate(-335.225 -814.965)" fill="#f99370"/>
        <path id="Trazado_874267" data-name="Trazado 874267" d="M424.133,1041.216c4.667,2.122,10.233,1.022,11.185.827,1.552-23.778-10.577-26.211-11.185-.827" transform="translate(-338.349 -816.229)" fill="#e57d61"/>
        <path id="Trazado_874268" data-name="Trazado 874268" d="M383.706,954.346c.783,4.862,2.425,10.343,6.266,13.559h.006a12.145,12.145,0,0,0,5.446,2.5c11.346,3.173,24.652-10.016,15.785-19.623-3.222-2.977-3.906-8.252-6.473-11.213-3.735-5.42-11.931-5.139-16.356-.719-4,4-5.367,9.5-4.673,15.492" transform="translate(-305.962 -746.306)" fill="#f99370"/>
        <path id="Trazado_874269" data-name="Trazado 874269" d="M474.671,1043.588l-6.376-3.257c-.582,3.87,3.453,6.343,6.376,3.257" transform="translate(-373.534 -829.917)" fill="#f9f8f3"/>
        <path id="Trazado_874270" data-name="Trazado 874270" d="M470.6,1009.575a.736.736,0,0,0-1.312-.667.736.736,0,0,0,1.312.667" transform="translate(-374.303 -804.534)" fill="#c16256"/>
        <path id="Trazado_874271" data-name="Trazado 874271" d="M501.2,1004.432a.736.736,0,0,0-1.312-.667.736.736,0,0,0,1.312.667" transform="translate(-398.71 -800.431)" fill="#c16256"/>
        <path id="Trazado_874272" data-name="Trazado 874272" d="M473.794,1043.028c-.159.019-6.36-3.249-6.5-3.288a.279.279,0,0,1-.121-.375c-.047-.71,6.61,3.222,6.751,3.135a.28.28,0,0,1-.127.527" transform="translate(-372.658 -829.078)" fill="#c16256"/>
        <path id="Trazado_874273" data-name="Trazado 874273" d="M490.315,1016.734c-.349-.035-1.076.031-1-.467a.279.279,0,0,1,.35-.18c.938.332,3.211-.318,2.121-.985-1.579-.855-2.639-3.844-2.683-3.97a.279.279,0,0,1,.526-.184c.01.029,1.033,2.912,2.423,3.664,1.7,1.2-.392,2.1-1.739,2.122" transform="translate(-390.166 -806.331)" fill="#c16256"/>
        <path id="Trazado_874274" data-name="Trazado 874274" d="M383.685,954.252c.783,4.862,2.425,10.343,6.266,13.559h.006c-2.129-2.642-3.456-8.555-3.456-8.555l1.006-2.63c16.883-5.449,15.435-19.008,15.435-19.008a9.992,9.992,0,0,0-9.154-1.842c-7.926,2.05-11.1,10.61-10.1,18.475" transform="translate(-305.941 -746.212)" fill="#e57d61"/>
        <path id="Trazado_874275" data-name="Trazado 874275" d="M389.306,877.7a23.253,23.253,0,0,0-2.5-1.428,11.971,11.971,0,0,0,.07-6.629c-3.5-12.733-18.326-8.892-15.206,3.939a13.97,13.97,0,0,0,1.488,3.542,13.841,13.841,0,0,0-3.027,16.442l5.423,2.993c15.109-5.489,13.75-18.859,13.75-18.859" transform="translate(-294.099 -687.504)" fill="#163260"/>
        <path id="Trazado_874276" data-name="Trazado 874276" d="M368.642,1021.192c1.261,5.543,7.891,4.14,6.8-1.437-1.261-5.543-7.891-4.14-6.8,1.437" transform="translate(-293.986 -810.695)" fill="#f99370"/>
        <path id="Trazado_874277" data-name="Trazado 874277" d="M375.162,1028.559a.278.278,0,0,1-.266-.2c-1.259-3.52.652-4.99,2.968-4.04a.279.279,0,0,1-.2.519c-2.044-.794-3.258.373-2.232,3.359a.28.28,0,0,1-.267.36" transform="translate(-298.752 -816.92)" fill="#c16256"/>
        <path id="Trazado_874278" data-name="Trazado 874278" d="M378.05,1033.1c-.505-.067-.784-2.106-2.934-2.325a.279.279,0,0,1,.037-.556c2.113.144,3.761,2.809,2.9,2.881" transform="translate(-299.039 -821.847)" fill="#c16256"/>
        <path id="Trazado_874279" data-name="Trazado 874279" d="M384.171,1050.944a.626.626,0,0,0,1.251,0,.626.626,0,0,0-1.251,0" transform="translate(-306.47 -837.898)" fill="#f4d4be"/>
        <path id="Trazado_874280" data-name="Trazado 874280" d="M478.49,1125.058s13.091,6.118,15.316,16.313c0,0,5.827,5.776,3.182,16.937,0,0-6.4-20.631-18.581-32.4Z" transform="translate(-381.646 -897.508)" fill="#d1a68f"/>
        <path id="Trazado_874281" data-name="Trazado 874281" d="M479.053,1165.718a1.163,1.163,0,0,1-2.325,0,1.163,1.163,0,0,1,2.325,0" transform="translate(-380.307 -929.041)" fill="#ce3932"/>
        <path id="Trazado_874282" data-name="Trazado 874282" d="M490.55,1190.434a1.163,1.163,0,0,1-2.325,0,1.163,1.163,0,0,1,2.325,0" transform="translate(-389.478 -948.758)" fill="#ce3932"/>
        <path id="Trazado_874283" data-name="Trazado 874283" d="M502.045,1217.162a1.163,1.163,0,0,1-2.325,0,1.163,1.163,0,0,1,2.325,0" transform="translate(-398.649 -970.08)" fill="#ce3932"/>
        <path id="Trazado_874284" data-name="Trazado 874284" d="M1350.721,1576.9c-.547-.054.14-2.8.564-4.758a.228.228,0,0,1,.438.124c-.674,2.033-.515,4.514-1,4.634" transform="translate(-1077.367 -1254.036)" fill="#e57d61"/>
        <path id="Trazado_874285" data-name="Trazado 874285" d="M1361.573,1577.679c-.559-.054.224-2.622.661-4.563a.228.228,0,1,1,.437.129c-.678,1.964-.621,4.3-1.1,4.434" transform="translate(-1086.032 -1254.812)" fill="#e57d61"/>
        <path id="Trazado_874286" data-name="Trazado 874286" d="M1373.477,1577.7c-.607-.131.5-2.314.419-4.522a.228.228,0,0,1,.455.009,21.811,21.811,0,0,1-.655,4.343.228.228,0,0,1-.22.17" transform="translate(-1095.537 -1254.814)" fill="#e57d61"/>
      </g>
    </g>
    <rect id="Rectángulo_379009" data-name="Rectángulo 379009" width="400" height="450" transform="translate(180 19465)" fill="none"/>
  </g>
</svg>
