<svg xmlns="http://www.w3.org/2000/svg" xmlns:xlink="http://www.w3.org/1999/xlink" width="295" height="431.625" viewBox="0 0 295 431.625">
  <defs>
    <clipPath id="clip-path">
      <rect id="Rectángulo_378965" data-name="Rectángulo 378965" width="294.744" height="431.625" fill="none"/>
    </clipPath>
    <clipPath id="clip-path-4">
      <rect id="Rectángulo_378955" data-name="Rectángulo 378955" width="35.892" height="22.411" fill="none"/>
    </clipPath>
    <clipPath id="clip-path-5">
      <rect id="Rectángulo_378956" data-name="Rectángulo 378956" width="35.235" height="24.227" fill="none"/>
    </clipPath>
    <clipPath id="clip-path-7">
      <rect id="Rectángulo_378958" data-name="Rectángulo 378958" width="6.582" height="9.025" fill="none"/>
    </clipPath>
    <clipPath id="clip-path-8">
      <rect id="Rectángulo_378959" data-name="Rectángulo 378959" width="16.98" height="53.996" fill="none"/>
    </clipPath>
    <clipPath id="clip-path-10">
      <rect id="Rectángulo_378961" data-name="Rectángulo 378961" width="24.609" height="15.428" fill="none"/>
    </clipPath>
    <clipPath id="clip-path-11">
      <rect id="Rectángulo_378962" data-name="Rectángulo 378962" width="2.916" height="2.916" fill="none"/>
    </clipPath>
  </defs>
  <g id="Grupo_1099945" data-name="Grupo 1099945" transform="translate(-285 -14941)">
    <circle id="Elipse_11493" data-name="Elipse 11493" cx="147.5" cy="147.5" r="147.5" transform="translate(285 14979)" fill="#fef0d7"/>
    <g id="Grupo_1099597" data-name="Grupo 1099597" transform="translate(285.256 14941)">
      <g id="Grupo_1099596" data-name="Grupo 1099596" clip-path="url(#clip-path)">
        <g id="Grupo_1099569" data-name="Grupo 1099569">
          <g id="Grupo_1099568" data-name="Grupo 1099568" clip-path="url(#clip-path)">
            <path id="Trazado_873974" data-name="Trazado 873974" d="M20.707,258.055s8.948-2.942,13.237,17.714,4.934,32.065,4.934,32.065,1.405,4.465,4.693,2.7,8.784-7.838,12.874-5.359c4.241,2.572,4.353,8.12,1.416,15.423s-8.785,23.543-9.309,25.013c-.514,1.443-.262,3.845,2.171,3s17.8-10.754,22.066-3.179S65.526,372,64.306,374.105s-1.042,3.19-.118,4.045,5.776-2.963,10.262-5.6,10.152-4.911,12.246-.335S85.561,392.53,63.98,413.633l-10.64,9.124L39.985,418.3c-28-11.277-36.985-24.6-36.8-29.624s6.295-5.088,11.448-4.361,11.1,2.406,11.623,1.263.277-2.217-1.652-3.694S4.777,367.236,5.83,358.609s19.039-5.333,21.611-5.478,1.888-2.461.863-3.6c-1.045-1.16-12.643-13.94-18.144-19.572s-7.512-10.8-4.574-14.8c2.834-3.851,10.23-.339,13.945.044s3.309-4.281,3.309-4.281-3.756-10.795-7.668-31.523,5.721-21.393,5.721-21.393" transform="translate(-0.02 -1.594)" fill="#f5f5f5"/>
            <path id="Trazado_873975" data-name="Trazado 873975" d="M53.548,419.926c-2.929-15.212-7.156-36.195-11.9-59.357s-9.023-44.123-12.037-59.316c-1.5-7.584-2.71-13.727-3.553-18-.418-2.107-.745-3.752-.972-4.894-.113-.542-.2-.963-.264-1.27-.063-.284-.106-.428-.106-.428s.011.15.058.438q.079.461.218,1.279c.207,1.145.5,2.794.884,4.909.773,4.262,1.936,10.422,3.4,18.028,2.93,15.212,7.156,36.193,11.9,59.347S50.2,404.8,53.215,419.992" transform="translate(-0.153 -1.71)" fill="#e0e0e0"/>
            <path id="Trazado_873976" data-name="Trazado 873976" d="M49.3,314.317a4.106,4.106,0,0,0-.6.819c-.361.543-.859,1.344-1.464,2.338-1.207,1.993-2.8,4.788-4.5,7.907-1.658,3.073-3.157,5.852-4.316,8L37.105,335.8a4.033,4.033,0,0,0-.445.911,4.186,4.186,0,0,0,.605-.816c.36-.544.858-1.345,1.453-2.346,1.187-2,2.743-4.82,4.442-7.938l4.372-7.967,1.332-2.412a4.127,4.127,0,0,0,.438-.915" transform="translate(-0.227 -1.943)" fill="#e0e0e0"/>
            <path id="Trazado_873977" data-name="Trazado 873977" d="M35.187,336.656c.069-.113-5.548-3.656-12.544-7.912s-12.725-7.616-12.794-7.5,5.547,3.655,12.545,7.913,12.725,7.615,12.793,7.5" transform="translate(-0.061 -1.985)" fill="#e0e0e0"/>
            <path id="Trazado_873978" data-name="Trazado 873978" d="M44.135,372.157a4.354,4.354,0,0,0-.983-.327l-2.714-.738c-2.291-.625-5.451-1.5-8.9-2.586s-6.551-2.167-8.785-2.968l-2.65-.944a4.276,4.276,0,0,0-.993-.3,4.309,4.309,0,0,0,.924.468c.607.272,1.493.649,2.6,1.089,2.208.884,5.294,2.022,8.762,3.108s6.648,1.916,8.963,2.457c1.16.266,2.1.47,2.755.591a4.252,4.252,0,0,0,1.026.145" transform="translate(-0.118 -2.251)" fill="#e0e0e0"/>
            <path id="Trazado_873979" data-name="Trazado 873979" d="M61.346,354.708a3.727,3.727,0,0,0-.742.605c-.455.413-1.1,1.021-1.9,1.779-1.588,1.517-3.759,3.635-6.135,6s-4.509,4.519-6.035,6.1c-.763.789-1.374,1.433-1.79,1.886a3.643,3.643,0,0,0-.61.738,3.757,3.757,0,0,0,.741-.605c.456-.412,1.1-1.021,1.9-1.779,1.588-1.517,3.759-3.635,6.135-6s4.508-4.517,6.034-6.1c.763-.789,1.375-1.433,1.791-1.886a3.642,3.642,0,0,0,.61-.738" transform="translate(-0.273 -2.192)" fill="#e0e0e0"/>
            <path id="Trazado_873980" data-name="Trazado 873980" d="M73.189,385a6,6,0,0,0-.94.786l-2.439,2.272c-2.045,1.933-4.848,4.627-7.922,7.624s-5.84,5.731-7.823,7.727l-2.333,2.38a5.98,5.98,0,0,0-.81.92,6.075,6.075,0,0,0,.94-.786l2.439-2.272c2.045-1.933,4.848-4.627,7.923-7.626s5.838-5.729,7.822-7.725l2.332-2.38a6.037,6.037,0,0,0,.81-.92" transform="translate(-0.315 -2.379)" fill="#e0e0e0"/>
            <path id="Trazado_873981" data-name="Trazado 873981" d="M51.115,406.108a6.922,6.922,0,0,0-1.235-.443l-3.408-1.058c-2.877-.9-6.845-2.144-11.189-3.642s-8.246-2.946-11.062-4.015l-3.338-1.261a7.037,7.037,0,0,0-1.245-.412,6.765,6.765,0,0,0,1.175.584c.768.348,1.889.832,3.284,1.405,2.788,1.151,6.676,2.656,11.031,4.153s8.345,2.7,11.249,3.514c1.454.4,2.634.716,3.454.912a6.9,6.9,0,0,0,1.286.263" transform="translate(-0.121 -2.443)" fill="#e0e0e0"/>
            <path id="Trazado_873982" data-name="Trazado 873982" d="M177.612,284.427A39.375,39.375,0,1,1,127.546,260.2a39.331,39.331,0,0,1,50.066,24.229" transform="translate(-0.624 -1.595)" fill="#ebebeb"/>
            <path id="Trazado_873983" data-name="Trazado 873983" d="M168.818,287.553a30.007,30.007,0,1,1-38.154-18.464,29.972,29.972,0,0,1,38.154,18.464" transform="translate(-0.683 -1.653)" fill="#f5f5f5"/>
            <path id="Trazado_873984" data-name="Trazado 873984" d="M168.5,286.659c-.17.066-.722-1.137-1.931-3.15a31.827,31.827,0,0,0-6.281-7.556,30.681,30.681,0,0,0-5.539-3.852,30.035,30.035,0,0,0-7.2-2.748,29.4,29.4,0,0,0-8.453-.772,29.08,29.08,0,0,0-4.457.587,29.323,29.323,0,0,0-8.625,3.294A29.226,29.226,0,0,0,122.295,275a29.4,29.4,0,0,0-5.786,6.212,29.99,29.99,0,0,0-3.534,6.85,30.744,30.744,0,0,0-1.56,6.563,31.883,31.883,0,0,0,.36,9.818c.442,2.306.834,3.57.662,3.633-.124.051-.8-1.109-1.53-3.419a27.753,27.753,0,0,1-1.109-10.187,30.06,30.06,0,0,1,4.957-14.441,29.031,29.031,0,0,1,2.74-3.544,29.383,29.383,0,0,1,3.384-3.232,30.551,30.551,0,0,1,3.988-2.765,30.742,30.742,0,0,1,9.3-3.554,30.6,30.6,0,0,1,4.815-.6,30.562,30.562,0,0,1,9.081.967,30.074,30.074,0,0,1,13.324,7.457,27.82,27.82,0,0,1,5.969,8.331c1,2.207,1.265,3.523,1.139,3.57" transform="translate(-0.678 -1.646)" fill="#e0e0e0"/>
            <path id="Trazado_873985" data-name="Trazado 873985" d="M149.629,313.234l1.783,4.914-4.388,1.59-1.734-4.781c-4.438,1.311-9.1,1.464-12.2.452l.47-6.227a18.866,18.866,0,0,0,9.642.028l-2.658-7.327c-5.3.583-11.328.933-13.6-5.341-1.687-4.651.242-9.868,6.888-13.171l-1.767-4.871,4.388-1.591,1.734,4.783a21.1,21.1,0,0,1,9.876-.555l-.236,6.191a19.12,19.12,0,0,0-7.54.153l2.706,7.459c5.282-.626,11.224-.943,13.467,5.241,1.655,4.564-.247,9.721-6.833,13.052m-11.42-17.8-2.261-6.229c-2.134,1.369-2.593,2.977-2.068,4.424.558,1.534,2.176,1.891,4.329,1.8m11.381,7.836c-.558-1.536-2.132-1.907-4.258-1.883l2.2,6.055c2.018-1.278,2.57-2.769,2.061-4.172" transform="translate(-0.781 -1.711)" fill="#e0e0e0"/>
            <path id="Trazado_873986" data-name="Trazado 873986" d="M184.858,43.211A29.055,29.055,0,0,0,159.877,0a28.387,28.387,0,0,0-7.624,1.045,29.088,29.088,0,0,1,0,55.9,28.353,28.353,0,0,0,22.806-3.359L188.541,58.8Z" transform="translate(-0.941)" fill="#ebebeb"/>
          </g>
        </g>
        <g id="Grupo_1099577" data-name="Grupo 1099577">
          <g id="Grupo_1099576" data-name="Grupo 1099576" clip-path="url(#clip-path)">
            <path id="Trazado_873987" data-name="Trazado 873987" d="M294.744,418.678c0,.143-65.986.258-147.366.258C65.972,418.937,0,418.822,0,418.678s65.972-.258,147.379-.258c81.38,0,147.366.115,147.366.258" transform="translate(0 -2.586)" fill="#263238"/>
            <path id="Trazado_873988" data-name="Trazado 873988" d="M181.267,352.109c.893-3.1,2.808-6.091,5.768-7.367,3.08-1.328,6.647-.571,9.8.573s6.246,2.677,9.593,2.884,7.124-1.381,8.126-4.582c.942-3.008-.872-6.216-3.143-8.4a19.832,19.832,0,0,0-32.494,7.8" transform="translate(-1.106 -2.038)" fill="#ffc278"/>
            <g id="Grupo_1099572" data-name="Grupo 1099572" transform="translate(177.81 327.659)" opacity="0.5">
              <g id="Grupo_1099571" data-name="Grupo 1099571">
                <g id="Grupo_1099570" data-name="Grupo 1099570" clip-path="url(#clip-path-4)">
                  <path id="Trazado_873989" data-name="Trazado 873989" d="M181.267,352.109c.893-3.1,2.808-6.091,5.768-7.367,3.08-1.328,6.647-.571,9.8.573s6.246,2.677,9.593,2.884,7.124-1.381,8.126-4.582c.942-3.008-.872-6.216-3.143-8.4a19.832,19.832,0,0,0-32.494,7.8" transform="translate(-178.916 -329.697)"/>
                </g>
              </g>
            </g>
            <path id="Trazado_873990" data-name="Trazado 873990" d="M154.577,365.536c-4.91-4.665-4.665-12.785-2.215-19.1s7.795-11.163,13.766-14.359a43.6,43.6,0,0,1,38-1.231,18.035,18.035,0,0,0-14.581,8.563c-2.691,4.469-3.29,9.893-5.513,14.612a23,23,0,0,1-29.454,11.514" transform="translate(-0.931 -2.021)" fill="#ffc278"/>
            <path id="Trazado_873991" data-name="Trazado 873991" d="M152.18,337.073c-5.436-6.417-6.16-16.719-5.36-25.091s2.742-16.8,1.421-25.1c-.782-4.92-2.691-9.619-3.336-14.559s.268-10.529,4.1-13.718c4.4-3.665,11.329-2.8,15.905.641s7.23,8.849,9.168,14.237c4.258,11.839,5.821,24.968,2.323,37.054s-11.705,22.892-23.746,26.54" transform="translate(-0.894 -1.584)" fill="#ffc278"/>
            <path id="Trazado_873992" data-name="Trazado 873992" d="M149.6,390.189a4.539,4.539,0,0,1-.021-.739c.007-.485,0-1.2.041-2.121.07-1.84.246-4.5.659-7.772a103.778,103.778,0,0,1,2.089-11.381A52.476,52.476,0,0,1,157.562,355a54.924,54.924,0,0,1,8.487-11.345,54.02,54.02,0,0,1,8.9-7.4c1.358-.939,2.671-1.652,3.8-2.312,1.159-.609,2.171-1.109,3-1.509l1.956-.823a4.459,4.459,0,0,1,.693-.257,4.652,4.652,0,0,1-.657.341l-1.916.9c-.815.423-1.812.943-2.954,1.57-1.114.678-2.409,1.405-3.748,2.356a55.911,55.911,0,0,0-17.169,18.7c-5,8.743-6.367,17.936-7.36,24.38-.451,3.254-.676,5.905-.8,7.74q-.079,1.328-.124,2.113a4.6,4.6,0,0,1-.071.737" transform="translate(-0.924 -2.048)" fill="#263238"/>
            <path id="Trazado_873993" data-name="Trazado 873993" d="M102.361,312.1C92.3,318.172,92.334,323.7,94.014,328.91s7.853,8.836,12.971,6.884c2.893-1.1,4.989-3.618,6.779-6.146s3.471-5.23,5.98-7.046,6.146-2.509,8.666-.71" transform="translate(-0.576 -1.929)" fill="#ffc278"/>
            <g id="Grupo_1099575" data-name="Grupo 1099575" transform="translate(92.599 310.174)" opacity="0.5">
              <g id="Grupo_1099574" data-name="Grupo 1099574">
                <g id="Grupo_1099573" data-name="Grupo 1099573" clip-path="url(#clip-path-5)">
                  <path id="Trazado_873994" data-name="Trazado 873994" d="M102.361,312.1C92.3,318.172,92.334,323.7,94.014,328.91s7.853,8.836,12.971,6.884c2.893-1.1,4.989-3.618,6.779-6.146s3.471-5.23,5.98-7.046,6.146-2.509,8.666-.71" transform="translate(-93.174 -312.103)"/>
                </g>
              </g>
            </g>
            <path id="Trazado_873995" data-name="Trazado 873995" d="M94.841,318.714c2.63-3.633,9.127-4.686,13.23-2.873s7.108,5.409,9.8,9,5.308,7.38,9.034,9.878,8.931,3.4,12.644.887a10.867,10.867,0,0,0,4.3-7.438,24.77,24.77,0,0,0-.59-8.77c-.887-4.218-2.336-8.623-5.712-11.3-3.763-2.987-8.983-3.129-13.784-2.972-5.509.18-11.1.593-16.272,2.5s-10.447,6.033-12.642,11.09" transform="translate(-0.586 -1.885)" fill="#ffc278"/>
            <path id="Trazado_873996" data-name="Trazado 873996" d="M141.028,381.979a.8.8,0,0,1-.027-.221c-.009-.173-.021-.386-.034-.649-.022-.607-.051-1.441-.087-2.5-.063-2.206-.153-5.333-.263-9.181-.122-3.876-.28-8.49-.56-13.607s-.666-10.741-1.442-16.6a53.434,53.434,0,0,0-1.667-8.429,43.713,43.713,0,0,0-3.083-7.375,42.437,42.437,0,0,0-3.889-6.1,39.707,39.707,0,0,0-4.246-4.662,31.235,31.235,0,0,0-7.528-5.133c-.492-.225-.919-.445-1.3-.6l-.983-.382-.6-.243a.838.838,0,0,1-.2-.1.783.783,0,0,1,.216.054l.618.2,1,.343c.393.144.829.354,1.329.567a30.111,30.111,0,0,1,7.668,5.056,39.166,39.166,0,0,1,4.327,4.669,42.289,42.289,0,0,1,3.96,6.139,43.557,43.557,0,0,1,3.137,7.438,53.078,53.078,0,0,1,1.691,8.5c.779,5.878,1.147,11.513,1.411,16.636s.382,9.742.463,13.62.11,7.017.12,9.187c0,1.056,0,1.891,0,2.5,0,.263-.008.477-.011.65a.82.82,0,0,1-.019.222" transform="translate(-0.711 -1.892)" fill="#263238"/>
            <path id="Trazado_873997" data-name="Trazado 873997" d="M144.82,386.333a28.954,28.954,0,0,1-1.1-4.319,45.353,45.353,0,0,1-.46-12.136,80.674,80.674,0,0,1,3.832-17.608c2.064-6.471,4.867-13.392,7.261-20.829a95.675,95.675,0,0,0,2.888-11.02,98.045,98.045,0,0,0,1.427-10.516,153.8,153.8,0,0,0,.32-17.982c-.174-5.123-.446-9.264-.616-12.128-.082-1.409-.148-2.514-.194-3.3-.017-.358-.03-.641-.04-.859a1.4,1.4,0,0,1,0-.293,1.42,1.42,0,0,1,.045.29c.021.217.049.5.084.855.066.781.159,1.884.278,3.292.224,2.859.545,7,.759,12.128a148.34,148.34,0,0,1-.226,18.028,96.654,96.654,0,0,1-1.407,10.565,94.747,94.747,0,0,1-2.892,11.074c-2.4,7.462-5.215,14.374-7.295,20.82a81.929,81.929,0,0,0-3.911,17.508,46.843,46.843,0,0,0,.317,12.076c.246,1.409.473,2.5.672,3.227.084.348.151.623.2.834a1.451,1.451,0,0,1,.055.289" transform="translate(-0.884 -1.702)" fill="#263238"/>
            <path id="Trazado_873998" data-name="Trazado 873998" d="M169.622,391.54H122.394l-1.078-9.09h48.307Z" transform="translate(-0.75 -2.364)" fill="#455a64"/>
            <path id="Trazado_873999" data-name="Trazado 873999" d="M127.5,390.555l5.9,27.27h25.663l5.525-27.27Z" transform="translate(-0.788 -2.414)" fill="#455a64"/>
            <path id="Trazado_874000" data-name="Trazado 874000" d="M169.634,391.6c0,.124-10.384.2-23.19.16s-23.191-.166-23.19-.29,10.381-.2,23.191-.16,23.189.166,23.189.29" transform="translate(-0.762 -2.418)" fill="#455a64"/>
            <path id="Trazado_874001" data-name="Trazado 874001" d="M161.571,405.117a19.5,19.5,0,0,0-4.159-2.384,14.713,14.713,0,0,0-5.058-1.016,17.816,17.816,0,0,0-6.218,1.141c-2.153.728-4.163,1.575-6.121,2.042a14.564,14.564,0,0,1-5.29.159,10.906,10.906,0,0,1-3.4-1.076,6.678,6.678,0,0,1-.82-.521c-.177-.134-.265-.21-.256-.222.025-.037.4.234,1.154.585a11.883,11.883,0,0,0,3.367.918,14.824,14.824,0,0,0,5.153-.248c1.89-.472,3.9-1.329,6.069-2.063a17.671,17.671,0,0,1,6.372-1.13,14.463,14.463,0,0,1,5.168,1.136,13.406,13.406,0,0,1,3.078,1.795,8,8,0,0,1,.733.633c.159.153.238.239.228.25" transform="translate(-0.805 -2.48)" fill="#263238"/>
            <path id="Trazado_874002" data-name="Trazado 874002" d="M161.217,406.949a20.594,20.594,0,0,0-3.994-2.352,13.543,13.543,0,0,0-4.878-1,17.567,17.567,0,0,0-6.015,1.082c-2.081.7-4.033,1.5-5.9,2a15.162,15.162,0,0,1-5.083.57,8.624,8.624,0,0,1-3.332-.891,6.061,6.061,0,0,1-.794-.5c-.172-.13-.256-.2-.247-.216.026-.037.391.227,1.117.56a9.166,9.166,0,0,0,3.277.731,15.532,15.532,0,0,0,4.953-.652c1.825-.514,3.763-1.328,5.867-2.032a17.423,17.423,0,0,1,6.168-1.069,13.363,13.363,0,0,1,7.939,2.91,8.439,8.439,0,0,1,.7.617c.154.149.23.233.219.244" transform="translate(-0.809 -2.492)" fill="#fff"/>
            <path id="Trazado_874003" data-name="Trazado 874003" d="M162.036,403.295a22.394,22.394,0,0,0-4.271-2.516,15.691,15.691,0,0,0-5.184-1.247,16.761,16.761,0,0,0-6.416,1.131,57.824,57.824,0,0,1-6.338,2.07,16.153,16.153,0,0,1-5.463.009,12.279,12.279,0,0,1-3.509-1.111A6.462,6.462,0,0,1,130,401.1c-.184-.137-.275-.215-.266-.227.026-.037.415.243,1.195.6a13.565,13.565,0,0,0,3.482.954,16.5,16.5,0,0,0,5.335-.1,63.822,63.822,0,0,0,6.271-2.089,16.741,16.741,0,0,1,6.586-1.118,15.886,15.886,0,0,1,8.438,3.266,8.666,8.666,0,0,1,.757.653c.165.159.245.246.236.258" transform="translate(-0.802 -2.466)" fill="#fff"/>
            <path id="Trazado_874004" data-name="Trazado 874004" d="M170.047,391.635c0,.124-10.624.225-23.726.225s-23.728-.1-23.728-.225,10.622-.225,23.728-.225,23.726.1,23.726.225" transform="translate(-0.758 -2.419)" fill="#263238"/>
          </g>
        </g>
        <g id="Grupo_1099585" data-name="Grupo 1099585">
          <g id="Grupo_1099584" data-name="Grupo 1099584" clip-path="url(#clip-path)">
            <path id="Trazado_874005" data-name="Trazado 874005" d="M62.188,386.57,63,411.3l6.282,19.378a2.536,2.536,0,0,1-4.056,2.712c-3.972-3.406-18.521-16.008-18.479-17.821.049-2.1-2.588-26.032-2.588-26.032Z" transform="translate(-0.273 -2.389)" fill="#ffc278"/>
            <path id="Trazado_874006" data-name="Trazado 874006" d="M67.5,434.092,46.669,414.074l.059,1.047a3.817,3.817,0,0,0,1.042,2.421c1.671,1.756,6.393,6.5,17.4,16.026a2.534,2.534,0,0,0,2.334.524" transform="translate(-0.288 -2.559)" fill="#e0e0e0"/>
            <path id="Trazado_874007" data-name="Trazado 874007" d="M51.31,405.768a1.533,1.533,0,0,1,.531,1.977,1.475,1.475,0,0,1-1.955.544,1.618,1.618,0,0,1-.552-2.1,1.53,1.53,0,0,1,2.1-.339" transform="translate(-0.304 -2.506)" fill="#fff"/>
            <path id="Trazado_874008" data-name="Trazado 874008" d="M61.343,423.651c.144.061.629-1.265,2.059-2.042a7.718,7.718,0,0,1,2.814-.7c.018-.062-.305-.237-.888-.286a4.042,4.042,0,0,0-3.77,2.124c-.259.524-.278.891-.216.907" transform="translate(-0.379 -2.599)" fill="#263238"/>
            <path id="Trazado_874009" data-name="Trazado 874009" d="M63.3,426.888c.123.1.872-.747,2.13-1.185a20.621,20.621,0,0,1,2.4-.445,2.809,2.809,0,0,0-2.58-.066c-1.43.507-2.077,1.636-1.945,1.7" transform="translate(-0.391 -2.626)" fill="#263238"/>
            <path id="Trazado_874010" data-name="Trazado 874010" d="M57.809,419.567a25.387,25.387,0,0,1,3.162-2.049,25.326,25.326,0,0,1,3.617-1.059,5.625,5.625,0,0,0-3.844.564,5.619,5.619,0,0,0-2.936,2.544" transform="translate(-0.357 -2.573)" fill="#263238"/>
            <path id="Trazado_874011" data-name="Trazado 874011" d="M56.929,412.034c.075.144,1.407-.5,3.18-.665,1.77-.188,3.2.185,3.249.029a4.9,4.9,0,0,0-3.3-.569,4.907,4.907,0,0,0-3.127,1.206" transform="translate(-0.352 -2.539)" fill="#263238"/>
            <path id="Trazado_874012" data-name="Trazado 874012" d="M56.5,404.735a12.375,12.375,0,0,1,3.292-.78,12.408,12.408,0,0,1,3.322.64c.038-.054-.249-.349-.838-.646a5.525,5.525,0,0,0-4.967.1c-.574.323-.849.629-.809.682" transform="translate(-0.349 -2.493)" fill="#263238"/>
            <path id="Trazado_874013" data-name="Trazado 874013" d="M59.672,402.542a2.128,2.128,0,0,0-.019-.936,6.482,6.482,0,0,0-.879-2.406,2.883,2.883,0,0,0-1.311-1.306,1.018,1.018,0,0,0-1.135.29A1.658,1.658,0,0,0,56,399.321a3.583,3.583,0,0,0,3.32,3.137,4.157,4.157,0,0,0,3.955-2.4,1.44,1.44,0,0,0,0-1.2,1,1,0,0,0-1.073-.47,3.548,3.548,0,0,0-1.58.937,7.232,7.232,0,0,0-1.579,2.013,2.186,2.186,0,0,0-.332.875,11.512,11.512,0,0,1,2.161-2.6,3.3,3.3,0,0,1,1.4-.782.532.532,0,0,1,.586.252,1,1,0,0,1-.047.79,3.712,3.712,0,0,1-3.455,2.039,3.11,3.11,0,0,1-2.856-2.622,1.194,1.194,0,0,1,.2-.8.551.551,0,0,1,.623-.17,2.605,2.605,0,0,1,1.131,1.085,9.61,9.61,0,0,1,1.221,3.137" transform="translate(-0.346 -2.459)" fill="#263238"/>
            <path id="Trazado_874014" data-name="Trazado 874014" d="M110.631,390.263l-1.281,18.494s18.368,7.513,18.463,10.954l-35.947-1.2.814-28.9Z" transform="translate(-0.568 -2.408)" fill="#ffc278"/>
            <path id="Trazado_874015" data-name="Trazado 874015" d="M98.319,406.936a1.469,1.469,0,0,0-1.07,1.642,1.41,1.41,0,0,0,1.617,1.075,1.549,1.549,0,0,0,1.125-1.744,1.465,1.465,0,0,0-1.807-.932" transform="translate(-0.601 -2.515)" fill="#e0e0e0"/>
            <path id="Trazado_874016" data-name="Trazado 874016" d="M91.866,418.676l.2-2.91L126.455,418s1.577.75,1.359,1.871Z" transform="translate(-0.568 -2.569)" fill="#e0e0e0"/>
            <path id="Trazado_874017" data-name="Trazado 874017" d="M110.03,408.71c-.012.175-.892.226-1.774.761-.9.513-1.368,1.258-1.527,1.184-.161-.04.136-1.08,1.215-1.71s2.129-.395,2.085-.235" transform="translate(-0.659 -2.525)" fill="#263238"/>
            <path id="Trazado_874018" data-name="Trazado 874018" d="M113.778,410.407c.035.172-.735.445-1.357,1.168-.642.7-.819,1.5-.994,1.489-.166.022-.253-1.011.536-1.894s1.817-.929,1.815-.762" transform="translate(-0.688 -2.536)" fill="#263238"/>
            <path id="Trazado_874019" data-name="Trazado 874019" d="M115.795,415c-.161.032-.376-.853.107-1.8s1.316-1.3,1.385-1.154c.094.148-.456.646-.84,1.429-.4.773-.478,1.512-.653,1.524" transform="translate(-0.714 -2.546)" fill="#263238"/>
            <path id="Trazado_874020" data-name="Trazado 874020" d="M109.851,404.434c-.079.158-.877-.111-1.87-.078-1,.015-1.778.322-1.864.168-.1-.13.678-.754,1.849-.779s1.976.554,1.885.689" transform="translate(-0.656 -2.495)" fill="#263238"/>
            <path id="Trazado_874021" data-name="Trazado 874021" d="M110.031,400.66a3.373,3.373,0,0,1-1.8-.069,8.083,8.083,0,0,1-1.864-.641,8.568,8.568,0,0,1-1.016-.582,2.231,2.231,0,0,1-.53-.442.767.767,0,0,1-.05-.936.963.963,0,0,1,.783-.376,2.348,2.348,0,0,1,.672.115,6.464,6.464,0,0,1,1.106.421,6.369,6.369,0,0,1,1.624,1.145c.809.8,1.071,1.466,1.011,1.5-.081.055-.469-.508-1.3-1.174a7.171,7.171,0,0,0-1.575-.958,6.733,6.733,0,0,0-1.024-.354c-.377-.112-.7-.125-.8.041-.038.064-.044.088.033.2a1.792,1.792,0,0,0,.39.322,9.252,9.252,0,0,0,.932.575,10.028,10.028,0,0,0,1.718.725,12.283,12.283,0,0,1,1.69.487" transform="translate(-0.647 -2.457)" fill="#263238"/>
            <path id="Trazado_874022" data-name="Trazado 874022" d="M109.824,400.889a2.865,2.865,0,0,1-.416-1.755,5.822,5.822,0,0,1,.806-3.04,1.486,1.486,0,0,1,1.179-.871.84.84,0,0,1,.734.527,2.4,2.4,0,0,1,.163.666,3.99,3.99,0,0,1-.039,1.212,4.143,4.143,0,0,1-.831,1.835c-.733.908-1.473,1.093-1.486,1.034-.056-.09.567-.408,1.135-1.286a4.156,4.156,0,0,0,.626-1.673,3.729,3.729,0,0,0,0-1.042c-.044-.384-.177-.7-.321-.663-.179-.008-.492.269-.649.569a5.929,5.929,0,0,0-.479.961,6.486,6.486,0,0,0-.408,1.785c-.084,1.053.081,1.716-.015,1.74" transform="translate(-0.676 -2.442)" fill="#263238"/>
            <path id="Trazado_874023" data-name="Trazado 874023" d="M36.383,206.581,41.7,405.391l28.357-.852,6.763-204.734Z" transform="translate(-0.225 -1.235)" fill="#263238"/>
            <path id="Trazado_874024" data-name="Trazado 874024" d="M95.51,199.465s21.053,84.28,21.7,98.651-4.5,104.191-4.5,104.191H84.94l2.319-102.285L66.171,213.461l5.1-13.554Z" transform="translate(-0.409 -1.233)" fill="#263238"/>
            <path id="Trazado_874025" data-name="Trazado 874025" d="M78.417,209.879a1.145,1.145,0,0,1,.011.269c0,.208-.009.467-.016.789-.027.731-.064,1.744-.112,3.028-.123,2.67-.3,6.464-.511,11.134-.483,9.433-1.147,22.4-1.879,36.72-.793,14.324-1.509,27.287-2.031,36.719-.283,4.667-.513,8.457-.675,11.126-.089,1.282-.159,2.294-.21,3.024-.028.321-.051.579-.068.786a1.108,1.108,0,0,1-.041.267,1.051,1.051,0,0,1-.013-.268c0-.208.01-.467.017-.788.027-.731.065-1.743.112-3.027.122-2.669.3-6.462.511-11.132.482-9.433,1.146-22.4,1.879-36.73.792-14.32,1.51-27.284,2.031-36.716.283-4.667.513-8.457.675-11.126.089-1.282.159-2.293.21-3.023.028-.321.05-.579.069-.786a.922.922,0,0,1,.041-.266" transform="translate(-0.45 -1.297)" fill="#455a64"/>
            <path id="Trazado_874026" data-name="Trazado 874026" d="M75.112,90.707s10.3,51.12,10.45,65.526,5.208,42.544,5.208,42.544H46.145l-.963-77.884L42,97.662l6.7-9.556Z" transform="translate(-0.26 -0.544)" fill="#f5f5f5"/>
            <path id="Trazado_874027" data-name="Trazado 874027" d="M75.86,92.238S86.506,95.364,89.32,99.3c2.22,3.106,5.215,61.908,5.215,61.908L99.1,213l-4.467-.419-6.3-19.386Z" transform="translate(-0.469 -0.57)" fill="#ffc278"/>
            <path id="Trazado_874028" data-name="Trazado 874028" d="M89.4,99.346l30.056,27.578,36.981-11.98,7.366,15.525-39.459,17.911c-5.64,2.406-9.175,1.081-13.089-2.053l-20.7-16.58Z" transform="translate(-0.553 -0.614)" fill="#ffc278"/>
            <path id="Trazado_874029" data-name="Trazado 874029" d="M149.921,120.015a.811.811,0,1,1-1.1-.333.811.811,0,0,1,1.1.333" transform="translate(-0.917 -0.739)" fill="#263238"/>
            <path id="Trazado_874030" data-name="Trazado 874030" d="M149.2,121.233a.855.855,0,0,1-.243-.036.837.837,0,0,1-.151-1.537.835.835,0,0,1,1.131.344.836.836,0,0,1-.736,1.229m0-1.622a.786.786,0,1,0,.695.415.78.78,0,0,0-.695-.415" transform="translate(-0.917 -0.739)" fill="#263238"/>
            <path id="Trazado_874031" data-name="Trazado 874031" d="M153.04,119.273a.811.811,0,1,1-1.1-.333.811.811,0,0,1,1.1.333" transform="translate(-0.936 -0.734)" fill="#263238"/>
            <path id="Trazado_874032" data-name="Trazado 874032" d="M152.325,120.492a.84.84,0,0,1-.737-.442.836.836,0,0,1,.98-1.194.836.836,0,0,1-.242,1.636m0-1.623a.786.786,0,0,0-.692,1.157.774.774,0,0,0,.464.382.786.786,0,0,0,.922-1.122.776.776,0,0,0-.465-.382.794.794,0,0,0-.23-.035" transform="translate(-0.936 -0.734)" fill="#263238"/>
            <path id="Trazado_874033" data-name="Trazado 874033" d="M156.009,118.674a.811.811,0,1,1-1.1-.333.811.811,0,0,1,1.1.333" transform="translate(-0.955 -0.731)" fill="#263238"/>
            <path id="Trazado_874034" data-name="Trazado 874034" d="M155.295,119.892a.836.836,0,0,1-.4-1.573.836.836,0,1,1,.787,1.475.815.815,0,0,1-.392.1m0-1.622a.8.8,0,0,0-.37.092.787.787,0,1,0,.37-.092" transform="translate(-0.955 -0.731)" fill="#263238"/>
            <path id="Trazado_874035" data-name="Trazado 874035" d="M157.228,115.811l2.86-1.046,6.567,13.835-2.8,1.192Z" transform="translate(-0.972 -0.709)" fill="#e0e0e0"/>
            <path id="Trazado_874036" data-name="Trazado 874036" d="M90.373,110.311a9.247,9.247,0,0,1,.173,1.546c.111,1.086.255,2.5.43,4.212.412,3.644.964,8.511,1.572,13.89.6,5.429,1.081,10.354,1.3,13.929.119,1.787.171,3.237.182,4.24a8.963,8.963,0,0,1-.051,1.556,8.944,8.944,0,0,1-.15-1.548c-.074-1-.181-2.439-.346-4.219-.317-3.561-.853-8.473-1.454-13.9s-1.129-10.342-1.422-13.912c-.15-1.784-.233-3.233-.268-4.235a8.75,8.75,0,0,1,.029-1.558" transform="translate(-0.558 -0.682)" fill="#263238"/>
            <path id="Trazado_874037" data-name="Trazado 874037" d="M96.953,117.253a56.681,56.681,0,0,1-1.882,7.411,56.591,56.591,0,0,1-2.38,7.266,56.724,56.724,0,0,1,1.882-7.411,56.791,56.791,0,0,1,2.38-7.266" transform="translate(-0.573 -0.725)" fill="#263238"/>
            <path id="Trazado_874038" data-name="Trazado 874038" d="M119.32,136.409a3.1,3.1,0,0,1-.666-1.315,9.5,9.5,0,0,1,.438-6.984c.4-.823.773-1.254.825-1.221a18.2,18.2,0,0,0-1.195,4.7,18.235,18.235,0,0,0,.6,4.816" transform="translate(-0.73 -0.784)" fill="#263238"/>
            <path id="Trazado_874039" data-name="Trazado 874039" d="M115.858,168.612l3.847.3-1.527,16.047-3.713-.423Z" transform="translate(-0.707 -1.042)" fill="#e0e0e0"/>
            <path id="Trazado_874040" data-name="Trazado 874040" d="M48.59,89.227,27.853,102.449a13.472,13.472,0,0,0-5.028,15.277l15.909,49.983L33,213.126,78.45,211.2l-1.105-19.909-3.861-35.615a70.778,70.778,0,0,0-4.879-19.225Z" transform="translate(-0.137 -0.551)" fill="#ffc278"/>
            <path id="Trazado_874041" data-name="Trazado 874041" d="M26.942,120.543,47.687,163.95a12.848,12.848,0,0,0,8.63,6.961l57.56,13.634,1.467-16.757L71.405,151.262,49.3,108.841a12.619,12.619,0,1,0-22.361,11.7" transform="translate(-0.158 -0.631)" fill="#ffc278"/>
            <path id="Trazado_874042" data-name="Trazado 874042" d="M115.378,167.794a.927.927,0,0,1-.237-.064l-.679-.231-2.606-.933-9.637-3.547L69.734,150.879l-.093-.036-.046-.091c-1.227-2.431-2.513-4.982-3.823-7.577-3.6-7.02-7.193-13.627-10.55-19.584-1.678-2.978-3.3-5.8-4.827-8.424l-2.228-3.793c-.352-.614-.713-1.2-1.09-1.751a13.6,13.6,0,0,0-1.177-1.569,13.807,13.807,0,0,0-5.525-4.01,12.569,12.569,0,0,0-5.1-.909,9.108,9.108,0,0,0-4.267,1.141,1.208,1.208,0,0,1,.241-.172,4.032,4.032,0,0,1,.763-.417,8.927,8.927,0,0,1,3.254-.752,12.561,12.561,0,0,1,5.215.841,15,15,0,0,1,6.915,5.634c.393.563.76,1.153,1.115,1.761l2.256,3.781c1.546,2.62,3.181,5.43,4.872,8.406,3.382,5.948,6.987,12.555,10.6,19.582,1.329,2.588,2.612,5.144,3.82,7.587l-.139-.125,32.425,12.3,9.582,3.691,2.575,1.018.662.274a.95.95,0,0,1,.22.108" transform="translate(-0.192 -0.636)" fill="#263238"/>
            <path id="Trazado_874043" data-name="Trazado 874043" d="M106.05,178.7a.811.811,0,1,1-.811-.811.811.811,0,0,1,.811.811" transform="translate(-0.645 -1.099)" fill="#263238"/>
            <path id="Trazado_874044" data-name="Trazado 874044" d="M105.239,179.539a.836.836,0,1,1,.836-.836.836.836,0,0,1-.836.836m0-1.622a.787.787,0,1,0,.786.786.787.787,0,0,0-.786-.786" transform="translate(-0.645 -1.099)" fill="#263238"/>
            <path id="Trazado_874045" data-name="Trazado 874045" d="M109.151,179.519a.811.811,0,1,1-.811-.811.811.811,0,0,1,.811.811" transform="translate(-0.665 -1.104)" fill="#263238"/>
            <path id="Trazado_874046" data-name="Trazado 874046" d="M108.34,180.355a.836.836,0,1,1,.836-.836.836.836,0,0,1-.836.836m0-1.622a.786.786,0,1,0,.787.786.787.787,0,0,0-.787-.786" transform="translate(-0.664 -1.104)" fill="#263238"/>
            <path id="Trazado_874047" data-name="Trazado 874047" d="M112.052,180.389a.811.811,0,1,1-.811-.811.811.811,0,0,1,.811.811" transform="translate(-0.682 -1.11)" fill="#263238"/>
            <path id="Trazado_874048" data-name="Trazado 874048" d="M111.241,181.225a.836.836,0,1,1,.836-.836.836.836,0,0,1-.836.836m0-1.622a.786.786,0,1,0,.786.786.787.787,0,0,0-.786-.786" transform="translate(-0.682 -1.11)" fill="#263238"/>
            <path id="Trazado_874049" data-name="Trazado 874049" d="M113.911,184.712a1.163,1.163,0,0,1-.28-.045l-.809-.181-3.1-.742-11.384-2.8c-9.612-2.359-22.877-5.695-37.585-9.1-1.838-.44-3.663-.79-5.459-1.276a11.989,11.989,0,0,1-4.92-2.458,14.345,14.345,0,0,1-3.01-4.368L45.192,159.2c-2.8-5.908-5.321-11.231-7.446-15.716-2.089-4.455-3.786-8.072-4.978-10.614-.565-1.23-1.011-2.2-1.33-2.9l-.335-.759a1.142,1.142,0,0,1-.1-.266,1.213,1.213,0,0,1,.146.244c.1.192.225.434.381.736l1.417,2.855,5.127,10.542,7.544,15.666,2.183,4.524a13.923,13.923,0,0,0,2.908,4.212,11.489,11.489,0,0,0,4.719,2.337c1.756.475,3.6.829,5.436,1.268,14.719,3.41,27.968,6.8,37.559,9.252l11.344,2.962,3.077.836.8.231a1.178,1.178,0,0,1,.267.1" transform="translate(-0.192 -0.797)" fill="#263238"/>
            <path id="Trazado_874050" data-name="Trazado 874050" d="M67.517,182.322c.02.03-.225.235-.686.578s-1.139.828-1.995,1.4a32.165,32.165,0,0,1-7.151,3.717,16.324,16.324,0,0,1-8.013.8,10.618,10.618,0,0,1-2.361-.679,2.629,2.629,0,0,1-.792-.428,27.944,27.944,0,0,0,3.208.745,17.357,17.357,0,0,0,7.79-.93,38.277,38.277,0,0,0,7.123-3.537,24.82,24.82,0,0,1,2.877-1.67" transform="translate(-0.287 -1.127)" fill="#263238"/>
            <path id="Trazado_874051" data-name="Trazado 874051" d="M70.031,188.121a1.182,1.182,0,0,1,.143.374,8.72,8.72,0,0,1,.264,1.116,12.3,12.3,0,0,1-.04,4.215,12.878,12.878,0,0,1-2.584,5.691,12.748,12.748,0,0,1-14.031,3.92,12.859,12.859,0,0,1-5.16-3.528,12.288,12.288,0,0,1-2.218-3.584,8.591,8.591,0,0,1-.352-1.09,1.187,1.187,0,0,1-.072-.394,15.19,15.19,0,0,0,2.913,4.822,12.849,12.849,0,0,0,5.049,3.325,12.467,12.467,0,0,0,13.5-3.773,12.835,12.835,0,0,0,2.594-5.46,15.177,15.177,0,0,0-.008-5.634" transform="translate(-0.284 -1.163)" fill="#263238"/>
            <path id="Trazado_874052" data-name="Trazado 874052" d="M51,49.3l.131,37.032a11.016,11.016,0,1,0,22.032-.094c-.013-2.788-.018-5.112,0-5.4,0,0,9.424-.92,10.071-10.253.313-4.51.2-13.852,0-22.3A17.425,17.425,0,0,0,66.8,31.306l-.9-.052c-9.749.014-15.184,8.3-14.9,18.047" transform="translate(-0.315 -0.193)" fill="#b78876"/>
            <path id="Trazado_874053" data-name="Trazado 874053" d="M73.251,80.987a21.749,21.749,0,0,1-11.979-4.154s2.494,6.885,11.862,6.575Z" transform="translate(-0.379 -0.475)" fill="#aa6550"/>
            <path id="Trazado_874054" data-name="Trazado 874054" d="M81.093,53.907a1.335,1.335,0,0,1-1.363,1.272A1.277,1.277,0,0,1,78.424,53.9a1.337,1.337,0,0,1,1.362-1.273,1.279,1.279,0,0,1,1.308,1.282" transform="translate(-0.485 -0.325)" fill="#263238"/>
            <path id="Trazado_874055" data-name="Trazado 874055" d="M81.344,52.318c-.175.164-1.143-.641-2.579-.719-1.432-.1-2.528.579-2.673.395-.073-.081.114-.387.592-.694a3.661,3.661,0,0,1,2.153-.532,3.514,3.514,0,0,1,2.039.789c.422.364.554.687.468.76" transform="translate(-0.47 -0.314)" fill="#263238"/>
            <path id="Trazado_874056" data-name="Trazado 874056" d="M67.062,53.793A1.336,1.336,0,0,1,65.7,55.065a1.277,1.277,0,0,1-1.307-1.281,1.337,1.337,0,0,1,1.362-1.273,1.279,1.279,0,0,1,1.308,1.282" transform="translate(-0.398 -0.325)" fill="#263238"/>
            <path id="Trazado_874057" data-name="Trazado 874057" d="M66.969,51.992c-.176.165-1.145-.641-2.579-.719-1.433-.1-2.528.579-2.674.395-.072-.081.113-.386.592-.694a3.665,3.665,0,0,1,2.153-.532,3.517,3.517,0,0,1,2.04.789c.421.364.554.687.468.76" transform="translate(-0.381 -0.312)" fill="#263238"/>
            <path id="Trazado_874058" data-name="Trazado 874058" d="M71.577,63.28a9.577,9.577,0,0,1,2.355-.288c.369-.017.72-.07.8-.316a1.863,1.863,0,0,0-.183-1.1q-.441-1.36-.924-2.853c-1.279-4.059-2.182-7.388-2.018-7.438s1.334,3.2,2.613,7.259q.459,1.5.878,2.866a2.121,2.121,0,0,1,.108,1.449.921.921,0,0,1-.633.5,2.5,2.5,0,0,1-.627.051,9.347,9.347,0,0,1-2.363-.131" transform="translate(-0.442 -0.317)" fill="#263238"/>
            <path id="Trazado_874059" data-name="Trazado 874059" d="M67.542,49c-.164.382-1.586.115-3.282.223-1.7.073-3.084.488-3.288.125-.089-.173.168-.527.738-.873a5.715,5.715,0,0,1,5-.265c.6.284.9.608.826.79" transform="translate(-0.377 -0.295)" fill="#263238"/>
            <path id="Trazado_874060" data-name="Trazado 874060" d="M81.225,48.872c-.271.312-1.24-.083-2.429-.167-1.185-.125-2.207.094-2.42-.26-.092-.171.084-.489.543-.772a3.526,3.526,0,0,1,3.907.344c.4.36.52.7.4.856" transform="translate(-0.472 -0.292)" fill="#263238"/>
            <path id="Trazado_874061" data-name="Trazado 874061" d="M51.332,56.412c-.155-.079-6.309-2.264-6.469,4.133s6.295,5.237,6.311,5.055.158-9.188.158-9.188" transform="translate(-0.277 -0.346)" fill="#b78876"/>
            <path id="Trazado_874062" data-name="Trazado 874062" d="M49.291,63.14c-.028-.021-.113.076-.3.157a1.113,1.113,0,0,1-.833,0,2.756,2.756,0,0,1-1.214-2.505,3.683,3.683,0,0,1,.352-1.588,1.285,1.285,0,0,1,.86-.834.565.565,0,0,1,.65.322c.081.181.038.307.072.319.017.017.139-.1.094-.369a.707.707,0,0,0-.241-.407.843.843,0,0,0-.612-.179,1.568,1.568,0,0,0-1.189.963,3.787,3.787,0,0,0-.431,1.774,2.894,2.894,0,0,0,1.556,2.8,1.2,1.2,0,0,0,1.024-.144c.2-.153.24-.3.218-.307" transform="translate(-0.287 -0.359)" fill="#aa6550"/>
            <path id="Trazado_874063" data-name="Trazado 874063" d="M47.806,55.833a3.364,3.364,0,0,1,2.984,1.75c.363.936.4,1.974.757,2.91a2.261,2.261,0,0,0,2.239,1.64A1.967,1.967,0,0,0,55.2,60.752a5.4,5.4,0,0,0,.136-2.058c-.206-3-.664-6-.613-9.006a15.365,15.365,0,0,1,2.38-8.575,8.406,8.406,0,0,1,7.708-3.774c1.976.273,3.737,1.412,5.693,1.8a7.814,7.814,0,0,0,6.6-1.794,2.972,2.972,0,0,1,.315-.226,1.723,1.723,0,0,0,.728-1.956,1.661,1.661,0,0,0-.342-.633c-3.7-3.84-10.7-5.251-15.936-4.246a18.662,18.662,0,0,0-12.789,9.091c-2.5,4.715-2.223,11.487-1.278,16.456" transform="translate(-0.291 -0.185)" fill="#263238"/>
            <path id="Trazado_874064" data-name="Trazado 874064" d="M68.167,64.488c.233-.014.237,1.541,1.566,2.646s2.986.932,3,1.15c.022.1-.369.3-1.068.321a3.869,3.869,0,0,1-2.5-.873,3.372,3.372,0,0,1-1.214-2.217c-.061-.65.114-1.036.221-1.027" transform="translate(-0.42 -0.399)" fill="#263238"/>
            <path id="Trazado_874065" data-name="Trazado 874065" d="M158.023,117.36s7-6.155,8.331-6.606,11.87-.646,12.583-.118,11.385,6.382,9.618,7.279-9.172-3.3-9.172-3.3l-1.245.164s6.457,3.448,7.609,4.776c1.059,1.222.046,2.686-1.161,2.125s-6.747-3.761-7.184-3.638,5.905,3.831,6.49,4.518c.785.924.278,2.712-.937,2.2-.717-.305-6.568-4.181-6.568-4.181a57.968,57.968,0,0,1,4.732,4.329c.517.995-.475,1.893-1.495,1.269-.7-.428-3.706-3.386-4.644-3.958,0,0-1.036-.074-2.558,1.548s-7.526,3.849-7.526,3.849Z" transform="translate(-0.977 -0.682)" fill="#b78876"/>
            <path id="Trazado_874066" data-name="Trazado 874066" d="M188.622,117.96a5.554,5.554,0,0,1-2.264-.142,12.962,12.962,0,0,1-2.371-.71c-.833-.4-1.734-.857-2.683-1.339l-2.008-1.04.132.032a32.31,32.31,0,0,1-5.421-.154,32.162,32.162,0,0,1,5.413-.385l.064,0,.069.034,2,1.009,2.639,1.366a15.916,15.916,0,0,0,2.258.8c1.324.357,2.18.443,2.173.531" transform="translate(-1.075 -0.706)" fill="#aa6550"/>
            <path id="Trazado_874067" data-name="Trazado 874067" d="M160.646,119.165a2.393,2.393,0,0,0,2.637.907c.976-.208,1.853-.739,2.813-1.017,2.867-.829,6.057.7,8.882-.26.394-.134.837-.424.789-.838-.044-.383-.476-.573-.843-.691l-9.42-3" transform="translate(-0.993 -0.706)" fill="#b78876"/>
            <path id="Trazado_874068" data-name="Trazado 874068" d="M165.5,114.266a3.967,3.967,0,0,1,1.052.22c.666.177,1.624.45,2.8.8l4.138,1.255,1.194.37c.37.147.917.174,1.273.758a.834.834,0,0,1-.148.924,1.7,1.7,0,0,1-.677.441,6.437,6.437,0,0,1-1.423.318,37.829,37.829,0,0,1-5.318-.287,7.432,7.432,0,0,0-2.218.211c-.671.182-1.28.474-1.869.686a3.485,3.485,0,0,1-2.948.022c-.644-.372-.741-.825-.718-.818a2.884,2.884,0,0,0,.815.621,3.368,3.368,0,0,0,2.706-.2c.561-.226,1.162-.544,1.885-.762a7.643,7.643,0,0,1,2.359-.28,44.074,44.074,0,0,0,5.242.245,6.071,6.071,0,0,0,1.286-.281c.387-.139.649-.417.528-.6-.1-.222-.535-.361-.939-.485l-1.189-.389-4.1-1.37c-1.165-.4-2.1-.729-2.751-.97a3.992,3.992,0,0,1-.985-.429" transform="translate(-0.993 -0.706)" fill="#aa6550"/>
            <path id="Trazado_874069" data-name="Trazado 874069" d="M117.97,169l11.619-1.151s15.363,10.523,13.891,12.838-4,0-4,0,2.736,3.367-1.684,4.419c0,0-1.052,2.315-2.736,2.1l-1.052.014s-.952,2.933-2.37,2.3-5.707-4.42-5.707-4.42l-11.916-1.052Z" transform="translate(-0.705 -1.037)" fill="#b78876"/>
            <path id="Trazado_874070" data-name="Trazado 874070" d="M125.243,181.057s-2.975,1.143-3.595,2.337-.977,4.012.942,4.524a17.018,17.018,0,0,0,3.38-.106l-.734-3.128a21.933,21.933,0,0,1,1.775-1.835c.633-.527-.06-2.585-1.768-1.793" transform="translate(-0.749 -1.118)" fill="#ffbe9d"/>
            <path id="Trazado_874071" data-name="Trazado 874071" d="M128.614,182.656s-2.975,1.143-3.595,2.337a2.627,2.627,0,0,0,1.71,3.713,13.852,13.852,0,0,0,3.07-.1l-.312-.606c-.6-1.173-.862-2.123.2-2.906.059-.044.651-.6.695-.641a1.3,1.3,0,0,0-1.768-1.793" transform="translate(-0.771 -1.128)" fill="#ffbe9d"/>
            <path id="Trazado_874072" data-name="Trazado 874072" d="M129.356,188.51a1.726,1.726,0,0,1-.242-2.044,2.822,2.822,0,0,1,1.744-1.272,1.307,1.307,0,0,1,1.362.222,1.152,1.152,0,0,1,.191.893,4.689,4.689,0,0,1-1.168,2.174c-.276.347-.619.726-1.062.716s-.779-.425-1.036-.8" transform="translate(-0.797 -1.144)" fill="#ffbe9d"/>
            <path id="Trazado_874073" data-name="Trazado 874073" d="M66.16,94.272l2.612-.989,2.265,4.047-1.261,4.319-2.664.659-2.656-3.346Z" transform="translate(-0.398 -0.577)" fill="#ffc278"/>
            <path id="Trazado_874074" data-name="Trazado 874074" d="M67.129,102.36s3.381,18.594,6.2,31.675c0,0,2.312,10.888,3.248,13.4a36.756,36.756,0,0,0,4.26,7l3.273,1.266-2-18.378L69.793,101.7Z" transform="translate(-0.415 -0.629)" fill="#ffc278"/>
            <g id="Grupo_1099580" data-name="Grupo 1099580" transform="translate(64.057 92.706)" opacity="0.4">
              <g id="Grupo_1099579" data-name="Grupo 1099579">
                <g id="Grupo_1099578" data-name="Grupo 1099578" clip-path="url(#clip-path-7)">
                  <path id="Trazado_874075" data-name="Trazado 874075" d="M66.16,94.272l2.612-.989,2.265,4.047-1.261,4.319-2.664.659-2.656-3.346Z" transform="translate(-64.455 -93.283)"/>
                </g>
              </g>
            </g>
            <g id="Grupo_1099583" data-name="Grupo 1099583" transform="translate(66.714 101.072)" opacity="0.4">
              <g id="Grupo_1099582" data-name="Grupo 1099582">
                <g id="Grupo_1099581" data-name="Grupo 1099581" clip-path="url(#clip-path-8)">
                  <path id="Trazado_874076" data-name="Trazado 874076" d="M67.129,102.36s3.381,18.594,6.2,31.675c0,0,2.648,10.787,3.248,13.4.352,1.535,4.26,7,4.26,7l3.273,1.266-2-18.378L69.793,101.7Z" transform="translate(-67.129 -101.701)"/>
                </g>
              </g>
            </g>
            <path id="Trazado_874077" data-name="Trazado 874077" d="M50.383,82.908l15.679,11.3-3.39,9.322L48.405,88.84Z" transform="translate(-0.299 -0.512)" fill="#f5f5f5"/>
            <path id="Trazado_874078" data-name="Trazado 874078" d="M68.8,93.223l4.383-9.774,2.478,8.062-3.443,8.474Z" transform="translate(-0.425 -0.516)" fill="#f5f5f5"/>
            <path id="Trazado_874079" data-name="Trazado 874079" d="M66.063,94.24a2.616,2.616,0,0,1-.176.717c-.177.541-.387,1.187-.635,1.949-.561,1.663-1.376,4.005-2.351,6.739l-.135.38-.272-.3-3.655-4.031c-2.84-3.152-5.389-6.026-7.215-8.121-.85-.993-1.567-1.829-2.143-2.5a5.545,5.545,0,0,1-.733-.964,5.412,5.412,0,0,1,.884.83l2.264,2.39c1.9,2.034,4.488,4.868,7.328,8.02l3.63,4.054-.407.079c1.01-2.722,1.888-5.042,2.527-6.675l.765-1.9a2.6,2.6,0,0,1,.325-.662" transform="translate(-0.301 -0.544)" fill="#263238"/>
            <path id="Trazado_874080" data-name="Trazado 874080" d="M75.66,91.561a10.993,10.993,0,0,1-.731,2.287c-.514,1.388-1.255,3.293-2.1,5.384-.126.308-.25.611-.368.9l-.257.629-.224-.64A43.969,43.969,0,0,0,68.849,93.7a6.632,6.632,0,0,1,1.308,1.631,21.6,21.6,0,0,1,2.3,4.618l-.48-.011c.116-.289.24-.593.364-.9.85-2.091,1.646-3.973,2.246-5.326a11.124,11.124,0,0,1,1.07-2.15" transform="translate(-0.425 -0.566)" fill="#263238"/>
          </g>
        </g>
        <g id="Grupo_1099593" data-name="Grupo 1099593">
          <g id="Grupo_1099592" data-name="Grupo 1099592" clip-path="url(#clip-path)">
            <path id="Trazado_874081" data-name="Trazado 874081" d="M276.148,387.672l6.047,24,10.255,17.6a2.535,2.535,0,0,1-3.387,3.511c-4.605-2.485-21.5-11.708-21.844-13.489-.4-2.062-8.058-24.887-8.058-24.887Z" transform="translate(-1.602 -2.396)" fill="#ffc278"/>
            <g id="Grupo_1099588" data-name="Grupo 1099588" transform="translate(265.174 415.285)" opacity="0.6">
              <g id="Grupo_1099587" data-name="Grupo 1099587">
                <g id="Grupo_1099586" data-name="Grupo 1099586" clip-path="url(#clip-path-10)">
                  <path id="Trazado_874082" data-name="Trazado 874082" d="M291.432,433l-24.609-15.136.279,1.011a3.815,3.815,0,0,0,1.531,2.145c2.007,1.361,7.63,5,20.405,11.965a2.536,2.536,0,0,0,2.393.016" transform="translate(-266.823 -417.868)" fill="#fff"/>
                </g>
              </g>
            </g>
            <g id="Grupo_1099591" data-name="Grupo 1099591" transform="translate(266.02 406.15)" opacity="0.6">
              <g id="Grupo_1099590" data-name="Grupo 1099590">
                <g id="Grupo_1099589" data-name="Grupo 1099589" clip-path="url(#clip-path-11)">
                  <path id="Trazado_874083" data-name="Trazado 874083" d="M269.6,408.763a1.535,1.535,0,0,1,.937,1.82,1.476,1.476,0,0,1-1.795.946,1.621,1.621,0,0,1-.984-1.932,1.531,1.531,0,0,1,1.978-.777" transform="translate(-267.674 -408.675)" fill="#fff"/>
                </g>
              </g>
            </g>
            <path id="Trazado_874084" data-name="Trazado 874084" d="M283.2,424.1a5.468,5.468,0,0,1,4.179-3.718c0-.065-.349-.166-.928-.09a4.044,4.044,0,0,0-3.233,2.875c-.142.568-.083.93-.018.933" transform="translate(-1.75 -2.597)" fill="#263238"/>
            <path id="Trazado_874085" data-name="Trazado 874085" d="M285.8,426.852c.142.072.693-.915,1.829-1.61a20.648,20.648,0,0,1,2.247-.944,2.816,2.816,0,0,0-2.535.484c-1.291.8-1.682,2.04-1.54,2.07" transform="translate(-1.766 -2.621)" fill="#263238"/>
            <path id="Trazado_874086" data-name="Trazado 874086" d="M278.88,420.861a13.021,13.021,0,0,1,5.965-4.477,6.928,6.928,0,0,0-5.965,4.477" transform="translate(-1.723 -2.573)" fill="#263238"/>
            <path id="Trazado_874087" data-name="Trazado 874087" d="M276.417,413.689c.1.125,1.268-.789,2.966-1.326,1.69-.558,3.171-.5,3.181-.662a6.294,6.294,0,0,0-6.147,1.988" transform="translate(-1.708 -2.543)" fill="#263238"/>
            <path id="Trazado_874088" data-name="Trazado 874088" d="M274.451,406.648a8.057,8.057,0,0,1,6.433-1.542c.026-.061-.318-.287-.956-.453a5.522,5.522,0,0,0-4.831,1.158c-.493.436-.7.8-.646.838" transform="translate(-1.696 -2.5)" fill="#263238"/>
            <path id="Trazado_874089" data-name="Trazado 874089" d="M277.081,403.832a2.124,2.124,0,0,0-.217-.911,6.512,6.512,0,0,0-1.371-2.165,2.888,2.888,0,0,0-1.558-1,1.021,1.021,0,0,0-1.047.526,1.662,1.662,0,0,0-.08,1.181,3.586,3.586,0,0,0,3.912,2.359,4.158,4.158,0,0,0,3.356-3.184,1.445,1.445,0,0,0-.254-1.175,1,1,0,0,0-1.149-.231,3.536,3.536,0,0,0-1.346,1.25,7.279,7.279,0,0,0-1.116,2.3,2.22,2.22,0,0,0-.138.925,11.493,11.493,0,0,1,1.56-3,3.309,3.309,0,0,1,1.2-1.062.533.533,0,0,1,.627.122.992.992,0,0,1,.121.782,3.709,3.709,0,0,1-2.942,2.727,3.111,3.111,0,0,1-3.348-1.955,1.2,1.2,0,0,1,.021-.827.551.551,0,0,1,.573-.3,2.606,2.606,0,0,1,1.335.82,9.6,9.6,0,0,1,1.86,2.806" transform="translate(-1.686 -2.467)" fill="#263238"/>
            <path id="Trazado_874090" data-name="Trazado 874090" d="M200.74,392.175l1.281,18.494s-18.368,7.513-18.463,10.954l35.947-1.2-.814-28.9Z" transform="translate(-1.134 -2.42)" fill="#ffc278"/>
            <path id="Trazado_874091" data-name="Trazado 874091" d="M213.258,408.848a1.47,1.47,0,0,1,1.071,1.642,1.412,1.412,0,0,1-1.618,1.075,1.549,1.549,0,0,1-1.125-1.744,1.465,1.465,0,0,1,1.807-.932" transform="translate(-1.307 -2.526)" fill="#e0e0e0"/>
            <path id="Trazado_874092" data-name="Trazado 874092" d="M219.505,420.588l-.2-2.91-34.393,2.235s-1.577.75-1.359,1.871Z" transform="translate(-1.134 -2.581)" fill="#e0e0e0"/>
            <path id="Trazado_874093" data-name="Trazado 874093" d="M201.544,410.622c.012.176.892.226,1.774.761.9.513,1.368,1.258,1.527,1.184.161-.04-.136-1.08-1.215-1.71s-2.129-.395-2.085-.235" transform="translate(-1.246 -2.537)" fill="#263238"/>
            <path id="Trazado_874094" data-name="Trazado 874094" d="M197.8,412.318c-.035.172.735.444,1.357,1.168.642.7.819,1.5.994,1.488.166.023.253-1.01-.536-1.893s-1.817-.929-1.815-.762" transform="translate(-1.222 -2.548)" fill="#263238"/>
            <path id="Trazado_874095" data-name="Trazado 874095" d="M195.789,416.912c.161.032.376-.853-.107-1.8s-1.316-1.3-1.385-1.153c-.094.147.456.645.841,1.428.4.773.477,1.513.652,1.524" transform="translate(-1.201 -2.558)" fill="#263238"/>
            <path id="Trazado_874096" data-name="Trazado 874096" d="M201.721,406.346c.077.157.876-.111,1.869-.078,1,.015,1.778.322,1.865.168.1-.13-.679-.754-1.85-.779s-1.977.554-1.884.689" transform="translate(-1.247 -2.507)" fill="#263238"/>
            <path id="Trazado_874097" data-name="Trazado 874097" d="M201.53,402.572a3.374,3.374,0,0,0,1.8-.07,8.034,8.034,0,0,0,1.864-.641,8.581,8.581,0,0,0,1.016-.582,2.232,2.232,0,0,0,.53-.442.767.767,0,0,0,.05-.936.963.963,0,0,0-.783-.376,2.351,2.351,0,0,0-.672.115,6.473,6.473,0,0,0-1.106.421,6.371,6.371,0,0,0-1.624,1.145c-.809.8-1.071,1.466-1.011,1.5.081.055.469-.508,1.3-1.174a7.21,7.21,0,0,1,1.575-.958,6.584,6.584,0,0,1,1.024-.353c.377-.113.7-.126.8.04.038.064.044.088-.033.2a1.763,1.763,0,0,1-.39.322,9.257,9.257,0,0,1-.932.575,10.036,10.036,0,0,1-1.718.725,12.263,12.263,0,0,0-1.69.487" transform="translate(-1.245 -2.469)" fill="#263238"/>
            <path id="Trazado_874098" data-name="Trazado 874098" d="M201.752,402.8a2.877,2.877,0,0,0,.417-1.755,5.834,5.834,0,0,0-.807-3.04,1.487,1.487,0,0,0-1.178-.871.84.84,0,0,0-.735.527,2.391,2.391,0,0,0-.163.666,3.99,3.99,0,0,0,.039,1.212,4.143,4.143,0,0,0,.831,1.835c.733.908,1.473,1.093,1.486,1.034.056-.09-.567-.408-1.135-1.286a4.141,4.141,0,0,1-.625-1.673,3.691,3.691,0,0,1,0-1.042c.044-.384.177-.7.321-.663.179-.008.492.269.649.569a5.928,5.928,0,0,1,.479.961,6.486,6.486,0,0,1,.408,1.785c.084,1.053-.082,1.716.015,1.74" transform="translate(-1.231 -2.454)" fill="#263238"/>
            <path id="Trazado_874099" data-name="Trazado 874099" d="M190.978,189.749l5.782,215.218,28.357-.852L222.939,219.4l36.135,189.851,25.612-6.685L251.619,190.16Z" transform="translate(-1.18 -1.173)" fill="#263238"/>
            <path id="Trazado_874100" data-name="Trazado 874100" d="M206.61,405.353c-.143,0-.258-44.613-.258-99.632,0-55.039.115-99.642.258-99.642s.258,44.6.258,99.642c0,55.02-.115,99.632-.258,99.632" transform="translate(-1.275 -1.274)" fill="#455a64"/>
            <path id="Trazado_874101" data-name="Trazado 874101" d="M267.458,409.361c-.141.022-6.766-42.752-14.795-95.525-8.031-52.791-14.425-95.591-14.284-95.611s6.765,42.742,14.8,95.534c8.029,52.773,14.424,95.581,14.283,95.6" transform="translate(-1.473 -1.349)" fill="#455a64"/>
            <path id="Trazado_874102" data-name="Trazado 874102" d="M231.621,54.164a44.2,44.2,0,0,0,2.4-6.849c.34-1.787.876-4.468.157-6.139s-2.452-3.272-4.644-2.818a10.377,10.377,0,0,0-6.006-8.136,26.432,26.432,0,0,0-9.946-2.585,8.439,8.439,0,0,0-3.728.467,4.777,4.777,0,0,0-2.241,2.417,8.233,8.233,0,0,0-7.308-1.172c-2.735.744-5.859,2.221-7.058,4.788a8,8,0,0,0-.217,6.066c.533,1.671,2.3,4.294,3.943,3.683" transform="translate(-1.19 -0.171)" fill="#263238"/>
            <path id="Trazado_874103" data-name="Trazado 874103" d="M217.82,100.642h0a12.278,12.278,0,0,1-12.007-12.887c.172-3.435.331-6.2.331-6.2s-9.358-1.215-9.707-10.532.73-30.757.73-30.757a32.4,32.4,0,0,1,32.647,3.275l1.407,1.029-.872,44.045a12.277,12.277,0,0,1-12.53,12.031" transform="translate(-1.214 -0.231)" fill="#ffbe9d"/>
            <path id="Trazado_874104" data-name="Trazado 874104" d="M206.184,81.668a21.683,21.683,0,0,0,12.063-3.758s-2.875,7.23-12.2,6.624Z" transform="translate(-1.273 -0.482)" fill="#eb996e"/>
            <path id="Trazado_874105" data-name="Trazado 874105" d="M230.526,54.351c.157-.073,6.355-2.054,6.312,4.322s-6.436,5.017-6.446,4.834.134-9.156.134-9.156" transform="translate(-1.424 -0.334)" fill="#ffbe9d"/>
            <path id="Trazado_874106" data-name="Trazado 874106" d="M232.368,61.118c.028-.02.11.079.3.166a1.115,1.115,0,0,0,.831.023,2.748,2.748,0,0,0,1.288-2.458,3.665,3.665,0,0,0-.3-1.592,1.284,1.284,0,0,0-.83-.859.566.566,0,0,0-.658.3c-.086.178-.047.305-.081.316-.018.016-.136-.108-.083-.371a.711.711,0,0,1,.254-.4.835.835,0,0,1,.615-.159,1.562,1.562,0,0,1,1.153,1,3.787,3.787,0,0,1,.374,1.78,2.885,2.885,0,0,1-1.64,2.743,1.191,1.191,0,0,1-1.015-.176c-.2-.159-.229-.3-.207-.313" transform="translate(-1.436 -0.347)" fill="#eb996e"/>
            <path id="Trazado_874107" data-name="Trazado 874107" d="M199.608,54.918a1.331,1.331,0,0,0,1.317,1.311,1.273,1.273,0,0,0,1.342-1.234,1.332,1.332,0,0,0-1.316-1.312,1.274,1.274,0,0,0-1.343,1.235" transform="translate(-1.234 -0.332)" fill="#263238"/>
            <path id="Trazado_874108" data-name="Trazado 874108" d="M199.278,53.419c.169.169,1.159-.6,2.591-.634,1.43-.053,2.5.658,2.651.478.075-.08-.1-.389-.567-.711a3.659,3.659,0,0,0-2.127-.6,3.513,3.513,0,0,0-2.057.722c-.431.349-.573.667-.49.742" transform="translate(-1.231 -0.321)" fill="#263238"/>
            <path id="Trazado_874109" data-name="Trazado 874109" d="M213.729,54.9a1.33,1.33,0,0,0,1.316,1.311,1.273,1.273,0,0,0,1.342-1.234,1.332,1.332,0,0,0-1.316-1.312,1.272,1.272,0,0,0-1.342,1.235" transform="translate(-1.321 -0.332)" fill="#263238"/>
            <path id="Trazado_874110" data-name="Trazado 874110" d="M213.449,53.332c.17.171,1.161-.6,2.592-.633,1.43-.053,2.5.658,2.65.478.075-.08-.1-.389-.568-.71a3.646,3.646,0,0,0-2.127-.6,3.523,3.523,0,0,0-2.057.723c-.43.348-.572.667-.49.741" transform="translate(-1.319 -0.321)" fill="#263238"/>
            <path id="Trazado_874111" data-name="Trazado 874111" d="M208.464,64.085a9.493,9.493,0,0,0-2.336-.361c-.367-.029-.715-.093-.782-.341a1.854,1.854,0,0,1,.217-1.09q.481-1.34,1.012-2.812c1.4-4,2.407-7.29,2.246-7.345s-1.43,3.144-2.832,7.147q-.505,1.48-.965,2.828a2.111,2.111,0,0,0-.154,1.439.916.916,0,0,0,.614.52,2.525,2.525,0,0,0,.624.072,9.349,9.349,0,0,0,2.357-.057" transform="translate(-1.266 -0.322)" fill="#263238"/>
            <path id="Trazado_874112" data-name="Trazado 874112" d="M212.725,65.05c-.234-.008-.2,1.546-1.5,2.683s-2.963,1.008-2.969,1.225c-.02.1.377.292,1.076.294a3.871,3.871,0,0,0,2.48-.935,3.373,3.373,0,0,0,1.159-2.247c.043-.652-.14-1.033-.246-1.021" transform="translate(-1.287 -0.402)" fill="#263238"/>
            <path id="Trazado_874113" data-name="Trazado 874113" d="M212.935,47.7c.151.386,1.576.165,3.262.326,1.688.126,3.056.584,3.27.23.1-.17-.15-.53-.708-.893a5.7,5.7,0,0,0-4.976-.423c-.61.264-.913.577-.848.761" transform="translate(-1.316 -0.288)" fill="#263238"/>
            <path id="Trazado_874114" data-name="Trazado 874114" d="M199.7,49.234c.26.319,1.238-.044,2.424-.088,1.185-.087,2.2.163,2.419-.183.1-.168-.069-.49-.516-.787a3.512,3.512,0,0,0-3.9.22c-.411.345-.541.683-.425.839" transform="translate(-1.234 -0.295)" fill="#263238"/>
            <path id="Trazado_874115" data-name="Trazado 874115" d="M231.7,45.285c-.059,2.718.623,5.726.215,8.407-.062.4-1.08,1.507-1.163,1.907-.489,2.375-1.443,3.411-2.907,1.011a21.279,21.279,0,0,1-1.211-4.569q-.957-4.281-1.912-8.563a14.9,14.9,0,0,1-7.042,1.857,7.246,7.246,0,0,1-6.146-3.42,7.518,7.518,0,0,1-11.622,1.823,3.14,3.14,0,0,1-4.128.989,3.727,3.727,0,0,1-1.617-4.074c.584-2.29,2.988-3.585,5.238-4.308,8.8-2.83,18.65-1.033,26.735,3.444a13.519,13.519,0,0,1,3.277,2.342c.935.972,2.226,2.109,2.3,3.455" transform="translate(-1.199 -0.216)" fill="#263238"/>
            <path id="Trazado_874116" data-name="Trazado 874116" d="M225.192,44.6a4.583,4.583,0,0,1,1.447.232,4.932,4.932,0,0,1,1.33.857c.452.395.905.916,1.448,1.422a4.7,4.7,0,0,0,1.812,1.138,3.228,3.228,0,0,0,1.766.024c.986-.276,1.377-.82,1.329-.853a10.244,10.244,0,0,1-1.41.475,3.151,3.151,0,0,1-1.529-.125,4.642,4.642,0,0,1-1.6-1.059c-.518-.482-.984-1-1.5-1.409a4.6,4.6,0,0,0-1.527-.835c-1-.294-1.618.09-1.572.134" transform="translate(-1.392 -0.274)" fill="#455a64"/>
            <path id="Trazado_874117" data-name="Trazado 874117" d="M226.288,47.4a2.868,2.868,0,0,1,1.01.449,5.188,5.188,0,0,1,.811.921,4.349,4.349,0,0,0,4.115,1.742c.765-.115,1.166-.4,1.138-.455-.031-.081-.465.062-1.171.071a4.794,4.794,0,0,1-2.582-.695c-.909-.515-1.364-1.481-2.092-1.9-.713-.435-1.278-.2-1.229-.13" transform="translate(-1.398 -0.292)" fill="#455a64"/>
            <path id="Trazado_874118" data-name="Trazado 874118" d="M201.529,29.167c0-.029-.3-.078-.818.077a3.568,3.568,0,0,0-1.8,1.35c-1.143,1.6-1.4,4.438-.52,7.185a10.115,10.115,0,0,0,4.565,5.614,8.954,8.954,0,0,0,2.04.871,1.967,1.967,0,0,0,.8.134,26.72,26.72,0,0,1-2.642-1.335,10.345,10.345,0,0,1-4.247-5.455c-.842-2.6-.639-5.311.321-6.8a3.663,3.663,0,0,1,1.552-1.367c.457-.2.747-.23.742-.275" transform="translate(-1.223 -0.18)" fill="#455a64"/>
            <path id="Trazado_874119" data-name="Trazado 874119" d="M193.788,33.06a4.082,4.082,0,0,0,.079,1.8,11.112,11.112,0,0,0,4.722,7.1,4.063,4.063,0,0,0,1.625.767,18.1,18.1,0,0,1-4.239-4.149,18.1,18.1,0,0,1-2.187-5.513" transform="translate(-1.197 -0.204)" fill="#455a64"/>
            <path id="Trazado_874120" data-name="Trazado 874120" d="M141.966,163.743l-13.636.691a3.22,3.22,0,0,0-3.062,3.278c.065,3.114.59,7.38,3.018,6.976l1.554-6.79,11.316,9.984a8.211,8.211,0,0,0,4.078,2l2.659-.275Z" transform="translate(-0.774 -1.012)" fill="#ffbe9d"/>
            <path id="Trazado_874121" data-name="Trazado 874121" d="M207.62,90.238l-7.128,2.354-3.536,59.188v52.5l43.758,4.847.507-75.71L238.4,95.733l-6.683-7.987Z" transform="translate(-1.217 -0.542)" fill="#e0e0e0"/>
            <path id="Trazado_874122" data-name="Trazado 874122" d="M205.479,93.046V87.31l26-3.619L230.438,96.9l-5.976,10.358-9.765.545-7.057-4.359Z" transform="translate(-1.27 -0.517)" fill="#e0e0e0"/>
            <path id="Trazado_874123" data-name="Trazado 874123" d="M207.822,92.4a6.812,6.812,0,0,1-.147-2.622,6.851,6.851,0,0,1,.371-2.6,6.811,6.811,0,0,1,.147,2.622,6.806,6.806,0,0,1-.371,2.6" transform="translate(-1.283 -0.539)" fill="#263238"/>
            <path id="Trazado_874124" data-name="Trazado 874124" d="M214.367,91.918a8.444,8.444,0,0,1-.087-2.93,8.466,8.466,0,0,1,.428-2.9,8.466,8.466,0,0,1,.088,2.931,8.478,8.478,0,0,1-.429,2.9" transform="translate(-1.324 -0.532)" fill="#263238"/>
            <path id="Trazado_874125" data-name="Trazado 874125" d="M220.7,91.254a9.442,9.442,0,0,1-.032-3.1,9.456,9.456,0,0,1,.484-3.06,9.409,9.409,0,0,1,.032,3.1,9.433,9.433,0,0,1-.484,3.06" transform="translate(-1.363 -0.526)" fill="#263238"/>
            <path id="Trazado_874126" data-name="Trazado 874126" d="M226.769,90.258a7.113,7.113,0,0,1-.228-2.935,7.117,7.117,0,0,1,.495-2.9,10.541,10.541,0,0,1,.022,2.926,10.557,10.557,0,0,1-.289,2.911" transform="translate(-1.4 -0.522)" fill="#263238"/>
            <path id="Trazado_874127" data-name="Trazado 874127" d="M223.783,115.468a3.921,3.921,0,0,1-.345.972c-.251.613-.642,1.488-1.149,2.558-1.012,2.141-2.517,5.049-4.363,8.157s-3.686,5.819-5.083,7.73c-.7.956-1.279,1.718-1.7,2.231a3.936,3.936,0,0,1-.69.767,34.7,34.7,0,0,1,2.087-3.208c1.317-1.96,3.1-4.691,4.938-7.786s3.388-5.963,4.48-8.056a35.064,35.064,0,0,1,1.822-3.366" transform="translate(-1.301 -0.714)" fill="#263238"/>
            <path id="Trazado_874128" data-name="Trazado 874128" d="M231.766,86.818l7.06,3.4,13.63,3.333a11.355,11.355,0,0,1,9.32,12.632l-7.137,55.662,8.518,53.963L229.37,214.8l-1.982-20.074V139.077Z" transform="translate(-1.405 -0.537)" fill="#455a64"/>
            <path id="Trazado_874129" data-name="Trazado 874129" d="M227.387,151.912a3.435,3.435,0,0,1,.1-.69c.1-.5.225-1.148.384-1.957.368-1.753.879-4.189,1.506-7.174l5.156-23.626c.564-2.535,1.113-5,1.64-7.37l.065.229-2.341-2.449-.13-.136.1-.16c1.4-2.33,2.718-4.52,3.932-6.537l-.014.2c-1.78-4.316-3.265-7.915-4.328-10.495L232.274,88.8a7.142,7.142,0,0,1-.374-1.055,7.161,7.161,0,0,1,.495,1c.32.719.749,1.687,1.286,2.894,1.106,2.562,2.648,6.136,4.5,10.423l.043.1-.057.1c-1.2,2.026-2.5,4.226-3.883,6.566l-.034-.3q1.148,1.191,2.351,2.439l.093.1-.029.133c-.523,2.367-1.067,4.837-1.627,7.372-2.066,9.188-3.936,17.5-5.305,23.594-.693,2.971-1.258,5.394-1.666,7.139-.2.8-.357,1.443-.479,1.936a3.423,3.423,0,0,1-.2.667" transform="translate(-1.405 -0.542)" fill="#263238"/>
            <path id="Trazado_874130" data-name="Trazado 874130" d="M142.652,161.055l29.894-16.666,14.486-39.065a20.981,20.981,0,0,1,11.595-12.07l3.845-1.6.019,102.858.77,24.365-16.2-4.851,8.26-48.974-2.854-24.105-2.838,11.661a15.836,15.836,0,0,1-7.379,9.918l-31.12,16.163Z" transform="translate(-0.882 -0.566)" fill="#455a64"/>
            <path id="Trazado_874131" data-name="Trazado 874131" d="M143,162.248l-2.516.75,7.078,16.872,3.3-1.279Z" transform="translate(-0.868 -1.003)" fill="#e0e0e0"/>
            <path id="Trazado_874132" data-name="Trazado 874132" d="M178.139,151.652a21.839,21.839,0,0,0-2.237-3.782,21.861,21.861,0,0,0-3.306-2.895,8.369,8.369,0,0,1,5.544,6.677" transform="translate(-1.067 -0.896)" fill="#263238"/>
            <path id="Trazado_874133" data-name="Trazado 874133" d="M146.255,161.7c.032.069-.147.2-.165.492a.447.447,0,1,0,.771-.227c-.172-.234-.395-.248-.405-.324-.034-.057.278-.223.658.059a.885.885,0,1,1-1.379.406c.167-.442.519-.472.521-.406" transform="translate(-0.9 -0.998)" fill="#263238"/>
            <path id="Trazado_874134" data-name="Trazado 874134" d="M148.683,160.68c.032.069-.147.2-.165.491a.447.447,0,1,0,.771-.227c-.172-.234-.395-.249-.405-.324-.034-.057.278-.223.658.06a.885.885,0,1,1-1.379.405c.167-.442.519-.472.521-.405" transform="translate(-0.915 -0.992)" fill="#263238"/>
            <path id="Trazado_874135" data-name="Trazado 874135" d="M202.815,153.524a3.028,3.028,0,0,1-.131-.635c-.071-.472-.162-1.079-.275-1.833-.226-1.658-.537-3.948-.917-6.751-.731-5.764-1.729-13.62-2.831-22.3q-.227-1.85-.448-3.644l-.008-.066.024-.061,2.183-5.55,0,.189-2.157-4.925-.033-.076.021-.077c1.325-4.787,2.438-8.811,3.239-11.708l.947-3.285a7.835,7.835,0,0,1,.383-1.153,7.766,7.766,0,0,1-.245,1.19c-.206.825-.481,1.936-.825,3.317-.756,2.909-1.808,6.95-3.058,11.757l-.011-.151c.69,1.548,1.423,3.191,2.19,4.911l.042.093-.038.1c-.693,1.78-1.417,3.639-2.164,5.558l.016-.125q.222,1.792.451,3.644c1.044,8.687,1.989,16.549,2.681,22.317.313,2.812.568,5.109.753,6.773.074.757.133,1.368.179,1.845a3,3,0,0,1,.028.647" transform="translate(-1.225 -0.566)" fill="#263238"/>
            <path id="Trazado_874136" data-name="Trazado 874136" d="M195.567,165.494a1.8,1.8,0,0,1-.1-.487c-.053-.381-.116-.844-.194-1.405-.161-1.3-.376-3.05-.638-5.176-.53-4.371-1.272-10.406-2.166-17.064s-1.771-12.677-2.414-17.033c-.308-2.119-.562-3.863-.75-5.16-.074-.562-.134-1.026-.184-1.407a1.8,1.8,0,0,1-.029-.5,1.839,1.839,0,0,1,.132.479l.279,1.391c.234,1.209.547,2.964.913,5.136.735,4.343,1.67,10.358,2.565,17.021S194.56,154,195,158.386c.219,2.191.381,3.966.474,5.195.039.565.072,1.033.1,1.416a1.785,1.785,0,0,1,0,.5" transform="translate(-1.169 -0.725)" fill="#263238"/>
            <path id="Trazado_874137" data-name="Trazado 874137" d="M191.45,202.468a4.855,4.855,0,0,0,.694.836,3.153,3.153,0,0,0,2.727.611,4.635,4.635,0,0,0,2.959-2.91,18.167,18.167,0,0,0,.835-5.347,12.26,12.26,0,0,0-.554-5.332A9.777,9.777,0,0,0,195.4,186.9a12.633,12.633,0,0,1-2.069-2.253,2.745,2.745,0,0,1-.489-1.014c.042-.02.216.339.652.9a15.4,15.4,0,0,0,2.151,2.1,9.713,9.713,0,0,1,2.9,3.512,12.3,12.3,0,0,1,.63,5.545,17.643,17.643,0,0,1-.91,5.5,4.951,4.951,0,0,1-3.318,3.086,3.29,3.29,0,0,1-2.946-.82,2.355,2.355,0,0,1-.483-.7c-.068-.182-.089-.28-.074-.286" transform="translate(-1.183 -1.135)" fill="#263238"/>
            <path id="Trazado_874138" data-name="Trazado 874138" d="M180.275,163.666s.965-11.4,10.016-12.453c0,0,.167,9.288-10.016,12.453" transform="translate(-1.114 -0.935)" fill="#263238"/>
            <path id="Trazado_874139" data-name="Trazado 874139" d="M228.956,206.428c.593.4,26.283,17.192,26.283,17.192l2.965-2.371,1.4-38.534-25.03-18.971-3.444,1.186Z" transform="translate(-1.415 -1.012)" fill="#ffc278"/>
            <path id="Trazado_874140" data-name="Trazado 874140" d="M234.3,164.293,235.328,206H229.8l1.849-40.881Z" transform="translate(-1.42 -1.015)" fill="#e0e0e0"/>
            <path id="Trazado_874141" data-name="Trazado 874141" d="M242.608,215.772a3.232,3.232,0,0,0,2.966,2.016c.073.006.145.061.216.181a2.944,2.944,0,0,0,2.5,1.555,5.4,5.4,0,0,0,2.817-.814c1.373-.837,3.82-6.324,3.82-6.324l5.8-12.91-9.749-2.635L238.591,200.7c0,.225-2.9,11.95-2.9,11.95a2.978,2.978,0,0,0,3.479-1.845,31.742,31.742,0,0,1,2.185-4.092l.922,5.277-3.521,1.2a2.339,2.339,0,0,0,1.508,2.677Z" transform="translate(-1.457 -1.216)" fill="#ffbe9d"/>
            <path id="Trazado_874142" data-name="Trazado 874142" d="M247.049,124.509l16.229,29.872L250.07,193.591l14.688,8.27,18.665-43.614a12.379,12.379,0,0,0-.158-10.093l-22.9-49.188Z" transform="translate(-1.527 -0.612)" fill="#455a64"/>
            <path id="Trazado_874143" data-name="Trazado 874143" d="M250.081,194.179l-1.37,3.039,13.857,7.467,1.452-2.657Z" transform="translate(-1.537 -1.2)" fill="#e0e0e0"/>
            <path id="Trazado_874144" data-name="Trazado 874144" d="M250.043,193.584a.688.688,0,0,1,.044-.2c.046-.156.1-.345.171-.577q.256-.811.7-2.218c.643-1.966,1.557-4.76,2.7-8.24l9.355-28.054.022.209c-1.889-3.209-3.828-6.6-5.789-10.1-3.576-6.392-6.863-12.549-9.674-18.242-1.387-2.856-2.682-5.582-3.777-8.189a16.416,16.416,0,0,1-1.354-7.741,17.919,17.919,0,0,1,1.45-6.334,12.383,12.383,0,0,1,2.864-3.979,9.8,9.8,0,0,1,2.586-1.709,5.272,5.272,0,0,1,1.018-.362,11.421,11.421,0,0,0-3.465,2.218,12.4,12.4,0,0,0-2.739,3.951,17.819,17.819,0,0,0-1.348,6.232,16.119,16.119,0,0,0,1.382,7.555c1.106,2.589,2.413,5.3,3.809,8.145,2.829,5.671,6.125,11.814,9.7,18.2,1.959,3.5,3.895,6.889,5.773,10.1l.059.1-.037.109c-3.809,11.194-7.136,20.974-9.526,28-1.2,3.458-2.162,6.236-2.838,8.191q-.5,1.391-.783,2.191c-.085.227-.156.411-.214.563a.7.7,0,0,1-.086.186" transform="translate(-1.498 -0.605)" fill="#263238"/>
            <path id="Trazado_874145" data-name="Trazado 874145" d="M274.353,154.435a11.525,11.525,0,0,1-1.6-.564,11.383,11.383,0,0,0-7.878.244,11.616,11.616,0,0,1-1.561.664,3.8,3.8,0,0,1,1.411-1,9.863,9.863,0,0,1,8.158-.254,3.812,3.812,0,0,1,1.47.907" transform="translate(-1.627 -0.944)" fill="#263238"/>
            <path id="Trazado_874146" data-name="Trazado 874146" d="M243.783,117.516l11.662,39.02,1.645-12.83Z" transform="translate(-1.507 -0.726)" fill="#263238"/>
            <path id="Trazado_874147" data-name="Trazado 874147" d="M263.163,194.652c.032.069-.147.2-.165.491a.447.447,0,1,0,.771-.227c-.172-.234-.395-.249-.405-.324-.034-.057.278-.223.658.06a.885.885,0,1,1-1.379.405c.167-.442.519-.472.521-.405" transform="translate(-1.623 -1.202)" fill="#263238"/>
            <path id="Trazado_874148" data-name="Trazado 874148" d="M264.342,191.825c.032.069-.147.2-.165.491a.447.447,0,1,0,.771-.227c-.172-.234-.395-.249-.405-.323-.034-.058.278-.224.658.059a.885.885,0,1,1-1.379.405c.167-.442.519-.472.521-.405" transform="translate(-1.63 -1.185)" fill="#263238"/>
            <path id="Trazado_874149" data-name="Trazado 874149" d="M280.382,141.813c-1.739.918-2.346,3.476-2.146,5.432s.919,3.858.869,5.824a23.922,23.922,0,0,1-.744,4.137,7.149,7.149,0,0,0,.125,4.146,3.187,3.187,0,0,0,3.289,2.079l1.377-2.785a15.328,15.328,0,0,0-.194-13.971Z" transform="translate(-1.719 -0.876)" fill="#263238"/>
          </g>
        </g>
        <g id="Grupo_1099595" data-name="Grupo 1099595">
          <g id="Grupo_1099594" data-name="Grupo 1099594" clip-path="url(#clip-path)">
            <path id="Trazado_874150" data-name="Trazado 874150" d="M139.325.014A2.513,2.513,0,0,1,139.832,0l1.489.038a15.556,15.556,0,0,1,2.41.238c.473.075.99.122,1.53.235l1.712.423A28.551,28.551,0,0,1,168.028,27a28.409,28.409,0,0,1-3.921,16.125A28.9,28.9,0,0,1,150.3,55.143a28.321,28.321,0,0,1-9.58,2.11,27.484,27.484,0,0,1-10.02-1.247l-.3-.094.236,0-16.747,5.8-.681.237.214-.688,4.347-13.95.073.336a28.647,28.647,0,0,1-6.72-24.8,28.224,28.224,0,0,1,4.321-10.322,28.969,28.969,0,0,1,6.631-6.918,30.91,30.91,0,0,1,3.474-2.253,32.014,32.014,0,0,1,3.336-1.514A22.67,22.67,0,0,1,131.9.881,18.447,18.447,0,0,1,134.479.34c.784-.1,1.475-.222,2.076-.274L138.08.018,139.01,0a1.25,1.25,0,0,1,.315.014,1.278,1.278,0,0,1-.314.046l-.926.077-1.513.1c-.6.071-1.279.206-2.053.326a19.069,19.069,0,0,0-2.548.588,22.875,22.875,0,0,0-2.966,1,32.486,32.486,0,0,0-3.275,1.537,30.94,30.94,0,0,0-3.4,2.261,28.725,28.725,0,0,0-6.461,6.861A27.766,27.766,0,0,0,111.7,22.96,28.079,28.079,0,0,0,118.36,47.18l.131.147-.059.189c-1.382,4.471-2.826,9.137-4.317,13.959l-.467-.452,16.743-5.813.116-.04.12.038.29.091a26.748,26.748,0,0,0,9.763,1.217,27.614,27.614,0,0,0,9.339-2.044,28.268,28.268,0,0,0,13.5-11.694,28.251,28.251,0,0,0-.341-29.3,27.963,27.963,0,0,0-8.168-8.5A28.349,28.349,0,0,0,146.9,1.212L145.208.761C144.675.638,144.165.58,143.7.495A16.569,16.569,0,0,0,141.31.189L139.83.078a2.628,2.628,0,0,1-.5-.064" transform="translate(-0.683 0)" fill="#ffc278"/>
            <path id="Trazado_874151" data-name="Trazado 874151" d="M122.561,30.671l4.406-4.407,8.5,7.554,16.68-16.051,4.092,4.407-21.4,20.142Z" transform="translate(-0.757 -0.11)" fill="#ffc278"/>
          </g>
        </g>
      </g>
    </g>
  </g>
</svg>
