<svg xmlns="http://www.w3.org/2000/svg" xmlns:xlink="http://www.w3.org/1999/xlink" width="400.696" height="554" viewBox="0 0 400.696 554">
  <defs>
    <clipPath id="clip-path">
      <rect id="Rectángulo_379024" data-name="Rectángulo 379024" width="400.696" height="530.41" transform="translate(0 -39)" fill="none"/>
    </clipPath>
    <clipPath id="clip-path-3">
      <rect id="Rectángulo_379014" data-name="Rectángulo 379014" width="400.696" height="491.41" fill="none"/>
    </clipPath>
    <clipPath id="clip-path-6">
      <rect id="Rectángulo_379016" data-name="Rectángulo 379016" width="26.561" height="42.583" fill="none"/>
    </clipPath>
    <clipPath id="clip-path-8">
      <rect id="Rectángulo_379022" data-name="Rectángulo 379022" width="40.076" height="35.717" fill="none"/>
    </clipPath>
  </defs>
  <g id="Grupo_1099932" data-name="Grupo 1099932" transform="translate(-914.304 -20109)">
    <circle id="Elipse_11491" data-name="Elipse 11491" cx="200" cy="200" r="200" transform="translate(915 20199)" fill="#d2edec"/>
    <g id="Grupo_1099643" data-name="Grupo 1099643">
      <g id="Grupo_1099642" data-name="Grupo 1099642" transform="translate(914.304 20160)">
        <g id="Enmascarar_grupo_1099641" data-name="Enmascarar grupo 1099641" clip-path="url(#clip-path)">
          <g id="Grupo_1099626" data-name="Grupo 1099626">
            <g id="Grupo_1099625" data-name="Grupo 1099625" clip-path="url(#clip-path)">
              <path id="Trazado_874287" data-name="Trazado 874287" d="M90.519,131.232a39.621,39.621,0,1,1,33.763-44.875,39.765,39.765,0,0,1-33.763,44.875m-8.332-57.97a18.944,18.944,0,1,0,21.534,16.047A19.006,19.006,0,0,0,82.188,73.262" transform="translate(3.788 4.402)" fill="#fee7bd"/>
              <path id="Trazado_874288" data-name="Trazado 874288" d="M90.487,128.6A39.765,39.765,0,0,1,45.451,95.036l20.561-2.952a19.032,19.032,0,0,0,37.677-5.408l20.562-2.952A39.75,39.75,0,0,1,90.487,128.6" transform="translate(3.819 7.036)" fill="#dfc9a1"/>
              <path id="Trazado_874289" data-name="Trazado 874289" d="M42.981,101.793c-3.636-25.3,13.465-48.027,38.881-51.676L85.3,74.061C73.15,75.805,66.662,86.047,68.4,98.143Z" transform="translate(3.571 4.211)" fill="#fef0d7"/>
              <path id="Trazado_874290" data-name="Trazado 874290" d="M76.223,235.012a17.068,17.068,0,0,1,4.153-1.826l.84-4.123,6.958-.152,1.018,4.081a17.068,17.068,0,0,1,4.23,1.643l3.507-2.32,5.028,4.813-2.165,3.6a17.046,17.046,0,0,1,1.827,4.155l4.121.839.152,6.958-4.081,1.019a17.076,17.076,0,0,1-1.643,4.229l2.32,3.508-4.812,5.028L94.07,264.3a17,17,0,0,1-4.154,1.827l-.839,4.123-6.958.151L81.1,266.322a17.076,17.076,0,0,1-4.229-1.643L73.364,267l-5.028-4.813,2.165-3.6a17.039,17.039,0,0,1-1.827-4.154l-4.123-.84-.151-6.958,4.081-1.019a17.076,17.076,0,0,1,1.643-4.229L67.8,237.875l4.813-5.028Zm3.749,9.254a7.466,7.466,0,1,0,10.556-.23,7.466,7.466,0,0,0-10.556.23" transform="translate(5.412 19.236)" fill="#fee7bd"/>
              <path id="Trazado_874291" data-name="Trazado 874291" d="M78.936,243.265a5.647,5.647,0,0,1,1.385-1.226,7.429,7.429,0,0,1,4.865-1.172,7.522,7.522,0,0,1,3.316,1.162,7.63,7.63,0,0,1,2.689,3,7.651,7.651,0,0,1,.74,4.39,7.617,7.617,0,0,1-6.274,6.555,7.643,7.643,0,0,1-4.421-.546,7.656,7.656,0,0,1-3.12-2.557,7.53,7.53,0,0,1-1.305-3.262,7.433,7.433,0,0,1,.959-4.912,5.646,5.646,0,0,1,1.164-1.437c.041.034-.449.492-1.019,1.52a7.442,7.442,0,0,0-.805,4.783,7.3,7.3,0,0,0,4.285,5.5,7.291,7.291,0,0,0,4.189.5,7.235,7.235,0,0,0,5.931-6.2,7.3,7.3,0,0,0-.678-4.162,7.3,7.3,0,0,0-5.686-4.041,7.443,7.443,0,0,0-4.744,1.012c-1,.616-1.437,1.124-1.473,1.085" transform="translate(6.448 20.237)" fill="#ebebeb"/>
              <path id="Trazado_874292" data-name="Trazado 874292" d="M76.234,235.022A1.5,1.5,0,0,1,76,234.9c-.17-.1-.4-.227-.692-.4l-2.717-1.589.085-.011L67.9,237.96l.012-.135,2.334,3.5.042.063-.037.067a17.083,17.083,0,0,0-1.616,4.2l-.02.082-.082.021-4.079,1.031.115-.151c.053,2.191.109,4.516.168,6.957l-.134-.162,4.124.831.105.022.029.1a16.957,16.957,0,0,0,1.814,4.106l.059.1-.057.1c-.67,1.118-1.407,2.351-2.159,3.607l-.031-.235,5.033,4.807-.248-.022,3.506-2.324.1-.068.108.06a16.973,16.973,0,0,0,4.179,1.621l.121.028.031.122c.32,1.278.669,2.672,1.021,4.081l-.208-.159,6.958-.154-.2.169c.265-1.3.551-2.707.839-4.121l.025-.128.125-.036a16.794,16.794,0,0,0,4.1-1.8l0,0,.112-.066.109.065,3.6,2.166-.265.035,4.814-5.027-.024.263L100,258.06l-.07-.106.062-.111a16.866,16.866,0,0,0,1.625-4.177l.03-.122.121-.029,4.082-1.016-.155.2q-.073-3.563-.144-6.958l.157.189-4.12-.844-.115-.024-.031-.111a16.874,16.874,0,0,0-1.8-4.111l-.059-.1.057-.1q1.117-1.852,2.17-3.6l.03.22-5.018-4.823.2.018-3.512,2.311-.078.051-.081-.044a16.988,16.988,0,0,0-4.189-1.641l-.082-.021-.021-.082c-.365-1.484-.695-2.821-1-4.084l.125.1-6.958.121.092-.077c-.346,1.644-.63,2.993-.866,4.116l-.009.041-.04.012a17.683,17.683,0,0,0-3.176,1.237l-.747.395a1.65,1.65,0,0,1-.249.128,2.063,2.063,0,0,1,.231-.158c.159-.1.4-.247.733-.426a16.4,16.4,0,0,1,3.171-1.307l-.048.052c.221-1.126.488-2.479.812-4.128l.015-.075.077,0,6.957-.182.1,0,.025.1c.32,1.261.657,2.6,1.033,4.078l-.1-.1a17.172,17.172,0,0,1,4.271,1.646l-.159.007,3.5-2.328.108-.073.1.091,5.037,4.8.1.1-.074.122-2.158,3.609v-.192a17.317,17.317,0,0,1,1.852,4.2l-.146-.134,4.124.834.154.031,0,.158q.078,3.394.159,6.957l0,.163-.158.04-4.08,1.021.151-.152a17.282,17.282,0,0,1-1.661,4.282l-.009-.218q1.15,1.737,2.321,3.507l.094.141-.117.122-4.812,5.029-.117.124-.146-.089L93.971,264.5h.221l0,0a17.318,17.318,0,0,1-4.2,1.846l.151-.163c-.289,1.416-.576,2.821-.841,4.123l-.034.167-.17,0-6.958.149-.167,0-.04-.163c-.351-1.408-.7-2.8-1.017-4.082l.152.152a17.366,17.366,0,0,1-4.278-1.666l.21-.009-3.51,2.317-.133.088-.114-.109-5.022-4.82-.109-.105.078-.131,2.17-3.6v.191a17.233,17.233,0,0,1-1.839-4.2l.134.124-4.12-.848-.132-.027,0-.133c-.047-2.442-.092-4.768-.136-6.958l0-.122.118-.029,4.085-1.008-.1.1a17.244,17.244,0,0,1,1.669-4.257l.005.13-2.306-3.517-.048-.073.06-.063,4.842-5,.038-.039.047.028,2.655,1.637.683.429a2.194,2.194,0,0,1,.232.157" transform="translate(5.4 19.226)" fill="#ebebeb"/>
              <path id="Trazado_874293" data-name="Trazado 874293" d="M90.169,167.694a25.7,25.7,0,0,1,6.273-2.758l1.267-6.227,10.51-.229,1.538,6.164a25.752,25.752,0,0,1,6.388,2.482l5.3-3.5,7.593,7.27-3.268,5.444a25.768,25.768,0,0,1,2.758,6.274l6.225,1.267.23,10.509-6.165,1.539a25.741,25.741,0,0,1-2.481,6.387l3.5,5.3-7.268,7.593-5.444-3.269a25.738,25.738,0,0,1-6.273,2.758l-1.269,6.227-10.509.228-1.538-6.164a25.728,25.728,0,0,1-6.387-2.482l-5.3,3.5-7.593-7.27,3.269-5.444a25.7,25.7,0,0,1-2.758-6.273l-6.226-1.268-.23-10.509,6.165-1.539a25.783,25.783,0,0,1,2.481-6.387l-3.5-5.3,7.268-7.594Zm5.662,13.976a11.276,11.276,0,1,0,15.943-.348,11.277,11.277,0,0,0-15.943.348" transform="translate(6.077 13.317)" fill="#fee7bd"/>
              <path id="Trazado_874294" data-name="Trazado 874294" d="M94.266,180.158a8.529,8.529,0,0,1,2.092-1.852,11.227,11.227,0,0,1,7.349-1.77,11.365,11.365,0,0,1,5.007,1.755,11.538,11.538,0,0,1,4.063,4.539,11.539,11.539,0,0,1,1.117,6.631,11.5,11.5,0,0,1-9.476,9.9,11.554,11.554,0,0,1-6.675-.827,11.547,11.547,0,0,1-4.712-3.861,11.38,11.38,0,0,1-1.972-4.926,11.231,11.231,0,0,1,1.449-7.419,8.52,8.52,0,0,1,1.758-2.17c.062.052-.678.743-1.539,2.295a11.234,11.234,0,0,0-1.216,7.223,11.015,11.015,0,0,0,6.473,8.313,11,11,0,0,0,6.325.748,10.923,10.923,0,0,0,8.957-9.358,11.014,11.014,0,0,0-1.023-6.285,11.016,11.016,0,0,0-8.587-6.1,11.232,11.232,0,0,0-7.164,1.53c-1.513.929-2.171,1.7-2.226,1.638" transform="translate(7.642 14.83)" fill="#ebebeb"/>
              <path id="Trazado_874295" data-name="Trazado 874295" d="M90.186,167.708a2.383,2.383,0,0,1-.351-.183c-.256-.147-.6-.344-1.044-.6l-4.1-2.4.128-.017c-1.85,1.955-4.282,4.526-7.225,7.635l.018-.2,3.525,5.282.064.1-.055.1a25.664,25.664,0,0,0-2.441,6.345l-.029.125-.126.031-6.161,1.557.175-.229c.08,3.308.165,6.821.254,10.508l-.2-.243,6.228,1.255L79,196.8l.046.156a25.654,25.654,0,0,0,2.738,6.2l.089.143-.087.146c-1.011,1.688-2.126,3.551-3.262,5.448l-.048-.357,7.6,7.26-.374-.034,5.293-3.509.155-.1.163.09a25.614,25.614,0,0,0,6.312,2.447l.183.044.047.184c.482,1.93,1.01,4.036,1.543,6.163l-.314-.24,10.51-.234-.308.258,1.266-6.227.039-.192.188-.053a25.557,25.557,0,0,0,6.19-2.721l.005,0,.169-.1.166.1,5.444,3.271-.4.053,7.27-7.591-.036.4-3.5-5.3-.106-.16.093-.167a25.52,25.52,0,0,0,2.454-6.308l.046-.184.183-.046,6.166-1.535-.234.306q-.111-5.381-.219-10.509l.238.285-6.223-1.276-.172-.036-.049-.168a25.51,25.51,0,0,0-2.718-6.208l-.088-.145.087-.145,3.278-5.437.044.332-7.577-7.284.308.027-5.306,3.491-.117.078-.123-.068a25.646,25.646,0,0,0-6.325-2.478l-.126-.03-.03-.125c-.552-2.242-1.049-4.261-1.519-6.169l.19.145-10.51.182.139-.116c-.523,2.484-.951,4.52-1.308,6.218l-.013.062-.06.017a26.7,26.7,0,0,0-4.8,1.869l-1.128.6a2.575,2.575,0,0,1-.376.193,3.241,3.241,0,0,1,.35-.24c.238-.15.6-.373,1.1-.644a24.951,24.951,0,0,1,4.789-1.974l-.073.079c.336-1.7.737-3.744,1.228-6.234l.022-.113.117,0,10.508-.275.153,0,.038.149c.481,1.9.992,3.921,1.559,6.158l-.156-.155a25.969,25.969,0,0,1,6.449,2.486l-.24.01,5.289-3.518.164-.108.143.137c2.405,2.293,4.932,4.7,7.608,7.253l.155.149-.111.184-3.26,5.449V176.2a26.12,26.12,0,0,1,2.8,6.339l-.221-.2,6.228,1.261.232.047.005.238q.117,5.125.241,10.509l.005.245-.24.061-6.163,1.544.228-.23a26.082,26.082,0,0,1-2.507,6.466l-.013-.328q1.735,2.621,3.506,5.3l.141.214-.177.185-7.266,7.595-.179.186-.221-.133-5.444-3.268h.334l-.005,0a26.137,26.137,0,0,1-6.347,2.789l.227-.246L109.913,221l-.051.251-.256.005-10.51.224-.253.005-.062-.245c-.53-2.128-1.054-4.234-1.535-6.166l.23.228a26.117,26.117,0,0,1-6.461-2.516l.317-.013-5.3,3.5-.2.133-.173-.167-7.584-7.278-.167-.159.118-.2c1.141-1.894,2.261-3.753,3.278-5.439v.288a26.064,26.064,0,0,1-2.777-6.345l.2.188-6.223-1.28-.2-.041,0-.2c-.072-3.688-.14-7.2-.2-10.51l0-.184.178-.044,6.169-1.521-.155.156a26.013,26.013,0,0,1,2.521-6.429l.009.2-3.483-5.311-.073-.111.091-.093,7.313-7.551.057-.06.069.042,4.011,2.473,1.032.649a3.142,3.142,0,0,1,.349.236" transform="translate(6.058 13.302)" fill="#ebebeb"/>
              <path id="Trazado_874296" data-name="Trazado 874296" d="M239.714,130.76a22.581,22.581,0,0,1,5.522-2.4l1.137-5.466,9.235-.163,1.329,5.422a22.64,22.64,0,0,1,5.6,2.2l4.667-3.059,6.645,6.415-2.893,4.772a22.589,22.589,0,0,1,2.4,5.523l5.465,1.137.163,9.235-5.422,1.329a22.592,22.592,0,0,1-2.2,5.6l3.059,4.668L268,172.626l-4.771-2.893a22.627,22.627,0,0,1-5.523,2.4l-1.138,5.466-9.234.163-1.329-5.422a22.644,22.644,0,0,1-5.6-2.2l-4.667,3.06-6.645-6.416,2.893-4.771a22.6,22.6,0,0,1-2.4-5.522l-5.466-1.138-.161-9.234,5.421-1.33a22.636,22.636,0,0,1,2.2-5.6l-3.059-4.668,6.415-6.644Zm4.923,12.3a9.908,9.908,0,1,0,14.01-.246,9.908,9.908,0,0,0-14.01.246" transform="translate(18.82 10.313)" fill="#fee7bd"/>
              <path id="Trazado_874297" data-name="Trazado 874297" d="M243.263,141.734a7.472,7.472,0,0,1,1.845-1.618,9.857,9.857,0,0,1,6.464-1.528,9.976,9.976,0,0,1,4.393,1.56,10.149,10.149,0,0,1,3.553,4,10.172,10.172,0,0,1,.957,5.831,10.11,10.11,0,0,1-8.364,8.664,10.149,10.149,0,0,1-5.861-.751,10.137,10.137,0,0,1-4.126-3.41,9.975,9.975,0,0,1-1.714-4.336,9.861,9.861,0,0,1,1.3-6.513,7.469,7.469,0,0,1,1.553-1.9c.053.046-.6.65-1.362,2.01a9.88,9.88,0,0,0-1.095,6.344,9.683,9.683,0,0,0,5.655,7.328,9.673,9.673,0,0,0,5.556.681,9.6,9.6,0,0,0,7.906-8.189,9.7,9.7,0,0,0-.876-5.527,9.679,9.679,0,0,0-7.522-5.394,9.866,9.866,0,0,0-6.3,1.317c-1.333.811-1.914,1.483-1.962,1.431" transform="translate(20.194 11.641)" fill="#e0e0e0"/>
              <path id="Trazado_874298" data-name="Trazado 874298" d="M239.73,130.773a2.186,2.186,0,0,1-.308-.163l-.915-.529-3.6-2.124.113-.015-6.376,6.682.017-.179,3.078,4.655.055.083-.049.089a22.588,22.588,0,0,0-2.169,5.566l-.027.109-.109.027-5.419,1.344.155-.2c.057,2.907.118,5.994.183,9.234l-.178-.215,5.467,1.126.139.029.039.137a22.553,22.553,0,0,0,2.384,5.46l.077.126-.077.128-2.886,4.775-.04-.313c2.089,2.013,4.343,4.182,6.652,6.408l-.328-.031,4.665-3.063.137-.09.143.079a22.461,22.461,0,0,0,5.536,2.173l.162.04.04.162,1.332,5.421-.275-.211,9.235-.166-.271.224c.359-1.727.746-3.589,1.136-5.466l.035-.169.166-.047a22.424,22.424,0,0,0,5.448-2.366l0,0,.15-.088.145.088,4.771,2.893-.351.046q3.254-3.366,6.416-6.643l-.033.35q-1.543-2.358-3.057-4.669l-.092-.142.082-.146a22.346,22.346,0,0,0,2.18-5.533l.041-.163.162-.039,5.422-1.325-.206.267q-.078-4.729-.153-9.234l.208.252-5.465-1.145-.151-.031-.042-.149a22.423,22.423,0,0,0-2.364-5.465l-.077-.128.077-.127q1.491-2.452,2.9-4.767l.038.293-6.632-6.429.271.026c-1.644,1.071-3.187,2.077-4.674,3.047l-.1.067-.107-.06a22.539,22.539,0,0,0-5.549-2.2l-.109-.027-.027-.109c-.476-1.972-.905-3.748-1.311-5.426l.166.128-9.235.121.121-.1c-.468,2.18-.852,3.969-1.172,5.458l-.012.055-.053.014a23.377,23.377,0,0,0-4.222,1.625l-.994.519a2.329,2.329,0,0,1-.331.168,2.651,2.651,0,0,1,.308-.209c.211-.13.531-.325.973-.562a21.939,21.939,0,0,1,4.216-1.717l-.064.069c.3-1.494.661-3.287,1.1-5.473l.021-.1.1,0,9.234-.2.133,0,.033.131c.416,1.675.857,3.448,1.347,5.417l-.137-.137a22.841,22.841,0,0,1,5.658,2.207l-.211.009,4.66-3.071.144-.1.126.121c2.105,2.023,4.316,4.15,6.657,6.4l.137.131-.1.162-2.885,4.776v-.255a22.939,22.939,0,0,1,2.434,5.581l-.193-.18,5.467,1.131.2.042,0,.209q.085,4.5.171,9.235l0,.216-.21.052-5.421,1.332.2-.2a22.91,22.91,0,0,1-2.228,5.673l-.011-.288q1.515,2.311,3.061,4.666l.124.188-.156.163-6.413,6.646-.157.163-.194-.117q-2.366-1.436-4.772-2.892h.294l0,0a22.94,22.94,0,0,1-5.587,2.427l.2-.216c-.39,1.876-.778,3.74-1.138,5.466l-.047.221-.225,0-9.234.158-.223,0-.052-.217-1.326-5.422.2.2a22.925,22.925,0,0,1-5.667-2.235l.279-.01-4.67,3.055-.178.116-.152-.146c-2.3-2.231-4.552-4.407-6.636-6.424l-.145-.141.105-.172,2.9-4.766v.253a22.907,22.907,0,0,1-2.416-5.585l.178.166-5.464-1.148-.175-.037,0-.179c-.05-3.24-.1-6.326-.141-9.235l0-.162.156-.038,5.427-1.315-.137.137a22.829,22.829,0,0,1,2.24-5.638l.005.171-3.04-4.679-.063-.1.08-.082,6.453-6.607.051-.052.061.038,3.516,2.186.9.575a2.788,2.788,0,0,1,.307.209" transform="translate(18.804 10.3)" fill="#e0e0e0"/>
              <path id="Trazado_874299" data-name="Trazado 874299" d="M254.3,215.928a22.582,22.582,0,0,1,5.522-2.4l1.137-5.466,9.235-.163,1.329,5.422a22.64,22.64,0,0,1,5.6,2.2l4.667-3.059,6.645,6.415-2.893,4.772a22.589,22.589,0,0,1,2.4,5.523l5.465,1.137.163,9.235-5.422,1.329a22.63,22.63,0,0,1-2.2,5.6L289,251.149l-6.415,6.645-4.771-2.893a22.624,22.624,0,0,1-5.523,2.4l-1.138,5.466-9.234.163-1.329-5.422a22.643,22.643,0,0,1-5.6-2.2l-4.667,3.06-6.645-6.416,2.893-4.771a22.589,22.589,0,0,1-2.4-5.523l-5.466-1.137-.163-9.234,5.422-1.33a22.636,22.636,0,0,1,2.2-5.6l-3.059-4.668,6.415-6.644Zm4.923,12.3a9.908,9.908,0,1,0,14.01-.246,9.908,9.908,0,0,0-14.01.246" transform="translate(20.045 17.47)" fill="#fee7bd"/>
              <path id="Trazado_874412" data-name="Trazado 874412" d="M254.3,215.928a22.582,22.582,0,0,1,5.522-2.4l1.137-5.466,9.235-.163,1.329,5.422a22.64,22.64,0,0,1,5.6,2.2l4.667-3.059,6.645,6.415-2.893,4.772a22.589,22.589,0,0,1,2.4,5.523l5.465,1.137.163,9.235-5.422,1.329a22.63,22.63,0,0,1-2.2,5.6L289,251.149l-6.415,6.645-4.771-2.893a22.624,22.624,0,0,1-5.523,2.4l-1.138,5.466-9.234.163-1.329-5.422a22.643,22.643,0,0,1-5.6-2.2l-4.667,3.06-6.645-6.416,2.893-4.771a22.589,22.589,0,0,1-2.4-5.523l-5.466-1.137-.163-9.234,5.422-1.33a22.636,22.636,0,0,1,2.2-5.6l-3.059-4.668,6.415-6.644Zm4.923,12.3a9.908,9.908,0,1,0,14.01-.246,9.908,9.908,0,0,0-14.01.246" transform="translate(-38.194 -242.449)" fill="#fee7bd"/>
              <path id="Trazado_874300" data-name="Trazado 874300" d="M257.846,226.9a7.486,7.486,0,0,1,1.845-1.62,9.864,9.864,0,0,1,6.464-1.527,9.976,9.976,0,0,1,4.392,1.56,10.149,10.149,0,0,1,3.553,4,10.172,10.172,0,0,1,.957,5.831,10.11,10.11,0,0,1-8.364,8.664,10.154,10.154,0,0,1-5.862-.751,10.14,10.14,0,0,1-4.125-3.41,9.975,9.975,0,0,1-1.714-4.336,9.861,9.861,0,0,1,1.3-6.513,7.468,7.468,0,0,1,1.553-1.9c.053.046-.6.65-1.362,2.01a9.879,9.879,0,0,0-1.095,6.344,9.683,9.683,0,0,0,5.655,7.328,9.673,9.673,0,0,0,5.556.681,9.6,9.6,0,0,0,7.906-8.189,9.7,9.7,0,0,0-.876-5.527,9.68,9.68,0,0,0-7.522-5.394,9.871,9.871,0,0,0-6.3,1.317c-1.332.811-1.914,1.483-1.961,1.431" transform="translate(21.419 18.798)" fill="#e0e0e0"/>
              <path id="Trazado_874301" data-name="Trazado 874301" d="M254.313,215.941a2.189,2.189,0,0,1-.308-.163l-.915-.529-3.6-2.124.112-.015-6.376,6.682.017-.179,3.078,4.655.055.083-.049.089a22.589,22.589,0,0,0-2.169,5.566l-.026.108-.111.028-5.419,1.344.155-.2c.057,2.907.119,5.994.183,9.234l-.178-.215,5.467,1.126.139.029.04.137a22.5,22.5,0,0,0,2.383,5.46l.077.126-.077.128-2.886,4.775-.04-.313c2.089,2.013,4.343,4.183,6.652,6.407l-.328-.03,4.665-3.063.137-.09.143.079a22.478,22.478,0,0,0,5.536,2.173l.162.04.04.162,1.332,5.421-.274-.211,9.234-.166-.271.224c.359-1.727.746-3.589,1.136-5.466l.036-.169.165-.047a22.406,22.406,0,0,0,5.448-2.366l0,0,.15-.088.145.088,4.771,2.893-.351.046q3.254-3.366,6.416-6.643l-.033.35q-1.543-2.358-3.057-4.669l-.092-.142.082-.146a22.345,22.345,0,0,0,2.18-5.533l.041-.163.162-.039,5.422-1.325-.206.267q-.078-4.729-.153-9.234l.208.25-5.465-1.144-.151-.031-.042-.149a22.425,22.425,0,0,0-2.364-5.465l-.077-.128.077-.127q1.491-2.452,2.9-4.767l.038.293-6.632-6.429.271.026c-1.644,1.071-3.187,2.077-4.674,3.047l-.1.067-.107-.06a22.54,22.54,0,0,0-5.549-2.2l-.109-.027-.027-.109c-.476-1.972-.905-3.747-1.311-5.426l.166.128-9.235.121.121-.1c-.468,2.18-.852,3.969-1.172,5.458l-.012.055-.053.014a23.379,23.379,0,0,0-4.222,1.625c-.427.223-.754.393-.993.519a2.364,2.364,0,0,1-.332.168,2.654,2.654,0,0,1,.308-.209c.211-.13.531-.325.973-.562a21.867,21.867,0,0,1,4.216-1.717l-.064.069c.3-1.494.661-3.287,1.1-5.473l.021-.1.1,0,9.234-.2.133,0,.033.131c.416,1.675.857,3.448,1.347,5.417l-.137-.137a22.841,22.841,0,0,1,5.658,2.207l-.211.009,4.66-3.071.144-.1.126.121,6.657,6.4.137.131-.1.162q-1.4,2.325-2.885,4.776v-.255a22.9,22.9,0,0,1,2.434,5.581l-.193-.18,5.467,1.131.2.042,0,.21q.083,4.5.171,9.234l0,.216-.21.052-5.421,1.333.2-.2a22.908,22.908,0,0,1-2.228,5.673l-.011-.288q1.515,2.311,3.061,4.666l.124.188-.156.163L282.808,258l-.157.163-.194-.117-4.772-2.892h.294l0,0a22.94,22.94,0,0,1-5.587,2.427l.2-.216c-.39,1.876-.778,3.74-1.138,5.466l-.047.221-.224,0-9.235.158-.222,0-.053-.217-1.326-5.422.2.2a22.941,22.941,0,0,1-5.667-2.235l.279-.01-4.67,3.055-.178.116-.152-.146c-2.3-2.231-4.552-4.407-6.636-6.424l-.145-.141.105-.172,2.9-4.767v.254a22.931,22.931,0,0,1-2.416-5.586l.178.166-5.464-1.148-.175-.037,0-.179c-.05-3.24-.1-6.326-.141-9.235l0-.161.157-.038,5.426-1.315-.137.137a22.829,22.829,0,0,1,2.24-5.638l.007.171-3.041-4.679-.063-.1.08-.082,6.453-6.607.051-.052.061.038,3.516,2.186.9.575a2.783,2.783,0,0,1,.307.209" transform="translate(20.029 17.457)" fill="#e0e0e0"/>
              <path id="Trazado_874302" data-name="Trazado 874302" d="M53.491,207.579a10.526,10.526,0,0,1,2.256-1.681l-.065-2.608,4.185-1.058,1.183,2.325a10.536,10.536,0,0,1,2.785.405l1.8-1.889,3.707,2.21-.807,2.479a10.591,10.591,0,0,1,1.68,2.257l2.609-.065,1.057,4.184-2.325,1.183a10.518,10.518,0,0,1-.405,2.785l1.889,1.8-2.21,3.707-2.479-.808a10.554,10.554,0,0,1-2.256,1.681l.064,2.608-4.184,1.058-1.183-2.325A10.606,10.606,0,0,1,58,225.42l-1.8,1.889L52.5,225.1l.808-2.479a10.6,10.6,0,0,1-1.681-2.257l-2.607.065-1.059-4.184,2.325-1.184a10.562,10.562,0,0,1,.407-2.784l-1.889-1.8,2.209-3.707Zm3.552,5.072a4.63,4.63,0,1,0,6.347-1.605,4.629,4.629,0,0,0-6.347,1.605" transform="translate(4.03 16.994)" fill="#fee7bd"/>
              <path id="Trazado_874303" data-name="Trazado 874303" d="M56.4,212.025a3.53,3.53,0,0,1,.666-.933,4.608,4.608,0,0,1,2.778-1.384,4.67,4.67,0,0,1,2.166.242,4.731,4.731,0,0,1,2.042,1.442,4.419,4.419,0,0,1,.707,1.17,4.479,4.479,0,0,1,.351,1.382,4.725,4.725,0,0,1-2.882,4.834,4.736,4.736,0,0,1-2.747.283,4.743,4.743,0,0,1-2.241-1.111,4.666,4.666,0,0,1-1.242-1.791,4.606,4.606,0,0,1-.1-3.1,3.473,3.473,0,0,1,.5-1.03c.028.015-.2.36-.405,1.06a4.631,4.631,0,0,0,.177,3,4.535,4.535,0,0,0,3.355,2.732,4.531,4.531,0,0,0,2.6-.283,4.485,4.485,0,0,0,2.724-4.569,4.529,4.529,0,0,0-.989-2.422,4.518,4.518,0,0,0-4-1.652,4.614,4.614,0,0,0-2.725,1.27c-.519.512-.713.879-.739.861" transform="translate(4.678 17.619)" fill="#ebebeb"/>
              <path id="Trazado_874304" data-name="Trazado 874304" d="M53.5,207.586a.978.978,0,0,1-.157-.041l-.473-.143-1.863-.583.05-.018-2.189,3.72-.012-.083,1.9,1.79.035.033-.013.046a10.575,10.575,0,0,0-.394,2.764v.052l-.048.024-2.322,1.19.049-.107c.336,1.317.694,2.714,1.068,4.181l-.1-.078,2.607-.07H51.7l.031.057a10.531,10.531,0,0,0,1.667,2.23l.049.05-.022.066c-.249.769-.524,1.617-.8,2.48L52.569,225l3.71,2.206-.153.021c.559-.589,1.174-1.236,1.8-1.892l.053-.055.074.021a10.526,10.526,0,0,0,2.751.4h.077l.036.069c.371.728.775,1.522,1.185,2.324l-.149-.067,4.184-1.06-.1.131c-.021-.824-.043-1.713-.065-2.608l0-.08.07-.039a10.469,10.469,0,0,0,2.227-1.657l0,0,.059-.055.075.024,2.48.808-.155.059q1.12-1.88,2.211-3.707l.022.163-1.888-1.8-.057-.054.022-.076a10.444,10.444,0,0,0,.4-2.75v-.077l.069-.036,2.326-1.181-.065.143q-.54-2.143-1.055-4.185l.121.092-2.608.062-.072,0-.035-.063a10.489,10.489,0,0,0-1.66-2.235l-.048-.05.021-.065.812-2.478.049.129-3.7-2.218.126-.017-1.8,1.885-.039.041-.055-.015a10.5,10.5,0,0,0-2.76-.41H61l-.024-.047c-.426-.847-.811-1.61-1.175-2.33l.09.04-4.19,1.041.046-.06c.018,1.042.035,1.9.048,2.609v.026l-.023.012a10.948,10.948,0,0,0-1.749,1.189l-.4.343a1.017,1.017,0,0,1-.132.112,1.325,1.325,0,0,1,.118-.128c.082-.081.207-.2.383-.359a10.221,10.221,0,0,1,1.736-1.231l-.022.039c-.023-.712-.05-1.566-.082-2.608l0-.048.047-.012,4.18-1.076.061-.016.029.056,1.19,2.322-.077-.048a10.632,10.632,0,0,1,2.81.4l-.1.026,1.793-1.894.055-.06.07.042,3.712,2.2.076.044-.027.085c-.261.805-.528,1.629-.8,2.48l-.027-.116a10.722,10.722,0,0,1,1.7,2.28l-.106-.061,2.608-.068.1,0,.024.1q.519,2.041,1.062,4.183l.025.1-.09.047-2.324,1.184.069-.113a10.686,10.686,0,0,1-.409,2.818l-.035-.13,1.889,1.8.077.072-.054.091q-1.089,1.828-2.209,3.707l-.054.091-.1-.033-2.479-.808.133-.031,0,0a10.679,10.679,0,0,1-2.283,1.7l.068-.119c.022.9.043,1.784.064,2.608l0,.105-.1.026-4.185,1.057-.1.025-.047-.092c-.409-.8-.812-1.6-1.182-2.326l.113.07a10.73,10.73,0,0,1-2.817-.413l.126-.034L56.3,227.4l-.068.072-.085-.051-3.7-2.215-.081-.048.029-.09c.282-.863.559-1.711.811-2.478l.027.115a10.685,10.685,0,0,1-1.7-2.284l.1.056-2.608.061h-.083l-.021-.08c-.367-1.469-.718-2.868-1.048-4.187l-.018-.074.067-.035,2.329-1.176-.048.077a10.692,10.692,0,0,1,.418-2.8l.021.077-1.882-1.8-.039-.037.027-.047,2.232-3.694.017-.029.033.011,1.832.62.473.165a1.325,1.325,0,0,1,.162.063" transform="translate(4.022 16.987)" fill="#ebebeb"/>
              <rect id="Rectángulo_379010" data-name="Rectángulo 379010" width="18.676" height="58.33" transform="translate(24.23 361.185)" fill="#fee7bd"/>
              <rect id="Rectángulo_379011" data-name="Rectángulo 379011" width="18.676" height="45.006" transform="translate(52.116 374.509)" fill="#fee7bd"/>
              <rect id="Rectángulo_379012" data-name="Rectángulo 379012" width="18.676" height="26.727" transform="translate(77.931 392.788)" fill="#fee7bd"/>
              <path id="Trazado_874305" data-name="Trazado 874305" d="M305.1,43.787a28.5,28.5,0,1,1-33.656-22.1,28.474,28.474,0,0,1,33.656,22.1" transform="translate(20.897 1.773)" fill="#fef0d7"/>
              <path id="Trazado_874306" data-name="Trazado 874306" d="M297.933,44.632A21.722,21.722,0,1,1,272.286,27.79a21.7,21.7,0,0,1,25.647,16.842" transform="translate(21.423 2.297)" fill="#fee7bd"/>
              <path id="Trazado_874307" data-name="Trazado 874307" d="M297.825,44.028a12.77,12.77,0,0,1-1.089-2.442,23.021,23.021,0,0,0-3.8-6.014,22.307,22.307,0,0,0-3.613-3.286,21.784,21.784,0,0,0-4.911-2.649,21.307,21.307,0,0,0-5.995-1.35,21.04,21.04,0,0,0-3.254,0,21.251,21.251,0,0,0-6.5,1.553,21.179,21.179,0,0,0-2.9,1.469,20.381,20.381,0,0,0-2.559,1.827,20.038,20.038,0,0,0-2.178,2.089,21.76,21.76,0,0,0-3.181,4.583,22.239,22.239,0,0,0-1.737,4.565,23.047,23.047,0,0,0-.666,7.08,12.916,12.916,0,0,1,.133,2.671,6.37,6.37,0,0,1-.777-2.6,20.1,20.1,0,0,1,.162-7.416,21.774,21.774,0,0,1,4.917-9.9,22.109,22.109,0,0,1,5.032-4.285,22.029,22.029,0,0,1,3.123-1.611,24.093,24.093,0,0,1,3.437-1.122,23.66,23.66,0,0,1,3.574-.552,21.818,21.818,0,0,1,3.513.024,22.079,22.079,0,0,1,6.426,1.547,21.757,21.757,0,0,1,8.863,6.607,20.121,20.121,0,0,1,3.5,6.541,6.359,6.359,0,0,1,.482,2.668" transform="translate(21.388 2.234)" fill="#dfc9a1"/>
              <path id="Trazado_874308" data-name="Trazado 874308" d="M280.76,60.7l.817,3.7-3.3.728-.795-3.595a16.021,16.021,0,0,1-8.8-.823l.924-4.426a13.644,13.644,0,0,0,6.917.927L275.31,51.7c-3.858-.079-8.218-.4-9.261-5.113-.773-3.5,1.1-7.059,6.183-8.8l-.81-3.662,3.3-.73.795,3.6a15.278,15.278,0,0,1,7.14.531l-.751,4.422a13.847,13.847,0,0,0-5.427-.6l1.24,5.608c3.85.048,8.145.379,9.173,5.029.759,3.431-1.092,6.954-6.131,8.725m-6.522-13.85L273.2,42.165c-1.66.783-2.141,1.893-1.9,2.981.256,1.154,1.383,1.563,2.938,1.7m7.431,6.695c-.256-1.156-1.351-1.57-2.879-1.752l1.007,4.552c1.57-.726,2.105-1.744,1.872-2.8" transform="translate(22.343 2.806)" fill="#dfc9a1"/>
              <path id="Trazado_874309" data-name="Trazado 874309" d="M149.38,13.876A17.428,17.428,0,1,1,128.8.363,17.408,17.408,0,0,1,149.38,13.876" transform="translate(9.654 0)" fill="#fef0d7"/>
              <path id="Trazado_874310" data-name="Trazado 874310" d="M145,14.393a13.282,13.282,0,1,1-15.683-10.3A13.266,13.266,0,0,1,145,14.393" transform="translate(9.975 0.321)" fill="#fee7bd"/>
              <path id="Trazado_874311" data-name="Trazado 874311" d="M144.931,14.024a7.883,7.883,0,0,1-.667-1.494,14.049,14.049,0,0,0-2.322-3.677,13.59,13.59,0,0,0-2.208-2.01,13.328,13.328,0,0,0-3-1.62,13.056,13.056,0,0,0-3.666-.825,12.828,12.828,0,0,0-1.989,0,12.92,12.92,0,0,0-3.975.95,12.8,12.8,0,0,0-1.777.9,13.065,13.065,0,0,0-2.9,2.394,13.326,13.326,0,0,0-1.945,2.8,13.67,13.67,0,0,0-1.062,2.791,14.086,14.086,0,0,0-.407,4.33A7.729,7.729,0,0,1,119.1,20.2a3.907,3.907,0,0,1-.475-1.589,12.281,12.281,0,0,1,.1-4.533,13.309,13.309,0,0,1,3.007-6.053,12.782,12.782,0,0,1,1.406-1.4A13.034,13.034,0,0,1,124.8,5.4a13.551,13.551,0,0,1,1.91-.984A13.585,13.585,0,0,1,131,3.392a13.506,13.506,0,0,1,2.147.015,13.53,13.53,0,0,1,3.93.946A13.319,13.319,0,0,1,142.5,8.392a12.285,12.285,0,0,1,2.14,4,3.891,3.891,0,0,1,.295,1.631" transform="translate(9.954 0.282)" fill="#dfc9a1"/>
              <path id="Trazado_874312" data-name="Trazado 874312" d="M134.5,24.218l.5,2.259-2.017.446-.486-2.2a9.8,9.8,0,0,1-5.379-.5l.565-2.706a8.348,8.348,0,0,0,4.23.567l-.745-3.369c-2.36-.049-5.026-.242-5.663-3.126-.473-2.138.674-4.317,3.781-5.383l-.5-2.24,2.016-.447.487,2.2a9.337,9.337,0,0,1,4.365.324l-.459,2.7a8.473,8.473,0,0,0-3.318-.367l.758,3.43c2.355.028,4.981.231,5.61,3.074.464,2.1-.668,4.253-3.75,5.336m-3.988-8.468-.634-2.864c-1.015.478-1.308,1.157-1.162,1.822.157.706.847.956,1.8,1.042m4.544,4.093c-.156-.707-.826-.959-1.76-1.071l.616,2.784c.959-.444,1.287-1.068,1.145-1.713" transform="translate(10.538 0.632)" fill="#dfc9a1"/>
            </g>
          </g>
          <g id="Grupo_1099628" data-name="Grupo 1099628">
            <g id="Grupo_1099627" data-name="Grupo 1099627" clip-path="url(#clip-path-3)">
              <path id="Trazado_874313" data-name="Trazado 874313" d="M400.7,453.078c0,.156-89.706.282-200.338.282C89.687,453.36,0,453.234,0,453.078s89.687-.282,200.358-.282c110.632,0,200.338.126,200.338.282" transform="translate(0 38.049)" fill="#263238"/>
            </g>
          </g>
          <g id="Grupo_1099630" data-name="Grupo 1099630">
            <g id="Grupo_1099629" data-name="Grupo 1099629" clip-path="url(#clip-path-3)">
              <path id="Trazado_874314" data-name="Trazado 874314" d="M258.838,400.337l-120.653,8.834C107.3,413.4,27.182,428.912,0,457.487l398.527-.565c-18.833-28.01-101.081-53.425-139.689-56.585" transform="translate(0 33.641)" fill="#ffae55"/>
              <path id="Trazado_874315" data-name="Trazado 874315" d="M239.811,314.709c6.633-20.369,13.185-40.893,16.215-62.1s2.4-43.316-5.054-63.4c-1.13-3.044-10.764-23.471-14-23.154-2.31.227,3.622,19.281,2.452,21.286-11.158,19.136-14.2,42.157-12.433,64.238s6.35,41.944,12.817,63.132" transform="translate(19.035 13.953)" fill="#263238"/>
              <path id="Trazado_874316" data-name="Trazado 874316" d="M173.2,135.751l-4.966.263a96.062,96.062,0,0,0-90.942,93.3c-1.278,46.541-2.093,97.967-.468,122.812,3.367,51.445,55.281,56.72,55.281,56.72.116,0-.376,13.766-.227,28.9l1.385.735a118.318,118.318,0,0,0,119.013-4.693l2.647-198.258c1.773-53.7-28-99.488-81.724-99.775" transform="translate(6.379 11.407)" fill="#ffc09d"/>
              <path id="Trazado_874317" data-name="Trazado 874317" d="M127.473,389.485s32.55.182,65.977-23.373c0,0-14.356,38.306-65.971,36.4Z" transform="translate(10.712 30.765)" fill="#ff9b6c"/>
              <path id="Trazado_874318" data-name="Trazado 874318" d="M92.406,264.177a7.362,7.362,0,0,0,7.482,7.042,7.042,7.042,0,0,0,7.227-7.031,7.366,7.366,0,0,0-7.474-7.047,7.049,7.049,0,0,0-7.235,7.036" transform="translate(7.765 21.608)" fill="#263238"/>
              <path id="Trazado_874319" data-name="Trazado 874319" d="M88.116,241.851c.963.91,6.313-3.508,14.226-3.907,7.9-.511,13.92,3.251,14.725,2.236.4-.451-.621-2.133-3.247-3.84a20.208,20.208,0,0,0-11.853-2.976,19.4,19.4,0,0,0-11.259,4.306c-2.333,2-3.066,3.772-2.593,4.18" transform="translate(7.393 19.607)" fill="#263238"/>
              <path id="Trazado_874320" data-name="Trazado 874320" d="M154.416,264.177a7.36,7.36,0,0,0,7.482,7.04,7.04,7.04,0,0,0,7.227-7.03,7.367,7.367,0,0,0-7.477-7.045,7.045,7.045,0,0,0-7.233,7.035" transform="translate(12.976 21.608)" fill="#263238"/>
              <path id="Trazado_874321" data-name="Trazado 874321" d="M159.757,241.012c.964.911,6.323-3.506,14.229-3.9,7.9-.512,13.919,3.25,14.727,2.235.4-.452-.614-2.132-3.249-3.837a20.2,20.2,0,0,0-11.851-2.978,19.422,19.422,0,0,0-11.261,4.306c-2.327,2-3.063,3.775-2.6,4.179" transform="translate(13.413 19.537)" fill="#263238"/>
              <path id="Trazado_874322" data-name="Trazado 874322" d="M138.129,302.942c.013-.451-4.95-1.041-12.972-1.637-2.031-.1-3.965-.4-4.378-1.762-.553-1.433.177-3.656,1.031-6.06q2.46-7.483,5.158-15.7c7.135-22.342,12.186-40.669,11.284-40.949s-7.418,17.6-14.552,39.944q-2.566,8.262-4.9,15.779c-.642,2.336-1.82,5.009-.628,7.984a5.072,5.072,0,0,0,3.478,2.777,13.622,13.622,0,0,0,3.457.295c8.042.007,13.018-.221,13.025-.673" transform="translate(9.887 19.902)" fill="#263238"/>
              <path id="Trazado_874323" data-name="Trazado 874323" d="M156.718,216.3c.891,2.112,8.737.687,18.077,1.331,9.354.456,16.977,2.79,18.11.8.5-.953-.906-2.91-4.039-4.837a31.512,31.512,0,0,0-27.569-1.623c-3.338,1.547-4.967,3.326-4.579,4.329" transform="translate(13.165 17.609)" fill="#263238"/>
              <path id="Trazado_874324" data-name="Trazado 874324" d="M89.763,217.168c1.448,1.755,6.846-.279,13.4-.567,6.544-.517,12.149.839,13.37-1.082.532-.929-.4-2.7-2.876-4.333a19.427,19.427,0,0,0-21.574,1.328c-2.26,1.919-2.965,3.794-2.324,4.654" transform="translate(7.524 17.524)" fill="#263238"/>
              <path id="Trazado_874325" data-name="Trazado 874325" d="M238.757,263.335c.857-.426,34.818-12.34,35.562,22.915s-34.806,28.728-34.888,27.72-.673-50.635-.673-50.635" transform="translate(20.063 21.937)" fill="#ffc09d"/>
              <path id="Trazado_874326" data-name="Trazado 874326" d="M249.055,299.511c.152-.116.623.416,1.672.87a6.137,6.137,0,0,0,4.593,0c3.694-1.445,6.706-7.425,6.744-13.782a20.308,20.308,0,0,0-1.9-8.757c-1.131-2.556-2.837-4.323-4.719-4.617a3.128,3.128,0,0,0-3.589,1.759c-.452,1-.212,1.694-.4,1.759-.1.091-.769-.576-.516-2.037a3.921,3.921,0,0,1,1.341-2.237,4.632,4.632,0,0,1,3.377-.969c2.723.13,5.224,2.58,6.531,5.33a20.853,20.853,0,0,1,2.337,9.781c-.077,7.109-3.573,13.834-8.639,15.415a6.587,6.587,0,0,1-5.637-.815c-1.109-.849-1.313-1.632-1.191-1.7" transform="translate(20.926 22.813)" fill="#ff9b6c"/>
              <path id="Trazado_874327" data-name="Trazado 874327" d="M97.383,171.064c-5.745-3.08,11.154-21.77,25.1-28.3,21.077-9.876,53.369-16.194,72.978-10.891,23.61,6.383,43.3,17.85,55.376,39.119s16.821,46.166,16.434,70.62c-.117,7.461-.8,15.246-4.7,21.6-4.829,7.857-14.218,12.883-13.673,23.631a14.766,14.766,0,0,1-3.531,10.809c-6.367,6.943-14.338.591-18.046-5.83-7.92-13.716-8.986-30.194-9.86-46.007-.622-11.239-1.22-22.721,1.819-33.561,1.653-5.9,4.356-11.485,5.68-17.467s1.059-12.747-2.714-17.572a22.013,22.013,0,0,0-2.9-2.862,36.773,36.773,0,0,0-36.567-6.5c-19.769,7.268-53.55,18.175-62.489,11.545-12.86-9.538-15.983-15.823-15.983-15.823Z" transform="translate(8.087 10.92)" fill="#263238"/>
              <path id="Trazado_874328" data-name="Trazado 874328" d="M127.554,321.651c-.2.592,1.32,1.816,4.3,2.517a20.988,20.988,0,0,0,21-8.287c1.694-2.544,1.968-4.474,1.421-4.771-1.213-.668-5.2,4.718-12.495,7.46-7.2,2.975-13.792,1.766-14.22,3.081" transform="translate(10.717 26.138)" fill="#263238"/>
              <path id="Trazado_874329" data-name="Trazado 874329" d="M199.734,134.235a23.888,23.888,0,0,0-23.4-10c-3.726.652-7.56,2.2-11.157,1.033-3.079-1-5.208-3.777-7.983-5.444-6.933-4.165-17.4.971-18.352,9-4.062-2.8-8.328-5.658-13.21-6.382S115.08,123.8,113.284,128.4c-1.371,3.511-.441,8.06-3.178,10.652-3.7,3.5-9.644-.075-14.733.131-6.1.246-10.654,6.614-10.618,12.723s3.576,11.689,7.843,16.062a48.7,48.7,0,0,0,40.457,14.057l36.148-24.54,24.76-8.96c2.916-1.056,6.116-2.36,7.43-5.17,1.37-2.928.14-6.432-1.659-9.118" transform="translate(7.122 9.945)" fill="#263238"/>
              <path id="Trazado_874330" data-name="Trazado 874330" d="M234.331,173.862c-2.84-7.878-10.757-12.7-18.532-15.813a92.161,92.161,0,0,0-30.275-6.5l-23.432,19.774a35.188,35.188,0,0,1,34.949,2.613c10.059,7,13.261,18.522,14.592,31.864.306,3.065-.359,15.236-.048,18.3s2.959,1.2,5.884,2.16c2.647.872,3.957-4.4,5.9-6.391a20.737,20.737,0,0,0,4.065-7.236,167.8,167.8,0,0,0,6.365-20.16c1.514-6.116,2.662-12.684.526-18.612" transform="translate(13.621 12.735)" fill="#263238"/>
            </g>
          </g>
          <g id="Grupo_1099635" data-name="Grupo 1099635">
            <g id="Grupo_1099634" data-name="Grupo 1099634" clip-path="url(#clip-path-3)">
              <path id="Trazado_874331" data-name="Trazado 874331" d="M218.718,152.774l94.012,81.675a10.1,10.1,0,1,0,13.235-15.272l-92.8-80.228Z" transform="translate(18.379 11.676)" fill="#455a64"/>
              <path id="Trazado_874332" data-name="Trazado 874332" d="M188.3,177.435A61.635,61.635,0,1,1,249.936,115.8,61.706,61.706,0,0,1,188.3,177.435m0-115.135a53.5,53.5,0,1,0,53.5,53.5,53.561,53.561,0,0,0-53.5-53.5" transform="translate(10.644 4.552)" fill="#455a64"/>
              <path id="Trazado_874333" data-name="Trazado 874333" d="M187.687,61.669s.294,0,.866.015l2.546.1,1.876.081c.688.064,1.433.2,2.245.311l2.617.388a28.824,28.824,0,0,1,2.934.676,50.763,50.763,0,0,1,14.3,5.87,53.466,53.466,0,0,1,15.277,13.582q.859,1.145,1.738,2.315c.54.812,1.032,1.669,1.559,2.517.5.865,1.1,1.686,1.524,2.613q.668,1.377,1.349,2.784l.678,1.415q.273.741.549,1.488l1.111,3.019c.345,1.024.566,2.1.859,3.161a27.492,27.492,0,0,1,.747,3.249,49.872,49.872,0,0,1,.805,6.79c.042,1.159.158,2.326.142,3.5q-.088,1.764-.177,3.556c-.04.6-.035,1.2-.114,1.8s-.181,1.192-.273,1.792c-.2,1.2-.334,2.413-.583,3.616a56.731,56.731,0,0,1-2.1,7.169l-.653,1.783c-.113.3-.211.6-.336.892l-.414.863-1.674,3.473c-.617,1.135-1.33,2.224-2,3.349-.352.551-.653,1.138-1.05,1.662l-1.183,1.584a60.631,60.631,0,0,1-5.178,6.1l-3.007,2.736-.756.688c-.266.214-.545.411-.816.618l-1.647,1.233-1.653,1.238-1.767,1.086-1.779,1.083-.893.543c-.307.165-.627.307-.939.462l-3.791,1.83-3.981,1.465a53.054,53.054,0,0,1-33.929,0l-3.982-1.465-3.792-1.83c-.313-.155-.632-.3-.94-.462l-.893-.543-1.78-1.083-1.767-1.085-1.654-1.238-1.647-1.233-.816-.619-.757-.688-3.007-2.736a60.513,60.513,0,0,1-5.18-6.1l-1.184-1.585c-.4-.522-.7-1.111-1.05-1.661-.667-1.124-1.38-2.215-2-3.35q-.842-1.746-1.674-3.474l-.415-.862c-.125-.293-.223-.6-.336-.893l-.653-1.783a56.34,56.34,0,0,1-2.1-7.17c-.249-1.2-.387-2.421-.584-3.616q-.137-.9-.272-1.793c-.079-.6-.074-1.2-.114-1.8q-.089-1.792-.177-3.557c-.016-1.176.1-2.344.142-3.5a49.893,49.893,0,0,1,.805-6.791,27.485,27.485,0,0,1,.747-3.249c.294-1.062.514-2.137.86-3.161q.561-1.524,1.111-3.02.276-.746.549-1.487.341-.711.679-1.416l1.347-2.783c.428-.927,1.028-1.749,1.525-2.613.527-.848,1.019-1.705,1.559-2.518l1.738-2.314A53.464,53.464,0,0,1,160.3,69.11a50.784,50.784,0,0,1,14.3-5.869,29.082,29.082,0,0,1,2.933-.675l2.617-.388c.812-.112,1.557-.247,2.245-.311l1.876-.081,2.545-.1c.572-.02.866-.015.866-.015s-.294.035-.866.073l-2.539.157-1.87.108c-.684.072-1.427.217-2.234.336l-2.6.412a29.426,29.426,0,0,0-2.917.7,50.989,50.989,0,0,0-14.194,5.926A53.309,53.309,0,0,0,145.34,82.932q-.849,1.138-1.718,2.3c-.533.808-1.018,1.661-1.538,2.5-.49.86-1.084,1.675-1.506,2.6L139.249,93.1q-.333.7-.669,1.4l-.54,1.478-1.095,3c-.34,1.017-.555,2.082-.843,3.136a27.244,27.244,0,0,0-.734,3.223,49.562,49.562,0,0,0-.783,6.733c-.04,1.148-.153,2.3-.135,3.47q.091,1.75.182,3.524c.041.59.037,1.187.116,1.778s.182,1.182.274,1.776c.2,1.185.335,2.39.583,3.582a56.206,56.206,0,0,0,2.088,7.1l.648,1.765c.112.294.209.594.334.883l.412.853,1.662,3.439c.611,1.123,1.32,2.2,1.982,3.314.349.544.646,1.126,1.041,1.643l1.174,1.568a60.252,60.252,0,0,0,5.133,6.036l2.98,2.706.749.681.809.612,1.63,1.218,1.638,1.225,1.751,1.072,1.762,1.071.883.538c.3.162.621.3.931.455l3.752,1.81,3.942,1.447a52.529,52.529,0,0,0,33.574,0l3.939-1.447,3.752-1.809c.31-.153.627-.294.93-.456l.883-.537,1.762-1.071,1.75-1.073,1.637-1.224,1.63-1.22c.269-.2.545-.4.809-.611l.748-.681q1.5-1.358,2.979-2.7a60.1,60.1,0,0,0,5.132-6.036l1.174-1.568c.395-.517.692-1.1,1.041-1.643.66-1.112,1.369-2.19,1.982-3.313q.834-1.728,1.661-3.437l.412-.853c.125-.289.222-.59.334-.883l.648-1.765a56.191,56.191,0,0,0,2.088-7.1c.248-1.191.386-2.4.583-3.581q.138-.891.274-1.776c.079-.591.074-1.188.115-1.779q.093-1.774.182-3.523c.018-1.165-.094-2.322-.134-3.47a49.4,49.4,0,0,0-.783-6.732,27.245,27.245,0,0,0-.733-3.223c-.288-1.054-.5-2.119-.843-3.136q-.553-1.512-1.095-3l-.54-1.478q-.335-.706-.669-1.4-.672-1.4-1.329-2.764c-.421-.923-1.015-1.738-1.5-2.6-.52-.842-1.006-1.7-1.538-2.5q-.868-1.166-1.718-2.3a53.316,53.316,0,0,0-15.122-13.553,50.961,50.961,0,0,0-14.2-5.929,29.338,29.338,0,0,0-2.917-.7l-2.6-.412c-.808-.12-1.55-.265-2.235-.337l-1.87-.108-2.539-.157c-.572-.038-.866-.073-.866-.073" transform="translate(11.257 5.182)" fill="#263238"/>
              <path id="Trazado_874334" data-name="Trazado 874334" d="M188.317,177.457s.338-.037,1-.079l2.926-.177,2.155-.122c.789-.083,1.646-.249,2.576-.387l3-.473a10.68,10.68,0,0,0,1.638-.352l1.724-.451A58.69,58.69,0,0,0,219.7,168.59a61.435,61.435,0,0,0,17.433-15.617l1.981-2.654c.614-.931,1.174-1.914,1.773-2.886l.893-1.472a12.256,12.256,0,0,0,.842-1.52q.759-1.577,1.533-3.187l.772-1.62.621-1.7q.626-1.709,1.263-3.454c.391-1.172.641-2.4.972-3.615q.236-.915.473-1.839c.075-.308.166-.615.229-.927l.144-.949a56.983,56.983,0,0,0,.9-7.761c.046-1.323.176-2.657.155-4q-.1-2.016-.209-4.062c-.048-.68-.041-1.369-.133-2.05s-.209-1.362-.314-2.046c-.228-1.366-.386-2.756-.673-4.128a64.55,64.55,0,0,0-2.405-8.181q-.372-1.015-.747-2.035c-.129-.339-.242-.685-.385-1.019l-.475-.983-1.914-3.963c-.706-1.294-1.523-2.537-2.284-3.819-.4-.628-.745-1.3-1.2-1.895L237.592,79.4a69.206,69.206,0,0,0-5.916-6.959q-1.709-1.551-3.433-3.119l-.864-.785c-.3-.244-.621-.469-.932-.7l-1.879-1.4-1.887-1.412c-.661-.425-1.344-.823-2.017-1.237l-2.03-1.235-1.019-.619c-.35-.188-.714-.35-1.072-.526l-4.324-2.086-4.542-1.669a60.569,60.569,0,0,0-38.706,0l-4.543,1.668L160.1,61.4c-.357.176-.721.339-1.072.526l-1.019.619-2.031,1.235-2.018,1.237-1.887,1.412-1.88,1.4-.932.7-.864.785-3.434,3.12a69.347,69.347,0,0,0-5.918,6.959l-1.353,1.807c-.455.6-.8,1.267-1.2,1.895-.762,1.282-1.579,2.526-2.284,3.82q-.964,1.994-1.915,3.963l-.475.984c-.143.334-.256.68-.385,1.018q-.374,1.021-.747,2.036a64.8,64.8,0,0,0-2.407,8.182c-.286,1.372-.446,2.762-.672,4.128q-.158,1.028-.315,2.047c-.091.681-.086,1.369-.133,2.05q-.1,2.047-.209,4.062c-.02,1.344.109,2.678.156,4a57,57,0,0,0,.9,7.761l.144.949c.064.312.154.619.23.928q.237.922.473,1.839c.332,1.214.58,2.443.973,3.615q.636,1.743,1.262,3.454.312.855.622,1.7l.772,1.62,1.532,3.186a12.279,12.279,0,0,0,.843,1.521l.893,1.472c.6.971,1.159,1.954,1.773,2.885l1.981,2.655a61.443,61.443,0,0,0,17.434,15.614,58.7,58.7,0,0,0,16.361,6.824l1.724.451a10.518,10.518,0,0,0,1.638.351l3,.473c.93.138,1.785.3,2.575.387l2.155.122,2.926.177c.659.042,1,.079,1,.079s-.338,0-1-.022l-2.932-.12-2.16-.1c-.792-.074-1.651-.231-2.585-.36l-3.014-.449a10.621,10.621,0,0,1-1.647-.34l-1.732-.44a58.462,58.462,0,0,1-16.469-6.765,61.581,61.581,0,0,1-17.591-15.644l-2-2.666c-.621-.936-1.188-1.923-1.794-2.9l-.9-1.48a12.438,12.438,0,0,1-.853-1.529q-.767-1.587-1.55-3.205l-.782-1.629-.631-1.714q-.634-1.722-1.279-3.476c-.4-1.181-.652-2.417-.989-3.64q-.239-.922-.479-1.852c-.077-.311-.168-.619-.233-.934l-.147-.955a57.3,57.3,0,0,1-.926-7.819c-.05-1.333-.182-2.678-.164-4.033q.1-2.033.2-4.094c.047-.686.04-1.38.131-2.067s.209-1.373.314-2.064c.227-1.377.385-2.778.672-4.164a65.14,65.14,0,0,1,2.415-8.254q.374-1.024.751-2.053c.13-.343.243-.692.387-1.029l.478-.992,1.926-4c.711-1.306,1.533-2.562,2.3-3.856.405-.633.75-1.311,1.209-1.913l1.364-1.823a69.618,69.618,0,0,1,5.963-7.026l3.463-3.15.87-.791.94-.712,1.9-1.419,1.9-1.425,2.036-1.25,2.049-1.247,1.028-.625c.354-.189.722-.353,1.083-.531l4.364-2.106,4.584-1.686a61.075,61.075,0,0,1,39.062,0l4.583,1.687,4.363,2.106c.361.178.728.343,1.082.532l1.028.624,2.049,1.247c.679.418,1.367.821,2.034,1.25l1.9,1.425,1.895,1.419c.313.237.634.466.94.712l.87.791,3.462,3.15a69.616,69.616,0,0,1,5.962,7.025l1.363,1.822c.457.6.8,1.28,1.209,1.913.768,1.294,1.589,2.549,2.3,3.855l1.926,4,.478.993c.144.337.257.686.387,1.028q.377,1.029.751,2.053A65,65,0,0,1,248.853,103c.288,1.385.447,2.786.673,4.164q.158,1.036.313,2.063c.092.687.086,1.381.132,2.067q.1,2.062.2,4.094c.018,1.354-.114,2.7-.163,4.032a57.476,57.476,0,0,1-.926,7.819l-.147.955c-.064.314-.156.623-.233.933q-.241.93-.479,1.853c-.337,1.223-.591,2.46-.989,3.64q-.646,1.755-1.279,3.476l-.631,1.713-.781,1.629L243,144.642a12.15,12.15,0,0,1-.852,1.529l-.9,1.481c-.606.976-1.173,1.963-1.793,2.9l-2,2.667a61.586,61.586,0,0,1-17.589,15.645,58.48,58.48,0,0,1-16.47,6.768l-1.733.44a10.735,10.735,0,0,1-1.646.34l-3.015.448c-.934.13-1.793.287-2.585.361l-2.162.1-2.932.12c-.66.024-1,.022-1,.022" transform="translate(10.626 4.53)" fill="#263238"/>
              <path id="Trazado_874335" data-name="Trazado 874335" d="M160.053,151.669a2.424,2.424,0,0,1-.5-.336c-.363-.279-.815-.628-1.367-1.053q-.452-.354-.981-.773c-.348-.294-.7-.64-1.1-1a35.908,35.908,0,0,1-2.589-2.529l-1.434-1.544c-.493-.542-.946-1.158-1.448-1.767-1.027-1.2-1.957-2.613-2.97-4.071a54.918,54.918,0,0,1-8.3-21.4c-.234-1.762-.5-3.43-.551-5.01-.04-.788-.12-1.548-.12-2.281s.012-1.434.017-2.107a35.657,35.657,0,0,1,.207-3.613c.05-.53.078-1.025.138-1.478s.141-.854.2-1.231c.12-.686.22-1.249.3-1.7a2.443,2.443,0,0,1,.142-.584,2.419,2.419,0,0,1-.029.6c-.052.454-.116,1.019-.2,1.71q-.07.566-.153,1.231c-.043.452-.056.945-.091,1.473-.047,1.058-.176,2.259-.122,3.592q.008,1,.018,2.09c.012.726.1,1.48.153,2.26.072,1.565.351,3.216.6,4.958a56.428,56.428,0,0,0,8.221,21.2c.992,1.452,1.9,2.86,2.9,4.064.489.61.929,1.227,1.41,1.771l1.4,1.557c.86,1.021,1.765,1.821,2.513,2.57.381.367.724.723,1.06,1.028l.944.807,1.3,1.131a2.489,2.489,0,0,1,.429.426" transform="translate(11.655 8.336)" fill="#fff"/>
              <path id="Trazado_874336" data-name="Trazado 874336" d="M229,121.916a9.966,9.966,0,0,1-.307,1.692,18.1,18.1,0,0,1-.5,1.955c-.231.752-.454,1.624-.825,2.544-.338.932-.72,1.95-1.222,3-.45,1.079-1.054,2.171-1.665,3.332a45.07,45.07,0,0,1-10.911,13.021c-1.037.805-2.008,1.591-2.991,2.223-.951.679-1.886,1.233-2.745,1.729-.841.526-1.661.9-2.361,1.257a18.212,18.212,0,0,1-1.836.836,9.939,9.939,0,0,1-1.612.6,10.164,10.164,0,0,1,1.521-.8c.5-.232,1.106-.526,1.783-.917s1.481-.776,2.3-1.32c.838-.514,1.752-1.081,2.681-1.769.962-.642,1.91-1.433,2.927-2.241a47.081,47.081,0,0,0,10.789-12.876c.617-1.141,1.229-2.214,1.693-3.273.515-1.035.914-2.034,1.273-2.95.391-.9.638-1.758.9-2.5s.449-1.383.591-1.917a10.137,10.137,0,0,1,.519-1.637" transform="translate(16.977 10.245)" fill="#fff"/>
              <path id="Trazado_874337" data-name="Trazado 874337" d="M227.618,100.423a22.229,22.229,0,0,1,.781,6.791,22.282,22.282,0,0,1-.778,6.793c-.167-.025.223-3.048.214-6.791.009-3.743-.383-6.767-.216-6.793" transform="translate(19.124 8.439)" fill="#fff"/>
              <path id="Trazado_874338" data-name="Trazado 874338" d="M324.964,149.4c-.054-2.985-.105-5.475-.131-5.782,0,0-10.115-.757-11.035-10.737-.444-4.822-.552-14.831-.543-23.886a18.666,18.666,0,0,1,17.19-18.582l.964-.077c10.443-.221,16.464,8.523,16.4,18.967l.307,35.389-16.533,17.695-1.226-.085Z" transform="translate(26.323 7.591)" fill="#ffc09d"/>
              <path id="Trazado_874339" data-name="Trazado 874339" d="M323.935,139.865a24.216,24.216,0,0,0,12.7-4.882s-2.591,7.549-12.631,7.445Z" transform="translate(27.221 11.343)" fill="#ff9b6c"/>
              <path id="Trazado_874340" data-name="Trazado 874340" d="M329.029,111.356c.2.2,1.346-.735,3.019-.791,1.67-.081,2.928.757,3.1.54.086-.1-.124-.464-.671-.843a4.189,4.189,0,0,0-2.492-.689,4.04,4.04,0,0,0-2.395.89c-.5.423-.662.805-.564.894" transform="translate(27.647 9.207)" fill="#263238"/>
              <path id="Trazado_874341" data-name="Trazado 874341" d="M328.824,115.392a1.354,1.354,0,0,0,1.41,1.257,1.294,1.294,0,0,0,1.293-1.327,1.353,1.353,0,0,0-1.408-1.259,1.3,1.3,0,0,0-1.3,1.328" transform="translate(27.632 9.585)" fill="#263238"/>
              <path id="Trazado_874342" data-name="Trazado 874342" d="M325.543,122.974a10.191,10.191,0,0,0-2.529-.251c-.4-.009-.773-.056-.86-.318a2,2,0,0,1,.169-1.184q.439-1.468.92-3.078c1.272-4.378,2.158-7.967,1.982-8.015s-1.351,3.459-2.621,7.838q-.457,1.618-.872,3.092a2.272,2.272,0,0,0-.08,1.553.987.987,0,0,0,.689.523,2.717,2.717,0,0,0,.674.039,9.861,9.861,0,0,0,2.527-.2" transform="translate(27.02 9.254)" fill="#263238"/>
              <path id="Trazado_874343" data-name="Trazado 874343" d="M329.7,106.35c.164.37,1.5.081,3.106.154,1.605.037,2.926.416,3.109.057.08-.17-.171-.511-.719-.838a5.251,5.251,0,0,0-4.734-.162c-.565.289-.834.612-.762.788" transform="translate(27.704 8.83)" fill="#263238"/>
              <path id="Trazado_874344" data-name="Trazado 874344" d="M315.243,107.514c.178.3,1.481-.043,3.062-.1,1.582-.088,2.9.134,3.061-.182.073-.152-.191-.421-.744-.658a5.528,5.528,0,0,0-2.343-.371,5.7,5.7,0,0,0-2.322.589c-.543.287-.794.581-.715.725" transform="translate(26.489 8.924)" fill="#263238"/>
              <path id="Trazado_874345" data-name="Trazado 874345" d="M344.917,114.755c.165-.087,6.7-2.578,7.029,4.269s-6.615,5.763-6.636,5.568-.392-9.837-.392-9.837" transform="translate(28.984 9.6)" fill="#ffc09d"/>
              <path id="Trazado_874346" data-name="Trazado 874346" d="M347.094,121.729c.029-.023.124.078.33.16a1.189,1.189,0,0,0,.892-.024,2.956,2.956,0,0,0,1.24-2.713,3.965,3.965,0,0,0-.416-1.692,1.382,1.382,0,0,0-.941-.873.609.609,0,0,0-.688.361c-.082.2-.033.331-.068.344-.018.018-.152-.107-.111-.394a.759.759,0,0,1,.249-.441.9.9,0,0,1,.652-.206,1.682,1.682,0,0,1,1.3,1,4.056,4.056,0,0,1,.5,1.889,3.1,3.1,0,0,1-1.6,3.04,1.278,1.278,0,0,1-1.1-.129c-.22-.159-.263-.31-.241-.324" transform="translate(29.167 9.769)" fill="#ff9b6c"/>
              <path id="Trazado_874347" data-name="Trazado 874347" d="M326.462,126.361c-.049-.182,1.338-.382,2.456-1.487a7.656,7.656,0,0,0,1.2-1.629c.271-.462.467-.749.537-.715s0,.362-.189.881a5.07,5.07,0,0,1-1.168,1.852,4.108,4.108,0,0,1-1.928,1.067c-.549.132-.9.093-.909.033" transform="translate(27.433 10.296)" fill="#263238"/>
              <path id="Trazado_874348" data-name="Trazado 874348" d="M326.462,126.361c-.049-.182,1.338-.382,2.456-1.487a7.656,7.656,0,0,0,1.2-1.629c.271-.462.467-.749.537-.715s0,.362-.189.881a5.07,5.07,0,0,1-1.168,1.852,4.108,4.108,0,0,1-1.928,1.067C326.823,126.461,326.471,126.422,326.462,126.361Z" transform="translate(27.433 10.296)" fill="none" stroke="#263238" stroke-miterlimit="10" stroke-width="0.25"/>
              <path id="Trazado_874349" data-name="Trazado 874349" d="M357.036,106.08c-1.444-2.407-1.8-5.286-2.593-7.976s-2.319-5.472-4.968-6.4l-.059.026c-2.379-.939-5.305-.933-7.242.727-.507-3.556-3.647-6.354-7.128-7.242a23.191,23.191,0,0,0-12.373,1.056c-2.569,1.055-5.045,3.2-8.051,6.337a33.67,33.67,0,0,0-3.467,4.258l-2.958,9.35,2.621,4.875a11.075,11.075,0,0,0,.515.992l0-.023,2.4,10.3c.128-2.813-.142-12.592-.013-15.4a15.678,15.678,0,0,0,11.139-5.237c1.524-1.711,2.718-3.85,4.764-4.88,2.64-1.328,5.8-.4,8.6.555l-.118-.105A12.528,12.528,0,0,1,342,100.053a38.973,38.973,0,0,0,1.8,16.486c.268.8.993,2.434,1.778,2.731,1.541.584,1.945-.984,2.865-1.822a4.069,4.069,0,0,1,2.794-.708,61.411,61.411,0,0,0,1.832-7.12,6.241,6.241,0,0,0,2.876.173q-.449-1.057-.9-2.112a3.281,3.281,0,0,0,1.235.549,1.115,1.115,0,0,0,1.163-.516c.257-.528-.1-1.131-.4-1.634" transform="translate(25.898 7.125)" fill="#263238"/>
              <path id="Trazado_874350" data-name="Trazado 874350" d="M336.647,92.945a8.568,8.568,0,0,1,1.008.91,7.168,7.168,0,0,1,1.556,3.306,12.558,12.558,0,0,1,.272,2.537c.01.92-.057,1.906-.12,2.944a26.113,26.113,0,0,0-.053,3.276,11.505,11.505,0,0,0,.236,1.727,3.608,3.608,0,0,0,.717,1.672,1.506,1.506,0,0,0,1.413.465,2.249,2.249,0,0,0,1.264-.725,5.182,5.182,0,0,0,.945-2.546l-.209.027a8.382,8.382,0,0,0,1.229,2.085,2.976,2.976,0,0,0,1.95,1.045,1.927,1.927,0,0,0,1.029-.188,1.656,1.656,0,0,0,.695-.694,1.7,1.7,0,0,0,.206-.887,1.237,1.237,0,0,0-.325-.775l-.105.1a6.464,6.464,0,0,0,2.156,1.6,5.839,5.839,0,0,0,.667.254,1.13,1.13,0,0,0,.238.057,1.208,1.208,0,0,0-.225-.094c-.15-.061-.371-.147-.647-.286a6.626,6.626,0,0,1-2.081-1.62l-.106.1a1.281,1.281,0,0,1,.077,1.484,1.493,1.493,0,0,1-.629.614,1.738,1.738,0,0,1-.932.158,2.786,2.786,0,0,1-1.81-.993,8.267,8.267,0,0,1-1.185-2.04l-.145-.32-.064.347a5.008,5.008,0,0,1-.9,2.433,2.018,2.018,0,0,1-1.132.648,1.272,1.272,0,0,1-1.2-.392,3.411,3.411,0,0,1-.661-1.564,11.573,11.573,0,0,1-.235-1.691,26.856,26.856,0,0,1,.04-3.249c.057-1.039.118-2.028.1-2.959a12.55,12.55,0,0,0-.306-2.57,7.052,7.052,0,0,0-1.649-3.331,4.073,4.073,0,0,0-1.075-.849" transform="translate(28.289 7.81)" fill="#455a64"/>
              <path id="Trazado_874351" data-name="Trazado 874351" d="M308.2,103.3s.025.026.08.067l.252.181a3.234,3.234,0,0,0,.425.269,5.408,5.408,0,0,0,.609.315,8.856,8.856,0,0,0,4.281.74,11.324,11.324,0,0,0,6.014-2.267,19.6,19.6,0,0,0,5.139-6c.718-1.214,1.3-2.457,1.947-3.608a13.251,13.251,0,0,1,2.213-3.056,6.81,6.81,0,0,1,2.866-1.766,4.888,4.888,0,0,1,1.517-.185,5.352,5.352,0,0,1,1.392.258,5.773,5.773,0,0,1,3.228,2.695,7.042,7.042,0,0,1,.526,1.494.427.427,0,0,0-.01-.105c-.013-.082-.029-.182-.049-.3a5,5,0,0,0-.387-1.126,5.677,5.677,0,0,0-1.128-1.508,5.847,5.847,0,0,0-2.128-1.3,5.5,5.5,0,0,0-1.435-.281,5.04,5.04,0,0,0-1.578.179,6.99,6.99,0,0,0-2.965,1.8,13.381,13.381,0,0,0-2.26,3.1c-.653,1.158-1.237,2.4-1.949,3.6a19.612,19.612,0,0,1-5.066,5.949,11.248,11.248,0,0,1-5.9,2.275,8.987,8.987,0,0,1-4.232-.659,14.151,14.151,0,0,1-1.4-.749" transform="translate(25.899 7.379)" fill="#455a64"/>
              <path id="Trazado_874352" data-name="Trazado 874352" d="M314.963,112.031c.2.2,1.346-.734,3.02-.79,1.669-.082,2.927.754,3.1.539.086-.1-.124-.463-.671-.842a4.189,4.189,0,0,0-2.492-.691,4.04,4.04,0,0,0-2.395.891c-.5.422-.661.805-.564.893" transform="translate(26.465 9.264)" fill="#263238"/>
              <path id="Trazado_874353" data-name="Trazado 874353" d="M315.763,115.961a1.354,1.354,0,0,0,1.41,1.257,1.3,1.3,0,0,0,1.293-1.328,1.354,1.354,0,0,0-1.408-1.259,1.3,1.3,0,0,0-1.3,1.329" transform="translate(26.534 9.633)" fill="#263238"/>
              <path id="Trazado_874354" data-name="Trazado 874354" d="M312.375,94.868a4.281,4.281,0,0,1-3.519,2.064,10.492,10.492,0,0,1-1.5-.409c-.483.306-.336,1.977.01,2.433a8.925,8.925,0,0,0,1.07,1.066c-1.625.914-3.129.508-4.891-.1a8.589,8.589,0,0,0,5.23,6.786,3.016,3.016,0,0,0,2.759,0,3.465,3.465,0,0,0,1.171-2.173,37.61,37.61,0,0,0,1.05-9.206Z" transform="translate(25.508 7.972)" fill="#263238"/>
              <path id="Trazado_874355" data-name="Trazado 874355" d="M277.286,329.141l8.252,18.645s-21.721,8.617-21.9,12.712l42.27-.775-.052-3.577-9.323-30.757Z" transform="translate(22.154 27.343)" fill="#455a64"/>
              <path id="Trazado_874356" data-name="Trazado 874356" d="M295.424,342.966a1.75,1.75,0,0,1,1.229,1.974,1.659,1.659,0,0,1-1.921,1.252,1.847,1.847,0,0,1-1.291-2.1,1.716,1.716,0,0,1,2.141-1.078" transform="translate(24.654 28.815)" fill="#e0e0e0"/>
              <path id="Trazado_874357" data-name="Trazado 874357" d="M305.914,357.339l-.052-3.577-40.587,2.149s-1.868.864-1.63,2.2Z" transform="translate(22.153 29.727)" fill="#263238"/>
              <path id="Trazado_874358" data-name="Trazado 874358" d="M283.205,345.876c.011.209,1.045.285,2.072.939,1.045.627,1.585,1.523,1.773,1.437.189-.044-.141-1.289-1.4-2.06s-2.494-.507-2.447-.317" transform="translate(23.798 29.047)" fill="#263238"/>
              <path id="Trazado_874359" data-name="Trazado 874359" d="M279.146,347.656c-.043.2.856.543,1.573,1.415.743.851.937,1.8,1.142,1.791.2.029.317-1.2-.6-2.265s-2.117-1.14-2.118-.941" transform="translate(23.457 29.207)" fill="#263238"/>
              <path id="Trazado_874360" data-name="Trazado 874360" d="M277.045,352.93c.189.041.456-1.009-.093-2.145s-1.524-1.574-1.609-1.4c-.114.173.525.777.962,1.716.46.929.534,1.809.74,1.827" transform="translate(23.137 29.357)" fill="#263238"/>
              <path id="Trazado_874361" data-name="Trazado 874361" d="M281.785,341.437c.09.189,1.032-.117,2.2-.059,1.17.036,2.085.415,2.189.234.117-.153-.784-.912-2.16-.962s-2.332.623-2.228.786" transform="translate(23.678 28.625)" fill="#263238"/>
              <path id="Trazado_874362" data-name="Trazado 874362" d="M344.967,385.285l.941,35.555-18.45-.052-.989-34.693Z" transform="translate(27.434 32.376)" fill="#455a64"/>
              <path id="Trazado_874363" data-name="Trazado 874363" d="M336,419.048c-.154,0-.386-7.578-.518-16.93s-.114-16.937.04-16.939.386,7.576.518,16.932.114,16.936-.04,16.938" transform="translate(28.184 32.367)" fill="#263238"/>
              <path id="Trazado_874364" data-name="Trazado 874364" d="M327.09,408.256a2.512,2.512,0,0,1,.454-.767,12.925,12.925,0,0,1,1.6-1.819,12.523,12.523,0,0,1,2.932-2.093,9.715,9.715,0,0,1,11.535,1.893,8.547,8.547,0,0,1,1.4,2,2.452,2.452,0,0,1,.313.839,19.549,19.549,0,0,0-1.988-2.559,9.761,9.761,0,0,0-6.975-2.716,11.209,11.209,0,0,0-6.951,2.934c-1.514,1.31-2.243,2.35-2.321,2.287" transform="translate(27.486 33.82)" fill="#263238"/>
              <path id="Trazado_874365" data-name="Trazado 874365" d="M345.772,418.447l-18.366-.086-.135-4.2,18.521.086Z" transform="translate(27.501 34.803)" fill="#263238"/>
              <path id="Trazado_874366" data-name="Trazado 874366" d="M353.587,235.358l-40.353-7.064-.159,4.39c-9.742,7.912-35.7,30.529-51.384,46.019,0,0-5.819,7.81-3.511,15.015l24.2,60.712,24.038-4.368L289.658,296.6l46.845-22.17c9.109-3.415,14.6-14.166,16.54-20.844,1.658-5.712.789-10.919.543-18.233" transform="translate(21.65 19.184)" fill="#263238"/>
              <path id="Trazado_874367" data-name="Trazado 874367" d="M316.514,277.514l9.608,130.573,23.847.614s2.037-35.6,2.435-62.517c.363-24.634.616-85.678.616-85.678Z" transform="translate(26.597 21.891)" fill="#263238"/>
              <path id="Trazado_874368" data-name="Trazado 874368" d="M348.57,234.81l12.609,2.31s0,18.151-1.071,27.522c-.521,4.562-7.775,19.1-7.775,19.1l-34.994,6.777V262.5Z" transform="translate(26.667 19.732)" fill="#263238"/>
              <path id="Trazado_874369" data-name="Trazado 874369" d="M347.87,258.282a3.927,3.927,0,0,1-.3.669,18.449,18.449,0,0,1-1,1.849,26.036,26.036,0,0,1-4.888,5.975,44.055,44.055,0,0,1-9.427,6.419c-3.792,2.017-8.12,3.868-12.582,5.973l-22.931,10.646-6.974,3.172-1.908.838a3.764,3.764,0,0,1-.68.261,3.864,3.864,0,0,1,.636-.356l1.867-.927c1.681-.809,4.028-1.937,6.905-3.323l22.873-10.785c4.465-2.107,8.8-3.943,12.576-5.924a44.989,44.989,0,0,0,9.4-6.269,27.352,27.352,0,0,0,4.961-5.807c.979-1.53,1.424-2.439,1.475-2.412" transform="translate(24.132 21.704)" fill="#455a64"/>
              <path id="Trazado_874370" data-name="Trazado 874370" d="M351.868,278.344a78.807,78.807,0,0,1-7.468,5.033,78.654,78.654,0,0,1-7.74,4.593,156.979,156.979,0,0,1,15.208-9.626" transform="translate(28.29 23.389)" fill="#455a64"/>
              <path id="Trazado_874371" data-name="Trazado 874371" d="M272.194,289.383a10.169,10.169,0,0,1,2.645-.516,28.582,28.582,0,0,1,6.505-.009,26.607,26.607,0,0,1,6.337,1.5,10.167,10.167,0,0,1,2.435,1.171,22.093,22.093,0,0,1-2.552-.824,33.2,33.2,0,0,0-6.277-1.332,36.809,36.809,0,0,0-6.417-.143,21.435,21.435,0,0,1-2.676.152" transform="translate(22.873 24.258)" fill="#455a64"/>
              <path id="Trazado_874372" data-name="Trazado 874372" d="M315.05,232.941c-.14-.023-.146-.711-.015-1.537s.351-1.478.491-1.455.146.711.015,1.537-.351,1.478-.491,1.455" transform="translate(26.465 19.323)" fill="#455a64"/>
              <path id="Trazado_874373" data-name="Trazado 874373" d="M316.863,233.553c-.139-.025-.115-.826.055-1.79s.421-1.724.559-1.7.115.827-.055,1.79-.421,1.724-.559,1.7" transform="translate(26.619 19.333)" fill="#455a64"/>
              <path id="Trazado_874374" data-name="Trazado 874374" d="M331.922,236.058c-.14-.021-.147-.763-.017-1.659s.35-1.6.49-1.583.147.763.016,1.659-.349,1.6-.489,1.583" transform="translate(27.883 19.564)" fill="#455a64"/>
              <path id="Trazado_874375" data-name="Trazado 874375" d="M333.634,236.913c-.14-.018-.144-.9-.01-1.964s.358-1.917.5-1.9.145.9.01,1.964-.358,1.917-.5,1.9" transform="translate(28.027 19.584)" fill="#455a64"/>
              <path id="Trazado_874376" data-name="Trazado 874376" d="M348.16,239.433c-.141-.014-.171-.863-.068-1.894s.3-1.857.44-1.843.171.862.068,1.895-.3,1.856-.44,1.842" transform="translate(29.246 19.806)" fill="#455a64"/>
              <path id="Trazado_874377" data-name="Trazado 874377" d="M350.36,240.049a8.925,8.925,0,0,1,.244-4.235,8.923,8.923,0,0,1-.244,4.235" transform="translate(29.428 19.816)" fill="#455a64"/>
              <path id="Trazado_874378" data-name="Trazado 874378" d="M314.349,151.944l-9.412,76.211a7.393,7.393,0,0,0,5.456,8.09l48.558,8.524a4.775,4.775,0,0,0,5.568-4.691c.12-10.5.545-33.2,2.016-47.353,1.622-15.6,1.551-30.207-4.192-37.643a44.057,44.057,0,0,0-11.572-10.755l-1.618-5.955s-20.4,1.351-24.012,4.526l-2.223,3.9Z" transform="translate(25.62 11.628)" fill="#ffae55"/>
              <path id="Trazado_874379" data-name="Trazado 874379" d="M349.369,143.874a4.482,4.482,0,0,1-1.1.113c-.815.041-1.812.089-2.988.15-2.521.124-6,.346-9.835.706s-7.3.766-9.812,1.06l-2.973.338a4.381,4.381,0,0,1-1.1.06,4.516,4.516,0,0,1,1.071-.26c.695-.133,1.7-.306,2.955-.5,2.5-.387,5.965-.857,9.813-1.214s7.34-.524,9.871-.556c1.265-.018,2.289-.01,3,.017a4.543,4.543,0,0,1,1.1.089" transform="translate(27.022 12.08)" fill="#263238"/>
              <g id="Grupo_1099633" data-name="Grupo 1099633" transform="translate(331.389 190.713)" opacity="0.3">
                <g id="Grupo_1099632" data-name="Grupo 1099632">
                  <g id="Grupo_1099631" data-name="Grupo 1099631" clip-path="url(#clip-path-6)">
                    <path id="Trazado_874380" data-name="Trazado 874380" d="M332.261,175.929l-4.308,29.132-5.451-.927s-3.868,16.586-16.8,14.129l7.994-15.507,4.01-15.906Z" transform="translate(-305.7 -175.929)"/>
                  </g>
                </g>
              </g>
              <path id="Trazado_874381" data-name="Trazado 874381" d="M297.283,192.509l29.954,8.769s4.568-17.124,6.762-27.222c2.4-11.052.475-16.792-6.792-21.92a12.215,12.215,0,0,0-5.523-2.16,13.128,13.128,0,0,0-13.558,8.008,119.6,119.6,0,0,0-4.841,13.944c-2.866,9.8-6,20.583-6,20.583" transform="translate(24.981 12.594)" fill="#ffae55"/>
              <path id="Trazado_874382" data-name="Trazado 874382" d="M334.024,173.427a2.732,2.732,0,0,1-.077.521c-.075.377-.172.874-.3,1.5-.275,1.306-.692,3.215-1.255,5.622-1.122,4.814-2.8,11.623-4.91,19.642l-.061.232-.229-.067-18.858-5.5-11.1-3.258-.241-.072.072-.242c2.955-9.995,5.443-18.7,7.4-24.848,1-3.069,1.9-5.482,2.568-7.119.334-.817.608-1.443.8-1.861a4.1,4.1,0,0,1,.315-.627,4.329,4.329,0,0,1-.235.661q-.268.7-.722,1.891c-.616,1.653-1.471,4.077-2.425,7.154-1.866,6.163-4.3,14.892-7.223,24.892l-.169-.312,11.1,3.242,18.845,5.542-.288.165c2.142-8,3.886-14.794,5.086-19.585.585-2.365,1.052-4.25,1.382-5.588.153-.618.275-1.109.368-1.483a2.675,2.675,0,0,1,.151-.5" transform="translate(24.957 13.223)" fill="#263238"/>
              <path id="Trazado_874383" data-name="Trazado 874383" d="M330.6,157.347c-.072.051-.668-.857-1.893-2.068a16.078,16.078,0,0,0-5.571-3.591,15.913,15.913,0,0,0-6.538-.953c-1.707.109-2.744.407-2.765.32a2.025,2.025,0,0,1,.707-.282,11.852,11.852,0,0,1,2.027-.4,14.612,14.612,0,0,1,6.747.831,14.786,14.786,0,0,1,5.652,3.821,12.261,12.261,0,0,1,1.279,1.644,2.075,2.075,0,0,1,.354.681" transform="translate(26.372 12.628)" fill="#263238"/>
              <path id="Trazado_874384" data-name="Trazado 874384" d="M302.872,190.692l-1.512,5.1-28.655-12.565-6.192,9.64s22.5,16.925,29.546,22.331,15.206,3.512,19.947-2.8c4.868-6.486,6.752-15.794,6.752-15.794Z" transform="translate(22.396 15.397)" fill="#ffc09d"/>
              <path id="Trazado_874385" data-name="Trazado 874385" d="M301.714,201.167c-.15.028-.491-1.528-1.344-3.262-.838-1.743-1.848-2.965-1.734-3.069a6.61,6.61,0,0,1,2.193,2.839,6.691,6.691,0,0,1,.886,3.492" transform="translate(25.094 16.372)" fill="#ff9b6c"/>
              <path id="Trazado_874386" data-name="Trazado 874386" d="M278.551,186.864l-3.785-2.65c-2.015-6.062-5.757-17.057-6.864-16.728-1.218.363-1.724,1.446-1.375,3.783.837,5.6-.536,8.063-3.76,7.324-1.109-.254-9.953-2.659-9.953-2.659s-5.794.966-.792,5.029c0,0-1.3,3.448,2.252,4.282,0,0-.611,2.035,4.6,4.825a52.93,52.93,0,0,0,7.355,3.1l4.807,2.923Z" transform="translate(21.007 14.074)" fill="#ffc09d"/>
              <path id="Trazado_874387" data-name="Trazado 874387" d="M259.177,182.079c-.034.188-1.918-.236-4.107-1.009-.79-.262-1.526-.512-2.132-.661l.076-.43.366.079-.081.395a4.38,4.38,0,0,1-1.484-.588,4.358,4.358,0,0,1,1.582.2l-.081.395-.373-.046.076-.43a15.181,15.181,0,0,1,2.212.6,32.281,32.281,0,0,1,3.947,1.5" transform="translate(21.16 15.112)" fill="#ff9b6c"/>
              <path id="Trazado_874388" data-name="Trazado 874388" d="M259.725,186.151a13.3,13.3,0,0,1-5.809-2.314,33.583,33.583,0,0,1,5.809,2.314" transform="translate(21.337 15.447)" fill="#ff9b6c"/>
              <path id="Trazado_874389" data-name="Trazado 874389" d="M296.9,364.247c0,2.269,30.642,96.109,30.642,96.109h12.328l-30.559-96.109Z" transform="translate(24.949 30.608)" fill="#455a64"/>
              <rect id="Rectángulo_379017" data-name="Rectángulo 379017" width="12.289" height="100.046" transform="translate(277.972 390.918)" fill="#455a64"/>
              <rect id="Rectángulo_379018" data-name="Rectángulo 379018" width="39.119" height="8.709" transform="translate(319.071 421.239)" fill="#455a64"/>
              <rect id="Rectángulo_379019" data-name="Rectángulo 379019" width="68.023" height="8.709" transform="translate(277.837 386.954)" fill="#455a64"/>
              <rect id="Rectángulo_379020" data-name="Rectángulo 379020" width="40.486" height="8.709" transform="translate(329.915 453.106)" fill="#455a64"/>
              <path id="Trazado_874390" data-name="Trazado 874390" d="M324.729,365.27c0,.141-15.346.256-34.271.256s-34.275-.115-34.275-.256,15.342-.256,34.275-.256,34.271.115,34.271.256" transform="translate(21.528 30.673)" fill="#263238"/>
              <path id="Trazado_874391" data-name="Trazado 874391" d="M268,460c-.141,0-.256-20.493-.256-45.767s.115-45.77.256-45.77.256,20.488.256,45.77S268.145,460,268,460" transform="translate(22.499 30.963)" fill="#263238"/>
              <path id="Trazado_874392" data-name="Trazado 874392" d="M327.466,460.08c-.132.056-6.887-20.616-15.083-46.168s-14.737-46.32-14.605-46.376,6.886,20.612,15.085,46.172,14.735,46.315,14.6,46.372" transform="translate(25.023 30.885)" fill="#263238"/>
              <path id="Trazado_874393" data-name="Trazado 874393" d="M339.013,460.08c-.132.056-6.887-20.616-15.083-46.168s-14.737-46.32-14.605-46.376,6.886,20.612,15.085,46.172,14.735,46.315,14.6,46.372" transform="translate(25.993 30.885)" fill="#263238"/>
            </g>
          </g>
          <g id="Grupo_1099640" data-name="Grupo 1099640">
            <g id="Grupo_1099639" data-name="Grupo 1099639" clip-path="url(#clip-path-3)">
              <path id="Trazado_874394" data-name="Trazado 874394" d="M152.275,48.44a64.463,64.463,0,0,1-6.221-5.821,64.478,64.478,0,0,1-5.822-6.222,64.407,64.407,0,0,1,6.221,5.822,64.406,64.406,0,0,1,5.822,6.221" transform="translate(11.784 3.058)" fill="#263238"/>
              <path id="Trazado_874395" data-name="Trazado 874395" d="M180.915,39.544c-.156,0-.282-6.525-.282-14.572s.126-14.574.282-14.574.282,6.524.282,14.574-.126,14.572-.282,14.572" transform="translate(15.179 0.874)" fill="#263238"/>
              <path id="Trazado_874396" data-name="Trazado 874396" d="M161.788,34.538a41.019,41.019,0,0,1-2.244-6.407,40.846,40.846,0,0,1-1.7-6.572,41.125,41.125,0,0,1,2.243,6.408,41.038,41.038,0,0,1,1.7,6.571" transform="translate(13.262 1.812)" fill="#263238"/>
              <path id="Trazado_874397" data-name="Trazado 874397" d="M211.171,48.44a64.464,64.464,0,0,1,5.821-6.221,64.482,64.482,0,0,1,6.222-5.822,64.4,64.4,0,0,1-5.822,6.221,64.4,64.4,0,0,1-6.221,5.822" transform="translate(17.745 3.058)" fill="#263238"/>
              <path id="Trazado_874398" data-name="Trazado 874398" d="M201.031,34.538a40.9,40.9,0,0,1,1.7-6.571,41.12,41.12,0,0,1,2.243-6.408,40.846,40.846,0,0,1-1.7,6.572,41.017,41.017,0,0,1-2.244,6.407" transform="translate(16.892 1.812)" fill="#263238"/>
              <path id="Trazado_874399" data-name="Trazado 874399" d="M139.744,61.086a15.063,15.063,0,0,1-2.751-.992c-1.673-.68-3.97-1.655-6.491-2.765s-4.795-2.143-6.426-2.916a15.107,15.107,0,0,1-2.591-1.357,15.022,15.022,0,0,1,2.757.994c1.674.68,3.968,1.654,6.487,2.763s4.788,2.14,6.42,2.914a15.14,15.14,0,0,1,2.6,1.359" transform="translate(10.209 4.458)" fill="#263238"/>
              <path id="Trazado_874400" data-name="Trazado 874400" d="M236.937,55.849a86.919,86.919,0,0,1-9.215,3.594,86.878,86.878,0,0,1-9.407,3.062,86.615,86.615,0,0,1,9.216-3.594,86.826,86.826,0,0,1,9.406-3.062" transform="translate(18.345 4.692)" fill="#263238"/>
              <path id="Trazado_874401" data-name="Trazado 874401" d="M223.517,83.626a40.879,40.879,0,1,0-57.236,38.608c.137,4.842.289,10.309.289,10.309l35.815-1.006s.053-5.792-.012-10.96a40.864,40.864,0,0,0,21.143-36.951" transform="translate(11.914 3.689)" fill="#ffae55"/>
              <path id="Trazado_874402" data-name="Trazado 874402" d="M187.928,128.536s0-.172.026-.505c.03-.353.072-.844.126-1.479.121-1.3.3-3.215.59-5.676s.693-5.47,1.376-8.928a60.64,60.64,0,0,1,3.389-11.476,38.872,38.872,0,0,1,3.189-6.209,7.53,7.53,0,0,1,2.723-2.588,4.214,4.214,0,0,1,3.883.017,2.792,2.792,0,0,1,1.34,1.581,2.855,2.855,0,0,1-.113,2.1,5.806,5.806,0,0,1-3.08,2.809,11.181,11.181,0,0,1-8.512-.362,11.332,11.332,0,0,1-5.961-6.656,8.556,8.556,0,0,1-.374-4.707,3.674,3.674,0,0,1,3.634-2.944,2.642,2.642,0,0,1,2.12,1.382,3.707,3.707,0,0,1,.4,2.511,7.993,7.993,0,0,1-2.759,4.141,12.189,12.189,0,0,1-9.447,3.031,10.625,10.625,0,0,1-8.067-5.668,6.18,6.18,0,0,1-.415-4.942,3.131,3.131,0,0,1,1.742-1.857,3.062,3.062,0,0,1,2.521.16,4.072,4.072,0,0,1,1.776,1.744,6.389,6.389,0,0,1,.689,2.337,11.772,11.772,0,0,1-.49,4.687,12.167,12.167,0,0,1-5.568,7.015,12.4,12.4,0,0,1-8.423,1.4,6.5,6.5,0,0,1-3.733-1.848,3.166,3.166,0,0,1-.337-3.93,2.669,2.669,0,0,1,1.811-.95,3.847,3.847,0,0,1,1.96.324,5.913,5.913,0,0,1,2.58,2.734c1.089,2.188,1.974,4.318,2.867,6.35,3.5,8.144,6.008,14.865,7.692,19.525.842,2.33,1.467,4.15,1.886,5.384.2.6.354,1.072.465,1.408.1.319.142.486.142.486s-.073-.156-.191-.468c-.121-.333-.293-.8-.512-1.392-.459-1.244-1.123-3.044-1.974-5.351-1.741-4.635-4.3-11.334-7.835-19.45-.9-2.017-1.807-4.171-2.881-6.308a5.548,5.548,0,0,0-2.4-2.551,2.449,2.449,0,0,0-2.946,3.9,6.078,6.078,0,0,0,3.495,1.7,11.958,11.958,0,0,0,8.11-1.369,11.708,11.708,0,0,0,5.338-6.754,11.314,11.314,0,0,0,.465-4.492,4.441,4.441,0,0,0-2.2-3.694,2.571,2.571,0,0,0-2.123-.142,2.631,2.631,0,0,0-1.46,1.577,5.69,5.69,0,0,0,.4,4.542,10.131,10.131,0,0,0,7.684,5.391,11.707,11.707,0,0,0,9.053-2.908,7.541,7.541,0,0,0,2.6-3.858,3.206,3.206,0,0,0-.34-2.172,2.141,2.141,0,0,0-1.727-1.137,2.872,2.872,0,0,0-2.013.712A3.523,3.523,0,0,0,187,86.581a8.1,8.1,0,0,0,.357,4.432,10.868,10.868,0,0,0,5.7,6.389,10.754,10.754,0,0,0,8.148.376,5.392,5.392,0,0,0,2.856-2.571,2.414,2.414,0,0,0-1.035-3.15,3.819,3.819,0,0,0-3.5-.022,7.166,7.166,0,0,0-2.584,2.448,38.74,38.74,0,0,0-3.182,6.127,61.092,61.092,0,0,0-3.441,11.4c-.707,3.441-1.133,6.442-1.457,8.9-.295,2.442-.525,4.347-.684,5.662-.075.632-.133,1.122-.175,1.474-.042.332-.077.5-.077.5" transform="translate(13.414 6.883)" fill="#263238"/>
              <path id="Trazado_874403" data-name="Trazado 874403" d="M197.884,131.289l-30.751.864a2.309,2.309,0,0,1-.129-4.616l30.75-.864a2.309,2.309,0,0,1,.13,4.616" transform="translate(13.845 10.645)" fill="#e0e0e0"/>
              <path id="Trazado_874404" data-name="Trazado 874404" d="M197.926,132.79l-30.751.864a2.309,2.309,0,0,0,.13,4.616l3.376-.1,4.718,8.4a2.963,2.963,0,0,0,2.668,1.511l10.989-.308a2.966,2.966,0,0,0,2.593-1.688l4.113-8.618,2.295-.064a2.309,2.309,0,0,0-.13-4.616" transform="translate(13.86 11.159)" fill="#e0e0e0"/>
              <path id="Trazado_874405" data-name="Trazado 874405" d="M190.2,145.87c-.035.077-.817-.255-2.131-.591a17.126,17.126,0,0,0-10.379.592c-1.266.483-2.007.9-2.049.83a6.251,6.251,0,0,1,1.913-1.158,14.966,14.966,0,0,1,10.613-.606,6.3,6.3,0,0,1,2.033.932" transform="translate(14.759 12.121)" fill="#455a64"/>
              <path id="Trazado_874406" data-name="Trazado 874406" d="M195.359,137.208c0,.139-5.552.408-12.409.6s-12.42.236-12.423.1,5.55-.407,12.409-.6,12.419-.236,12.423-.1" transform="translate(14.33 11.523)" fill="#455a64"/>
              <path id="Trazado_874407" data-name="Trazado 874407" d="M193.36,140.619a17.228,17.228,0,0,1-3.019.394c-1.872.171-4.462.35-7.326.472s-5.462.159-7.341.148a17.188,17.188,0,0,1-3.042-.139,19.418,19.418,0,0,1,3.035-.216c2.026-.083,4.542-.183,7.326-.295s5.3-.234,7.324-.325a19.384,19.384,0,0,1,3.043-.039" transform="translate(14.507 11.813)" fill="#455a64"/>
              <g id="Grupo_1099638" data-name="Grupo 1099638" transform="translate(159.585 52.114)" opacity="0.3">
                <g id="Grupo_1099637" data-name="Grupo 1099637">
                  <g id="Grupo_1099636" data-name="Grupo 1099636" clip-path="url(#clip-path-8)">
                    <path id="Trazado_874408" data-name="Trazado 874408" d="M182.024,48.683c-3.269-1.072-8.672-.629-11.9.554-11.474,4.2-18.642,12.123-22.518,24.595-1.546,5.813,1.808,10.14,4.935,9.954s5.645-2.7,7.2-5.416,2.473-5.782,4.2-8.4a16.046,16.046,0,0,1,8.773-6.49c2.71-.8,5.593-.864,8.309-1.644s5.431-2.551,6.117-5.291c.836-3.339-1.841-6.791-5.11-7.865" transform="translate(-147.214 -48.074)" fill="#fff"/>
                  </g>
                </g>
              </g>
              <path id="Trazado_874409" data-name="Trazado 874409" d="M215.939,75.79a1.656,1.656,0,0,1,.144.481c.067.32.2.789.287,1.406a31.677,31.677,0,0,1,.447,5.263,34.755,34.755,0,0,1-15.957,29.493,31.814,31.814,0,0,1-4.65,2.505c-.566.26-1.029.41-1.334.529a1.677,1.677,0,0,1-.48.142,16.051,16.051,0,0,1,1.723-.87,38.086,38.086,0,0,0,4.522-2.639,35.573,35.573,0,0,0,15.779-29.163,38.015,38.015,0,0,0-.266-5.229,16.285,16.285,0,0,1-.214-1.919" transform="translate(16.335 6.369)" fill="#fff"/>
              <path id="Trazado_874410" data-name="Trazado 874410" d="M157.053,108.383a7.03,7.03,0,0,1-1.159-.87,13.288,13.288,0,0,1-1.27-1.131,22,22,0,0,1-1.575-1.614,25.1,25.1,0,0,1-1.743-2.107c-.621-.766-1.178-1.659-1.788-2.584a34.355,34.355,0,0,1-4.847-13.465c-.12-1.1-.259-2.144-.27-3.13a24.72,24.72,0,0,1,0-2.736,21.919,21.919,0,0,1,.184-2.247,13.375,13.375,0,0,1,.258-1.681,7.126,7.126,0,0,1,.338-1.408c.119.02-.321,2.041-.382,5.349-.011.826-.015,1.73.067,2.7.03.971.185,2,.318,3.081a35.937,35.937,0,0,0,4.776,13.269c.588.918,1.123,1.808,1.719,2.576a26.96,26.96,0,0,0,1.667,2.123c2.155,2.51,3.783,3.789,3.7,3.879" transform="translate(12.131 6.337)" fill="#fff"/>
              <path id="Trazado_874411" data-name="Trazado 874411" d="M185.974,46.684c-.02.184-4.072-.537-9.035.1-4.972.588-8.729,2.267-8.793,2.092a9.406,9.406,0,0,1,2.427-1.139,28.54,28.54,0,0,1,12.77-1.566,9.336,9.336,0,0,1,2.631.518" transform="translate(14.13 3.866)" fill="#fff"/>
            </g>
          </g>
        </g>
      </g>
      <rect id="Rectángulo_379025" data-name="Rectángulo 379025" width="400" height="554" transform="translate(915 20109)" fill="none"/>
    </g>
  </g>
</svg>
