<svg id="Grupo_1099735" data-name="Grupo 1099735" xmlns="http://www.w3.org/2000/svg" xmlns:xlink="http://www.w3.org/1999/xlink" width="505" height="263.848" viewBox="0 0 505 263.848">
  <defs>
    <clipPath id="clip-path">
      <rect id="Rectángulo_379106" data-name="Rectángulo 379106" width="505" height="263.848" fill="none"/>
    </clipPath>
    <clipPath id="clip-path-2">
      <rect id="Rectángulo_379105" data-name="Rectángulo 379105" width="505.001" height="263.849" fill="none"/>
    </clipPath>
    <clipPath id="clip-path-4">
      <rect id="Rectángulo_379095" data-name="Rectángulo 379095" width="140.389" height="107.053" fill="#ffac47"/>
    </clipPath>
    <clipPath id="clip-path-5">
      <rect id="Rectángulo_379096" data-name="Rectángulo 379096" width="5.44" height="2.679" fill="none"/>
    </clipPath>
    <clipPath id="clip-path-6">
      <rect id="Rectángulo_379097" data-name="Rectángulo 379097" width="1.83" height="1.877" fill="none"/>
    </clipPath>
    <clipPath id="clip-path-7">
      <rect id="Rectángulo_379098" data-name="Rectángulo 379098" width="1.827" height="0.655" fill="none"/>
    </clipPath>
    <clipPath id="clip-path-8">
      <rect id="Rectángulo_379099" data-name="Rectángulo 379099" width="1.292" height="1.103" fill="none"/>
    </clipPath>
    <clipPath id="clip-path-9">
      <rect id="Rectángulo_379100" data-name="Rectángulo 379100" width="7.534" height="9.772" fill="none"/>
    </clipPath>
    <clipPath id="clip-path-10">
      <rect id="Rectángulo_379101" data-name="Rectángulo 379101" width="10.07" height="3.877" fill="none"/>
    </clipPath>
    <clipPath id="clip-path-11">
      <rect id="Rectángulo_379102" data-name="Rectángulo 379102" width="4.801" height="2.06" fill="none"/>
    </clipPath>
    <clipPath id="clip-path-12">
      <rect id="Rectángulo_379104" data-name="Rectángulo 379104" width="23.84" height="19.162" fill="none"/>
    </clipPath>
  </defs>
  <g id="Grupo_1099734" data-name="Grupo 1099734" clip-path="url(#clip-path)">
    <g id="Grupo_1099733" data-name="Grupo 1099733" transform="translate(0 -0.001)">
      <g id="Grupo_1099732" data-name="Grupo 1099732" clip-path="url(#clip-path-2)">
        <g id="Grupo_1099704" data-name="Grupo 1099704" transform="translate(0 0.001)" opacity="0.2">
          <g id="Grupo_1099703" data-name="Grupo 1099703">
            <g id="Grupo_1099702" data-name="Grupo 1099702" clip-path="url(#clip-path)">
              <path id="Trazado_874466" data-name="Trazado 874466" d="M505,263.845H20.7C-8.711,252.648-16,148.81,61.614,143.285c77.511-5.52-28.462-126.511,82.329-142.4S298.31,188.809,402.005,146.768c28.52-11.56,54.889-10.19,74.34,13.5C505.3,195.552,505,263.845,505,263.845" transform="translate(0 0.003)" fill="#ffac47"/>
            </g>
          </g>
        </g>
        <g id="Grupo_1099707" data-name="Grupo 1099707" transform="translate(268.607 32.87)" opacity="0.6">
          <g id="Grupo_1099706" data-name="Grupo 1099706">
            <g id="Grupo_1099705" data-name="Grupo 1099705" clip-path="url(#clip-path-4)">
              <path id="Trazado_874467" data-name="Trazado 874467" d="M1470.51,205.169q-.059,1.139-.185,2.268c-.008.073-.016.145-.026.216a31.9,31.9,0,0,1-1.53,6.733c-.027.077-.054.155-.082.23-3.3,9.231-11.271,16.684-26.243,17.949-3.98.335-6.614,2.483-8.866,5.623-.048.067-.094.131-.141.2-3.795,5.4-6.551,13.6-12.987,20.622l-.207.225c-8.628,9.263-23.793,16.383-56.446,12.1-.11-.013-.219-.027-.33-.042,0,0-.072-.136-.2-.4-2.116-4.211-19.8-40.956-3.379-61.537,12.31-15.425,21.754-14,29.274-18.34.064-.035.126-.071.188-.11,3.06-1.81,5.8-4.612,8.281-9.948,7.628-16.394,24.735-17.619,37.019-13.212l.2.072a34.486,34.486,0,0,1,4.286,1.9c12.193,6.44,39.443-12.039,51.481,1.942s-19.434,20.358-20.1,33.512" transform="translate(-1352.967 -165.558)" fill="#ffac47"/>
              <path id="Trazado_874468" data-name="Trazado 874468" d="M1532.231,199.115q-1.448.243-2.888.526a142.2,142.2,0,0,0-19.256,5.292c-.072.024-.145.049-.217.074-3.759,1.315-7.47,2.764-11.123,4.317a184.026,184.026,0,0,0-36.892,20.965q-4.727,3.471-9.18,7.247c-.04.032-.078.064-.117.1q-2.648,2.249-5.2,4.6c-.058.051-.114.1-.166.153a169.566,169.566,0,0,0-15.773,16.713q-.846,1.027-1.681,2.062l-.13.163a243.377,243.377,0,0,0-17.345,24.53c-.038.06-.075.12-.113.181q-1.807,2.93-3.532,5.909c-1.094,1.89-2.182,3.809-3.243,5.754-.11-.013-.22-.028-.33-.042,0,0-.072-.136-.2-.4,1.723-3.168,3.535-6.274,5.377-9.324q4.358-7.215,9.2-14.147c.044-.065.088-.128.135-.193a231.636,231.636,0,0,1,14.409-18.535q1.285-1.487,2.606-2.942l.141-.155a167.053,167.053,0,0,1,24.189-21.788c.057-.045.117-.088.174-.13q2.427-1.8,4.917-3.506.557-.382,1.117-.761c.067-.046.135-.092.2-.137a184.864,184.864,0,0,1,27.7-15.413c.066-.032.133-.061.2-.091q3.7-1.654,7.459-3.144a146.5,146.5,0,0,1,29.441-8.534.331.331,0,0,1,.114.652" transform="translate(-1394.548 -191.926)" fill="#ffac47"/>
              <path id="Trazado_874469" data-name="Trazado 874469" d="M1424.835,346.367c-3.579,16.178,3.421,31.927,10.02,46.32a.1.1,0,0,0,.184-.087c-6.587-14.365-13.574-30.066-10-46.213.028-.128-.174-.146-.2-.02" transform="translate(-1409.79 -310.402)" fill="#ffac47"/>
              <path id="Trazado_874470" data-name="Trazado 874470" d="M1527.951,513.66c10.935,5.239,23.823,5.875,35.722,4.878q5.06-.424,10.061-1.334a.1.1,0,0,0-.035-.2c-11.9,2.162-24.586,2.61-36.4-.274a47.475,47.475,0,0,1-9.273-3.261c-.118-.057-.188.135-.071.191" transform="translate(-1493.164 -444.39)" fill="#ffac47"/>
              <path id="Trazado_874471" data-name="Trazado 874471" d="M1727.669,175.517c-6.276,9.418-9.082,20.938-9.248,32.167,0,.13.2.15.2.02.166-11.2,2.954-22.679,9.212-32.07.073-.109-.094-.226-.166-.117" transform="translate(-1645.867 -173.505)" fill="#ffac47"/>
              <path id="Trazado_874472" data-name="Trazado 874472" d="M1691.738,168.358a73.221,73.221,0,0,0-7.683,19.014c-1.53,6.189-2.545,12.7-.638,18.932.038.124.239.09.2-.035-1.932-6.307-.863-12.929.718-19.185a73.047,73.047,0,0,1,7.569-18.609c.065-.113-.1-.23-.167-.117" transform="translate(-1616.979 -167.765)" fill="#ffac47"/>
              <path id="Trazado_874473" data-name="Trazado 874473" d="M1617.064,413.056a81.523,81.523,0,0,0,49.9,3.314,76.3,76.3,0,0,0,13.43-4.691.1.1,0,0,0-.087-.184,81.331,81.331,0,0,1-49.432,5.5,76.013,76.013,0,0,1-13.741-4.125c-.122-.049-.192.142-.071.191" transform="translate(-1564.583 -362.661)" fill="#ffac47"/>
              <path id="Trazado_874474" data-name="Trazado 874474" d="M1645.232,380.424c15.019,5.1,31.625,4.77,46.836.659a88.877,88.877,0,0,0,12.479-4.393c.12-.053.033-.237-.087-.184a86.965,86.965,0,0,1-46.24,6.76,69.525,69.525,0,0,1-12.917-3.033c-.124-.042-.195.149-.071.191" transform="translate(-1587.157 -334.619)" fill="#ffac47"/>
              <path id="Trazado_874475" data-name="Trazado 874475" d="M1862.594,186.043a25.067,25.067,0,0,0-3.6,14.535c.005.13.205.094.2-.035a24.828,24.828,0,0,1,3.563-14.383c.072-.109-.094-.227-.167-.117" transform="translate(-1758.516 -181.941)" fill="#ffac47"/>
              <path id="Trazado_874476" data-name="Trazado 874476" d="M1932.327,229.521a28.451,28.451,0,0,0,20.115,7.653c.129,0,.15-.206.02-.2a28.251,28.251,0,0,1-19.98-7.582c-.094-.088-.251.042-.155.131" transform="translate(-1817.282 -216.694)" fill="#ffac47"/>
              <path id="Trazado_874477" data-name="Trazado 874477" d="M1535.266,293.13c.467,6.235.512,12.49.891,18.729.344,5.665,1.593,11.4,4.963,16.076.077.106.232-.025.155-.131-3.505-4.863-4.661-10.853-4.959-16.732-.3-5.992-.4-11.993-.85-17.977-.01-.13-.21-.095-.2.035" transform="translate(-1499.074 -267.709)" fill="#ffac47"/>
              <path id="Trazado_874478" data-name="Trazado 874478" d="M1489.91,636.139c-12.515,4.343-26.459,4.117-39.432,2.334q-5.342-.734-10.609-1.917c-.128-.029-.146.174-.019.2,12.922,2.893,26.624,4.132,39.77,2.1A59.224,59.224,0,0,0,1490,636.323c.123-.043.036-.227-.087-.184" transform="translate(-1422.533 -542.71)" fill="#ffac47"/>
            </g>
          </g>
        </g>
        <path id="Trazado_874479" data-name="Trazado 874479" d="M1447.277,823.931c-.486,1.963-.834,2.918-.834,2.947a38.043,38.043,0,0,1-3.414,7.758c-.048.084-.1.172-.149.254l0,0c-6.13,10.353-17.467,17.476-35.8,15.512-4.874-.524-8.546,1.45-11.994,4.709,0,0,0,0,0,0-6.172,5.988-10.86,14.367-19.647,21.248-42.459-.048-59.831-.07-73.2-.084-2.722-10.579-12.04-53.628,10.767-73.08,18.749-15.99,30.1-11.735,39.8-15.365h0c4.107-1.469,8.06-4.206,12.293-10.057,13.014-17.977,33.912-15.466,47.687-7.293a40.823,40.823,0,0,1,4.946,3.416c13.192,10.6,50.335-5.315,61.583,14.336s-28.163,20-32.036,35.7" transform="translate(-1040.333 -612.512)" fill="#8ad0ce"/>
        <path id="Trazado_874480" data-name="Trazado 874480" d="M1504.314,888.315q-1.8-.044-3.6-.04a174.628,174.628,0,0,0-24.437,1.89l-.279.04h0c-4.837.708-9.644,1.589-14.408,2.609a225.9,225.9,0,0,0-49.34,16.665q-6.5,3.08-12.75,6.593l-.161.088a0,0,0,0,1,0,0q-3.716,2.094-7.333,4.334c-.082.048-.161.1-.237.145a208.179,208.179,0,0,0-22.9,16.464q-1.257,1.04-2.5,2.094l-.195.166a298.3,298.3,0,0,0-26.617,25.517c-.061.063-.119.126-.18.191l0,0q-2.86,3.109-5.631,6.3-1.578,1.817-3.148,3.67h-1.092c2.326-2.766,4.707-5.472,7.1-8.127q6.934-7.677,14.378-14.9c.069-.069.136-.134.207-.2l0,0a283.929,283.929,0,0,1,21.682-18.974q1.892-1.493,3.825-2.938l0,0c.069-.05.136-.1.2-.153a204.9,204.9,0,0,1,34.224-20.617h0c.08-.042.157-.08.237-.115h0q3.342-1.6,6.742-3.079c.507-.22,1.014-.44,1.521-.656h0c.09-.042.184-.082.277-.117h0a227.076,227.076,0,0,1,36.974-12.117h0c.086-.023.172-.042.26-.063h0q4.841-1.132,9.72-2.05a179.911,179.911,0,0,1,37.466-3.422.407.407,0,0,1-.015.813" transform="translate(-1065.545 -711.271)" fill="#3c5756"/>
        <path id="Trazado_874481" data-name="Trazado 874481" d="M1414.3,922.132c-8.083,18.66-3.319,39.269,1.28,58.15a.125.125,0,0,0,.242-.062c-4.589-18.845-9.349-39.393-1.282-58.017.064-.147-.176-.217-.24-.071" transform="translate(-1130.018 -738.995)" fill="#a8ccfc"/>
        <path id="Trazado_874482" data-name="Trazado 874482" d="M1512.45,1146.821c11.956,8.861,27.337,12.631,41.908,14.2q6.2.669,12.434.737a.125.125,0,0,0,0-.25c-14.842-.168-30.234-2.584-43.8-8.815a58.269,58.269,0,0,1-10.414-6.09c-.129-.1-.258.118-.13.213" transform="translate(-1212.139 -918.95)" fill="#a8ccfc"/>
        <path id="Trazado_874483" data-name="Trazado 874483" d="M1801.705,794.594c-9.757,9.886-15.823,23.114-18.641,36.605-.032.156.207.228.24.071,2.809-13.451,8.845-26.639,18.574-36.5.113-.114-.06-.295-.173-.18" transform="translate(-1429.068 -636.812)" fill="#a8ccfc"/>
        <path id="Trazado_874484" data-name="Trazado 874484" d="M1759.086,777.7A89.857,89.857,0,0,0,1745.4,798.82c-3.286,7.1-6.028,14.714-5.18,22.664.017.158.267.164.25,0-.858-8.05,1.973-15.78,5.336-22.95a89.631,89.631,0,0,1,13.457-20.66c.1-.121-.068-.3-.173-.18" transform="translate(-1394.604 -623.268)" fill="#a8ccfc"/>
        <path id="Trazado_874485" data-name="Trazado 874485" d="M1641.984,1053.044a100.052,100.052,0,0,0,59.357,15.622,93.6,93.6,0,0,0,17.277-2.523.125.125,0,0,0-.062-.242,99.821,99.821,0,0,1-60.845-4.9,93.325,93.325,0,0,1-15.6-8.173c-.135-.088-.264.126-.13.213" transform="translate(-1315.953 -843.793)" fill="#a8ccfc"/>
        <path id="Trazado_874486" data-name="Trazado 874486" d="M1681.31,1031.761c16.908,9.646,37,13.118,56.283,11.709a109.051,109.051,0,0,0,16.061-2.385c.157-.035.1-.277-.062-.242a106.734,106.734,0,0,1-57.295-2.631,85.334,85.334,0,0,1-14.858-6.665c-.14-.08-.27.133-.13.213" transform="translate(-1347.469 -826.739)" fill="#a8ccfc"/>
        <path id="Trazado_874487" data-name="Trazado 874487" d="M1978.542,833.427c-4.3,4.416-6.8,10.65-7.722,16.676-.024.158.226.161.25,0,.91-5.961,3.394-12.136,7.646-16.5.112-.115-.061-.3-.173-.18" transform="translate(-1579.549 -667.935)" fill="#a8ccfc"/>
        <path id="Trazado_874488" data-name="Trazado 874488" d="M2065.947,898.695A34.916,34.916,0,0,0,2088.4,912.6c.157.026.229-.213.071-.24a34.673,34.673,0,0,1-22.308-13.792c-.093-.128-.312-.008-.218.122" transform="translate(-1655.773 -720.133)" fill="#a8ccfc"/>
        <path id="Trazado_874489" data-name="Trazado 874489" d="M1557.419,882.807c-.891,7.622-2.294,15.169-3.292,22.776-.906,6.907-.737,14.111,2.234,20.529.068.146.285.023.218-.122-3.091-6.676-3.088-14.164-2.077-21.318,1.031-7.291,2.311-14.545,3.166-21.861.019-.159-.231-.163-.25,0" transform="translate(-1245.197 -707.448)" fill="#a8ccfc"/>
        <path id="Trazado_874490" data-name="Trazado 874490" d="M1389.619,1281.2a143.645,143.645,0,0,0,21.38,5.616l-1.251,0a146.414,146.414,0,0,1-32.2-10.013l-.331-.145c-.147-.063-.077-.3.071-.239s.293.128.442.191q5.85,2.534,11.893,4.592" transform="translate(-1103.727 -1023.002)" fill="#a8ccfc"/>
        <path id="Trazado_874491" data-name="Trazado 874491" d="M446.316,972.078l-5.254-.005h0l-1.036,0-15.38-.016h-.638L372.331,972a120.545,120.545,0,0,0-8.684-8.6c-.067-.058-.135-.111-.2-.165l0,0c-3.241-2.588-6.583-4.039-10.791-3.228-15.832,3.046-26.231-2.334-32.325-10.907-.051-.071-.1-.14-.151-.213v0a34.32,34.32,0,0,1-3.539-6.509c-.031-.071-.06-.144-.089-.216v0c-.307-.753-.589-1.514-.851-2.286-4.518-13.392-38.877-10.827-30.511-28.766s41.887-6.779,52.607-16.976a36.734,36.734,0,0,1,3.877-3.2c.06-.044.12-.089.182-.133h0c11.4-8.125,29.43-11.832,42.076,2.881,4.115,4.789,7.759,6.887,11.445,7.866.076.022.151.042.227.06,9.028,2.292,18.368-1.923,35.568,10.429,19.56,14.044,16.939,47.422,15.146,60.05" transform="translate(-227.521 -708.23)" fill="#8ad0ce"/>
        <path id="Trazado_874492" data-name="Trazado 874492" d="M445.937,1081.551l-1.036,0q-2.593-2.519-5.258-4.971l0,0-.169-.154a261.363,261.363,0,0,0-25.048-20.291c-.06-.042-.122-.087-.182-.131-.778-.551-1.554-1.1-2.336-1.639a181.816,181.816,0,0,0-21.151-12.676c-.069-.038-.142-.074-.216-.109q-3.312-1.69-6.705-3.243l-.149-.065s0,0,0,0q-5.7-2.607-11.587-4.817a197.56,197.56,0,0,0-44.2-10.925c-4.226-.542-8.477-.958-12.743-1.223h0c-.082-.005-.164-.011-.245-.015a152.436,152.436,0,0,0-21.427.135q-1.57.125-3.135.3a.356.356,0,0,1-.073-.707,157.158,157.158,0,0,1,32.89.253q4.316.445,8.615,1.078h0c.078.011.154.022.231.035h0a198.457,198.457,0,0,1,33.094,7.863h0l.251.082c.458.153.918.307,1.374.462q3.07,1.044,6.1,2.19h0l.216.084h0a179.211,179.211,0,0,1,31.318,15.471,0,0,0,0,1,0,0l.189.116q1.789,1.118,3.548,2.281a248.483,248.483,0,0,1,20.271,14.955c.067.053.131.105.2.16q7.009,5.739,13.612,11.936,1.881,1.764,3.75,3.573" transform="translate(-232.398 -817.708)" fill="#3c5756"/>
        <path id="Trazado_874493" data-name="Trazado 874493" d="M971.164,997.416c8.4,15.668,5.751,33.97,3.121,50.754a.109.109,0,0,1-.215-.036c2.626-16.752,5.276-35-3.109-50.638-.066-.124.138-.2.2-.079" transform="translate(-778.184 -799.347)" fill="#b3d6f9"/>
        <path id="Trazado_874494" data-name="Trazado 874494" d="M730.91,1199.031c-9.771,8.591-22.9,13-35.477,15.427q-5.349,1.034-10.779,1.548a.109.109,0,0,1-.022-.217c12.918-1.228,26.152-4.453,37.519-10.87a50.947,50.947,0,0,0,8.629-6.064c.106-.093.234.084.129.176" transform="translate(-548.636 -960.822)" fill="#b3d6f9"/>
        <path id="Trazado_874495" data-name="Trazado 874495" d="M574.3,918.7c9.221,7.9,15.469,18.985,18.906,30.534.04.134-.163.214-.2.079-3.427-11.515-9.646-22.564-18.84-30.443-.107-.092.031-.261.138-.17" transform="translate(-460.143 -736.29)" fill="#b3d6f9"/>
        <path id="Trazado_874496" data-name="Trazado 874496" d="M608.875,900.992a78.546,78.546,0,0,1,13.465,17.4c3.38,5.947,6.323,12.38,6.164,19.367,0,.139-.22.163-.217.022.161-7.076-2.868-13.6-6.32-19.606a78.352,78.352,0,0,0-13.229-17.019c-.1-.1.037-.268.138-.169" transform="translate(-487.856 -722.092)" fill="#b3d6f9"/>
        <path id="Trazado_874497" data-name="Trazado 874497" d="M532.389,1126.767a87.474,87.474,0,0,1-50.574,17.933,81.867,81.867,0,0,1-15.236-.94.109.109,0,0,1,.036-.215,87.267,87.267,0,0,0,52.652-8.7,81.593,81.593,0,0,0,12.992-8.256c.111-.087.24.09.129.176" transform="translate(-373.878 -902.907)" fill="#b3d6f9"/>
        <path id="Trazado_874498" data-name="Trazado 874498" d="M510.538,1111.091c-14.028,9.635-31.276,14.123-48.182,14.3a95.317,95.317,0,0,1-14.166-.908.109.109,0,0,1,.036-.215,93.31,93.31,0,0,0,49.724-6.465,74.62,74.62,0,0,0,12.459-6.888c.116-.08.245.1.129.176" transform="translate(-359.139 -890.346)" fill="#b3d6f9"/>
        <path id="Trazado_874499" data-name="Trazado 874499" d="M461.474,962.2c4.068,3.534,6.7,8.783,7.942,13.966.033.136-.185.157-.217.022-1.227-5.127-3.841-10.326-7.863-13.819-.106-.092.032-.261.138-.169" transform="translate(-369.716 -771.154)" fill="#b3d6f9"/>
        <path id="Trazado_874500" data-name="Trazado 874500" d="M342.424,1023.176a30.525,30.525,0,0,1-18.55,13.754c-.135.034-.215-.169-.079-.2a30.312,30.312,0,0,0,18.431-13.641c.072-.119.271-.03.2.091" transform="translate(-259.455 -819.925)" fill="#b3d6f9"/>
        <path id="Trazado_874501" data-name="Trazado 874501" d="M845.694,973.409c1.331,6.576,3.1,13.049,4.526,19.6,1.292,5.951,1.67,12.24-.451,18.048-.048.132-.247.041-.2-.091,2.207-6.042,1.658-12.565.257-18.723-1.429-6.277-3.073-12.5-4.35-18.815-.028-.138.19-.159.217-.022" transform="translate(-677.622 -780.082)" fill="#b3d6f9"/>
        <path id="Trazado_874502" data-name="Trazado 874502" d="M1000.732,1302.3c-.093.051-.187.1-.28.149-3.292,1.768-6.67,3.431-10.122,4.955h-.638l.56-.244q5.112-2.227,10.029-4.868.185-.1.371-.2c.124-.067.2.136.08.2" transform="translate(-793.207 -1043.576)" fill="#b3d6f9"/>
        <path id="Trazado_874503" data-name="Trazado 874503" d="M1050.849,309.588H895.463a6.006,6.006,0,0,1-6.006-6.006V95.91a6.006,6.006,0,0,1,6.006-6.006h155.386a6.006,6.006,0,0,1,6.006,6.006V303.582a6.006,6.006,0,0,1-6.006,6.006" transform="translate(-712.872 -72.054)" fill="#51497a"/>
        <path id="Trazado_874504" data-name="Trazado 874504" d="M1000.767,178.181V362.632h-167.4V142.95H970.483Z" transform="translate(-667.919 -114.569)" fill="#fff"/>
        <path id="Trazado_874505" data-name="Trazado 874505" d="M999.87,361.735H831.881V141.462H969.426l.088.1,30.355,35.314Zm-167.4-.591H999.279V177.1l-30.124-35.045H832.472Z" transform="translate(-666.727 -113.377)" fill="#bedeff"/>
        <path id="Trazado_874506" data-name="Trazado 874506" d="M1554.3,178.181h-30.284V142.95Z" transform="translate(-1221.447 -114.569)" fill="#bedeff"/>
        <path id="Trazado_874507" data-name="Trazado 874507" d="M1375.427,743.56h-40.545a6.054,6.054,0,0,1-6.054-6.054V701.3a6.054,6.054,0,0,1,6.054-6.054h40.545a6.054,6.054,0,0,1,6.054,6.054v36.209a6.054,6.054,0,0,1-6.054,6.054" transform="translate(-1065.014 -557.215)" fill="#ff6576"/>
        <path id="Trazado_874508" data-name="Trazado 874508" d="M1380.712,769.586l-19.05-18.36,5.588-5.8,12.438,11.988,13.736-18.6,6.478,4.783Z" transform="translate(-1091.33 -592.135)" fill="#fb4b63"/>
        <path id="Trazado_874509" data-name="Trazado 874509" d="M1393.507,765.691l-19.049-18.36,5.588-5.8,12.438,11.988,13.736-18.6,6.478,4.783Z" transform="translate(-1101.585 -589.013)" fill="#fff"/>
        <path id="Trazado_874510" data-name="Trazado 874510" d="M1003.437,61.939a5.645,5.645,0,0,1-4.668-2.45L982.046,35.05a9.392,9.392,0,0,1,2.507-13.095,8.149,8.149,0,0,1,11.31,2.21l21.725,32.274a1.475,1.475,0,1,1-2.447,1.647L993.415,25.812A5.2,5.2,0,0,0,986.2,24.4a6.442,6.442,0,0,0-1.719,8.981L1001.2,57.823a2.69,2.69,0,0,0,4.458-3.012L994,37.33a1.475,1.475,0,1,1,2.455-1.637l11.661,17.482a5.633,5.633,0,0,1-4.679,8.765" transform="translate(-785.762 -16.48)" fill="#ff6576"/>
        <path id="Trazado_874511" data-name="Trazado 874511" d="M1109.14,142.949h-10.8l13.282,19.34,4.749-4.68Z" transform="translate(-880.281 -114.569)" fill="#fff"/>
        <path id="Trazado_874512" data-name="Trazado 874512" d="M1069.217,89.9h6.882l6.056,10.531H1075Z" transform="translate(-856.944 -72.055)" fill="#51497a"/>
        <path id="Trazado_874513" data-name="Trazado 874513" d="M1890.54,891.338c-.3,2.7-2.908,2.432-4.139,3.579-.421.393.047,1.811-.309,1.359-1.676-2.133-7.479-7.4-13.813-13.35l-.287-.269c-9.12-8.577-19.221-18.5-19.651-22.516-.807-7.536,3.58-46.222,4.579-48.064s11.579-4.72,11.579-4.72,13.109,21.358,6.01,27.077c-2.77,2.23-5.007,5.789-6.707,9.3a61.714,61.714,0,0,0-3.008,7.534c-.657,2-.986,3.319-.986,3.319a33.449,33.449,0,0,1,5.948,4.34h0c.373.346.745.708,1.1,1.085a14.681,14.681,0,0,1,3.646,5.8c1.875,6.427,16.031,25.527,16.031,25.527" transform="translate(-1484.515 -647.071)" fill="#fabba5"/>
        <path id="Trazado_874514" data-name="Trazado 874514" d="M1994.583,1175.135s.131,8.936-1.261,11.237l-2.582-2.486,3.292-9.688Z" transform="translate(-1595.516 -941.082)" fill="#ed938b"/>
        <path id="Trazado_874515" data-name="Trazado 874515" d="M1930.387,1083.875l-.287-.269-2.677-2.534c2.6-7.212-2.678-22.989-2.678-22.989l3.121,1.789c.373.346.745.708,1.1,1.085Z" transform="translate(-1542.623 -848.02)" fill="#ed938b"/>
        <path id="Trazado_874516" data-name="Trazado 874516" d="M1919.155,887.261c4.264,19.552,5.28,48.707,5.28,48.707s3.911,1.389,7.181-.32c0,0,3.587-19.406,4.5-25.081s-1.1-11.351-1.831-13.914c-.595-2.082,5.121-22.106,3.762-39.922-.6-7.9-29.116-16.339-18.894,30.53" transform="translate(-1536.372 -681.692)" fill="#fabba5"/>
        <path id="Trazado_874517" data-name="Trazado 874517" d="M1882.431,864.226s-9.823,1.744-17.136-.6c-11.341-3.638-16.144-1.919-16.144-1.919-.657-3.649,1.08-19.061,2.7-31.759a.247.247,0,0,1,.005-.032c.766-5.988,1.5-11.368,1.958-14.625.276-1.995.444-3.194.444-3.248.012,0,20.437-.123,22.11,1.489.012.01.731.787.741.8,3.1,3,5.933,6.811,6.486,11.535,1.4,11.949.407,30.825-1.169,38.365" transform="translate(-1481.923 -650.822)" fill="#ff6576"/>
        <path id="Trazado_874518" data-name="Trazado 874518" d="M1880.592,829.979c-14.351.739-17.085,12.36-17.219,13.059.766-5.988,1.5-11.368,1.958-14.625Z" transform="translate(-1493.435 -663.946)" fill="#f64660"/>
        <path id="Trazado_874519" data-name="Trazado 874519" d="M1978.589,868.331s-.385-11.588-4.03-13.107-4.848,1.215-3.031,4.177,5.544,12.087,7.061,8.93" transform="translate(-1579.448 -685.087)" fill="#ff8091"/>
        <path id="Trazado_874520" data-name="Trazado 874520" d="M1972.051,1312.363v3.027h3.448l.785-3.3Z" transform="translate(-1580.537 -1051.596)" fill="#29274f"/>
        <path id="Trazado_874521" data-name="Trazado 874521" d="M1921.775,1270.628s-.5,4.075-3.075,5.581c-2.076,1.215-3.62,2.325-3.62,2.325-.236.537-2.549,2.705-1.985,2.705l8.124.551s2.03-2.553,3.859-2.279,4.478-2.016,3.765-3.653a7.008,7.008,0,0,1-.384-3.534Z" transform="translate(-1533.215 -1018.368)" fill="#fabba5"/>
        <path id="Trazado_874522" data-name="Trazado 874522" d="M1907.017,1299.647s-4.865,2.75-3.958,3.628h9.947a1.273,1.273,0,0,0,1.031-.527,4.225,4.225,0,0,1,3.567-1.866c4.025.092,3.878-.882,3.177-3.911a46.092,46.092,0,0,1-7.808,3.152c-5.679,1.307-5.955-.476-5.955-.476" transform="translate(-1525.152 -1039.481)" fill="#51497a"/>
        <path id="Trazado_874523" data-name="Trazado 874523" d="M2059.092,1253.176l2.305,1.962,2.235-2.626-2.006-2.739Z" transform="translate(-1650.298 -1001.654)" fill="#29274f"/>
        <path id="Trazado_874524" data-name="Trazado 874524" d="M2015.691,1233.744s3,3.636,2.481,6.573c-.42,2.368-.576,4.264-.576,4.264.257.527.408,3.695.773,3.265l5.685-5.829s-.628-3.2.766-4.416,1.367-4.717-.342-5.235a7,7,0,0,1-2.94-2Z" transform="translate(-1615.513 -986.1)" fill="#fabba5"/>
        <path id="Trazado_874525" data-name="Trazado 874525" d="M2023.6,1252.649s-1.059,5.487.2,5.366l6.447-7.575a1.271,1.271,0,0,0,.267-1.126,4.226,4.226,0,0,1,.89-3.926c2.679-3.005,1.842-3.525-.919-4.954a46.119,46.119,0,0,1-2.66,7.99c-2.686,5.172-4.222,4.226-4.222,4.226" transform="translate(-1621.521 -994.167)" fill="#51497a"/>
        <path id="Trazado_874526" data-name="Trazado 874526" d="M1783.843,573.52s-1.379-3.639-2.505-4.382c-5.105-3.368-4.893-3.161-5.241-4.3-.826-2.694.286-5.667.663-5.718.343-.046.244,1.5.143,1.955-.194.88.973,2.275.973,2.275a13.529,13.529,0,0,1,.18-2.594,10.073,10.073,0,0,1,1.184-2.6c.61.055.146,1.482-.021,2.774a9.219,9.219,0,0,0,.639,2.927,13.81,13.81,0,0,1,.2-2.364c.216-.869,1.371-2.612,1.622-2.558.433.093-.014,1.26-.181,2.474a7.226,7.226,0,0,0,.55,2.679,7.463,7.463,0,0,1,.712-1.643c.393-.575,1.376-1.483,1.5-1.261.223.41-.042.9-.612,1.886a2.624,2.624,0,0,0,.967,2.711,5.467,5.467,0,0,1,2.976,3.169c.575,2.154-3.745,4.565-3.745,4.565" transform="translate(-1423.247 -447.347)" fill="#fabba5"/>
        <path id="Trazado_874527" data-name="Trazado 874527" d="M1803.6,623.3s-1.66-2.582-6.75-.68c-1.562.584-5.276,5.147-7.191,7.583a50.705,50.705,0,0,1-4.075,5.326c-.442.4-.907.8-1.377,1.213.592-4.189.867-7.815,1.245-10.328.473-3.145,1.191-5.987.328-8.033-.168-.4-1.6-.038-2.869-.078-1.09-.034-2.027-.5-2.278-.311-2.206,1.636-3.545,9.363-5.454,15.277-2.358,7.305-1.045,11.976.474,14.391.851,1.353,12.2,3.418,22.331-3.6S1803.6,623.3,1803.6,623.3" transform="translate(-1421.719 -495.268)" fill="#75acf2"/>
        <path id="Trazado_874528" data-name="Trazado 874528" d="M1820.57,710.365c-.14.991.187,1.97.023,2.975a5.756,5.756,0,0,1-1.266,2.755c-.048.058.04.136.088.078a5.9,5.9,0,0,0,1.24-2.532,5.689,5.689,0,0,0,.123-1.415,10.139,10.139,0,0,1-.094-1.837c.01-.075-.1-.1-.115-.024" transform="translate(-1458.123 -569.298)" fill="#4b83db"/>
        <path id="Trazado_874529" data-name="Trazado 874529" d="M1915.559,581.377l-2.539,11.406L1929,618.921a13.22,13.22,0,0,1,12.117-.906,7.027,7.027,0,0,0,5.861-.638c2.652-6.039-.028-10.317-.028-10.317a13.455,13.455,0,0,1,1.489,9.6,13.926,13.926,0,0,0,3.021-1.89c2.1-6.712-1.3-21.159-14.057-25.056s-11.073-12.948-11.073-12.948Z" transform="translate(-1533.226 -462.258)" fill="#6d2f3b"/>
        <path id="Trazado_874530" data-name="Trazado 874530" d="M1891.978,653.819c-.263-11.12,3.268-25.864.433-27s-4.315-1.027-6.792-1.95c-3.06-1.141-3.268-1.515-8.261.953s-4.323,2.479-4.323,2.479-3.332,11.915-3.464,14.8c-.2,4.446,2.246,5.46,2.246,5.46s3.769,7.287,4.506,10.567a31.463,31.463,0,0,1-.131,4.818l20.546-3.69s-4.689-3.4-4.761-6.445" transform="translate(-1498.393 -500.105)" fill="#fabba5"/>
        <path id="Trazado_874531" data-name="Trazado 874531" d="M1891.942,647.711s-1.921,10.482-2.112,12.121a1.146,1.146,0,0,0,.128.607c.805,1.749,4.969,4.524,4.145,6.139-.242.474-1.758.953-3.865,1.4l0,0h-.009l-.035.008c-.355.075-.728.149-1.114.221l-.3.057c-6.1,1.13-15.223,2-15.223,2a.009.009,0,0,1,0,0,7.515,7.515,0,0,0,.205-1.3,10.917,10.917,0,0,0-1.214-5.9v0a59.419,59.419,0,0,1-3.365-8.171l0,0-.005,0a4.124,4.124,0,0,1-1.553-.939c-.986-.934-1.909-2.708-.944-5.934,1.028-3.435,1.557-10.738,3.459-13.721.343-.538,4.615-2.2,4.615-2.2s-3.56,12.189-2.022,13.9c1.515,1.681,6.562-4.538,9.254-9.436a28.081,28.081,0,0,1,3.505-4.684,32.8,32.8,0,0,1,5.257,1.39c1.2.415,3.36,2.866,1.2,14.454" transform="translate(-1495.758 -506.42)" fill="#75acf2"/>
        <path id="Trazado_874532" data-name="Trazado 874532" d="M1945.827,771.331a.76.76,0,0,1-.178.387c-.9,1.034-3.181,5.046-12.163,5.847-7.816.7-10.371,2.126-10.371,2.126l-4.851-5.559s1.931,2.537,13.056-3.375a55.165,55.165,0,0,0,5.35-3.065s10.707-6.811,9.158,3.64" transform="translate(-1537.428 -613.531)" fill="#fabba5"/>
        <path id="Trazado_874533" data-name="Trazado 874533" d="M1986.614,704.62s-4.837-10.885-8.315-12.97,4.5-5.578,7.906-4.555,9.725,14.806,6.844,22.546Z" transform="translate(-1584.856 -550.536)" fill="#fabba5"/>
        <path id="Trazado_874534" data-name="Trazado 874534" d="M1899.745,516.313a5.078,5.078,0,0,1,2.238-5.377c3.156-2.3,5.02-2.7,7.852-1.638s6.543,1.714,8,4.347c2.259,4.079,1.219,9.66-2.691,13.3s-7.167.974-9.17,1.484-6.229-12.11-6.229-12.11" transform="translate(-1522.487 -407.736)" fill="#6d2f3b"/>
        <path id="Trazado_874535" data-name="Trazado 874535" d="M1919.224,596.341a8.075,8.075,0,0,1-7.847,1.383,27.387,27.387,0,0,0,.243-4.553,35.589,35.589,0,0,0-.289-4.472,3.4,3.4,0,0,1,.3-.335h0c1.805-1.761,6.438-3.275,6.483-3.29a7.521,7.521,0,0,0-.829,2.893,8.81,8.81,0,0,0,.14,2.579,31.618,31.618,0,0,0,1.793,5.794" transform="translate(-1531.871 -468.918)" fill="#fabba5"/>
        <path id="Trazado_874536" data-name="Trazado 874536" d="M1917.062,600.3c-1.542,2.356-5.61,2.816-5.677,2.843a19.188,19.188,0,0,0-.252-3.273,1.416,1.416,0,0,0-.049-.168c.113-.061.231-.115.354-.166h0c1.842-.763,4.662-.495,5.654-.4a8.631,8.631,0,0,0-.031,1.162" transform="translate(-1531.674 -480.086)" fill="#e58f78"/>
        <path id="Trazado_874537" data-name="Trazado 874537" d="M1895.458,541.387c-4.765,1.493-8.322-.03-9.1-.621s-.511-1.393-1.024-3.929a6.313,6.313,0,0,1,.42-4.129,3.378,3.378,0,0,1,.758-1.01,3.021,3.021,0,0,0,.22-.21c.584-.618.31-.984.719-2.28a3.01,3.01,0,0,1,.66-1c.143-.158.3-.319.471-.479a24.277,24.277,0,0,1,3.059-2.334c7.651-1.991,10.414,4.639,9.983,7.128s-1.4,7.376-6.162,8.869" transform="translate(-1510.907 -420.789)" fill="#fabba5"/>
        <path id="Trazado_874538" data-name="Trazado 874538" d="M1923.636,549.9s-.091-1.845-3.348-2.112c-1.937-.158-1.959.767-.9.994s1.7-.635,4.248,1.118" transform="translate(-1537.768 -439.017)" fill="#752d4b"/>
        <path id="Trazado_874539" data-name="Trazado 874539" d="M1900.758,540.232c-.368-.222-.561-.825-.8-1.12.143-.158.3-.319.472-.479a1.263,1.263,0,0,1,.4.265c.963.911.549,1.706-.065,1.333" transform="translate(-1522.754 -431.697)" fill="#752d4b"/>
        <path id="Trazado_874540" data-name="Trazado 874540" d="M1895.957,550.511c-.146.47-.327-1.14-.743-1.4-.381-.24-.99-.164-1.289-.49a.106.106,0,0,1,.121-.169,1.932,1.932,0,0,0,.764.149,1.34,1.34,0,0,1,1.147,1.911" transform="translate(-1517.899 -439.558)" fill="#752d4b"/>
        <path id="Trazado_874541" data-name="Trazado 874541" d="M1897.6,551.241a.7.7,0,0,1-.559-.1.938.938,0,0,1-.294-.508.542.542,0,0,1,.211-.615l.254-.141.463.29.173.213.01.274.122.324a.5.5,0,0,1-.381.262" transform="translate(-1520.166 -440.709)" fill="#752d4b"/>
        <path id="Trazado_874542" data-name="Trazado 874542" d="M1917.805,555.95s.705-1.084,1.4-1.257a3.553,3.553,0,0,1,2.666.963,2.385,2.385,0,0,1,.078,1.136,3.276,3.276,0,0,0-4.146-.841" transform="translate(-1537.061 -444.545)" fill="#ef9f8a"/>
        <path id="Trazado_874543" data-name="Trazado 874543" d="M1921.856,559.571a.783.783,0,1,1-1.467-.552.785.785,0,0,1,.579-.492c.278.1.547.211.8.32a.785.785,0,0,1,.091.724" transform="translate(-1539.092 -447.641)" fill="#752d4b"/>
        <path id="Trazado_874544" data-name="Trazado 874544" d="M1920.639,559.519c-.181.3-.688-.091-.979-.28-.07-.046-.14-.095-.207-.145a6.728,6.728,0,0,0-.643-.455,2.23,2.23,0,0,0-.632-.243,2.392,2.392,0,0,0-1.929.4,2.813,2.813,0,0,1,2.7-.856c1.16.3,1.825,1.364,1.694,1.578" transform="translate(-1535.813 -447.104)" fill="#752d4b"/>
        <g id="Grupo_1099710" data-name="Grupo 1099710" transform="translate(380.229 113.505)" opacity="0.2">
          <g id="Grupo_1099709" data-name="Grupo 1099709">
            <g id="Grupo_1099708" data-name="Grupo 1099708" clip-path="url(#clip-path-5)">
              <path id="Trazado_874545" data-name="Trazado 874545" d="M1920.43,572.781a2.312,2.312,0,0,0-1.686-.931l-1.114-.089a3.609,3.609,0,0,0-2.061.221.73.73,0,0,0-.335.387c-.132.4.22.707.573.944a6.528,6.528,0,0,0,3.245,1.079,4.461,4.461,0,0,0,.54-.006.991.991,0,0,0,.839-1.606" transform="translate(-1915.206 -571.719)" fill="#ed4c62"/>
            </g>
          </g>
        </g>
        <g id="Grupo_1099713" data-name="Grupo 1099713" transform="translate(374.843 110.699)" opacity="0.2">
          <g id="Grupo_1099712" data-name="Grupo 1099712">
            <g id="Grupo_1099711" data-name="Grupo 1099711" clip-path="url(#clip-path-6)">
              <path id="Trazado_874546" data-name="Trazado 874546" d="M1889.863,559.156a.468.468,0,0,1-.479.307,1.552,1.552,0,0,1-1.221-.554c-.028-.032-.054-.066-.08-.1a3.381,3.381,0,0,1,.758-1.01c.085-.074.157-.143.22-.21a.591.591,0,0,1,.071.064l.32.342a1.371,1.371,0,0,1,.459.839.728.728,0,0,1-.048.325" transform="translate(-1888.083 -557.586)" fill="#ed4c62"/>
            </g>
          </g>
        </g>
        <path id="Trazado_874547" data-name="Trazado 874547" d="M1898.09,548.939a1.6,1.6,0,0,1,.187,1.787,4.026,4.026,0,0,1-1.708,1.551c-.306.184-.728.44-.633.862.107.472.748.873,1.12,1.107.08.051.167-.069.087-.119a3.084,3.084,0,0,1-.909-.755c-.428-.635.314-.9.717-1.154a4.383,4.383,0,0,0,1.214-1.031,1.84,1.84,0,0,0,.04-2.34c-.064-.07-.179.023-.115.093" transform="translate(-1519.522 -439.863)" fill="#e58f78"/>
        <g id="Grupo_1099716" data-name="Grupo 1099716" transform="translate(375.544 118.139)" opacity="0.2">
          <g id="Grupo_1099715" data-name="Grupo 1099715">
            <g id="Grupo_1099714" data-name="Grupo 1099714" clip-path="url(#clip-path-7)">
              <path id="Trazado_874548" data-name="Trazado 874548" d="M1891.721,595.079a2.565,2.565,0,0,1,1.646.366.148.148,0,0,1-.157.25,2.23,2.23,0,0,0-1.423-.328c-.187.02-.255-.268-.066-.288" transform="translate(-1891.609 -595.063)" fill="#ff6576"/>
            </g>
          </g>
        </g>
        <g id="Grupo_1099719" data-name="Grupo 1099719" transform="translate(376.804 113.147)" opacity="0.2">
          <g id="Grupo_1099718" data-name="Grupo 1099718">
            <g id="Grupo_1099717" data-name="Grupo 1099717" clip-path="url(#clip-path-8)">
              <path id="Trazado_874549" data-name="Trazado 874549" d="M1898.185,569.936a3.986,3.986,0,0,1,1.031.831c.126.142-.087.346-.214.2a3.737,3.737,0,0,0-.969-.781c-.166-.093-.013-.346.152-.253" transform="translate(-1897.961 -569.916)" fill="#ff6576"/>
            </g>
          </g>
        </g>
        <path id="Trazado_874550" data-name="Trazado 874550" d="M1933.941,521.969a3.708,3.708,0,0,1,2.552,3.093c.339,2.506,1.65,6.157,2.122,6.622s-1.4,2.815-1.4,2.815a2.971,2.971,0,0,1-1.836,2.881s2.935.088,4.494-1.331,2.335-8.385,1.489-11.041-4.337-4.626-5.452-4.594-1.97,1.555-1.97,1.555" transform="translate(-1549.993 -417.094)" fill="#6d2f3b"/>
        <path id="Trazado_874551" data-name="Trazado 874551" d="M1944.256,571.054s2.2-1.612,3.136-.154-1.07,2.745-1.831,3.242c-.815.532-1.128.421-1.988-.173s.682-2.915.682-2.915" transform="translate(-1557.505 -457.069)" fill="#fabba5"/>
        <path id="Trazado_874552" data-name="Trazado 874552" d="M1944.8,573.752c.206.9,1.214.706,1.787.345a6.684,6.684,0,0,0,1.28-1.061c.518-.556,1.049-1.456.441-2.156a1.424,1.424,0,0,0-1.725-.235c-.089.042-.163-.092-.073-.134a1.587,1.587,0,0,1,1.851.206,1.556,1.556,0,0,1-.085,2.069,4.99,4.99,0,0,1-2.112,1.7,1.1,1.1,0,0,1-1.512-.693.077.077,0,0,1,.149-.037" transform="translate(-1558.573 -457.085)" fill="#e58f78"/>
        <path id="Trazado_874553" data-name="Trazado 874553" d="M1949.772,574a.975.975,0,0,0-.66.218,1.336,1.336,0,0,0-.183.685,1.351,1.351,0,0,1-.079.182c-.23.344-1.144.306-1.106.845.007.1-.146.1-.153,0a.536.536,0,0,1,.266-.525c.422-.284.773-.091.926-.754a.91.91,0,0,1,.991-.8c.1,0,.1.148,0,.153" transform="translate(-1560.932 -459.918)" fill="#e58f78"/>
        <path id="Trazado_874554" data-name="Trazado 874554" d="M1910.287,519.2a6.178,6.178,0,0,0-4.869.931,4.291,4.291,0,0,0-.667.482c-1.5,1.469,2.415-5.869,7.507-2.969s-1.97,1.555-1.97,1.555" transform="translate(-1526.339 -414.33)" fill="#6d2f3b"/>
        <path id="Trazado_874555" data-name="Trazado 874555" d="M1960.626,631.872s5.8.964,8.342,2.388,4.535,6.236,7.442,10.668,6.9,15.042,3.812,22.064-16.912,6.053-18.753,3.974c0,0,.406-3.281-1.45-5.238l4.2-13.053Z" transform="translate(-1570.893 -506.425)" fill="#75acf2"/>
        <path id="Trazado_874556" data-name="Trazado 874556" d="M1961.138,778.164c-.028-2.611,2.845-3.416,4.847-4.037,2.607-.809,5.141-2.7,8-2.057.1.021.078.173-.019.152-2.638-.59-4.951,1.023-7.333,1.855-2.024.707-5.369,1.274-5.339,4.065,0,.1-.151.121-.151.022" transform="translate(-1571.791 -618.685)" fill="#4b83db"/>
        <path id="Trazado_874557" data-name="Trazado 874557" d="M2008.032,764.354a13.744,13.744,0,0,1,2.1-2.383c.073-.066.167.055.094.121a13.55,13.55,0,0,0-2.076,2.355c-.056.081-.178-.012-.122-.093" transform="translate(-1609.363 -610.68)" fill="#4b83db"/>
        <path id="Trazado_874558" data-name="Trazado 874558" d="M1992.567,733.54a5.063,5.063,0,0,0-.882-2.59c-.431-.793-.832-1.6-1.2-2.428a32.617,32.617,0,0,1-1.711-4.956c-.025-.1.127-.117.152-.022a32.185,32.185,0,0,0,1.97,5.513c.385.827.832,1.618,1.246,2.43a4.106,4.106,0,0,1,.573,2.072c0,.1-.157.079-.152-.019" transform="translate(-1593.941 -579.848)" fill="#4b83db"/>
        <path id="Trazado_874559" data-name="Trazado 874559" d="M1920.548,742.979a6.943,6.943,0,0,1-6.766,1.347c-.093-.031-.034-.173.058-.141a6.789,6.789,0,0,0,6.613-1.326c.074-.065.168.056.094.121" transform="translate(-1533.799 -595.362)" fill="#4b83db"/>
        <path id="Trazado_874560" data-name="Trazado 874560" d="M2003.3,621.81a18.6,18.6,0,0,0-4-17.711,18.212,18.212,0,0,0-7.742-5.071c-1.753-.579-3.571-.941-5.289-1.626a17.907,17.907,0,0,1-4.309-2.423c-2.272-1.755-4.143-4.245-4.262-7.206,0-.1.149-.1.153,0,.124,3.089,2.2,5.663,4.624,7.4a18.42,18.42,0,0,0,4.937,2.483c1.715.566,3.5.919,5.18,1.584a18.7,18.7,0,0,1,11.063,12.583,18.973,18.973,0,0,1-.2,10.03.076.076,0,0,1-.147-.041" transform="translate(-1585.061 -471.022)" fill="#6d2f3b"/>
        <path id="Trazado_874561" data-name="Trazado 874561" d="M1974.41,596.465c-1.122,2.822,1.368,5.737,3.18,7.626a90.575,90.575,0,0,0,7.105,6.134c4.348,3.683,8.027,8.431,8.593,14.286a14.428,14.428,0,0,1-2.061,9.112c-.053.083-.184,0-.131-.079,3.336-5.258,2.4-11.928-.83-16.987a29.373,29.373,0,0,0-6.186-6.65,67.388,67.388,0,0,1-7.045-6.186c-1.7-1.868-3.838-4.62-2.773-7.3.036-.091.184-.05.147.041" transform="translate(-1582.081 -477.973)" fill="#964d5f"/>
        <path id="Trazado_874562" data-name="Trazado 874562" d="M1970.731,597.714c-2.731,2.383-.24,6.191,1.463,8.333a75.042,75.042,0,0,0,6.281,6.5c3.514,3.467,7.109,7.744,7.234,12.941a10.807,10.807,0,0,1-3.478,8.122c-.072.067-.178-.044-.105-.111a10.656,10.656,0,0,0,3.425-8.2,14.565,14.565,0,0,0-2.6-7.284c-3.212-4.9-8.293-8.174-11.674-12.941-1.481-2.088-3.041-5.4-.652-7.479.074-.065.18.046.105.111" transform="translate(-1578.406 -478.944)" fill="#964d5f"/>
        <path id="Trazado_874563" data-name="Trazado 874563" d="M1936.484,525.432c4.7,1.491,4.047,8.226,8.548,9.95.091.035.051.183-.041.147-4.522-1.732-3.878-8.47-8.548-9.95-.094-.03-.053-.177.041-.148" transform="translate(-1551.955 -421.113)" fill="#964d5f"/>
        <path id="Trazado_874564" data-name="Trazado 874564" d="M1936.774,525.106c2.387-.305,3.841,1.919,4.876,3.71a9.759,9.759,0,0,0,2.731,3.284,7.8,7.8,0,0,0,4.077,1.4c.1.005.1.158,0,.153a7.914,7.914,0,0,1-5.909-3.133c-1.461-1.966-2.635-5.665-5.735-5.268-.1.013-.134-.136-.037-.148" transform="translate(-1552.218 -420.832)" fill="#964d5f"/>
        <g id="Grupo_1099722" data-name="Grupo 1099722" transform="translate(391.309 146.84)" opacity="0.5">
          <g id="Grupo_1099721" data-name="Grupo 1099721">
            <g id="Grupo_1099720" data-name="Grupo 1099720" clip-path="url(#clip-path-9)">
              <path id="Trazado_874565" data-name="Trazado 874565" d="M1975.652,739.855c-.552-1.365,1.509,3.765-.357,5.879a23.41,23.41,0,0,1-4.278,3.666s4.383-1.844,7.393-2.911c.774-.274-1.813-4.3-2.758-6.634" transform="translate(-1971.018 -739.627)" fill="#4b83db"/>
            </g>
          </g>
        </g>
        <path id="Trazado_874566" data-name="Trazado 874566" d="M1984.665,647.409a8.634,8.634,0,0,0-3.932,1.674,7.2,7.2,0,0,0-1.814,4.332,13.387,13.387,0,0,0,1.781,8.8l-.131.077-.417-1.355c-.029-.093.112-.154.141-.06l.417,1.355c.023.075-.082.158-.131.077a13.542,13.542,0,0,1-1.749-9.3,6.986,6.986,0,0,1,1.809-4.042,8.8,8.8,0,0,1,4-1.7c.1-.023.117.128.022.151" transform="translate(-1585.81 -518.754)" fill="#4b83db"/>
        <path id="Trazado_874567" data-name="Trazado 874567" d="M1969.719,637.638a13.938,13.938,0,0,0-5.992-3.3c-.094-.025-.076-.177.019-.152a14.1,14.1,0,0,1,6.066,3.331c.071.067-.021.189-.093.122" transform="translate(-1573.816 -508.276)" fill="#4b83db"/>
        <path id="Trazado_874568" data-name="Trazado 874568" d="M1867.713,682.257c-.188,2.348-.95,4.609-1.256,6.941a7.8,7.8,0,0,0,.139,3.483,3.2,3.2,0,0,0,2.8,2.372c.1,0,.079.155-.019.152-2.512-.07-3.292-2.889-3.176-4.95.153-2.718,1.144-5.308,1.361-8.017.008-.1.16-.079.152.019" transform="translate(-1495.693 -546.74)" fill="#4b83db"/>
        <path id="Trazado_874569" data-name="Trazado 874569" d="M1882.745,518.628a5.031,5.031,0,0,0-3.85.091,4.8,4.8,0,0,0-1.542,1.086,12.08,12.08,0,0,1-1.462,1.564,32.126,32.126,0,0,0-3.281,2.142,8.538,8.538,0,0,0-2.331,3.836.077.077,0,0,1-.147-.042,8.712,8.712,0,0,1,2.154-3.692,8.413,8.413,0,0,1,1.7-1.327,12.765,12.765,0,0,0,2.113-1.279c.567-.506.95-1.181,1.532-1.675a5.042,5.042,0,0,1,1.537-.885,5.151,5.151,0,0,1,3.623.034c.091.035.051.183-.041.147" transform="translate(-1498.849 -415.268)" fill="#6d2f3b"/>
        <path id="Trazado_874570" data-name="Trazado 874570" d="M1930.684,524.585a4.272,4.272,0,0,1,2.373,3.141,13.021,13.021,0,0,0,.314,2.361,18.091,18.091,0,0,0,.974,1.857,2.626,2.626,0,0,1,.323,1.525,4.211,4.211,0,0,1-1.031,1.825c-1.02,1.359-.947,3.215-2.066,4.5-.065.074-.17-.037-.105-.111,1.021-1.172.953-2.851,1.792-4.125a5.769,5.769,0,0,0,1.246-2.078,2.908,2.908,0,0,0-.522-1.89,11.251,11.251,0,0,1-.7-1.317,5.572,5.572,0,0,1-.3-1.757,4.286,4.286,0,0,0-2.375-3.8c-.089-.043-.009-.174.079-.131" transform="translate(-1547.289 -420.431)" fill="#6d2f3b"/>
        <path id="Trazado_874571" data-name="Trazado 874571" d="M1991.957,604.12c-5.43,1.142-10.523-2.155-12.964-6.893-.045-.087.089-.161.134-.073,2.409,4.675,7.429,7.945,12.793,6.818.1-.02.134.128.037.149" transform="translate(-1586.093 -478.568)" fill="#6d2f3b"/>
        <path id="Trazado_874572" data-name="Trazado 874572" d="M1923.019,508.835a5.425,5.425,0,0,0-4.6-1.422c-1.776.286-2.584,1.8-3.248,3.3-.04.09-.171.01-.131-.079.717-1.622,1.6-3.16,3.522-3.393a5.578,5.578,0,0,1,4.568,1.491c.068.071-.042.176-.111.105" transform="translate(-1534.839 -406.503)" fill="#6d2f3b"/>
        <path id="Trazado_874573" data-name="Trazado 874573" d="M1807.31,743.983s13.892-.37,16.347-.29c0,0,5.841,17.2,6.113,22.818,0,0-11.958.559-17.839-.037,0,0-4.809-20.5-4.621-22.491" transform="translate(-1448.498 -596.037)" fill="#51497a"/>
        <path id="Trazado_874574" data-name="Trazado 874574" d="M1885.89,803.784s-3.72,1.144-5,.711c-5.792-1.965-5.5-1.925-6.609-1.5-2.634,1-4.3,3.7-4.108,4.032.173.3,1.332-.726,1.631-1.087.576-.693,2.394-.628,2.394-.628a13.509,13.509,0,0,0-1.938,1.734,10.073,10.073,0,0,0-1.326,2.529c.418.448,1.26-.794,2.177-1.719a9.218,9.218,0,0,1,2.7-1.292,13.837,13.837,0,0,0-1.743,1.609c-.553.7-1.221,2.685-1.025,2.85.339.285.986-.784,1.843-1.661a7.223,7.223,0,0,1,2.453-1.21,7.454,7.454,0,0,0-.86,1.57c-.213.663-.327,2-.078,1.955.461-.076.684-.584,1.114-1.64a2.624,2.624,0,0,1,2.734-.9,5.466,5.466,0,0,0,4.329.4c2.053-.868,1.307-5.758,1.307-5.758" transform="translate(-1498.875 -643.384)" fill="#fabba5"/>
        <path id="Trazado_874575" data-name="Trazado 874575" d="M1854.721,735.127s1.988-.268,1.437,2.416l-3.556.2.651-1.806.726-.748Z" transform="translate(-1484.803 -589.175)" fill="#badbf6"/>
        <path id="Trazado_874576" data-name="Trazado 874576" d="M1788.836,735.157a3.967,3.967,0,0,0-1.468,4.808c1.04,3.379-1.636,3.981-1.636,3.981l-15.335,1.422s2.205-2.9,1.25-5.4.367-2.932,2.327-3.167c2.195-.264,14.863-1.641,14.863-1.641" transform="translate(-1418.917 -589.205)" fill="#d8ebff"/>
        <path id="Trazado_874577" data-name="Trazado 874577" d="M1895.349,580.5a2.621,2.621,0,0,1-1.288-.951c-.3-.416-.907-.21-.907-.21v0a.512.512,0,0,0-.368-.308c-.379-.084-1,.367-1.028.386a1.673,1.673,0,0,0,1.219,1.931c.977.208,1.787-.607,2.373-.845" transform="translate(-1516.171 -464.063)" fill="#ff6576"/>
        <path id="Trazado_874578" data-name="Trazado 874578" d="M1895.355,586.036l-.038-.03a2.535,2.535,0,0,1-.691-.187.8.8,0,0,0-.251-.1.194.194,0,0,0-.215.123.245.245,0,0,0,.112.222,1.442,1.442,0,0,0,.785.3.356.356,0,0,0,.3-.066.2.2,0,0,0,0-.26" transform="translate(-1518.106 -469.435)" fill="#ff8a9a"/>
        <path id="Trazado_874579" data-name="Trazado 874579" d="M1891.4,580.63a4.969,4.969,0,0,0,4.155,1.064c.062-.009.036-.1-.026-.095a4.9,4.9,0,0,1-4.059-1.039c-.044-.046-.113.024-.07.07" transform="translate(-1515.885 -465.288)" fill="#f64660"/>
        <path id="Trazado_874580" data-name="Trazado 874580" d="M661.868,1321.423v.86h-4.094l-.471-1.664Z" transform="translate(-526.808 -1058.434)" fill="#29274f"/>
        <path id="Trazado_874581" data-name="Trazado 874581" d="M662.358,1276.618s1.527,4.569,3.848,5.928c1.872,1.1,5.449,1.259,6.4,3.436a.735.735,0,0,1-.645,1.036h-9.6s-3.495-1.014-5.144-.767-1.571-3.919-1.1-5.458a12.218,12.218,0,0,0,.079-4.174Z" transform="translate(-525.62 -1023.169)" fill="#383463"/>
        <path id="Trazado_874582" data-name="Trazado 874582" d="M502.276,1321.423v.86h4.094l.471-1.664Z" transform="translate(-402.558 -1058.434)" fill="#29274f"/>
        <path id="Trazado_874583" data-name="Trazado 874583" d="M452.184,1276.618s-1.527,4.569-3.848,5.928c-1.872,1.1-5.449,1.259-6.4,3.436a.735.735,0,0,0,.645,1.036h9.6s3.495-1.014,5.144-.767,1.571-3.919,1.1-5.458a12.217,12.217,0,0,1-.079-4.174Z" transform="translate(-354.146 -1023.169)" fill="#383463"/>
        <path id="Trazado_874584" data-name="Trazado 874584" d="M522.934,878.413s3.1,11.277,3.424,19.287c.273,6.861-.375,21.65-.28,33.106.137,16.481,1.032,27.911.607,28.434-.745.917-1.47.06-4.535.782-3.326.784-4.811-.839-4.811-.839s-.92-6.257-2.492-16.832c-.564-3.795-1.176-7.9-1.8-12.057-2.067-13.8-3.011-26.435-3.71-27.9,0,0-2.972,11.081-7.155,27.231-4.846,18.71-8.449,29.815-8.857,31.272,0,0-1.5.741-4.305-.468-1.087-.469-3.715-.355-4.558-1.213-1.109-1.128,4.113-23.1,6.037-46.573,1.74-21.24,4.985-30.007,6.563-33.813Z" transform="translate(-388.16 -704.02)" fill="#51497a"/>
        <path id="Trazado_874585" data-name="Trazado 874585" d="M608.657,977.141a9.7,9.7,0,0,0-1.281,2.976c-.328,1.163-.628,2.335-.941,3.5a.148.148,0,1,1-.284-.082c.322-1.2.629-2.416.972-3.614a9.729,9.729,0,0,1,1.279-2.937c.111-.159.367,0,.254.156" transform="translate(-485.807 -782.969)" fill="#383463"/>
        <path id="Trazado_874586" data-name="Trazado 874586" d="M642.451,964.322a8.5,8.5,0,0,0-2.939,2.254l-.143-.258a26.117,26.117,0,0,1,4.107-.694c.189-.017.188.292,0,.309a25.59,25.59,0,0,0-4.029.683.155.155,0,0,1-.143-.258,8.7,8.7,0,0,1,3-2.3c.172-.08.322.186.149.267" transform="translate(-512.35 -772.648)" fill="#383463"/>
        <path id="Trazado_874587" data-name="Trazado 874587" d="M535.967,970l-.237.988c-.046.193-.33.111-.284-.082l.237-.987c.046-.193.33-.111.284.082" transform="translate(-429.14 -777.269)" fill="#383463"/>
        <path id="Trazado_874588" data-name="Trazado 874588" d="M530.183,987.452l-.253,1.479c-.033.2-.317.113-.284-.082l.253-1.479c.033-.2.317-.112.284.082" transform="translate(-424.493 -791.256)" fill="#383463"/>
        <path id="Trazado_874589" data-name="Trazado 874589" d="M525.515,1013.608l-.242.986a.148.148,0,1,1-.284-.082l.242-.986a.148.148,0,1,1,.284.082" transform="translate(-420.759 -812.221)" fill="#383463"/>
        <path id="Trazado_874590" data-name="Trazado 874590" d="M521.773,1038.444l-.263,1.724c-.03.2-.314.113-.284-.082l.263-1.724c.03-.2.314-.113.284.082" transform="translate(-417.745 -832.124)" fill="#383463"/>
        <path id="Trazado_874591" data-name="Trazado 874591" d="M519.193,1075.726v1.976a.147.147,0,1,1-.294,0v-1.976a.147.147,0,1,1,.294,0" transform="translate(-415.881 -862.04)" fill="#383463"/>
        <path id="Trazado_874592" data-name="Trazado 874592" d="M518.093,1110.6a.945.945,0,0,0-.182.84.148.148,0,1,1-.284.082,1.28,1.28,0,0,1,.258-1.141c.124-.15.332.069.208.218" transform="translate(-414.829 -889.892)" fill="#383463"/>
        <path id="Trazado_874593" data-name="Trazado 874593" d="M506.1,1144.008a10.092,10.092,0,0,0,4.332,3.32c.176.069.1.368-.078.3a10.366,10.366,0,0,1-4.462-3.4c-.117-.154.091-.374.208-.218" transform="translate(-405.431 -916.843)" fill="#383463"/>
        <path id="Trazado_874594" data-name="Trazado 874594" d="M506.72,1148.4l1.542,2.71c.1.171-.157.327-.254.156l-1.542-2.71c-.1-.171.157-.326.254-.156" transform="translate(-405.899 -920.349)" fill="#383463"/>
        <path id="Trazado_874595" data-name="Trazado 874595" d="M634.137,1151.908l2.629,2.616c.138.137-.071.355-.208.218l-2.629-2.616c-.138-.137.07-.355.208-.218" transform="translate(-508.038 -923.182)" fill="#383463"/>
        <path id="Trazado_874596" data-name="Trazado 874596" d="M641.368,1165.864a16.6,16.6,0,0,1,2.118,3.939c.069.185-.215.265-.284.082a16.322,16.322,0,0,0-2.088-3.865c-.115-.158.141-.312.254-.156" transform="translate(-513.809 -934.35)" fill="#383463"/>
        <path id="Trazado_874597" data-name="Trazado 874597" d="M506.082,1182.758v.556a.147.147,0,1,1-.294,0v-.556a.147.147,0,1,1,.294,0" transform="translate(-405.373 -947.823)" fill="#383463"/>
        <path id="Trazado_874598" data-name="Trazado 874598" d="M503.412,1204.217v1.667a.147.147,0,1,1-.294,0v-1.667a.147.147,0,1,1,.294,0" transform="translate(-403.233 -965.022)" fill="#383463"/>
        <path id="Trazado_874599" data-name="Trazado 874599" d="M499.957,1226.651a1.737,1.737,0,0,0-.154.993c.027.195-.257.278-.284.082a2.115,2.115,0,0,1,.184-1.231c.085-.178.339-.022.254.156" transform="translate(-400.33 -982.933)" fill="#383463"/>
        <path id="Trazado_874600" data-name="Trazado 874600" d="M497.245,1265.832a1.059,1.059,0,0,0-.139.812c.044.193-.24.276-.284.082a1.385,1.385,0,0,1,.169-1.05.149.149,0,0,1,.254.156" transform="translate(-398.157 -1014.342)" fill="#383463"/>
        <path id="Trazado_874601" data-name="Trazado 874601" d="M537.657,929l-1.073,3.255q-.279.847-.558,1.693a1.343,1.343,0,0,1-.61.892,7.64,7.64,0,0,1-2.726.69,9.837,9.837,0,0,1-2.989-.165c-.186-.039-.107-.336.078-.3a9.563,9.563,0,0,0,2.73.171,7.8,7.8,0,0,0,2.729-.652c.461-.226.546-.844.7-1.306l.472-1.432.966-2.93a.148.148,0,1,1,.284.082" transform="translate(-424.453 -744.411)" fill="#383463"/>
        <path id="Trazado_874602" data-name="Trazado 874602" d="M675.367,936.329l.969,3.667c.077.292.14.6.234.881.12.368.386.464.71.6l1.64.691c.174.073.1.372-.078.3-.625-.263-1.251-.523-1.875-.79-.517-.222-.633-.532-.776-1.075l-1.107-4.191a.148.148,0,1,1,.284-.082" transform="translate(-541.053 -750.35)" fill="#383463"/>
        <path id="Trazado_874603" data-name="Trazado 874603" d="M515.511,667.438c.121,1.123.762,4.714,1.537,8.95.128.7.26,1.418.394,2.145h0c1.3,7.073,2.787,15.029,2.865,16.286.235,3.767-1.708,13.274-1.789,15.729-.02.614,1.762.251,3.747.074a40.911,40.911,0,0,1,12.238,1.291,27.506,27.506,0,0,0,14.661-.184c1.248-.368,3.131-1.764,2.671-2.982-.187-.494-.444-1.159-.739-1.94-.21-.555-.439-1.167-.676-1.816h0c-1.178-3.225-2.542-7.351-2.666-9.792-.091-1.792,3.63-27.808,3.63-27.808l-2.833-7.765c-13.136-3.273-27.556-.015-27.556-.015a6.775,6.775,0,0,0-5.483,7.828" transform="translate(-413.116 -527.499)" fill="#ffca87"/>
        <path id="Trazado_874604" data-name="Trazado 874604" d="M758.682,659.814l-2.317,9.508,6.349,1.016s-.381-3.746.794-4.7-4.825-5.825-4.825-5.825" transform="translate(-606.203 -528.82)" fill="#fabba5"/>
        <path id="Trazado_874605" data-name="Trazado 874605" d="M764.862,661.759s1.193-3.383,3.18-4.045,3.068-.334,3.863.461,1.049,3.344.254,4.934a4,4,0,0,1-4.248,2.476c-1.676-.359-3.049-3.825-3.049-3.825" transform="translate(-613.013 -526.851)" fill="#fabba5"/>
        <path id="Trazado_874606" data-name="Trazado 874606" d="M652.485,695.243l12.028.568a45.989,45.989,0,0,0,3.386,10.811c4.547,8.825,5.574,14.719-.311,16.3-3.786,1.017-6.317-.8-11.276-9.78-6.748-12.224-3.826-17.9-3.826-17.9" transform="translate(-522.442 -557.215)" fill="#ffca87"/>
        <path id="Trazado_874607" data-name="Trazado 874607" d="M607.263,636.518s.207.409.58,1.108c.2.378.45.841.741,1.371.7,1.267,1.628,2.912,2.7,4.672,3.139,5.147,7.479,11.273,10.625,11.8.61.1,8.733,1.337,6.864-6.723-1.289-5.56-5.025-9.816-9.848-10.641-1.37-.235-2.849-.458-4.277-.66-2.669-.375-5.166-.673-6.46-.821-.585-.068-.925-.105-.925-.105" transform="translate(-486.702 -510.148)" fill="#ffca87"/>
        <path id="Trazado_874608" data-name="Trazado 874608" d="M437.383,664.608s14.8,3.322,12.982,1.466c-1.292-1.317,8.531-12.592,10.515-12.9,3.163-.494,6.439-6.773,8.656-12.028.656-1.556,1.219-3.02,1.659-4.219.189-.515.355-.981.495-1.383s.256-.74.345-1c.133-.4.2-.621.2-.621s-2.611.64-5.947,1.323c-1.292.264-2.694.536-4.1.779-4.822.836-10.221,2.985-12.544,8.2-2.983,6.695-10.9,13.177-12.269,20.391" transform="translate(-350.549 -508.065)" fill="#ffca87"/>
        <path id="Trazado_874609" data-name="Trazado 874609" d="M584.031,597.377a2.025,2.025,0,0,0,1.553-1.658c.29-1.681.648-3.93.885-6.035a14.052,14.052,0,0,0-.52-2.74c.064.018,8.824,2.567,7.755,5.258-.048.12-.092.247-.131.379a10.977,10.977,0,0,0-.346,3.032,16.845,16.845,0,0,0,.107,1.846c.6.08,1.227.164,1.862.254a6.569,6.569,0,0,1,.151,1.863,4.843,4.843,0,0,1-3.514,4.36,9.757,9.757,0,0,1-1.32.392,4.921,4.921,0,0,1-4.276-.831,8.906,8.906,0,0,1-2.667-4.006,16.954,16.954,0,0,1-.577-1.9q.532-.109,1.037-.216" transform="translate(-467.251 -470.416)" fill="#fabba5"/>
        <path id="Trazado_874610" data-name="Trazado 874610" d="M599.283,599.36c.054.4-.113,1.888-.111,2.346,1.976,4.023,6.949,3.823,7.021,3.85a10.974,10.974,0,0,1,.346-3.032c-1.969-.984-6.14-3.336-7.257-3.165" transform="translate(-480.218 -480.361)" fill="#ed938b"/>
        <path id="Trazado_874611" data-name="Trazado 874611" d="M589.833,642.386a7.208,7.208,0,0,1-4.48,8c-3.087,1.2-7.388.588-9.3-2.463a11.808,11.808,0,0,1-1.506-5.458c-.007-.1.14-.1.147,0a12.654,12.654,0,0,0,1.124,4.732,6.079,6.079,0,0,0,3.782,3.186,7.963,7.963,0,0,0,8.956-2.689,6.836,6.836,0,0,0,1.139-5.264c-.021-.1.121-.138.142-.041" transform="translate(-460.478 -514.807)" fill="#ffa468"/>
        <path id="Trazado_874612" data-name="Trazado 874612" d="M551.354,827.87c-1.779-.219-4.358,3.348-5.91,3.922l-2.642-.8-1.874,4.928,3.595.947a7.288,7.288,0,0,0,1.374.412c3.038.361,3.875-1.694,4.907-1.793.3-.029,2.154.2,2.292-.279.077-.269-1.714-.846-2.583-1.216a.124.124,0,0,1,.007-.232c1.238-.35,3.757.045,3.929-.672a9.211,9.211,0,0,0-2.241-.935,5.667,5.667,0,0,0-2.07-.05.052.052,0,0,1-.029-.1,6.317,6.317,0,0,1,1.846-.528c.809-.078,2.939-.034,3.378-.829.183-.331-2.507-.483-3.581-.672a1.9,1.9,0,0,0-.639.029.042.042,0,0,1-.026-.078,4.363,4.363,0,0,1,.842-.344c1.353-.211,3.118-.258,3.42-1.167.079-.237-3.6-.493-3.993-.541" transform="translate(-433.536 -663.503)" fill="#fabba5"/>
        <path id="Trazado_874613" data-name="Trazado 874613" d="M458.79,797.451a84.2,84.2,0,0,1-14.556-7.2,14.748,14.748,0,0,1-6.87-10.654,1.227,1.227,0,0,1,.814-1.268c1.938-.683,6.987-2.055,10.191.787,4.032,3.576,5.161,5.755,8.365,8.31,1.931,1.539,5.072,2.373,5.254,3.214s-1.253,1.917-1.2,2.968-1.293,4.066-2,3.84" transform="translate(-350.529 -623.058)" fill="#ffca87"/>
        <path id="Trazado_874614" data-name="Trazado 874614" d="M723.22,700.872s-1.139,8.9-4.18,15.691c-4.032,9-7.047,9.4-8.857,9.638-.557.074-1.346-.865-1.634-1.348-1.052-1.765-3.394-6.444-1.241-10.146,2.709-4.659,4.623-6.2,6.494-9.842,1.127-2.2,1.325-5.441,2.113-5.785s2.127.85,3.146.587,4.241.464,4.159,1.2" transform="translate(-566.179 -560.24)" fill="#ffca87"/>
        <path id="Trazado_874615" data-name="Trazado 874615" d="M481.534,788.684a8.005,8.005,0,0,0-5.26-1.263,8.444,8.444,0,0,1,5.435-.089s-.514.819-.175,1.352" transform="translate(-381.719 -630.674)" fill="#ffa468"/>
        <path id="Trazado_874616" data-name="Trazado 874616" d="M525.165,745.5s1.6-2.849,3.167-3.267-1.285,1.3-1.583,3.267a9.339,9.339,0,0,1-.976,3.315c-.026-.162-.608-3.315-.608-3.315" transform="translate(-420.903 -594.828)" fill="#ffa468"/>
        <path id="Trazado_874617" data-name="Trazado 874617" d="M713.171,744.283s-3.934,3.93-4,7.675c0,0-2.029-4.638,3.525-8.763Z" transform="translate(-568.091 -595.647)" fill="#ffa468"/>
        <path id="Trazado_874618" data-name="Trazado 874618" d="M847.767,789.1a.918.918,0,0,0,.024.393.028.028,0,0,0,.053-.015.848.848,0,0,1-.024-.363c.005-.035-.048-.05-.053-.015" transform="translate(-679.45 -632.418)" fill="#dc826f"/>
        <path id="Trazado_874619" data-name="Trazado 874619" d="M779.651,654.161c1.613-.447,2.263-.3,2.484.5s-.109,1.035-1.722,1.482-3.4.8-3.625,0,1.25-1.533,2.863-1.981" transform="translate(-622.554 -524.09)" fill="#ffccbc"/>
        <path id="Trazado_874620" data-name="Trazado 874620" d="M778.369,663.458c1.975-.547,2.751-.433,2.972.363s-.191,1.057-2.166,1.6-4.159,1.006-4.379.21,1.6-1.63,3.573-2.177" transform="translate(-620.961 -531.47)" fill="#ffccbc"/>
        <path id="Trazado_874621" data-name="Trazado 874621" d="M780.356,672.095c1.874-.52,2.615-.4,2.836.4s-.168,1.051-2.042,1.57-3.948.948-4.169.151,1.5-1.6,3.375-2.122" transform="translate(-622.71 -538.412)" fill="#ffccbc"/>
        <path id="Trazado_874622" data-name="Trazado 874622" d="M786.824,680.581c1.347-.373,1.891-.243,2.079.436s-.086.881-1.433,1.254-2.842.662-3.031-.017,1.038-1.3,2.384-1.673" transform="translate(-628.688 -545.299)" fill="#ffccbc"/>
        <path id="Trazado_874623" data-name="Trazado 874623" d="M784.006,664.037l3.292-.757c.1-.024.06-.183-.044-.16l-3.292.757c-.1.024-.06.183.044.16" transform="translate(-628.274 -531.467)" fill="#eea490"/>
        <path id="Trazado_874624" data-name="Trazado 874624" d="M781.552,672.9a31.927,31.927,0,0,0,4.619-1.163c.1-.033.057-.193-.044-.16a31.917,31.917,0,0,1-4.619,1.163c-.1.018-.06.178.044.16" transform="translate(-626.306 -538.241)" fill="#eea490"/>
        <path id="Trazado_874625" data-name="Trazado 874625" d="M785.693,681.726a23.068,23.068,0,0,0,3.73-1c.1-.036.057-.2-.044-.16a23.074,23.074,0,0,1-3.73,1c-.1.019-.06.178.044.16" transform="translate(-629.625 -545.45)" fill="#eea490"/>
        <path id="Trazado_874626" data-name="Trazado 874626" d="M612.224,507.007a3.513,3.513,0,0,0-3.289-5.674c-2.264.343-4.592,2.876-6.95,1.431-.079-.049-.007-.174.073-.125,1.593.976,3.372-.03,4.843-.743a4.864,4.864,0,0,1,3.689-.572,3.7,3.7,0,0,1,1.76,5.756c-.056.073-.182,0-.125-.073" transform="translate(-482.445 -401.658)" fill="#6d2f3b"/>
        <path id="Trazado_874627" data-name="Trazado 874627" d="M602.574,533.223a2.7,2.7,0,0,0-2.127-.065A2.874,2.874,0,0,1,602,533.6c.734.483.57-.376.57-.376" transform="translate(-481.24 -427.15)" fill="#2d2b4e"/>
        <path id="Trazado_874628" data-name="Trazado 874628" d="M587.933,586.759c.134.035.822.213,1.751.505-.045-.49-1.542-.479-1.751-.505" transform="translate(-471.21 -470.268)" fill="#fabba5"/>
        <path id="Trazado_874629" data-name="Trazado 874629" d="M591.069,545.137c.39,1.113,4.45,1.924,6.07,2.06,1.068.089,2.705.294,3.6-.352.758-.548,2.813-5.139,2.25-7.466a14.362,14.362,0,0,1-.124-3.637c.27-2.137-1.307-5.619-1.307-5.619-6.257-4.2-11.486,2.059-11.881,4.433a22.39,22.39,0,0,0,1.393,10.581" transform="translate(-472.469 -423.743)" fill="#fabba5"/>
        <path id="Trazado_874630" data-name="Trazado 874630" d="M608.749,557.178c-.31.057-.348-.191-.086-.366.622-.415,1.4-.835,3.306-.346,1.794.459,1.676,1.466.652,1.337-.9-.112-1.817-1.006-3.872-.625" transform="translate(-487.685 -445.813)" fill="#752d4b"/>
        <path id="Trazado_874631" data-name="Trazado 874631" d="M646.423,557.2c.166.027.176-.522.037-.661-.329-.33-.892-.569-1.779-.039-.975.582-.866,1.214-.312,1.009a3.192,3.192,0,0,1,2.054-.309" transform="translate(-516.105 -445.77)" fill="#752d4b"/>
        <path id="Trazado_874632" data-name="Trazado 874632" d="M614.505,567.389a.747.747,0,1,0,1.385-.4,2.632,2.632,0,0,0-1.063-.111c-.146.106-.265.156-.3.338a.735.735,0,0,0-.017.178" transform="translate(-492.507 -454.325)" fill="#752d4b"/>
        <path id="Trazado_874633" data-name="Trazado 874633" d="M610.469,566.9c-.11.313.61-.783,2.34-.489a2.989,2.989,0,0,1,1.2.571c.125.092.131-.056.017-.162a2.314,2.314,0,0,0-1.5-.721,2.581,2.581,0,0,0-2.056.8" transform="translate(-489.264 -453.702)" fill="#752d4b"/>
        <path id="Trazado_874634" data-name="Trazado 874634" d="M637.293,565.307a1.486,1.486,0,0,0-.739,1.4,2.993,2.993,0,0,0,.732,1.676c.253.33.872.833.661,1.314a.987.987,0,0,1-.529.414,4.033,4.033,0,0,1-.863.291c-.088.02-.129-.115-.041-.135a3.852,3.852,0,0,0,.964-.343c.255-.135.443-.312.318-.626a1.676,1.676,0,0,0-.294-.429,5.371,5.371,0,0,1-.914-1.379,1.8,1.8,0,0,1,.632-2.308c.08-.041.154.078.074.12" transform="translate(-510.072 -452.972)" fill="#cf8171"/>
        <path id="Trazado_874635" data-name="Trazado 874635" d="M635.261,608.36a2.16,2.16,0,0,0-1.425.006c-.172.059-.252-.211-.081-.27a2.421,2.421,0,0,1,1.574-.009c.171.057.1.331-.068.273" transform="translate(-507.859 -487.26)" fill="#ef9f8a"/>
        <path id="Trazado_874636" data-name="Trazado 874636" d="M568.636,518.786c.928,3.022,4.253,4.523,4.253,4.523-.352-1.889-.595-5.81-.134-5.813s1.747,1.379,1.61.684-.847-1.7.024-3.225a4.085,4.085,0,0,0,.05-3.348l.02.007.013,0a3.767,3.767,0,0,0,.557.17h.006a9.612,9.612,0,0,0,1.917.211,19.163,19.163,0,0,0,1.943-.057c.7-.056,1.387-.143,2-.251a11.475,11.475,0,0,0,1.512-.36,4.611,4.611,0,0,1,.668-.169,2.754,2.754,0,0,1,.422-.042c.884-.014,1,.516,1,.516a4.154,4.154,0,0,0,.654-4.2,3.928,3.928,0,0,0-5.088-2.817c-2.608.751-2.129.836-4.685.677-5.925-.369-5.732,3.655-5.732,3.655-2.847,1.725-1.941,6.805-1.014,9.828" transform="translate(-455.015 -404.282)" fill="#6d2f3b"/>
        <path id="Trazado_874637" data-name="Trazado 874637" d="M586.5,570.8s-1.469-2.142-2.773-1.125.1,2.806.628,3.493c.566.735.883.733,1.843.469s.3-2.837.3-2.837" transform="translate(-467.407 -456.358)" fill="#fabba5"/>
        <path id="Trazado_874638" data-name="Trazado 874638" d="M586.271,573.433a1.03,1.03,0,0,1-1.513.208,2.873,2.873,0,0,1-.7-.8,7.109,7.109,0,0,1-.622-1.116,1.744,1.744,0,0,1,.207-2.065,1.471,1.471,0,0,1,1.977.238c.068.069-.036.179-.1.109a1.312,1.312,0,0,0-1.841-.176c-.55.525-.307,1.413-.023,2.01a5.543,5.543,0,0,0,.968,1.486c.388.393,1.184.647,1.516.034a.075.075,0,0,1,.132.073" transform="translate(-467.42 -456.334)" fill="#ef9f8a"/>
        <path id="Trazado_874639" data-name="Trazado 874639" d="M590.1,572.829a1.119,1.119,0,0,1,.581.418.773.773,0,0,1,.037.7c-.129.488.365.573.616.876a.5.5,0,0,1,.078.583.075.075,0,0,1-.132-.073c.256-.464-.651-.7-.742-1.125-.038-.174.054-.3.093-.458.092-.389-.248-.653-.567-.774-.09-.034-.054-.181.037-.146" transform="translate(-472.879 -459.1)" fill="#ef9f8a"/>
        <path id="Trazado_874640" data-name="Trazado 874640" d="M624.7,594.3a1.821,1.821,0,0,0,.65.926,2.428,2.428,0,0,0,1.688.655,2.258,2.258,0,0,0,1.067-.35,1.724,1.724,0,0,0,.818-1.085.531.531,0,0,0,0-.154.059.059,0,0,0-.013-.033c-.028-.046-.109-.058-.18-.07-.276-.043-.779.1-1.592.151-.54.033-1.456-.15-2-.179-.075,0-.146-.006-.209,0-.132,0-.226.023-.233.08a.146.146,0,0,0,0,.062" transform="translate(-500.672 -476.201)" fill="#e33b58"/>
        <path id="Trazado_874641" data-name="Trazado 874641" d="M625.879,594.164a3.313,3.313,0,0,0,3.983.127.161.161,0,0,0,0-.027c-.029-.047-.109-.058-.181-.07-.276-.042-.778.1-1.591.151-.54.034-1.456-.15-2-.179-.075,0-.146-.006-.209,0" transform="translate(-501.622 -476.202)" fill="#fff"/>
        <path id="Trazado_874642" data-name="Trazado 874642" d="M627.99,598.685a2.427,2.427,0,0,0,1.688.655,2.259,2.259,0,0,0,1.067-.349,4.231,4.231,0,0,0-1.968-.511,2.054,2.054,0,0,0-.788.205" transform="translate(-503.314 -479.655)" fill="#ff6576"/>
        <path id="Trazado_874643" data-name="Trazado 874643" d="M631.354,504.989a4.439,4.439,0,0,1,3.99.794,3.063,3.063,0,0,1,.857,3.522c-.036.086-.161.012-.125-.073a2.942,2.942,0,0,0-1.036-3.5,4.352,4.352,0,0,0-3.648-.6c-.091.021-.129-.119-.039-.14" transform="translate(-505.969 -404.609)" fill="#6d2f3b"/>
        <path id="Trazado_874644" data-name="Trazado 874644" d="M576.149,517.262a3.449,3.449,0,0,0,.525,2.473c.051.078-.074.151-.125.073a3.6,3.6,0,0,1-.54-2.585c.015-.092.155-.053.14.039" transform="translate(-461.613 -414.496)" fill="#6d2f3b"/>
        <path id="Trazado_874645" data-name="Trazado 874645" d="M571.066,526.307a6.947,6.947,0,0,0-1.945.966c-.076.054-.149-.072-.073-.125a7.088,7.088,0,0,1,1.979-.981c.089-.028.127.112.039.14" transform="translate(-456.049 -421.703)" fill="#6d2f3b"/>
        <path id="Trazado_874646" data-name="Trazado 874646" d="M624.113,519.994c1.343-.312,1.492-2.189,1.252-3.3-.3-1.382-1.628-1.69-2.856-1.729-.093,0-.093-.148,0-.145,1.4.045,2.787.471,3.03,2.031.181,1.158-.012,2.961-1.388,3.281-.091.021-.13-.118-.039-.14" transform="translate(-498.866 -412.613)" fill="#7a3a49"/>
        <path id="Trazado_874647" data-name="Trazado 874647" d="M622.083,523.978a3.241,3.241,0,0,1,1.67,1.468,2.526,2.526,0,0,1,.068,1.921c-.031.087-.171.05-.14-.039a2.389,2.389,0,0,0-.127-1.959,3.26,3.26,0,0,0-1.544-1.267c-.084-.041-.01-.166.073-.125" transform="translate(-498.492 -419.944)" fill="#7a3a49"/>
        <path id="Trazado_874648" data-name="Trazado 874648" d="M589.176,531.789a12.729,12.729,0,0,1-2.92-1.963c-.069-.062.033-.164.1-.1a12.593,12.593,0,0,0,2.891,1.94c.084.041.01.166-.073.125" transform="translate(-469.847 -424.541)" fill="#7a3a49"/>
        <path id="Trazado_874649" data-name="Trazado 874649" d="M644.1,566.919a1.725,1.725,0,0,1,1.066-.686.761.761,0,0,1,.307.039,4.866,4.866,0,0,1,.657.427c.088.056-1.036-1.531-1.947-.071-.031.049-.062.1-.093.16s-.067.131-.1.2c-.08.177-.031.093.11-.073" transform="translate(-516.106 -453.638)" fill="#752d4b"/>
        <path id="Trazado_874650" data-name="Trazado 874650" d="M644.647,567.452a.766.766,0,0,0,.01.131.47.47,0,0,0,.18.315.724.724,0,0,0,.586.1.791.791,0,0,0,.425-.291.613.613,0,0,0,0-.66c-.044-.054-.087-.109-.12-.147l-.047-.059-.511.1-.292.19-.114.149-.018.016c-.031.049-.063.1-.093.161" transform="translate(-516.664 -454.301)" fill="#752d4b"/>
        <path id="Trazado_874651" data-name="Trazado 874651" d="M773.294,409.581l-6.788.625-6.656.612,2.41-15.627.219-1.418,1.583-10.255,3.946,11.145Z" transform="translate(-608.996 -307.377)" fill="#fff"/>
        <path id="Trazado_874652" data-name="Trazado 874652" d="M766.506,451.6l-6.656.612,2.41-15.627.219-1.418h2.507s-.047.417-.1,1.138c-.2,2.723-.461,9.795,1.621,15.3" transform="translate(-608.996 -348.774)" fill="#cfe6ff"/>
        <path id="Trazado_874653" data-name="Trazado 874653" d="M788.375,675.206l-13.443,1.237L759.848,516.036l13.443-1.237Z" transform="translate(-608.994 -412.594)" fill="#ff6576"/>
        <path id="Trazado_874654" data-name="Trazado 874654" d="M798.982,676.825l-6.458.594L777.44,517.012l6.458-.594Z" transform="translate(-623.094 -413.892)" fill="#fb4b63"/>
        <path id="Trazado_874655" data-name="Trazado 874655" d="M777.739,404.226l-5.748.528,1.418-9.187,1.223-.117Z" transform="translate(-618.726 -316.94)" fill="#51497a"/>
        <path id="Trazado_874656" data-name="Trazado 874656" d="M758.009,659.987s-.968-3.612-.468-4.636,1.971-2.972,3.081-3.149c1.551-.247,3.941-.77,3.766-.084a3.306,3.306,0,0,1-2.639,2c-.479-.026-.407,1.306-.676,1.666a9,9,0,0,0-1.572,3.9Z" transform="translate(-607.031 -522.379)" fill="#fabba5"/>
        <g id="Grupo_1099725" data-name="Grupo 1099725" transform="translate(127.908 177.492)" opacity="0.6">
          <g id="Grupo_1099724" data-name="Grupo 1099724">
            <g id="Grupo_1099723" data-name="Grupo 1099723" clip-path="url(#clip-path-10)">
              <path id="Trazado_874657" data-name="Trazado 874657" d="M644.273,897.794a18.428,18.428,0,0,0,10.07-1.956c-.21-.555-.439-1.167-.676-1.816-1.165,2.2-9.394,3.772-9.394,3.772" transform="translate(-644.273 -894.022)" fill="#ffa468"/>
            </g>
          </g>
        </g>
        <path id="Trazado_874658" data-name="Trazado 874658" d="M599.188,890.754s-6.347,1.3-9.711-1.77c0,0,3.271,1.718,5.826,1.535s4.24-.238,3.884.235" transform="translate(-472.447 -712.492)" fill="#ffa468"/>
        <g id="Grupo_1099728" data-name="Grupo 1099728" transform="translate(121.158 175.012)" opacity="0.6">
          <g id="Grupo_1099727" data-name="Grupo 1099727">
            <g id="Grupo_1099726" data-name="Grupo 1099726" clip-path="url(#clip-path-11)">
              <path id="Trazado_874659" data-name="Trazado 874659" d="M614.743,882.494s-3.022,1.362-4.47,1.049c0,0,2.971-.639,3.861-1.643s1.263.323.609.594" transform="translate(-610.273 -881.53)" fill="#ffa468"/>
            </g>
          </g>
        </g>
        <path id="Trazado_874660" data-name="Trazado 874660" d="M537.626,829.692a8.719,8.719,0,0,0,2.447,1.545c.355.157.717.3,1.076.443.506.2.932.41.9,1.064-.01.2-.283.522-.372.7a8.912,8.912,0,0,0-.8,2.609,5.384,5.384,0,0,1-.449,1.712c-.439.813-1.473,1.425-2.28.68-.116-.107-.291.066-.174.174a1.567,1.567,0,0,0,2.159-.044c1.064-.961.879-2.616,1.283-3.869.221-.686.813-1.383.962-2.07a.682.682,0,0,0-.22-.749,6.954,6.954,0,0,0-1.959-.864,8.484,8.484,0,0,1-2.4-1.507c-.116-.107-.291.066-.174.174" transform="translate(-430.859 -664.805)" fill="#ffa468"/>
        <path id="Trazado_874661" data-name="Trazado 874661" d="M527,740.587c1.568-1.617,2.963-3.394,5.348-3.668.156-.018.157-.264,0-.246-2.476.285-3.884,2.05-5.522,3.74-.11.114.064.288.174.174" transform="translate(-422.205 -590.419)" fill="#ffa468"/>
        <path id="Trazado_874662" data-name="Trazado 874662" d="M683.041,723.894a100.051,100.051,0,0,1-1.6,16.393c-.028.155.209.221.237.065a100.454,100.454,0,0,0,1.608-16.458.123.123,0,0,0-.246,0" transform="translate(-546.152 -580.083)" fill="#ffa468"/>
        <path id="Trazado_874663" data-name="Trazado 874663" d="M713.628,748.351a12.548,12.548,0,0,0-4.012,11.466c.028.156.266.09.237-.065a12.3,12.3,0,0,1,3.949-11.226c.116-.109-.059-.283-.174-.174" transform="translate(-568.578 -599.752)" fill="#ffa468"/>
        <path id="Trazado_874664" data-name="Trazado 874664" d="M478.12,789.688a8.993,8.993,0,0,0-5.981-1.054c-.156.026-.09.263.065.237A8.719,8.719,0,0,1,478,789.9a.123.123,0,0,0,.124-.213" transform="translate(-378.333 -631.962)" fill="#ffa468"/>
        <path id="Trazado_874665" data-name="Trazado 874665" d="M688.888,729.609a22.425,22.425,0,0,0,1.408-2.773c.061-.144-.151-.27-.213-.124a22.408,22.408,0,0,1-1.408,2.773.123.123,0,0,0,.213.124" transform="translate(-551.937 -582.384)" fill="#ffa468"/>
        <path id="Trazado_874666" data-name="Trazado 874666" d="M1140.179,339.646h-74.235a1.561,1.561,0,1,1,0-3.122h74.235a1.561,1.561,0,1,1,0,3.122" transform="translate(-853.069 -269.713)" fill="#75acf2"/>
        <path id="Trazado_874667" data-name="Trazado 874667" d="M1122.784,378.263h-85.69a1.561,1.561,0,1,1,0-3.122h85.69a1.561,1.561,0,1,1,0,3.122" transform="translate(-829.947 -300.663)" fill="#75acf2"/>
        <path id="Trazado_874668" data-name="Trazado 874668" d="M998.7,511.072H927.255a1.565,1.565,0,0,1,0-3.13H998.7a1.565,1.565,0,1,1,0,3.13" transform="translate(-741.912 -407.099)" fill="#cfe6ff"/>
        <path id="Trazado_874669" data-name="Trazado 874669" d="M1379.731,511.072h-49.57a1.565,1.565,0,0,1,0-3.13h49.57a1.565,1.565,0,0,1,0,3.13" transform="translate(-1064.829 -407.099)" fill="#cfe6ff"/>
        <path id="Trazado_874670" data-name="Trazado 874670" d="M977.524,455.4H927.255a1.565,1.565,0,0,1,0-3.13h50.269a1.565,1.565,0,0,1,0,3.13" transform="translate(-741.912 -362.482)" fill="#cfe6ff"/>
        <path id="Trazado_874671" data-name="Trazado 874671" d="M1264.294,455.4h-38.866a1.565,1.565,0,1,1,0-3.13h38.866a1.565,1.565,0,1,1,0,3.13" transform="translate(-980.888 -362.482)" fill="#cfe6ff"/>
        <path id="Trazado_874672" data-name="Trazado 874672" d="M1483.352,455.4h-23.9a1.565,1.565,0,1,1,0-3.13h23.9a1.565,1.565,0,1,1,0,3.13" transform="translate(-1168.449 -362.482)" fill="#cfe6ff"/>
        <path id="Trazado_874673" data-name="Trazado 874673" d="M977.524,566.74H927.255a1.565,1.565,0,0,1,0-3.13h50.269a1.565,1.565,0,0,1,0,3.13" transform="translate(-741.912 -451.715)" fill="#cfe6ff"/>
        <path id="Trazado_874674" data-name="Trazado 874674" d="M1264.294,566.74h-38.866a1.565,1.565,0,1,1,0-3.13h38.866a1.565,1.565,0,1,1,0,3.13" transform="translate(-980.888 -451.715)" fill="#cfe6ff"/>
        <path id="Trazado_874675" data-name="Trazado 874675" d="M1483.352,566.74h-23.9a1.565,1.565,0,1,1,0-3.13h23.9a1.565,1.565,0,1,1,0,3.13" transform="translate(-1168.449 -451.715)" fill="#cfe6ff"/>
        <path id="Trazado_874676" data-name="Trazado 874676" d="M984.088,679.709h-56.86a1.542,1.542,0,0,1-1.538-1.538v-.054a1.542,1.542,0,0,1,1.538-1.538h56.86a1.542,1.542,0,0,1,1.538,1.538v.054a1.542,1.542,0,0,1-1.538,1.538" transform="translate(-741.912 -542.256)" fill="#cfe6ff"/>
        <path id="Trazado_874677" data-name="Trazado 874677" d="M977.524,624.041H927.255a1.565,1.565,0,1,1,0-3.13h50.269a1.565,1.565,0,1,1,0,3.13" transform="translate(-741.912 -497.64)" fill="#cfe6ff"/>
        <path id="Trazado_874678" data-name="Trazado 874678" d="M1264.294,624.041h-38.866a1.565,1.565,0,1,1,0-3.13h38.866a1.565,1.565,0,1,1,0,3.13" transform="translate(-980.888 -497.64)" fill="#cfe6ff"/>
        <path id="Trazado_874679" data-name="Trazado 874679" d="M1483.352,624.041h-23.9a1.565,1.565,0,1,1,0-3.13h23.9a1.565,1.565,0,1,1,0,3.13" transform="translate(-1168.449 -497.64)" fill="#cfe6ff"/>
        <path id="Trazado_874680" data-name="Trazado 874680" d="M929.526,797.462h40.345a1.213,1.213,0,0,0,0-2.425H929.526a1.213,1.213,0,0,0,0,2.425" transform="translate(-744.015 -637.196)" fill="#cfe6ff"/>
        <path id="Trazado_874681" data-name="Trazado 874681" d="M929.526,883.971h40.345a1.213,1.213,0,0,0,0-2.425H929.526a1.213,1.213,0,0,0,0,2.425" transform="translate(-744.015 -706.531)" fill="#cfe6ff"/>
        <path id="Trazado_874682" data-name="Trazado 874682" d="M929.526,754.326H949.04a1.213,1.213,0,1,0,0-2.425H929.526a1.213,1.213,0,0,0,0,2.425" transform="translate(-744.015 -602.624)" fill="#cfe6ff"/>
        <path id="Trazado_874683" data-name="Trazado 874683" d="M929.526,840.6H949.04a1.216,1.216,0,0,0,1.212-1.212h0a1.216,1.216,0,0,0-1.212-1.212H929.526a1.213,1.213,0,0,0,0,2.425" transform="translate(-744.015 -671.768)" fill="#cfe6ff"/>
        <path id="Trazado_874684" data-name="Trazado 874684" d="M929.526,926.43H949.04a1.213,1.213,0,1,0,0-2.425H929.526a1.216,1.216,0,0,0-1.212,1.212h0a1.216,1.216,0,0,0,1.212,1.213" transform="translate(-744.015 -740.56)" fill="#cfe6ff"/>
        <rect id="Rectángulo_379103" data-name="Rectángulo 379103" width="52.715" height="24.45" transform="translate(219.334 213)" fill="#cfe6ff"/>
        <path id="Trazado_874685" data-name="Trazado 874685" d="M1060.352,871.071c-2.552,5.074-4.967,10.221-7.516,15.76-1.984,4.305-3.8,8.8-5.98,13.906-6.866,16.07-12.754,26.42-13.224,27.364-.058.1-1.094,1.992-1.334,2.406a1.8,1.8,0,0,1,.375.014c4.045.547,8.433,14.352,2.147,19.685a.008.008,0,0,0,0,0,24.66,24.66,0,0,1-2.048,1.375c-24.909-.033-30.59-.042-58.161-.073,2.145-9.308,5.037-28.781,7.138-35.489,5.118-16.353,5.841-26.094,11.3-27.895,2.55-.842,5.044-1.479,7.452,1.54.611.765,2.913-2.776,7.052-2.353,7.251.739,5.772,5.253,6.846,6.928a.44.44,0,0,0,.252.211h0c1.1.279,3.4-5.745,7.775-5.882,8.876-.277,7.3,7.454,8.068,8.766,1.412,2.456,15.231-25.576,23.752-36.59,4.447-5.749,12.339-2.067,6.111,10.324" transform="translate(-781.115 -687.737)" fill="#fdbaa0"/>
        <path id="Trazado_874686" data-name="Trazado 874686" d="M1380.924,865s-1.082,4.993-3.02,5.855-5.143-1.13-5.18-2.1,2.861-5.635,3.464-5.878,4.068.94,4.735,2.126" transform="translate(-1100.196 -691.537)" fill="#ffc6b2"/>
        <path id="Trazado_874687" data-name="Trazado 874687" d="M1246.753,1216.364a60.526,60.526,0,0,0-5.275,9.5c-.081.183-.35.025-.269-.158a60.5,60.5,0,0,1,5.275-9.5c.112-.165.383-.009.269.157" transform="translate(-994.779 -974.695)" fill="#f18e7b"/>
        <path id="Trazado_874688" data-name="Trazado 874688" d="M1192.958,1109.925a55.277,55.277,0,0,0-5.4,6.525,18.37,18.37,0,0,0-2.893,5.726c-1.17,5.017-2.307,7.228-8.283,14.792-2.2,2.786-7.019,10.537-9.253,12.6q-.357.33-.709.636c-4.1,0,.736,0-28.66-.036a13.687,13.687,0,0,1,5.671-12.091c7.541-5.857,15.962-8.931,20.585-10.963h0l.389-.174c2.921-1.307,2.912-1.679,3.229-2.2,1.26-2.155,5.308-7.284,7.3-8.8a38.7,38.7,0,0,1,4.916-5.958c1.595-1.552,3.742-3.262,5.9-3.77,5.351-1.277,8.875,1.913,7.207,3.719" transform="translate(-911.835 -886.354)" fill="#fdbaa0"/>
        <path id="Trazado_874689" data-name="Trazado 874689" d="M1254.272,1191.812a114.617,114.617,0,0,0-6.517,15.09c-.059.168-.327.1-.268-.074a115.12,115.12,0,0,1,6.545-15.156c.083-.159.322-.018.24.14" transform="translate(-999.816 -955.031)" fill="#f18e7b"/>
        <path id="Trazado_874690" data-name="Trazado 874690" d="M1325.993,1155.473a6.48,6.48,0,0,1,2.37.534c.164.07.023.31-.14.24a6.109,6.109,0,0,0-2.23-.5c-.178-.006-.179-.284,0-.277" transform="translate(-1062.634 -926.074)" fill="#f18e7b"/>
        <path id="Trazado_874691" data-name="Trazado 874691" d="M1327.156,1156.347a5.666,5.666,0,0,1,.889.887c.111.138-.084.336-.2.2a5.661,5.661,0,0,0-.889-.887c-.14-.111.058-.306.2-.2" transform="translate(-1063.479 -926.749)" fill="#f18e7b"/>
        <path id="Trazado_874692" data-name="Trazado 874692" d="M1281.378,1205.049a3.327,3.327,0,0,1,1.625-.587c.178-.016.177.262,0,.278a3.046,3.046,0,0,0-1.485.549c-.147.1-.286-.138-.14-.24" transform="translate(-1026.935 -965.337)" fill="#f18e7b"/>
        <path id="Trazado_874693" data-name="Trazado 874693" d="M1251.356,1050.7l-2.828,2.945c-.124.129-.32-.067-.2-.2l2.828-2.945c.124-.129.32.067.2.2" transform="translate(-1000.467 -841.912)" fill="#f18e7b"/>
        <path id="Trazado_874694" data-name="Trazado 874694" d="M1171.747,1038.665a4.85,4.85,0,0,1-2.262.979c-.175.027-.25-.241-.074-.268a4.587,4.587,0,0,0,2.14-.907c.14-.108.337.087.2.2" transform="translate(-937.166 -832.274)" fill="#f18e7b"/>
        <path id="Trazado_874695" data-name="Trazado 874695" d="M1099.147,1013.985a5.247,5.247,0,0,1-2.688,1.586c-.173.041-.248-.226-.074-.268a4.992,4.992,0,0,0,2.566-1.515c.12-.132.316.064.2.2" transform="translate(-878.639 -812.484)" fill="#f18e7b"/>
        <path id="Trazado_874696" data-name="Trazado 874696" d="M1382.065,1125.893a2.694,2.694,0,0,0,1.337,2.1c3.624-3.3,5.524-6.234,5.4-6.518l0,0s-.966-1.8-2.224-.908-4.44,3.774-4.514,5.328" transform="translate(-1107.681 -897.899)" fill="#ffc6b2"/>
        <path id="Trazado_874697" data-name="Trazado 874697" d="M1329.737,989.624a9.19,9.19,0,0,0-4.159-1.8c-.176-.029-.1-.3.074-.268a9.345,9.345,0,0,1,4.226,1.833c.139.107,0,.349-.14.24" transform="translate(-1062.329 -791.489)" fill="#f18e7b"/>
        <path id="Trazado_874698" data-name="Trazado 874698" d="M1331.411,997.76l-1.324-.466c-.168-.059-.1-.327.074-.268l1.325.466c.167.059.1.327-.074.268" transform="translate(-1065.947 -799.078)" fill="#f18e7b"/>
        <g id="Grupo_1099731" data-name="Grupo 1099731" transform="translate(255.621 219.56)" opacity="0.5">
          <g id="Grupo_1099730" data-name="Grupo 1099730">
            <g id="Grupo_1099729" data-name="Grupo 1099729" clip-path="url(#clip-path-12)">
              <path id="Trazado_874699" data-name="Trazado 874699" d="M1287.559,1125.048c2.148.594,10.4-7.744,13.535-12.8s10.305-5.708,10.305-5.708a8.672,8.672,0,0,0-5.545-.332c-5.332,1.275-10.817,9.726-10.817,9.726-2.072,1.573-6.355,7.045-7.479,9.113" transform="translate(-1287.559 -1105.915)" fill="#f07b7e"/>
            </g>
          </g>
        </g>
      </g>
    </g>
  </g>
</svg>
