<svg id="Grupo_1099857" data-name="Grupo 1099857" xmlns="http://www.w3.org/2000/svg" xmlns:xlink="http://www.w3.org/1999/xlink" width="295" height="294.234" viewBox="0 0 295 294.234">
  <defs>
    <clipPath id="clip-path">
      <rect id="Rectángulo_379151" data-name="Rectángulo 379151" width="295" height="294.234" fill="none"/>
    </clipPath>
    <clipPath id="clip-path-2">
      <rect id="Rectángulo_379110" data-name="Rectángulo 379110" width="295" height="294.234" fill="#8ad0ce"/>
    </clipPath>
    <clipPath id="clip-path-6">
      <rect id="Rectángulo_379113" data-name="Rectángulo 379113" width="26.172" height="42.23" fill="none"/>
    </clipPath>
    <clipPath id="clip-path-7">
      <rect id="Rectángulo_379114" data-name="Rectángulo 379114" width="23.64" height="25.068" fill="none"/>
    </clipPath>
    <clipPath id="clip-path-9">
      <rect id="Rectángulo_379116" data-name="Rectángulo 379116" width="120.382" height="243.851" fill="none"/>
    </clipPath>
    <clipPath id="clip-path-10">
      <rect id="Rectángulo_379117" data-name="Rectángulo 379117" width="122.883" height="243.935" fill="none"/>
    </clipPath>
    <clipPath id="clip-path-11">
      <rect id="Rectángulo_379118" data-name="Rectángulo 379118" width="3.489" height="183.04" fill="none"/>
    </clipPath>
    <clipPath id="clip-path-13">
      <rect id="Rectángulo_379120" data-name="Rectángulo 379120" width="114.915" height="69.294" fill="none"/>
    </clipPath>
    <clipPath id="clip-path-14">
      <rect id="Rectángulo_379121" data-name="Rectángulo 379121" width="26.358" height="38.295" fill="none"/>
    </clipPath>
    <clipPath id="clip-path-17">
      <rect id="Rectángulo_379124" data-name="Rectángulo 379124" width="13.209" height="14.292" fill="none"/>
    </clipPath>
    <clipPath id="clip-path-18">
      <rect id="Rectángulo_379130" data-name="Rectángulo 379130" width="8.971" height="9.744" fill="none"/>
    </clipPath>
    <clipPath id="clip-path-19">
      <rect id="Rectángulo_379125" data-name="Rectángulo 379125" width="0.838" height="0.838" fill="none"/>
    </clipPath>
    <clipPath id="clip-path-24">
      <rect id="Rectángulo_379131" data-name="Rectángulo 379131" width="0.649" height="0.649" fill="none"/>
    </clipPath>
    <clipPath id="clip-path-32">
      <rect id="Rectángulo_379139" data-name="Rectángulo 379139" width="5.029" height="21.317" fill="none"/>
    </clipPath>
    <clipPath id="clip-path-33">
      <rect id="Rectángulo_379140" data-name="Rectángulo 379140" width="59.842" height="81.008" fill="none"/>
    </clipPath>
    <clipPath id="clip-path-34">
      <rect id="Rectángulo_379141" data-name="Rectángulo 379141" width="23.138" height="20.971" fill="none"/>
    </clipPath>
    <clipPath id="clip-path-35">
      <rect id="Rectángulo_379142" data-name="Rectángulo 379142" width="20.035" height="15.934" fill="none"/>
    </clipPath>
    <clipPath id="clip-path-36">
      <rect id="Rectángulo_379143" data-name="Rectángulo 379143" width="18.081" height="15.557" fill="none"/>
    </clipPath>
    <clipPath id="clip-path-37">
      <rect id="Rectángulo_379144" data-name="Rectángulo 379144" width="103.36" height="158.07" fill="none"/>
    </clipPath>
    <clipPath id="clip-path-38">
      <rect id="Rectángulo_379145" data-name="Rectángulo 379145" width="2.956" height="7.213" fill="none"/>
    </clipPath>
    <clipPath id="clip-path-39">
      <rect id="Rectángulo_379146" data-name="Rectángulo 379146" width="6.999" height="5.147" fill="none"/>
    </clipPath>
    <clipPath id="clip-path-40">
      <rect id="Rectángulo_379147" data-name="Rectángulo 379147" width="9.463" height="40.526" fill="none"/>
    </clipPath>
    <clipPath id="clip-path-41">
      <rect id="Rectángulo_379148" data-name="Rectángulo 379148" width="2.254" height="1.133" fill="none"/>
    </clipPath>
    <clipPath id="clip-path-42">
      <rect id="Rectángulo_379149" data-name="Rectángulo 379149" width="4.344" height="4.964" fill="none"/>
    </clipPath>
  </defs>
  <g id="Grupo_1099856" data-name="Grupo 1099856" clip-path="url(#clip-path)">
    <g id="Grupo_1099742" data-name="Grupo 1099742">
      <g id="Grupo_1099741" data-name="Grupo 1099741" clip-path="url(#clip-path-2)">
        <path id="Trazado_874715" data-name="Trazado 874715" d="M251.8,216.4c57.6,33.256,57.6,87.177,0,120.433s-150.994,33.257-208.6,0-57.6-87.177,0-120.433,150.994-33.257,208.6,0" transform="translate(0 -67.537)" fill="#8ad0ce"/>
      </g>
    </g>
    <g id="Grupo_1099744" data-name="Grupo 1099744">
      <g id="Grupo_1099743" data-name="Grupo 1099743" clip-path="url(#clip-path)">
        <path id="Trazado_874716" data-name="Trazado 874716" d="M390.564,351.282c17.315,10,17.314,26.2,0,36.2s-45.388,10-62.7,0-17.314-26.2,0-36.2,45.387-10,62.7,0" transform="translate(-111.076 -121.274)" fill="#53a2a0"/>
        <path id="Trazado_874717" data-name="Trazado 874717" d="M79.24,391.562,31.064,363.749c-1.428-.825-1.428-2.16,0-2.985l120.919-69.812a5.715,5.715,0,0,1,5.169,0l48.177,27.814c1.427.825,1.427,2.16,0,2.985L84.41,391.562a5.715,5.715,0,0,1-5.17,0" transform="translate(-10.581 -102.418)" fill="#53a2a0"/>
        <path id="Trazado_874718" data-name="Trazado 874718" d="M133.162,290.944,5.076,359.41c-1.464.846-1.464,2.217,0,3.062l9.786,5.65a5.861,5.861,0,0,0,5.3,0l128.087-68.466c1.464-.845,1.464-2.216,0-3.061l-9.786-5.65a5.862,5.862,0,0,0-5.3,0" transform="translate(-1.403 -102.41)" fill="#53a2a0"/>
      </g>
    </g>
    <path id="Trazado_874719" data-name="Trazado 874719" d="M268.739,55.429l1.1.658,22.624-13.063-1.1-.658Z" transform="translate(-94.8 -14.945)" fill="#fafafa"/>
    <path id="Trazado_874720" data-name="Trazado 874720" d="M291.965,30.087,270.443,42.51V19.973L291.966,7.557Z" transform="translate(-95.402 -2.666)" fill="#fff"/>
    <path id="Trazado_874721" data-name="Trazado 874721" d="M294.015.99,267.228,16.455V45.094l26.787-15.465Zm-2.082,27.438L269.308,41.491V17.656L291.933,4.593Z" transform="translate(-94.268 -0.349)" fill="#f0f0f0"/>
    <path id="Trazado_874722" data-name="Trazado 874722" d="M304.8,30.392l-1.1-.658V7.2l1.1-.647Z" transform="translate(-107.132 -2.313)" fill="#e0e0e0"/>
    <path id="Trazado_874723" data-name="Trazado 874723" d="M292.284,0,265.5,15.464l1.12.641L293.4.641Z" transform="translate(-93.657)" fill="#fafafa"/>
    <path id="Trazado_874724" data-name="Trazado 874724" d="M265.5,23.894l1.12.641V53.173l-1.12-.641Z" transform="translate(-93.657 -8.429)" fill="#e0e0e0"/>
    <path id="Trazado_874725" data-name="Trazado 874725" d="M291.583,34.4,271.741,45.851V40.124L276.7,28.668l3.09,2.864-1.111,4.8,6.851-14.652,6.051,6.988Z" transform="translate(-95.86 -7.648)" fill="#f0f0f0"/>
    <g id="Grupo_1099746" data-name="Grupo 1099746">
      <g id="Grupo_1099745" data-name="Grupo 1099745" clip-path="url(#clip-path)">
        <path id="Trazado_874726" data-name="Trazado 874726" d="M283.092,23.821a3.244,3.244,0,0,0-1.467,2.542c0,.936.657,1.315,1.467.848a3.246,3.246,0,0,0,1.467-2.542c0-.936-.657-1.315-1.467-.847" transform="translate(-99.346 -8.332)" fill="#f0f0f0"/>
        <path id="Trazado_874727" data-name="Trazado 874727" d="M268.739,109.818l1.1.658,22.624-13.063-1.1-.658Z" transform="translate(-94.8 -34.131)" fill="#fafafa"/>
        <path id="Trazado_874728" data-name="Trazado 874728" d="M291.965,84.476,270.443,96.9V74.362l21.523-12.415Z" transform="translate(-95.402 -21.852)" fill="#fff"/>
        <path id="Trazado_874729" data-name="Trazado 874729" d="M294.015,55.379,267.228,70.844V99.483l26.787-15.465Zm-2.082,27.438L269.308,95.88V72.045l22.624-13.063Z" transform="translate(-94.268 -19.536)" fill="#f0f0f0"/>
        <path id="Trazado_874730" data-name="Trazado 874730" d="M304.8,84.781l-1.1-.658V61.593l1.1-.647Z" transform="translate(-107.132 -21.499)" fill="#e0e0e0"/>
        <path id="Trazado_874731" data-name="Trazado 874731" d="M293.4,55.03l-1.12-.641L265.5,69.854l1.119.641Z" transform="translate(-93.658 -19.186)" fill="#fafafa"/>
        <path id="Trazado_874732" data-name="Trazado 874732" d="M265.5,78.283l1.12.641v28.639l-1.12-.641Z" transform="translate(-93.657 -27.615)" fill="#e0e0e0"/>
        <path id="Trazado_874733" data-name="Trazado 874733" d="M291.583,88.785,271.741,100.24V94.513L276.7,83.057l3.09,2.863-1.111,4.8,6.851-14.652,6.051,6.988Z" transform="translate(-95.86 -26.834)" fill="#f0f0f0"/>
        <path id="Trazado_874734" data-name="Trazado 874734" d="M283.092,78.21a3.244,3.244,0,0,0-1.467,2.542c0,.936.657,1.315,1.467.847a3.244,3.244,0,0,0,1.467-2.542c0-.936-.657-1.315-1.467-.847" transform="translate(-99.346 -27.519)" fill="#f0f0f0"/>
      </g>
    </g>
    <g id="Grupo_1099754" data-name="Grupo 1099754">
      <g id="Grupo_1099753" data-name="Grupo 1099753" clip-path="url(#clip-path)">
        <path id="Trazado_874735" data-name="Trazado 874735" d="M268.948,309.365s-3.249-14.017,3.865-27.7c3.977-7.646,11.545-11.8,15.443-12.065,4.369-.3,8.581,3.645,4.41,8.657-3.962,4.763-11.162,6.6-16.092,19.121a42.625,42.625,0,0,0-3.2,14.436Z" transform="translate(-94.613 -95.1)" fill="#ffc278"/>
        <g id="Grupo_1099749" data-name="Grupo 1099749" transform="translate(173.595 174.488)" opacity="0.5">
          <g id="Grupo_1099748" data-name="Grupo 1099748">
            <g id="Grupo_1099747" data-name="Grupo 1099747" clip-path="url(#clip-path-6)">
              <path id="Trazado_874736" data-name="Trazado 874736" d="M268.948,309.365s-3.249-14.017,3.865-27.7c3.977-7.646,11.545-11.8,15.443-12.065,4.369-.3,8.581,3.645,4.41,8.657-3.962,4.763-11.162,6.6-16.092,19.121a42.625,42.625,0,0,0-3.2,14.436Z" transform="translate(-268.208 -269.588)" fill="#fff"/>
            </g>
          </g>
        </g>
        <path id="Trazado_874737" data-name="Trazado 874737" d="M273.55,307.694a.249.249,0,0,0,.259-.232c-.918-15.447,9.173-28.167,16.631-32.265a.2.2,0,0,0,.077-.3.314.314,0,0,0-.377-.053c-7.566,4.158-17.8,17.037-16.874,32.653a.248.248,0,0,0,.284.2" transform="translate(-96.377 -96.939)" fill="#fff"/>
        <path id="Trazado_874738" data-name="Trazado 874738" d="M274.9,321.172c.861-3.533,3.578-7.805,9.082-11.564s12.96-7.147,12.127-10.6-6.584-3.544-10.726-1.75S271.644,307.3,272.6,319.9Z" transform="translate(-96.138 -104.454)" fill="#ffc278"/>
        <g id="Grupo_1099752" data-name="Grupo 1099752" transform="translate(176.391 191.65)" opacity="0.65">
          <g id="Grupo_1099751" data-name="Grupo 1099751">
            <g id="Grupo_1099750" data-name="Grupo 1099750" clip-path="url(#clip-path-7)">
              <path id="Trazado_874739" data-name="Trazado 874739" d="M274.9,321.172c.861-3.533,3.578-7.805,9.082-11.564s12.96-7.147,12.127-10.6-6.584-3.544-10.726-1.75S271.644,307.3,272.6,319.9Z" transform="translate(-272.529 -296.104)" fill="#fff"/>
            </g>
          </g>
        </g>
        <path id="Trazado_874740" data-name="Trazado 874740" d="M274.777,317.507a.261.261,0,0,0,.256-.194c1.249-7.478,12.684-16.625,17.769-17.952a.219.219,0,0,0,.183-.274.279.279,0,0,0-.339-.138c-5.333,1.391-16.855,10.547-18.152,18.318-.021.12.084.227.233.239a.316.316,0,0,0,.05,0" transform="translate(-96.83 -105.454)" fill="#fff"/>
      </g>
    </g>
    <g id="Grupo_1099765" data-name="Grupo 1099765">
      <g id="Grupo_1099764" data-name="Grupo 1099764" clip-path="url(#clip-path)">
        <path id="Trazado_874741" data-name="Trazado 874741" d="M15.467,258.989a2.017,2.017,0,0,1,1.1-1.617l109.34-68.738V88.042l13.562-16.779a20.129,20.129,0,0,0,3.849-10.886V3.692c0-3.382-2.328-4.676-5.2-2.891L16.572,76.36a2.015,2.015,0,0,0-1.1,1.617Z" transform="translate(-5.456 0)" fill="#ffc278"/>
        <g id="Grupo_1099757" data-name="Grupo 1099757" transform="translate(10.011 14.967)" opacity="0.3">
          <g id="Grupo_1099756" data-name="Grupo 1099756">
            <g id="Grupo_1099755" data-name="Grupo 1099755" clip-path="url(#clip-path-9)">
              <path id="Trazado_874742" data-name="Trazado 874742" d="M135.849,26.966c0-3.382-2.4-4.8-5.358-3.159L19.135,85.42a5.956,5.956,0,0,1-3.639.544,1.431,1.431,0,0,0-.027.17V266.973l.027,0a2.1,2.1,0,0,1,1.078-1.447l109.339-68.739V96.2l9.937-12.294Z" transform="translate(-15.468 -23.125)"/>
            </g>
          </g>
        </g>
        <path id="Trazado_874743" data-name="Trazado 874743" d="M16.469,269.75a5.824,5.824,0,0,0,5.167-.046l111.357-61.613A11.445,11.445,0,0,0,138.35,199V30.238c0-3.382-2.4-4.8-5.358-3.159L21.636,88.692a5.828,5.828,0,0,1-5.167.046,1.725,1.725,0,0,1-1-1.449V268.3a1.724,1.724,0,0,0,1,1.449" transform="translate(-5.457 -9.312)" fill="#ffc278"/>
        <g id="Grupo_1099760" data-name="Grupo 1099760" transform="translate(10.011 17.085)" opacity="0.3">
          <g id="Grupo_1099759" data-name="Grupo 1099759">
            <g id="Grupo_1099758" data-name="Grupo 1099758" clip-path="url(#clip-path-10)">
              <path id="Trazado_874744" data-name="Trazado 874744" d="M16.469,269.75a5.824,5.824,0,0,0,5.167-.046l111.357-61.613A11.445,11.445,0,0,0,138.35,199V30.238c0-3.382-2.4-4.8-5.358-3.159L21.636,88.692a5.828,5.828,0,0,1-5.167.046,1.725,1.725,0,0,1-1-1.449V268.3a1.724,1.724,0,0,0,1,1.449" transform="translate(-15.468 -26.397)" fill="#fff"/>
            </g>
          </g>
        </g>
        <g id="Grupo_1099763" data-name="Grupo 1099763" transform="translate(10.011 77.977)" opacity="0.3">
          <g id="Grupo_1099762" data-name="Grupo 1099762">
            <g id="Grupo_1099761" data-name="Grupo 1099761" clip-path="url(#clip-path-11)">
              <path id="Trazado_874745" data-name="Trazado 874745" d="M18.956,122.5a5.093,5.093,0,0,1-2.489-.579,1.727,1.727,0,0,1-1-1.449V301.489a1.726,1.726,0,0,0,1,1.449,5.086,5.086,0,0,0,2.489.579Z" transform="translate(-15.467 -120.476)" fill="#fff"/>
            </g>
          </g>
        </g>
        <path id="Trazado_874746" data-name="Trazado 874746" d="M38.325,120.421a.306.306,0,0,0-.306.306V290.185a.306.306,0,1,0,.612,0V120.727a.306.306,0,0,0-.306-.306m-9.951,5.744a.306.306,0,0,0-.306.307V295.93a.306.306,0,1,0,.612,0V126.472a.306.306,0,0,0-.306-.307m4.975-2.872a.306.306,0,0,0-.306.306V293.057a.306.306,0,1,0,.612,0V123.6a.306.306,0,0,0-.306-.306" transform="translate(-9.901 -42.48)" fill="#ffc278"/>
      </g>
    </g>
    <path id="Trazado_874747" data-name="Trazado 874747" d="M58.441,98.492l-2.56-1.476L170.787,30.675l2.56,1.476Z" transform="translate(-19.713 -10.821)" fill="#f0f0f0"/>
    <path id="Trazado_874748" data-name="Trazado 874748" d="M60.282,99.762,174.576,33.774V209.548L60.233,275.56Z" transform="translate(-21.248 -11.914)" fill="#fafafa"/>
    <path id="Trazado_874749" data-name="Trazado 874749" d="M174.1,34.016V209.082L60.373,274.741,60.421,99.65Zm.612-1.061L59.809,99.3,59.76,275.8l114.956-66.366Z" transform="translate(-21.081 -11.625)" fill="#ebebeb"/>
    <path id="Trazado_874750" data-name="Trazado 874750" d="M58.441,134.65l-.049,176.505-2.486-1.436-.025-176.546,2.511,1.445Z" transform="translate(-19.713 -46.979)" fill="#e0e0e0"/>
    <g id="Grupo_1099773" data-name="Grupo 1099773">
      <g id="Grupo_1099772" data-name="Grupo 1099772" clip-path="url(#clip-path)">
        <path id="Trazado_874751" data-name="Trazado 874751" d="M209.826,232.406v2.953L94.912,301.7l-1.28-.734A51.24,51.24,0,0,1,68.09,256.719V119.789L183,53.448l2.56,1.476V190.378a48.534,48.534,0,0,0,24.27,42.028" transform="translate(-24.019 -18.854)" fill="#f0f0f0"/>
        <path id="Trazado_874752" data-name="Trazado 874752" d="M186.953,191.185V55.729L72.047,122.07V257.527a48.54,48.54,0,0,0,24.261,42.025L211.22,233.21a48.529,48.529,0,0,1-24.267-42.025M72.61,257.527V122.394L186.384,56.708V191.185A49.232,49.232,0,0,0,210.1,233.2L96.308,298.9a48.106,48.106,0,0,1-23.7-41.37" transform="translate(-25.415 -19.659)" fill="#e0e0e0"/>
        <path id="Trazado_874753" data-name="Trazado 874753" d="M210.407,233.737,96.615,299.43a48.1,48.1,0,0,1-23.7-41.37V122.927L186.691,57.241V191.718a49.233,49.233,0,0,0,23.716,42.019" transform="translate(-25.722 -20.192)" fill="#fafafa"/>
        <path id="Trazado_874754" data-name="Trazado 874754" d="M70.65,292.877V157.423l-2.56-1.476v136.93a51.239,51.239,0,0,0,25.541,44.247l1.28.734V334.9A48.534,48.534,0,0,1,70.65,292.877" transform="translate(-24.019 -55.012)" fill="#e0e0e0"/>
        <g id="Grupo_1099768" data-name="Grupo 1099768" transform="translate(70.891 213.551)" opacity="0.15">
          <g id="Grupo_1099767" data-name="Grupo 1099767">
            <g id="Grupo_1099766" data-name="Grupo 1099766" clip-path="url(#clip-path-13)">
              <path id="Trazado_874755" data-name="Trazado 874755" d="M109.529,396.283v2.953l114.915-66.341v-2.953Z" transform="translate(-109.529 -329.942)"/>
            </g>
          </g>
        </g>
        <path id="Trazado_874756" data-name="Trazado 874756" d="M193.589,102.26l27.425-15.835c.677-.39,1.225-.113,1.225.619a2.625,2.625,0,0,1-1.225,2.034l-27.425,15.834c-.676.391-1.225.113-1.225-.619a2.626,2.626,0,0,1,1.225-2.034" transform="translate(-67.858 -30.425)" fill="#e0e0e0"/>
        <path id="Trazado_874757" data-name="Trazado 874757" d="M193.589,118.659l27.425-15.835c.677-.39,1.225-.113,1.225.62a2.625,2.625,0,0,1-1.225,2.034l-27.425,15.834c-.676.391-1.225.113-1.225-.619a2.627,2.627,0,0,1,1.225-2.034" transform="translate(-67.858 -36.21)" fill="#e0e0e0"/>
        <path id="Trazado_874758" data-name="Trazado 874758" d="M209.45,104.532l17.16-9.909c.676-.39,1.225-.113,1.225.62a2.626,2.626,0,0,1-1.225,2.034l-17.16,9.908c-.676.391-1.225.113-1.225-.619a2.626,2.626,0,0,1,1.225-2.034" transform="translate(-73.454 -33.317)" fill="#e0e0e0"/>
        <path id="Trazado_874759" data-name="Trazado 874759" d="M92.277,189.672,181.9,137.926c.676-.39,1.225-.113,1.225.619a2.626,2.626,0,0,1-1.225,2.034L92.277,192.325c-.676.391-1.225.113-1.225-.619a2.626,2.626,0,0,1,1.225-2.034" transform="translate(-32.12 -48.592)" fill="#e0e0e0"/>
        <path id="Trazado_874760" data-name="Trazado 874760" d="M92.277,197.872,181.9,146.125c.676-.391,1.225-.113,1.225.619a2.626,2.626,0,0,1-1.225,2.034L92.277,200.525c-.676.39-1.225.113-1.225-.619a2.626,2.626,0,0,1,1.225-2.034" transform="translate(-32.12 -51.485)" fill="#e0e0e0"/>
        <path id="Trazado_874761" data-name="Trazado 874761" d="M92.277,206.071,181.9,154.325c.676-.39,1.225-.113,1.225.619a2.627,2.627,0,0,1-1.225,2.034L92.277,208.724c-.676.391-1.225.113-1.225-.619a2.626,2.626,0,0,1,1.225-2.034" transform="translate(-32.12 -54.377)" fill="#e0e0e0"/>
        <path id="Trazado_874762" data-name="Trazado 874762" d="M92.278,214.271l89.627-51.746c.676-.39,1.225-.113,1.225.619a2.626,2.626,0,0,1-1.225,2.034L92.278,216.924c-.676.391-1.225.113-1.225-.619a2.627,2.627,0,0,1,1.225-2.034" transform="translate(-32.12 -57.27)" fill="#e0e0e0"/>
        <path id="Trazado_874763" data-name="Trazado 874763" d="M92.277,230.825,181.9,179.078c.676-.391,1.225-.113,1.225.619a2.627,2.627,0,0,1-1.225,2.034L92.277,233.478c-.676.39-1.225.113-1.225-.619a2.626,2.626,0,0,1,1.225-2.034" transform="translate(-32.12 -63.109)" fill="#e0e0e0"/>
        <path id="Trazado_874764" data-name="Trazado 874764" d="M92.277,239.025,181.9,187.279c.676-.39,1.225-.113,1.225.619a2.626,2.626,0,0,1-1.225,2.034L92.277,241.678c-.676.391-1.225.113-1.225-.619a2.626,2.626,0,0,1,1.225-2.034" transform="translate(-32.12 -66.002)" fill="#e0e0e0"/>
        <path id="Trazado_874765" data-name="Trazado 874765" d="M92.277,247.225,181.9,195.479c.676-.39,1.225-.113,1.225.619a2.626,2.626,0,0,1-1.225,2.034L92.277,249.878c-.676.391-1.225.113-1.225-.619a2.626,2.626,0,0,1,1.225-2.034" transform="translate(-32.12 -68.895)" fill="#e0e0e0"/>
        <path id="Trazado_874766" data-name="Trazado 874766" d="M92.278,255.424l89.627-51.745c.676-.391,1.225-.113,1.225.619a2.625,2.625,0,0,1-1.225,2.034L92.278,258.078c-.676.39-1.225.113-1.225-.619a2.629,2.629,0,0,1,1.225-2.035" transform="translate(-32.12 -71.787)" fill="#e0e0e0"/>
        <path id="Trazado_874767" data-name="Trazado 874767" d="M92.277,271.978,181.9,220.232c.676-.39,1.225-.113,1.225.619a2.626,2.626,0,0,1-1.225,2.034L92.277,274.631c-.676.391-1.225.113-1.225-.619a2.626,2.626,0,0,1,1.225-2.034" transform="translate(-32.12 -77.627)" fill="#e0e0e0"/>
        <path id="Trazado_874768" data-name="Trazado 874768" d="M92.277,280.178,181.9,228.432c.676-.39,1.225-.113,1.225.619a2.627,2.627,0,0,1-1.225,2.034L92.277,282.831c-.676.39-1.225.113-1.225-.619a2.626,2.626,0,0,1,1.225-2.034" transform="translate(-32.12 -80.519)" fill="#e0e0e0"/>
        <path id="Trazado_874769" data-name="Trazado 874769" d="M92.277,301.455,140.31,273.7c.676-.39,1.225-.113,1.225.62a2.626,2.626,0,0,1-1.225,2.034L92.277,304.109c-.676.39-1.225.113-1.225-.619a2.626,2.626,0,0,1,1.225-2.034" transform="translate(-32.12 -96.49)" fill="#e0e0e0"/>
        <path id="Trazado_874770" data-name="Trazado 874770" d="M92.277,321.093l31.913-18.453c.677-.39,1.225-.113,1.225.619a2.625,2.625,0,0,1-1.225,2.034L92.277,323.747c-.676.39-1.225.113-1.225-.619a2.626,2.626,0,0,1,1.225-2.034" transform="translate(-32.12 -106.697)" fill="#ffc278"/>
        <path id="Trazado_874771" data-name="Trazado 874771" d="M99.43,185.969a.882.882,0,0,1,.1-.355.522.522,0,0,1,.182-.2l.8-.46a.16.16,0,0,1,.192,0,.289.289,0,0,1,.074.253,7.315,7.315,0,0,1-.2,1.359,6.6,6.6,0,0,1-1.422,2.759,4.988,4.988,0,0,1-1.308,1.074,2.392,2.392,0,0,1-1.2.383,1.278,1.278,0,0,1-.885-.352,2.25,2.25,0,0,1-.566-1,6.2,6.2,0,0,1-.241-1.542q-.02-.564-.02-1.261t.02-1.283a10.094,10.094,0,0,1,.241-1.82,7.884,7.884,0,0,1,.566-1.652,6.281,6.281,0,0,1,.885-1.375,4.557,4.557,0,0,1,1.2-1,2.691,2.691,0,0,1,1.308-.438,1.378,1.378,0,0,1,.9.3,1.741,1.741,0,0,1,.526.825,4.291,4.291,0,0,1,.2,1.118.647.647,0,0,1-.074.338.529.529,0,0,1-.192.225l-.8.46a.183.183,0,0,1-.187.01c-.059-.032-.1-.109-.108-.233a1.521,1.521,0,0,0-.138-.511.813.813,0,0,0-.3-.345.763.763,0,0,0-.472-.1,1.629,1.629,0,0,0-.669.243,2.435,2.435,0,0,0-.669.568,3.53,3.53,0,0,0-.478.76,4.257,4.257,0,0,0-.295.9,5.684,5.684,0,0,0-.122.964c-.014.393-.02.821-.02,1.285s.006.885.02,1.261a3.5,3.5,0,0,0,.122.83,1.255,1.255,0,0,0,.295.549.711.711,0,0,0,.478.21,1.242,1.242,0,0,0,.669-.2,2.818,2.818,0,0,0,.669-.531,3.487,3.487,0,0,0,.478-.646,3.54,3.54,0,0,0,.3-.689,3.388,3.388,0,0,0,.137-.67" transform="translate(-33.489 -63.163)" fill="#ffc278"/>
        <path id="Trazado_874772" data-name="Trazado 874772" d="M105.367,179.272a9.932,9.932,0,0,1,.211-1.72,7.476,7.476,0,0,1,.537-1.612,6.3,6.3,0,0,1,.885-1.39,4.71,4.71,0,0,1,1.259-1.053,2.488,2.488,0,0,1,1.25-.4,1.241,1.241,0,0,1,.885.368,2.293,2.293,0,0,1,.542.99,6.008,6.008,0,0,1,.216,1.48c.006.189.012.4.014.628s.006.469.006.716,0,.489-.006.722-.008.45-.014.645a9.787,9.787,0,0,1-.212,1.72,7.47,7.47,0,0,1-.537,1.613,6.077,6.077,0,0,1-.89,1.384,4.769,4.769,0,0,1-1.255,1.042,2.5,2.5,0,0,1-1.259.409,1.253,1.253,0,0,1-.885-.359,2.2,2.2,0,0,1-.537-.994,6.3,6.3,0,0,1-.211-1.476c-.007-.188-.011-.4-.015-.628s0-.469,0-.717,0-.488,0-.722.008-.449.015-.645m4.457-2.5a1.951,1.951,0,0,0-.458-1.425q-.418-.356-1.107.041a2.838,2.838,0,0,0-1.106,1.238,4.7,4.7,0,0,0-.458,1.953q-.02.586-.019,1.292t.019,1.268a1.914,1.914,0,0,0,.458,1.417q.417.35,1.106-.049a2.832,2.832,0,0,0,1.107-1.229,4.67,4.67,0,0,0,.458-1.946c.012-.391.02-.821.02-1.291s-.008-.893-.02-1.269" transform="translate(-37.163 -61.061)" fill="#ffc278"/>
        <path id="Trazado_874773" data-name="Trazado 874773" d="M120.789,176.6c-.112.065-.2.068-.256.012a1.136,1.136,0,0,1-.128-.139l-2.755-4.711V178a.777.777,0,0,1-.078.333.494.494,0,0,1-.187.229l-.8.46a.141.141,0,0,1-.187-.013.32.32,0,0,1-.079-.242v-9.786a.769.769,0,0,1,.079-.333.5.5,0,0,1,.187-.229l.689-.4c.111-.065.2-.068.256-.012a1.252,1.252,0,0,1,.128.139l2.755,4.711v-6.241a.779.779,0,0,1,.079-.334.493.493,0,0,1,.187-.229l.8-.46a.143.143,0,0,1,.188.013.324.324,0,0,1,.079.242v9.786a.776.776,0,0,1-.079.333.5.5,0,0,1-.188.23Z" transform="translate(-41.034 -58.407)" fill="#ffc278"/>
        <path id="Trazado_874774" data-name="Trazado 874774" d="M131.354,159.9a.143.143,0,0,1,.186.014.322.322,0,0,1,.079.242v1.076a.766.766,0,0,1-.079.333.5.5,0,0,1-.186.23l-1.772,1.023v8.3a.766.766,0,0,1-.079.333.49.49,0,0,1-.187.229l-.8.46a.142.142,0,0,1-.187-.014.324.324,0,0,1-.079-.243v-8.3l-1.771,1.023a.141.141,0,0,1-.186-.014.318.318,0,0,1-.079-.242v-1.076a.759.759,0,0,1,.079-.333.5.5,0,0,1,.186-.23Z" transform="translate(-44.525 -56.398)" fill="#ffc278"/>
        <path id="Trazado_874775" data-name="Trazado 874775" d="M138.886,156.078q1.23-.71,1.869-.2a2.58,2.58,0,0,1,.64,2.07,6.414,6.414,0,0,1-.33,2.077,5.184,5.184,0,0,1-.969,1.717l1.359,2.958a.4.4,0,0,1,.029.15.628.628,0,0,1-.064.271.393.393,0,0,1-.153.186l-.836.483q-.2.114-.29.023a.536.536,0,0,1-.133-.188l-1.289-2.785-1.308.755v3.529a.773.773,0,0,1-.079.333.489.489,0,0,1-.187.228l-.8.461a.142.142,0,0,1-.187-.013.326.326,0,0,1-.079-.243v-9.786a.775.775,0,0,1,.079-.333.492.492,0,0,1,.187-.23Zm-1.475,5.624,1.427-.823a2.677,2.677,0,0,0,.9-.82,2.378,2.378,0,0,0,.335-1.344q0-.849-.335-.944a1.232,1.232,0,0,0-.9.23l-1.427.823Z" transform="translate(-48.004 -54.912)" fill="#ffc278"/>
        <path id="Trazado_874776" data-name="Trazado 874776" d="M149.156,150.01c.1-.06.183-.062.236-.007a.749.749,0,0,1,.137.307l2.411,8.182a.434.434,0,0,1,.01.1.764.764,0,0,1-.079.333.5.5,0,0,1-.187.23l-.708.409c-.131.075-.223.085-.276.03a.449.449,0,0,1-.108-.187l-.423-1.437-3.109,1.794-.423,1.926a1.542,1.542,0,0,1-.108.313.638.638,0,0,1-.276.287l-.708.409a.142.142,0,0,1-.187-.014.322.322,0,0,1-.079-.241.6.6,0,0,1,.01-.112l2.41-10.966a2.181,2.181,0,0,1,.138-.465.564.564,0,0,1,.236-.265Zm.541,6.338-1.082-3.693-1.082,4.942Z" transform="translate(-51.249 -52.901)" fill="#ffc278"/>
        <path id="Trazado_874777" data-name="Trazado 874777" d="M160.842,150.513a.881.881,0,0,1,.1-.355.522.522,0,0,1,.182-.2l.8-.46a.159.159,0,0,1,.192,0,.289.289,0,0,1,.074.253,7.261,7.261,0,0,1-.2,1.359,6.551,6.551,0,0,1-.526,1.425,6.624,6.624,0,0,1-.9,1.335,4.994,4.994,0,0,1-1.309,1.074,2.386,2.386,0,0,1-1.2.383,1.276,1.276,0,0,1-.885-.352,2.245,2.245,0,0,1-.566-1,6.232,6.232,0,0,1-.241-1.542q-.02-.564-.02-1.261t.02-1.283a10.156,10.156,0,0,1,.241-1.82,7.85,7.85,0,0,1,.566-1.652,6.234,6.234,0,0,1,.885-1.375,4.562,4.562,0,0,1,1.2-1,2.7,2.7,0,0,1,1.309-.438,1.377,1.377,0,0,1,.9.3,1.738,1.738,0,0,1,.526.825,4.264,4.264,0,0,1,.2,1.118.647.647,0,0,1-.074.338.524.524,0,0,1-.192.225l-.8.46a.183.183,0,0,1-.187.01c-.059-.032-.1-.109-.108-.233a1.522,1.522,0,0,0-.138-.511.809.809,0,0,0-.3-.345.763.763,0,0,0-.472-.1,1.635,1.635,0,0,0-.669.243,2.442,2.442,0,0,0-.669.568,3.527,3.527,0,0,0-.477.76,4.221,4.221,0,0,0-.3.9,5.751,5.751,0,0,0-.123.964q-.02.589-.019,1.285t.019,1.261a3.529,3.529,0,0,0,.123.83,1.249,1.249,0,0,0,.3.549.709.709,0,0,0,.477.21,1.238,1.238,0,0,0,.669-.2,2.809,2.809,0,0,0,.669-.531,3.421,3.421,0,0,0,.777-1.335,3.347,3.347,0,0,0,.138-.67" transform="translate(-55.153 -50.656)" fill="#ffc278"/>
        <path id="Trazado_874778" data-name="Trazado 874778" d="M171.438,136.76a.142.142,0,0,1,.186.013.327.327,0,0,1,.079.243v1.075a.776.776,0,0,1-.079.333.5.5,0,0,1-.186.229l-1.772,1.023v8.3a.744.744,0,0,1-.079.333.486.486,0,0,1-.186.229l-.8.461a.143.143,0,0,1-.187-.014.325.325,0,0,1-.078-.242v-8.3l-1.77,1.023a.143.143,0,0,1-.188-.014.32.32,0,0,1-.079-.241v-1.076a.777.777,0,0,1,.079-.333.5.5,0,0,1,.188-.23Z" transform="translate(-58.664 -48.233)" fill="#ffc278"/>
        <g id="Grupo_1099771" data-name="Grupo 1099771" transform="translate(126.428 171.972)" opacity="0.2">
          <g id="Grupo_1099770" data-name="Grupo 1099770">
            <g id="Grupo_1099769" data-name="Grupo 1099769" clip-path="url(#clip-path-14)">
              <path id="Trazado_874779" data-name="Trazado 874779" d="M208.512,272.8v-2.77c-6.128,3.538-11.114,13.065-11.114,21.235l2.078-1.2c0-6.644,4.054-14.389,9.037-17.266m8.011,7.423c0-5.89-3.593-8.606-8.011-6.056s-8.011,9.417-8.011,15.307,3.593,8.606,8.011,6.056,8.011-9.417,8.011-15.307m-14.983,8.65c0-5.126,3.127-11.1,6.972-13.322a7.361,7.361,0,0,1,.795-.394L201.589,289.9c-.03-.331-.049-.672-.049-1.032m.3,2.512,8.687-16.6c2.246-.392,4.013.966,4.674,3.588L206.554,294.9c-2.253.419-4.036-.907-4.715-3.51m13.606-11.519c.025.307.039.626.039.957,0,5.125-3.127,11.1-6.972,13.321a7.373,7.373,0,0,1-.734.371Zm-6.933-12.59c-7.267,4.2-13.179,15.491-13.179,25.18s5.913,14.158,13.179,9.963,13.179-15.492,13.179-25.181-5.912-14.158-13.179-9.962m0,33.758c-6.694,3.865-12.14-.252-12.14-9.178s5.447-19.33,12.14-23.2,12.14.252,12.14,9.177-5.446,19.331-12.14,23.2m9.037-21.4c0,6.644-4.054,14.389-9.037,17.266v2.77c6.129-3.538,11.114-13.065,11.114-21.236Z" transform="translate(-195.334 -265.701)" fill="#ffc278"/>
            </g>
          </g>
        </g>
        <path id="Trazado_874780" data-name="Trazado 874780" d="M153.471,345.925l-49.428,28.556a.889.889,0,0,1-1.343-.506l-.027-.082a1.474,1.474,0,0,1,.647-1.647l49.427-28.561a.865.865,0,0,1,1.313.516c.01.028.019.058.028.086a1.446,1.446,0,0,1-.617,1.638" transform="translate(-36.198 -121.19)" fill="#e0e0e0"/>
        <path id="Trazado_874781" data-name="Trazado 874781" d="M143.1,366.958l-34.617,20.061a1,1,0,0,1-1.445-.466l-.021-.046a1.312,1.312,0,0,1,.543-1.61l34.617-20.061a.973.973,0,0,1,1.416.479l.02.047a1.282,1.282,0,0,1-.513,1.6" transform="translate(-37.719 -128.649)" fill="#e0e0e0"/>
        <path id="Trazado_874782" data-name="Trazado 874782" d="M230.868,316.622l-34.617,20.061a1,1,0,0,1-1.445-.466l-.02-.046a1.312,1.312,0,0,1,.543-1.61L229.945,314.5a.973.973,0,0,1,1.416.479l.02.047a1.282,1.282,0,0,1-.513,1.6" transform="translate(-68.679 -110.893)" fill="#e0e0e0"/>
        <path id="Trazado_874783" data-name="Trazado 874783" d="M135.237,330.537a10.416,10.416,0,0,1-2.775,3.845,1.049,1.049,0,0,1-.4.26c-.241.044-.317-.159-.351-.433a5.661,5.661,0,0,1,.082-1.342c.1-.888.234-1.771.38-2.65.235-1.417.5-2.828.774-4.236.251-.6.494-1.2.722-1.812a47.018,47.018,0,0,0,1.648-5.435,14.159,14.159,0,0,0,.5-5.654c-.032-.183-.273-.32-.362-.122a27.809,27.809,0,0,0-1.437,5.7q-.676,3.3-1.359,6.6c-.03.146-.06.292-.09.438-.436,1.043-.906,2.061-1.414,3.049q-.449.873-.932,1.713a11,11,0,0,1-.972,1.561c-.5.591-1.146.4-1.441-.352a2.52,2.52,0,0,1-.132-.507,6.261,6.261,0,0,0,1.147-1.6,13.435,13.435,0,0,0,.924-2.07,14.385,14.385,0,0,0,.6-2.344c.089-.523.28-1.325-.039-1.767-.355-.493-.77-.041-1.012.375a14.243,14.243,0,0,0-1.005,2.134,13.176,13.176,0,0,0-1.01,4.8c0,.063.008.126.013.188-.05.043-.1.085-.153.122a.9.9,0,0,1-1.485-.751c-.005-.256-.307-.361-.408-.137a25.784,25.784,0,0,1-.8,2.467c-.19.323-.55.722-.867.489a.69.69,0,0,1-.249-.568c.039-.115.08-.23.117-.346.078-.244-.248-.421-.368-.249a.951.951,0,0,0-.173.5q-.3.871-.654,1.7a5.558,5.558,0,0,1-.008-1.782c.035-.236-.357-.385-.407-.138a16.594,16.594,0,0,1-.65,2.32c-.139.384-.293.76-.461,1.126a4.242,4.242,0,0,1-.68,1.184c-.131.133-.317.255-.481.159-.2-.115-.184-.5-.19-.751-.009-.424,0-.851.028-1.275a15.173,15.173,0,0,1,.4-2.468c.068-.279-.332-.458-.413-.183a29.048,29.048,0,0,1-1.392,3.776c-.266.587-.546,1.172-.856,1.722-.144.255-.514.835-.825.819.061-.115.123-.228.183-.344a28.887,28.887,0,0,0,1.794-4.1,17.914,17.914,0,0,0,1-4.4,1.238,1.238,0,0,0-.361-1.115,6.7,6.7,0,0,0,.05-2.3,1.707,1.707,0,0,0-2.236-1.542,6.678,6.678,0,0,0-2.926,2.676,28.376,28.376,0,0,0-3.775,7.326A32.409,32.409,0,0,0,108.913,339a8.587,8.587,0,0,0-.177,4.307c1.1,3.158,4.158.247,5.4-1.287a20.889,20.889,0,0,0,1.97-3,.894.894,0,0,0,.982-.323,6.47,6.47,0,0,0,.986-1.672c.344-.71.66-1.443.948-2.193q-.027.418-.032.838a2.994,2.994,0,0,0,.157,1.393.715.715,0,0,0,.694.373c.7-.067,1.1-1.168,1.405-1.864a15.552,15.552,0,0,0,.6-1.642,6.067,6.067,0,0,0,.2.856.2.2,0,0,0,.366.047c.263-.56.5-1.136.718-1.725a.916.916,0,0,0,.888.45c.953-.229,1.126-1.584,1.427-2.643a1.447,1.447,0,0,0,.562.579,1.28,1.28,0,0,0,1.375-.1,2.141,2.141,0,0,0,.6,1.111.981.981,0,0,0,1.351.079,6.839,6.839,0,0,0,1.252-1.835q.607-1.05,1.159-2.152c.142-.284.278-.571.415-.859-.236,1.2-.457,2.4-.639,3.612-.076.512-.147,1.025-.208,1.54a5.9,5.9,0,0,0-.076,1.32c.078.71.531,1.106,1.068.889a3.266,3.266,0,0,0,.913-.714,9.653,9.653,0,0,0,.96-1.074,11.839,11.839,0,0,0,1.471-2.592c.106-.248-.3-.44-.412-.184m-.9-11.406c.215-1.066.425-2.134.647-3.2a16.381,16.381,0,0,1,.544-2.043,13.148,13.148,0,0,1-.362,3.445c-.285,1.322-.617,2.63-1,3.911q-.322,1.076-.7,2.125c.29-1.414.584-2.826.87-4.24m-19.532,21.088a13.286,13.286,0,0,1-2.334,2.812,7.075,7.075,0,0,1-1.346.938c-.464.244-.98.423-1.419.036-.843-.746-.751-2.283-.574-3.44a31.225,31.225,0,0,1,.761-3.548,30.2,30.2,0,0,1,2.654-6.56,25.436,25.436,0,0,1,1.882-2.927c.735-.984,1.61-2.075,2.687-2.293,1.543-.312,1.638,1.508,1.337,3.324a2.133,2.133,0,0,0-1.213.771,9.128,9.128,0,0,0-1.657,3.823,12.553,12.553,0,0,0-.232,1.347,2.675,2.675,0,0,1-1.283.438c-.678.019-.581-1.136-.509-1.743a7.793,7.793,0,0,1,.493-1.938c.062-.157-.2-.385-.272-.222a8.206,8.206,0,0,0-.6,2.169,2.648,2.648,0,0,0,.221,1.844c.353.469.926.353,1.375.223a3.38,3.38,0,0,0,.521-.206,10.146,10.146,0,0,0,.1,2.4,3.753,3.753,0,0,0,.34,1.2c-.3.532-.612,1.049-.933,1.548m3.544-11.1a14.924,14.924,0,0,1-.705,2.421,6.76,6.76,0,0,1-1.769,2.588,12.974,12.974,0,0,1,.816-2.861,5.786,5.786,0,0,1,.911-1.58,2.114,2.114,0,0,1,.666-.53c.03-.015.056-.026.082-.037M116,338.2c-.055-.192-.087-.412-.115-.561a8.516,8.516,0,0,1-.128-.957,10.22,10.22,0,0,1,.03-1.877l0-.025a4.673,4.673,0,0,0,.594-.466,8.238,8.238,0,0,0,2.063-3.623c.135-.439.27-.92.381-1.417a.87.87,0,0,1,.017.132,2.406,2.406,0,0,1-.026.458,19.3,19.3,0,0,1-.83,3.719A28,28,0,0,1,116,338.2m11.773-8.927a15.268,15.268,0,0,1,1.1-3.775,7.666,7.666,0,0,1,.885-1.689c.038-.046.221-.243.283-.192.032.027.036.2.039.239a2.359,2.359,0,0,1-.03.463c-.045.353-.1.7-.17,1.05a13.492,13.492,0,0,1-1.436,3.957,7.66,7.66,0,0,1-.8,1.209,8.888,8.888,0,0,1,.129-1.262m20.856-6.248c-.067-.019-.133-.028-.2-.042.052-1.013.055-2.029.038-3.024-.033-1.915-.159-3.825-.372-5.715-.021-.194-.047-.388-.074-.583.1-.582.181-1.167.241-1.755.117-1.144.194-2.573-.643-3.266-.109-.091-.284-.087-.315.113a13.8,13.8,0,0,0,.2,3.962c.031.223.057.447.085.67-.151.938-.344,1.865-.58,2.774a28.616,28.616,0,0,1-1.127,3.439c-.224.559-.46,1.111-.717,1.645a2.957,2.957,0,0,1-1.122,1.441,1.546,1.546,0,0,1-.139-.728c.008-.241-.312-.4-.372-.128a1.319,1.319,0,0,1-.056.186c.056-.641.126-1.279.223-1.914.034-.214-.313-.4-.369-.171a11.868,11.868,0,0,1-.742,2.14,10.2,10.2,0,0,1-.55,1.041c-.119.195-.375.619-.586.592-.482-.063-.122-1.914-.032-2.327.025-.116.057-.229.087-.343.247-.566.476-1.146.68-1.742.08-.233-.238-.446-.342-.231a9.589,9.589,0,0,0-.477,1.181,26.267,26.267,0,0,1-2.027,3.9c-.472.737-1.093,1.881-1.876,2-.45.069-.6-.331-.615-.852a14.546,14.546,0,0,0,2.057-2.851c.425-.766,2.483-4.981.582-4.8-.832.08-1.348,1.161-1.713,2.02a17.624,17.624,0,0,0-1.031,3.315c-.113.544-.209,1.1-.269,1.658-.017.158-.029.322-.032.487a12.3,12.3,0,0,1-1.975,1.716c-.152.1.078.407.215.316a12.018,12.018,0,0,0,1.8-1.481,1.506,1.506,0,0,0,.14.417c.462.879,1.41.447,1.937-.1a14.654,14.654,0,0,0,2.032-3.074c.111-.2.217-.414.322-.623-.089.674-.128,1.532.334,1.775.553.292,1.033-.531,1.316-1.03a10.252,10.252,0,0,0,.531-1.1c-.016.225-.03.45-.041.676-.008.167.165.342.289.254a1.3,1.3,0,0,0,.28-.281,1.973,1.973,0,0,0,.211.474.217.217,0,0,0,.232.1c1.093-.32,1.681-1.983,2.166-3.162a28.906,28.906,0,0,0,1.277-3.9c.093-.369.179-.742.259-1.117q.117,1.209.185,2.426a47.524,47.524,0,0,1,.041,5.518,4.359,4.359,0,0,0-2.535.878,11.408,11.408,0,0,0-2.808,2.512,5.229,5.229,0,0,0-1.094,3.493,2.646,2.646,0,0,0,1.568,2.5c1.962.6,3.6-1.907,4.347-3.981a18.109,18.109,0,0,0,.927-4.907c.07.01.139.013.21.028.274.062.245-.359.016-.427m-11.551.44a17.991,17.991,0,0,1,.722-2.669,6.266,6.266,0,0,1,1.28-2.46c.124-.112.451-.363.6-.267.246.154.2.477.157.76a6.742,6.742,0,0,1-.382,1.428,14.751,14.751,0,0,1-1.2,2.455,14.585,14.585,0,0,1-1.377,1.915c.051-.461.146-.913.194-1.162m10.705-11.4a11.753,11.753,0,0,1-.129-2.786,4.951,4.951,0,0,1,.129,2.786m-.114,13.7c-.41,2.261-1.327,4.84-3.063,5.823a1.5,1.5,0,0,1-2.3-.689,4.25,4.25,0,0,1,.254-3.478,8.744,8.744,0,0,1,2.775-2.882,4.943,4.943,0,0,1,2.626-1.137,23.41,23.41,0,0,1-.3,2.362" transform="translate(-38.28 -108.857)" fill="#455a64"/>
        <path id="Trazado_874784" data-name="Trazado 874784" d="M68.611,367.125A48,48,0,0,0,70.1,377.756l13.916-8.006,3.714-10.787-3.714-.7Z" transform="translate(-24.203 -126.38)" fill="#e0e0e0"/>
      </g>
    </g>
    <path id="Trazado_874785" data-name="Trazado 874785" d="M75.556,354.908l-27.361,15.8v11.488l27.361-15.8,4.975-8.617Z" transform="translate(-17.001 -125.198)" fill="#ffc278"/>
    <g id="Grupo_1099775" data-name="Grupo 1099775">
      <g id="Grupo_1099774" data-name="Grupo 1099774" clip-path="url(#clip-path)">
        <path id="Trazado_874786" data-name="Trazado 874786" d="M62.764,374.076a.08.08,0,0,1,.1.007.183.183,0,0,1,.043.136V379.7a.431.431,0,0,1-.043.186.286.286,0,0,1-.1.129l-.447.258a.079.079,0,0,1-.1-.007.182.182,0,0,1-.044-.135v-2.24l-1.665.961v2.24a.445.445,0,0,1-.043.186.283.283,0,0,1-.1.128l-.447.258a.081.081,0,0,1-.1,0,.177.177,0,0,1-.045-.14v-5.481a.419.419,0,0,1,.045-.186.278.278,0,0,1,.1-.128l.447-.258a.081.081,0,0,1,.1.006.189.189,0,0,1,.043.137v2.181l1.665-.96v-2.181a.444.444,0,0,1,.044-.188.29.29,0,0,1,.1-.128Z" transform="translate(-21.081 -131.954)" fill="#fff"/>
        <path id="Trazado_874787" data-name="Trazado 874787" d="M68.527,375.777a.081.081,0,0,1,.1.008.182.182,0,0,1,.043.135v.6a.435.435,0,0,1-.043.186.284.284,0,0,1-.1.128l-2.419,1.4a.079.079,0,0,1-.1-.007.179.179,0,0,1-.044-.136v-5.481a.432.432,0,0,1,.044-.187.282.282,0,0,1,.1-.128l2.375-1.371a.079.079,0,0,1,.1.008.178.178,0,0,1,.045.135v.6a.428.428,0,0,1-.045.186.278.278,0,0,1-.1.128L66.7,373.012v1.349l1.659-.957a.08.08,0,0,1,.1.008.181.181,0,0,1,.044.135v.6a.432.432,0,0,1-.044.187.283.283,0,0,1-.1.128l-1.659.957v1.409Z" transform="translate(-23.268 -130.842)" fill="#fff"/>
        <path id="Trazado_874788" data-name="Trazado 874788" d="M72.783,368.625q.688-.4,1.047-.113a1.447,1.447,0,0,1,.358,1.159A3.6,3.6,0,0,1,74,370.835a2.919,2.919,0,0,1-.542.962l.76,1.657a.227.227,0,0,1,.017.084.349.349,0,0,1-.036.151.231.231,0,0,1-.085.1l-.468.271c-.074.042-.128.047-.162.013a.3.3,0,0,1-.075-.105l-.722-1.56-.733.423v1.977a.432.432,0,0,1-.044.186.273.273,0,0,1-.105.128l-.446.259a.081.081,0,0,1-.1-.008.181.181,0,0,1-.044-.135v-5.481a.436.436,0,0,1,.044-.186.272.272,0,0,1,.1-.128Zm-.827,3.15.8-.461a1.489,1.489,0,0,0,.5-.46,1.327,1.327,0,0,0,.188-.753c0-.317-.063-.492-.188-.528a.688.688,0,0,0-.5.128l-.8.462Z" transform="translate(-25.121 -129.955)" fill="#fff"/>
        <path id="Trazado_874789" data-name="Trazado 874789" d="M79.485,369.45a.081.081,0,0,1,.1.008.182.182,0,0,1,.043.135v.6a.435.435,0,0,1-.043.186.284.284,0,0,1-.1.128l-2.419,1.4a.079.079,0,0,1-.1-.007.178.178,0,0,1-.044-.135v-5.482a.432.432,0,0,1,.044-.187.278.278,0,0,1,.1-.128l2.375-1.372a.079.079,0,0,1,.1.008.178.178,0,0,1,.045.135v.6a.428.428,0,0,1-.045.186.275.275,0,0,1-.1.128l-1.78,1.027v1.349l1.658-.957a.08.08,0,0,1,.1.008.181.181,0,0,1,.044.135v.6a.432.432,0,0,1-.044.187.275.275,0,0,1-.1.128l-1.658.957V370.5Z" transform="translate(-27.133 -128.61)" fill="#fff"/>
      </g>
    </g>
    <path id="Trazado_874790" data-name="Trazado 874790" d="M361.928,372.109l-3.838-1.464,1.269-2.6,2.357,2.212Z" transform="translate(-126.32 -129.833)"/>
    <g id="Grupo_1099855" data-name="Grupo 1099855">
      <g id="Grupo_1099854" data-name="Grupo 1099854" clip-path="url(#clip-path)">
        <path id="Trazado_874791" data-name="Trazado 874791" d="M354.1,363.633s.141,2.5.172,3.293-3.343,3.225-4.179,3.626l-.213-1.849a14.3,14.3,0,0,0-1.94,2.979c-.652,1.122-1.487,3.245-3.274,4.687-2.652,2.14-6.773,3.213-10.973,3.346s-6.6-.91-7.789-1.827a2.773,2.773,0,0,1-1.259-3.049c.3-1.065,29.456-11.206,29.456-11.206" transform="translate(-114.487 -128.275)" fill="#263238"/>
        <path id="Trazado_874792" data-name="Trazado 874792" d="M342.711,349.561l-.044-1.453c-.773-.027-.876,2.076-2.015,3.916a37.536,37.536,0,0,1-5.946,7.529c-4.276,3.86-8.088,6.279-10,8.017-2.554,2.326,1.9,6.061,8.751,5.71,3.4-.175,9.454-1.856,11.161-3.859s2.766-5.13,4.133-6.584,4.293-2.912,5.148-4.681c.47-.972.235-3.246-.034-5.179-.247-1.774-.287-4.492-1.287-4.276l-.075.912c-.412.773-1.364,2.049-4.11,2.5-1.371.225-5.457.328-5.687-2.55" transform="translate(-114.288 -122.799)" fill="#37474f"/>
        <g id="Grupo_1099778" data-name="Grupo 1099778" transform="translate(218.705 227.595)" opacity="0.15">
          <g id="Grupo_1099777" data-name="Grupo 1099777">
            <g id="Grupo_1099776" data-name="Grupo 1099776" clip-path="url(#clip-path-17)">
              <path id="Trazado_874793" data-name="Trazado 874793" d="M351.106,353.419c-1.309-.119-2.716-.559-3.259-1.742-.006-.014-.017-.024-.023-.038a3.321,3.321,0,0,1-.9,2.788c-1.232,1.428-9.022,11.5-9.022,11.5s7.246-8.308,8.635-9.872c2.055-2.313,2.7-2.581,4.574-2.637l-.006,0" transform="translate(-337.904 -351.639)"/>
            </g>
          </g>
        </g>
        <g id="Grupo_1099796" data-name="Grupo 1099796" transform="translate(222.048 231.583)">
          <g id="Grupo_1099795" data-name="Grupo 1099795">
            <g id="Grupo_1099794" data-name="Grupo 1099794" clip-path="url(#clip-path-18)">
              <g id="Grupo_1099781" data-name="Grupo 1099781" transform="translate(8.133)" opacity="0.15">
                <g id="Grupo_1099780" data-name="Grupo 1099780">
                  <g id="Grupo_1099779" data-name="Grupo 1099779" clip-path="url(#clip-path-19)">
                    <path id="Trazado_874794" data-name="Trazado 874794" d="M355.638,358.265a.419.419,0,1,0,.373-.461.419.419,0,0,0-.373.461" transform="translate(-355.635 -357.801)"/>
                  </g>
                </g>
              </g>
              <g id="Grupo_1099784" data-name="Grupo 1099784" transform="translate(6.1 2.226)" opacity="0.15">
                <g id="Grupo_1099783" data-name="Grupo 1099783">
                  <g id="Grupo_1099782" data-name="Grupo 1099782" clip-path="url(#clip-path-19)">
                    <path id="Trazado_874795" data-name="Trazado 874795" d="M352.5,361.7a.419.419,0,1,0,.373-.461.42.42,0,0,0-.373.461" transform="translate(-352.494 -361.241)"/>
                  </g>
                </g>
              </g>
              <g id="Grupo_1099787" data-name="Grupo 1099787" transform="translate(4.067 4.453)" opacity="0.15">
                <g id="Grupo_1099786" data-name="Grupo 1099786">
                  <g id="Grupo_1099785" data-name="Grupo 1099785" clip-path="url(#clip-path-19)">
                    <path id="Trazado_874796" data-name="Trazado 874796" d="M349.355,365.145a.419.419,0,1,0,.373-.461.42.42,0,0,0-.373.461" transform="translate(-349.352 -364.681)"/>
                  </g>
                </g>
              </g>
              <g id="Grupo_1099790" data-name="Grupo 1099790" transform="translate(2.034 6.679)" opacity="0.15">
                <g id="Grupo_1099789" data-name="Grupo 1099789">
                  <g id="Grupo_1099788" data-name="Grupo 1099788" clip-path="url(#clip-path-19)">
                    <path id="Trazado_874797" data-name="Trazado 874797" d="M346.213,368.585a.419.419,0,1,0,.373-.461.42.42,0,0,0-.373.461" transform="translate(-346.211 -368.121)"/>
                  </g>
                </g>
              </g>
              <g id="Grupo_1099793" data-name="Grupo 1099793" transform="translate(0 8.905)" opacity="0.15">
                <g id="Grupo_1099792" data-name="Grupo 1099792">
                  <g id="Grupo_1099791" data-name="Grupo 1099791" clip-path="url(#clip-path-19)">
                    <path id="Trazado_874798" data-name="Trazado 874798" d="M343.072,372.023a.419.419,0,1,0,.373-.461.42.42,0,0,0-.373.461" transform="translate(-343.069 -371.561)"/>
                  </g>
                </g>
              </g>
            </g>
          </g>
        </g>
        <path id="Trazado_874799" data-name="Trazado 874799" d="M353.695,357.514a.169.169,0,0,0,.106-.288,6.9,6.9,0,0,0-4.73-1.9h0a.169.169,0,0,0,.022.337,6.668,6.668,0,0,1,4.474,1.8.172.172,0,0,0,.131.049" transform="translate(-123.082 -125.343)" fill="#263238"/>
        <path id="Trazado_874800" data-name="Trazado 874800" d="M350.552,360.942a.165.165,0,0,0,.107-.05.168.168,0,0,0,0-.238,6.9,6.9,0,0,0-4.73-1.9h0a.169.169,0,0,0,.022.337,6.675,6.675,0,0,1,4.474,1.8.172.172,0,0,0,.131.049" transform="translate(-121.974 -126.553)" fill="#263238"/>
        <path id="Trazado_874801" data-name="Trazado 874801" d="M347.412,364.394a.169.169,0,0,0,.106-.288,6.894,6.894,0,0,0-4.73-1.9h0a.169.169,0,0,0,.022.337,6.674,6.674,0,0,1,4.474,1.8.172.172,0,0,0,.131.049" transform="translate(-120.866 -127.77)" fill="#263238"/>
        <path id="Trazado_874802" data-name="Trazado 874802" d="M344.271,367.833a.165.165,0,0,0,.107-.05.169.169,0,0,0,0-.238,6.893,6.893,0,0,0-4.73-1.9h0a.169.169,0,0,0,.022.337,6.681,6.681,0,0,1,4.474,1.8.167.167,0,0,0,.131.049" transform="translate(-119.758 -128.983)" fill="#263238"/>
        <path id="Trazado_874803" data-name="Trazado 874803" d="M341.129,371.273a.165.165,0,0,0,.107-.05.169.169,0,0,0,0-.238,6.9,6.9,0,0,0-4.73-1.9h0a.169.169,0,0,0,.022.337,6.682,6.682,0,0,1,4.474,1.8.169.169,0,0,0,.131.049" transform="translate(-118.65 -130.197)" fill="#263238"/>
        <path id="Trazado_874804" data-name="Trazado 874804" d="M412.558,390.186c.584,3.276,1.357,5.4,2.759,7.2s3.917,2,5.784,1.608a8.013,8.013,0,0,0,6.214-6.133c.6-2.261.188-4.849-.684-7.848Z" transform="translate(-145.534 -135.817)" fill="#263238"/>
        <path id="Trazado_874805" data-name="Trazado 874805" d="M418.487,354.13c.93-.038,1.729,4.36,2.788,8.732,1.135,4.686,2.906,7.171,3.761,10.32,1.185,4.365,1.114,6.4-.126,9.28s-7.689,6.391-10.87,2.859c-2.594-2.88-3.1-6.355-3.426-10.826a113.529,113.529,0,0,0-1.142-11.343c-.576-3.313-1.191-6.517-.434-6.983.12.482.254,1.1.376,1.57.094.363.4,2.157.919,2.113a6.914,6.914,0,0,0-.139-1.258,1.5,1.5,0,0,1,.125-1.105,1.741,1.741,0,0,1,.968-.579,26.542,26.542,0,0,1,2.69-.75,13.866,13.866,0,0,1,1.373-.223,15.61,15.61,0,0,1,2.427-.187.826.826,0,0,1,.553.393,1.452,1.452,0,0,1,.109.5,3.692,3.692,0,0,0,.225.9c.049.128.159.278.287.23.1-.038.131-.177.118-.287-.061-.537-.175-.92-.274-1.542-.046-.287-.14-.676-.179-.965s-.074-.57-.128-.852" transform="translate(-144.168 -124.923)" fill="#37474f"/>
        <g id="Grupo_1099799" data-name="Grupo 1099799" transform="translate(276.98 249.508)" opacity="0.15">
          <g id="Grupo_1099798" data-name="Grupo 1099798">
            <g id="Grupo_1099797" data-name="Grupo 1099797" clip-path="url(#clip-path-24)">
              <path id="Trazado_874806" data-name="Trazado 874806" d="M428.581,385.75a.325.325,0,1,1-.387-.247.324.324,0,0,1,.387.247" transform="translate(-427.94 -385.496)"/>
            </g>
          </g>
        </g>
        <g id="Grupo_1099802" data-name="Grupo 1099802" transform="translate(276.304 246.472)" opacity="0.15">
          <g id="Grupo_1099801" data-name="Grupo 1099801">
            <g id="Grupo_1099800" data-name="Grupo 1099800" clip-path="url(#clip-path-24)">
              <path id="Trazado_874807" data-name="Trazado 874807" d="M427.538,381.059a.325.325,0,1,1-.387-.247.325.325,0,0,1,.387.247" transform="translate(-426.897 -380.805)"/>
            </g>
          </g>
        </g>
        <g id="Grupo_1099805" data-name="Grupo 1099805" transform="translate(275.668 243.606)" opacity="0.15">
          <g id="Grupo_1099804" data-name="Grupo 1099804">
            <g id="Grupo_1099803" data-name="Grupo 1099803" clip-path="url(#clip-path-24)">
              <path id="Trazado_874808" data-name="Trazado 874808" d="M426.554,376.632a.325.325,0,1,1-.387-.247.324.324,0,0,1,.387.247" transform="translate(-425.913 -376.378)"/>
            </g>
          </g>
        </g>
        <g id="Grupo_1099808" data-name="Grupo 1099808" transform="translate(275.04 240.781)" opacity="0.15">
          <g id="Grupo_1099807" data-name="Grupo 1099807">
            <g id="Grupo_1099806" data-name="Grupo 1099806" clip-path="url(#clip-path-24)">
              <path id="Trazado_874809" data-name="Trazado 874809" d="M425.584,372.266a.325.325,0,1,1-.387-.247.324.324,0,0,1,.387.247" transform="translate(-424.943 -372.012)"/>
            </g>
          </g>
        </g>
        <g id="Grupo_1099811" data-name="Grupo 1099811" transform="translate(267.802 242.104)" opacity="0.15">
          <g id="Grupo_1099810" data-name="Grupo 1099810">
            <g id="Grupo_1099809" data-name="Grupo 1099809" clip-path="url(#clip-path-24)">
              <path id="Trazado_874810" data-name="Trazado 874810" d="M414.4,374.31a.325.325,0,1,1-.387-.247.324.324,0,0,1,.387.247" transform="translate(-413.76 -374.056)"/>
            </g>
          </g>
        </g>
        <g id="Grupo_1099814" data-name="Grupo 1099814" transform="translate(268.434 244.948)" opacity="0.15">
          <g id="Grupo_1099813" data-name="Grupo 1099813">
            <g id="Grupo_1099812" data-name="Grupo 1099812" clip-path="url(#clip-path-24)">
              <path id="Trazado_874811" data-name="Trazado 874811" d="M415.378,378.705a.324.324,0,1,1-.387-.247.325.325,0,0,1,.387.247" transform="translate(-414.737 -378.451)"/>
            </g>
          </g>
        </g>
        <g id="Grupo_1099817" data-name="Grupo 1099817" transform="translate(269.071 247.815)" opacity="0.15">
          <g id="Grupo_1099816" data-name="Grupo 1099816">
            <g id="Grupo_1099815" data-name="Grupo 1099815" clip-path="url(#clip-path-24)">
              <path id="Trazado_874812" data-name="Trazado 874812" d="M416.362,383.133a.325.325,0,1,1-.387-.247.324.324,0,0,1,.387.247" transform="translate(-415.721 -382.879)"/>
            </g>
          </g>
        </g>
        <g id="Grupo_1099820" data-name="Grupo 1099820" transform="translate(269.746 250.853)" opacity="0.15">
          <g id="Grupo_1099819" data-name="Grupo 1099819">
            <g id="Grupo_1099818" data-name="Grupo 1099818" clip-path="url(#clip-path-24)">
              <path id="Trazado_874813" data-name="Trazado 874813" d="M417.405,387.827a.325.325,0,1,1-.387-.247.324.324,0,0,1,.387.247" transform="translate(-416.764 -387.573)"/>
            </g>
          </g>
        </g>
        <g id="Grupo_1099823" data-name="Grupo 1099823" transform="translate(268.242 230.917)" opacity="0.15">
          <g id="Grupo_1099822" data-name="Grupo 1099822">
            <g id="Grupo_1099821" data-name="Grupo 1099821" clip-path="url(#clip-path-32)">
              <path id="Trazado_874814" data-name="Trazado 874814" d="M419.47,378.088l-5.029-21.151,1.186-.166Z" transform="translate(-414.441 -356.772)"/>
            </g>
          </g>
        </g>
        <path id="Trazado_874815" data-name="Trazado 874815" d="M424.44,386.045a.162.162,0,0,1-.05,0c-2.185-.218-5.792.432-7.133,1.3a.165.165,0,1,1-.179-.276c1.421-.917,5.058-1.577,7.344-1.348a.165.165,0,0,1,.018.325" transform="translate(-147.102 -136.051)" fill="#263238"/>
        <path id="Trazado_874816" data-name="Trazado 874816" d="M423.4,381.276a.163.163,0,0,1-.086-.005c-1.716-.575-5.566.318-7.1,1.305a.164.164,0,0,1-.178-.276c1.6-1.032,5.57-1.949,7.38-1.341a.165.165,0,0,1-.019.317" transform="translate(-146.735 -134.319)" fill="#263238"/>
        <path id="Trazado_874817" data-name="Trazado 874817" d="M422.414,376.849a.163.163,0,0,1-.086-.005c-1.716-.575-5.565.318-7.1,1.305A.162.162,0,0,1,415,378.1a.164.164,0,0,1,.049-.228c1.6-1.032,5.569-1.948,7.38-1.34a.165.165,0,0,1-.019.317" transform="translate(-146.388 -132.757)" fill="#263238"/>
        <path id="Trazado_874818" data-name="Trazado 874818" d="M421.444,372.484a.163.163,0,0,1-.086-.005c-1.716-.575-5.565.318-7.1,1.306a.165.165,0,0,1-.179-.276c1.6-1.03,5.569-1.949,7.38-1.341a.165.165,0,0,1-.019.317" transform="translate(-146.045 -131.217)" fill="#263238"/>
        <path id="Trazado_874819" data-name="Trazado 874819" d="M391.334,185.789c2.15,27.255,3.47,64.366,3.47,64.366.193,2.07,2.182,10.9,3.182,21.113,1.054,10.771,1.912,30.943,1.912,30.943s-7.534,4.052-13.638,2.017c0,0-6.542-33.976-9.673-46.67-2.962-12.013-7.594-34.782-7.594-34.782L365.835,245.3s.42,7.769.19,13.2c-.268,6.322-4.3,36.7-4.3,36.7s-8.193,4.826-14.532-.028c0,0-1.1-41.9-1.274-49.508-.35-14.917,1.393-43.83,1.937-63.089Z" transform="translate(-122.009 -64.409)" fill="#263238"/>
        <path id="Trazado_874820" data-name="Trazado 874820" d="M398.994,235.995q.853,9.8,1.9,19.578.514,4.89,1.071,9.777l.554,4.886.287,2.442c.09.815.256,1.618.38,2.428,1.076,6.467,2.731,18.211,3.9,24.662s2.419,12.89,3.753,19.31q-1.274-9.754-2.8-19.461c-1.01-6.473-2.591-18.224-3.7-24.681-.129-.808-.3-1.611-.394-2.425l-.3-2.438-.616-4.874q-.616-4.874-1.271-9.744-1.3-9.741-2.779-19.462" transform="translate(-140.749 -83.25)"/>
        <path id="Trazado_874821" data-name="Trazado 874821" d="M351.448,233.137c-.684,6.094-1.045,12.221-1.307,18.343-.238,6.114-.5,12.268-.272,18.391.146,6.126.307,16.395.538,22.519q.32,9.187.872,18.367.144-9.2.057-18.38c-.041-6.125-.151-16.391-.276-22.514l-.116-4.592-.028-1.147.012-1.138.026-2.3.113-9.183.15-9.184c.034-3.063.133-6.122.232-9.186" transform="translate(-123.388 -82.242)"/>
        <path id="Trazado_874822" data-name="Trazado 874822" d="M374.047,234.1l-2.661-14.927s-7.4-1.077-11.189-4.483c0,0,2.446,4.5,9.422,6.265l2.645,13.188-1.375,22.486Z" transform="translate(-127.063 -75.735)"/>
        <path id="Trazado_874823" data-name="Trazado 874823" d="M331.847,109.1c.05-1.314.667-2.32,2.217-3.371a11.182,11.182,0,0,0,3.168-2.775,30.323,30.323,0,0,1,3.206-4.02c.885-.718-.177-1.737-1.726-1.56s-5.047,1.948-5.888,3.807a16.506,16.506,0,0,0-.977,7.92" transform="translate(-117.008 -34.343)" fill="#f28f8f"/>
        <path id="Trazado_874824" data-name="Trazado 874824" d="M346.635,100.769c-3.557.274-7.821.274-11.506,7.083-3.805,7.032-6.975,12.584-6.975,12.584a67.749,67.749,0,0,1-1.491-9.884c-.305-4.88-.176-7.016,1.368-9.817a81.288,81.288,0,0,0,5.937-9.575,48.12,48.12,0,0,0-8.129,1.116,1.664,1.664,0,0,0-1.028.714c-.139.274-.133.6-.259.883a1.857,1.857,0,0,1-.968.816c-.816.387-1.767.729-2.154,1.545-.216.456-.212.987-.4,1.456a5.778,5.778,0,0,1-1.632,1.825,5.047,5.047,0,0,0-1.2,2.593c-1.244,5.026-1.579,10.131-1.579,17.917,0,5.406.322,12.8,2.171,16.892s5.57,8.711,11.033,3.249,15-20.65,15-20.65Z" transform="translate(-111.693 -32.157)" fill="#ffa8a7"/>
        <path id="Trazado_874825" data-name="Trazado 874825" d="M332.929,104.466a9.225,9.225,0,0,0-2.537,1.489,3.117,3.117,0,0,1,.03,2.743c-.663,1.662-1.889,2.3-1.575,3.889a2.687,2.687,0,0,1,1.45-2.481c1.819-1.11,2.847-4.65,2.632-5.641" transform="translate(-115.987 -36.852)" fill="#f28f8f"/>
        <path id="Trazado_874826" data-name="Trazado 874826" d="M351.434,105.662c-3.384.361-6.852.545-10.19,5.125S333.206,125,333.206,125l.123.547s2.754,3.494,3.313,10.394a14.366,14.366,0,0,1-3.732,11.008,5.718,5.718,0,0,1-1.614.683s1.362,1,3.335-.392,17.18-23.2,17.18-23.2Z" transform="translate(-116.868 -37.273)" fill="#f0f0f0"/>
        <path id="Trazado_874827" data-name="Trazado 874827" d="M328.147,134.146l.214.972s1.795,6.274-.488,11.039-5.583,5.246-7.3,5.1c-1.886-.162-2.507-2.458-2.507-2.458l-.348-1.613a1.4,1.4,0,0,0-.421,1.613,43.134,43.134,0,0,0,2.581,5.8c1.043,1.886,4.554,4.607,7.538,2.949s4.87-5.729,4.87-11.138-1.241-8.865-2.084-10.015-2.333-3.612-2.333-3.612Z" transform="translate(-111.9 -46.839)" fill="#e0e0e0"/>
        <path id="Trazado_874828" data-name="Trazado 874828" d="M392.947,107.026s4.77,3.95,2.514,13.652a142.381,142.381,0,0,0-3.019,19.22c-.349,5.117.222,22.36.222,22.36-7.731,9.244-40.076,6.876-44.088-1.533,0,0-.457-32.715,2.469-44.3,1.657-6.563,3.985-10.379,6.476-12.243l10.992-2.594,9.986-.123Z" transform="translate(-122.955 -35.793)" fill="#e6e6e6"/>
        <path id="Trazado_874829" data-name="Trazado 874829" d="M405.945,21.711a3.472,3.472,0,0,0-5.913-3.641h0L398.2,21.045a1.725,1.725,0,0,0,.122,1.74,5.427,5.427,0,0,0,4.181,2.575,1.726,1.726,0,0,0,1.61-.673l1.832-2.975h0" transform="translate(-140.405 -5.792)" fill="#455a64"/>
        <path id="Trazado_874830" data-name="Trazado 874830" d="M402.5,26.409a1.727,1.727,0,0,0,1.61-.674l1.832-2.975h0a3.467,3.467,0,0,0,.146-3.371c.31.934-.572,2.344-1.586,3.992s-2.262,2.442-4.762,1.043c-1.822-1.018-1.6-2.131-1.34-2.661l-.2.33a1.725,1.725,0,0,0,.122,1.74,5.429,5.429,0,0,0,4.181,2.575" transform="translate(-140.405 -6.839)" fill="#37474f"/>
        <path id="Trazado_874831" data-name="Trazado 874831" d="M399.653,37.654a10.781,10.781,0,1,0-18.358-11.309c-.836,1.356-.775,3.265.38,5.4a16.849,16.849,0,0,0,12.982,8c2.43.069,4.161-.735,5-2.091" transform="translate(-134.306 -7.484)" fill="#ffc278"/>
        <path id="Trazado_874832" data-name="Trazado 874832" d="M377.279,33.9a16.851,16.851,0,0,0-12.981-8c-2.43-.069-4.162.735-5,2.091L318.947,93.506c-.835,1.356-.775,3.265.381,5.4a16.85,16.85,0,0,0,12.981,8c2.43.069,4.162-.735,5-2.091l40.353-65.509c.836-1.357.775-3.265-.38-5.4" transform="translate(-112.313 -9.137)" fill="#ffc278"/>
        <g id="Grupo_1099826" data-name="Grupo 1099826" transform="translate(206.069 16.765)" opacity="0.2">
          <g id="Grupo_1099825" data-name="Grupo 1099825">
            <g id="Grupo_1099824" data-name="Grupo 1099824" clip-path="url(#clip-path-33)">
              <path id="Trazado_874833" data-name="Trazado 874833" d="M377.279,33.9a16.851,16.851,0,0,0-12.981-8c-2.43-.069-4.162.735-5,2.091L318.947,93.506c-.835,1.356-.775,3.265.381,5.4a16.85,16.85,0,0,0,12.981,8c2.43.069,4.162-.735,5-2.091l40.353-65.509c.836-1.357.775-3.265-.38-5.4" transform="translate(-318.382 -25.902)" fill="#fff"/>
            </g>
          </g>
        </g>
        <path id="Trazado_874834" data-name="Trazado 874834" d="M328.576,145.971a17.319,17.319,0,0,1-13.345-8.22c-1.187-2.2-1.25-4.16-.391-5.555l3.1-5.037c.859-1.394,2.639-2.221,5.137-2.149a17.323,17.323,0,0,1,13.345,8.22c1.187,2.2,1.25,4.16.391,5.555l-3.1,5.037c-.859,1.395-2.639,2.221-5.137,2.149" transform="translate(-110.858 -44.097)" fill="#ffc278"/>
        <g id="Grupo_1099829" data-name="Grupo 1099829" transform="translate(203.401 80.908)" opacity="0.35">
          <g id="Grupo_1099828" data-name="Grupo 1099828">
            <g id="Grupo_1099827" data-name="Grupo 1099827" clip-path="url(#clip-path-34)">
              <path id="Trazado_874835" data-name="Trazado 874835" d="M328.576,145.971a17.319,17.319,0,0,1-13.345-8.22c-1.187-2.2-1.25-4.16-.391-5.555l3.1-5.037c.859-1.394,2.639-2.221,5.137-2.149a17.323,17.323,0,0,1,13.345,8.22c1.187,2.2,1.25,4.16.391,5.555l-3.1,5.037c-.859,1.395-2.639,2.221-5.137,2.149" transform="translate(-314.259 -125.005)" fill="#fff"/>
            </g>
          </g>
        </g>
        <path id="Trazado_874836" data-name="Trazado 874836" d="M319.978,132.792a17.321,17.321,0,0,1,13.345,8.221c1.187,2.2,1.25,4.16.391,5.555s-2.639,2.221-5.137,2.149a17.323,17.323,0,0,1-13.345-8.22c-1.187-2.2-1.249-4.16-.39-5.555s2.639-2.221,5.136-2.15" transform="translate(-110.858 -46.842)" fill="#ffc278"/>
        <g id="Grupo_1099832" data-name="Grupo 1099832" transform="translate(203.401 85.945)" opacity="0.15">
          <g id="Grupo_1099831" data-name="Grupo 1099831">
            <g id="Grupo_1099830" data-name="Grupo 1099830" clip-path="url(#clip-path-35)">
              <path id="Trazado_874837" data-name="Trazado 874837" d="M319.978,132.792a17.321,17.321,0,0,1,13.345,8.221c1.187,2.2,1.25,4.16.391,5.555s-2.639,2.221-5.137,2.149a17.323,17.323,0,0,1-13.345-8.22c-1.187-2.2-1.249-4.16-.39-5.555s2.639-2.221,5.136-2.15" transform="translate(-314.259 -132.787)"/>
            </g>
          </g>
        </g>
        <path id="Trazado_874838" data-name="Trazado 874838" d="M259.1,229.376c.744-1.208,2.286-1.924,4.45-1.862a15.006,15.006,0,0,1,11.561,7.121c1.028,1.905,1.082,3.6.339,4.812h0l-2.478,2.43-.008,0a4.82,4.82,0,0,1-3.674,1.19,13.821,13.821,0,0,1-10.648-6.559,4.818,4.818,0,0,1-.59-3.817l-.007,0Z" transform="translate(-90.968 -80.257)" fill="#ffc278"/>
        <g id="Grupo_1099835" data-name="Grupo 1099835" transform="translate(166.907 147.253)" opacity="0.15">
          <g id="Grupo_1099834" data-name="Grupo 1099834">
            <g id="Grupo_1099833" data-name="Grupo 1099833" clip-path="url(#clip-path-36)">
              <path id="Trazado_874839" data-name="Trazado 874839" d="M259.1,229.376c.744-1.208,2.286-1.924,4.45-1.862a15.006,15.006,0,0,1,11.561,7.121c1.028,1.905,1.082,3.6.339,4.812h0l-2.478,2.43-.008,0a4.82,4.82,0,0,1-3.674,1.19,13.821,13.821,0,0,1-10.648-6.559,4.818,4.818,0,0,1-.59-3.817l-.007,0Z" transform="translate(-257.875 -227.509)"/>
            </g>
          </g>
        </g>
        <path id="Trazado_874840" data-name="Trazado 874840" d="M264.221,195.31a15.005,15.005,0,0,1,11.561,7.122c1.028,1.9,1.082,3.6.339,4.812l36.4-59.085c.744-1.208.691-2.907-.339-4.812a15,15,0,0,0-11.56-7.122c-2.164-.061-3.706.654-4.45,1.862l-36.4,59.086c.744-1.208,2.287-1.924,4.45-1.862" transform="translate(-91.637 -48.053)" fill="#ffc278"/>
        <path id="Trazado_874841" data-name="Trazado 874841" d="M269.234,244.214c.691-1.078.656-2.6-.289-4.335a13.416,13.416,0,0,0-10.4-6.353c-1.93-.043-3.307.58-3.97,1.659l0,0-.021.036-.005.007,0,.009c-2.315,3.792-6.87,15.248-6.327,20.96l.1.063a2.058,2.058,0,0,0,.266.887,4.983,4.983,0,0,0,3.856,2.348,2.166,2.166,0,0,0,.877-.155l.01.006c5.368-2.093,13.6-11.388,15.906-15.131" transform="translate(-87.545 -82.378)" fill="#ffc278"/>
        <g id="Grupo_1099838" data-name="Grupo 1099838" transform="translate(162.871 18.601)" opacity="0.2">
          <g id="Grupo_1099837" data-name="Grupo 1099837">
            <g id="Grupo_1099836" data-name="Grupo 1099836" clip-path="url(#clip-path-37)">
              <path id="Trazado_874842" data-name="Trazado 874842" d="M309.311,105.43a11.023,11.023,0,0,0-1.387-1.973l-36.4,59.086a11.053,11.053,0,0,1,1.386,1.973c.067.125.12.247.179.37l36.4-59.086c-.059-.124-.111-.245-.179-.37m5.9-3.781a4.725,4.725,0,0,0-.144-.6l35.9-58.279c4.709-7.645,4.691-10.866,2.983-14.028,1.017,3.123-3.3,10.087-3.861,11-4.544,7.376-36.2,58.774-36.2,58.774q.241.379.45.76l-3.1,5.037a8.481,8.481,0,0,1,.875,2.379Zm-63.254,85.16,1.887-.849s1.377.144,5.465-3.582,6.559-7.758,10.859-14.74a10.2,10.2,0,0,0-1.689-2.247c-.045.087-4.839,9.382-10.849,15.952a35.023,35.023,0,0,1-5.99,5.3c.1.058.209.118.317.17" transform="translate(-251.64 -28.739)" fill="#fff"/>
            </g>
          </g>
        </g>
        <path id="Trazado_874843" data-name="Trazado 874843" d="M249.166,268.906l-1.505,2.445c-.658,1.067-1.716,4.086-.871,4.606s3.07-1.779,3.728-2.847l0-.005,1.5-2.439s-.032-.63-1.156-1.322-1.7-.437-1.7-.437" transform="translate(-86.947 -94.843)" fill="#455a64"/>
        <path id="Trazado_874844" data-name="Trazado 874844" d="M247.879,279.013a1.1,1.1,0,0,0-1.4-.863c-.049.508.044.908.306,1.069s.655.064,1.092-.206" transform="translate(-86.944 -98.105)" fill="#263238"/>
        <path id="Trazado_874845" data-name="Trazado 874845" d="M340.5,91.159c.924.034,2.635,1,3.973,1.869s2.582.943,2.147,1.918a1.93,1.93,0,0,1-1.78.816,7.771,7.771,0,0,1-2.179-.408c1.583,1.364,1.924,1.905,1.471,2.39a2.419,2.419,0,0,1-2.787.133c.539.547,1.147.832.867,1.361s-1.251.681-2.392.478a6.875,6.875,0,0,1-2.081-.729c-1.206.322-2.555.785-2.555.785a29.172,29.172,0,0,1,5.316-8.613" transform="translate(-118.239 -32.157)" fill="#ffa8a7"/>
        <path id="Trazado_874846" data-name="Trazado 874846" d="M340.054,100.563c-.661-.372-1.279-.832-1.915-1.218a2.924,2.924,0,0,0-2.127-.23c-.748.089-1.494.23-2.236.37s-1.491.26-2.247.359c.728-.21,1.467-.39,2.206-.567s1.483-.324,2.239-.435a6.47,6.47,0,0,1,1.158-.064,2.13,2.13,0,0,1,1.115.387c.637.438,1.2.93,1.805,1.4" transform="translate(-116.951 -34.843)" fill="#f28f8f"/>
        <path id="Trazado_874847" data-name="Trazado 874847" d="M342.555,96.594c-.578-.371-1.153-.741-1.743-1.082-.294-.16-.6-.351-.885-.475a2.607,2.607,0,0,0-.965-.087c-.672.018-1.351.123-2.029.2s-1.359.173-2.043.233c.665-.173,1.337-.315,2.011-.442a16.828,16.828,0,0,1,2.051-.269,2.824,2.824,0,0,1,1.065.129,6.93,6.93,0,0,1,.906.529,14.02,14.02,0,0,1,1.632,1.261" transform="translate(-118.136 -33.397)" fill="#f28f8f"/>
        <path id="Trazado_874848" data-name="Trazado 874848" d="M396.281,56.421a4.844,4.844,0,0,1,3.735,2.639c.794,1.313,1.46,3.759-.019,10.967a28.6,28.6,0,0,1-2.9,8.035,3.51,3.51,0,0,1-1.929,1.755l-.209-5.454-.041-3.807s-2.645-3.173-3.083-5.883c-.565-3.487.084-4.969.084-4.969Z" transform="translate(-138.14 -19.903)" fill="#37474f"/>
        <path id="Trazado_874849" data-name="Trazado 874849" d="M386.492,53.169c-.728-3.027-4.845-6.43-12.359-6.349-6.157.067-9.611,2.408-11.518,6.123s-.2,8.258-.2,8.258l19.2-2.5Z" transform="translate(-127.598 -16.516)" fill="#37474f"/>
        <path id="Trazado_874850" data-name="Trazado 874850" d="M389.793,75.391c-2.061,1.236-4.164-.6-4.164-.6l.3,11.256s-.083,2.179-3.414,4.3c-4.724,3.01-6.8,3.794-8.714,6.812-1.887-4.74-3.83-7.339-.931-11.206l-.153-2.563a17.836,17.836,0,0,1-3.394.107c-2.523-.234-4.218-2.117-5.137-4.775a37.912,37.912,0,0,1-1.129-17.22,5.831,5.831,0,0,1,1.852-3.482c4.689-4.152,10.4-1.7,14.686-.335a7.89,7.89,0,0,0,5.256-.355c-1.355,1.7-1.961,3.3-1.524,11.043a4.719,4.719,0,0,0,1.166,1.332c.964.736,1.581-1.363,2.3-2.216a3.153,3.153,0,0,1,4.967.812,5.178,5.178,0,0,1-1.962,7.083" transform="translate(-127.9 -19.656)" fill="#ffa8a7"/>
        <path id="Trazado_874851" data-name="Trazado 874851" d="M382.431,67.805l2.834,1.021a1.58,1.58,0,0,0-.938-1.976,1.47,1.47,0,0,0-1.9.955" transform="translate(-134.907 -23.552)" fill="#37474f"/>
        <path id="Trazado_874852" data-name="Trazado 874852" d="M366.226,68.507l2.856-1.029a1.457,1.457,0,0,0-1.893-.944,1.594,1.594,0,0,0-.963,1.973" transform="translate(-129.164 -23.439)" fill="#37474f"/>
        <path id="Trazado_874853" data-name="Trazado 874853" d="M383.835,72.211a1.227,1.227,0,1,1-1.261-1.192,1.227,1.227,0,0,1,1.261,1.192" transform="translate(-134.536 -25.052)" fill="#263238"/>
        <path id="Trazado_874854" data-name="Trazado 874854" d="M369.712,72.412a1.227,1.227,0,1,1-1.261-1.192,1.118,1.118,0,0,1,1.261,1.192" transform="translate(-129.554 -25.123)" fill="#263238"/>
        <path id="Trazado_874855" data-name="Trazado 874855" d="M375.391,69.1l-.51,7.861L370.665,75.7a18.306,18.306,0,0,1,4.726-6.605" transform="translate(-130.756 -24.374)" fill="#f28f8f"/>
        <path id="Trazado_874856" data-name="Trazado 874856" d="M383.3,74.273c-.188,5.355-2.028,5.749-3.925,6.085-2.513.444-3.773-.9-8.277-.846-2.733.034-3.579.856-5.124,1.514-1.142.486-2.08.356-2.531-.667a17.943,17.943,0,0,1-.933-5.771,43,43,0,0,0,.329,8.77,9.5,9.5,0,0,0,2.752,5.814c1.947,1.606,5.976,2.219,11,1.047,4.95-1.156,6.9-3.287,7.482-5.072,1.9-5.8,1.088-8.517,1.736-9.617s-2.509-1.255-2.509-1.255" transform="translate(-127.844 -26.201)" fill="#37474f"/>
        <path id="Trazado_874857" data-name="Trazado 874857" d="M374.9,84.831c2.571-.085,3.417.371,3.562,2.13.208,2.518.093,3.369-.867,3.512-1.133.169-1.965.248-2.014-.466a2.814,2.814,0,0,1,.144-1.617c.393-.486.253-.555-.876-.516-1.168.041-1.111.238-.773.581.247.252.238,1.118.241,1.615,0,.545-.115.757-1.739.621-1.419-.119-1.191-1.258-1.191-3.423,0-1.459.6-2.339,3.513-2.436" transform="translate(-131.006 -29.921)" fill="#ffa8a7"/>
        <path id="Trazado_874858" data-name="Trazado 874858" d="M378.308,85.394l-4.18.628a2.076,2.076,0,0,0,2.356,1.843,2.214,2.214,0,0,0,1.824-2.471" transform="translate(-131.978 -30.124)" fill="#b16668"/>
        <path id="Trazado_874859" data-name="Trazado 874859" d="M378.684,86.384a2.331,2.331,0,0,1,.511.039,2.184,2.184,0,0,1-1.794,1.79,2.006,2.006,0,0,1-.677-.021,1.935,1.935,0,0,1,1.961-1.808" transform="translate(-132.893 -30.472)" fill="#f28f8f"/>
        <path id="Trazado_874860" data-name="Trazado 874860" d="M375.751,115.221s-1.865-3.514-1.872-4.892l2.231-2.321.725,5.744Z" transform="translate(-131.89 -38.101)" fill="#ffc278"/>
        <g id="Grupo_1099841" data-name="Grupo 1099841" transform="translate(241.989 69.908)" opacity="0.2">
          <g id="Grupo_1099840" data-name="Grupo 1099840">
            <g id="Grupo_1099839" data-name="Grupo 1099839" clip-path="url(#clip-path-38)">
              <path id="Trazado_874861" data-name="Trazado 874861" d="M375.751,115.221s-1.865-3.514-1.872-4.892l2.231-2.321.725,5.744Z" transform="translate(-373.879 -108.009)"/>
            </g>
          </g>
        </g>
        <path id="Trazado_874862" data-name="Trazado 874862" d="M381.493,115.793l3.805-2.613,3.193,2.126-5.848,3.021Z" transform="translate(-134.576 -39.926)" fill="#ffc278"/>
        <g id="Grupo_1099844" data-name="Grupo 1099844" transform="translate(246.917 73.255)" opacity="0.2">
          <g id="Grupo_1099843" data-name="Grupo 1099843">
            <g id="Grupo_1099842" data-name="Grupo 1099842" clip-path="url(#clip-path-39)">
              <path id="Trazado_874863" data-name="Trazado 874863" d="M381.493,115.793l3.805-2.613,3.193,2.126-5.848,3.021Z" transform="translate(-381.493 -113.18)"/>
            </g>
          </g>
        </g>
        <path id="Trazado_874864" data-name="Trazado 874864" d="M380.485,154.885c-.361-12.294-3.106-27.914-2.894-30.9l-2.091-.195c-1.432,3.6-4.619,23.526-4.472,32.023-.087,2.961,2.8,8.441,4.8,8.5s4.711-7.623,4.658-9.426" transform="translate(-130.883 -43.667)" fill="#ffc278"/>
        <g id="Grupo_1099847" data-name="Grupo 1099847" transform="translate(240.141 80.119)" opacity="0.1">
          <g id="Grupo_1099846" data-name="Grupo 1099846">
            <g id="Grupo_1099845" data-name="Grupo 1099845" clip-path="url(#clip-path-40)">
              <path id="Trazado_874865" data-name="Trazado 874865" d="M380.485,154.885c-.361-12.294-3.106-27.914-2.894-30.9l-2.091-.195c-1.432,3.6-4.619,23.526-4.472,32.023-.087,2.961,2.8,8.441,4.8,8.5s4.711-7.623,4.658-9.426" transform="translate(-371.023 -123.786)" fill="#fff"/>
            </g>
          </g>
        </g>
        <g id="Grupo_1099850" data-name="Grupo 1099850" transform="translate(244.456 80.119)" opacity="0.5">
          <g id="Grupo_1099849" data-name="Grupo 1099849">
            <g id="Grupo_1099848" data-name="Grupo 1099848" clip-path="url(#clip-path-41)">
              <path id="Trazado_874866" data-name="Trazado 874866" d="M377.69,124.24c.063-.186.106-.312.161-.45h0v0l2.09.195a8.007,8.007,0,0,0,0,.919,3.669,3.669,0,0,1-2.254-.66" transform="translate(-377.69 -123.786)"/>
            </g>
          </g>
        </g>
        <path id="Trazado_874867" data-name="Trazado 874867" d="M379.879,116.717a8.877,8.877,0,0,0-1.974-.073,4.694,4.694,0,0,0-1.135,1.616,7.133,7.133,0,0,0,.758,3,2.5,2.5,0,0,0,2.09.194,4.375,4.375,0,0,0,1.495-2.016,3.969,3.969,0,0,0-1.234-2.719" transform="translate(-132.91 -41.139)" fill="#ffc278"/>
        <g id="Grupo_1099853" data-name="Grupo 1099853" transform="translate(243.861 75.48)" opacity="0.1">
          <g id="Grupo_1099852" data-name="Grupo 1099852">
            <g id="Grupo_1099851" data-name="Grupo 1099851" clip-path="url(#clip-path-42)">
              <path id="Trazado_874868" data-name="Trazado 874868" d="M379.879,116.717a8.877,8.877,0,0,0-1.974-.073,4.694,4.694,0,0,0-1.135,1.616,7.133,7.133,0,0,0,.758,3,2.5,2.5,0,0,0,2.09.194,4.375,4.375,0,0,0,1.495-2.016,3.969,3.969,0,0,0-1.234-2.719" transform="translate(-376.771 -116.619)" fill="#fff"/>
            </g>
          </g>
        </g>
        <path id="Trazado_874869" data-name="Trazado 874869" d="M381.507,110.068c.067,0,.157.157.225.168,1.447-.8,1.676-1.069,2.063-.963.734.2,2.493,3.228,2.931,4.208s.363.968,1.7.06a23.931,23.931,0,0,0,6.021-5.94,17.806,17.806,0,0,0,2.362-4.861s-1.555-2.1-2.013-2.9c-.886-1.551-1.38-2.171-2.266-2.026l0,1.013c-.138,1.363-1.542,2.676-3.428,4.342s-4.942,3.264-5.661,3.974a14.49,14.49,0,0,0-1.927,2.926" transform="translate(-134.581 -34.497)" fill="#f5f5f5"/>
        <path id="Trazado_874870" data-name="Trazado 874870" d="M370.76,112.008c.221.551,1.936-3.812,2.8-3.731.419.029,1.371,1.2,2.165,2.432l.591-.024a13.237,13.237,0,0,1-.935-3.3,40.005,40.005,0,0,1,.343-5.884l-.13-1.705c-.229.015-.473.019-.764.032a6.283,6.283,0,0,0-.741,1.022c-.832,1.4-3,4.628-3.262,6.291a14.509,14.509,0,0,0-.071,4.869" transform="translate(-130.733 -35.204)" fill="#f5f5f5"/>
        <path id="Trazado_874871" data-name="Trazado 874871" d="M387.118,151.126a16.447,16.447,0,0,1-2.522-3.578c-.874-1.65-1.19-2.763-1.84-4.119q-.316-.66-.633-1.32a.829.829,0,0,0-.2-.3.7.7,0,0,0-.762.032,2.653,2.653,0,0,0-1.179,2.266,10.9,10.9,0,0,0,.417,2.632c.124.573.681,2.678.681,2.678Z" transform="translate(-134.042 -49.991)" fill="#f28f8f"/>
        <path id="Trazado_874872" data-name="Trazado 874872" d="M408.308,117.494c-2.127-5.018-4.8-5.776-11.9-7.819-3.845,6.569-.972,19.338-.972,19.338L398.69,144.1s-11.074-.343-13.026-1.241-7.481-5.408-9.311-6.733c-2.489-1.805-3.54-1.372-4.633-1.049-3.581,1.055-4.34,1.474-5.047,2.072a1.672,1.672,0,0,0-.514,1.522c-.954.256-2.412.427-2.378,2.048A4.485,4.485,0,0,0,363.9,142a1.063,1.063,0,0,0-.581.45c-.679,1.048,1.155,4.1,2.145,4.764a3.2,3.2,0,0,0,2.721.1c.965-.27.37-1.207.37-1.207l1.388-.109c3.266,1.7,4,5.59,8.054,5.969a38.872,38.872,0,0,1,4.931.543c8.859,1.671,17.565,6.823,25.2,6.428,7.449-.386,6.7-4.279,6.186-8.8-.454-4.036-3.571-26.907-6-32.644" transform="translate(-128.113 -38.689)" fill="#ffa8a7"/>
        <path id="Trazado_874873" data-name="Trazado 874873" d="M417.549,160.549l.323,1.5c3.471.4,7.426,2.312,8.483,4.033-1.028-2.819-2.689-4.774-8.806-5.531" transform="translate(-147.295 -56.635)" fill="#f28f8f"/>
        <path id="Trazado_874874" data-name="Trazado 874874" d="M412.523,108.91c2.613.769,7.164,1.537,9.153,3.526s3.33,3.151,4.9,9.726,3.479,22.164,4.313,24.935,1.518,4.62-.005,6.313c-1.871-5.007-7.162-9.275-15.916-9.578-1.445,0-1.1-1.787-1.619-3.454s-2.412-11.475-3.251-14.734-1.993-13.271,2.428-16.733" transform="translate(-144.387 -38.419)" fill="#f0f0f0"/>
        <path id="Trazado_874875" data-name="Trazado 874875" d="M416.322,161.618l-.206.632a20.484,20.484,0,0,1,8.063,4.458c3.422,3.271,4.2,5.96,4.373,7.674s-.024,2.742-1.3,2.789l-1.186.049s.249.636,2.487.462c1.962-.152,3.82-.7,4.735-2.7a6.046,6.046,0,0,0,.24-5.191c-.649-1.8-2.361-4.978-7.678-7.177a20.255,20.255,0,0,0-9.528-1" transform="translate(-146.789 -56.949)" fill="#e0e0e0"/>
        <path id="Trazado_874876" data-name="Trazado 874876" d="M367.776,153.67,372,152.192l-4.214.864a1.719,1.719,0,0,0-.008.614" transform="translate(-129.728 -53.687)" fill="#f28f8f"/>
        <path id="Trazado_874877" data-name="Trazado 874877" d="M364.251,158.9l4.908-1.339-4.994.76a2.667,2.667,0,0,0,.086.579" transform="translate(-128.463 -55.58)" fill="#f28f8f"/>
        <path id="Trazado_874878" data-name="Trazado 874878" d="M365.786,162.886a1.593,1.593,0,0,0,.753.491,3.3,3.3,0,0,0,.9.173l-.073-.038c.17.243.347.48.527.715l.085-.148a1.021,1.021,0,0,0-.768.3,1.332,1.332,0,0,0-.346.713,1.586,1.586,0,0,1,.434-.615,1.014,1.014,0,0,1,.66-.217l.2.013-.113-.161c-.171-.242-.344-.482-.526-.716l-.029-.037h-.045a4.875,4.875,0,0,1-.862-.115,1.91,1.91,0,0,1-.792-.361" transform="translate(-129.035 -57.46)" fill="#f28f8f"/>
        <path id="Trazado_874879" data-name="Trazado 874879" d="M367.976,163.529a15.6,15.6,0,0,0,1.827-.123s.087.351.755.875a10.461,10.461,0,0,0,1.08.675l-1.388.109a2.23,2.23,0,0,0-1.692-.634Z" transform="translate(-129.807 -57.643)" fill="#f28f8f"/>
      </g>
    </g>
  </g>
</svg>
