<svg id="Grupo_1099502" data-name="Grupo 1099502" xmlns="http://www.w3.org/2000/svg" xmlns:xlink="http://www.w3.org/1999/xlink" width="188.233" height="236.143" viewBox="0 0 188.233 236.143">
  <defs>
    <clipPath id="clip-path">
      <rect id="Rectángulo_378904" data-name="Rectángulo 378904" width="188.233" height="236.143" fill="#fef0d7"/>
    </clipPath>
  </defs>
  <g id="Grupo_1099501" data-name="Grupo 1099501" clip-path="url(#clip-path)">
    <path id="Trazado_873634" data-name="Trazado 873634" d="M8.513,158.717a28.683,28.683,0,0,1-5.36-23.364c1.47-6.854,5.365-12.8,15.06-9.164,23.2,8.7,33.462,1.027,36.845-11.119s7.933-40.684,28.827-36.8,22.16,42.812,41.152,38.289,37.34-7.434,49.589,5.7,20.835,40.924,9.3,55.61-36.541,2.011-46.322,20.883-50.81,19.745-53.718-.372-24.48-34.32-43.321-24.376c-12.425,6.557-24.957-5.988-32.052-15.293" transform="translate(-1.133 -34.811)" fill="#fef0d7"/>
    <path id="Trazado_873635" data-name="Trazado 873635" d="M12.953,249.119a8.006,8.006,0,0,0-4.1-4.917c-2.025-.995-4.73-1.277-7.447,1.572-5.435,5.7,6.372,15.766,10.818,14.34,3.223-1.034,1.774-7.509.732-10.995" transform="translate(0 -108.8)" fill="#fef0d7"/>
    <path id="Trazado_873636" data-name="Trazado 873636" d="M290.677,295.234a8.008,8.008,0,0,0,5.918-2.448c1.554-1.636,2.631-4.132.724-7.577-3.814-6.888-16.95,1.372-16.917,6.042.024,3.384,6.637,3.935,10.274,3.982" transform="translate(-125.286 -126.256)" fill="#fef0d7"/>
    <path id="Trazado_873637" data-name="Trazado 873637" d="M213.13,125.621a8.009,8.009,0,0,0,6.087-1.99c1.674-1.513,2.938-3.921,1.3-7.5-3.279-7.158-17.005.079-17.327,4.738-.233,3.377,6.318,4.428,9.941,4.752" transform="translate(-90.783 -50.541)" fill="#fef0d7"/>
    <path id="Trazado_873638" data-name="Trazado 873638" d="M37.854,272.357a4.989,4.989,0,0,0,2.44,3.156,3.694,3.694,0,0,0,4.672-.805c3.515-3.42-3.6-9.961-6.4-9.177-2.03.569-1.278,4.632-.711,6.826" transform="translate(-16.637 -118.612)" fill="#fef0d7"/>
    <path id="Trazado_873639" data-name="Trazado 873639" d="M253.431,301.107a4.988,4.988,0,0,0-3,2.628,3.693,3.693,0,0,0,1.09,4.614c3.628,3.3,9.722-4.2,8.768-6.95-.692-1.992-4.7-.992-6.857-.292" transform="translate(-111.718 -134.143)" fill="#f1d5ca"/>
    <path id="Trazado_873640" data-name="Trazado 873640" d="M23.143,418.77c0,1.711,35.121,3.1,78.445,3.1s78.445-1.387,78.445-3.1-35.121-3.1-78.445-3.1-78.445,1.387-78.445,3.1" transform="translate(-10.34 -185.725)" fill="#dfc9a1"/>
    <path id="Trazado_873641" data-name="Trazado 873641" d="M171.786,396.73a71.013,71.013,0,0,0,6.269-18.457c1.922-11.644,7.352-12.4,9.5-9.191,5.18,7.759-5.121,21.249-10.735,27.648Z" transform="translate(-76.755 -164.177)" fill="#dfc9a1"/>
    <path id="Trazado_873642" data-name="Trazado 873642" d="M182.288,390.248a76.823,76.823,0,0,1-6.6,12.482h-.623a75.915,75.915,0,0,0,6.742-12.675,80.056,80.056,0,0,0,3.216-8.991.259.259,0,0,1,.5.136,80.527,80.527,0,0,1-3.235,9.048" transform="translate(-78.22 -170.176)" fill="#ad8179"/>
    <path id="Trazado_873643" data-name="Trazado 873643" d="M175.155,391.344c4.5-4.7,12.187-13.48,17.227-23.3,8.094-15.775,16.21-14.365,17.8-8.789C213.6,371.2,197.531,384.01,186.2,391.344Z" transform="translate(-78.26 -158.791)" fill="#fee7bd"/>
    <path id="Trazado_873644" data-name="Trazado 873644" d="M183.051,399.751H181.83a116.058,116.058,0,0,0,14.151-13.982,120.184,120.184,0,0,0,8.727-11.385.389.389,0,0,1,.653.424,120.989,120.989,0,0,1-8.78,11.458,117.835,117.835,0,0,1-13.529,13.485" transform="translate(-81.243 -167.198)" fill="#c69c93"/>
    <path id="Trazado_873645" data-name="Trazado 873645" d="M121.293,368.875H123.8l-11.558-22.457a28.864,28.864,0,0,1,2.394-8.727c2.942-6.732,4.88-14.426.291-13.411-3.982.881-5.9,9.722-4.807,18.014l-4.042-7.855a41.959,41.959,0,0,1-2.255-10.79c-.506-10.138-2.853-19.645-7.44-16.486s-.243,19.443,8.23,29.3l2.081,4.042c-6.049-7.291-16.665-12.6-20.181-9.439-3.493,3.144,3.894,6.038,11.083,7.557a26.229,26.229,0,0,1,10.37,4.353l9.826,19.091c-9.613-11.519-26.377-19.886-31.939-14.879-5.542,4.989,6.18,9.582,17.585,11.99,8.619,1.821,13.872,4.979,16.4,6.867Z" transform="translate(-37.725 -136.967)" fill="#fee7bd"/>
    <path id="Trazado_873646" data-name="Trazado 873646" d="M277.932,342.214c-5.959-5.364-23.919,3.6-34.218,15.94L254.241,337.7a28.111,28.111,0,0,1,11.109-4.663c7.7-1.626,15.616-4.728,11.873-8.1-3.766-3.39-15.139,2.3-21.62,10.112l2.229-4.33c9.078-10.559,13.736-28,8.817-31.389s-7.429,6.8-7.971,17.662a44.91,44.91,0,0,1-2.416,11.56l-4.331,8.415c1.175-8.883-.883-18.355-5.15-19.3-4.916-1.088-2.84,7.155.311,14.367a30.919,30.919,0,0,1,2.565,9.35l-12.5,24.29h2.685l1.679-3.262c2.71-2.022,8.338-5.406,17.572-7.356,12.22-2.581,24.778-7.5,18.84-12.846" transform="translate(-105.963 -133.449)" fill="#fee7bd"/>
    <path id="Trazado_873647" data-name="Trazado 873647" d="M305.168,89.653a2.8,2.8,0,1,1-2.8,2.8,2.807,2.807,0,0,1,2.8-2.8m0,.88a1.924,1.924,0,1,0,1.924,1.924,1.926,1.926,0,0,0-1.924-1.924" transform="translate(-135.098 -40.057)" fill="#009566"/>
    <path id="Trazado_873648" data-name="Trazado 873648" d="M300.013,63.9a2.8,2.8,0,1,1-2.8,2.8,2.807,2.807,0,0,1,2.8-2.8m0,.88a1.924,1.924,0,1,0,1.924,1.924,1.926,1.926,0,0,0-1.924-1.924" transform="translate(-132.795 -28.55)" fill="#0582fd"/>
    <path id="Trazado_873649" data-name="Trazado 873649" d="M286.862,56.406a.44.44,0,0,0,.44.44h1.939a.44.44,0,1,0,0-.88H287.3a.44.44,0,0,0-.44.44" transform="translate(-128.172 -25.006)" fill="#ff2961"/>
    <path id="Trazado_873650" data-name="Trazado 873650" d="M280.728,56.406a.44.44,0,0,0,.44.44h1.939a.44.44,0,0,0,0-.88h-1.939a.44.44,0,0,0-.44.44" transform="translate(-125.431 -25.006)" fill="#ff2961"/>
    <path id="Trazado_873651" data-name="Trazado 873651" d="M285.547,51.486v1.742a.44.44,0,0,0,.88,0V51.486a.44.44,0,0,0-.88,0" transform="translate(-127.584 -22.808)" fill="#ff2961"/>
    <path id="Trazado_873652" data-name="Trazado 873652" d="M285.547,58.178V59.92a.44.44,0,0,0,.88,0V58.178a.44.44,0,0,0-.88,0" transform="translate(-127.584 -25.798)" fill="#ff2961"/>
    <path id="Trazado_873653" data-name="Trazado 873653" d="M292.578,83.472a.44.44,0,0,0,.44.44h1.94a.44.44,0,0,0,0-.88h-1.94a.44.44,0,0,0-.44.44" transform="translate(-130.726 -37.099)" fill="#fba300"/>
    <path id="Trazado_873654" data-name="Trazado 873654" d="M286.444,83.472a.44.44,0,0,0,.44.44h1.939a.44.44,0,0,0,0-.88h-1.939a.44.44,0,0,0-.44.44" transform="translate(-127.985 -37.099)" fill="#fba300"/>
    <path id="Trazado_873655" data-name="Trazado 873655" d="M291.264,78.552v1.742a.44.44,0,1,0,.88,0V78.552a.44.44,0,1,0-.88,0" transform="translate(-130.138 -34.901)" fill="#fba300"/>
    <path id="Trazado_873656" data-name="Trazado 873656" d="M291.264,85.244v1.742a.44.44,0,1,0,.88,0V85.244a.44.44,0,1,0-.88,0" transform="translate(-130.138 -37.891)" fill="#fba300"/>
    <path id="Trazado_873657" data-name="Trazado 873657" d="M32.883,71.533a2.8,2.8,0,1,1-2.8-2.8,2.807,2.807,0,0,1,2.8,2.8m-4.727,0a1.924,1.924,0,1,0,1.924-1.924,1.926,1.926,0,0,0-1.924,1.924" transform="translate(-12.187 -30.709)" fill="#ff2961"/>
    <path id="Trazado_873658" data-name="Trazado 873658" d="M38.039,45.777a2.8,2.8,0,1,1-2.8-2.8,2.807,2.807,0,0,1,2.8,2.8m-4.727,0a1.924,1.924,0,1,0,1.924-1.924,1.926,1.926,0,0,0-1.924,1.924" transform="translate(-14.491 -19.201)" fill="#0582fd"/>
    <path id="Trazado_873659" data-name="Trazado 873659" d="M50.638,35.483a.44.44,0,0,1-.44.44H48.259a.44.44,0,0,1,0-.88H50.2a.44.44,0,0,1,.44.44" transform="translate(-21.366 -15.657)" fill="#009566"/>
    <path id="Trazado_873660" data-name="Trazado 873660" d="M56.773,35.483a.44.44,0,0,1-.44.44H54.394a.44.44,0,1,1,0-.88h1.939a.44.44,0,0,1,.44.44" transform="translate(-24.107 -15.657)" fill="#009566"/>
    <path id="Trazado_873661" data-name="Trazado 873661" d="M53.519,30.562V32.3a.44.44,0,1,1-.88,0V30.562a.44.44,0,0,1,.88,0" transform="translate(-23.519 -13.459)" fill="#009566"/>
    <path id="Trazado_873662" data-name="Trazado 873662" d="M53.519,37.254V39a.44.44,0,1,1-.88,0V37.254a.44.44,0,1,1,.88,0" transform="translate(-23.519 -16.449)" fill="#009566"/>
    <path id="Trazado_873663" data-name="Trazado 873663" d="M44.922,62.549a.44.44,0,0,1-.44.44H42.542a.44.44,0,0,1,0-.88h1.939a.44.44,0,0,1,.44.44" transform="translate(-18.812 -27.751)" fill="#fba300"/>
    <path id="Trazado_873664" data-name="Trazado 873664" d="M51.056,62.549a.44.44,0,0,1-.44.44H48.677a.44.44,0,1,1,0-.88h1.939a.44.44,0,0,1,.44.44" transform="translate(-21.553 -27.751)" fill="#fba300"/>
    <path id="Trazado_873665" data-name="Trazado 873665" d="M47.8,57.628V59.37a.44.44,0,0,1-.88,0V57.628a.44.44,0,1,1,.88,0" transform="translate(-20.965 -25.552)" fill="#fba300"/>
    <path id="Trazado_873666" data-name="Trazado 873666" d="M47.8,64.32v1.742a.44.44,0,0,1-.88,0V64.32a.44.44,0,1,1,.88,0" transform="translate(-20.965 -28.542)" fill="#fba300"/>
    <path id="Trazado_873667" data-name="Trazado 873667" d="M158.774,55.891a61.257,61.257,0,0,0,4.208,10.993,54.181,54.181,0,0,0,6.561,10.084,4.461,4.461,0,0,0,4.2,1.567l.58-.1,21.961-3.765a6.359,6.359,0,1,0-2.15-12.535,7.26,7.26,0,0,0-.784.189L174.774,68l-.15.045c-.16-.176-.317-.354-.474-.532a44.933,44.933,0,0,1-3.727-4.887,53.311,53.311,0,0,1-4.758-9.092l-.008-.02a3.647,3.647,0,0,0-6.882,2.377" transform="translate(-70.88 -22.902)" fill="#007157"/>
    <path id="Trazado_873668" data-name="Trazado 873668" d="M186.678,80.642a6.533,6.533,0,0,1,.23.89,7.179,7.179,0,0,1,.116,1.047,8.227,8.227,0,0,1-.174,2.049.23.23,0,0,0,.117.252.235.235,0,0,0,.062.023.232.232,0,0,0,.274-.179,8.262,8.262,0,0,0,0-3.595l-.15.045q-.24-.264-.474-.532" transform="translate(-83.409 -36.031)" fill="#005246"/>
    <path id="Trazado_873669" data-name="Trazado 873669" d="M184.721,84.877a.232.232,0,0,0,.257-.026,6.546,6.546,0,0,0,1.464-2.713.232.232,0,0,0-.446-.124,6.241,6.241,0,0,1-1.314,2.481.232.232,0,0,0-.03.326.239.239,0,0,0,.069.056" transform="translate(-82.48 -36.569)" fill="#005246"/>
    <path id="Trazado_873670" data-name="Trazado 873670" d="M161.1,43.905a2.148,2.148,0,0,0,1.093-1.222,11.917,11.917,0,0,0,.788-3.368c-.043-1.324-.383-5.214-1.214-5.918s-.8,2.678-.8,3.372a2.674,2.674,0,0,1-.266,1.166s-.677-7.744-1.4-8.227-.777,3.969-.783,5.069c0,0-.832-5.8-1.388-5.961-1.117-.32-.378,6.152-.378,6.152s-.947-4.842-1.735-4.65c-.834.2.194,5.385.194,5.385s-1.076-3.059-1.826-3.206,1.016,6.459,1.41,7.439,1.446,4.181,2.884,4.621a6.227,6.227,0,0,0,3.425-.652" transform="translate(-68.451 -12.87)" fill="#fbb990"/>
    <path id="Trazado_873671" data-name="Trazado 873671" d="M163.244,51.2c-2.358-1.261-1.368-4.3-1.358-4.335a.232.232,0,0,1,.439.147c-.037.11-.874,2.7,1.137,3.779l0,0a.232.232,0,0,1,.1.313.237.237,0,0,1-.316.094" transform="translate(-72.236 -20.868)" fill="#fb947d"/>
    <path id="Trazado_873672" data-name="Trazado 873672" d="M156.536,43.437a.232.232,0,0,1,.206-.415,4.468,4.468,0,0,0,4.058-.235.232.232,0,0,1,.255.387,4.881,4.881,0,0,1-4.505.27l-.013-.007" transform="translate(-69.887 -19.1)" fill="#fb947d"/>
    <path id="Trazado_873673" data-name="Trazado 873673" d="M242.634,335.479c.916,5.229.107,11.127-1.127,19.424l-.733,19.55a10.878,10.878,0,0,1-6.707.805l-2.04-38.728Z" transform="translate(-103.671 -149.894)" fill="#fbb990"/>
    <path id="Trazado_873674" data-name="Trazado 873674" d="M203.114,411.994c.457,1.2,25.331-.088,25.331-.088s1.436-7.351.859-9.615-4.408.279-6.834-.29c0,0-1.3-2.053-2.509-1.983a21.8,21.8,0,0,0-4.153,2.311c-.334.207-.679.423-1.033.642q-.368.231-.747.464c-.409.256-.826.512-1.243.768l-.472.287h0c-.382.234-.766.463-1.145.687a22.654,22.654,0,0,1-5.653,2.706c-3.233.564-2.858,2.908-2.4,4.112" transform="translate(-90.618 -178.729)" fill="#0161df"/>
    <path id="Trazado_873675" data-name="Trazado 873675" d="M220.837,406.964a2.187,2.187,0,0,1,1.333.266,5.321,5.321,0,0,1,1.729,2.086.384.384,0,0,0,.237.209.454.454,0,0,0,.351-.033.472.472,0,0,0,.227-.6,5.984,5.984,0,0,0-2.064-2.446,3.222,3.222,0,0,0-.57-.246c-.654.055-1.21.2-1.244.768" transform="translate(-98.671 -181.491)" fill="#fff"/>
    <path id="Trazado_873676" data-name="Trazado 873676" d="M224.436,404.839a2.231,2.231,0,0,1,.794.263,5.306,5.306,0,0,1,1.729,2.088.389.389,0,0,0,.237.209.455.455,0,0,0,.351-.035.471.471,0,0,0,.227-.6,6,6,0,0,0-2.063-2.446,2.362,2.362,0,0,0-.242-.118c-.419.034-.883.009-1.033.642" transform="translate(-100.279 -180.598)" fill="#fff"/>
    <path id="Trazado_873677" data-name="Trazado 873677" d="M217.912,408.778a2.206,2.206,0,0,1,1.053.282,5.307,5.307,0,0,1,1.728,2.086.393.393,0,0,0,.238.211.455.455,0,0,0,.351-.035.474.474,0,0,0,.227-.6,6.029,6.029,0,0,0-2.064-2.446,3.31,3.31,0,0,0-.387-.181h0c-.7-.068-1.135.111-1.145.686" transform="translate(-97.364 -182.332)" fill="#fff"/>
    <path id="Trazado_873678" data-name="Trazado 873678" d="M236.76,232.75l-1.671,27.48c2.188,5.138,2.866,15,1.9,20.258L225.621,281.8l-3.357-21.031-4.574-47.788,19.078.155Z" transform="translate(-97.265 -95.16)" fill="#0b1b10"/>
    <path id="Trazado_873679" data-name="Trazado 873679" d="M231.042,331.094c-.594,1.6-.46,3.475.349,4.23l12.055-1.338c.864-.936.929-3.64.142-4.282Z" transform="translate(-103.067 -147.314)" fill="#1f3727"/>
    <path id="Trazado_873680" data-name="Trazado 873680" d="M271.859,335.479c.916,5.229.107,11.127-1.127,19.424L270,374.454a10.878,10.878,0,0,1-6.707.805l-2.04-38.728Z" transform="translate(-116.729 -149.894)" fill="#fbb990"/>
    <path id="Trazado_873681" data-name="Trazado 873681" d="M232.339,411.994c.457,1.2,25.331-.088,25.331-.088s1.436-7.351.859-9.615-4.408.279-6.834-.29c0,0-1.3-2.053-2.509-1.983a21.8,21.8,0,0,0-4.153,2.311c-.334.207-.679.423-1.033.642q-.368.231-.747.464c-.409.256-.826.512-1.243.768l-.472.287h0c-.382.234-.766.463-1.145.687a22.654,22.654,0,0,1-5.653,2.706c-3.233.564-2.858,2.908-2.4,4.112" transform="translate(-103.676 -178.729)" fill="#0582fd"/>
    <path id="Trazado_873682" data-name="Trazado 873682" d="M250.062,406.964a2.187,2.187,0,0,1,1.333.266,5.321,5.321,0,0,1,1.729,2.086.383.383,0,0,0,.237.209.454.454,0,0,0,.351-.033.472.472,0,0,0,.227-.6,5.984,5.984,0,0,0-2.064-2.446,3.208,3.208,0,0,0-.57-.246c-.654.055-1.209.2-1.243.768" transform="translate(-111.729 -181.491)" fill="#fff"/>
    <path id="Trazado_873683" data-name="Trazado 873683" d="M253.661,404.839a2.231,2.231,0,0,1,.794.263,5.307,5.307,0,0,1,1.729,2.088.389.389,0,0,0,.237.209.455.455,0,0,0,.351-.035.471.471,0,0,0,.227-.6,6,6,0,0,0-2.063-2.446,2.419,2.419,0,0,0-.242-.118c-.419.034-.883.009-1.033.642" transform="translate(-113.337 -180.598)" fill="#fff"/>
    <path id="Trazado_873684" data-name="Trazado 873684" d="M247.137,408.778a2.206,2.206,0,0,1,1.053.282,5.307,5.307,0,0,1,1.728,2.086.393.393,0,0,0,.238.211.455.455,0,0,0,.351-.035.474.474,0,0,0,.227-.6,6.024,6.024,0,0,0-2.064-2.446,3.309,3.309,0,0,0-.387-.181h0c-.7-.068-1.135.111-1.145.686" transform="translate(-110.422 -182.332)" fill="#fff"/>
    <path id="Trazado_873685" data-name="Trazado 873685" d="M264.93,232.315l-1.895,26.761c2.389,6.589,3.09,15.718,2.123,20.977l-11.605,1.3L247.985,257.2l-3.431-45.2,20.384.693Z" transform="translate(-109.268 -94.726)" fill="#1f3727"/>
    <path id="Trazado_873686" data-name="Trazado 873686" d="M259.554,331.222c-.2,1.292.281,3.765.887,4.1l12.055-1.337c.864-.937.929-3.641.142-4.282Z" transform="translate(-115.949 -147.314)" fill="#4a6050"/>
    <path id="Trazado_873687" data-name="Trazado 873687" d="M252.912,122.724v.523c0,1.71-.018,3.371-.054,4.964q-.012.606-.029,1.193c-.246,8.7-2.028,17.087-3.791,18.092-5.7,3.257-21.3,3.445-33.157.444-2.612-.661-2.379-11.592-1.419-21.593.093-.962.184-1.929.277-2.893.049-.534.1-1.066.147-1.6.016-.173.03-.349.044-.524.036-.387.071-.773.1-1.156,0-.028.007-.054.008-.08.019-.2.034-.41.05-.612,0-.013,0-.024,0-.037s0-.06.008-.088c.021-.271.044-.537.065-.8.044-.543.081-1.082.119-1.613.014-.221.03-.443.044-.659s.026-.41.038-.614c.014-.22.026-.443.037-.662.093-1.654.142-3.214.129-4.634,0-.357-.008-.7-.02-1.043,0-.108-.006-.219-.009-.329-.024-1.078-.017-2.3.013-3.618,0-.247.012-.5.02-.758s.013-.492.019-.742.018-.536.028-.809c.031-.929.071-1.895.111-2.888.01-.212.018-.427.028-.641.021-.562.046-1.136.069-1.714.009-.213.019-.427.028-.641.028-.7.057-1.415.083-2.133.006-.226.016-.453.024-.679,0-.21.013-.417.019-.627.008-.226.017-.451.023-.677,0-.019,0-.039,0-.055q.017-.674.036-1.348c.034-1.315.057-2.632.064-3.938,0-.457-.028-.914,0-1.365.205-3.478.15-6.218.309-8.616.506-7.593,1.838-10.627,7-13.242.251-.127.506-.246.768-.36.41-.178.833-.337,1.266-.479l.2-.067,7.193-2.332s2.27.8,5.186,2.129c4.888,2.225,11.589,5.917,12.426,9.745.449,2.056.874,10.849,1.437,19.881.012.171.024.344.033.518.031.516.064,1.038.095,1.566.011.207.023.417.037.628s.024.449.038.675c.016.287.033.576.05.866.012.225.023.451.036.679.01.208.021.417.034.625.026.483.049.967.075,1.457.01.174.018.347.026.521.1,2.033.2,4.108.28,6.2.015.407.029.809.044,1.216q.078,2.064.138,4.136c.006.256.013.511.021.768s.014.545.021.819c.01.313.015.623.023.936.008.368.017.732.025,1.1,0,.147,0,.292.008.438.015.788.029,1.576.041,2.353q.012.96.019,1.906c0,.77.008,1.535.008,2.29" transform="translate(-95.524 -27.378)" fill="#fff"/>
    <path id="Trazado_873688" data-name="Trazado 873688" d="M234.242,186.879c-.113-.01-.225-.021-.339-.034a.366.366,0,0,1-.324-.4.361.361,0,0,1,.4-.323,14.3,14.3,0,0,0,10.5-3.47.366.366,0,0,1,.505.53,14.816,14.816,0,0,1-10.745,3.7" transform="translate(-104.364 -81.563)" fill="#e0d4ce"/>
    <path id="Trazado_873689" data-name="Trazado 873689" d="M225.917,177.446a28.685,28.685,0,0,0,13.235-3.532,34.025,34.025,0,0,0,7.087-4.936.416.416,0,0,0-.577-.6,33.864,33.864,0,0,1-6.922,4.812c-3.877,2.054-9.9,4.26-16.561,3.1a.416.416,0,1,0-.142.819,22.653,22.653,0,0,0,3.88.331" transform="translate(-99.053 -75.181)" fill="#e0d4ce"/>
    <path id="Trazado_873690" data-name="Trazado 873690" d="M242.746,152.661s.67.133,1.8.295c4.251.609,15.023,1.625,21.3-2.489,1.385-.907,1.315-14.321.788-29.541,0-.093-.007-.187-.009-.281-.016-.433-.03-.866-.047-1.3,0-.058,0-.117-.007-.175C265.9,100.7,264.628,80.22,264.5,76.381c-.108-3.277-2.411-6.027-4.875-8.043a27.249,27.249,0,0,0-4.679-3.316,19.054,19.054,0,0,0-4.91-1.771,15.829,15.829,0,0,0-1.766-.209s-1.6,35.907-1.7,65.253c0,.49-.07.974-.107,1.454-.252,3.336-.539,6.478-.866,9.326,0,.017,0,.033-.006.05-.028.249-.056.5-.086.745-.017.139-.033.278-.05.416-.03.248-.061.494-.092.735-.007.058-.014.116-.022.174-.692,5.357-1.545,9.441-2.6,11.464" transform="translate(-108.46 -28.168)" fill="#009566"/>
    <path id="Trazado_873691" data-name="Trazado 873691" d="M242.746,152.661s.67.133,1.8.295c4.459-10.6,3.533-35.833,3.662-52.163.118-15.118,1.53-33.776,1.828-37.541a15.829,15.829,0,0,0-1.766-.209s-1.6,35.907-1.7,65.253c0,.49-.07.974-.107,1.454-.252,3.336-.539,6.478-.866,9.326-.032.267-.061.533-.092.8-.017.139-.033.278-.05.416q-.056.461-.115.909c-.692,5.357-1.545,9.441-2.6,11.464" transform="translate(-108.46 -28.168)" fill="#007157"/>
    <path id="Trazado_873692" data-name="Trazado 873692" d="M247.482,186.5c11.621-8.35,18.161-15.229,21.27-20.1,0-.092-.006-.186-.009-.281-.016-.433-.03-.866-.047-1.3A100.315,100.315,0,0,1,247.711,184.6c-.028.249-.056.5-.086.745-.017.139-.033.277-.05.415-.03.248-.061.494-.092.736" transform="translate(-110.576 -73.641)" fill="#007157"/>
    <path id="Trazado_873693" data-name="Trazado 873693" d="M249.473,145.76c5.43-5.365,11.237-14.8,11.5-15.223a.466.466,0,0,0,.066-.19c1.159-9.756-2.543-30.22-2.7-31.086a.471.471,0,0,0-.927.169c.039.21,3.808,21.043,2.7,30.7-.579.933-5.661,9.045-10.532,14.173-.035.488-.071.974-.107,1.454" transform="translate(-111.466 -44.178)" fill="#007157"/>
    <path id="Trazado_873694" data-name="Trazado 873694" d="M263.829,108.822a.471.471,0,0,0,.391-.732c-.016-.024-1.617-2.415-2.656-3.852a.471.471,0,0,0-.763.552c1.029,1.423,2.62,3.8,2.637,3.824a.47.47,0,0,0,.392.209" transform="translate(-116.488 -46.487)" fill="#007157"/>
    <path id="Trazado_873695" data-name="Trazado 873695" d="M204.225,148.419c2.9,2.367,6.987,2.772,9.274,2.789a16.233,16.233,0,0,0,1.727-.064s1.66-21.424,2.89-38.4c1.635-22.543,4.257-48,4.257-48-.37.054-.728.116-1.074.19-.178.038-.352.077-.524.119-10.633,2.611-9.714,14.782-10.51,34.5-.551,13.635-6.04,48.872-6.04,48.872" transform="translate(-91.249 -28.927)" fill="#009566"/>
    <path id="Trazado_873696" data-name="Trazado 873696" d="M220.99,151.208a16.232,16.232,0,0,0,1.727-.064s1.66-21.424,2.89-38.4c1.635-22.543,4.257-48,4.257-48-.37.054-.728.116-1.075.19-.177.038-.351.077-.524.119-.861,9.137-4.347,49.9-7.276,86.158" transform="translate(-98.74 -28.927)" fill="#007157"/>
    <path id="Trazado_873697" data-name="Trazado 873697" d="M238.469,74.222a3.634,3.634,0,0,1-2.771-1.183c-2.521-2.713-1.707-9.22-1.672-9.494a.469.469,0,0,1,.93.121c-.008.063-.794,6.346,1.429,8.737a2.747,2.747,0,0,0,2.3.877,4.676,4.676,0,0,0,3.341-1.721c2.22-2.555,2.8-7.3,2.672-8.854a.468.468,0,0,1,.427-.506.474.474,0,0,1,.506.428c.123,1.45-.353,6.617-2.9,9.547a5.579,5.579,0,0,1-4,2.042c-.091,0-.181.008-.27.008" transform="translate(-104.496 -27.79)" fill="#ff9c00"/>
    <path id="Trazado_873698" data-name="Trazado 873698" d="M263.446,128.194c-.245.337-.487.679-.739.99s-.5.642-.753.943l-.763.907c-.253.3-.518.582-.777.872s-.52.581-.788.855c-.533.548-1.057,1.114-1.6,1.638l-.817.792c-.272.263-.542.532-.823.779l-1.675,1.509-1.7,1.454c-.568.484-1.157.934-1.735,1.4l-.871.691-.436.345-.445.329-1.783,1.315c-1.195.863-2.417,1.681-3.643,2.493a2.94,2.94,0,0,1-3.816-4.41l.061-.067q.714-.8,1.437-1.574c.482-.518.973-1.031,1.442-1.557.952-1.043,1.908-2.077,2.834-3.124.463-.523.941-1.035,1.384-1.57l1.367-1.569,1.317-1.591c.436-.532.855-1.065,1.28-1.6.218-.263.417-.534.619-.8l.613-.8c.4-.535.779-1.077,1.158-1.609l.546-.8c.185-.267.341-.534.514-.8s.323-.527.479-.788.288-.509.427-.76c.071-.127.117-.236.177-.352.026-.055.063-.121.08-.167l.062-.143c.01-.022.023-.051.029-.067l.009-.034.005-.015s.014-.037-.014.028c-.019.04-.039.087-.053.122l.007-.029.067-.247c.018-.066.034-.134.052-.2.007-.03.014-.061.022-.093.045-.19.087-.394.126-.609.006-.032.012-.065.018-.1.026-.155.053-.316.075-.48a31.277,31.277,0,0,0,.262-3.627,79.527,79.527,0,0,0-.33-8.008c-.24-2.731-.534-5.494-.916-8.259-.186-1.383-.372-2.77-.579-4.156l-.639-4.163-.682-4.162-.705-4.111-.012-.072A5.205,5.205,0,0,1,263,81.04c.095.394.177.741.259,1.107l.24,1.08c.163.719.3,1.439.453,2.157.3,1.437.564,2.878.819,4.323l.373,2.169.339,2.177c.216,1.454.431,2.911.609,4.376s.342,2.936.485,4.415.265,2.966.347,4.466.145,3.012.158,4.542-.014,3.081-.114,4.669c-.054.8-.119,1.6-.216,2.419s-.226,1.656-.4,2.519a22.187,22.187,0,0,1-.7,2.7c-.033.111-.085.252-.133.38l-.144.394-.037.1-.105.247c-.047.1-.051.106-.072.149l-.053.106-.107.209-.094.172-.189.335c-.063.115-.121.2-.182.3-.121.194-.243.4-.365.58-.24.357-.481.73-.725,1.058" transform="translate(-107.022 -34.427)" fill="#009566"/>
    <path id="Trazado_873699" data-name="Trazado 873699" d="M233.265,196.059c.189-1.1-1.19-4.267-4.85-4.441-3.391-.162-4.354-1-6.834-.788-2.148.186-.5,1.055,1.054,1.843s2.362.724,1.35,1.914-6.956,4.054-7.845,5.541,6.675-2.143,6.675-2.143-5.848,4.105-5.657,5.082c.228,1.169,6.725-2.861,6.725-2.861s-4.467,4.2-4.188,4.577c.542.736,5.648-2.744,5.648-2.744s-2.927,3.046-2.217,3.318,7.721-4.619,10.139-9.3" transform="translate(-96.54 -85.248)" fill="#fbb990"/>
    <path id="Trazado_873700" data-name="Trazado 873700" d="M273.913,158.066a.349.349,0,0,1-.488.074,24.539,24.539,0,0,0-3.809-2.26c.008-.029.015-.061.022-.092.045-.19.086-.394.126-.609q.558.266,1.111.559a24.12,24.12,0,0,1,2.963,1.84.349.349,0,0,1,.074.488" transform="translate(-120.466 -69.335)" fill="#007157"/>
    <path id="Trazado_873701" data-name="Trazado 873701" d="M273.216,155.682a.345.345,0,0,1-.122.011c-.729-.061-1.465-.082-2.2-.07-.414.007-.829.024-1.237.05.045-.19.087-.394.126-.609.006-.033.012-.065.018-.1a23.621,23.621,0,0,1,3.352.03.35.35,0,0,1,.064.685" transform="translate(-120.484 -69.22)" fill="#007157"/>
    <path id="Trazado_873702" data-name="Trazado 873702" d="M244.629,44.812l.3,10.753a14.885,14.885,0,0,1-8.879,1.892l-.112-2.436-.326-6.94,7.773-2.815Z" transform="translate(-105.272 -20.022)" fill="#fbb990"/>
    <path id="Trazado_873703" data-name="Trazado 873703" d="M243.383,45.633s-1.545,8.416-7.447,9.756l-.326-6.941Z" transform="translate(-105.272 -20.389)" fill="#fb947d"/>
    <path id="Trazado_873704" data-name="Trazado 873704" d="M222.666,31.025s-2.4-1.392-3.457,1.522,1.667,6.519,4.34,5.845c0,0,.224-5.915-.883-7.367" transform="translate(-97.84 -13.713)" fill="#fb947d"/>
    <path id="Trazado_873705" data-name="Trazado 873705" d="M239.286,26.024a10.439,10.439,0,0,1-.679,3.57q-.186.522-.415,1.049v0c-2.656,6.154-9.546,12.731-13.849,8.185-2.544-2.689-3.407-7.283-3.606-11.418,0-.092-.007-.182-.012-.274-.069-1.666-.032-3.248.043-4.589a7.511,7.511,0,0,1,6.451-7.023,15.2,15.2,0,0,1,7.211.527c2.936,1.233,4.262,2.831,4.694,7.048.023.221.045.45.063.687.051.681.083,1.423.1,2.237" transform="translate(-98.605 -6.853)" fill="#fbb990"/>
    <path id="Trazado_873706" data-name="Trazado 873706" d="M234.061,36.625a2.352,2.352,0,0,1,3.551-.389,6.413,6.413,0,0,0-3.551.389" transform="translate(-104.58 -15.9)" fill="#1f3727"/>
    <path id="Trazado_873707" data-name="Trazado 873707" d="M223.827,36.925a6.009,6.009,0,0,0-3.061-.285c0-.092-.007-.182-.011-.274a2.337,2.337,0,0,1,3.072.559" transform="translate(-98.635 -16.081)" fill="#1f3727"/>
    <path id="Trazado_873708" data-name="Trazado 873708" d="M219.248,17.721s-3.605-3.8-1.883-7.8c0,0,1.39,2.5,2.63,2.371,0,0-.6-3.6.869-5.007,0,0,1.489,2.247,3.317,2.055s7.577-.779,10.8,1.767c0,0,2.35,0,2.76-.484a2.283,2.283,0,0,1-1.39,2.53A9.451,9.451,0,0,0,239,12.566a2.657,2.657,0,0,1-.789,2.09s2.458,8.383-1.527,13.391a1.082,1.082,0,0,1-1.3.3l-.367-.17s1.382-4.969-.2-7.216c0,0-2.961-2.274-2.752-4.912,0,0-4.567-.3-6.519.511a5.084,5.084,0,0,1-3.989.111,1.9,1.9,0,0,0-2.3,1.05" transform="translate(-96.912 -3.257)" fill="#1f3727"/>
    <path id="Trazado_873709" data-name="Trazado 873709" d="M250.1,31.107a1.993,1.993,0,0,1,2.183-1.248c.661.12,1.346.6,1.667,1.939.722,3.014-2.38,6.294-4.962,5.328a26.932,26.932,0,0,1,1.111-6.019" transform="translate(-111.249 -13.328)" fill="#fbb990"/>
    <path id="Trazado_873710" data-name="Trazado 873710" d="M251.747,36.661a.285.285,0,0,0,.267-.242,4.746,4.746,0,0,1,1.712-2.944.285.285,0,0,0-.33-.464,5.243,5.243,0,0,0-1.945,3.324.285.285,0,0,0,.3.326" transform="translate(-112.348 -14.726)" fill="#fb947d"/>
    <path id="Trazado_873711" data-name="Trazado 873711" d="M254.393,36.325a.285.285,0,0,0,.111-.54,3.168,3.168,0,0,0-1.719-.311.285.285,0,0,0,.119.557,2.572,2.572,0,0,1,1.35.266.287.287,0,0,0,.139.028" transform="translate(-112.845 -15.835)" fill="#fb947d"/>
    <path id="Trazado_873712" data-name="Trazado 873712" d="M227.276,41a4.326,4.326,0,0,0,.948-.159.3.3,0,1,0-.16-.584,3.129,3.129,0,0,1-1,.132c.007-.5.28-2.78.552-4.81a.3.3,0,1,0-.6-.08c-.144,1.081-.611,4.642-.548,5.056a.477.477,0,0,0,.216.329,1.075,1.075,0,0,0,.6.117" transform="translate(-101.183 -15.742)" fill="#fb947d"/>
    <path id="Trazado_873713" data-name="Trazado 873713" d="M236.946,32.493a.457.457,0,0,0,.236-.736,3.173,3.173,0,0,0-3.822-.834.456.456,0,0,0,.414.812,2.272,2.272,0,0,1,2.711.61.455.455,0,0,0,.46.148" transform="translate(-104.156 -13.666)" fill="#1f3727"/>
    <path id="Trazado_873714" data-name="Trazado 873714" d="M224.2,31.991a.4.4,0,0,0-.076-.678,2.8,2.8,0,0,0-3.378.708.4.4,0,0,0,.627.5,2.006,2.006,0,0,1,2.4-.487.4.4,0,0,0,.424-.047" transform="translate(-98.589 -13.865)" fill="#1f3727"/>
    <path id="Trazado_873715" data-name="Trazado 873715" d="M226,48.258a17.167,17.167,0,0,0,5.638-1.006,3.554,3.554,0,0,1-3.056,2.579A2.692,2.692,0,0,1,226,48.258" transform="translate(-100.979 -21.112)" fill="#fff"/>
    <path id="Trazado_873716" data-name="Trazado 873716" d="M230.513,53.873a2.611,2.611,0,0,1-.9-.119.272.272,0,0,1,.184-.512,2.5,2.5,0,0,0,2.411-.633.272.272,0,1,1,.363.405,3.17,3.17,0,0,1-2.059.858" transform="translate(-102.513 -23.475)" fill="#fb947d"/>
    <path id="Trazado_873717" data-name="Trazado 873717" d="M121.885,88.529l-7.474,6.136q.591,2.766,1.328,5.511c.539,1.98,1.145,3.956,1.846,5.93.356.986.735,1.972,1.147,2.955s.867,1.964,1.362,2.945l.128.228a3.932,3.932,0,0,0,2.029,1.755c.066.025.133.05.2.072l.1.034.089.026.143.036.29.067.386.064c.061.009.134.02.184.026l.155.015.309.028.154.014.14.007.272.012c.177.006.371.019.534.017.332,0,.675,0,1-.009l.955-.04c.313-.015.615-.042.925-.063s.615-.043.913-.076l.9-.09c.3-.028.6-.061.891-.1,2.367-.275,4.661-.658,6.948-1.059,1.139-.211,2.279-.41,3.408-.643s2.263-.445,3.384-.69,2.25-.471,3.365-.729l3.354-.762a2.388,2.388,0,0,0-.753-4.705l-.03,0-3.375.323c-1.124.112-2.249.19-3.372.289s-2.244.167-3.366.246-2.238.133-3.355.2c-2.229.1-4.455.184-6.626.155-.274,0-.543,0-.81-.012l-.8-.023c-.27-.006-.528-.024-.789-.038s-.524-.025-.777-.045l-.191-.017-.1-.009-.237-.022c-.015-.035-.031-.072-.045-.109-.043-.1-.085-.2-.126-.3-.026-.058-.05-.119-.076-.18q-.5-1.247-.937-2.543c-.586-1.731-1.1-3.514-1.565-5.323s-.865-3.649-1.222-5.5q-.267-1.386-.5-2.779c-.041-.247-.267-.971-.306-1.219" transform="translate(-51.119 -39.555)" fill="#fbb990"/>
    <path id="Trazado_873718" data-name="Trazado 873718" d="M174.632,117.636a2.089,2.089,0,0,1,.535-1.5,11.6,11.6,0,0,1,2.51-2.24c1.152-.58,4.633-2.1,5.621-1.716s-1.917,1.926-2.508,2.255a2.6,2.6,0,0,0-.872.769s6.93-3.025,7.679-2.633-3.029,2.51-3.966,3.027c0,0,5.343-1.989,5.738-1.588.793.805-5.079,3.185-5.079,3.185s4.577-1.443,4.781-.681c.215.807-4.691,2.34-4.691,2.34s3.114-.5,3.589.069-5.991,2.136-7.012,2.257-4.244.71-5.289-.313a6.056,6.056,0,0,1-1.037-3.23" transform="translate(-78.025 -50.094)" fill="#fbb990"/>
    <path id="Trazado_873719" data-name="Trazado 873719" d="M177.022,123.04c2.174,1.427,4.314-.834,4.335-.857a.225.225,0,1,0-.33-.307c-.077.082-1.9,2-3.758.787l0,0a.226.226,0,0,0-.312.065.23.23,0,0,0,.067.314" transform="translate(-79.048 -54.423)" fill="#fb947d"/>
    <path id="Trazado_873720" data-name="Trazado 873720" d="M188.5,122.346a.225.225,0,0,0,.259-.369,4.35,4.35,0,0,1-1.687-3.576.225.225,0,0,0-.449-.037,4.745,4.745,0,0,0,1.866,3.974l.012.008" transform="translate(-83.383 -52.793)" fill="#fb947d"/>
    <path id="Trazado_873721" data-name="Trazado 873721" d="M135.08,120.241c-.025.132-.058.27-.1.412a5.171,5.171,0,0,1-.3.832,3.928,3.928,0,0,1-.945,1.287.3.3,0,0,0-.055.376.319.319,0,0,0,.03.04.293.293,0,0,0,.415.025,4.925,4.925,0,0,0,1.463-2.529l-.1-.009-.237-.021c-.015-.036-.031-.072-.045-.109-.043-.1-.085-.2-.126-.3" transform="translate(-59.71 -53.724)" fill="#fb947d"/>
    <path id="Trazado_873722" data-name="Trazado 873722" d="M132.342,121.83a.3.3,0,0,0,.044.144.3.3,0,0,0,.263.139,3.912,3.912,0,0,0,1.453-.382,4.952,4.952,0,0,0,.73-.41.3.3,0,0,0,.077-.4l-.237-.021c-.015-.036-.031-.072-.045-.109a.268.268,0,0,0-.135.051l-.089.058a3.957,3.957,0,0,1-1.778.626.3.3,0,0,0-.283.306" transform="translate(-59.131 -53.969)" fill="#fb947d"/>
    <path id="Trazado_873723" data-name="Trazado 873723" d="M79.493,315.211h7.474l8.543-39.293,3.4-15.661,1.844-14.978,1.151-9.348,1.611-30.189-16.793.569-1.779,20.225c.212,2.971.524,7.168.827,11.573.205,3,.409,6.1.574,8.969.347,6.019.53,11.045.237,12.117A127.518,127.518,0,0,0,83.9,275.772c-1.052,13.079-2.583,26.61-4.4,39.439" transform="translate(-35.518 -91.927)" fill="#fb947d"/>
    <path id="Trazado_873724" data-name="Trazado 873724" d="M90.849,262.493c.206,3,.41,6.1.574,8.969l.366-.013a34.845,34.845,0,0,0,14.043-1.786l1.151-9.348Z" transform="translate(-40.592 -116.31)" fill="#e96c64"/>
    <path id="Trazado_873725" data-name="Trazado 873725" d="M79.493,371.511h7.475L94.9,335.04l.189-.87.424-1.952a45.163,45.163,0,0,0-11.614-.147q-.071.873-.144,1.749c-.023.293-.048.585-.073.878-1.04,12.257-2.487,24.84-4.185,36.812" transform="translate(-35.518 -148.227)" fill="#da0647"/>
    <path id="Trazado_873726" data-name="Trazado 873726" d="M87.059,336.374c2.761.034,7.052.119,11.219.34l.189-.87c-4.194-.227-8.531-.315-11.334-.349-.024.293-.048.585-.073.878" transform="translate(-38.898 -149.902)" fill="#fff"/>
    <path id="Trazado_873727" data-name="Trazado 873727" d="M104.225,411.665c-.581,1.239-26.108-.091-26.108-.091s-.81-7.579-.011-9.913,4.52.287,7.072-.3c0,0,1.528-2.117,2.768-2.045a20.1,20.1,0,0,1,4.072,2.383c.325.214.662.436,1.007.662.24.159.482.318.729.479.4.263.8.528,1.212.792l.46.3h0c.373.241.747.477,1.118.708a21.1,21.1,0,0,0,5.581,2.79c3.282.581,2.682,3,2.1,4.239" transform="translate(-34.741 -178.417)" fill="#ff9c00"/>
    <path id="Trazado_873728" data-name="Trazado 873728" d="M105.449,406.48a2.368,2.368,0,0,0-1.4.273,6.238,6.238,0,0,0-1.973,2.151.449.449,0,0,1-.263.215.456.456,0,0,1-.538-.657,7.007,7.007,0,0,1,2.351-2.521,3.708,3.708,0,0,1,.61-.253c.669.057,1.229.206,1.212.792" transform="translate(-45.225 -181.264)" fill="#fff"/>
    <path id="Trazado_873729" data-name="Trazado 873729" d="M102.391,404.289a2.472,2.472,0,0,0-.843.272,6.208,6.208,0,0,0-1.973,2.152.458.458,0,0,1-.8-.443,7.017,7.017,0,0,1,2.351-2.521,2.661,2.661,0,0,1,.26-.122c.428.035.909.009,1.007.662" transform="translate(-44.107 -180.343)" fill="#fff"/>
    <path id="Trazado_873730" data-name="Trazado 873730" d="M108.536,408.35a2.426,2.426,0,0,0-1.111.29,6.224,6.224,0,0,0-1.971,2.151.458.458,0,1,1-.8-.441A7.06,7.06,0,0,1,107,407.828a3.8,3.8,0,0,1,.415-.186h0c.727-.071,1.16.115,1.118.708" transform="translate(-46.733 -182.131)" fill="#fff"/>
    <path id="Trazado_873731" data-name="Trazado 873731" d="M44.06,313.653l4.715.547,1.709.123,13.385-41.046,5.177-15.88,1.837-12,1.455-9.512,4.726-30.868-18.373-2.088-.171-.043-.947-.239-.036-.008-3.191-.626c.7,5.79,1.6,19.7,2.3,31.768.154,2.64.3,5.192.429,7.551.423,7.654.7,13.271.7,13.271a64.158,64.158,0,0,0-6.8,17.212c-.038.163-.076.331-.113.506-2.366,10.6-6.809,41.327-6.809,41.327" transform="translate(-19.686 -90.263)" fill="#fbb990"/>
    <path id="Trazado_873732" data-name="Trazado 873732" d="M66.818,259.443c.155,2.64.3,5.192.43,7.552,3.386,1.773,8.5,3.9,13.8,4.065l1.455-9.513Z" transform="translate(-29.855 -115.921)" fill="#fb947d"/>
    <path id="Trazado_873733" data-name="Trazado 873733" d="M44.06,370.418l4.715.547,1.71.123,12.4-38.036.278-.852.7-2.157a74.5,74.5,0,0,0-13-.952c-.129.579-.264,1.217-.4,1.908-.058.282-.116.57-.175.87-2.443,12.365-6.23,38.549-6.23,38.549" transform="translate(-19.686 -147.028)" fill="#ff2961"/>
    <path id="Trazado_873734" data-name="Trazado 873734" d="M55.321,333.431c3.452.243,8.328.64,12.6,1.183l.278-.852c-4.282-.552-9.2-.953-12.7-1.2-.057.282-.116.57-.174.87" transform="translate(-24.718 -148.59)" fill="#fff"/>
    <path id="Trazado_873735" data-name="Trazado 873735" d="M67.017,411.665c-.581,1.239-26.108-.091-26.108-.091s-.81-7.579-.011-9.913,4.52.287,7.072-.3c0,0,1.528-2.117,2.768-2.045a20.1,20.1,0,0,1,4.072,2.383c.325.214.662.436,1.007.662.24.159.482.318.729.479.4.263.8.528,1.212.792l.46.3h0c.373.241.747.477,1.118.708a21.1,21.1,0,0,0,5.581,2.79c3.282.581,2.682,3,2.1,4.239" transform="translate(-18.116 -178.417)" fill="#ff9c00"/>
    <path id="Trazado_873736" data-name="Trazado 873736" d="M68.241,406.48a2.368,2.368,0,0,0-1.4.273A6.238,6.238,0,0,0,64.87,408.9a.449.449,0,0,1-.263.215.456.456,0,0,1-.538-.657,7.007,7.007,0,0,1,2.351-2.521,3.708,3.708,0,0,1,.61-.253c.669.057,1.229.206,1.212.792" transform="translate(-28.6 -181.264)" fill="#fff"/>
    <path id="Trazado_873737" data-name="Trazado 873737" d="M65.183,404.289a2.472,2.472,0,0,0-.843.272,6.209,6.209,0,0,0-1.973,2.152.458.458,0,0,1-.8-.443,7.017,7.017,0,0,1,2.351-2.521,2.661,2.661,0,0,1,.26-.122c.428.035.909.009,1.007.662" transform="translate(-27.482 -180.343)" fill="#fff"/>
    <path id="Trazado_873738" data-name="Trazado 873738" d="M71.329,408.35a2.426,2.426,0,0,0-1.111.29,6.224,6.224,0,0,0-1.971,2.151.46.46,0,0,1-.265.217.458.458,0,0,1-.538-.658,7.06,7.06,0,0,1,2.351-2.521,3.8,3.8,0,0,1,.415-.186h0c.727-.071,1.16.115,1.118.708" transform="translate(-30.109 -182.131)" fill="#fff"/>
    <path id="Trazado_873739" data-name="Trazado 873739" d="M60.113,176.111C74.8,180.032,87,182.466,100.07,178.057c-1.089-10.422-3.2-39.564-4.538-52.236-.029-.274-.057-.542-.085-.8-.233-2.22-.393-3.836-.451-4.62,0,0-.028-9.082.887-13.949a38.23,38.23,0,0,1,2.885-8.846c4.616-8.383.517-11.952,0-14.584s-1.18-10.943-4.455-13.2a11.526,11.526,0,0,0-6.7-2.016c-11.8-.456-18.013,3.8-19.893,8.526,0,0-2.5,15.767-1.307,26.014.638,5.5,1.188,9.787.73,13.886-.029.275-.065.552-.106.825a22.86,22.86,0,0,1-1.735,5.993c-2.25,5.113-6.181,12.7-2.816,31.165,1.287,7.063-.667,15.8-2.369,21.894" transform="translate(-26.859 -30.282)" fill="#0582fd"/>
    <path id="Trazado_873740" data-name="Trazado 873740" d="M103.547,92.489a15.291,15.291,0,0,0,2.069-.145,11.39,11.39,0,0,0,6.321-3.384.345.345,0,0,0-.513-.46,10.884,10.884,0,0,1-5.9,3.162c-6.04.821-8.641-2.369-8.667-2.4a.345.345,0,0,0-.542.425c.1.128,2.257,2.8,7.234,2.8" transform="translate(-43.001 -39.491)" fill="#0161df"/>
    <path id="Trazado_873741" data-name="Trazado 873741" d="M104.464,97.906a10.953,10.953,0,0,0,3.192-.456.345.345,0,0,0-.217-.654,10.255,10.255,0,0,1-6.808-.387.345.345,0,0,0-.292.625,9.737,9.737,0,0,0,4.125.873" transform="translate(-44.743 -43.062)" fill="#0161df"/>
    <path id="Trazado_873742" data-name="Trazado 873742" d="M97.044,129.719a.356.356,0,0,0,.121-.022c5.981-2.231,13.446-1.579,13.521-1.572a.344.344,0,0,0,.063-.686c-.076-.007-7.694-.674-13.825,1.613a.344.344,0,0,0,.121.667" transform="translate(-43.206 -56.898)" fill="#0161df"/>
    <path id="Trazado_873743" data-name="Trazado 873743" d="M72.622,156.2c8.767,4.91,25.413,8.185,28.5,8.762-.029-.274-.057-.542-.085-.8-3.608-.684-19.92-3.959-28.308-8.787q-.044.414-.106.826" transform="translate(-32.448 -69.422)" fill="#0161df"/>
    <path id="Trazado_873744" data-name="Trazado 873744" d="M73.039,190.3c6.395,0,11.79-3.063,15.27-5.725a36.242,36.242,0,0,0,6.424-6.293.344.344,0,0,0-.553-.411,35.566,35.566,0,0,1-6.3,6.169c-3.6,2.753-9.3,5.945-16.016,5.535a.344.344,0,0,0-.042.688c.41.025.818.038,1.221.038" transform="translate(-31.944 -79.412)" fill="#0161df"/>
    <path id="Trazado_873745" data-name="Trazado 873745" d="M79.456,199.459c8.9,0,16.126-5.883,16.2-5.948a.345.345,0,1,0-.439-.531c-.082.068-8.339,6.782-17.946,5.665a.344.344,0,1,0-.08.684,19.489,19.489,0,0,0,2.26.13" transform="translate(-34.356 -86.189)" fill="#0161df"/>
    <path id="Trazado_873746" data-name="Trazado 873746" d="M93.4,67.532a.3.3,0,0,1,.306.18c2.027,4.734,6.449,13.567,11.235,13.607h.017a1.635,1.635,0,0,0,1.554-1.235c1.206-3.03-.6-9.975-3.238-12.715a.327.327,0,0,1-.056-.392.318.318,0,0,1,.5-.058c2.829,2.924,4.683,10.128,3.381,13.4a2.26,2.26,0,0,1-2.142,1.634h-.022c-5.138-.044-9.679-9.053-11.787-14a.3.3,0,0,1,.245-.417H93.4" transform="translate(-41.607 -29.857)" fill="#fff"/>
    <path id="Trazado_873747" data-name="Trazado 873747" d="M63.49,115.528l.008.149a4.1,4.1,0,0,0,1.779,3.158l.113.077.088.057.155.1.3.184c.193.115.384.229.57.336.376.215.746.419,1.115.616.74.394,1.476.764,2.214,1.118,1.476.7,2.96,1.343,4.453,1.94a94.9,94.9,0,0,0,9.043,3.066c1.519.442,3.049.83,4.577,1.206.767.176,1.531.365,2.3.527l1.151.25,1.154.232q4.614.922,9.256,1.505a2.574,2.574,0,0,0,2.878-2.229c.168-1.322.055-2.46-1.214-2.754l-.32-.231c-2.929-.67-6.278-1.286-9.132-2.156l-1.07-.328L91.841,122c-.71-.223-1.411-.473-2.117-.71-1.4-.5-2.8-1-4.169-1.551a87.445,87.445,0,0,1-8.024-3.634c-1.291-.67-2.556-1.372-3.774-2.11q-.554-.338-1.094-.683c-.14-.089-.278-.18-.417-.271,0-.1.008-.191.012-.287.022-.451.051-.912.085-1.374.1-1.3.248-2.633.419-3.971s.371-2.69.589-4.042.452-2.71.7-4.067c.5-2.716,1.046-5.437,1.627-8.152q.436-2.038.9-4.07l.467-2.029.479-2,.017-.065a4.579,4.579,0,1,0-8.907-2.129c0,.009-.01.043-.013.052l-.479,2.112-.458,2.094q-.449,2.091-.873,4.19c-.565,2.8-1.1,5.607-1.582,8.44q-.363,2.122-.684,4.267c-.212,1.429-.409,2.868-.578,4.324s-.315,2.927-.414,4.437a41.251,41.251,0,0,0-.063,4.755" transform="translate(-28.348 -34.556)" fill="#fbb990"/>
    <path id="Trazado_873748" data-name="Trazado 873748" d="M71.592,143.618a.309.309,0,0,0,.223.1.3.3,0,0,0,.212-.086,8.743,8.743,0,0,1,4.236-1.706c-.14-.089-.279-.18-.418-.271,0-.1.008-.191.013-.287l-.313.06c-.283.058-.6.134-.944.231a7.3,7.3,0,0,0-3,1.527.308.308,0,0,0-.011.436" transform="translate(-31.95 -63.162)" fill="#fb947d"/>
    <path id="Trazado_873749" data-name="Trazado 873749" d="M76.5,141.341a.308.308,0,0,0,.142-.581,9.691,9.691,0,0,0-2.209-.808.308.308,0,0,0-.128.6,9.29,9.29,0,0,1,2.053.752.3.3,0,0,0,.142.035" transform="translate(-33.09 -62.528)" fill="#fb947d"/>
    <path id="Trazado_873750" data-name="Trazado 873750" d="M130.06,166.154c-.349-1.013.571-4.748,4.007-5.476,3.183-.675,3.8-1.423,6.181-1.6,2.06-.154.639.922-.714,1.906s-2.124,1.048-.983,2.019,7.205,2.765,8.275,4.036-6.646-1-6.646-1,6.165,2.984,6.134,3.938c-.036,1.142-6.8-1.671-6.8-1.671s4.872,3.283,4.666,3.685c-.4.78-5.766-1.727-5.766-1.727s3.238,2.431,2.609,2.8-7.954-2.85-10.962-6.9" transform="translate(-58.081 -71.07)" fill="#fbb990"/>
    <path id="Trazado_873751" data-name="Trazado 873751" d="M85.818,14.552c.26.224.539.444.84.658a13.7,13.7,0,0,0,2.006,1.169L96.3,10.152a11.968,11.968,0,0,0,.489-2.471c.031-.329.05-.677.05-1.038,0-2.374-.806-5.278-4.433-6.392-6.445-1.98-13.581,8.243-6.585,14.3" transform="translate(-37.056 0)" fill="#1f3727"/>
    <path id="Trazado_873752" data-name="Trazado 873752" d="M88.146,19.917c.26.224.539.444.84.658a.466.466,0,0,0,.043-.082,11.049,11.049,0,0,1,6.823-6.805,12.253,12.253,0,0,1,3.261-.641c.031-.329.05-.677.05-1.038a12.756,12.756,0,0,0-3.759.477,11.216,11.216,0,0,0-7.258,7.432" transform="translate(-39.384 -5.365)" fill="#0582fd"/>
    <path id="Trazado_873753" data-name="Trazado 873753" d="M94.971,60.441A9.4,9.4,0,0,0,104.3,62.4l-.236-10.039L96.325,49.8l-1.242-.411Z" transform="translate(-42.434 -22.068)" fill="#fbb990"/>
    <path id="Trazado_873754" data-name="Trazado 873754" d="M97.419,50.133s1.973,8.927,7.908,9.927l-.173-7.365Z" transform="translate(-43.527 -22.4)" fill="#fb947d"/>
    <path id="Trazado_873755" data-name="Trazado 873755" d="M120.576,33.861s2.495-1.54,3.691,1.5-1.567,6.924-4.406,6.293c0,0-.41-6.232.715-7.8" transform="translate(-53.522 -14.955)" fill="#fb947d"/>
    <path id="Trazado_873756" data-name="Trazado 873756" d="M91.08,29.229a10.288,10.288,0,0,0,.609,3.159c.065.195.137.391.212.587q.212.544.468,1.094v0a17.64,17.64,0,0,0,.954,1.771c3.391,5.513,9.82,9.293,13.907,5.327,3.243-3.147,3.657-8.535,3.475-13.112-.008-.2-.018-.4-.028-.591-.044-.857-.105-1.678-.169-2.445a7.925,7.925,0,0,0-.583-2.389s0-.006,0-.008A7.913,7.913,0,0,0,103.5,17.8a16.024,16.024,0,0,0-7.591.767,6.739,6.739,0,0,0-4.417,5.206,16.875,16.875,0,0,0-.327,2.366q-.027.35-.046.726-.027.571-.035,1.2c-.006.371-.006.757,0,1.16" transform="translate(-40.694 -7.897)" fill="#fbb990"/>
    <path id="Trazado_873757" data-name="Trazado 873757" d="M108.946,33.716s.861.1.81.684-.613.442-1.051.361a4.774,4.774,0,0,0-1.994.009,2.268,2.268,0,0,0-1.4,1.074s.064-2.385,3.634-2.128" transform="translate(-47.054 -15.056)" fill="#1f3727"/>
    <path id="Trazado_873758" data-name="Trazado 873758" d="M120.238,34.68c.046.529.559.4.958.331a4.368,4.368,0,0,1,1.819.008,2.259,2.259,0,0,1,.717.349c-.008-.2-.018-.4-.028-.591a3.363,3.363,0,0,0-2.727-.72s-.786.1-.74.623" transform="translate(-53.722 -15.209)" fill="#1f3727"/>
    <path id="Trazado_873759" data-name="Trazado 873759" d="M92.182,44.27c.065.194.137.391.212.587q.212.544.468,1.095v0a17.7,17.7,0,0,0,.954,1.771,3.27,3.27,0,0,0,1.031-1.606Z" transform="translate(-41.187 -19.78)" fill="#1f3727"/>
    <path id="Trazado_873760" data-name="Trazado 873760" d="M105.284,18.941s-2.665,4.71-6.845,4.462-2.466,3.337-4.587,4.569-5.985-3.28-2.938-9.279,12.483-5.334,14.952-3.9c2.951,1.715,6.684,5.222,4.25,10.452,0,0-3.916-2.586-4.832-6.3" transform="translate(-40.117 -6.173)" fill="#1f3727"/>
    <path id="Trazado_873761" data-name="Trazado 873761" d="M100.615,30.357s-2.6,1.759-1.764,4.135c1.5,4.286,1.423,6.552-.325,7.565a3.7,3.7,0,0,0,.255-3.893c-.645-1.569-1.438-2.807-.843-5.134a3.556,3.556,0,0,1,2.677-2.674" transform="translate(-43.665 -13.564)" fill="#1f3727"/>
    <path id="Trazado_873762" data-name="Trazado 873762" d="M114.127,56.913a3.138,3.138,0,0,0,1.008-.158.287.287,0,0,0-.2-.538,2.56,2.56,0,0,1-2.342-.4.287.287,0,0,0-.358.449,2.984,2.984,0,0,0,1.89.652" transform="translate(-50.1 -24.909)" fill="#fb947d"/>
    <path id="Trazado_873763" data-name="Trazado 873763" d="M93,33.741a2.3,2.3,0,0,0-3.416,1.865c-.674,3.2,2.441,6.011,5.229,5.815,0,0-.445-6.324-1.813-7.681" transform="translate(-39.985 -14.952)" fill="#fbb990"/>
    <path id="Trazado_873764" data-name="Trazado 873764" d="M96.345,46.424a.753.753,0,1,1-.752-.753.752.752,0,0,1,.752.753" transform="translate(-42.375 -20.406)" fill="#fff"/>
    <path id="Trazado_873765" data-name="Trazado 873765" d="M94.616,40.591a.3.3,0,0,1-.284-.244,4.923,4.923,0,0,0-1.861-3,.3.3,0,0,1,.329-.491,5.438,5.438,0,0,1,2.114,3.393.3.3,0,0,1-.239.343.308.308,0,0,1-.059,0" transform="translate(-41.258 -16.443)" fill="#fb947d"/>
    <path id="Trazado_873766" data-name="Trazado 873766" d="M92.114,40.282a.3.3,0,0,1-.131-.557,3.3,3.3,0,0,1,1.775-.372.3.3,0,1,1-.107.581,2.679,2.679,0,0,0-1.393.315.29.29,0,0,1-.143.034" transform="translate(-41.028 -17.572)" fill="#fb947d"/>
    <path id="Trazado_873767" data-name="Trazado 873767" d="M111.3,39.262c.01.555-.231,1.01-.537,1.015s-.563-.44-.573-1,.231-1.01.538-1.015.563.44.573,1" transform="translate(-49.231 -17.098)" fill="#1f3727"/>
    <path id="Trazado_873768" data-name="Trazado 873768" d="M123.2,39.262c.01.555-.231,1.01-.537,1.015s-.563-.44-.573-1,.231-1.01.538-1.015.563.44.573,1" transform="translate(-54.549 -17.098)" fill="#1f3727"/>
    <path id="Trazado_873769" data-name="Trazado 873769" d="M116.532,50.839a18.107,18.107,0,0,1-5.976-.9,3.75,3.75,0,0,0,3.3,2.63,2.84,2.84,0,0,0,2.677-1.735" transform="translate(-49.397 -22.315)" fill="#fff"/>
    <path id="Trazado_873770" data-name="Trazado 873770" d="M118.207,44.48a4.557,4.557,0,0,1-1.005-.139.32.32,0,0,1,.152-.621,3.3,3.3,0,0,0,1.062.11c-.022-.526-.377-2.924-.723-5.057a.32.32,0,1,1,.631-.1c.184,1.137.781,4.879.726,5.317a.5.5,0,0,1-.219.353,1.131,1.131,0,0,1-.625.141" transform="translate(-52.258 -17.157)" fill="#fb947d"/>
  </g>
</svg>
