<svg xmlns="http://www.w3.org/2000/svg" xmlns:xlink="http://www.w3.org/1999/xlink" width="295" height="351.43" viewBox="0 0 295 351.43">
  <defs>
    <clipPath id="clip-path">
      <rect id="Rectángulo_378927" data-name="Rectángulo 378927" width="294.513" height="343.537" fill="none"/>
    </clipPath>
    <clipPath id="clip-path-2">
      <rect id="Rectángulo_378912" data-name="Rectángulo 378912" width="294.513" height="343.537" fill="#fef0d7"/>
    </clipPath>
    <clipPath id="clip-path-5">
      <rect id="Rectángulo_378914" data-name="Rectángulo 378914" width="13.101" height="27.902" fill="none"/>
    </clipPath>
    <clipPath id="clip-path-6">
      <rect id="Rectángulo_378915" data-name="Rectángulo 378915" width="24.485" height="15.323" fill="none"/>
    </clipPath>
    <clipPath id="clip-path-10">
      <rect id="Rectángulo_378922" data-name="Rectángulo 378922" width="9.043" height="23.669" fill="none"/>
    </clipPath>
    <clipPath id="clip-path-11">
      <rect id="Rectángulo_378923" data-name="Rectángulo 378923" width="37.062" height="8.84" fill="none"/>
    </clipPath>
    <clipPath id="clip-path-13">
      <rect id="Rectángulo_378925" data-name="Rectángulo 378925" width="2.298" height="2.33" fill="none"/>
    </clipPath>
  </defs>
  <g id="Grupo_1099924" data-name="Grupo 1099924" transform="translate(-1020 -10088.57)">
    <circle id="Elipse_11490" data-name="Elipse 11490" cx="147.5" cy="147.5" r="147.5" transform="translate(1020 10145)" fill="#d2edec"/>
    <g id="Grupo_1099533" data-name="Grupo 1099533" transform="translate(1020 10088.57)">
      <g id="Grupo_1099532" data-name="Grupo 1099532" clip-path="url(#clip-path)">
        <g id="Grupo_1099504" data-name="Grupo 1099504">
          <g id="Grupo_1099503" data-name="Grupo 1099503" clip-path="url(#clip-path-2)">
            <path id="Trazado_873771" data-name="Trazado 873771" d="M254.306,113.176l3.783-2.134a3.691,3.691,0,0,1,1.477-5.095,3.513,3.513,0,0,1,4.066.281,3.894,3.894,0,0,1,1.459,3.216c-.045,1.42-.909,3.175-3.712,4.163l4.812,8.53,3.741-2.11-2.819-5a8.386,8.386,0,0,0,1.221-10.1c-3.121-5.532-8.806-4.018-10.93-2.821-1.624.916-6.934,4.429-3.1,11.063" transform="translate(-63.067 -25.176)" fill="#fef0d7"/>
            <rect id="Rectángulo_378907" data-name="Rectángulo 378907" width="4.359" height="4.071" transform="translate(204.105 98.724) rotate(-29.431)" fill="#fef0d7"/>
            <path id="Trazado_873772" data-name="Trazado 873772" d="M376.546,133.815l1.19.456a1.082,1.082,0,0,1,1.427-.619,1.033,1.033,0,0,1,.7.972,1.143,1.143,0,0,1-.454.931,1.383,1.383,0,0,1-1.635-.06l-1.028,2.682,1.176.45.6-1.571a2.46,2.46,0,0,0,2.509-1.612,2.289,2.289,0,0,0-1.406-3,2.185,2.185,0,0,0-3.079,1.368" transform="translate(-93.885 -32.971)" fill="#fef0d7"/>
            <rect id="Rectángulo_378908" data-name="Rectángulo 378908" width="1.194" height="1.278" transform="translate(282.216 106.872) rotate(-69.043)" fill="#fef0d7"/>
            <path id="Trazado_873773" data-name="Trazado 873773" d="M372.093,27.186l2.793,1.449a2.675,2.675,0,0,1,3.677-1.123A2.547,2.547,0,0,1,380,30.09a2.818,2.818,0,0,1-1.373,2.159c-.879.536-2.286.707-4-.6l-3.267,6.3,2.762,1.433,1.914-3.69a6.076,6.076,0,0,0,6.608-3.262c2.119-4.085-1.052-6.934-2.621-7.748-1.2-.622-5.435-2.451-7.938,2.5" transform="translate(-92.594 -5.943)" fill="#fef0d7"/>
            <rect id="Rectángulo_378909" data-name="Rectángulo 378909" width="2.95" height="3.158" transform="translate(276.734 35.917) rotate(-62.589)" fill="#fef0d7"/>
            <path id="Trazado_873774" data-name="Trazado 873774" d="M62.233,41.435,58.3,40.473a12.9,12.9,0,1,1,3.224-3.311l.006-.005Z" transform="translate(-9.464 -4.262)" fill="#fef0d7"/>
            <path id="Trazado_873775" data-name="Trazado 873775" d="M62.174,41.374a2.6,2.6,0,0,1-.062-.292c-.041-.209-.092-.481-.156-.826-.135-.74-.327-1.791-.574-3.146l.139.05,0,.005a.086.086,0,0,1-.121-.008.088.088,0,0,1-.006-.1,12.768,12.768,0,0,0-8.712-19.684,12.725,12.725,0,0,0-10.87,3.595,12.525,12.525,0,0,0-3.143,5.219,12.921,12.921,0,0,0-.405,5.809,12.782,12.782,0,0,0,19.929,8.352.085.085,0,0,1,.068-.013l2.889.759.76.2c.172.047.263.074.269.079a1.757,1.757,0,0,1-.242-.046l-.745-.163-2.97-.674.067-.013a12.822,12.822,0,0,1-5.93,2.343A13.04,13.04,0,0,1,37.891,32.053a13.262,13.262,0,0,1,.4-5.984,12.888,12.888,0,0,1,3.236-5.382,13.026,13.026,0,0,1,22.2,10.451,12.892,12.892,0,0,1-2.2,6.01l-.127-.112.006,0a.084.084,0,0,1,.119.006.1.1,0,0,1,.02.044q.311,2.083.48,3.223c.047.337.085.6.115.808a2.327,2.327,0,0,1,.029.26" transform="translate(-9.405 -4.2)" fill="#ebebeb"/>
            <path id="Trazado_873776" data-name="Trazado 873776" d="M47.209,34.413a4.772,4.772,0,0,1-.525-.676,7.228,7.228,0,0,1-.767-6.348,7.335,7.335,0,0,1,13.258-.76,8.127,8.127,0,0,1,.935,4.207,7.823,7.823,0,0,1-1.516,4.358,6.282,6.282,0,0,1-4.155,2.558,4.98,4.98,0,0,1-2.57-.4,7.833,7.833,0,0,1-2.214-1.489A13.762,13.762,0,0,1,47.862,33.8a8.1,8.1,0,0,1-1.245-2.517,5.138,5.138,0,0,1,.017-2.883A3.743,3.743,0,0,1,48.5,26.137a4.845,4.845,0,0,1,2.981-.44,7.894,7.894,0,0,1,2.865,1.115,7.244,7.244,0,0,1,2.293,2.144,3.785,3.785,0,0,1,.58,3.134,3.416,3.416,0,0,1-5.484,1.7,3.149,3.149,0,0,1-1.046-3.169,2.532,2.532,0,0,1,2.792-1.8,2.227,2.227,0,0,1,1.489,1.007,4.484,4.484,0,0,1,.63,1.668,5.394,5.394,0,0,1-.4,3.521,2.34,2.34,0,0,1-3.271.954A3.25,3.25,0,0,1,50.6,34.657a3.844,3.844,0,0,1-.432-1.82,7.686,7.686,0,0,1,1.01-3.554,4.65,4.65,0,0,1,2.81-2.452,3.221,3.221,0,0,1,1.937.14A2.32,2.32,0,0,1,57.3,28.379a2.7,2.7,0,0,1-1.724,3.256,3.75,3.75,0,0,1-3.729-.884,6.154,6.154,0,0,1-1.8-3.485,4.406,4.406,0,0,1,.12-2.013,3.162,3.162,0,0,1,1.2-1.652,2.576,2.576,0,0,1,2.015-.451,3.737,3.737,0,0,1,1.742,1.092,8.793,8.793,0,0,1,2.517,7.481,8.892,8.892,0,0,1-1.533,3.815A7.534,7.534,0,0,1,52.927,38.2a4.606,4.606,0,0,1-2.1.371,4.085,4.085,0,0,1-2.019-.721,6.916,6.916,0,0,1-2.455-3.418c-.25-.661-.447-1.335-.637-2.009a18.573,18.573,0,0,1-.482-2.064,6.327,6.327,0,0,1,.579-4.226,4.316,4.316,0,0,1,3.705-2.073,8.951,8.951,0,0,1,4.212.986,11.7,11.7,0,0,1,3.5,2.528,7.911,7.911,0,0,1,1.994,3.809,5.923,5.923,0,0,1-.64,4.216,4.746,4.746,0,0,1-7.444,1.23,6.054,6.054,0,0,1-2.026-3.649,8.788,8.788,0,0,1,.323-4.135,7.094,7.094,0,0,1,2.284-3.423,4.24,4.24,0,0,1,1.905-.86,3.643,3.643,0,0,1,2.068.284,5.144,5.144,0,0,1,2.649,3.033,8.777,8.777,0,0,1,.474,3.979A3.8,3.8,0,0,1,56.509,35.2a2.739,2.739,0,0,1-2.026-.086,3.991,3.991,0,0,1-1.568-1.244,7.112,7.112,0,0,1-.942-1.722,14.827,14.827,0,0,1-.607-1.835,4.745,4.745,0,0,1-.119-1.955,2.617,2.617,0,0,1,1.046-1.672,4.072,4.072,0,0,1,1.821-.674,9.613,9.613,0,0,1,1.9-.07,6.93,6.93,0,0,1,1.865.335,3.138,3.138,0,0,1,1.579,1.09,2.355,2.355,0,0,1,.364,1.883,3.152,3.152,0,0,1-.971,1.628,4.85,4.85,0,0,1-3.5.985,9.8,9.8,0,0,1-6.377-2.9,4.74,4.74,0,0,1-1-1.473,2.344,2.344,0,0,1-.038-1.8,2.537,2.537,0,0,1,1.26-1.257,4.8,4.8,0,0,1,1.68-.445,8.649,8.649,0,0,1,3.344.47,7.933,7.933,0,0,1,4.795,4.288,7.1,7.1,0,0,1-.231,6.174,6.286,6.286,0,0,1-5.013,3.125,5.318,5.318,0,0,1-2.883-.6A6.61,6.61,0,0,1,48.7,35.571,11.6,11.6,0,0,1,46.586,30.5a6.566,6.566,0,0,1,.922-5.078,4.533,4.533,0,0,1,2.028-1.512,3.282,3.282,0,0,1,2.448.013A3.827,3.827,0,0,1,53.754,25.5a7.56,7.56,0,0,1,.865,2.126A13.49,13.49,0,0,1,55,31.937a6.93,6.93,0,0,1-1.4,3.73,4.733,4.733,0,0,1-3.118,1.857,3.051,3.051,0,0,1-1.7-.281,2.356,2.356,0,0,1-1.1-1.206,7.083,7.083,0,0,1-.359-2.953,10.487,10.487,0,0,1,.483-2.567,10.842,10.842,0,0,1,1.927-3.588,10.228,10.228,0,0,1,1.8-1.745c.459-.331.711-.476.711-.476s-.056.047-.172.131-.3.2-.514.378a10.576,10.576,0,0,0-1.767,1.762,10.882,10.882,0,0,0-1.878,3.573,10.47,10.47,0,0,0-.459,2.54,6.988,6.988,0,0,0,.364,2.885A2.206,2.206,0,0,0,48.846,37.1a2.887,2.887,0,0,0,1.611.255,4.557,4.557,0,0,0,2.99-1.8A6.735,6.735,0,0,0,54.8,31.919a13.32,13.32,0,0,0-.389-4.234,7.337,7.337,0,0,0-.845-2.061,3.6,3.6,0,0,0-1.668-1.489,3.677,3.677,0,0,0-4.188,1.434,6.319,6.319,0,0,0-.861,4.884A11.339,11.339,0,0,0,48.913,35.4a6.327,6.327,0,0,0,2.1,1.794,5.029,5.029,0,0,0,2.735.565,6,6,0,0,0,4.769-2.982,6.793,6.793,0,0,0,.206-5.9,7.614,7.614,0,0,0-4.611-4.1,8.328,8.328,0,0,0-3.211-.449,3.065,3.065,0,0,0-2.66,1.5,2,2,0,0,0,.041,1.542,4.411,4.411,0,0,0,.934,1.363,9.448,9.448,0,0,0,6.152,2.792,4.513,4.513,0,0,0,3.249-.9,2.8,2.8,0,0,0,.86-1.442,2,2,0,0,0-.309-1.6,2.788,2.788,0,0,0-1.405-.957,6.59,6.59,0,0,0-1.769-.314,5.685,5.685,0,0,0-3.482.678,2.247,2.247,0,0,0-.9,1.445,4.382,4.382,0,0,0,.116,1.8,10.226,10.226,0,0,0,1.485,3.417,2.9,2.9,0,0,0,3.177,1.2A3,3,0,0,0,57.8,33.734,3.966,3.966,0,0,0,58.454,32,8.413,8.413,0,0,0,58,28.206a4.761,4.761,0,0,0-2.448-2.817,3.266,3.266,0,0,0-1.853-.255,3.874,3.874,0,0,0-1.73.785A7.782,7.782,0,0,0,49.5,33.108a5.661,5.661,0,0,0,1.9,3.42A4.358,4.358,0,0,0,58.258,35.4a5.523,5.523,0,0,0,.592-3.94,7.508,7.508,0,0,0-1.9-3.62,11.309,11.309,0,0,0-3.389-2.441,8.563,8.563,0,0,0-4.024-.947,3.917,3.917,0,0,0-3.384,1.879,5.945,5.945,0,0,0-.532,3.967,18.321,18.321,0,0,0,.472,2.021c.189.67.384,1.335.625,1.977a6.539,6.539,0,0,0,2.31,3.235,3.809,3.809,0,0,0,3.75.314A7.151,7.151,0,0,0,55.8,35.316a8.5,8.5,0,0,0,1.468-3.649,8.416,8.416,0,0,0-2.4-7.155,3.386,3.386,0,0,0-1.56-.994,2.2,2.2,0,0,0-1.717.392,3.255,3.255,0,0,0-1.169,3.3A5.792,5.792,0,0,0,52.1,30.479a3.383,3.383,0,0,0,3.356.811,2.334,2.334,0,0,0,1.5-2.8A1.955,1.955,0,0,0,55.792,27.3a2.864,2.864,0,0,0-1.719-.125,4.307,4.307,0,0,0-2.579,2.273,7.334,7.334,0,0,0-.971,3.381,3.486,3.486,0,0,0,.387,1.654,2.9,2.9,0,0,0,1.182,1.173,2,2,0,0,0,2.809-.815,5.067,5.067,0,0,0,.366-3.289,4.161,4.161,0,0,0-.576-1.543,1.888,1.888,0,0,0-1.263-.865,2.2,2.2,0,0,0-2.421,1.558,2.826,2.826,0,0,0,.936,2.831A3.1,3.1,0,0,0,56.919,32a3.472,3.472,0,0,0-.536-2.878,6.949,6.949,0,0,0-2.193-2.055,7.608,7.608,0,0,0-2.753-1.08,4.557,4.557,0,0,0-2.8.4,3.449,3.449,0,0,0-1.731,2.1,4.856,4.856,0,0,0-.021,2.725,10.444,10.444,0,0,0,2.952,4.455A5.823,5.823,0,0,0,54.411,37.5a6.047,6.047,0,0,0,4-2.452,7.6,7.6,0,0,0,1.484-4.228,7.924,7.924,0,0,0-.9-4.1,7.063,7.063,0,0,0-13.222,4.691,7.2,7.2,0,0,0,.943,2.3c.154.236.275.411.366.522s.125.176.125.176" transform="translate(-11.249 -5.662)" fill="#fef0d7"/>
            <rect id="Rectángulo_378910" data-name="Rectángulo 378910" width="36.522" height="9.662" transform="translate(146.425 185.527)" fill="#fef0d7"/>
            <path id="Trazado_873777" data-name="Trazado 873777" d="M210.947,270.3a1.166,1.166,0,0,1-.011-.176c0-.129-.007-.292-.012-.5q-.01-.682-.027-1.9c-.015-1.668-.036-4.066-.063-7.089l.113.113-36.52.073c.083-.083-.188.185.184-.186v2.471q0,1.228,0,2.438,0,2.419,0,4.753l-.182-.182,26.027.083,7.682.052,2.077.024.543.011a1.307,1.307,0,0,1,.192.012.9.9,0,0,1-.169.012l-.521.011-2.038.024-7.64.052-26.154.083h-.182V270.3q0-2.331,0-4.753,0-1.209,0-2.438,0-.614,0-1.233v-1.239c.372-.372.105-.1.188-.186l36.52.073h.114v.113c-.027,3.052-.048,5.472-.063,7.157q-.017,1.2-.027,1.876c-.005.2-.009.351-.012.475a.718.718,0,0,1-.011.154" transform="translate(-43.443 -64.935)" fill="#fee7bd"/>
            <rect id="Rectángulo_378911" data-name="Rectángulo 378911" width="36.522" height="9.662" transform="translate(15.949 276.369)" fill="#fef0d7"/>
            <path id="Trazado_873778" data-name="Trazado 873778" d="M37.134,391.316a1.166,1.166,0,0,1-.011-.176c0-.129-.007-.292-.012-.5q-.01-.682-.027-1.9c-.015-1.668-.036-4.066-.063-7.089l.113.113-36.52.073c.083-.083-.188.185.184-.186v2.471q0,1.229,0,2.438,0,2.419,0,4.752l-.182-.182,26.027.083,7.682.052,2.077.024.543.011a1.309,1.309,0,0,1,.192.012.9.9,0,0,1-.169.012l-.521.011-2.038.024-7.64.052L.612,391.5H.431v-.182q0-2.331,0-4.752,0-1.209,0-2.438,0-.614,0-1.233v-1.239c.372-.372.105-.1.188-.186l36.52.073h.114v.113c-.027,3.052-.048,5.472-.063,7.157q-.017,1.2-.027,1.876c-.005.2-.009.351-.012.475a.715.715,0,0,1-.011.154" transform="translate(-0.106 -95.108)" fill="#fef0d7"/>
            <path id="Trazado_873779" data-name="Trazado 873779" d="M373.365,306.1a1.178,1.178,0,0,1-.011-.176c0-.129-.007-.292-.012-.5q-.01-.682-.027-1.9c-.015-1.668-.036-4.066-.063-7.089l.113.113-36.52.073c.083-.083-.188.185.184-.186v2.471q0,1.228,0,2.438,0,2.419,0,4.752l-.182-.182L362.87,306l7.682.052,2.077.024.543.011a1.3,1.3,0,0,1,.192.012.9.9,0,0,1-.169.012l-.521.011-2.038.024L363,306.2l-26.154.083h-.182V306.1q0-2.331,0-4.752,0-1.209,0-2.438,0-.614,0-1.233V296.44c.372-.372.105-.1.188-.186l36.52.073h.114v.113c-.027,3.052-.048,5.473-.063,7.157q-.017,1.2-.027,1.876c-.005.2-.009.351-.012.476a.711.711,0,0,1-.011.153" transform="translate(-83.94 -73.862)" fill="#fee7bd"/>
            <path id="Trazado_873780" data-name="Trazado 873780" d="M384.8,293.223a1.132,1.132,0,0,1-.014-.184c0-.139-.008-.307-.014-.512q-.012-.713-.033-1.937c-.017-1.694-.042-4.087-.072-7.029l.134.134-21.942.053c-.167.166.224-.227.185-.185v2.517q0,1.245,0,2.459c0,1.616,0,3.184-.007,4.685l-.177-.177,15.7.084,4.572.049,1.233.022a3.749,3.749,0,0,1,.441.022,2.566,2.566,0,0,1-.4.022l-1.2.023-4.533.049-15.817.084h-.177v-.178c0-1.5,0-3.069-.007-4.685q0-1.213,0-2.459,0-.623,0-1.253v-1.264c-.041.04.353-.353.188-.187l21.942.052h.135v.134c-.03,2.976-.055,5.4-.072,7.11q-.02,1.2-.033,1.907a5.688,5.688,0,0,1-.029.645" transform="translate(-90.426 -70.645)" fill="#fee7bd"/>
            <path id="Trazado_873781" data-name="Trazado 873781" d="M46.271,235.909a1.166,1.166,0,0,1-.011-.176c0-.129-.007-.292-.012-.5q-.01-.682-.027-1.9c-.015-1.668-.036-4.066-.063-7.089l.113.113-36.52.073c.083-.083-.188.185.184-.186v2.471q0,1.228,0,2.438,0,2.419,0,4.752l-.182-.182,26.027.083,7.682.052,2.077.024.543.011a1.309,1.309,0,0,1,.192.012.9.9,0,0,1-.169.012l-.521.011-2.038.024-7.64.052-26.154.083H9.568v-.182q0-2.331,0-4.752,0-1.209,0-2.438v-2.471c.372-.372.105-.1.188-.186l36.52.073h.114v.113c-.027,3.052-.048,5.473-.062,7.157q-.018,1.2-.028,1.876c-.005.2-.009.351-.012.476a.71.71,0,0,1-.011.153" transform="translate(-2.384 -56.36)" fill="#fee7bd"/>
            <path id="Trazado_873782" data-name="Trazado 873782" d="M57.709,223.03a1.131,1.131,0,0,1-.014-.184c0-.139-.008-.307-.014-.512q-.012-.713-.033-1.937c-.017-1.694-.042-4.087-.072-7.028l.134.134-21.942.053c-.167.166.224-.227.185-.185v2.517q0,1.245,0,2.459c0,1.616,0,3.184-.006,4.685l-.177-.177,15.7.084,4.572.049,1.233.023a3.742,3.742,0,0,1,.441.022,2.572,2.572,0,0,1-.4.022l-1.2.023-4.533.049-15.817.084h-.177v-.178c0-1.5,0-3.069-.007-4.685q0-1.213,0-2.459v-2.517c-.041.04.353-.353.188-.187l21.942.053h.135v.134c-.03,2.976-.055,5.4-.072,7.11q-.021,1.2-.033,1.907a5.69,5.69,0,0,1-.029.645" transform="translate(-8.87 -53.143)" fill="#fee7bd"/>
            <path id="Trazado_873783" data-name="Trazado 873783" d="M225.411,140.6a1.164,1.164,0,0,1-.011-.176c0-.129-.007-.292-.012-.5q-.01-.682-.027-1.9c-.015-1.668-.036-4.066-.063-7.089l.113.113-36.52.073c.083-.083-.188.185.184-.186v2.471q0,1.228,0,2.438,0,2.419,0,4.752l-.182-.182,26.027.083,7.682.052,2.077.024.544.011a1.444,1.444,0,0,1,.192.012.9.9,0,0,1-.169.012l-.521.011-2.038.024-7.64.052-26.154.083h-.182V140.6q0-2.331,0-4.752,0-1.209,0-2.438v-2.471c.372-.372.105-.1.188-.186l36.52.073h.114v.113c-.027,3.052-.048,5.473-.062,7.157q-.018,1.2-.028,1.876c-.005.2-.009.351-.012.476a.713.713,0,0,1-.011.153" transform="translate(-47.05 -32.596)" fill="#fee7bd"/>
            <path id="Trazado_873784" data-name="Trazado 873784" d="M146.122,13.7a1.167,1.167,0,0,1-.011-.176c0-.129-.007-.292-.012-.5q-.01-.682-.027-1.9c-.015-1.668-.036-4.066-.063-7.089l.113.113-36.52.073c.083-.083-.188.185.184-.186V6.513q0,1.228,0,2.438,0,2.419,0,4.752l-.182-.182,26.027.083,7.682.052,2.077.024.543.011a1.449,1.449,0,0,1,.192.012.9.9,0,0,1-.169.012l-.521.011-2.038.024-7.64.052-26.154.083h-.182V13.7q0-2.331,0-4.752,0-1.209,0-2.438V4.041c.372-.372.105-.1.188-.186l36.52.073h.114v.113c-.027,3.052-.048,5.473-.062,7.157q-.018,1.2-.028,1.876c-.005.2-.009.351-.012.476a.709.709,0,0,1-.011.153" transform="translate(-27.28 -0.957)" fill="#fef0d7"/>
          </g>
        </g>
        <g id="Grupo_1099506" data-name="Grupo 1099506">
          <g id="Grupo_1099505" data-name="Grupo 1099505" clip-path="url(#clip-path)">
            <path id="Trazado_873785" data-name="Trazado 873785" d="M283.565,440.567c0,.108-62.672.2-139.963.2-77.318,0-139.976-.087-139.976-.2s62.658-.2,139.976-.2c77.292,0,139.963.087,139.963.2" transform="translate(-0.904 -109.799)" fill="#263238"/>
          </g>
        </g>
        <g id="Grupo_1099514" data-name="Grupo 1099514">
          <g id="Grupo_1099513" data-name="Grupo 1099513" clip-path="url(#clip-path)">
            <path id="Trazado_873786" data-name="Trazado 873786" d="M221.394,392.986s-3.066-21.078-2.81-33.342-.015-26.061-.015-26.061h1.413s-.957,24.343.084,39.025,3.783,20.378,3.783,20.378Z" transform="translate(-54.496 -83.173)" fill="#263238"/>
            <path id="Trazado_873787" data-name="Trazado 873787" d="M229.8,301.25a3.734,3.734,0,0,0-1.288-1.885,3.586,3.586,0,0,0-3.072.023c-4.268,1.51-8.052,9.468-9.778,13.655l5.668,19.1c10.229-9.49,12-21.939,8.471-30.888" transform="translate(-53.772 -74.556)" fill="#455a64"/>
            <path id="Trazado_873788" data-name="Trazado 873788" d="M230.066,300.508a1.085,1.085,0,0,1-.083.249l-.277.7c-.248.6-.6,1.474-1.013,2.559-.835,2.169-1.9,5.2-2.849,8.615s-1.6,6.564-2,8.853c-.2,1.144-.354,2.073-.45,2.715-.05.3-.089.545-.122.739a1.074,1.074,0,0,1-.058.255,1.149,1.149,0,0,1,.011-.261c.02-.2.047-.443.077-.745.07-.648.2-1.581.378-2.731a81.153,81.153,0,0,1,4.858-17.5c.437-1.079.809-1.945,1.084-2.535l.318-.679a1.1,1.1,0,0,1,.125-.23" transform="translate(-55.654 -74.926)" fill="#263238"/>
            <path id="Trazado_873789" data-name="Trazado 873789" d="M216.952,339.969a17.291,17.291,0,0,1-8.735-14.519c-.2-4.238,1.1-8.4,2.573-12.373a1.6,1.6,0,0,1,.6-.9,1.522,1.522,0,0,1,1.448.225c3.86,2.2,6.2,6.389,7.443,10.653a21.5,21.5,0,0,1,.874,8.76,14.554,14.554,0,0,1-4.2,8.153" transform="translate(-51.91 -77.809)" fill="#455a64"/>
            <path id="Trazado_873790" data-name="Trazado 873790" d="M218.609,341a1.057,1.057,0,0,1-.021-.256c0-.194-.008-.436-.014-.733,0-.636-.028-1.556-.08-2.692a73.755,73.755,0,0,0-.986-8.821c-.589-3.421-1.3-6.483-1.832-8.7-.26-1.083-.472-1.971-.628-2.621-.066-.29-.121-.526-.164-.715a.991.991,0,0,1-.041-.253,1.073,1.073,0,0,1,.087.241c.054.186.122.419.206.7.175.613.416,1.5.7,2.6.568,2.205,1.31,5.267,1.9,8.7a64.474,64.474,0,0,1,.92,8.854c.032,1.14.032,2.062.006,2.7-.012.3-.023.54-.03.733a1.073,1.073,0,0,1-.026.255" transform="translate(-53.567 -78.842)" fill="#263238"/>
            <g id="Grupo_1099509" data-name="Grupo 1099509" transform="translate(156.286 234.258)" opacity="0.3">
              <g id="Grupo_1099508" data-name="Grupo 1099508">
                <g id="Grupo_1099507" data-name="Grupo 1099507" clip-path="url(#clip-path-5)">
                  <path id="Trazado_873791" data-name="Trazado 873791" d="M216.952,339.969a17.291,17.291,0,0,1-8.735-14.519c-.2-4.238,1.1-8.4,2.573-12.373a1.6,1.6,0,0,1,.6-.9,1.522,1.522,0,0,1,1.448.225c3.86,2.2,6.2,6.389,7.443,10.653a21.5,21.5,0,0,1,.874,8.76,14.554,14.554,0,0,1-4.2,8.153" transform="translate(-208.196 -312.067)"/>
                </g>
              </g>
            </g>
            <path id="Trazado_873792" data-name="Trazado 873792" d="M227.844,392.05c5.228,1.149,9.533,4.837,14.576,6.629,3.337,1.186,7.111,1.606,9.775,3.939a8.282,8.282,0,0,0-3.627-3.609,65.037,65.037,0,0,0-13.212-6.307c-2.373-.819-4.948-1.5-7.366-.829" transform="translate(-56.809 -97.639)" fill="#455a64"/>
            <path id="Trazado_873793" data-name="Trazado 873793" d="M211.145,396.109c-6.547-.106-13.441-5.68-19.959-6.013,6.821-2.2,16.586-.4,19.959,6.013" transform="translate(-47.669 -97.04)" fill="#455a64"/>
            <path id="Trazado_873794" data-name="Trazado 873794" d="M221.182,374.832a21.316,21.316,0,0,1,10.467-.712,63.66,63.66,0,0,1,10.219,2.777c-.336-2.272-2.175-3.98-3.9-5.492a27.25,27.25,0,0,0-4.1-3.154,9.15,9.15,0,0,0-4.921-1.388,7.781,7.781,0,0,0-5.432,2.738,9.021,9.021,0,0,0-2.326,5.231" transform="translate(-55.148 -91.469)" fill="#455a64"/>
            <path id="Trazado_873795" data-name="Trazado 873795" d="M198.039,366.814c-4.122-3.519-10.364-3.175-15.782-3.053a128.607,128.607,0,0,1,24.476,15.253c.22-3.83-3.488-7.755-8.694-12.2" transform="translate(-45.443 -90.68)" fill="#455a64"/>
            <g id="Grupo_1099512" data-name="Grupo 1099512" transform="translate(136.814 273.011)" opacity="0.3">
              <g id="Grupo_1099511" data-name="Grupo 1099511">
                <g id="Grupo_1099510" data-name="Grupo 1099510" clip-path="url(#clip-path-6)">
                  <path id="Trazado_873796" data-name="Trazado 873796" d="M198.039,366.814c-4.122-3.519-10.364-3.175-15.782-3.053a128.607,128.607,0,0,1,24.476,15.253c.22-3.83-3.488-7.755-8.694-12.2" transform="translate(-182.257 -363.691)"/>
                </g>
              </g>
            </g>
            <path id="Trazado_873797" data-name="Trazado 873797" d="M223.645,355.756a45.842,45.842,0,0,1,6.339-3.684c2.169-.986,4.193-2.556,6.288-3.69a68.8,68.8,0,0,0,7.564-5.34,19.629,19.629,0,0,1,8.284-3.953,16.3,16.3,0,0,0-7.539.435,48.7,48.7,0,0,0-7.1,2.761c-3.216,1.448-6.486,2.932-9.115,5.284s-5,4.671-4.725,8.187" transform="translate(-55.756 -84.48)" fill="#455a64"/>
            <path id="Trazado_873798" data-name="Trazado 873798" d="M240.5,396.763a.848.848,0,0,1-.207-.089l-.571-.3c-.493-.262-1.2-.651-2.093-1.1-.441-.233-.93-.476-1.461-.725s-1.1-.518-1.7-.779a24.9,24.9,0,0,0-4.031-1.405,8.664,8.664,0,0,0-4.2-.106,12.006,12.006,0,0,0-1.78.531,9.193,9.193,0,0,0-3.241,2.229c-.379.406-.564.655-.581.643a.881.881,0,0,1,.118-.193,6.065,6.065,0,0,1,.4-.51,8.461,8.461,0,0,1,1.783-1.569,8.849,8.849,0,0,1,1.453-.778,11.842,11.842,0,0,1,1.8-.562,8.738,8.738,0,0,1,4.3.088,23.927,23.927,0,0,1,4.064,1.435c.606.268,1.176.533,1.7.8s1.016.51,1.453.753c.884.468,1.581.88,2.061,1.167l.55.334a.836.836,0,0,1,.184.131" transform="translate(-55.012 -97.695)" fill="#263238"/>
            <path id="Trazado_873799" data-name="Trazado 873799" d="M211.268,394.081a1.477,1.477,0,0,1,.41.12,9.05,9.05,0,0,1,1.067.464,12.953,12.953,0,0,1,5.471,5.255,9.229,9.229,0,0,1,.506,1.047,1.476,1.476,0,0,1,.136.405c-.038.017-.282-.538-.785-1.37a14.5,14.5,0,0,0-5.4-5.192c-.851-.469-1.415-.691-1.4-.73" transform="translate(-52.676 -98.257)" fill="#263238"/>
            <path id="Trazado_873800" data-name="Trazado 873800" d="M191.97,367.413a1.365,1.365,0,0,1,.279.083l.785.279,1.239.457c.483.179,1.007.444,1.6.706a37.826,37.826,0,0,1,8.524,5.431,41.665,41.665,0,0,1,3.976,3.914,44.028,44.028,0,0,1,2.821,3.575c.748,1.059,1.314,1.941,1.7,2.551l.448.7a1.472,1.472,0,0,1,.146.253,1.328,1.328,0,0,1-.184-.226c-.115-.152-.281-.381-.485-.679-.412-.6-1-1.462-1.762-2.5s-1.719-2.248-2.848-3.528a43.545,43.545,0,0,0-3.965-3.879,39.9,39.9,0,0,0-8.443-5.46c-.586-.27-1.1-.544-1.58-.734L193,367.86l-.769-.321a1.367,1.367,0,0,1-.263-.127" transform="translate(-47.864 -91.608)" fill="#263238"/>
            <path id="Trazado_873801" data-name="Trazado 873801" d="M230.718,372.422a2.257,2.257,0,0,1-.522-.068l-.6-.11c-.233-.046-.507-.047-.8-.077a8.236,8.236,0,0,0-4.5.887,8.126,8.126,0,0,0-2.047,1.52,9.25,9.25,0,0,0-1.317,1.627,13.61,13.61,0,0,0-.9,1.718,1.905,1.905,0,0,1,.134-.51,7.3,7.3,0,0,1,.626-1.295,8.729,8.729,0,0,1,1.3-1.691A7.964,7.964,0,0,1,228.8,372c.3.041.577.055.811.113l.6.151a2.3,2.3,0,0,1,.5.156" transform="translate(-54.859 -92.74)" fill="#263238"/>
            <path id="Trazado_873802" data-name="Trazado 873802" d="M237.2,345.384a1.343,1.343,0,0,1-.248.152l-.73.4c-.635.342-1.549.848-2.66,1.5s-2.408,1.477-3.793,2.468a31.736,31.736,0,0,0-4.235,3.548,10.769,10.769,0,0,0-1.732,2.243c-.429.823-.839,1.619-1.216,2.383a43.169,43.169,0,0,0-1.819,4.141,25.2,25.2,0,0,0-.885,2.916c-.167.7-.228,1.1-.251,1.092a1.3,1.3,0,0,1,.026-.289c.024-.189.064-.468.137-.822a21.584,21.584,0,0,1,.818-2.952,39.794,39.794,0,0,1,1.781-4.18c.372-.769.779-1.569,1.206-2.395a10.84,10.84,0,0,1,1.768-2.3,30.629,30.629,0,0,1,4.278-3.561c1.4-.986,2.715-1.788,3.834-2.435s2.052-1.121,2.7-1.44l.751-.358a1.311,1.311,0,0,1,.269-.11" transform="translate(-54.76 -86.115)" fill="#263238"/>
            <path id="Trazado_873803" data-name="Trazado 873803" d="M217.125,367.27a2.655,2.655,0,0,1-.13-.552c-.077-.4-.173-.911-.286-1.513a38.729,38.729,0,0,0-3.109-9.624l-.638-1.4a2.671,2.671,0,0,1-.21-.526,2.652,2.652,0,0,1,.291.486c.174.32.418.787.706,1.371a32.313,32.313,0,0,1,3.121,9.665c.1.643.176,1.166.214,1.528a2.673,2.673,0,0,1,.04.565" transform="translate(-53.046 -88.177)" fill="#263238"/>
            <path id="Trazado_873804" data-name="Trazado 873804" d="M211.986,345.684a17.772,17.772,0,0,0-2.129-7.069,23.335,23.335,0,0,0-15.817-11.794l14.643,21.823,1.891,3.9a11.192,11.192,0,0,0,1.412-6.856" transform="translate(-48.381 -81.487)" fill="#455a64"/>
            <rect id="Rectángulo_378916" data-name="Rectángulo 378916" width="34.048" height="6.035" transform="translate(150.561 307.206)" fill="#ffc278"/>
            <path id="Trazado_873805" data-name="Trazado 873805" d="M203.958,415.688l2.9,18.725h22.6l3.46-18.725Z" transform="translate(-50.853 -103.645)" fill="#ffc278"/>
            <path id="Trazado_873806" data-name="Trazado 873806" d="M234.508,417.253c0,.066-7.68.12-17.151.12s-17.154-.054-17.154-.12,7.679-.119,17.154-.119,17.151.053,17.151.119" transform="translate(-49.917 -104.005)" fill="#263238"/>
          </g>
        </g>
        <g id="Grupo_1099516" data-name="Grupo 1099516">
          <g id="Grupo_1099515" data-name="Grupo 1099515" clip-path="url(#clip-path)">
            <path id="Trazado_873807" data-name="Trazado 873807" d="M273.837,43.534a23.708,23.708,0,1,1-23.708-23.708,23.708,23.708,0,0,1,23.708,23.708" transform="translate(-56.454 -4.943)" fill="#fff"/>
            <path id="Trazado_873808" data-name="Trazado 873808" d="M273.772,43.48s-.02-.13-.04-.384c-.018-.269-.044-.643-.076-1.124q-.022-.374-.051-.829c-.033-.3-.1-.631-.152-.989a17.285,17.285,0,0,0-.5-2.443,22.621,22.621,0,0,0-2.63-6.281A23.681,23.681,0,0,0,254.41,20.352a21.958,21.958,0,0,0-2.977-.343c-.507-.017-1.019-.067-1.534-.059l-1.558.081c-.261.018-.525.017-.786.051l-.785.121c-.524.087-1.056.149-1.583.258a25.719,25.719,0,0,0-6.2,2.271c-.5.269-.973.583-1.465.875a11.983,11.983,0,0,0-1.42.978,21.489,21.489,0,0,0-4.972,4.994,22.779,22.779,0,0,0-3.361,6.478,25.124,25.124,0,0,0-1.213,7.418,25.139,25.139,0,0,0,1.212,7.421,22.793,22.793,0,0,0,3.361,6.481,26.724,26.724,0,0,0,2.3,2.727,26.327,26.327,0,0,0,2.668,2.269,11.988,11.988,0,0,0,1.42.979c.492.292.968.606,1.465.875a24.576,24.576,0,0,0,3.069,1.35,24.832,24.832,0,0,0,3.137.922c.527.109,1.059.17,1.583.257l.785.121c.261.035.525.033.786.051l1.558.081c.516.008,1.027-.041,1.534-.059a21.945,21.945,0,0,0,2.977-.343,23.68,23.68,0,0,0,15.917-11.078,22.617,22.617,0,0,0,2.629-6.281,17.264,17.264,0,0,0,.5-2.443c.054-.357.119-.686.152-.989s.036-.58.051-.828c.032-.482.058-.855.076-1.125.02-.254.04-.384.04-.384s.007.13,0,.384c-.009.27-.022.646-.038,1.129q-.015.375-.033.832c-.026.3-.086.636-.134,1a16.95,16.95,0,0,1-.464,2.464,22.48,22.48,0,0,1-2.589,6.355,23.838,23.838,0,0,1-16.045,11.285,22.051,22.051,0,0,1-3.018.359c-.514.02-1.034.071-1.556.064l-1.58-.077c-.265-.018-.533-.016-.8-.05l-.8-.12c-.532-.086-1.073-.148-1.608-.257a25.276,25.276,0,0,1-3.187-.928,24.823,24.823,0,0,1-3.119-1.365c-.5-.272-.989-.59-1.489-.886a12.272,12.272,0,0,1-1.444-.992,26.882,26.882,0,0,1-2.714-2.3,26.965,26.965,0,0,1-2.345-2.768A23.107,23.107,0,0,1,227.4,51.02a25.494,25.494,0,0,1-1.234-7.544,25.451,25.451,0,0,1,1.236-7.541,23.124,23.124,0,0,1,3.422-6.582,26.868,26.868,0,0,1,2.345-2.767,26.777,26.777,0,0,1,2.713-2.3,12.27,12.27,0,0,1,1.444-.991c.5-.3.984-.613,1.489-.887a24.871,24.871,0,0,1,3.118-1.364,25.243,25.243,0,0,1,3.187-.928c.534-.11,1.075-.171,1.607-.257l.8-.12c.265-.035.533-.032.8-.05l1.58-.077c.522-.007,1.041.044,1.556.064a22.172,22.172,0,0,1,3.017.358,23.842,23.842,0,0,1,16.046,11.285,22.45,22.45,0,0,1,2.589,6.355,16.846,16.846,0,0,1,.464,2.465c.049.36.108.691.134,1s.023.583.033.832c.016.483.029.859.038,1.129.006.254,0,.384,0,.384" transform="translate(-56.389 -4.889)" fill="#263238"/>
            <path id="Trazado_873809" data-name="Trazado 873809" d="M293.808,73.343a2.579,2.579,0,1,1-2.579-2.579,2.579,2.579,0,0,1,2.579,2.579" transform="translate(-71.97 -17.644)" fill="#fff"/>
            <path id="Trazado_873810" data-name="Trazado 873810" d="M293.743,73.287c-.035,0-.039-.23-.155-.611a2.573,2.573,0,0,0-.947-1.329,2.449,2.449,0,0,0-2.293-.312,2.411,2.411,0,1,0,2.293,4.191,2.572,2.572,0,0,0,.947-1.328c.116-.381.12-.612.155-.611a1.232,1.232,0,0,1-.007.648,2.574,2.574,0,0,1-.929,1.511,2.7,2.7,0,0,1-2.582.432,2.746,2.746,0,0,1,0-5.181,2.7,2.7,0,0,1,2.582.432,2.572,2.572,0,0,1,.929,1.511,1.232,1.232,0,0,1,.007.648" transform="translate(-71.905 -17.588)" fill="#263238"/>
            <path id="Trazado_873811" data-name="Trazado 873811" d="M254.7,55.584h-9.017a.934.934,0,0,1-.809-1.4l4.508-7.81,4.508-7.808a.934.934,0,0,1,1.619,0l4.508,7.808,4.509,7.81a.934.934,0,0,1-.809,1.4Z" transform="translate(-61.023 -9.499)" fill="#ffc278"/>
            <path id="Trazado_873812" data-name="Trazado 873812" d="M341.232,19.473a15.051,15.051,0,1,1-7.938-17.8,15.054,15.054,0,0,1,7.938,17.8" transform="translate(-77.726 -0.048)" fill="#fff"/>
            <path id="Trazado_873813" data-name="Trazado 873813" d="M340.785,20.582a1.385,1.385,0,0,1,.059-.238c.052-.17.119-.4.206-.685q.07-.227.155-.5c.049-.188.084-.4.132-.622a10.888,10.888,0,0,0,.257-1.561,14.365,14.365,0,0,0-.14-4.314A14.916,14.916,0,0,0,327,.32a13.709,13.709,0,0,0-4.243.546,16.892,16.892,0,0,0-2.091.737,16.875,16.875,0,0,0-1.979,1.091,14.405,14.405,0,0,0-3.453,3.068,15.933,15.933,0,0,0-2.4,4.11,15.931,15.931,0,0,0-.964,4.661,14.4,14.4,0,0,0,.519,4.591,16.707,16.707,0,0,0,.744,2.134A16.792,16.792,0,0,0,314.2,23.2a15.477,15.477,0,0,0,1.284,1.749,15.448,15.448,0,0,0,1.507,1.493,14.956,14.956,0,0,0,19,.477,14.374,14.374,0,0,0,2.985-3.117,10.962,10.962,0,0,0,.852-1.332c.113-.2.227-.378.316-.55l.221-.478.3-.647a1.333,1.333,0,0,1,.115-.217,1.306,1.306,0,0,1-.083.23l-.275.663-.206.487c-.085.176-.194.358-.3.562a10.613,10.613,0,0,1-.832,1.359,14.246,14.246,0,0,1-2.976,3.189,15.152,15.152,0,0,1-12.1,3.063,15.214,15.214,0,0,1-7.226-3.453,15.673,15.673,0,0,1-1.543-1.52,15.855,15.855,0,0,1-1.317-1.784,17,17,0,0,1-1.089-1.986,17.086,17.086,0,0,1-.765-2.179,14.744,14.744,0,0,1-.535-4.693,16.232,16.232,0,0,1,.985-4.766,16.215,16.215,0,0,1,2.452-4.2,14.725,14.725,0,0,1,3.534-3.133,17.159,17.159,0,0,1,2.025-1.11,17.115,17.115,0,0,1,2.136-.749A13.961,13.961,0,0,1,327,.01a15.206,15.206,0,0,1,7.683,2.259,15.156,15.156,0,0,1,6.954,10.36,14.248,14.248,0,0,1,.084,4.361,10.623,10.623,0,0,1-.289,1.567c-.054.224-.095.434-.149.621l-.172.5-.239.677a1.254,1.254,0,0,1-.092.226" transform="translate(-77.67 0)" fill="#263238"/>
            <path id="Trazado_873814" data-name="Trazado 873814" d="M333.619,49.632a2.542,2.542,0,1,1-1.426-2.91,2.542,2.542,0,0,1,1.426,2.91" transform="translate(-81.932 -11.593)" fill="#fff"/>
            <path id="Trazado_873815" data-name="Trazado 873815" d="M333.466,49.9c-.029-.01.051-.222.083-.616a2.538,2.538,0,0,0-.4-1.567,2.408,2.408,0,0,0-4.272.425,2.408,2.408,0,0,0,2.9,3.171,2.539,2.539,0,0,0,1.343-.9c.239-.314.321-.525.35-.513a1.3,1.3,0,0,1-.243.589,2.532,2.532,0,0,1-1.383,1.052,2.649,2.649,0,0,1-2.51-.514,2.685,2.685,0,0,1,1.811-4.728,2.649,2.649,0,0,1,2.211,1.294,2.53,2.53,0,0,1,.326,1.708,1.289,1.289,0,0,1-.212.6" transform="translate(-81.877 -11.542)" fill="#263238"/>
            <path id="Trazado_873816" data-name="Trazado 873816" d="M326.412,15.547h2.154a1.83,1.83,0,0,1,1.88-1.841,1.742,1.742,0,0,1,1.687,1.112,1.929,1.929,0,0,1-.153,1.744,2.336,2.336,0,0,1-2.618.894v4.857h2.13V19.468a4.158,4.158,0,0,0,2.987-4.063,3.87,3.87,0,0,0-4.033-3.881,3.7,3.7,0,0,0-4.033,4.023" transform="translate(-81.385 -2.873)" fill="#263238"/>
            <rect id="Rectángulo_378918" data-name="Rectángulo 378918" width="2.161" height="2.019" transform="translate(247.971 20.44)" fill="#263238"/>
          </g>
        </g>
        <g id="Grupo_1099518" data-name="Grupo 1099518">
          <g id="Grupo_1099517" data-name="Grupo 1099517" clip-path="url(#clip-path)">
            <path id="Trazado_873817" data-name="Trazado 873817" d="M140.962,72.413l4.879-6.128a24.939,24.939,0,1,1,3.2,8.341l0,.014Z" transform="translate(-35.146 -9.178)" fill="#fff"/>
            <path id="Trazado_873818" data-name="Trazado 873818" d="M140.961,72.36s.191.044.543.136l1.56.411,6,1.6-.1.106,0-.014-.183-.616.338.549a24.914,24.914,0,0,0,8.742,8.526,24.181,24.181,0,0,0,3.461,1.657,27.756,27.756,0,0,0,3.946,1.138,24.639,24.639,0,0,0,18.1-3.235,24.633,24.633,0,0,0,10.1-29.512,24.4,24.4,0,0,0-6.661-9.816,25.13,25.13,0,0,0-9.94-5.454,24.609,24.609,0,0,0-10.667-.525,24.787,24.787,0,0,0-15.8,9.7q-.31.435-.616.862a6.446,6.446,0,0,0-.564.875l-1.006,1.766a33.615,33.615,0,0,0-1.468,3.561,24.8,24.8,0,0,0-.816,12.144l.007.038-.024.029-3.653,4.5-.955,1.17c-.216.264-.337.4-.337.4s.092-.129.3-.391l.911-1.174,3.609-4.614-.017.066a24.8,24.8,0,0,1,.734-12.253,33.878,33.878,0,0,1,1.465-3.607l1.01-1.791a6.451,6.451,0,0,1,.567-.887l.619-.875a25.1,25.1,0,0,1,26.8-9.36A25.48,25.48,0,0,1,187.053,43a25.091,25.091,0,0,1,4.187,32.458,25.166,25.166,0,0,1-17.012,10.927,24.881,24.881,0,0,1-9.03-.244,27.785,27.785,0,0,1-3.986-1.169,24.335,24.335,0,0,1-3.49-1.693,24.9,24.9,0,0,1-8.757-8.663l.155-.068,0,.014.043.148-.147-.042-6.03-1.717-1.527-.441c-.34-.1-.5-.152-.5-.152" transform="translate(-35.146 -9.124)" fill="#263238"/>
            <rect id="Rectángulo_378920" data-name="Rectángulo 378920" width="18.424" height="18.424" transform="translate(126.051 43.46)" fill="#ffc278"/>
            <path id="Trazado_873819" data-name="Trazado 873819" d="M54.631,86.186l-4.764,2.241a16.758,16.758,0,1,1,.556-5.978l0-.009Z" transform="translate(-4.246 -16.748)" fill="#fff"/>
            <path id="Trazado_873820" data-name="Trazado 873820" d="M54.571,86.134s-.107-.084-.294-.243l-.825-.711L50.308,82.45l.14-.048,0,.009a.085.085,0,0,1-.1.07.087.087,0,0,1-.071-.077,16.737,16.737,0,0,0-2.738-7.718,16.271,16.271,0,0,0-3.626-3.873,16.541,16.541,0,0,0-26.642,11.31,16.337,16.337,0,0,0,1.087,7.868,16.843,16.843,0,0,0,4.349,6.222,16.487,16.487,0,0,0,6.247,3.481,16.635,16.635,0,0,0,20.772-11.34.08.08,0,0,1,.044-.053l3.54-1.609.93-.416c.211-.094.322-.141.33-.141a2.732,2.732,0,0,1-.287.15l-.893.439-3.55,1.727.044-.053A16.668,16.668,0,0,1,45.8,95.585a16.911,16.911,0,0,1-23.343.906A17.174,17.174,0,0,1,18,90.133a16.684,16.684,0,0,1-1.117-8.052A16.859,16.859,0,0,1,44.1,70.577a16.49,16.49,0,0,1,3.659,3.965,16.741,16.741,0,0,1,2.691,7.847l-.169-.008,0-.01a.084.084,0,0,1,.1-.07.094.094,0,0,1,.043.02l3.119,2.85.782.722c.173.161.257.241.249.239" transform="translate(-4.187 -16.696)" fill="#263238"/>
            <path id="Trazado_873821" data-name="Trazado 873821" d="M31.178,92.108s-.086-.036-.254-.118a7.243,7.243,0,0,1-.73-.4,9.392,9.392,0,0,1-4.352-7.064,9.5,9.5,0,0,1,15.183-8.1,10.533,10.533,0,0,1,3.385,4.439,10.123,10.123,0,0,1,.586,5.945,8.123,8.123,0,0,1-3.49,5.257,6.43,6.43,0,0,1-3.229.926,10.133,10.133,0,0,1-3.41-.548A17.847,17.847,0,0,1,31.637,91a10.483,10.483,0,0,1-2.829-2.281,6.628,6.628,0,0,1-1.541-3.387,4.82,4.82,0,0,1,.958-3.662,6.257,6.257,0,0,1,3.253-2.128,10.23,10.23,0,0,1,3.969-.245A9.372,9.372,0,0,1,39.3,80.569a4.868,4.868,0,0,1,2.37,3.347,4.39,4.39,0,0,1-5.482,4.939,4.043,4.043,0,0,1-2.925-3.127,3.241,3.241,0,0,1,2.276-3.589,2.842,2.842,0,0,1,2.265.371A5.793,5.793,0,0,1,39.44,84.12a6.956,6.956,0,0,1,1.438,4.336,2.988,2.988,0,0,1-3.283,2.861,4.168,4.168,0,0,1-2.251-.814,4.947,4.947,0,0,1-1.486-1.89,9.923,9.923,0,0,1-.741-4.717,5.989,5.989,0,0,1,1.956-4.385,4.129,4.129,0,0,1,2.33-.88,2.958,2.958,0,0,1,2.342.9,3.447,3.447,0,0,1-.254,4.7,4.819,4.819,0,0,1-4.824.977A7.938,7.938,0,0,1,30.674,82.1a5.672,5.672,0,0,1-.948-2.416,4.055,4.055,0,0,1,.511-2.569,3.294,3.294,0,0,1,2.093-1.6,4.805,4.805,0,0,1,2.619.336,11.369,11.369,0,0,1,7.011,7.411,11.509,11.509,0,0,1,.271,5.307,9.734,9.734,0,0,1-2.29,4.841,5.906,5.906,0,0,1-2.248,1.565,5.24,5.24,0,0,1-2.743.248,8.929,8.929,0,0,1-4.728-2.675c-.652-.641-1.251-1.328-1.843-2.018a24.125,24.125,0,0,1-1.689-2.166A8.16,8.16,0,0,1,25.079,83.1,5.1,5.1,0,0,1,26.1,80.472a6.169,6.169,0,0,1,2.187-1.786,11.559,11.559,0,0,1,5.475-1.128,15.145,15.145,0,0,1,5.49,1.065,10.219,10.219,0,0,1,4.4,3.385,7.627,7.627,0,0,1,1.533,5.279,6.107,6.107,0,0,1-8.033,5.459,7.445,7.445,0,0,1-2.465-1.2,8.653,8.653,0,0,1-1.881-1.972,11.358,11.358,0,0,1-1.864-5.026,9.156,9.156,0,0,1,.82-5.248,5.456,5.456,0,0,1,1.759-2.031,4.676,4.676,0,0,1,2.562-.783A6.627,6.627,0,0,1,40.822,78.6a11.584,11.584,0,0,1,1.609,2.052,9.663,9.663,0,0,1,1.1,2.356,5.593,5.593,0,0,1,.186,2.6,4.322,4.322,0,0,1-1.185,2.32,3.5,3.5,0,0,1-2.4.989,5.118,5.118,0,0,1-2.5-.6A9.2,9.2,0,0,1,35.6,86.806a19.214,19.214,0,0,1-1.711-1.827,6.1,6.1,0,0,1-1.2-2.22,3.344,3.344,0,0,1,.316-2.5,5.241,5.241,0,0,1,1.763-1.769,12.4,12.4,0,0,1,2.187-1.111,8.948,8.948,0,0,1,2.367-.619,4.025,4.025,0,0,1,2.425.417,3.007,3.007,0,0,1,1.43,1.987,4.034,4.034,0,0,1-.254,2.416,6.248,6.248,0,0,1-3.563,3.044,12.667,12.667,0,0,1-9.065.055,6.107,6.107,0,0,1-1.968-1.18,2.99,2.99,0,0,1-1.009-2.061,3.251,3.251,0,0,1,.789-2.136,6.185,6.185,0,0,1,1.725-1.429,11.159,11.159,0,0,1,4.18-1.264,10.252,10.252,0,0,1,7.954,2.428A9.17,9.17,0,0,1,45.051,86.4a8.121,8.121,0,0,1-4.183,6.383,6.857,6.857,0,0,1-3.707.857,8.552,8.552,0,0,1-3.581-1.015,15.026,15.026,0,0,1-5.24-4.819,11.078,11.078,0,0,1-1.513-3.1,6.74,6.74,0,0,1-.165-3.357,5.852,5.852,0,0,1,1.555-2.871,4.232,4.232,0,0,1,2.869-1.31,4.934,4.934,0,0,1,2.932.9,9.786,9.786,0,0,1,2.172,2.027,17.5,17.5,0,0,1,2.792,4.861,8.979,8.979,0,0,1,.38,5.147,6.126,6.126,0,0,1-2.651,3.875,3.938,3.938,0,0,1-2.145.595,3.04,3.04,0,0,1-1.942-.814,6.367,6.367,0,0,1-1.218-1.585l-.443-.845-.369-.847a13.639,13.639,0,0,1-.832-3.285,14.107,14.107,0,0,1,.31-5.276,13.313,13.313,0,0,1,1.17-3.04c.359-.642.573-.952.573-.952s-.042.085-.134.246-.242.4-.4.724a13.652,13.652,0,0,0-1.129,3.041,14.119,14.119,0,0,0-.272,5.242,13.588,13.588,0,0,0,.841,3.25l.37.836.441.833a6.254,6.254,0,0,0,1.194,1.543,2.888,2.888,0,0,0,1.847.767,3.781,3.781,0,0,0,2.052-.58,5.948,5.948,0,0,0,2.556-3.773,8.78,8.78,0,0,0-.39-5.035,17.323,17.323,0,0,0-2.769-4.791A9.58,9.58,0,0,0,33.9,78.253a4.71,4.71,0,0,0-2.8-.853,3.992,3.992,0,0,0-2.708,1.248A5.606,5.606,0,0,0,26.905,81.4a6.481,6.481,0,0,0,.169,3.232,10.822,10.822,0,0,0,1.484,3.027,14.764,14.764,0,0,0,5.15,4.721,8.264,8.264,0,0,0,3.467.977,6.566,6.566,0,0,0,3.555-.828,7.834,7.834,0,0,0,4.021-6.152,8.871,8.871,0,0,0-2.99-7.113,9.937,9.937,0,0,0-7.712-2.338A10.841,10.841,0,0,0,30,78.155a5.827,5.827,0,0,0-1.63,1.351,2.917,2.917,0,0,0-.714,1.915,2.656,2.656,0,0,0,.906,1.83,5.779,5.779,0,0,0,1.859,1.109,12.327,12.327,0,0,0,8.814-.062A5.909,5.909,0,0,0,42.6,81.438a3.682,3.682,0,0,0,.231-2.2,2.648,2.648,0,0,0-1.261-1.754,3.685,3.685,0,0,0-2.211-.369,8.6,8.6,0,0,0-2.271.6,12.088,12.088,0,0,0-2.121,1.079,4.889,4.889,0,0,0-1.644,1.643,2.975,2.975,0,0,0-.279,2.235,5.748,5.748,0,0,0,1.129,2.083,18.88,18.88,0,0,0,1.676,1.787,8.851,8.851,0,0,0,1.955,1.448,4.766,4.766,0,0,0,2.318.562,3.123,3.123,0,0,0,2.148-.884,3.957,3.957,0,0,0,1.078-2.121,5.228,5.228,0,0,0-.178-2.428,9.289,9.289,0,0,0-1.064-2.263,11.167,11.167,0,0,0-1.558-1.985,6.249,6.249,0,0,0-4.463-2,4.294,4.294,0,0,0-2.355.72,5.074,5.074,0,0,0-1.631,1.89,8.784,8.784,0,0,0-.778,5.023,10.99,10.99,0,0,0,1.8,4.854,7.41,7.41,0,0,0,4.133,3.021A5.719,5.719,0,0,0,44.8,87.247a7.234,7.234,0,0,0-1.46-5.008A9.825,9.825,0,0,0,39.1,78.985a14.77,14.77,0,0,0-5.348-1.036,11.2,11.2,0,0,0-5.288,1.085,5.152,5.152,0,0,0-3,4.108,7.78,7.78,0,0,0,1.547,5.006,23.638,23.638,0,0,0,1.662,2.13c.589.688,1.181,1.367,1.819,1.993a8.55,8.55,0,0,0,4.518,2.57,4.854,4.854,0,0,0,2.543-.227,5.523,5.523,0,0,0,2.1-1.465A9.343,9.343,0,0,0,41.852,88.5a11.1,11.1,0,0,0-.26-5.129,10.988,10.988,0,0,0-6.772-7.164,4.459,4.459,0,0,0-2.411-.324,2.924,2.924,0,0,0-1.848,1.425,3.676,3.676,0,0,0-.463,2.332,5.292,5.292,0,0,0,.887,2.257,7.581,7.581,0,0,0,3.795,2.959,4.45,4.45,0,0,0,4.454-.887,3.085,3.085,0,0,0,.244-4.193,2.592,2.592,0,0,0-2.058-.783,3.77,3.77,0,0,0-2.126.8,5.647,5.647,0,0,0-1.822,4.126,9.573,9.573,0,0,0,.7,4.542,4.6,4.6,0,0,0,1.375,1.76,3.825,3.825,0,0,0,2.061.748,2.643,2.643,0,0,0,2.922-2.541,6.627,6.627,0,0,0-1.371-4.111A5.446,5.446,0,0,0,37.628,82.8a2.5,2.5,0,0,0-2-.336,2.91,2.91,0,0,0-2.04,3.213,3.719,3.719,0,0,0,2.683,2.867,4.071,4.071,0,0,0,5.09-4.578,4.56,4.56,0,0,0-2.224-3.133A9.081,9.081,0,0,0,35.412,79.6a9.941,9.941,0,0,0-3.852.23,5.963,5.963,0,0,0-3.106,2.021,4.528,4.528,0,0,0-.906,3.449,6.346,6.346,0,0,0,1.472,3.245,10.236,10.236,0,0,0,2.753,2.225,17.586,17.586,0,0,0,3.175,1.43,9.9,9.9,0,0,0,3.321.543,6.179,6.179,0,0,0,3.107-.882,7.889,7.889,0,0,0,3.392-5.095,9.912,9.912,0,0,0-.559-5.813,10.333,10.333,0,0,0-3.3-4.359,9.25,9.25,0,0,0-14.946,7.929,9.161,9.161,0,0,0,1.886,4.843,9.35,9.35,0,0,0,2.371,2.2c.312.194.551.333.718.414s.245.136.245.136" transform="translate(-6.247 -18.581)" fill="#263238"/>
          </g>
        </g>
        <g id="Grupo_1099526" data-name="Grupo 1099526">
          <g id="Grupo_1099525" data-name="Grupo 1099525" clip-path="url(#clip-path)">
            <path id="Trazado_873822" data-name="Trazado 873822" d="M334.923,95.145a39.747,39.747,0,0,1,2.217-10.6,17.4,17.4,0,0,1,6.532-8.458l.784.73A4.546,4.546,0,0,1,352.4,75.6a4.489,4.489,0,0,1,4.9,6.821,4.116,4.116,0,0,1,1.832,7.462,5.989,5.989,0,0,1-3.693,10.516,4.734,4.734,0,0,1-8.269,4.15,4.763,4.763,0,0,1-3.66,4.713,6.476,6.476,0,0,1-5.926-1.862,10.287,10.287,0,0,1-2.7-5.781,25.988,25.988,0,0,1,.039-6.474" transform="translate(-83.451 -18.393)" fill="#263238"/>
            <path id="Trazado_873823" data-name="Trazado 873823" d="M345.969,80.969c2.1.679,2.527,2.377,2.962,3.793.938,3.046-.116,7.555-1.821,10.248a8.714,8.714,0,0,1-6.73,4.518q-.153-7.254-.308-14.508Z" transform="translate(-84.791 -20.188)" fill="#ffc278"/>
            <path id="Trazado_873824" data-name="Trazado 873824" d="M337.189,85.3a5.023,5.023,0,0,0-.446-6.426A3.363,3.363,0,0,0,336.4,74.8a9.83,9.83,0,0,0-3.658-2.416,6.763,6.763,0,0,0-7.881-4.938c-1.749-2.572-5.476-2.974-8.462-2.1a7.977,7.977,0,0,1-2.217.483,12.92,12.92,0,0,1-1.654-.229c-3.038-.408-6.053,1.73-7.237,4.557a5.6,5.6,0,0,1-.645,1.315,7.578,7.578,0,0,1-1.5,1.2,4.848,4.848,0,0,0-1.858,3.587c-.05,1.179.326,2.431-.171,3.5a17.532,17.532,0,0,0-.893,1.531c-.562,1.621,1.235,3.277.9,4.96-.068.343-.222.663-.318,1a2.992,2.992,0,0,0,.182,2.091,4.29,4.29,0,0,1,.658,1.506,4.814,4.814,0,0,1-.245,1.227c-.2,1,1.962,4.876,2.83,5.423l25.936.233a4.848,4.848,0,0,0,3.75-4.174,1.779,1.779,0,0,1,.242-.954,2.093,2.093,0,0,1,.708-.459c1.67-.9,1.872-3.19,1.7-5.077a2.3,2.3,0,0,1,.015-.792,2.893,2.893,0,0,1,.612-.972" transform="translate(-74.827 -16.188)" fill="#263238"/>
            <path id="Trazado_873825" data-name="Trazado 873825" d="M330.541,87.54a13.889,13.889,0,0,0-7.362-12.109,17.152,17.152,0,0,0-6.628-1.6,10.5,10.5,0,0,0-6.117,1.283c-1.429.336-6.668,5.132-6.94,10.337-.3,5.783-.444,12.854.288,17.16,1.47,8.655,8.127,9.687,8.127,9.687s-.62,14.387-.62,14.387l12.794,10.485,4.981-16.654Z" transform="translate(-75.61 -18.393)" fill="#ffc09d"/>
            <path id="Trazado_873826" data-name="Trazado 873826" d="M314.754,124.025a22.145,22.145,0,0,0,11.617-3.22s-3.026,6.144-11.712,5.426Z" transform="translate(-78.455 -30.121)" fill="#ff9b6c"/>
            <path id="Trazado_873827" data-name="Trazado 873827" d="M337.863,102.291c-.005-.646.724-2.176,1.361-2.282,1.7-.284,4.771-.18,4.846,4.144.1,5.911-5.853,4.795-5.866,4.625-.011-.132-.321-4.257-.34-6.487" transform="translate(-84.24 -24.912)" fill="#ffc09d"/>
            <path id="Trazado_873828" data-name="Trazado 873828" d="M340.436,107.247c.026-.02.1.071.279.147a1.032,1.032,0,0,0,.77,0,2.547,2.547,0,0,0,1.139-2.306,3.4,3.4,0,0,0-.314-1.47,1.189,1.189,0,0,0-.788-.777.525.525,0,0,0-.6.293c-.077.167-.037.284-.068.3s-.129-.1-.086-.342a.655.655,0,0,1,.227-.375.778.778,0,0,1,.567-.161,1.449,1.449,0,0,1,1.091.9,3.5,3.5,0,0,1,.385,1.642,2.673,2.673,0,0,1-1.458,2.579,1.1,1.1,0,0,1-.944-.14c-.186-.143-.219-.274-.2-.285" transform="translate(-84.881 -25.569)" fill="#ff9b6c"/>
            <path id="Trazado_873829" data-name="Trazado 873829" d="M301.872,83.63a15.674,15.674,0,0,1,2.079-6.073,12.588,12.588,0,0,1,2.67-3.56,13.915,13.915,0,0,1,3.192-1.925c2.962-1.4,6.265-2.6,9.462-1.876a16.324,16.324,0,0,1,4.765,2.214,17.9,17.9,0,0,1,3.274,2.36,13.39,13.39,0,0,1,2.127,2.829,18.328,18.328,0,0,1,2.636,7.959c.194,2.813,2.323,5.3.673,7.589a33.793,33.793,0,0,1-3.268.866c-.477.191-1-.328-1-.841a1.893,1.893,0,0,1,.738-1.3,1.43,1.43,0,0,1-1.187-1.57,3.88,3.88,0,0,1,.913-1.963.563.563,0,0,0,.128-.253c.031-.249-.252-.4-.468-.53a1.99,1.99,0,0,1-.211-3.116,2.669,2.669,0,0,1-1.822-3.38.854.854,0,0,0,.085-.66c-.1-.2-.342-.258-.553-.321a3.39,3.39,0,0,1-2.27-3.817,8.492,8.492,0,0,1-2.453-.109,2.87,2.87,0,0,1-1.935-1.4,3.2,3.2,0,0,1-5.415.291,8.377,8.377,0,0,1-4.058-.628,3.961,3.961,0,0,1-2.581,2.778c-.243.079-.524.155-.642.384a.943.943,0,0,0-.054.48c.044.825-.519,1.177-.974,1.867s-1.249,1.718-2.043,1.49a3.439,3.439,0,0,1-1.85,3.187Z" transform="translate(-75.256 -17.448)" fill="#263238"/>
            <path id="Trazado_873830" data-name="Trazado 873830" d="M300.257,81.257a2.267,2.267,0,0,1,.313-.637c.123-.2.3-.428.462-.723a2.764,2.764,0,0,0,.322-1.107,8.675,8.675,0,0,0-.039-1.462,6.516,6.516,0,0,1,.031-1.756,4.922,4.922,0,0,1,.76-1.869,4.85,4.85,0,0,1,.72-.843,7.183,7.183,0,0,1,.928-.7,3.676,3.676,0,0,0,.891-.783,4.756,4.756,0,0,0,.55-1.118,7.937,7.937,0,0,1,3.691-4.081,7.087,7.087,0,0,1,1.419-.547,6.351,6.351,0,0,1,1.552-.189,7.323,7.323,0,0,1,.8.056c.264.039.526.092.787.137a3.813,3.813,0,0,0,1.58-.012c.528-.109,1.046-.3,1.591-.445a10.417,10.417,0,0,1,3.4-.342,9.041,9.041,0,0,1,1.737.3,5.833,5.833,0,0,1,2.993,1.938l.221.289-.095-.036a6.86,6.86,0,0,1,7.986,5.007l-.048-.059a18.709,18.709,0,0,1,2.082,1.076,6.245,6.245,0,0,1,1.7,1.5,4.058,4.058,0,0,1,.787,2.034,2.794,2.794,0,0,1-.548,2l-.006-.1a4.892,4.892,0,0,1,1.386,3.024,5.01,5.01,0,0,1-.59,2.943,4.777,4.777,0,0,1-.388.589,6.424,6.424,0,0,0-.4.531,1.259,1.259,0,0,0-.206.581,3.643,3.643,0,0,0,.022.613,9.711,9.711,0,0,1-.044,2.245,4.7,4.7,0,0,1-.568,1.712,2.919,2.919,0,0,1-.911.968c-.3.2-.573.284-.722.395a1.3,1.3,0,0,0-.214.18.686.686,0,0,1,.2-.2c.148-.119.417-.208.71-.414a2.879,2.879,0,0,0,.879-.963,4.664,4.664,0,0,0,.54-1.691,9.668,9.668,0,0,0,.026-2.223,3.711,3.711,0,0,1-.026-.632,1.374,1.374,0,0,1,.218-.631,6.484,6.484,0,0,1,.406-.543,4.727,4.727,0,0,0,.374-.576,4.9,4.9,0,0,0,.561-2.871,4.763,4.763,0,0,0-1.356-2.931l-.048-.047.042-.053a2.641,2.641,0,0,0,.51-1.9,3.9,3.9,0,0,0-.761-1.952,6.081,6.081,0,0,0-1.663-1.455,18.675,18.675,0,0,0-2.065-1.063l-.038-.017-.009-.041a6.692,6.692,0,0,0-7.778-4.87l-.056.014-.038-.05-.215-.279a5.651,5.651,0,0,0-2.9-1.878,8.874,8.874,0,0,0-1.7-.3,10.236,10.236,0,0,0-3.347.333c-.535.137-1.057.333-1.6.445a4.082,4.082,0,0,1-.826.092,4.863,4.863,0,0,1-.816-.082c-.266-.046-.525-.1-.784-.137a7.1,7.1,0,0,0-.775-.056,6.175,6.175,0,0,0-1.51.181,6.919,6.919,0,0,0-1.387.531,7.8,7.8,0,0,0-3.635,3.993,4.926,4.926,0,0,1-.572,1.146,3.792,3.792,0,0,1-.926.807,7.186,7.186,0,0,0-.918.687,4.757,4.757,0,0,0-.707.819,4.831,4.831,0,0,0-.756,1.824,6.412,6.412,0,0,0-.044,1.731,8.535,8.535,0,0,1,.023,1.475,2.772,2.772,0,0,1-.344,1.126c-.173.3-.351.523-.479.717a3.444,3.444,0,0,0-.267.454c-.052.107-.071.165-.076.164" transform="translate(-74.864 -16.16)" fill="#455a64"/>
            <path id="Trazado_873831" data-name="Trazado 873831" d="M326.421,66.33c-.009.014-.157-.089-.445-.227a3.959,3.959,0,0,0-1.292-.366,3.735,3.735,0,0,0-1.941.3,3.857,3.857,0,0,0-1.755,1.615,3.291,3.291,0,0,0-.289.672.742.742,0,0,0,.048.622l.146.2-.24-.065a2.448,2.448,0,0,0-1.826.232,2.362,2.362,0,0,0-.994,1.1,2.59,2.59,0,0,0-.223.976c-.006.236.013.366,0,.369s-.014-.031-.028-.092a1.583,1.583,0,0,1-.032-.276,2.469,2.469,0,0,1,1.2-2.208,2.572,2.572,0,0,1,1.947-.269l-.093.134a.9.9,0,0,1-.078-.77,3.4,3.4,0,0,1,.3-.712,3.963,3.963,0,0,1,1.845-1.679,3.772,3.772,0,0,1,2.022-.273,3.678,3.678,0,0,1,1.308.429,2.543,2.543,0,0,1,.315.2c.068.052.1.081.1.086" transform="translate(-79.175 -16.35)" fill="#455a64"/>
            <path id="Trazado_873832" data-name="Trazado 873832" d="M339.6,75.519c.007.007-.062.086-.2.213a3.883,3.883,0,0,1-.665.47,2.835,2.835,0,0,1-1.176.363,2.112,2.112,0,0,1-1.471-.432l.131-.021-.171.244c-.063.08-.133.155-.2.234a3.578,3.578,0,0,1-1.47.931,3.669,3.669,0,0,1-1.407.188,3.262,3.262,0,0,1-.933-.2,1.171,1.171,0,0,1-.31-.162,5.148,5.148,0,0,0,1.249.242,3.747,3.747,0,0,0,1.347-.218,3.526,3.526,0,0,0,1.393-.9c.063-.075.13-.146.189-.221l.163-.23.058-.081.073.06a1.992,1.992,0,0,0,1.35.412,2.843,2.843,0,0,0,1.131-.311c.6-.31.905-.6.925-.579" transform="translate(-82.709 -18.829)" fill="#455a64"/>
            <path id="Trazado_873833" data-name="Trazado 873833" d="M343.4,82.624c.006,0,0,.038-.014.109a1.037,1.037,0,0,1-.129.287,1.58,1.58,0,0,1-.947.64,3.013,3.013,0,0,1-1.691-.17,9.784,9.784,0,0,1-.936-.361,1.616,1.616,0,0,1-.822-.737c-.013-.033-.026-.065-.038-.1l.14.041a6.762,6.762,0,0,1-1.745,1.067,3.043,3.043,0,0,1-1.659.185,2.19,2.19,0,0,1-1.026-.457,1.4,1.4,0,0,1-.216-.217c-.042-.056-.062-.086-.058-.09s.106.1.316.253a2.288,2.288,0,0,0,1,.388,3,3,0,0,0,1.579-.213,6.935,6.935,0,0,0,1.694-1.055l.093-.074.047.116.031.079a1.467,1.467,0,0,0,.736.653c.3.144.619.255.914.363a2.971,2.971,0,0,0,1.607.2,1.572,1.572,0,0,0,.92-.558,2.528,2.528,0,0,0,.2-.357" transform="translate(-83.342 -20.476)" fill="#455a64"/>
            <path id="Trazado_873834" data-name="Trazado 873834" d="M320.425,98.721a1.094,1.094,0,0,0,1.019,1.137,1.046,1.046,0,0,0,1.158-.949,1.094,1.094,0,0,0-1.017-1.137,1.046,1.046,0,0,0-1.16.95" transform="translate(-79.892 -24.377)" fill="#263238"/>
            <path id="Trazado_873835" data-name="Trazado 873835" d="M306.583,98.078a1.094,1.094,0,0,0,1.019,1.137,1.046,1.046,0,0,0,1.158-.949,1.094,1.094,0,0,0-1.017-1.137,1.046,1.046,0,0,0-1.16.95" transform="translate(-76.441 -24.216)" fill="#263238"/>
            <path id="Trazado_873836" data-name="Trazado 873836" d="M306.315,93.2c.131.147.979-.439,2.155-.4,1.175.024,2.019.658,2.151.517.065-.062-.065-.324-.432-.61a3.01,3.01,0,0,0-1.717-.59,2.878,2.878,0,0,0-1.721.5c-.371.266-.5.519-.437.586" transform="translate(-76.37 -22.969)" fill="#263238"/>
            <path id="Trazado_873837" data-name="Trazado 873837" d="M321.9,93.911c.146.133.93-.537,2.1-.617,1.171-.1,2.076.445,2.193.293.058-.068-.1-.315-.492-.562a3,3,0,0,0-1.768-.411,2.887,2.887,0,0,0-1.661.67c-.34.3-.445.569-.375.628" transform="translate(-80.254 -23.09)" fill="#263238"/>
            <path id="Trazado_873838" data-name="Trazado 873838" d="M315.074,102.858a7.8,7.8,0,0,0-1.9-.406c-.3-.041-.582-.11-.626-.316a1.527,1.527,0,0,1,.229-.884q.459-1.078.962-2.259a39.424,39.424,0,0,0,2.187-5.918,39.316,39.316,0,0,0-2.659,5.728q-.484,1.19-.925,2.273a1.74,1.74,0,0,0-.194,1.174.753.753,0,0,0,.48.455,2.054,2.054,0,0,0,.508.088,7.659,7.659,0,0,0,1.936.065" transform="translate(-77.818 -23.207)" fill="#263238"/>
            <path id="Trazado_873839" data-name="Trazado 873839" d="M317.985,108.429a1.68,1.68,0,0,1,1.138.658,1.738,1.738,0,0,1,.188,1.568c-.218.286-1.189.285-1.857.2a.818.818,0,0,1-.67-.548l-.264-.759a.82.82,0,0,1,.511-1.055,2.2,2.2,0,0,1,.955-.065" transform="translate(-78.907 -27.029)" fill="#ff9b6c"/>
            <path id="Trazado_873840" data-name="Trazado 873840" d="M321.24,87.643c.175.292,1.3-.082,2.686-.182,1.386-.128,2.556.056,2.681-.261.054-.151-.194-.409-.7-.627a4.685,4.685,0,0,0-4.089.338c-.458.3-.661.593-.583.733" transform="translate(-80.091 -21.506)" fill="#263238"/>
            <path id="Trazado_873841" data-name="Trazado 873841" d="M306.6,90.118c.194.3,1.165.178,2.282.345,1.121.134,2.03.51,2.292.269.117-.119.011-.407-.361-.724a3.583,3.583,0,0,0-1.783-.731,3.528,3.528,0,0,0-1.9.237c-.438.208-.61.459-.527.6" transform="translate(-76.441 -22.251)" fill="#263238"/>
            <path id="Trazado_873842" data-name="Trazado 873842" d="M320.313,110.583c-.02.05-.294-.011-.715-.148a8.813,8.813,0,0,0-1.628-.431,7.609,7.609,0,0,0-.923-.059,1.025,1.025,0,0,0-.643.128.406.406,0,0,0-.145.354c.011.1.063.15.047.175s-.107.017-.189-.122a.538.538,0,0,1,.1-.61,1.176,1.176,0,0,1,.823-.285,5.119,5.119,0,0,1,.982.032,5.222,5.222,0,0,1,1.682.562c.4.2.631.354.61.4" transform="translate(-78.804 -27.321)" fill="#263238"/>
            <path id="Trazado_873843" data-name="Trazado 873843" d="M313.453,428.323l.005.865S298.85,435.218,298.72,438l29.117-.428-.538-9.684a16.659,16.659,0,0,1-13.846.432" transform="translate(-74.481 -106.687)" fill="#263238"/>
            <path id="Trazado_873844" data-name="Trazado 873844" d="M327.832,440.017l-.129-2.329-27.86,1.263s-1.287.583-1.128,1.494Z" transform="translate(-74.476 -109.13)" fill="#455a64"/>
            <path id="Trazado_873845" data-name="Trazado 873845" d="M318.218,429.684c.007.142.718.2,1.425.643.718.428,1.088,1.038,1.218.98.13-.029-.095-.877-.959-1.4s-1.717-.351-1.684-.221" transform="translate(-79.342 -107.1)" fill="#fff"/>
            <path id="Trazado_873846" data-name="Trazado 873846" d="M314.175,431.453c-.031.138.589.371,1.081.965.509.58.64,1.228.781,1.22.134.02.221-.814-.405-1.541s-1.456-.78-1.457-.644" transform="translate(-78.334 -107.56)" fill="#fff"/>
            <path id="Trazado_873847" data-name="Trazado 873847" d="M311.545,435.566c.13.028.318-.685-.059-1.458s-1.046-1.073-1.1-.954c-.078.118.36.529.659,1.169s.364,1.231.505,1.243" transform="translate(-77.386 -107.993)" fill="#fff"/>
            <path id="Trazado_873848" data-name="Trazado 873848" d="M341.915,416.771l-12.4,3.467,3.1,7.03L329.4,445.06a2.017,2.017,0,0,0,1.4,2.309,2.056,2.056,0,0,0,2.087-.6c2.737-3.069,12.747-14.406,12.507-15.791l-.4-3.7c-.083-.767-.826-2.592-.826-2.757Z" transform="translate(-82.122 -103.915)" fill="#263238"/>
            <path id="Trazado_873849" data-name="Trazado 873849" d="M331.764,451.728l14.107-17.745.074.809a2.235,2.235,0,0,1-.572,1.856c-1.107,1.785-4.259,5.842-11.832,14.41a2.051,2.051,0,0,1-1.778.671" transform="translate(-82.72 -108.206)" fill="#455a64"/>
            <path id="Trazado_873850" data-name="Trazado 873850" d="M335.34,445.32a6.064,6.064,0,0,0-1.855-1.328,6.291,6.291,0,0,0-2.3-.214c-.022-.046.213-.216.667-.321a3.218,3.218,0,0,1,1.785.141,3.117,3.117,0,0,1,1.425,1.051c.265.372.321.651.274.671" transform="translate(-82.576 -110.551)" fill="#fff"/>
            <path id="Trazado_873851" data-name="Trazado 873851" d="M333.924,449.16a16.61,16.61,0,0,0-1.812-.662,17.038,17.038,0,0,0-1.937-.065,2.286,2.286,0,0,1,2.024-.348c1.184.223,1.823,1.014,1.725,1.075" transform="translate(-82.323 -111.706)" fill="#fff"/>
            <path id="Trazado_873852" data-name="Trazado 873852" d="M337.892,440.664a20.271,20.271,0,0,0-2.724-1.206,20.62,20.62,0,0,0-2.968-.394,4.577,4.577,0,0,1,3.09-.011,4.435,4.435,0,0,1,2.6,1.611" transform="translate(-82.828 -109.411)" fill="#fff"/>
            <path id="Trazado_873853" data-name="Trazado 873853" d="M332.918,427.533a13.438,13.438,0,0,1,.145,2.394v.009l0,.016c-.155,1.03-.371,2.347-.622,3.777-.3,1.693-.585,3.221-.812,4.324a9.022,9.022,0,0,1-.442,1.772,8.94,8.94,0,0,1,.185-1.817c.161-1.114.409-2.65.706-4.343.251-1.429.5-2.741.7-3.762l0,.025a13.44,13.44,0,0,1,.145-2.394" transform="translate(-82.571 -106.598)" fill="#455a64"/>
            <path id="Trazado_873854" data-name="Trazado 873854" d="M336.34,260.439c.977-4.717,3.449-13.241,2.475-17.167-2.258-9.1-6.223-14.36-11.641-25.911h-4.023l-38.64-.672-3.163,7.008c-3.509,9.451-5.907,15.093-6.894,22.005-1.137,7.962.859,19.5,5.283,31.142,9.549,25.138,14.881,45.243,15.249,50.658s.943,11.013,5.963,28.159c3.666,12.518,6.375,20,6.375,20,3.807,2.149,7.846,2.729,11.52.642l11.212-4.328s-3.437-29.526-7.448-37.358c-2.888-5.638-7.613-8.317-5.409-15.665s16.141-44.045,19.14-58.515" transform="translate(-68.352 -54.028)" fill="#263238"/>
            <path id="Trazado_873855" data-name="Trazado 873855" d="M296.752,243.208a1.53,1.53,0,0,1,.153.2l.426.594c.381.54.928,1.319,1.636,2.326l6.126,8.811.023.033,0,.039c-.3,3.3-.411,7.13-.616,11.4s-.426,8.963-.667,14.006c-.264,5.044-.546,10.433-.842,16.08-.336,5.648-.625,11.552-1.19,17.626a72.754,72.754,0,0,0-.677,14.787,35.346,35.346,0,0,0,.48,3.517,23.173,23.173,0,0,0,.836,3.37c.8,2.142,1.73,4.217,2.609,6.234,3.566,8.069,6.906,15.281,9.687,21.346,2.791,6.05,5.051,10.949,6.622,14.352.773,1.685,1.376,3,1.792,3.906l.459,1.019c.1.23.145.353.145.353s-.067-.111-.179-.336l-.492-1-1.856-3.876-6.729-14.3c-2.813-6.053-6.177-13.252-9.763-21.319-.887-2.023-1.814-4.078-2.633-6.261a23.542,23.542,0,0,1-.853-3.416c-.227-1.162-.377-2.35-.489-3.551a72.808,72.808,0,0,1,.67-14.86c.563-6.049.857-11.964,1.2-17.606.306-5.647.6-11.034.872-16.077.257-5.042.5-9.738.714-14s.357-8.1.679-11.4l.019.071-6.041-8.87-1.588-2.359-.4-.611a1.42,1.42,0,0,1-.128-.212" transform="translate(-73.99 -60.64)" fill="#455a64"/>
            <path id="Trazado_873856" data-name="Trazado 873856" d="M338.715,156.21l-10.2,27.487,2.962,15.537H282.714s5.7-14.109,5.9-17.349-2.555-22.048-1.012-28.4,5.963-19.953,5.963-19.953l13-2.064c5.96,3.2,10.641,2.664,17.051-1.046l11.784,5.791Z" transform="translate(-70.49 -32.519)" fill="#f5f5f5"/>
            <path id="Trazado_873857" data-name="Trazado 873857" d="M290.706,133.852s-3.945.842-6.757,6.584c-2.777,5.672-13.521,30.675-13.94,34.868s2.983,9.84,5.949,10.62l8.995-8.967,7.462.664,9.826-45.844Z" transform="translate(-67.313 -32.857)" fill="#ffc278"/>
            <g id="Grupo_1099521" data-name="Grupo 1099521" transform="translate(209.079 116.416)" opacity="0.3">
              <g id="Grupo_1099520" data-name="Grupo 1099520">
                <g id="Grupo_1099519" data-name="Grupo 1099519" clip-path="url(#clip-path-10)">
                  <path id="Trazado_873858" data-name="Trazado 873858" d="M287.567,155.084a33.771,33.771,0,0,0-1.756,17.8l-4.915-1.835A15.353,15.353,0,0,0,286,175.527a11.968,11.968,0,0,0-4.06-.68,4.061,4.061,0,0,0-3.418,1.986,16.546,16.546,0,0,1,4.864-.4,5.586,5.586,0,0,1,4.132,2.319,56.98,56.98,0,0,1-1.38-15.99" transform="translate(-278.524 -155.084)"/>
                </g>
              </g>
            </g>
            <path id="Trazado_873859" data-name="Trazado 873859" d="M299.687,171.492a1.6,1.6,0,0,1-.14-.365l-.336-1.07-1.176-3.979-1.718-5.975c-.318-1.126-.693-2.326-.923-3.6-.249-1.27-.471-2.594-.681-3.96l-.024-.159.152-.053,2.294-.8,2.382-.823-.048.356-4.228-2.444-.139-.08.059-.148a98.055,98.055,0,0,1,4.649-9.44c.6-1.145,1.054-2.064,1.366-2.695a7.256,7.256,0,0,1,.5-.963,1.014,1.014,0,0,1-.086.266l-.3.748c-.278.647-.7,1.585-1.274,2.747-1.127,2.332-2.95,5.51-4.509,9.473l-.08-.227,4.238,2.427.369.212-.417.145-2.365.82-2.279.787.127-.211c.206,1.36.423,2.683.664,3.946.22,1.266.579,2.44.89,3.581.616,2.259,1.169,4.286,1.636,6,.44,1.663.8,3.019,1.061,4.012.109.441.2.8.269,1.088a1.568,1.568,0,0,1,.07.385" transform="translate(-73.476 -33.734)" fill="#263238"/>
            <path id="Trazado_873860" data-name="Trazado 873860" d="M337.14,182.257l13.148,39.163s-10.048,7.252-31.589,7.161l-3.963-40.573,1.974-21.266-1.348-10.376,6.432-13.107,10.244-17.668,1.987,4.688,11.626,4.944,1.839,19.13Z" transform="translate(-78.474 -31.314)" fill="#ffc278"/>
            <path id="Trazado_873861" data-name="Trazado 873861" d="M292.272,203.344l-7.287,40.523-13.566-3.435,10.814-37.088,1.785-10.9,5.056,4.07Z" transform="translate(-67.674 -47.982)" fill="#ffc278"/>
            <g id="Grupo_1099524" data-name="Grupo 1099524" transform="translate(215.656 150.943)" opacity="0.3">
              <g id="Grupo_1099523" data-name="Grupo 1099523">
                <g id="Grupo_1099522" data-name="Grupo 1099522" clip-path="url(#clip-path-11)">
                  <path id="Trazado_873862" data-name="Trazado 873862" d="M287.712,201.078l36.636,3.629c-2.641-.056-4.673,2.179-6.959,3.5-4.233,2.449-9.5,1.764-14.336,1l-12.008-1.888a5.169,5.169,0,0,1-2.83-1.05c-1.335-1.256-.969-3.425-.5-5.2" transform="translate(-287.286 -201.078)"/>
                </g>
              </g>
            </g>
            <path id="Trazado_873863" data-name="Trazado 873863" d="M320.647,194.834l6.134-5.924a2.834,2.834,0,0,1,2.235-.783,42.463,42.463,0,0,1,5.328.711,4.2,4.2,0,0,1,1.95,1.267,25.883,25.883,0,0,1,1.121,3.461,7.986,7.986,0,0,1-.1,1.248.867.867,0,0,1-1.272.662,1.441,1.441,0,0,1-.58-.545,1.946,1.946,0,0,1-.341-1.024s.2,2.633-1.95,2.681c0,0,.989,2.242-1.772,3.169,0,0,.1,1.462-2.207,1.657a28.058,28.058,0,0,1-4.4,0s-4.221,3.032-7.194,3.227-9.631-1.1-9.631-1.1l-.8-12.262Z" transform="translate(-76.586 -46.903)" fill="#ffc09d"/>
            <path id="Trazado_873864" data-name="Trazado 873864" d="M336.2,192.059a6.385,6.385,0,0,0,.983.411c.616.23,1.474.537,2.446.8.482.137.968.214,1.371.326a1.492,1.492,0,0,1,.836.685,6.807,6.807,0,0,0,.442.643c.121.143.206.2.212.2a1.838,1.838,0,0,0-.161-.236c-.1-.149-.226-.381-.4-.667a2.309,2.309,0,0,0-.334-.438,1.355,1.355,0,0,0-.553-.329c-.432-.126-.893-.2-1.376-.34-.965-.256-1.825-.544-2.45-.747a7.214,7.214,0,0,0-1.021-.3" transform="translate(-83.825 -47.886)" fill="#ff9b6c"/>
            <path id="Trazado_873865" data-name="Trazado 873865" d="M335.147,197.067a3.22,3.22,0,0,0,.683.315c.43.173,1.031.4,1.7.621s1.285.408,1.733.528a3.3,3.3,0,0,0,.735.159,3.533,3.533,0,0,0-.7-.27l-1.715-.574-1.714-.574a3.572,3.572,0,0,0-.723-.206" transform="translate(-83.563 -49.134)" fill="#ff9b6c"/>
            <path id="Trazado_873866" data-name="Trazado 873866" d="M333.127,201.721c-.005.05,1.068.16,2.345.507s2.262.786,2.282.74a2.567,2.567,0,0,0-.625-.333,11.58,11.58,0,0,0-3.293-.888,2.566,2.566,0,0,0-.709-.027" transform="translate(-83.059 -50.292)" fill="#ff9b6c"/>
            <path id="Trazado_873867" data-name="Trazado 873867" d="M305.16,203.719l-27.215-4.344s3.271-13.65,8.042-13.65c.7,0,24.873,7.853,24.873,7.853Z" transform="translate(-69.301 -46.307)" fill="#ffc278"/>
            <path id="Trazado_873868" data-name="Trazado 873868" d="M320.542,200.38a5,5,0,0,0,.638-.584l1.487-1.461c.577-.574,1.093-1.1,1.455-1.5a4.107,4.107,0,0,0,.555-.665,5,5,0,0,0-.638.584l-1.487,1.462c-.578.574-1.093,1.1-1.455,1.5a4.057,4.057,0,0,0-.555.665" transform="translate(-79.921 -48.912)" fill="#ff9b6c"/>
            <path id="Trazado_873869" data-name="Trazado 873869" d="M311,192.927a1.212,1.212,0,0,1-.346-.065l-.97-.258-3.546-1.02c-2.989-.878-7.111-2.116-11.656-3.506l-7.018-2.167-.055-.017-.041-.055a6.222,6.222,0,0,0-3.172-2.144,7.965,7.965,0,0,0-3.033-.309,9.08,9.08,0,0,0-1.96.392c-.444.142-.673.244-.682.226a2.2,2.2,0,0,1,.644-.332,8.094,8.094,0,0,1,5.116-.259,6.43,6.43,0,0,1,3.384,2.232l-.1-.072L294.6,187.7c4.545,1.39,8.654,2.67,11.623,3.616l3.509,1.139.949.328a1.216,1.216,0,0,1,.323.14" transform="translate(-69.445 -45.656)" fill="#263238"/>
            <path id="Trazado_873870" data-name="Trazado 873870" d="M338.725,137.6l-11.533,9.869L314.8,160.761l-4.345-18.292-12.167,2.5s.858,22.645,4.6,32.909a8.057,8.057,0,0,0,3.762,3.852c5.881,2.793,11.625-1.529,11.625-1.529s24.541-16.47,27.2-27.5c1.257-5.207-.74-11.209-2.88-13.757-1.882-2.241-3.873-1.344-3.873-1.344" transform="translate(-74.373 -34.265)" fill="#ffc278"/>
            <path id="Trazado_873871" data-name="Trazado 873871" d="M308.437,131.165c.227-.757,1.506-7.75,2.025-9.377.733-2.294,6.694-6.4,6.694-6.4a2.438,2.438,0,0,0-3.473-1.034c-3,1.325-4.491,3.556-5.247,3.1s-5.477-5.258-6.763-5.108a1.331,1.331,0,0,0-1.116,2,11.709,11.709,0,0,1,.964,1.4s-2.725-.82-2.195,2.163c0,0-3.1-1.936-2.8,2.151,0,0-2.043-.832-2.5.606s.893,3.1,1.574,4.239,2.892,7.721,2.892,7.721l.026,5.806,10.852-2.231Z" transform="translate(-73.288 -28.012)" fill="#ffc09d"/>
            <path id="Trazado_873872" data-name="Trazado 873872" d="M308.374,131.1a1.978,1.978,0,0,1,.086.333l.2.974.734,3.727.017.087-.088.019-10.84,2.289-.179.038v-.185c-.014-1.788-.028-3.744-.044-5.806l.008.053c-.774-2.233-1.579-4.635-2.59-7.063-.494-1.169-1.525-2.187-1.9-3.606a2.7,2.7,0,0,1-.071-1.109,1.451,1.451,0,0,1,.587-1.011,1.808,1.808,0,0,1,1.136-.255,3.884,3.884,0,0,1,1.1.246l-.266.193a6.987,6.987,0,0,1,.026-1.224,2.109,2.109,0,0,1,.519-1.208,1.467,1.467,0,0,1,1.311-.36,3.584,3.584,0,0,1,1.24.46l-.3.2a2.654,2.654,0,0,1,.2-1.818,1.483,1.483,0,0,1,1.059-.65,2.938,2.938,0,0,1,1.182.083l-.225.285a11.33,11.33,0,0,0-.888-1.311,1.207,1.207,0,0,1-.3-.868,1.6,1.6,0,0,1,.3-.848,1.566,1.566,0,0,1,.7-.547,2.086,2.086,0,0,1,.425-.111,1.288,1.288,0,0,1,.469.041,5.282,5.282,0,0,1,1.416.793c1.693,1.236,3.144,2.656,4.608,3.937a2.338,2.338,0,0,0,.517.381.822.822,0,0,0,.537-.17,13.692,13.692,0,0,0,1.128-.838,17.781,17.781,0,0,1,2.308-1.589,5.2,5.2,0,0,1,2.587-.848,2.5,2.5,0,0,1,2.148,1.452l.056.117-.111.079a32.048,32.048,0,0,0-5.887,5.025,4.339,4.339,0,0,0-.818,1.4c-.152.51-.27,1.017-.383,1.5q-.321,1.457-.588,2.672c-.34,1.594-.608,2.852-.8,3.739-.1.429-.173.757-.231.977a2.314,2.314,0,0,1-.106.328,2.207,2.207,0,0,1,.058-.339c.047-.245.107-.572.185-.985.17-.891.409-2.154.713-3.756.166-.811.349-1.709.549-2.685.107-.489.218-1,.369-1.522a4.566,4.566,0,0,1,.846-1.489A31.788,31.788,0,0,1,317,115.2l-.056.2a2.178,2.178,0,0,0-1.868-1.245,4.9,4.9,0,0,0-2.4.817,17.486,17.486,0,0,0-2.257,1.569,13.947,13.947,0,0,1-1.163.868,1.116,1.116,0,0,1-.816.213,2.254,2.254,0,0,1-.667-.456c-1.48-1.288-2.93-2.7-4.589-3.9a5.07,5.07,0,0,0-1.3-.734.913.913,0,0,0-.306-.029,1.711,1.711,0,0,0-.339.088,1.175,1.175,0,0,0-.531.414.994.994,0,0,0-.008,1.242,11.591,11.591,0,0,1,.926,1.362l.246.411-.471-.126c-.632-.169-1.465-.15-1.8.4a2.3,2.3,0,0,0-.148,1.54l.059.408-.355-.209a3.206,3.206,0,0,0-1.091-.405,1.08,1.08,0,0,0-.981.251,2.978,2.978,0,0,0-.433,2.126l.014.3-.279-.1a2.251,2.251,0,0,0-1.873-.032,1.067,1.067,0,0,0-.427.757,2.332,2.332,0,0,0,.063.953,6.676,6.676,0,0,0,.85,1.794,11.872,11.872,0,0,1,1.016,1.759c1.017,2.464,1.807,4.857,2.573,7.1l.009.026v.028c0,2.062.005,4.018.008,5.806l-.181-.147,10.864-2.172-.071.105c-.279-1.61-.5-2.872-.651-3.759-.066-.41-.118-.733-.157-.977a1.713,1.713,0,0,1-.038-.331" transform="translate(-73.225 -27.951)" fill="#ff9b6c"/>
            <path id="Trazado_873873" data-name="Trazado 873873" d="M304.053,116.992a71.015,71.015,0,0,0,2.666,2.424,11.549,11.549,0,0,0-2.666-2.424" transform="translate(-75.81 -29.17)" fill="#ff9b6c"/>
            <path id="Trazado_873874" data-name="Trazado 873874" d="M300.82,119.557a4.468,4.468,0,0,0,1.677,2.162c.032-.037-.42-.455-.878-1.05s-.755-1.133-.8-1.112" transform="translate(-75.003 -29.809)" fill="#ff9b6c"/>
            <path id="Trazado_873875" data-name="Trazado 873875" d="M297.44,122.441a7.268,7.268,0,0,0,1.274,1.766,7.268,7.268,0,0,0-1.274-1.766" transform="translate(-74.161 -30.528)" fill="#ff9b6c"/>
            <path id="Trazado_873876" data-name="Trazado 873876" d="M342.528,161.039a1.024,1.024,0,0,1-.137.148l-.426.416-1.676,1.588c-1.473,1.38-3.636,3.388-6.405,5.886s-6.136,5.5-10.1,8.766c-1,.811-2.028,1.639-3.114,2.461-.537.418-1.112.8-1.678,1.216-.286.2-.595.378-.894.571a8.688,8.688,0,0,1-.931.535,17.947,17.947,0,0,1-4.114,1.609,9.181,9.181,0,0,1-4.631.071l.041.01a7.563,7.563,0,0,1-3.1-1.173,7.684,7.684,0,0,1-2.214-2.568,20.736,20.736,0,0,1-1.96-6.649c-.179-1.169-.389-2.314-.568-3.512s-.306-2.385-.447-3.592q-.4-3.623-.815-7.35c-.456-4.4-.9-8.709-1.335-12.879l-.018-.173.171-.035,12.169-2.491.173-.036.041.172c1.662,7.038,3.181,13.47,4.5,19.071l-.255-.068,12.746-13.464,3.5-3.666.92-.948c.209-.212.325-.313.325-.313s-.094.122-.293.344l-.889.977-3.443,3.721-12.65,13.554-.19.2-.065-.271c-1.341-5.6-2.881-12.023-4.566-19.056l.214.136-12.165,2.511.152-.208c.434,4.169.883,8.475,1.341,12.876q.412,3.723.813,7.347c.14,1.206.282,2.4.444,3.583q.284,1.768.562,3.5a20.419,20.419,0,0,0,1.908,6.531,7.314,7.314,0,0,0,2.1,2.45,7.21,7.21,0,0,0,2.935,1.116h.011l.03.009a8.925,8.925,0,0,0,4.421-.074,17.7,17.7,0,0,0,4.04-1.565,8.517,8.517,0,0,0,.917-.524c.295-.188.6-.359.881-.558.563-.407,1.134-.787,1.67-1.2,1.084-.813,2.117-1.636,3.114-2.44,3.969-3.244,7.35-6.226,10.143-8.694l6.471-5.809,1.715-1.548.444-.394a1.081,1.081,0,0,1,.158-.126" transform="translate(-74.304 -35.869)" fill="#263238"/>
            <path id="Trazado_873877" data-name="Trazado 873877" d="M290,178.828a3.193,3.193,0,0,1-.357-.819,17.076,17.076,0,0,1-.661-2.344,42.6,42.6,0,0,1-.655-7.986,28.216,28.216,0,0,1,.729-7.98c.228-1,.454-1.8.626-2.349a3.392,3.392,0,0,1,.318-.835,4.648,4.648,0,0,1-.171.875c-.127.557-.31,1.363-.5,2.365a31.43,31.43,0,0,0-.609,7.913,51.137,51.137,0,0,0,.534,7.944c.359,2,.813,3.194.748,3.216" transform="translate(-71.877 -39.024)" fill="#263238"/>
            <path id="Trazado_873878" data-name="Trazado 873878" d="M326.287,236.261a2.824,2.824,0,0,1,.373-.092l1.034-.218,3.8-.766c3.224-.644,7.7-1.529,12.842-2.5l-.138.266-2.232-4.88c-.2-.428-.39-.853-.579-1.268l.211.111-15.287,2.619.113-.135c-.032,2.069-.059,3.757-.077,4.98-.013.566-.025,1.024-.034,1.381a4.358,4.358,0,0,1-.026.5,2.859,2.859,0,0,1-.026-.447c-.009-.348-.02-.794-.034-1.347-.019-1.245-.045-2.964-.077-5.071v-.115l.116-.02,15.267-2.733.149-.026.063.137.579,1.268,2.224,4.884.1.222-.239.044c-5.23.971-9.795,1.782-13.02,2.347l-3.771.653-1,.164a1.718,1.718,0,0,1-.33.04" transform="translate(-81.319 -56.474)" fill="#263238"/>
            <path id="Trazado_873879" data-name="Trazado 873879" d="M284.213,229.289l-5.791-1.456-3.461,7.087,7.225,1.245Z" transform="translate(-68.557 -56.806)" fill="#ffc278"/>
            <path id="Trazado_873880" data-name="Trazado 873880" d="M284.117,229.226a2.137,2.137,0,0,1-.1.471c-.1.378-.219.839-.364,1.391-.323,1.207-.8,2.959-1.4,5.061l-.042.145-.15-.026-6.912-1.164-.316-.054-.258-.044.116-.234,3.493-7.071.058-.117.124.032c1.787.468,3.246.872,4.242,1.153a14.524,14.524,0,0,1,1.51.457,2.783,2.783,0,0,1-.451-.077l-1.2-.259c-1.021-.226-2.458-.549-4.184-.965l.182-.085c-.978,2.027-2.154,4.465-3.428,7.1l-.142-.278.316.054,6.9,1.215-.191.119c.613-2.019,1.15-3.705,1.537-4.906.183-.558.336-1.022.46-1.4a3.681,3.681,0,0,1,.193-.519" transform="translate(-68.46 -56.744)" fill="#263238"/>
            <path id="Trazado_873881" data-name="Trazado 873881" d="M334.709,130.165a1.19,1.19,0,0,1-.031.333c-.034.216-.083.535-.162.945-.152.82-.4,2.006-.771,3.47a37,37,0,0,1-4.586,11.047l-.051.078-.083.007a14.957,14.957,0,0,1-2.6-.2,5.476,5.476,0,0,0-1.121-.037l.046-.374a4.6,4.6,0,0,1,.848.628l.734.649a11.472,11.472,0,0,0,1.406,1.153l.193.114-.1.161c-2.239,3.5-4.537,6.265-6.032,8.326-.759,1.022-1.348,1.849-1.745,2.421a7.262,7.262,0,0,1-.636.871.939.939,0,0,1,.121-.251c.09-.158.221-.394.407-.691.365-.6.926-1.447,1.66-2.491,1.443-2.1,3.705-4.9,5.9-8.385l.089.274a4.384,4.384,0,0,1-.8-.583l-.721-.632-.73-.643a4.85,4.85,0,0,0-.741-.56l-.581-.3.627-.07a5.674,5.674,0,0,1,1.216.035,15.719,15.719,0,0,0,2.506.2l-.134.084a38.993,38.993,0,0,0,4.659-10.9c.4-1.449.688-2.623.883-3.433a9.358,9.358,0,0,1,.331-1.248" transform="translate(-79.79 -32.454)" fill="#263238"/>
          </g>
        </g>
        <g id="Grupo_1099531" data-name="Grupo 1099531">
          <g id="Grupo_1099530" data-name="Grupo 1099530" clip-path="url(#clip-path)">
            <path id="Trazado_873882" data-name="Trazado 873882" d="M122.528,405.095l-.684,17.1s17.156,6.439,17.337,9.612l-33.211-.134-.029-26.694Z" transform="translate(-26.415 -100.976)" fill="#263238"/>
            <path id="Trazado_873883" data-name="Trazado 873883" d="M113.131,425.926a1.358,1.358,0,0,0-.944,1.544,1.3,1.3,0,0,0,1.522.949,1.429,1.429,0,0,0,.991-1.64,1.352,1.352,0,0,0-1.693-.811" transform="translate(-27.965 -106.184)" fill="#e0e0e0"/>
            <path id="Trazado_873884" data-name="Trazado 873884" d="M105.98,439.649l.1-2.691,31.8,1.136s1.477.649,1.3,1.69Z" transform="translate(-26.424 -108.948)" fill="#455a64"/>
            <path id="Trazado_873885" data-name="Trazado 873885" d="M126.837,427.644c-.006.162-.817.233-1.617.751-.814.5-1.228,1.2-1.377,1.134-.149-.032.1-1,1.076-1.612s1.954-.421,1.918-.273" transform="translate(-30.868 -106.588)" fill="#fff"/>
            <path id="Trazado_873886" data-name="Trazado 873886" d="M131.743,429.611c.036.157-.667.43-1.221,1.114-.574.667-.715,1.408-.878,1.4-.152.025-.26-.926.444-1.763s1.651-.907,1.654-.752" transform="translate(-32.297 -107.1)" fill="#fff"/>
            <path id="Trazado_873887" data-name="Trazado 873887" d="M135.026,434.269c-.148.034-.37-.777.05-1.663s1.18-1.237,1.248-1.1c.092.134-.4.609-.736,1.341-.351.725-.4,1.409-.562,1.424" transform="translate(-33.618 -107.581)" fill="#fff"/>
            <path id="Trazado_873888" data-name="Trazado 873888" d="M126.329,422.283c-.068.148-.811-.08-1.729-.02-.918.04-1.633.345-1.716.2-.094-.118.605-.715,1.686-.769s1.839.457,1.759.584" transform="translate(-30.637 -105.142)" fill="#fff"/>
            <path id="Trazado_873889" data-name="Trazado 873889" d="M71.173,404.215,69.439,424.1,72.6,440.22A2.046,2.046,0,0,1,69.094,442c-2.852-3.11-13.288-14.6-13.08-16.052.241-1.677.435-21.095.435-21.095Z" transform="translate(-13.965 -100.784)" fill="#263238"/>
            <path id="Trazado_873890" data-name="Trazado 873890" d="M70.863,449.416,56.11,431.379l-.055.844a3.081,3.081,0,0,0,.6,2.039c1.17,1.567,4.493,5.824,12.388,14.51a2.043,2.043,0,0,0,1.819.645" transform="translate(-13.975 -107.557)" fill="#455a64"/>
            <g id="Grupo_1099529" data-name="Grupo 1099529" transform="translate(44.779 317.424)" opacity="0.6">
              <g id="Grupo_1099528" data-name="Grupo 1099528">
                <g id="Grupo_1099527" data-name="Grupo 1099527" clip-path="url(#clip-path-13)">
                  <path id="Trazado_873891" data-name="Trazado 873891" d="M61.508,423.091a1.24,1.24,0,0,1,.235,1.634,1.19,1.19,0,0,1-1.619.246,1.3,1.3,0,0,1-.239-1.731,1.234,1.234,0,0,1,1.712-.071" transform="translate(-59.653 -422.856)" fill="#fff"/>
                </g>
              </g>
            </g>
            <path id="Trazado_873892" data-name="Trazado 873892" d="M70.457,442.728a6.23,6.23,0,0,1,1.846-1.437A6.241,6.241,0,0,1,74.624,441c.02-.048-.221-.218-.683-.315a3.261,3.261,0,0,0-3.223,1.337c-.259.395-.309.687-.26.706" transform="translate(-17.563 -109.864)" fill="#fff"/>
            <path id="Trazado_873893" data-name="Trazado 873893" d="M72.121,446.682a16.733,16.733,0,0,1,1.82-.743,16.835,16.835,0,0,1,1.961-.126,2.271,2.271,0,0,0-2.06-.3c-1.194.268-1.82,1.11-1.721,1.17" transform="translate(-17.979 -111.059)" fill="#fff"/>
            <path id="Trazado_873894" data-name="Trazado 873894" d="M67.234,437.962a20.363,20.363,0,0,1,2.73-1.336,20.282,20.282,0,0,1,3-.5,5.588,5.588,0,0,0-5.728,1.835" transform="translate(-16.762 -108.686)" fill="#fff"/>
            <path id="Trazado_873895" data-name="Trazado 873895" d="M67.264,430.313c.046.123,1.176-.267,2.611-.226,1.435.02,2.548.456,2.6.336a5.077,5.077,0,0,0-5.209-.11" transform="translate(-16.771 -107.125)" fill="#fff"/>
            <path id="Trazado_873896" data-name="Trazado 873896" d="M67.745,422.487a10.048,10.048,0,0,1,2.711-.308,10.067,10.067,0,0,1,2.6.832c.035-.038-.166-.3-.608-.6a4.458,4.458,0,0,0-3.988-.394c-.492.2-.741.423-.714.468" transform="translate(-16.891 -105.149)" fill="#fff"/>
            <path id="Trazado_873897" data-name="Trazado 873897" d="M70.532,419.508a1.712,1.712,0,0,0,.076-.751,5.261,5.261,0,0,0-.472-2.012,2.326,2.326,0,0,0-.925-1.173.822.822,0,0,0-.936.124,1.338,1.338,0,0,0-.372.879,2.89,2.89,0,0,0,2.356,2.831,3.353,3.353,0,0,0,3.4-1.539,1.165,1.165,0,0,0,.117-.962.806.806,0,0,0-.814-.48,2.862,2.862,0,0,0-1.356.6,5.851,5.851,0,0,0-1.459,1.46,1.779,1.779,0,0,0-.35.669,9.291,9.291,0,0,1,1.981-1.871,2.667,2.667,0,0,1,1.194-.492.429.429,0,0,1,.445.258.8.8,0,0,1-.113.628,2.994,2.994,0,0,1-2.962,1.3,2.51,2.51,0,0,1-2.035-2.375.97.97,0,0,1,.234-.625.446.446,0,0,1,.516-.075,2.1,2.1,0,0,1,.8.977,7.747,7.747,0,0,1,.676,2.63" transform="translate(-16.93 -103.593)" fill="#fff"/>
            <path id="Trazado_873898" data-name="Trazado 873898" d="M124.134,217.695a65.488,65.488,0,0,1,2.482,22.034c-.341,4.429-14.79,128.691-14.79,128.691H91.645l5.673-115.169-1.652.358s-11.017,49.12-11.916,57.072c-.808,7.149-10.1,59.081-10.1,59.081l-18.452.212,5.893-68.692,6.858-65.911,2.579-19.186Z" transform="translate(-13.763 -53.902)" fill="#263238"/>
            <path id="Trazado_873899" data-name="Trazado 873899" d="M101.8,37.351l.806-.047a15.591,15.591,0,0,1,16.336,13.423c1.038,7.483,2.089,15.761,2.272,19.8.378,8.358-7.9,10.137-7.9,10.137l.3,3.4a10.161,10.161,0,0,1-20.238,1.855L90.4,54.9c-1.246-8.629,2.736-16.546,11.4-17.554" transform="translate(-22.485 -9.295)" fill="#ffc09d"/>
            <path id="Trazado_873900" data-name="Trazado 873900" d="M117.392,94.194a20.292,20.292,0,0,1-11.127-2.573s2.919,5.862,11.21,4.631Z" transform="translate(-26.495 -22.844)" fill="#ff9b6c"/>
            <path id="Trazado_873901" data-name="Trazado 873901" d="M124.592,65.2a1.2,1.2,0,0,1-1.082,1.269,1.143,1.143,0,0,1-1.291-1,1.2,1.2,0,0,1,1.08-1.27,1.144,1.144,0,0,1,1.293,1.005" transform="translate(-30.472 -16.003)" fill="#263238"/>
            <path id="Trazado_873902" data-name="Trazado 873902" d="M124.85,60.4c-.139.164-1.08-.453-2.365-.375-1.283.059-2.186.773-2.335.624-.072-.065.062-.355.455-.677a3.279,3.279,0,0,1,1.859-.692,3.151,3.151,0,0,1,1.893.493c.411.28.561.553.492.628" transform="translate(-29.953 -14.778)" fill="#263238"/>
            <path id="Trazado_873903" data-name="Trazado 873903" d="M109.807,66.245a1.2,1.2,0,0,1-1.081,1.269,1.143,1.143,0,0,1-1.291-1.005,1.2,1.2,0,0,1,1.079-1.269,1.143,1.143,0,0,1,1.293,1.005" transform="translate(-26.786 -16.264)" fill="#263238"/>
            <path id="Trazado_873904" data-name="Trazado 873904" d="M108.063,61.681c-.14.164-1.082-.453-2.365-.375-1.282.059-2.187.773-2.335.624-.073-.065.061-.355.455-.677a3.281,3.281,0,0,1,1.859-.692,3.149,3.149,0,0,1,1.892.493c.411.28.561.554.494.628" transform="translate(-25.767 -15.099)" fill="#263238"/>
            <path id="Trazado_873905" data-name="Trazado 873905" d="M116.161,70.837a8.466,8.466,0,0,1,2.063-.5c.326-.053.632-.136.674-.363a1.671,1.671,0,0,0-.274-.959q-.531-1.163-1.113-2.44a43.124,43.124,0,0,1-2.552-6.4,42.9,42.9,0,0,1,3.062,6.182q.561,1.286,1.073,2.457a1.9,1.9,0,0,1,.244,1.276.825.825,0,0,1-.511.51,2.2,2.2,0,0,1-.552.11,8.4,8.4,0,0,1-2.112.125" transform="translate(-28.66 -15.004)" fill="#263238"/>
            <path id="Trazado_873906" data-name="Trazado 873906" d="M107.751,55.054c-.107.356-1.4.264-2.892.532-1.5.238-2.69.749-2.908.447-.1-.145.1-.485.567-.851a5.116,5.116,0,0,1,4.419-.746c.565.191.86.449.814.618" transform="translate(-25.414 -13.52)" fill="#263238"/>
            <path id="Trazado_873907" data-name="Trazado 873907" d="M124.048,55.456c-.209.3-1.11.053-2.175.1-1.065.01-1.952.309-2.177.016-.1-.143.026-.443.4-.742a3.155,3.155,0,0,1,3.506-.093c.393.279.534.571.442.719" transform="translate(-29.836 -13.526)" fill="#263238"/>
            <path id="Trazado_873908" data-name="Trazado 873908" d="M117.235,46.579s-2.5-5.1-5.1-6.179c-3.139-1.3-4.26,2.125-7.216,1.479s-5.953-1.9-8.8.524c-3.113,2.649-1.489,4.289-1.477,8.006C94.7,65.48,92.2,69.886,91.012,62.854c-.13-.77-2.317-1.263-2.825-4.521-.658-4.223-1.118-9.371-.343-12.44.653-2.587,2-4.426,4.487-6.511,3.925-3.29,9.554-3.68,13.4-3.515s11.475,4.142,11.5,10.711" transform="translate(-21.801 -8.935)" fill="#263238"/>
            <path id="Trazado_873909" data-name="Trazado 873909" d="M91.047,70.8a2.271,2.271,0,0,0-2.573-2.044c-1.549.238-3.232,1.222-2.943,4.435.51,5.7,6.127,4.011,6.122,3.846,0-.112-.371-3.854-.606-6.237" transform="translate(-21.317 -17.136)" fill="#ffc09d"/>
            <path id="Trazado_873910" data-name="Trazado 873910" d="M90.876,75.619c-.027-.016-.093.079-.254.17a1,1,0,0,1-.741.082,2.466,2.466,0,0,1-1.335-2.1,3.293,3.293,0,0,1,.151-1.446,1.151,1.151,0,0,1,.678-.829.508.508,0,0,1,.611.219c.09.152.065.269.1.277s.114-.107.047-.339a.634.634,0,0,0-.257-.336.749.749,0,0,0-.562-.1,1.4,1.4,0,0,0-.958.977,3.381,3.381,0,0,0-.2,1.619,2.588,2.588,0,0,0,1.669,2.332,1.073,1.073,0,0,0,.895-.232c.164-.157.182-.288.161-.3" transform="translate(-21.973 -17.753)" fill="#ff9b6c"/>
            <path id="Trazado_873911" data-name="Trazado 873911" d="M118.2,39.327c-.878-.66-2.085-.754-2.956-1.422-1.585-1.215-1.653-3.979-3.515-4.7-1.1-.429-2.346.1-3.524-.023-1.905-.2-2.642-1.637-5.537-1.645A5.253,5.253,0,0,0,97.7,34.327a4.333,4.333,0,0,0-4.329.408,4.819,4.819,0,0,0-1.814,3.457s-.6-.3-2.4,1.126a9.408,9.408,0,0,0-2.5,4.265c-.622,2.09.286,4.3,1.176,6.285.482,1.077,1.078,2.263,2.2,2.639,1.364.459,2.864-.607,3.4-1.943S94.8,47.884,95.445,46.6c1.123-2.23,2.272-4.311,1.328-5.739a6.511,6.511,0,0,1,4.017-.024c1.309.434,2.451,1.273,3.751,1.733s2.948.432,3.832-.625a2.8,2.8,0,0,0,4.286.929,3.907,3.907,0,0,0,5.114,1.443c1.684-1.016,2-3.806.426-4.989" transform="translate(-21.555 -7.863)" fill="#263238"/>
            <path id="Trazado_873912" data-name="Trazado 873912" d="M87.527,54.09a6.977,6.977,0,0,1,.661,1.306,2.8,2.8,0,0,0,.94,1.154,2.49,2.49,0,0,0,1.769.2,4.275,4.275,0,0,0,1.711-.722,6.829,6.829,0,0,0,1.115-1.076,8.882,8.882,0,0,1,.953-1.11,4.926,4.926,0,0,1-.765,1.26,6.113,6.113,0,0,1-1.117,1.177,4.342,4.342,0,0,1-1.835.805,2.721,2.721,0,0,1-2-.275,2.883,2.883,0,0,1-.989-1.317,5.79,5.79,0,0,1-.443-1.408" transform="translate(-21.822 -13.425)" fill="#455a64"/>
            <path id="Trazado_873913" data-name="Trazado 873913" d="M87.814,58.978a4.7,4.7,0,0,0,1.128.625,3.2,3.2,0,0,0,1.363.117,3.89,3.89,0,0,0,1.568-.6,7.828,7.828,0,0,0,2.147-2.261,6.241,6.241,0,0,1,.778-1.081,4.5,4.5,0,0,1-.574,1.209,6.932,6.932,0,0,1-2.167,2.42,3.961,3.961,0,0,1-1.716.622,3.178,3.178,0,0,1-1.48-.2c-.808-.331-1.079-.843-1.047-.851" transform="translate(-21.894 -13.908)" fill="#455a64"/>
            <path id="Trazado_873914" data-name="Trazado 873914" d="M111.6,77.175a7.238,7.238,0,0,0-.324,1.919,2.189,2.189,0,0,0,.623,1.684,2.4,2.4,0,0,0,1.849.854h.022a2.666,2.666,0,0,0,2.63-2.269l.225-1.416c-1.341-.363-4.926-.681-5.025-.773" transform="translate(-27.741 -19.242)" fill="#ff9b6c"/>
            <path id="Trazado_873915" data-name="Trazado 873915" d="M115.037,81.162c-.008-.027-.168.008-.456.047a3.917,3.917,0,0,1-1.206.009,2.348,2.348,0,0,1-1.468-.857,2.945,2.945,0,0,1-.577-2.005,2.911,2.911,0,0,1,.306-1.158l-.176.088c1.284.194,2.405.348,3.208.444a5.487,5.487,0,0,0,1.293.092,5.5,5.5,0,0,0-1.259-.309c-.793-.155-1.909-.353-3.19-.563l-.119-.02-.057.108a3.322,3.322,0,0,0,.324,3.529,2.534,2.534,0,0,0,1.681.9,3.324,3.324,0,0,0,1.269-.121c.287-.083.434-.161.428-.18" transform="translate(-27.669 -19.181)" fill="#263238"/>
            <path id="Trazado_873916" data-name="Trazado 873916" d="M59.159,114.03c-.5,0-7.564,2.826-9.425,9.774s-6.944,32.383-6.944,32.383L37.4,163.649s1.745,13.637,11.665,11.047c0,0,6.62,1.156,8.728-5.556S64,142.409,64,142.409Z" transform="translate(-9.326 -28.431)" fill="#455a64"/>
            <path id="Trazado_873917" data-name="Trazado 873917" d="M87.026,98.516l-3.746,5.668-16.895,5.977,4.837,48.987-1.808,25.675a5.794,5.794,0,0,0,5.939,6.2l53.094-1.569c1.329-.037,1.949-1.718,2.171-3.532a12.312,12.312,0,0,0-.425-4.856l-2.8-9.822c.415,6.112-1.414-36.451-1.486-38l4.092-21.9-19.221-7.772L107.8,98.975l-8.648,6.578Z" transform="translate(-16.552 -24.563)" fill="#455a64"/>
            <path id="Trazado_873918" data-name="Trazado 873918" d="M149.529,115.6s3.867,3.4,4.516,5.982,14.543,32.709,14.543,32.709l6.907,1.864,1.841,3.824a10.648,10.648,0,0,1-3.009,13.1,7.846,7.846,0,0,1-.739.5,11.767,11.767,0,0,1-14.348-2.481c-3.7-4.366-14.534-20.075-14.534-20.075V131.8Z" transform="translate(-36.08 -28.822)" fill="#455a64"/>
            <path id="Trazado_873919" data-name="Trazado 873919" d="M180.591,169.242l9.931-5.863,4.786,5.863-.99,2.838-12.8,9.5a8.513,8.513,0,0,1-2.97-5.147c-.6-3.561,2.046-7.194,2.046-7.194" transform="translate(-44.495 -40.736)" fill="#ffc09d"/>
            <path id="Trazado_873920" data-name="Trazado 873920" d="M173.843,167.119c0,.093-.842.021-2.088.42a9.269,9.269,0,0,0-4.126,2.859A18.894,18.894,0,0,0,165,174.806a11.188,11.188,0,0,1-.941,1.949,7.736,7.736,0,0,1,.607-2.088,15.621,15.621,0,0,1,2.569-4.6,8.718,8.718,0,0,1,4.418-2.876,3.882,3.882,0,0,1,2.187-.072" transform="translate(-40.903 -41.641)" fill="#263238"/>
            <path id="Trazado_873921" data-name="Trazado 873921" d="M194.261,162.786a7.737,7.737,0,0,1,2.385-7.155,27,27,0,0,1,7.842-4.495c1.743-.779,5.367-3.807,6.008-3.072a2.4,2.4,0,0,1,0,3.165c-.917,1.329-6.17,3.328-5.438,5.014.3.691,1.952.811,1.952.811s6.329.413,8.989.183,5.044.275,4.907,1.193-.642,1.422-2.844,1.6-5.779.046-5.962.55.55.826,1.834.734,7.339-.092,7.751.6a1.365,1.365,0,0,1-.734,1.972l-1.422.5s.826,1.147.138,1.789-2.247.413-2.247.413l-8.026-.229s-.459.483-.23.815,6.513-.128,6.559.56.6,1.01-1.284,1.468a25.243,25.243,0,0,1-8.3,0,83.056,83.056,0,0,0-8.806-.78Z" transform="translate(-48.402 -36.889)" fill="#ffc09d"/>
            <path id="Trazado_873922" data-name="Trazado 873922" d="M44.164,170.026l-9.284-7.708-5.332,5.993.652,2.934,11.608,10.93a8.065,8.065,0,0,0,3.647-4.452c1.154-3.29-1.29-7.7-1.29-7.7" transform="translate(-7.367 -40.471)" fill="#ffc09d"/>
            <path id="Trazado_873923" data-name="Trazado 873923" d="M27.4,162.107a7.736,7.736,0,0,0-1.534-7.384,26.977,26.977,0,0,0-7.266-5.379c-1.64-.977-4.885-4.406-5.609-3.752a2.4,2.4,0,0,0-.369,3.143c.756,1.428,4.366,3.1,4.238,4.933a1.356,1.356,0,0,1-1.455,1.258s-6.334-.327-8.949-.866-5.042-.315-5.013.613.472,1.487,2.637,1.925,5.734.719,5.857,1.242-.643.756-1.907.515-7.277-.947-7.767-.311a1.365,1.365,0,0,0,.5,2.044l1.353.667s-.953,1.043-.345,1.76,2.184.672,2.184.672l8,.708s.4.534.133.836-6.453-.885-6.579-.207-.71.932,1.1,1.607a25.208,25.208,0,0,0,8.245.968,83.1,83.1,0,0,1,8.837.252Z" transform="translate(0 -36.28)" fill="#ffc09d"/>
            <path id="Trazado_873924" data-name="Trazado 873924" d="M121.217,107.108a13.076,13.076,0,0,1-1.668,1.736c-1.057,1.039-2.506,2.482-4.041,4.138l-.944,1.031-.2.222-.183-.235c-1.188-1.525-2.216-2.88-2.934-3.864a8.232,8.232,0,0,1-1.077-1.635,8.321,8.321,0,0,1,1.338,1.43c.788.928,1.865,2.244,3.071,3.756l-.387-.011.945-1.043a54.727,54.727,0,0,1,4.171-4.056,9.875,9.875,0,0,1,1.913-1.47" transform="translate(-27.467 -26.705)" fill="#263238"/>
            <path id="Trazado_873925" data-name="Trazado 873925" d="M67.846,131.333a4.3,4.3,0,0,1,.274,1.038c.146.673.324,1.654.519,2.871.393,2.432.808,5.812,1.154,9.552s.6,7.13.789,9.582q.124,1.708.209,2.906a4.339,4.339,0,0,1,.015,1.073,4.307,4.307,0,0,1-.213-1.052c-.105-.681-.231-1.669-.372-2.892-.283-2.446-.594-5.832-.939-9.569s-.7-7.11-1-9.549q-.209-1.7-.357-2.889a4.376,4.376,0,0,1-.077-1.07" transform="translate(-16.913 -32.746)" fill="#263238"/>
            <path id="Trazado_873926" data-name="Trazado 873926" d="M146.083,129.058a6.468,6.468,0,0,1,.182,1.3c.086.843.175,2.065.254,3.576.167,3.023.255,7.2.266,11.819,0,4.563,0,8.688,0,11.815,0,1.433,0,2.633,0,3.58a6.516,6.516,0,0,1-.058,1.316,6.513,6.513,0,0,1-.142-1.31c-.06-.845-.116-2.067-.166-3.58-.1-3.024-.14-7.2-.15-11.819s-.041-8.787-.115-11.807c-.037-1.432-.068-2.632-.092-3.578a6.486,6.486,0,0,1,.017-1.317" transform="translate(-36.415 -32.178)" fill="#263238"/>
            <path id="Trazado_873927" data-name="Trazado 873927" d="M54.605,182.13a20.275,20.275,0,0,1-.518-2.6,20.316,20.316,0,0,0-2.005-5.969,11.094,11.094,0,0,0-4.34-4.4,19.066,19.066,0,0,0-2.44-.948,1.708,1.708,0,0,1,.722.032,7.076,7.076,0,0,1,1.88.592,10.594,10.594,0,0,1,4.626,4.479,17.768,17.768,0,0,1,1.914,6.158,10.357,10.357,0,0,1,.161,2.66" transform="translate(-11.295 -41.935)" fill="#263238"/>
            <path id="Trazado_873928" data-name="Trazado 873928" d="M58.061,172.185a19.2,19.2,0,0,0-4.03-2.226,19.145,19.145,0,0,0-4.55-.707,7.145,7.145,0,0,1,4.716.222,7.145,7.145,0,0,1,3.864,2.711" transform="translate(-12.337 -42.131)" fill="#263238"/>
            <path id="Trazado_873929" data-name="Trazado 873929" d="M111.2,192.288a5.119,5.119,0,0,1-.055-.839q-.021-.894-.057-2.407c-.043-2.139-.1-5.15-.176-8.849-.176-7.515-.417-17.816-.685-29.194-.26-11.4-.416-21.733-.4-29.209,0-3.738.038-6.763.086-8.853q.045-1.513.071-2.407a5.164,5.164,0,0,1,.06-.839,5.221,5.221,0,0,1,.044.84q.009.894.025,2.407c.018,2.139.044,5.15.076,8.85.08,7.472.292,17.795.553,29.2s.475,21.724.534,29.2c.035,3.738.033,6.763.013,8.853q-.025,1.513-.04,2.407a5.1,5.1,0,0,1-.048.839" transform="translate(-27.383 -27.35)" fill="#263238"/>
            <path id="Trazado_873930" data-name="Trazado 873930" d="M47.621,172.156a3.933,3.933,0,0,1,1.356,1.748,8.823,8.823,0,0,1,.791,2.292,9.639,9.639,0,0,1,.04,2.973,8.075,8.075,0,0,1-.87,2.853,5.635,5.635,0,0,1-1.625,1.829,3.186,3.186,0,0,1-2.085.752,8.846,8.846,0,0,0,1.865-1.04,5.73,5.73,0,0,0,1.43-1.766,8.259,8.259,0,0,0,.777-2.7,10.1,10.1,0,0,0,0-2.823,9.825,9.825,0,0,0-.655-2.22,21.365,21.365,0,0,0-1.028-1.9" transform="translate(-11.276 -42.923)" fill="#263238"/>
            <path id="Trazado_873931" data-name="Trazado 873931" d="M183.25,184.569c-.012.029-.237-.024-.621-.185a6.917,6.917,0,0,1-1.51-.909,8.14,8.14,0,0,1-2.043-10.586,6.948,6.948,0,0,1,1.064-1.406c.3-.293.485-.426.507-.4.068.062-.6.7-1.253,1.982A8.268,8.268,0,0,0,181.35,183.2c1.082.95,1.94,1.29,1.9,1.373" transform="translate(-44.369 -42.655)" fill="#263238"/>
            <path id="Trazado_873932" data-name="Trazado 873932" d="M122.928,159.079a8.264,8.264,0,0,1-1.284.752c-.841.456-2.072,1.089-3.6,1.851-3.063,1.524-7.345,3.531-12.152,5.568s-9.232,3.712-12.457,4.85c-1.613.57-2.925,1.013-3.837,1.3a8.314,8.314,0,0,1-1.434.4,8.2,8.2,0,0,1,1.367-.586l3.779-1.451c3.19-1.224,7.582-2.951,12.383-4.981s9.1-3.984,12.195-5.423l3.672-1.7a8.289,8.289,0,0,1,1.373-.574" transform="translate(-21.981 -39.663)" fill="#263238"/>
            <path id="Trazado_873933" data-name="Trazado 873933" d="M208.7,156.062c.06.059-.372.474-.923,1.2a3.446,3.446,0,0,0-.634,1.408c-.12.578-.112,1.257-.211,2a4.857,4.857,0,0,1-1.914,3.229,2.433,2.433,0,0,1-1.432.613c-.032-.08.522-.29,1.2-.894a5,5,0,0,0,1.634-3.019,20,20,0,0,1,.257-2.027,3.48,3.48,0,0,1,.811-1.532c.664-.715,1.167-1.016,1.206-.976" transform="translate(-50.76 -38.91)" fill="#ff9b6c"/>
            <path id="Trazado_873934" data-name="Trazado 873934" d="M13.863,166.382a24.509,24.509,0,0,1-5.586.121,24.5,24.5,0,0,1-5.549-.649,40.616,40.616,0,0,1,5.574.137,40.6,40.6,0,0,1,5.561.391" transform="translate(-0.68 -41.338)" fill="#ff9b6c"/>
            <path id="Trazado_873935" data-name="Trazado 873935" d="M24.23,163.184c-.012.053-.6-.045-1.3-.643a4.1,4.1,0,0,1-1.413-3.2,10.133,10.133,0,0,1,.347-1.892,5.415,5.415,0,0,0,.19-1.462,4.847,4.847,0,0,0-.312-1.32c.03-.058.549.345.673,1.289a4.829,4.829,0,0,1-.088,1.59,12.7,12.7,0,0,0-.3,1.814,4.123,4.123,0,0,0,1.151,2.922c.579.612,1.088.828,1.052.906" transform="translate(-5.364 -38.561)" fill="#ff9b6c"/>
            <path id="Trazado_873936" data-name="Trazado 873936" d="M212.3,168.358a34.73,34.73,0,0,1,5.953.239,34.736,34.736,0,0,1,5.91.749,34.823,34.823,0,0,1-5.953-.239,34.752,34.752,0,0,1-5.91-.749" transform="translate(-52.934 -41.962)" fill="#ff9b6c"/>
            <path id="Trazado_873937" data-name="Trazado 873937" d="M104.378,107.839a18.742,18.742,0,0,1-1.133,2.907l-.627,1.444a16.35,16.35,0,0,1-.789,1.672,1.075,1.075,0,0,1-1.058.513,2.636,2.636,0,0,1-.995-.51l-1.767-1.212c-2.419-1.667-4.591-3.2-6.149-4.331A18.912,18.912,0,0,1,89.4,106.4a18.736,18.736,0,0,1,2.668,1.618c1.61,1.055,3.816,2.54,6.234,4.207l1.761,1.221a2.348,2.348,0,0,0,.79.44.592.592,0,0,0,.594-.3c.568-1.036,1.043-2.154,1.471-2.993a18.746,18.746,0,0,1,1.462-2.756" transform="translate(-22.29 -26.529)" fill="#263238"/>
          </g>
        </g>
      </g>
    </g>
  </g>
</svg>
