<svg xmlns="http://www.w3.org/2000/svg" xmlns:xlink="http://www.w3.org/1999/xlink" width="1030" height="496" viewBox="0 0 1030 496">
  <defs>
    <clipPath id="clip-path">
      <path id="Trazado_611005" data-name="Trazado 611005" d="M0,0H1030V495H0Z" transform="translate(285 446.5)" fill="#e2f8f4"/>
    </clipPath>
    <clipPath id="clip-path-2">
      <rect id="Rectángulo_378585" data-name="Rectángulo 378585" width="715" height="496" transform="translate(285 1482)" fill="#fff" stroke="#707070" stroke-width="1"/>
    </clipPath>
    <clipPath id="clip-path-3">
      <rect id="Rectángulo_378584" data-name="Rectángulo 378584" width="560.93" height="538.364" fill="none"/>
    </clipPath>
    <clipPath id="clip-path-7">
      <rect id="Rectángulo_378576" data-name="Rectángulo 378576" width="50.081" height="34.617" fill="none"/>
    </clipPath>
    <clipPath id="clip-path-8">
      <rect id="Rectángulo_378577" data-name="Rectángulo 378577" width="25.271" height="80.897" fill="none"/>
    </clipPath>
    <clipPath id="clip-path-10">
      <rect id="Rectángulo_378579" data-name="Rectángulo 378579" width="16.446" height="50.584" fill="none"/>
    </clipPath>
    <clipPath id="clip-path-11">
      <rect id="Rectángulo_378580" data-name="Rectángulo 378580" width="26.28" height="4.143" fill="none"/>
    </clipPath>
    <clipPath id="clip-path-12">
      <rect id="Rectángulo_378581" data-name="Rectángulo 378581" width="6.942" height="18.304" fill="none"/>
    </clipPath>
  </defs>
  <g id="Grupo_1074208" data-name="Grupo 1074208" transform="translate(-285 -1482)">
    <g id="Grupo_1074174" data-name="Grupo 1074174" transform="translate(0 1035.5)">
      <g id="Grupo_1073695" data-name="Grupo 1073695">
        <path id="Trazado_608309" data-name="Trazado 608309" d="M0,0H1030V495H0Z" transform="translate(285 446.5)" fill="#fef0d7"/>
      </g>
    </g>
    <g id="Enmascarar_grupo_1073827" data-name="Enmascarar grupo 1073827" clip-path="url(#clip-path-2)">
      <g id="Grupo_1074203" data-name="Grupo 1074203" transform="translate(354.069 1507.623)">
        <g id="Grupo_1074202" data-name="Grupo 1074202" clip-path="url(#clip-path-3)">
          <g id="Grupo_1074176" data-name="Grupo 1074176">
            <g id="Grupo_1074204" data-name="Grupo 1074204">
              <path id="Trazado_611117" data-name="Trazado 611117" d="M159.182,258.413s-12.284-8.572-17.924-7.014-12.886,9.484-12.886,9.484,14.318-4.121,18.637-3.263,12.173.793,12.173.793" transform="translate(35.106 68.699)" fill="#dfc9a1"/>
              <path id="Trazado_611118" data-name="Trazado 611118" d="M157.553,259.3c-1.788,4.048-4.876,7.424-6.6,11.5a19.4,19.4,0,0,0-.087,14.753,26.58,26.58,0,0,0,6.265-12.564,68.729,68.729,0,0,0,1.431-13.138Z" transform="translate(40.87 70.911)" fill="#dfc9a1"/>
              <path id="Trazado_611119" data-name="Trazado 611119" d="M159.555,258.636c.564-1.654-13.349-.933-17.78,4.432s-8.865,11.2-5.132,24.727c0,0,8.4-14.665,8.4-14.448s13.4-11.446,14.515-14.711" transform="translate(36.985 70.515)" fill="#dfc9a1"/>
              <path id="Trazado_611120" data-name="Trazado 611120" d="M154.439,258.858c-1.289.5,11.348,4.346,17.179,4.819a17.745,17.745,0,0,0,9.356-1.475s-8.47-10.352-26.535-3.344" transform="translate(42.21 70.125)" fill="#dfc9a1"/>
              <path id="Trazado_611121" data-name="Trazado 611121" d="M204.551,301.088s6.082-2.472,7.794-.76,8.747,11.027,15.4,11.6c0,0-6.085-12.928-11.6-15.019-3.626-1.375-11.6,4.182-11.6,4.182" transform="translate(55.939 81.136)" fill="#e0e0e0"/>
              <path id="Trazado_611122" data-name="Trazado 611122" d="M208.595,301.96s-.243-4.564-2.533-6.969-10.575-4.046-10.575-4.046,2.982,4.782,6.04,7.11a34.123,34.123,0,0,0,7.068,3.9" transform="translate(53.46 79.566)" fill="#e0e0e0"/>
              <path id="Trazado_611123" data-name="Trazado 611123" d="M208.27,299.389s-4.236-.065-7.232,5.233a42.937,42.937,0,0,0-4.372,11.51c.25-.442,7.992-3.831,10.027-8.117a17.913,17.913,0,0,0,1.577-8.625" transform="translate(53.776 81.875)" fill="#e0e0e0"/>
              <path id="Trazado_611124" data-name="Trazado 611124" d="M206.531,299.389s.76,10.087,2.472,11.8,4.182,7.985,4.182,7.985,3.8-9.126,1.712-13.5-8.365-6.285-8.365-6.285" transform="translate(56.481 81.875)" fill="#e0e0e0"/>
              <path id="Trazado_611125" data-name="Trazado 611125" d="M180.178,314.685c-.488.732-10.249,8.3-11.713,11.957s-.243,9.273,0,10.981,8.786-2.2,10.249-8.784a76.044,76.044,0,0,0,1.465-14.153" transform="translate(45.877 86.058)" fill="#dfc9a1"/>
              <path id="Trazado_611126" data-name="Trazado 611126" d="M179,310.234c-.009,1.22.146,13.178,3.288,17.35s8.965,8.607,8.965,8.607,2.064-15.115-2.294-19.783a23.548,23.548,0,0,0-9.96-6.174" transform="translate(48.952 84.84)" fill="#dfc9a1"/>
              <path id="Trazado_611127" data-name="Trazado 611127" d="M182.234,311.879c-.712-.168-9.542-1-13.74,4.024a46.692,46.692,0,0,0-6.551,10.738s13.351-6.623,15.8-9.555,4.49-5.207,4.49-5.207" transform="translate(44.287 85.248)" fill="#dfc9a1"/>
              <path id="Trazado_611128" data-name="Trazado 611128" d="M182.645,307.819a6.94,6.94,0,0,1,7.561-.195c3.969,2.471,10.562,12.066,10.562,12.066s-8.069-.525-12.321-4.565a27.937,27.937,0,0,1-5.8-7.306" transform="translate(49.948 83.84)" fill="#e0e0e0"/>
              <path id="Trazado_611129" data-name="Trazado 611129" d="M183.378,309.9s-5.124-4.353-9.029-5.322-15.373,1.891-15.373,1.891a20.533,20.533,0,0,0,13.3,3.431c7.931-.678,11.1,0,11.1,0" transform="translate(43.476 83.239)" fill="#dfc9a1"/>
              <path id="Trazado_611130" data-name="Trazado 611130" d="M165.145,343.512s-3.661,7.077,0,10.981,5.635,11.712,5.635,11.712,6.32-6.1,3.148-12.932a22.161,22.161,0,0,0-8.783-9.761" transform="translate(44.718 93.941)" fill="#dfc9a1"/>
              <path id="Trazado_611131" data-name="Trazado 611131" d="M161.982,343.632c-.975.488-7.321,9.029-7.809,15.129s-.975,16.593,0,15.861,8.053-7.32,10.006-13.664-2.2-17.326-2.2-17.326" transform="translate(42.008 93.974)" fill="#dfc9a1"/>
              <path id="Trazado_611132" data-name="Trazado 611132" d="M163.55,343.115c-.975.244-10.249-1.464-15.373,5.124s-9.029,16.106-9.029,16.106,13.421-6.864,16.593-10.631,7.809-10.6,7.809-10.6" transform="translate(38.053 93.824)" fill="#dfc9a1"/>
              <path id="Trazado_611133" data-name="Trazado 611133" d="M199.7,333.91s-2.789,8.3,0,15.618a70.848,70.848,0,0,0,5.96,12.2s4.13-14.641,1.456-18.546-7.415-9.272-7.415-9.272" transform="translate(54.274 91.315)" fill="#dfc9a1"/>
              <path id="Trazado_611134" data-name="Trazado 611134" d="M200.634,333.316c.988.916,12.429,17.345,20.209,18.81s1.217-.62,1.217-.62-2.451-11.074-5.937-15.657-15.489-2.533-15.489-2.533" transform="translate(54.868 91.028)" fill="#e0e0e0"/>
              <path id="Trazado_611135" data-name="Trazado 611135" d="M199.265,334.693s8.447-5.859,11.748-7.352c3.379-1.529,14.22.474,14.22.474s-13.261,6.9-16.449,6.17-9.518,2.092-9.518,2.092" transform="translate(54.493 89.361)" fill="#e0e0e0"/>
              <path id="Trazado_611136" data-name="Trazado 611136" d="M223.7,270.257s-7.32,7.754-6.35,13.813a71.426,71.426,0,0,0,3.13,11.874l3.219-10.663Z" transform="translate(59.416 73.908)" fill="#e0e0e0"/>
              <path id="Trazado_611137" data-name="Trazado 611137" d="M223.189,269.04s-1.7,11.874,1.7,16.721,8,14.055,8.481,13.328,7.512-7.027,2.423-15.994a45.983,45.983,0,0,0-12.6-14.055" transform="translate(60.92 73.575)" fill="#e0e0e0"/>
              <path id="Trazado_611138" data-name="Trazado 611138" d="M224.713,270.91s-11.688-3.393-13.369,2.182-3.134,10.419-3.134,10.419a45.7,45.7,0,0,1,8.251-6.812,85.929,85.929,0,0,0,8.252-5.789" transform="translate(56.94 73.807)" fill="#e0e0e0"/>
              <path id="Trazado_611139" data-name="Trazado 611139" d="M180,275.041s.349-.317.951-.83c2.758-2.353,10.827-8.835,14.9-7.841a86.124,86.124,0,0,1,11.787,4.284s-17.662,9.18-27.634,4.387" transform="translate(49.225 72.817)" fill="#e0e0e0"/>
              <path id="Trazado_611140" data-name="Trazado 611140" d="M185.17,273.415c.034-.883-5.312-2.3-10,2.544s-5.421,7.823-5.421,7.823,15.1-2.007,15.426-10.367" transform="translate(46.42 74.526)" fill="#dfc9a1"/>
              <path id="Trazado_611141" data-name="Trazado 611141" d="M181.806,273.989s-5.369,6.18-1.249,12.238,7.688,11.874,7.688,11.874a19.6,19.6,0,0,0,0-12.056,43.287,43.287,0,0,0-6.439-12.056" transform="translate(48.952 74.928)" fill="#dfc9a1"/>
              <path id="Trazado_611142" data-name="Trazado 611142" d="M200.362,288.743c-.242-1.475,1.712-13.575-14.3-12.379H184.6s7.657,12.359,9.408,16.237a16.775,16.775,0,0,0,4.956,6.785c1.885,1.7,1.642-9.168,1.4-10.642" transform="translate(50.482 75.555)" fill="#e0e0e0"/>
              <path id="Trazado_611143" data-name="Trazado 611143" d="M200.574,335.826a13.92,13.92,0,0,0-3.8-10.333c-.247-.256-.6-.523-.923-.378a.863.863,0,0,0-.39.569,8.861,8.861,0,0,0,.894,6.654,22.046,22.046,0,0,0,4.332,5.321" transform="translate(53.369 88.899)" fill="#e0e0e0"/>
              <path id="Trazado_611144" data-name="Trazado 611144" d="M167.219,344.88a27.3,27.3,0,0,0-12.972-11.869,1.863,1.863,0,0,0-1.088-.22,1.432,1.432,0,0,0-.983,1.291,4.667,4.667,0,0,0,1.238,3.235,22.719,22.719,0,0,0,14.416,8.621" transform="translate(41.61 91.004)" fill="#dfc9a1"/>
              <path id="Trazado_611145" data-name="Trazado 611145" d="M224.038,328.261c0,.053-.824.05-2.294.233a25.56,25.56,0,0,0-6.043,1.555,34.657,34.657,0,0,0-8.055,4.54,83.973,83.973,0,0,0-8.517,7.557c-5.817,5.655-10.94,10.91-14.493,14.859-1.782,1.97-3.19,3.594-4.16,4.719l-1.124,1.29a2.3,2.3,0,0,1-.422.427,2.309,2.309,0,0,1,.331-.5c.233-.315.578-.778,1.04-1.36.918-1.172,2.282-2.839,4.028-4.848,3.48-4.028,8.573-9.343,14.394-15a79.583,79.583,0,0,1,8.606-7.573,33.7,33.7,0,0,1,8.228-4.493,23.533,23.533,0,0,1,6.164-1.4,15.14,15.14,0,0,1,1.718-.056,2.337,2.337,0,0,1,.6.048" transform="translate(48.932 89.755)" fill="#dfc9a1"/>
              <path id="Trazado_611146" data-name="Trazado 611146" d="M184.978,355.844c-.093.062-1.046-1.591-3.125-3.8a26.511,26.511,0,0,0-21.291-8.36c-3.03.208-4.852.77-4.877.661a5.213,5.213,0,0,1,1.262-.43,22.209,22.209,0,0,1,3.582-.639,25.447,25.447,0,0,1,21.627,8.492,22.257,22.257,0,0,1,2.19,2.906,5.137,5.137,0,0,1,.632,1.175" transform="translate(42.575 93.84)" fill="#dfc9a1"/>
              <path id="Trazado_611147" data-name="Trazado 611147" d="M182.181,273.091a1.543,1.543,0,0,1-.01.349c-.022.261-.051.6-.087,1.019-.092.933-.222,2.243-.386,3.91-.344,3.394-.839,8.3-1.383,14.378-1.081,12.144-2.35,28.961-2.324,47.565.06,18.609,1.363,35.425,2.308,47.582.494,6.049.894,10.958,1.174,14.4.129,1.67.229,2.981.3,3.916.027.423.048.759.064,1.02a1.546,1.546,0,0,1,0,.349,1.539,1.539,0,0,1-.061-.344c-.032-.26-.071-.595-.121-1.015-.1-.932-.237-2.24-.411-3.906-.344-3.394-.821-8.307-1.358-14.384-1.051-12.151-2.421-28.975-2.481-47.615-.024-18.633,1.31-35.465,2.5-47.6.6-6.072,1.154-10.977,1.566-14.365.211-1.662.377-2.967.5-3.9.06-.419.107-.751.144-1.011a1.533,1.533,0,0,1,.069-.343" transform="translate(48.516 74.683)" fill="#dfc9a1"/>
              <path id="Trazado_611148" data-name="Trazado 611148" d="M218.575,298.816a9.755,9.755,0,0,1-1.7.259c-1.1.117-2.684.331-4.634.643a86.056,86.056,0,0,0-28.945,10.137c-1.718.972-3.091,1.794-4.023,2.388a9.88,9.88,0,0,1-1.491.861,9.64,9.64,0,0,1,1.366-1.049c.9-.653,2.241-1.532,3.941-2.555a77.132,77.132,0,0,1,29.091-10.188c1.966-.262,3.566-.414,4.674-.462a9.761,9.761,0,0,1,1.723-.033" transform="translate(48.617 81.712)" fill="#dfc9a1"/>
              <path id="Trazado_611149" data-name="Trazado 611149" d="M186.961,305.327a2.882,2.882,0,0,1-.154-.652c-.085-.492-.194-1.113-.327-1.878a27.213,27.213,0,0,0-.587-2.953c-.3-1.136-.52-2.459-1.012-3.854q-.332-1.058-.7-2.209c-.237-.77-.592-1.533-.9-2.344-.588-1.635-1.436-3.287-2.28-5.044a66.363,66.363,0,0,0-6.966-10.583,82.077,82.077,0,0,0-17.053-15.445c-1.193-.876-2.355-1.546-3.333-2.2s-1.854-1.161-2.567-1.583l-1.631-.991a2.953,2.953,0,0,1-.55-.38,2.787,2.787,0,0,1,.607.278l1.687.9c.731.392,1.626.875,2.625,1.5s2.178,1.276,3.391,2.133a77.981,77.981,0,0,1,17.276,15.42,64.455,64.455,0,0,1,6.991,10.7,54.45,54.45,0,0,1,2.25,5.113c.3.821.647,1.6.875,2.375s.453,1.524.666,2.239a38.88,38.88,0,0,1,.935,3.9,24.167,24.167,0,0,1,.494,2.986c.089.773.162,1.4.22,1.9a2.86,2.86,0,0,1,.037.666" transform="translate(40.722 69.793)" fill="#dfc9a1"/>
              <path id="Trazado_611150" data-name="Trazado 611150" d="M236.054,269.82a2.93,2.93,0,0,1-.613.273l-1.792.675c-1.564.564-3.811,1.421-6.569,2.527a189.276,189.276,0,0,0-40.556,22.319c-2.409,1.737-4.336,3.177-5.649,4.2l-1.528,1.152a2.954,2.954,0,0,1-.559.372,2.94,2.94,0,0,1,.485-.462l1.462-1.239c1.271-1.075,3.162-2.566,5.546-4.35a169.587,169.587,0,0,1,40.651-22.371c2.781-1.058,5.054-1.858,6.642-2.357l1.83-.572a2.877,2.877,0,0,1,.649-.162" transform="translate(48.893 73.787)" fill="#e0e0e0"/>
              <rect id="Rectángulo_378568" data-name="Rectángulo 378568" width="168.577" height="279.043" transform="translate(17.496)" fill="#dbb777"/>
              <rect id="Rectángulo_378569" data-name="Rectángulo 378569" width="168.577" height="279.043" transform="translate(11.889)" fill="#dfc9a1"/>
              <rect id="Rectángulo_378570" data-name="Rectángulo 378570" width="154.22" height="267.727" transform="translate(19.068 5.658)" fill="#fef0d7"/>
              <rect id="Rectángulo_378571" data-name="Rectángulo 378571" width="94.833" height="198.148" transform="translate(48.428 40.448)" fill="#fee7bd"/>
              <path id="Trazado_611167" data-name="Trazado 611167" d="M38.028,148c-.219-18.51,16.424-36.579,34.753-39.164,8.741-1.231,18.027.5,26.194-2.846,14.577-5.978,19.215-25.346,33.886-31.089l.67,143.219h-95.5Z" transform="translate(10.399 20.482)" fill="#dfc9a1"/>
            </g>
          </g>
          <g id="Grupo_1074178" data-name="Grupo 1074178">
            <g id="Grupo_1074177" data-name="Grupo 1074177" clip-path="url(#clip-path-3)">
              <path id="Trazado_611168" data-name="Trazado 611168" d="M560.93,422.564c0,.183-125.578.331-280.452.331C125.552,422.9,0,422.747,0,422.564s125.552-.331,280.478-.331c154.873,0,280.452.148,280.452.331" transform="translate(0 115.469)" fill="#263238"/>
            </g>
          </g>
          <g id="Grupo_1074180" data-name="Grupo 1074180">
            <g id="Grupo_1074179" data-name="Grupo 1074179" clip-path="url(#clip-path-3)">
              <path id="Trazado_611169" data-name="Trazado 611169" d="M459.4,440.622l-262.683-.139a14.708,14.708,0,0,1-14.7-14.715L182.225,36A14.708,14.708,0,0,1,196.94,21.3l262.683.139a14.706,14.706,0,0,1,14.7,14.715l-.205,389.77a14.709,14.709,0,0,1-14.716,14.7" transform="translate(49.777 5.824)" fill="#263238"/>
              <path id="Trazado_874939" data-name="Trazado 874939" d="M0,0H273.677V350.071H0Z" transform="translate(240.566 56.162)" fill="#d2edec"/>
              <path id="Trazado_611170" data-name="Trazado 611170" d="M310.322,336.391a11.208,11.208,0,1,1-11.2-11.214,11.207,11.207,0,0,1,11.2,11.214" transform="translate(78.734 88.927)" fill="#455a64"/>
              <path id="Trazado_611171" data-name="Trazado 611171" d="M348.752,35.489l-84.881-.045a1.548,1.548,0,0,1-1.547-1.549V32.36a1.546,1.546,0,0,1,1.549-1.546l84.881.045a1.548,1.548,0,0,1,1.547,1.549v1.535a1.548,1.548,0,0,1-1.549,1.547" transform="translate(71.738 8.427)" fill="#455a64"/>
              <path id="Trazado_611172" data-name="Trazado 611172" d="M395.372,335.748h0a3.289,3.289,0,0,1-3.287-3.291l.131-248.533a3.289,3.289,0,0,1,6.577,0l-.131,248.533a3.288,3.288,0,0,1-3.291,3.287" transform="translate(107.224 22.052)" fill="#e0e0e0"/>
              <path id="Trazado_611173" data-name="Trazado 611173" d="M365.732,66.67c0,.183-25.391.318-56.7.3s-56.708-.178-56.708-.362,25.384-.318,56.709-.3,56.7.178,56.7.362" transform="translate(69.003 18.133)" fill="#263238"/>
              <path id="Trazado_611174" data-name="Trazado 611174" d="M209.831,74.7a2.572,2.572,0,0,1,.367-.027l1.016-.037,3.741-.094-.118.12q-.021-1.249-.045-2.716c.005-.507-.045-.977.005-1.566a1.457,1.457,0,0,1,1.273-1.17c.609-.013,1.132-.039,1.794-.009a1.475,1.475,0,0,1,1.247,1.467c.014,1.267.028,2.59.043,3.96l-.2-.194,4.723-.047-.2.208c-.017-1.9-.033-3.87-.05-5.886,0-.5-.008-1-.011-1.5a1.5,1.5,0,0,0-.657-1.1L220.7,64.074q-1.014-1-1.992-1.969l-.964-.954c-.334-.322-.59-.647-.967-.725a1.245,1.245,0,0,0-1.065.2c-.281.237-.59.582-.877.862l-1.7,1.708c-1.066,1.105-2.181,2.12-2.985,3.069a3.331,3.331,0,0,0-.238,1.752c0,.583-.005,1.138-.006,1.662q-.013,1.522-.024,2.681c-.009.675-.018,1.24-.024,1.717a5.266,5.266,0,0,1-.027.621,3.741,3.741,0,0,1-.036-.564c-.014-.469-.031-1.024-.051-1.687q-.029-1.169-.065-2.7-.015-.806-.033-1.7-.008-.455-.015-.931a1.979,1.979,0,0,1,.264-1c.879-1.079,1.918-2.021,2.993-3.163l1.682-1.723c.3-.3.549-.591.914-.905a1.632,1.632,0,0,1,1.389-.274,2.568,2.568,0,0,1,1.145.818l.969.95,2,1.96,2.069,2.032a1.92,1.92,0,0,1,.782,1.386c0,.5.009,1,.013,1.508.014,2.016.028,3.983.041,5.886V74.8h-.205l-4.725.027h-.2v-.195c-.006-1.372-.011-2.695-.017-3.962a1.12,1.12,0,0,0-.936-1.127c-.536-.029-1.184-.011-1.708-.006a1.138,1.138,0,0,0-1,.9c-.046.467-.011,1.026-.023,1.505q0,1.465,0,2.716v.121h-.118l-3.811-.037-.991-.02a1.541,1.541,0,0,1-.323-.022" transform="translate(57.328 16.408)" fill="#263238"/>
              <path id="Trazado_611175" data-name="Trazado 611175" d="M384.04,62.077a.186.186,0,0,0-.144-.066l-11.131-.06H369.5l-.961.01-.085-.637-.168-1.254a.188.188,0,0,0-.186-.16h-.047L365,59.925c-.243.005-.4.011-.4.2s.159.195.4.206l2.833.06,1.575,12.2a.186.186,0,0,0,.186.162l9.093.046,3.415-.015c.289-.005.435-.009.435-.2s-.144-.194-.434-.205l-12.195-.164-.29-2.162,12.818.176h0a.189.189,0,0,0,.185-.154l.947-5.1.506-2.744a.189.189,0,0,0-.039-.153m-15.451.279,14.879.194-1.318,7.139-9.133-.043H370.3l-.731.01Z" transform="translate(99.708 16.384)" fill="#263238"/>
              <path id="Trazado_611176" data-name="Trazado 611176" d="M371.834,72.487a1.459,1.459,0,0,0-.514-.852,1.5,1.5,0,0,0-1.439-.255,1.529,1.529,0,0,0-.028,2.884,1.488,1.488,0,0,0,.515.093,1.516,1.516,0,0,0,.931-.32,1.457,1.457,0,0,0,.531-.847,1.093,1.093,0,0,0,.019-.351,1.105,1.105,0,0,0-.014-.353m-1.8,1.279a1,1,0,0,1,.019-1.882,1,1,0,0,1,.345-.061,1.022,1.022,0,0,1,.613.2,1.087,1.087,0,0,1,.392.563,1.762,1.762,0,0,1,.046.215l.006.033-.006.033a1.962,1.962,0,0,1-.05.215,1.094,1.094,0,0,1-.4.559,1.023,1.023,0,0,1-.961.122" transform="translate(100.869 19.498)" fill="#263238"/>
              <path id="Trazado_611177" data-name="Trazado 611177" d="M378.243,72.537a1.456,1.456,0,0,0-.516-.852,1.513,1.513,0,0,0-1.439-.255,1.53,1.53,0,0,0-.027,2.886,1.5,1.5,0,0,0,1.444-.228,1.447,1.447,0,0,0,.531-.847,1.034,1.034,0,0,0,.019-.353,1.144,1.144,0,0,0-.013-.351m-1.8,1.279a1,1,0,0,1,.02-1.882,1,1,0,0,1,.346-.061,1.025,1.025,0,0,1,.61.2,1.074,1.074,0,0,1,.392.564,1.552,1.552,0,0,1,.047.215l.006.033-.006.033a1.811,1.811,0,0,1-.051.214,1.082,1.082,0,0,1-.4.559,1.021,1.021,0,0,1-.961.122" transform="translate(102.622 19.512)" fill="#263238"/>
            </g>
          </g>
          <g id="Grupo_1074188" data-name="Grupo 1074188">
            <g id="Grupo_1074187" data-name="Grupo 1074187" clip-path="url(#clip-path-3)">
              <path id="Trazado_611178" data-name="Trazado 611178" d="M332.082,112.582l-3.719,52.675a16.423,16.423,0,0,1-32.77-2.231c.33-5.014.628-9.119.628-9.119s-12.751-1.983-12.909-14.733c-.09-7.363,1.179-24.074,2.268-36.876A16.72,16.72,0,0,1,302.247,87h7.7a23.6,23.6,0,0,1,22.133,25.583" transform="translate(77.477 23.792)" fill="#ffbe9d"/>
              <path id="Trazado_611179" data-name="Trazado 611179" d="M293.5,140.592a30.8,30.8,0,0,0,16.6-4.908s-4.107,9.276-16.829,8.127Z" transform="translate(80.201 37.106)" fill="#eb996e"/>
              <path id="Trazado_611180" data-name="Trazado 611180" d="M286.977,108.985c.225.237,1.6-.783,3.564-.778,1.957-.023,3.4.986,3.608.745.1-.106-.126-.535-.751-.991a5,5,0,0,0-2.888-.89,4.806,4.806,0,0,0-2.837.916c-.6.462-.806.893-.7,1" transform="translate(78.472 29.281)" fill="#263238"/>
              <path id="Trazado_611181" data-name="Trazado 611181" d="M300.685,113.2a1.822,1.822,0,0,0,1.756,1.838,1.743,1.743,0,0,0,1.877-1.643,1.822,1.822,0,0,0-1.755-1.838,1.743,1.743,0,0,0-1.878,1.643" transform="translate(82.229 30.506)" fill="#263238"/>
              <path id="Trazado_611182" data-name="Trazado 611182" d="M286.949,113.2a1.823,1.823,0,0,0,1.756,1.838,1.743,1.743,0,0,0,1.877-1.643,1.822,1.822,0,0,0-1.755-1.838,1.743,1.743,0,0,0-1.878,1.643" transform="translate(78.472 30.506)" fill="#263238"/>
              <path id="Trazado_611183" data-name="Trazado 611183" d="M301.836,109.193c.225.237,1.607-.783,3.566-.778,1.956-.023,3.4.984,3.608.745.1-.106-.124-.535-.753-.991a5,5,0,0,0-2.887-.89,4.8,4.8,0,0,0-2.839.916c-.6.462-.806.893-.7,1" transform="translate(82.536 29.338)" fill="#263238"/>
              <path id="Trazado_611184" data-name="Trazado 611184" d="M297.43,124.255a12.986,12.986,0,0,0-3.182-.574c-.5-.051-.974-.15-1.058-.493a2.545,2.545,0,0,1,.334-1.482q.707-1.817,1.48-3.81c2.055-5.424,3.543-9.883,3.324-9.965s-2.063,4.25-4.117,9.675c-.5,1.337-.968,2.612-1.417,3.833a2.886,2.886,0,0,0-.26,1.962,1.256,1.256,0,0,0,.823.732,3.411,3.411,0,0,0,.849.118,12.679,12.679,0,0,0,3.226,0" transform="translate(79.974 29.516)" fill="#263238"/>
              <path id="Trazado_611185" data-name="Trazado 611185" d="M302.226,121.814c-.318-.019-.322,2.109-2.143,3.618s-4.084,1.275-4.1,1.573c-.029.134.5.413,1.462.439a5.3,5.3,0,0,0,3.423-1.193,4.613,4.613,0,0,0,1.661-3.033c.081-.889-.157-1.416-.3-1.4" transform="translate(80.943 33.313)" fill="#263238"/>
              <path id="Trazado_611186" data-name="Trazado 611186" d="M301.929,103.518c.194.532,2.15.28,4.448.558,2.3.23,4.158.9,4.463.425.135-.228-.187-.73-.937-1.245a7.795,7.795,0,0,0-6.789-.749c-.844.34-1.268.759-1.186,1.011" transform="translate(82.567 27.908)" fill="#263238"/>
              <path id="Trazado_611187" data-name="Trazado 611187" d="M286.744,104.364c.345.446,1.695-.015,3.317-.038,1.622-.078,3,.3,3.314-.166.139-.225-.078-.671-.677-1.093a4.8,4.8,0,0,0-5.343.166c-.573.456-.762.916-.61,1.131" transform="translate(78.403 27.986)" fill="#263238"/>
              <path id="Trazado_611188" data-name="Trazado 611188" d="M318.34,114.689c.218-.094,8.76-2.592,8.481,6.125s-8.972,6.639-8.979,6.389.5-12.514.5-12.514" transform="translate(86.921 31.254)" fill="#ffbe9d"/>
              <path id="Trazado_611189" data-name="Trazado 611189" d="M320.018,123.373c.039-.027.149.112.4.237a1.522,1.522,0,0,0,1.135.06c.931-.308,1.754-1.746,1.847-3.315a5.022,5.022,0,0,0-.357-2.188,1.749,1.749,0,0,0-1.1-1.2.771.771,0,0,0-.909.387c-.125.241-.075.416-.122.429-.024.02-.182-.152-.1-.509a.97.97,0,0,1,.36-.535,1.147,1.147,0,0,1,.847-.2,2.14,2.14,0,0,1,1.543,1.4,5.161,5.161,0,0,1,.448,2.446c-.112,1.755-1.063,3.37-2.336,3.694a1.627,1.627,0,0,1-1.38-.275c-.264-.224-.3-.42-.273-.436" transform="translate(87.514 31.867)" fill="#eb996e"/>
              <path id="Trazado_611190" data-name="Trazado 611190" d="M330.65,122.229a4.579,4.579,0,0,0-4.2,2.151c-.567,1.244-.691,2.654-1.257,3.9s-1.843,2.371-3.173,2.057a2.684,2.684,0,0,1-1.817-1.989,7.377,7.377,0,0,1-.025-2.812c.514-4.07,1.37-8.107,1.533-12.206s-.42-8.359-2.572-11.853-6.108-6.06-10.2-5.731c-2.71.218-5.193,1.63-7.885,2.008a10.648,10.648,0,0,1-8.847-2.954c-.293-.29-1.654-1.188-1.654-1.188a5.019,5.019,0,0,1,.917-2.695c5.34-4.939,14.961-6.316,22.013-4.541s13.664,6.755,16.7,13.364,2.134,15.8.462,22.49" transform="translate(79.46 23.419)" fill="#263238"/>
              <path id="Trazado_611191" data-name="Trazado 611191" d="M284.261,98.384c1.142,2.648,4.056,4.188,6.926,4.48a22.971,22.971,0,0,0,8.508-1.239,66.488,66.488,0,0,1,13.1-1.933c.432.014.949.005,1.179-.36.3-.484-.183-1.068-.633-1.421-3.8-2.977-12.986-4.8-17.81-5s-9.887,1.869-12.5,5.929" transform="translate(77.402 25.403)" fill="#263238"/>
              <path id="Trazado_611192" data-name="Trazado 611192" d="M284.981,101.218a16.343,16.343,0,0,1,9.5-4.29c11.026-.941,29.107,2.449,38.6,21.438,0,0,1.984-6.212,1.984-10.094,0-2.593-1.551-18.035-17.439-22.892,0,0-23.936-9.136-32.642,15.838" transform="translate(77.934 22.903)" fill="#eaa950"/>
              <g id="Grupo_1074183" data-name="Grupo 1074183" transform="translate(362.915 106.653)" opacity="0.4">
                <g id="Grupo_1074182" data-name="Grupo 1074182">
                  <g id="Grupo_1074181" data-name="Grupo 1074181" clip-path="url(#clip-path-7)">
                    <path id="Trazado_611193" data-name="Trazado 611193" d="M284.981,101.218a15.544,15.544,0,0,1,10.636-4.83c9.867-.436,28.513,4.083,37.46,21.978,0,0,1.984-6.212,1.984-10.094,0-2.593-1.551-18.035-17.439-22.892,0,0-23.936-9.136-32.642,15.838" transform="translate(-284.981 -83.75)"/>
                  </g>
                </g>
              </g>
              <path id="Trazado_611194" data-name="Trazado 611194" d="M335.079,115.507c-4.763-8.008-11.888-13.513-19.577-18.316s-20.4-9.554-29.165-11.879a19.037,19.037,0,0,0-8.055-.846c-2.682.464-5.307,2.249-5.973,4.888-.833,3.3,5.03,8.4,7.785,10.406a90.317,90.317,0,0,0,8.374,4.945s-.078-6.152,9.731-7.39c13.374-1.69,37.286,18.535,36.88,18.193" transform="translate(74.447 23.055)" fill="#eaa950"/>
              <path id="Trazado_611195" data-name="Trazado 611195" d="M311.567,91.07c-.106.191-3.744-2.291-8.926-3.52-5.17-1.285-9.542-.748-9.549-.967a8.881,8.881,0,0,1,2.833-.387,25.587,25.587,0,0,1,13.3,3.231,8.819,8.819,0,0,1,2.339,1.643" transform="translate(80.153 23.567)" fill="#fff"/>
              <path id="Trazado_611196" data-name="Trazado 611196" d="M390.56,253.238c0,.185-32.6.332-72.812.332s-72.818-.148-72.818-.332,32.6-.33,72.818-.33,72.812.146,72.812.33" transform="translate(66.982 69.163)" fill="#263238"/>
              <path id="Trazado_611197" data-name="Trazado 611197" d="M265.367,174.616l-18.745,8.479-29.091-23.713-8.865,14.035s16.565,19.164,22.7,25.676,10.23,9.985,15.066,9.364S278.9,194.813,278.9,194.813s-6.5-19.376-13.532-20.2" transform="translate(57.064 43.586)" fill="#ffbe9d"/>
              <path id="Trazado_611198" data-name="Trazado 611198" d="M191.687,149.99s3.655,2.744,6.043,2.572,11.443-.219,12.118-.172,9.505,4.851,9.505,4.851l6.467,6.221-10.151,14.113s-1.676-1.927-2.817-1.78-15.088-1.054-17.188-1.766-4.786-1.127-5.487-2.421-.863-2.209,1.063-3.885c0,0-2.576-1.99-.707-4.462,0,0-2.906-2.125-1.863-4.089,0,0-1.65-.681-1.917-1.718a11.2,11.2,0,0,1,.115-3.274l4.164-1.293s-1.257-1.445.655-2.9" transform="translate(51.046 41.018)" fill="#ffbe9d"/>
              <path id="Trazado_611199" data-name="Trazado 611199" d="M189.671,152.61c0-.05.2-.087.541-.185a6.2,6.2,0,0,1,1.552-.317,3.811,3.811,0,0,1,2.26.883,2.627,2.627,0,0,1,.866,2.86,2.053,2.053,0,0,1-1.132,1.217,6.989,6.989,0,0,1-1.358.387l-2.237.464a6.787,6.787,0,0,1-2.1.264,6.814,6.814,0,0,1,1.993-.72l2.2-.6c.837-.21,1.759-.4,2.006-1.229a2.051,2.051,0,0,0-.642-2.183,3.623,3.623,0,0,0-1.877-.872,11.45,11.45,0,0,0-1.493.1c-.374.022-.582-.028-.582-.07" transform="translate(51.429 41.597)" fill="#eb996e"/>
              <path id="Trazado_611200" data-name="Trazado 611200" d="M194.41,155.5a2.863,2.863,0,0,1,.974-.273,15.183,15.183,0,0,1,2.746-.309,7.142,7.142,0,0,1,4.025,1.04,3.434,3.434,0,0,1,1.518,2.077,2.385,2.385,0,0,1-1.04,2.585,6.452,6.452,0,0,1-2.64.54l-2.388.188-4.047.279a20.832,20.832,0,0,1-3.743.089,21.065,21.065,0,0,1,3.7-.557l4.034-.42,2.385-.227a6.185,6.185,0,0,0,2.36-.465,1.739,1.739,0,0,0,.74-1.885,2.863,2.863,0,0,0-1.228-1.7,6.96,6.96,0,0,0-3.687-1.074c-2.268-.039-3.7.241-3.712.112" transform="translate(51.909 42.365)" fill="#eb996e"/>
              <path id="Trazado_611201" data-name="Trazado 611201" d="M202.816,159.382c.017-.032.265.037.534.394a2.062,2.062,0,0,1,.239,1.8,3.1,3.1,0,0,1-1.966,1.836,10.571,10.571,0,0,1-3.162.419c-4.382.205-7.862,1.066-7.911.874-.056-.159,3.408-1.324,7.878-1.536a11.406,11.406,0,0,0,2.993-.334,2.713,2.713,0,0,0,1.727-1.419,1.925,1.925,0,0,0-.019-1.51c-.162-.34-.344-.481-.312-.525" transform="translate(52.11 43.585)" fill="#eb996e"/>
              <path id="Trazado_611202" data-name="Trazado 611202" d="M214.261,161.674a4.341,4.341,0,0,1-1.839.711,13.409,13.409,0,0,1-9.293-1.244c-1.071-.59-1.631-1.105-1.587-1.169.1-.183,2.613,1.518,6.211,1.971,3.585.508,6.458-.472,6.507-.269" transform="translate(55.116 43.744)" fill="#eb996e"/>
              <path id="Trazado_611203" data-name="Trazado 611203" d="M200.133,156.3c.085-.169.99.149,2.106.011,1.121-.11,1.932-.62,2.053-.472.136.116-.635.988-1.98,1.133s-2.287-.528-2.179-.672" transform="translate(54.728 42.611)" fill="#eb996e"/>
              <path id="Trazado_611204" data-name="Trazado 611204" d="M199.353,168.247c-.171-.018.229-1.934,1.931-3.5,1.685-1.588,3.624-1.855,3.629-1.684.057.19-1.643.712-3.177,2.169-1.56,1.429-2.2,3.089-2.383,3.019" transform="translate(54.508 44.58)" fill="#eb996e"/>
              <path id="Trazado_611205" data-name="Trazado 611205" d="M177.942,195.886h55.313l10.263,80.9H167.141Z" transform="translate(45.708 53.57)" fill="#eaa950"/>
              <path id="Trazado_611206" data-name="Trazado 611206" d="M219.058,195.886h6.4l18.872,80.9H229.321Z" transform="translate(59.906 53.57)" fill="#eaa950"/>
              <g id="Grupo_1074186" data-name="Grupo 1074186" transform="translate(278.964 249.455)" opacity="0.3">
                <g id="Grupo_1074185" data-name="Grupo 1074185">
                  <g id="Grupo_1074184" data-name="Grupo 1074184" clip-path="url(#clip-path-8)">
                    <path id="Trazado_611207" data-name="Trazado 611207" d="M219.058,195.886h6.4l18.872,80.9H229.321Z" transform="translate(-219.058 -195.886)"/>
                  </g>
                </g>
              </g>
              <path id="Trazado_611208" data-name="Trazado 611208" d="M195.689,162.87c0-.038.16-.092.447-.023a1.663,1.663,0,0,1,.965.753,2.055,2.055,0,0,1,.177,1.83,3.093,3.093,0,0,1-1.5,1.636,6.162,6.162,0,0,1-2.809.551l.243-.163c-.725,1.392-1.591,2.006-1.656,1.927-.1-.09.581-.83,1.144-2.164l.062-.148.182-.017a6.7,6.7,0,0,0,2.527-.576,2.673,2.673,0,0,0,1.238-1.268,1.644,1.644,0,0,0-.018-1.383c-.371-.79-1.029-.86-1-.956" transform="translate(52.383 44.525)" fill="#eb996e"/>
              <path id="Trazado_611209" data-name="Trazado 611209" d="M186.662,207.463a7.812,7.812,0,0,1,.12-1.64c.12-1.052.335-2.566.642-4.433.6-3.733,1.615-8.857,2.808-14.493s2.276-10.74,3-14.445c.337-1.751.621-3.222.847-4.388a7.812,7.812,0,0,1,.376-1.6,7.781,7.781,0,0,1-.121,1.642c-.118,1.051-.334,2.566-.641,4.43-.6,3.735-1.615,8.858-2.808,14.5s-2.277,10.737-3,14.44c-.337,1.751-.621,3.222-.847,4.388a7.786,7.786,0,0,1-.376,1.6" transform="translate(51.042 45.523)" fill="#eaa950"/>
              <path id="Trazado_611210" data-name="Trazado 611210" d="M212.251,209.639a11,11,0,0,1-.611-1.859c-.371-1.328-.852-3.056-1.43-5.135-1.181-4.344-2.766-10.355-4.476-17s-3.226-12.681-4.289-17.054c-.5-2.1-.908-3.845-1.225-5.186a11.031,11.031,0,0,1-.362-1.924,11.094,11.094,0,0,1,.611,1.862c.371,1.328.852,3.055,1.43,5.135,1.181,4.343,2.765,10.353,4.476,17s3.224,12.677,4.288,17.049l1.226,5.187a11.027,11.027,0,0,1,.362,1.925" transform="translate(54.653 44.16)" fill="#eaa950"/>
              <path id="Trazado_611211" data-name="Trazado 611211" d="M242.126,261.223a15.789,15.789,0,0,1-2.662-1.862c-1.592-1.215-3.761-2.93-6.13-4.856-.41-.335-.812-.665-1.2-.978l.481-.075c-1.487,2.244-2.828,4.21-3.813,5.6a12.313,12.313,0,0,1-1.686,2.167,12.332,12.332,0,0,1,1.321-2.408c.888-1.457,2.161-3.466,3.629-5.723l.2-.3.283.23,1.2.972c2.369,1.927,4.492,3.7,6.007,5.009a15.831,15.831,0,0,1,2.366,2.225" transform="translate(62.109 69.13)" fill="#263238"/>
              <path id="Trazado_611212" data-name="Trazado 611212" d="M221.7,195.886c.181-.031,3.042,16.276,6.39,36.416s5.918,36.5,5.737,36.53-3.042-16.272-6.392-36.42-5.917-36.5-5.736-36.526" transform="translate(60.626 53.569)" fill="#263238"/>
              <path id="Trazado_611213" data-name="Trazado 611213" d="M235.3,216.377a13.773,13.773,0,0,1-1.29,1.225,22.825,22.825,0,0,1-4.219,2.87,25.075,25.075,0,0,1-7.636,2.623,22.569,22.569,0,0,1-10.654-.62,13.141,13.141,0,0,1-5.349-3.258,10.09,10.09,0,0,1-2.911-6.119A7.934,7.934,0,0,1,206,206.446a6.331,6.331,0,0,1,3.586-1.5,7.415,7.415,0,0,1,3.9.811,9.293,9.293,0,0,1,3.131,2.6,10.58,10.58,0,0,1,1.784,3.755,18.628,18.628,0,0,1-.031,8.447,28.583,28.583,0,0,1-8.685,15.228,26.154,26.154,0,0,1-7.58,4.867,18.776,18.776,0,0,1-8.627,1.472,14.654,14.654,0,0,1-7.873-3.049,11.141,11.141,0,0,1-4.21-6.883,10.434,10.434,0,0,1,1.486-7.534,7.1,7.1,0,0,1,6.3-3.4,4.618,4.618,0,0,1,3.119,1.68,6.9,6.9,0,0,1,1.414,3.087,11.011,11.011,0,0,1-.728,6.218,16.631,16.631,0,0,1-7.093,7.9A24.822,24.822,0,0,1,178.3,242.9a38.931,38.931,0,0,1-5.061.644c-.582.033-1.025.053-1.324.057a2.26,2.26,0,0,1-.452-.008,2.378,2.378,0,0,1,.448-.06l1.318-.124a44.547,44.547,0,0,0,5.019-.763,25.054,25.054,0,0,0,7.457-2.813,16.307,16.307,0,0,0,6.845-7.757,10.568,10.568,0,0,0,.663-5.941,6.384,6.384,0,0,0-1.319-2.847,4.069,4.069,0,0,0-2.766-1.476,6.558,6.558,0,0,0-5.762,3.18A9.855,9.855,0,0,0,182,232.1a10.525,10.525,0,0,0,4,6.491,14.03,14.03,0,0,0,7.533,2.9c5.613.439,11.334-2.2,15.707-6.181a28,28,0,0,0,8.5-14.869,18.04,18.04,0,0,0,.053-8.154,9.96,9.96,0,0,0-1.666-3.538,8.68,8.68,0,0,0-2.912-2.437,6.8,6.8,0,0,0-3.578-.762,5.739,5.739,0,0,0-3.261,1.347,7.382,7.382,0,0,0-2.581,6.162,9.581,9.581,0,0,0,2.733,5.806,12.664,12.664,0,0,0,5.13,3.168,22.329,22.329,0,0,0,10.444.7,25.3,25.3,0,0,0,7.576-2.486,24.6,24.6,0,0,0,4.253-2.746c.465-.349.786-.656,1.018-.843a2.314,2.314,0,0,1,.358-.279" transform="translate(46.891 56.042)" fill="#fff"/>
              <path id="Trazado_611214" data-name="Trazado 611214" d="M291.46,151.889h-9.971c-3.217,1.126-29.106,23.157-29.106,23.157l14.635,23,18.975-11.1Z" transform="translate(69.02 41.537)" fill="#455a64"/>
              <path id="Trazado_611215" data-name="Trazado 611215" d="M278.337,154.341l22.031-8.362s3.216,6.753,13.025,5.307,21.388-8.362,21.388-8.362,16.884,9.648,21.869,13.668-4.02,88.283-4.02,88.283l-2.251,25.247s1.769,1.286,1.769,5.629.162,7.236.162,7.236H265.031s-2.132-10.13-.525-14.151a52.357,52.357,0,0,1,4.262-8.041l1.366-38.915.483-34.735Z" transform="translate(72.171 39.086)" fill="#455a64"/>
              <path id="Trazado_611216" data-name="Trazado 611216" d="M342.852,153.657s7.041,1.987,9.13,12.433,1.709,50.326,1.709,50.326L314.363,207.9s5.333-16.741,5.333-17.881,10.825-28.107,11.205-28.677,11.95-7.684,11.95-7.684" transform="translate(85.97 42.021)" fill="#455a64"/>
              <path id="Trazado_611217" data-name="Trazado 611217" d="M268.691,164.77c.183,0,.436,6.968.562,15.569s.083,15.578-.1,15.582-.434-6.968-.562-15.572-.083-15.577.1-15.58" transform="translate(73.432 45.06)" fill="#263238"/>
              <path id="Trazado_611218" data-name="Trazado 611218" d="M324.346,167.705a5.676,5.676,0,0,1-.148,1.386c-.136.884-.365,2.157-.674,3.725-.615,3.137-1.575,7.45-2.814,12.168s-2.529,8.946-3.536,11.98c-.5,1.517-.931,2.738-1.247,3.575a5.658,5.658,0,0,1-.553,1.279,5.609,5.609,0,0,1,.307-1.359q.43-1.5,1.044-3.633c.891-3.064,2.1-7.3,3.343-12.01s2.267-8.992,3-12.1q.518-2.162.879-3.678a5.729,5.729,0,0,1,.4-1.333" transform="translate(86.244 45.863)" fill="#263238"/>
              <path id="Trazado_611219" data-name="Trazado 611219" d="M319.722,167.042c.183.01.141,3.6-.092,8.027s-.57,8-.754,7.991-.141-3.6.092-8.027.572-8,.754-7.991" transform="translate(87.173 45.681)" fill="#263238"/>
              <path id="Trazado_611220" data-name="Trazado 611220" d="M315.443,177.456c0,.183-3.78.331-8.442.331s-8.442-.148-8.442-.331,3.78-.331,8.442-.331,8.442.148,8.442.331" transform="translate(81.648 48.439)" fill="#fff"/>
              <path id="Trazado_611221" data-name="Trazado 611221" d="M277.253,229.383l43.513-5.23,6.861-27.55,24.345,5.272s-9.627,38.244-19.552,41.941-59.015-2.551-59.015-2.551Z" transform="translate(74.769 53.765)" fill="#ffbe9d"/>
              <path id="Trazado_611222" data-name="Trazado 611222" d="M284.115,222.646a51.638,51.638,0,0,0-7.249-2.453c-2.02-.3-4.4.141-5,1.114l-11.744,6.807s-8.676-.823-9.5,1.123c0,0-5.535-1.571-6.432-.45,0,0-2.769.9-2.319,2.17s10.473,4.787,10.473,4.787l13.764,1.421s5.237-2.842,7.4-3.067a36.118,36.118,0,0,1,6.235.492c-.177-.057,8.023.923,8.023.923s1.676-1.789,2.348-6.726,0-5.984,0-5.984Z" transform="translate(66.132 60.191)" fill="#ffbe9d"/>
              <path id="Trazado_611223" data-name="Trazado 611223" d="M271.962,228.973c0,.033-.373.053-.855-.334-.5-.348-.909-1.164-1.668-1.685a4.385,4.385,0,0,0-1.5-.455,3.478,3.478,0,0,1-1.88-.825,3.367,3.367,0,0,1-1.01-2.062,2.921,2.921,0,0,1,.732-2.367,4.769,4.769,0,0,1,4.376-1.2,7.75,7.75,0,0,1,3.284,1.682,14.8,14.8,0,0,1,1.734,1.729c.374.437.56.7.527.727-.083.089-.956-.86-2.551-2.086a7.753,7.753,0,0,0-3.114-1.453,4.251,4.251,0,0,0-3.771,1.056,2.639,2.639,0,0,0,.214,3.538c.837.87,2.274.634,3.219,1.329a13.813,13.813,0,0,1,1.584,1.886c.374.4.7.467.68.523" transform="translate(72.476 60.144)" fill="#eb996e"/>
              <path id="Trazado_611224" data-name="Trazado 611224" d="M267.177,225.274c-.008.108-.662.071-1.591.492a24.667,24.667,0,0,1-3.761,1.776,10.689,10.689,0,0,1-4.19-.326,13.856,13.856,0,0,1-1.675-.247c-.022-.08.646-.3,1.729-.218a14.449,14.449,0,0,0,3.985.145c1.452-.374,2.682-1.285,3.749-1.571,1.066-.34,1.776-.122,1.752-.051" transform="translate(69.998 61.569)" fill="#eb996e"/>
              <path id="Trazado_611225" data-name="Trazado 611225" d="M269.576,230.1c.019.037-.255.234-.793.52a12.465,12.465,0,0,1-2.411.919,23.524,23.524,0,0,1-8.456.49c-1.639-.206-3.189-.455-4.6-.666a14.468,14.468,0,0,1-3.753-.838,2.35,2.35,0,0,1-1.123-1.084,1.947,1.947,0,0,1-.167-1.163c.143-.667.564-.819.559-.787.048.042-.265.257-.3.82a1.857,1.857,0,0,0,1.235,1.79,16.362,16.362,0,0,0,3.638.656l4.578.61a26.852,26.852,0,0,0,8.281-.284c2.081-.452,3.265-1.09,3.316-.984" transform="translate(67.888 62.213)" fill="#eb996e"/>
              <path id="Trazado_611226" data-name="Trazado 611226" d="M317.735,229.144c-.2.057-.913-2.648-2.826-5.439-1.882-2.812-4.129-4.481-4-4.642.07-.148,2.584,1.34,4.55,4.271,1.992,2.911,2.44,5.8,2.277,5.81" transform="translate(85.023 59.905)" fill="#eb996e"/>
            </g>
          </g>
          <path id="Trazado_611227" data-name="Trazado 611227" d="M61.8,347.925,60.139,432.94l20.59,2.207,14.146-86.558L83.76,334.61Z" transform="translate(16.446 91.507)" fill="#ffbe9d"/>
          <g id="Grupo_1074199" data-name="Grupo 1074199">
            <g id="Grupo_1074198" data-name="Grupo 1074198" clip-path="url(#clip-path-3)">
              <path id="Trazado_611228" data-name="Trazado 611228" d="M83.254,410.424l-.01,1.388s23.424,9.723,23.623,14.192l-46.726-.779V409.657a28.837,28.837,0,0,0,23.114.767" transform="translate(16.447 112.03)" fill="#eaa950"/>
              <path id="Trazado_611229" data-name="Trazado 611229" d="M60.14,422.685l.215-3.738,44.705,2.114s2.066.941,1.806,2.4Z" transform="translate(16.447 114.57)" fill="#263238"/>
              <path id="Trazado_611230" data-name="Trazado 611230" d="M59.878,143.053c-.335-3.916-2.686-7.878-6.432-9.067l-4.309,2.473a10.389,10.389,0,0,0-5.2,12.609c-5.633,3.205-7.567,11.493-3.936,16.861-2.8,1.3-3.994,4.713-3.945,7.795s1.038,6.072,1.314,9.142c.213,2.37,0,4.781.436,7.12s1.705,4.721,3.913,5.61c2.32.935,5.091-.09,6.776-1.938a13.088,13.088,0,0,0,2.863-6.821c1.161-7.115-.349-14.547,1.443-21.531.977-3.806,2.891-7.292,4.492-10.881s2.919-7.456,2.584-11.372" transform="translate(9.86 36.641)" fill="#263238"/>
              <path id="Trazado_611231" data-name="Trazado 611231" d="M56.06,145.6a13.736,13.736,0,0,1-11.483-21.131,3.58,3.58,0,0,1,1.566-1.512c1.449-.574,2.954.6,4.07,1.69l8.057,7.851" transform="translate(11.612 33.585)" fill="#263238"/>
              <path id="Trazado_611232" data-name="Trazado 611232" d="M56.161,142.485c-6.052-2.86-10.807-9.644-12.572-16.1s.266-19.536,2.011-26c2.122-7.866,5.391,2.255,8.066,3.084a5.209,5.209,0,0,1,3.189,3.6,15.39,15.39,0,0,1,.367,4.968q-.529,15.226-1.061,30.451" transform="translate(11.734 26.639)" fill="#263238"/>
              <path id="Trazado_611233" data-name="Trazado 611233" d="M66.868,83.054c10.12-5.438,18.237-2.225,22.185.862s6.329,7.79,7.777,12.587,2.083,9.8,3.259,14.673a60.273,60.273,0,0,1,1.557,8.527c.581,4.171.388,11.614-1.746,15.245-2.052,3.491-4.261,6.6-7.647,8.821-1.217.8-2.659,1.633-4.047,1.192a4.914,4.914,0,0,1-2.3-2.1A195.243,195.243,0,0,1,60.329,91.72" transform="translate(16.498 21.91)" fill="#263238"/>
              <path id="Trazado_611234" data-name="Trazado 611234" d="M57.61,93.12l17.526-7.063,4.59.511c10.321-.013,17.494,11.336,17.6,19.7.12,9.286-.1,20.629-1.543,27.482-2.9,13.779-13.636,15.013-13.636,15.013,0-.022.126,3.762.236,8.383a14.587,14.587,0,1,1-29.17.4l-.22-59.686A4.891,4.891,0,0,1,57.61,93.12" transform="translate(14.492 23.534)" fill="#ffbe9d"/>
              <path id="Trazado_611235" data-name="Trazado 611235" d="M85.059,109.511a1.785,1.785,0,0,1-1.808,1.712,1.707,1.707,0,0,1-1.755-1.7,1.783,1.783,0,0,1,1.8-1.712,1.707,1.707,0,0,1,1.759,1.7" transform="translate(22.287 29.484)" fill="#263238"/>
              <path id="Trazado_611236" data-name="Trazado 611236" d="M86.441,106.089c-.233.223-1.532-.843-3.45-.935-1.913-.118-3.37.8-3.566.551-.1-.108.149-.517.784-.932a4.9,4.9,0,0,1,2.869-.73,4.713,4.713,0,0,1,2.73,1.035c.567.483.745.913.632,1.01" transform="translate(21.715 28.451)" fill="#263238"/>
              <path id="Trazado_611237" data-name="Trazado 611237" d="M75.76,120.869a12.761,12.761,0,0,1,3.142-.406c.492-.025.96-.1,1.06-.429a2.5,2.5,0,0,0-.255-1.467q-.6-1.811-1.261-3.8c-1.743-5.407-2.98-9.844-2.762-9.911s1.81,4.258,3.554,9.666q.627,2,1.2,3.819a2.835,2.835,0,0,1,.158,1.934,1.231,1.231,0,0,1-.842.675,3.318,3.318,0,0,1-.837.074,12.506,12.506,0,0,1-3.156-.154" transform="translate(20.69 28.675)" fill="#263238"/>
              <path id="Trazado_611238" data-name="Trazado 611238" d="M79.826,136.56a35.379,35.379,0,0,1-18.352-5.895s4.472,9.877,18.439,9.273Z" transform="translate(16.811 35.733)" fill="#eb996e"/>
              <path id="Trazado_611239" data-name="Trazado 611239" d="M76.019,121.036a3.5,3.5,0,0,0-3.088-1.631,2.779,2.779,0,0,0-2.253,1.079,2.438,2.438,0,0,0-.136,2.6,2.5,2.5,0,0,0,2.618,1.026,6.34,6.34,0,0,0,2.533-1.383,1.956,1.956,0,0,0,.563-.585,1.5,1.5,0,0,0-.237-1.105" transform="translate(19.206 32.654)" fill="#eb996e"/>
              <path id="Trazado_611240" data-name="Trazado 611240" d="M71.335,118.249c.312,0,.213,2.078,1.919,3.645s3.932,1.448,3.935,1.74c.023.132-.514.38-1.452.358a5.187,5.187,0,0,1-3.291-1.335,4.52,4.52,0,0,1-1.476-3.049c-.036-.874.223-1.378.364-1.359" transform="translate(19.408 32.338)" fill="#263238"/>
              <path id="Trazado_611241" data-name="Trazado 611241" d="M86.112,101.9c-.359.418-1.657-.1-3.244-.2-1.583-.155-2.947.146-3.233-.325-.125-.228.108-.653.717-1.037a4.706,4.706,0,0,1,5.219.424c.539.476.7.933.541,1.138" transform="translate(21.769 27.278)" fill="#263238"/>
              <path id="Trazado_611242" data-name="Trazado 611242" d="M67.662,109.4a1.783,1.783,0,0,0,1.7,1.821,1.705,1.705,0,0,0,1.858-1.584,1.785,1.785,0,0,0-1.695-1.822,1.708,1.708,0,0,0-1.861,1.585" transform="translate(18.503 29.483)" fill="#263238"/>
              <path id="Trazado_611243" data-name="Trazado 611243" d="M64.85,105.865c.218.236,1.582-.748,3.5-.718,1.918,0,3.314,1.007,3.525.774.1-.1-.117-.525-.723-.979a4.9,4.9,0,0,0-2.818-.908,4.7,4.7,0,0,0-2.79.862c-.6.446-.8.863-.694.969" transform="translate(17.727 28.45)" fill="#263238"/>
              <path id="Trazado_611244" data-name="Trazado 611244" d="M65.511,101.112c.332.439,1.659.005,3.25,0,1.589-.057,2.933.33,3.247-.122.139-.22-.067-.658-.651-1.079a4.706,4.706,0,0,0-5.235.1c-.567.441-.758.888-.611,1.1" transform="translate(17.903 27.119)" fill="#263238"/>
              <path id="Trazado_611245" data-name="Trazado 611245" d="M73.6,85.111c-4.438-1.788-11.226-1.184-15.037,1.71a19.648,19.648,0,0,0-7.058,12.126c-.869,4.705.3,11.676,1.538,16.3,7.184-9.253,14.577-19.929,21.51-29.37Z" transform="translate(14.003 23)" fill="#263238"/>
              <path id="Trazado_611246" data-name="Trazado 611246" d="M72.117,81.642c24.344-3.431,22.1,33.388,22.1,33.388C91.779,101.465,72.9,87.271,72.9,87.271l-3.84-.649Z" transform="translate(18.885 22.265)" fill="#263238"/>
              <path id="Trazado_611247" data-name="Trazado 611247" d="M56.342,114.6c.05-1.034-1.024-3.533-2.038-3.744-2.706-.562-7.634-.588-8.027,6.337-.537,9.466,9.077,8.052,9.11,7.782.024-.211.783-6.8.954-10.375" transform="translate(12.65 30.255)" fill="#ffbe9d"/>
              <path id="Trazado_611248" data-name="Trazado 611248" d="M53.172,120.583c-.041-.033-.173.106-.458.218a1.649,1.649,0,0,1-1.234-.045c-.978-.424-1.732-2.059-1.681-3.768a5.431,5.431,0,0,1,.6-2.336,1.9,1.9,0,0,1,1.31-1.195.84.84,0,0,1,.947.507c.112.273.042.457.09.476.025.025.213-.146.158-.541a1.048,1.048,0,0,0-.339-.615,1.248,1.248,0,0,0-.9-.293,2.318,2.318,0,0,0-1.806,1.37,5.612,5.612,0,0,0-.722,2.606c-.047,1.911.828,3.752,2.174,4.225a1.768,1.768,0,0,0,1.523-.166c.307-.217.368-.425.337-.444" transform="translate(13.437 30.9)" fill="#eb996e"/>
              <path id="Trazado_611249" data-name="Trazado 611249" d="M45.86,100.3c2.42-6.491,7.315-11.852,13.024-15.776a23.168,23.168,0,0,1,10.158-4.309c3.689-.442,7.7.621,10.155,3.41l.685.7c-4.188,9.28-7.137,17.132-12.526,25.77-1.98,3.175-2.833,13.983-3.31,17.692-1.63,12.671-8.564,18.093-8.564,18.093-15,.011-12.042-39.089-9.622-45.58" transform="translate(12 21.91)" fill="#263238"/>
              <path id="Trazado_611250" data-name="Trazado 611250" d="M53.035,132.6a4.208,4.208,0,0,1-1.864-.595,12.76,12.76,0,0,1-6.258-6.868,4.244,4.244,0,0,1-.419-1.911c.2-.073.949,2.851,3.391,5.489,2.4,2.677,5.24,3.7,5.15,3.885" transform="translate(12.161 33.699)" fill="#455a64"/>
              <path id="Trazado_611251" data-name="Trazado 611251" d="M51.16,141.3c0,.171-2.01.014-3.921-1.438-1.927-1.433-2.637-3.319-2.474-3.365.174-.1,1.089,1.517,2.873,2.835,1.762,1.346,3.567,1.775,3.522,1.968" transform="translate(12.236 37.327)" fill="#455a64"/>
              <path id="Trazado_611252" data-name="Trazado 611252" d="M45.542,150.4c-.149.107-1.016-.849-1.937-2.134s-1.547-2.415-1.4-2.521,1.016.849,1.937,2.136,1.547,2.413,1.4,2.52" transform="translate(11.536 39.855)" fill="#455a64"/>
              <path id="Trazado_611253" data-name="Trazado 611253" d="M41.528,161.269c-.138.121-.807-.418-1.5-1.2s-1.135-1.519-1-1.64.806.418,1.5,1.2,1.133,1.519,1,1.64" transform="translate(10.669 43.32)" fill="#455a64"/>
              <path id="Trazado_611254" data-name="Trazado 611254" d="M43.257,121.175a12.468,12.468,0,0,1,1.792-1.049c.59-.309,1.305-.7,2.108-1.2s1.75-1.012,2.724-1.7a65.559,65.559,0,0,0,6.673-5.007A71.087,71.087,0,0,0,63.763,105a71.186,71.186,0,0,0,5.984-8.27,65.524,65.524,0,0,0,3.879-7.386c.52-1.071.881-2.086,1.24-2.96s.638-1.64.851-2.272a12.721,12.721,0,0,1,.749-1.937,12.342,12.342,0,0,1-.5,2.016c-.174.647-.41,1.431-.748,2.322s-.661,1.925-1.158,3.017a59.355,59.355,0,0,1-3.786,7.516,66.854,66.854,0,0,1-6,8.385,66.889,66.889,0,0,1-7.317,7.26,59.538,59.538,0,0,1-6.816,4.936c-1,.663-1.966,1.158-2.794,1.624s-1.563.833-2.173,1.109a12.392,12.392,0,0,1-1.91.819" transform="translate(11.83 22.472)" fill="#455a64"/>
              <path id="Trazado_611255" data-name="Trazado 611255" d="M66.9,103.89c.033.032-.215.35-.7.9s-1.211,1.317-2.16,2.216a46.6,46.6,0,0,1-17.473,10.321c-1.245.4-2.267.674-2.982.821a3.735,3.735,0,0,1-1.124.174c-.028-.1,1.523-.54,3.953-1.439a57.578,57.578,0,0,0,9.123-4.326,57.711,57.711,0,0,0,8.191-5.9c1.96-1.694,3.089-2.842,3.168-2.769" transform="translate(11.612 28.41)" fill="#455a64"/>
              <path id="Trazado_611256" data-name="Trazado 611256" d="M94.621,122.273a16.956,16.956,0,0,1,.388-2.074,35.209,35.209,0,0,0,.628-5.682A33.037,33.037,0,0,0,77.575,83.778a35.145,35.145,0,0,0-5.27-2.217,16.67,16.67,0,0,1-2-.67,1.733,1.733,0,0,1,.544.071c.35.078.877.157,1.531.351a29.844,29.844,0,0,1,5.406,2.045,32.51,32.51,0,0,1,18.32,31.177,29.841,29.841,0,0,1-.844,5.719c-.149.666-.335,1.165-.438,1.508a1.711,1.711,0,0,1-.2.511" transform="translate(19.226 22.119)" fill="#455a64"/>
              <path id="Trazado_611257" data-name="Trazado 611257" d="M178.152,180.984a3.061,3.061,0,0,0-.425,2.957,4.862,4.862,0,0,0,1.891,1.928,16.868,16.868,0,0,0,3.131-4.481" transform="translate(48.548 49.494)" fill="#eb996e"/>
              <path id="Trazado_611258" data-name="Trazado 611258" d="M173.926,179.721a3.062,3.062,0,0,0-1.146,2.758,4.87,4.87,0,0,0,1.355,2.338,16.926,16.926,0,0,0,4.144-3.564" transform="translate(47.242 49.149)" fill="#eb996e"/>
              <path id="Trazado_611259" data-name="Trazado 611259" d="M75.055,146.744s41.888,32.964,49.435,34.041,42.885-3.2,57.38-3.655l2.057,12.164s-40.032,13.592-54.586,14.13-22.914-3.39-22.914-3.39L79.21,172.161Z" transform="translate(20.525 40.13)" fill="#ffbe9d"/>
              <path id="Trazado_611260" data-name="Trazado 611260" d="M158.209,171.057s18.7-2.665,21.608-1.211,11.263,8.511,11.263,8.511,2.779,7.834,1.028,8.2-3.567-2.539-3.567-2.539l-2.362-4.36-10.446-2.543-17.338,1.535Z" transform="translate(43.266 46.33)" fill="#ffbe9d"/>
              <path id="Trazado_611261" data-name="Trazado 611261" d="M161.879,181.767c.271.329,6.948,3.557,10.347,3.463s7.289-2.743,10.216-2.338,9,.874,9.733-.174.947-2.269-.051-3.214-5.9-1.875-9.443-2.823a14.168,14.168,0,0,1-5.244-2.416l-20.591,2.269-1.168,6.425Z" transform="translate(42.574 47.656)" fill="#ffbe9d"/>
              <path id="Trazado_611262" data-name="Trazado 611262" d="M167.541,174.118a3.39,3.39,0,0,1,1.079-.082,16.472,16.472,0,0,1,2.92.354,82.313,82.313,0,0,1,9.187,2.915,29.069,29.069,0,0,0,5.1,1.2,4.254,4.254,0,0,1,2.276.883,2.425,2.425,0,0,1,.762,2.032,2.195,2.195,0,0,1-.853,1.563,2.349,2.349,0,0,1-1.239.472c-.74.042-1.089-.23-1.067-.251a5.328,5.328,0,0,0,1.033-.005,1.956,1.956,0,0,0,1-3.4,3.805,3.805,0,0,0-2-.69,26.657,26.657,0,0,1-5.212-1.177c-3.587-1.2-6.7-2.532-9.086-3.088-2.365-.624-3.9-.606-3.9-.73" transform="translate(45.818 47.594)" fill="#eb996e"/>
              <path id="Trazado_611263" data-name="Trazado 611263" d="M179.246,178.028c-.067.16-1.538-.348-3.025-1.524s-2.332-2.481-2.19-2.585c.149-.12,1.177.95,2.6,2.064s2.7,1.872,2.614,2.045" transform="translate(47.589 47.56)" fill="#eb996e"/>
              <path id="Trazado_611264" data-name="Trazado 611264" d="M54.872,343.424l-37.96,16.905L21.474,380.6S69.212,366.368,84.868,363.2c15.614-3.154,40.919-7.189,48.067-22.333Z" transform="translate(4.625 93.219)" fill="#ffbe9d"/>
              <path id="Trazado_611265" data-name="Trazado 611265" d="M27.7,377.124l-1.324.358s-3.049,24.884-7.25,26.258l-11.647-44.7L22.3,354.911a28.5,28.5,0,0,0,5.4,22.213" transform="translate(2.044 97.058)" fill="#eaa950"/>
              <path id="Trazado_611266" data-name="Trazado 611266" d="M7.474,358.322l3.615-.786,9.84,43.131s-.348,2.215-1.808,2.356Z" transform="translate(2.044 97.776)" fill="#263238"/>
              <path id="Trazado_611267" data-name="Trazado 611267" d="M130.06,341.329a5.454,5.454,0,0,1-.4,1.065,12.19,12.19,0,0,1-1.82,2.716,42.236,42.236,0,0,1-9.364,7.468,43.508,43.508,0,0,1-7.517,3.521,83.072,83.072,0,0,1-9.155,2.56c-6.473,1.634-13.575,3.5-21.026,5.463L42.6,374.2l-11.6,2.953-3.165.755a7.392,7.392,0,0,1-1.114.22,7.246,7.246,0,0,1,1.081-.349l3.133-.876,11.54-3.157c9.748-2.651,23.215-6.325,38.124-10.267,7.454-1.968,14.562-3.813,21.048-5.416a84.705,84.705,0,0,0,9.116-2.485,44.224,44.224,0,0,0,16.875-10.641,14.513,14.513,0,0,0,2.417-3.61" transform="translate(7.309 93.344)" fill="#eb996e"/>
              <path id="Trazado_611268" data-name="Trazado 611268" d="M64.46,214.492l.856,7.477s-13.144,24.847-13.144,38.18-6.066,119.464-6.066,119.464,71.309,4.059,78.846-2.9l7.535-6.957L158,362.8,118.2,217.588v-7.78Z" transform="translate(12.609 57.377)" fill="#263238"/>
              <path id="Trazado_611269" data-name="Trazado 611269" d="M98.829,241.733a1.049,1.049,0,0,1,.07.293c.038.236.085.521.141.87q.176,1.234.478,3.352c.416,2.97,1,7.166,1.726,12.326,1.487,10.4,3.7,24.75,6.558,40.526s5.827,29.994,8.088,40.256c1.135,5.086,2.057,9.22,2.71,12.146q.46,2.088.728,3.306c.07.346.127.629.174.863a1.019,1.019,0,0,1,.036.3,1.1,1.1,0,0,1-.1-.284c-.065-.229-.143-.507-.238-.848q-.311-1.2-.849-3.277c-.73-2.848-1.731-6.982-2.918-12.1-2.378-10.241-5.415-24.449-8.283-40.24s-5-30.157-6.369-40.58c-.686-5.212-1.2-9.435-1.518-12.358q-.223-2.128-.354-3.367c-.031-.353-.056-.641-.075-.877a1.01,1.01,0,0,1,0-.3" transform="translate(27.025 66.107)" fill="#455a64"/>
              <path id="Trazado_611270" data-name="Trazado 611270" d="M58.613,252.171a4.543,4.543,0,0,1,.3.84c.185.621.424,1.433.725,2.441l2.63,8.986c2.249,7.58,5.507,18,9.487,29.388S79.7,315.394,82.664,322.72c1.476,3.605,2.679,6.548,3.547,8.666l.956,2.36a4.4,4.4,0,0,1,.292.842,4.525,4.525,0,0,1-.414-.788c-.274-.588-.629-1.356-1.071-2.311-.922-2.011-2.2-4.944-3.744-8.588-3.081-7.287-7.111-17.454-11.1-28.854s-7.176-21.858-9.31-29.476c-1.07-3.809-1.9-6.9-2.43-9.049-.25-1.023-.451-1.844-.6-2.474a4.5,4.5,0,0,1-.167-.875" transform="translate(16.028 68.962)" fill="#455a64"/>
              <path id="Trazado_611271" data-name="Trazado 611271" d="M116.375,218.684a13.381,13.381,0,0,1-2.139.261c-1.379.129-3.38.274-5.853.423-4.947.3-11.791.567-19.354.6s-14.413-.183-19.362-.442c-2.474-.129-4.476-.259-5.857-.376a13.352,13.352,0,0,1-2.141-.243,13.353,13.353,0,0,1,2.155-.014l5.861.164c4.95.139,11.787.276,19.341.247s14.386-.225,19.334-.4l5.861-.211a13.358,13.358,0,0,1,2.155,0" transform="translate(16.865 59.795)" fill="#455a64"/>
              <path id="Trazado_611272" data-name="Trazado 611272" d="M85.326,142.851c-.344-.811,25.295,19.636,28.517,29.594s3.768,38.684,3.768,38.684l1.8,18.444-51.188,3.613-1.373-3.613L63.07,219.3,57.8,203.773s-12.616-19.595-15.121-28.038c-3.111-10.479,2.045-21.215,2.045-21.215L56.3,141.453Z" transform="translate(11.398 38.683)" fill="#eaa950"/>
              <path id="Trazado_611273" data-name="Trazado 611273" d="M53.52,143.962s-2.837-5.27-1.088-7.563c1.392-1.824,26.036.462,31.066,1.528,2.953.625-.055,7.212-.055,7.212Z" transform="translate(14.183 37.114)" fill="#eaa950"/>
              <g id="Grupo_1074191" data-name="Grupo 1074191" transform="translate(69.897 205.906)" opacity="0.3">
                <g id="Grupo_1074190" data-name="Grupo 1074190">
                  <g id="Grupo_1074189" data-name="Grupo 1074189" clip-path="url(#clip-path-10)">
                    <path id="Trazado_611274" data-name="Trazado 611274" d="M67.456,161.689c2.148,5.557-.885,22.814-1.354,26.922a69.178,69.178,0,0,1-2.83,12.059c-.555,1.84-1.084,3.96-.041,5.575,1.678,2.6,6.007,1.866,8.1,4.146a20.214,20.214,0,0,1-12.6,1.461,3.374,3.374,0,0,1-2-.964,3.588,3.588,0,0,1-.615-1.613c-1.212-6.04-1.75-12.306-.591-18.357s6.935-20.583,11.8-24.369" transform="translate(-54.887 -161.689)"/>
                  </g>
                </g>
              </g>
              <path id="Trazado_611275" data-name="Trazado 611275" d="M66.864,167.674c.162.046-.615,2.856-2.46,5.911-1.83,3.065-3.945,5.071-4.062,4.95-.146-.132,1.706-2.3,3.493-5.293,1.8-2.984,2.844-5.636,3.03-5.569" transform="translate(16.5 45.854)" fill="#263238"/>
              <path id="Trazado_611276" data-name="Trazado 611276" d="M83.241,142.954a4.321,4.321,0,0,1-1.172.323c-.762.172-1.875.363-3.258.549a60.954,60.954,0,0,1-21.687-1.091c-1.358-.323-2.446-.625-3.186-.872a4.381,4.381,0,0,1-1.133-.439c.029-.1,1.7.326,4.418.853a75.436,75.436,0,0,0,21.538,1.084c2.76-.251,4.461-.511,4.48-.406" transform="translate(14.441 38.671)" fill="#263238"/>
              <path id="Trazado_611277" data-name="Trazado 611277" d="M91.792,186.708c-.113-.037.335-1.41.68-3.689a27.709,27.709,0,0,0-3.083-17.385c-1.108-2.022-2-3.158-1.908-3.231.036-.028.287.232.709.732a17.661,17.661,0,0,1,1.6,2.264,25.075,25.075,0,0,1,3.139,17.7,17.46,17.46,0,0,1-.728,2.677,3.021,3.021,0,0,1-.414.932" transform="translate(23.922 44.412)" fill="#263238"/>
              <g id="Grupo_1074194" data-name="Grupo 1074194" transform="translate(69.081 180.693)" opacity="0.3">
                <g id="Grupo_1074193" data-name="Grupo 1074193">
                  <g id="Grupo_1074192" data-name="Grupo 1074192" clip-path="url(#clip-path-11)">
                    <path id="Trazado_611278" data-name="Trazado 611278" d="M66.955,143.692a88.8,88.8,0,0,1-12.709-1.8,33.73,33.73,0,0,0,19.591,3.927c2.464-.312,5.058-1.006,6.69-2.878-3.769,1.473-9.538,1.108-13.571.754" transform="translate(-54.246 -141.89)"/>
                  </g>
                </g>
              </g>
              <g id="Grupo_1074197" data-name="Grupo 1074197" transform="translate(110.685 218.674)" opacity="0.3">
                <g id="Grupo_1074196" data-name="Grupo 1074196">
                  <g id="Grupo_1074195" data-name="Grupo 1074195" clip-path="url(#clip-path-12)">
                    <path id="Trazado_611279" data-name="Trazado 611279" d="M86.916,190.019a22.519,22.519,0,0,0,5.976-18.3,25.416,25.416,0,0,1,.946,6.649,11.237,11.237,0,0,1-1.787,7.359c-1.57,2.151-2.479,3.452-5.136,4.3" transform="translate(-86.915 -171.715)"/>
                  </g>
                </g>
              </g>
              <path id="Trazado_611280" data-name="Trazado 611280" d="M64.579,153.543a12.746,12.746,0,0,0-18.186,1.708c-.183.239-.359.483-.526.732-2.656,3.985-9.989,66.07-7.066,73.509s7.172,6.907,7.172,6.907,19.2-.218,33.016-3.405,29.217-8.42,29.217-8.42l-2.553-15.037s-33.825,4.479-43.121,3.417l3.549-30.225s8.081-9.85,5.762-18.882c-1.1-4.289-4.255-7.8-7.264-10.3" transform="translate(10.426 41.162)" fill="#ffbe9d"/>
              <path id="Trazado_611281" data-name="Trazado 611281" d="M99.522,191.692l7.591-5.1,5.466-4.609a6.2,6.2,0,0,1-1.028,4.857c-1.7,2.571-4.549,6.418-4.549,6.418Z" transform="translate(27.217 49.766)" fill="#ffbe9d"/>
              <path id="Trazado_611282" data-name="Trazado 611282" d="M111.986,188.726c-.065-.052.427-.585.959-1.684a7.391,7.391,0,0,0,.494-4.871l.453.136c-1.615,1.38-3.46,2.958-5.434,4.644l-.013.011-.015.01-.406.274-4.791,3.189a45.913,45.913,0,0,1-4,2.471,28.083,28.083,0,0,1-3.851,1.993,27.81,27.81,0,0,1,3.605-2.392c1.154-.671,2.462-1.577,3.911-2.586,1.478-1,3.077-2.087,4.753-3.226l.4-.273-.028.022,5.5-4.572.359-.3.1.434a7.341,7.341,0,0,1-.744,5.184,5.922,5.922,0,0,1-.861,1.189c-.234.245-.368.363-.391.343" transform="translate(26.085 49.656)" fill="#eb996e"/>
              <path id="Trazado_611283" data-name="Trazado 611283" d="M97.369,205.89c.259-.513,20.225-22.767,25.146-28.248a2.13,2.13,0,0,1,3.167,2.849l-25.571,28.437Z" transform="translate(26.628 48.387)" fill="#263238"/>
              <path id="Trazado_611284" data-name="Trazado 611284" d="M121.074,192.888c.819-1.11-.406-3.284-1.536-3.88s-5.647,1.9-5.647,1.9l-1.638.146s-8.77-1.776-9.062-1.63a28.2,28.2,0,0,0-6.336,3.817,11.992,11.992,0,0,0-2.309,2.71c-.67,1.026-2.311,2.714-6.131,3.626l3.721,15.114s8.154-1.92,8.772-1.924,7.443-.557,8.353-.708a22.712,22.712,0,0,0,7.685-3.526c2.923-2.174,1.559-4.022,1.559-4.022,3.026-2.053.669-4.094.669-4.094l.846-1.444c1.252-2.31-1.28-3.578-1.28-3.578a22.39,22.39,0,0,0,2.333-2.5" transform="translate(24.18 51.663)" fill="#ffbe9d"/>
              <path id="Trazado_611285" data-name="Trazado 611285" d="M109.3,196.253c-.052-.166.9-.6,1.988-1.273s1.906-1.322,2.032-1.2c.12.108-.549,1.01-1.712,1.722s-2.266.907-2.309.75" transform="translate(29.89 52.99)" fill="#eb996e"/>
              <path id="Trazado_611286" data-name="Trazado 611286" d="M111.316,199.267c-.107-.131.2-.564.7-.967s.975-.625,1.082-.494-.2.563-.694.967-.977.624-1.084.494" transform="translate(30.436 54.084)" fill="#eb996e"/>
              <path id="Trazado_611287" data-name="Trazado 611287" d="M110.6,201.772c-.017-.172.492-.355,1.086-.585s1.1-.424,1.2-.285-.3.6-.982.857-1.293.178-1.3.013" transform="translate(30.247 54.929)" fill="#eb996e"/>
              <path id="Trazado_611288" data-name="Trazado 611288" d="M110.41,190.508c.015.192-2.063.46-4.619.653a30.971,30.971,0,0,1-4.643.25c-.051-.2,2.015-.735,4.591-.912,2.572-.194,4.657-.163,4.671.009" transform="translate(27.661 52.06)" fill="#eb996e"/>
              <path id="Trazado_611289" data-name="Trazado 611289" d="M59.206,199.329c.138.121-1.382,2.073-3.393,4.359s-3.753,4.043-3.89,3.922,1.382-2.073,3.393-4.36,3.753-4.042,3.89-3.921" transform="translate(14.197 54.509)" fill="#eb996e"/>
              <path id="Trazado_611290" data-name="Trazado 611290" d="M70.277,171.677c-.064-.014.092-.677.208-1.891a16.414,16.414,0,0,0-.245-5.105,18.736,18.736,0,0,0-10.384-12.526,12.144,12.144,0,0,0-8.964-.585,10.039,10.039,0,0,0-5.827,4.453,16.79,16.79,0,0,0-1.822,4.773,14.878,14.878,0,0,1-.444,1.852,1.4,1.4,0,0,1,.009-.5,13.594,13.594,0,0,1,.182-1.406,15.494,15.494,0,0,1,1.671-4.96A9.785,9.785,0,0,1,47,152.975a11.673,11.673,0,0,1,3.7-1.984,12.616,12.616,0,0,1,9.419.555,17.906,17.906,0,0,1,7.37,5.978,17.633,17.633,0,0,1,3.21,7.064,15.149,15.149,0,0,1,.041,5.231,11.288,11.288,0,0,1-.3,1.389c-.085.313-.14.474-.163.469" transform="translate(11.7 41.108)" fill="#263238"/>
            </g>
          </g>
          <g id="Grupo_1074201" data-name="Grupo 1074201">
            <g id="Grupo_1074200" data-name="Grupo 1074200" clip-path="url(#clip-path-3)">
              <path id="Trazado_611291" data-name="Trazado 611291" d="M150.6,119.83H98.38a3.882,3.882,0,0,0-3.882,3.882v50.6A3.882,3.882,0,0,0,98.38,178.2h19.226l7.51,10.642,6.516-10.642H150.6a3.882,3.882,0,0,0,3.882-3.883v-50.6a3.881,3.881,0,0,0-3.882-3.882" transform="translate(25.843 32.77)" fill="#fafafa"/>
              <path id="Trazado_611292" data-name="Trazado 611292" d="M150.669,119.889a3.092,3.092,0,0,1,1.535.257,3.94,3.94,0,0,1,2.449,3.587c.022,3.964.053,9.7.093,16.913.02,7.245.045,15.971.071,25.867q.008,3.713.014,7.642a4.219,4.219,0,0,1-1.8,3.654,4.174,4.174,0,0,1-2.027.72c-.725.034-1.375.011-2.073.02l-17.224.02.267-.15-6.509,10.647-.256.419-.284-.4c-2.388-3.381-4.93-6.98-7.515-10.639l.27.139-13.481,0c-2.1-.015-4.118.033-6.253-.034a4.2,4.2,0,0,1-2.825-1.61,4.516,4.516,0,0,1-.879-3.077q0-6.09.005-11.991c.006-7.861.013-15.445.019-22.669q.008-5.417.014-10.556.008-2.573.017-5.07a4.161,4.161,0,0,1,3.078-3.82,10.046,10.046,0,0,1,2.448-.141l2.346,0,4.562.01,8.576.022,25.876.106,7.036.062,1.83.032c.411.011.623.034.623.034s-.211.023-.623.034l-1.83.032-7.036.062-25.876.106-8.576.022-4.562.01-2.346,0a9.732,9.732,0,0,0-2.3.132,3.6,3.6,0,0,0-2.654,3.315v5.044q.006,5.135.014,10.556c.006,7.224.013,14.808.019,22.669q0,5.895.005,11.991a3.842,3.842,0,0,0,.742,2.673,3.544,3.544,0,0,0,2.38,1.356c1.976.057,4.108.015,6.174.028l13.481,0h.171l.1.14,7.5,10.645-.54.018,6.525-10.637.093-.15h.174l17.224.02c.677-.005,1.394.018,2.027-.011a3.6,3.6,0,0,0,1.748-.614,3.648,3.648,0,0,0,1.566-3.181q.008-3.925.014-7.642c.028-9.9.052-18.622.073-25.867.037-7.212.068-12.947.088-16.912a3.826,3.826,0,0,0-.823-2.357,3.975,3.975,0,0,0-1.459-1.133,5.006,5.006,0,0,0-1.494-.355" transform="translate(25.769 32.711)" fill="#263238"/>
              <path id="Trazado_611293" data-name="Trazado 611293" d="M130.281,152.566a2.15,2.15,0,0,1-.357.023l-1.025.023-3.8.042-12.746.057h-.1l-.015-.1c-.1-.674-.2-1.388-.3-2.111-.855-6.181-1.617-11.7-2.117-15.3l.075.065-3.4-.031-.9-.018a1.585,1.585,0,0,1-.311-.022,1.89,1.89,0,0,1,.311-.022l.9-.02,3.4-.041h.066l.01.066c.518,3.6,1.313,9.115,2.2,15.293.1.723.2,1.438.3,2.111l-.118-.1,12.747.02,3.8.032,1.025.02a2.094,2.094,0,0,1,.357.022" transform="translate(28.793 36.947)" fill="#263238"/>
              <path id="Trazado_611294" data-name="Trazado 611294" d="M112.269,152.99a.231.231,0,0,1-.2-.2l-2.393-17.257-4.036-.047c-.362-.011-.527-.017-.537-.241,0-.246.181-.251.535-.264l.905-.022,3.463-.041a.231.231,0,0,1,.232.2l2.469,17.172,17.27.071c.418.013.574.017.582.246v.013c-.005.23-.162.236-.579.248l-1.029.023-3.8.043-12.853.057-.033,0" transform="translate(28.744 36.897)" fill="#263238"/>
              <path id="Trazado_611295" data-name="Trazado 611295" d="M110.755,148.287a.315.315,0,0,1,.09-.01l.264-.01,1.025-.02,3.837-.039,13.229-.061-.113.1c.388-2.227.809-4.637,1.244-7.129.225-1.282.446-2.542.657-3.743l.117.14-15.591-.018-4.618-.029-1.243-.019-.322-.01a.055.055,0,1,1,0-.023l.322-.011,1.243-.023,4.616-.042,15.592-.062h.141l-.024.141-.655,3.743c-.438,2.492-.862,4.9-1.254,7.126l-.017.1h-.1l-13.229-.024-3.837-.028-1.025-.018-.264-.009a.315.315,0,0,1-.09-.01" transform="translate(29.869 37.54)" fill="#263238"/>
              <path id="Trazado_611296" data-name="Trazado 611296" d="M110.812,148.571c-.1-.014-.241-.061-.239-.237,0-.222.233-.234.308-.238l1.3-.032,3.838-.038,12.94-.061,1.78-10.175-21.365-.076c-.1-.006-.339-.017-.332-.248s.222-.23.327-.236l1.574-.034,7.873-.056,12.481-.05a.23.23,0,0,1,.228.271l-1.95,11.1a.232.232,0,0,1-.228.192l-18.46-.08c-.019,0-.045,0-.074-.006" transform="translate(29.82 37.49)" fill="#263238"/>
              <path id="Trazado_611297" data-name="Trazado 611297" d="M115.158,153.059c-.022,0-.023-.159-.1-.427a1.8,1.8,0,0,0-.66-.93,1.716,1.716,0,0,0-1.606-.22,1.689,1.689,0,1,0,1.61,2.934,1.789,1.789,0,0,0,.657-.931c.078-.267.079-.428.1-.427a.918.918,0,0,1-.01.45,1.779,1.779,0,0,1-.644,1.044,1.87,1.87,0,0,1-1.784.3,1.9,1.9,0,0,1-.005-3.576,1.867,1.867,0,0,1,1.785.293,1.78,1.78,0,0,1,.647,1.042.911.911,0,0,1,.011.45" transform="translate(30.479 41.34)" fill="#263238"/>
              <path id="Trazado_611298" data-name="Trazado 611298" d="M113.1,155.219a2.283,2.283,0,0,1-.409-.1,2.127,2.127,0,0,1,0-4.013,2.1,2.1,0,0,1,2.006.334,2.021,2.021,0,0,1,.726,1.179,1.532,1.532,0,0,1,.024.49,1.557,1.557,0,0,1-.022.493,2.029,2.029,0,0,1-.727,1.182,2.1,2.1,0,0,1-1.6.437m.542-3.55a1.456,1.456,0,0,0-.722,2.805,1.485,1.485,0,0,0,1.389-.192,1.563,1.563,0,0,0,.576-.812,2.6,2.6,0,0,0,.069-.307c0-.015.005-.033.01-.055s-.008-.038-.01-.051a2.852,2.852,0,0,0-.07-.309,1.571,1.571,0,0,0-.574-.809,1.489,1.489,0,0,0-.667-.27" transform="translate(30.43 41.289)" fill="#263238"/>
              <path id="Trazado_611299" data-name="Trazado 611299" d="M124.218,153.045c-.022,0-.023-.159-.1-.427a1.8,1.8,0,0,0-.66-.93,1.716,1.716,0,0,0-1.606-.22,1.69,1.69,0,1,0,1.61,2.935,1.8,1.8,0,0,0,.657-.932c.078-.267.079-.428.1-.427a.918.918,0,0,1-.01.45,1.786,1.786,0,0,1-.644,1.044,1.87,1.87,0,0,1-1.784.3,1.9,1.9,0,0,1-.005-3.576,1.87,1.87,0,0,1,1.785.293,1.784,1.784,0,0,1,.647,1.042.911.911,0,0,1,.011.45" transform="translate(32.957 41.336)" fill="#263238"/>
              <path id="Trazado_611300" data-name="Trazado 611300" d="M122.16,155.2a2.058,2.058,0,0,1-.409-.1,2.127,2.127,0,0,1,0-4.013,2.093,2.093,0,0,1,2,.334,2.019,2.019,0,0,1,.727,1.178,5.432,5.432,0,0,1,0,.983,2.017,2.017,0,0,1-.727,1.183,2.1,2.1,0,0,1-1.6.436m.541-3.549a1.456,1.456,0,0,0-.721,2.8,1.481,1.481,0,0,0,1.389-.19,1.566,1.566,0,0,0,.574-.814,2.493,2.493,0,0,0,.069-.307l.01-.053-.01-.053a2.555,2.555,0,0,0-.069-.308,1.566,1.566,0,0,0-.574-.809,1.472,1.472,0,0,0-.669-.27" transform="translate(32.907 41.286)" fill="#263238"/>
              <path id="Trazado_611301" data-name="Trazado 611301" d="M134.146,140.105a6.011,6.011,0,1,1-6.012-6.012,6.012,6.012,0,0,1,6.012,6.012" transform="translate(33.397 36.671)" fill="#eaa950"/>
              <path id="Trazado_611302" data-name="Trazado 611302" d="M124.144,139.481l.9-.9,1.736,1.542,3.405-3.278.835.9-4.369,4.112Z" transform="translate(33.95 37.424)" fill="#fff"/>
            </g>
          </g>
        </g>
      </g>
    </g>
    <path id="Trazado_875195" data-name="Trazado 875195" d="M33,0H262a33,33,0,0,1,0,66H33A33,33,0,0,1,33,0Z" transform="translate(915 1562)" fill="#ffac47"/>
    <path id="Trazado_875196" data-name="Trazado 875196" d="M33,0H262a33,33,0,0,1,0,66H33A33,33,0,0,1,33,0Z" transform="translate(915 1697)" fill="#8ad0ce"/>
    <path id="Trazado_875197" data-name="Trazado 875197" d="M33,0H262a33,33,0,0,1,0,66H33A33,33,0,0,1,33,0Z" transform="translate(915 1832)" fill="#ffac47"/>
    <path id="Trazado_875198" data-name="Trazado 875198" d="M5.871-3.173l2.9-9.624h2.936L7.251,0H4.5L.062-12.8H2.988ZM16.734.176a4.668,4.668,0,0,1-3.406-1.283,4.561,4.561,0,0,1-1.314-3.419v-.246a5.745,5.745,0,0,1,.554-2.562,4.064,4.064,0,0,1,1.569-1.74,4.4,4.4,0,0,1,2.316-.611,3.947,3.947,0,0,1,3.072,1.23,5,5,0,0,1,1.121,3.489v1.037H14.59a2.36,2.36,0,0,0,.743,1.494,2.245,2.245,0,0,0,1.569.563A2.742,2.742,0,0,0,19.2-2.936l1.248,1.4A3.813,3.813,0,0,1,18.9-.277,5.075,5.075,0,0,1,16.734.176Zm-.29-7.813a1.587,1.587,0,0,0-1.226.512,2.651,2.651,0,0,0-.6,1.466h3.533v-.2a1.891,1.891,0,0,0-.457-1.311A1.638,1.638,0,0,0,16.444-7.638Zm7.98-1.872.079,1.1a3.32,3.32,0,0,1,2.733-1.274,2.759,2.759,0,0,1,2.25.888,4.142,4.142,0,0,1,.756,2.654V0H27.7V-6.082a1.648,1.648,0,0,0-.352-1.173,1.574,1.574,0,0,0-1.169-.365,1.747,1.747,0,0,0-1.608.914V0h-2.54V-9.51Zm7.348,4.685a5.731,5.731,0,0,1,1-3.542A3.237,3.237,0,0,1,35.5-9.686a2.913,2.913,0,0,1,2.294,1.037V-13.5h2.549V0H38.048l-.123-1.011A2.989,2.989,0,0,1,35.481.176a3.228,3.228,0,0,1-2.694-1.323A5.916,5.916,0,0,1,31.772-4.825Zm2.54.189a3.754,3.754,0,0,0,.466,2.051,1.517,1.517,0,0,0,1.354.713,1.7,1.7,0,0,0,1.661-.995V-6.625a1.675,1.675,0,0,0-1.644-.995Q34.313-7.62,34.313-4.636ZM46.688.176a4.668,4.668,0,0,1-3.406-1.283,4.561,4.561,0,0,1-1.314-3.419v-.246a5.745,5.745,0,0,1,.554-2.562,4.064,4.064,0,0,1,1.569-1.74,4.4,4.4,0,0,1,2.316-.611,3.947,3.947,0,0,1,3.072,1.23A5,5,0,0,1,50.6-4.966v1.037H44.543a2.36,2.36,0,0,0,.743,1.494,2.245,2.245,0,0,0,1.569.563,2.742,2.742,0,0,0,2.294-1.063l1.248,1.4A3.813,3.813,0,0,1,48.85-.277,5.075,5.075,0,0,1,46.688.176ZM46.4-7.638a1.587,1.587,0,0,0-1.226.512,2.651,2.651,0,0,0-.6,1.466H48.1v-.2a1.891,1.891,0,0,0-.457-1.311A1.638,1.638,0,0,0,46.4-7.638Zm5.247,2.813a5.731,5.731,0,0,1,1-3.542,3.237,3.237,0,0,1,2.729-1.318,2.913,2.913,0,0,1,2.294,1.037V-13.5h2.549V0H57.92L57.8-1.011A2.989,2.989,0,0,1,55.354.176,3.228,3.228,0,0,1,52.66-1.147,5.916,5.916,0,0,1,51.645-4.825Zm2.54.189a3.754,3.754,0,0,0,.466,2.051A1.517,1.517,0,0,0,56-1.872a1.7,1.7,0,0,0,1.661-.995V-6.625a1.675,1.675,0,0,0-1.644-.995Q54.185-7.62,54.185-4.636Zm7.6-.207a5.64,5.64,0,0,1,.545-2.522A3.989,3.989,0,0,1,63.9-9.079a4.577,4.577,0,0,1,2.377-.606A4.33,4.33,0,0,1,69.42-8.508a4.727,4.727,0,0,1,1.358,3.2l.018.65a4.97,4.97,0,0,1-1.222,3.511A4.247,4.247,0,0,1,66.3.176a4.268,4.268,0,0,1-3.283-1.318,5.058,5.058,0,0,1-1.226-3.586Zm2.54.18a3.555,3.555,0,0,0,.51,2.073,1.682,1.682,0,0,0,1.459.717,1.686,1.686,0,0,0,1.441-.709,3.89,3.89,0,0,0,.519-2.267,3.519,3.519,0,0,0-.519-2.06,1.686,1.686,0,0,0-1.459-.731,1.658,1.658,0,0,0-1.441.726A3.955,3.955,0,0,0,64.327-4.662ZM77.7-7.128a6.9,6.9,0,0,0-.914-.07,1.86,1.86,0,0,0-1.89.976V0H72.36V-9.51h2.4l.07,1.134a2.354,2.354,0,0,1,2.118-1.31,2.662,2.662,0,0,1,.791.114Z" transform="translate(1020 1601)" fill="#12263f"/>
    <path id="Trazado_875199" data-name="Trazado 875199" d="M11.654-6.108a7.725,7.725,0,0,1-.668,3.313A5.03,5.03,0,0,1,9.075-.6,5.288,5.288,0,0,1,6.223.176,5.324,5.324,0,0,1,3.384-.589,5.08,5.08,0,0,1,1.45-2.773,7.5,7.5,0,0,1,.756-6.038v-.633A7.685,7.685,0,0,1,1.437-10,5.072,5.072,0,0,1,3.362-12.2a5.3,5.3,0,0,1,2.843-.769,5.3,5.3,0,0,1,2.843.769A5.072,5.072,0,0,1,10.973-10a7.663,7.663,0,0,1,.681,3.318Zm-2.672-.58a5.385,5.385,0,0,0-.721-3.059,2.349,2.349,0,0,0-2.057-1.046A2.349,2.349,0,0,0,4.157-9.76a5.324,5.324,0,0,0-.729,3.028v.624a5.453,5.453,0,0,0,.721,3.041A2.342,2.342,0,0,0,6.223-1.986,2.321,2.321,0,0,0,8.262-3.028a5.421,5.421,0,0,0,.721-3.037Zm12.99,2.021A5.758,5.758,0,0,1,21-1.1,3.231,3.231,0,0,1,18.272.176,2.969,2.969,0,0,1,15.8-1.011L15.688,0H13.4V-13.5h2.54v4.843a2.893,2.893,0,0,1,2.312-1.028,3.258,3.258,0,0,1,2.729,1.279,5.767,5.767,0,0,1,.989,3.6Zm-2.54-.185a3.783,3.783,0,0,0-.457-2.1,1.545,1.545,0,0,0-1.362-.664,1.676,1.676,0,0,0-1.67.993v3.753a1.7,1.7,0,0,0,1.688,1,1.568,1.568,0,0,0,1.617-1.213A6.257,6.257,0,0,0,19.433-4.852ZM26.227-9.51V.519a3.4,3.4,0,0,1-.835,2.448,3.174,3.174,0,0,1-2.408.875,5.165,5.165,0,0,1-1.257-.149V1.679a4.768,4.768,0,0,0,.8.079q1.151,0,1.151-1.222V-9.51Zm-2.751-2.461a1.251,1.251,0,0,1,.382-.94A1.436,1.436,0,0,1,24.9-13.28a1.436,1.436,0,0,1,1.042.369,1.251,1.251,0,0,1,.382.94,1.247,1.247,0,0,1-.391.949,1.443,1.443,0,0,1-1.033.369,1.443,1.443,0,0,1-1.033-.369A1.247,1.247,0,0,1,23.476-11.971ZM32.59.176a4.668,4.668,0,0,1-3.406-1.283A4.561,4.561,0,0,1,27.87-4.526v-.246a5.745,5.745,0,0,1,.554-2.562,4.064,4.064,0,0,1,1.569-1.74,4.4,4.4,0,0,1,2.316-.611,3.947,3.947,0,0,1,3.072,1.23A5,5,0,0,1,36.5-4.966v1.037H30.445a2.36,2.36,0,0,0,.743,1.494,2.245,2.245,0,0,0,1.569.563,2.742,2.742,0,0,0,2.294-1.063l1.248,1.4A3.813,3.813,0,0,1,34.752-.277,5.075,5.075,0,0,1,32.59.176ZM32.3-7.638a1.587,1.587,0,0,0-1.226.512,2.651,2.651,0,0,0-.6,1.466H34v-.2a1.891,1.891,0,0,0-.457-1.311A1.638,1.638,0,0,0,32.3-7.638Zm8.684-4.21V-9.51h1.626v1.863H40.983V-2.9a1.133,1.133,0,0,0,.2.756,1.015,1.015,0,0,0,.773.229,4.051,4.051,0,0,0,.747-.062V-.053a5.229,5.229,0,0,1-1.538.229,2.425,2.425,0,0,1-2.725-2.7V-7.646H37.055V-9.51h1.389v-2.338Zm2.382,7a5.64,5.64,0,0,1,.545-2.522,3.989,3.989,0,0,1,1.569-1.714,4.577,4.577,0,0,1,2.377-.606A4.33,4.33,0,0,1,51-8.508a4.727,4.727,0,0,1,1.358,3.2l.018.65a4.97,4.97,0,0,1-1.222,3.511A4.247,4.247,0,0,1,47.874.176a4.268,4.268,0,0,1-3.283-1.318,5.058,5.058,0,0,1-1.226-3.586Zm2.54.18a3.555,3.555,0,0,0,.51,2.073,1.682,1.682,0,0,0,1.459.717,1.686,1.686,0,0,0,1.441-.709,3.89,3.89,0,0,0,.519-2.267,3.519,3.519,0,0,0-.519-2.06,1.686,1.686,0,0,0-1.459-.731,1.658,1.658,0,0,0-1.441.726A3.955,3.955,0,0,0,45.905-4.662Z" transform="translate(1039 1736)" fill="#12263f"/>
    <path id="Trazado_875200" data-name="Trazado 875200" d="M11.188-4.263A4.528,4.528,0,0,1,9.664-1.011,5.355,5.355,0,0,1,6.038.176,4.816,4.816,0,0,1,2.167-1.481,6.793,6.793,0,0,1,.756-6.029v-.782a7.671,7.671,0,0,1,.65-3.252,4.874,4.874,0,0,1,1.859-2.158,5.207,5.207,0,0,1,2.808-.751,5.217,5.217,0,0,1,3.568,1.187,4.866,4.866,0,0,1,1.564,3.331H8.569a2.673,2.673,0,0,0-.69-1.8,2.555,2.555,0,0,0-1.806-.558A2.24,2.24,0,0,0,4.1-9.866a5.3,5.3,0,0,0-.672,2.931v.967a5.667,5.667,0,0,0,.628,3.032,2.2,2.2,0,0,0,1.982.958,2.6,2.6,0,0,0,1.824-.558,2.521,2.521,0,0,0,.69-1.727Zm1.169-.58A5.64,5.64,0,0,1,12.9-7.365a3.989,3.989,0,0,1,1.569-1.714,4.577,4.577,0,0,1,2.377-.606,4.33,4.33,0,0,1,3.142,1.178,4.727,4.727,0,0,1,1.358,3.2l.018.65a4.97,4.97,0,0,1-1.222,3.511A4.247,4.247,0,0,1,16.866.176a4.268,4.268,0,0,1-3.283-1.318,5.058,5.058,0,0,1-1.226-3.586Zm2.54.18a3.555,3.555,0,0,0,.51,2.073,1.682,1.682,0,0,0,1.459.717,1.686,1.686,0,0,0,1.441-.709,3.89,3.89,0,0,0,.519-2.267,3.519,3.519,0,0,0-.519-2.06,1.686,1.686,0,0,0-1.459-.731,1.658,1.658,0,0,0-1.441.726A3.955,3.955,0,0,0,14.9-4.662ZM25.313-9.51l.079,1.063a3.342,3.342,0,0,1,2.733-1.239,2.536,2.536,0,0,1,2.522,1.45A3.265,3.265,0,0,1,33.5-9.686a2.836,2.836,0,0,1,2.3.9,4.141,4.141,0,0,1,.756,2.711V0H34.014V-6.064A1.811,1.811,0,0,0,33.7-7.247a1.4,1.4,0,0,0-1.116-.374A1.585,1.585,0,0,0,31-6.53L31.008,0h-2.54V-6.056a1.789,1.789,0,0,0-.325-1.2,1.416,1.416,0,0,0-1.107-.369,1.646,1.646,0,0,0-1.564.9V0h-2.54V-9.51ZM47.074-4.667a5.7,5.7,0,0,1-1,3.52A3.2,3.2,0,0,1,43.383.176a2.963,2.963,0,0,1-2.329-1V3.656h-2.54V-9.51h2.355l.088.932a2.985,2.985,0,0,1,2.408-1.107,3.22,3.22,0,0,1,2.733,1.3A5.858,5.858,0,0,1,47.074-4.8Zm-2.54-.185a3.743,3.743,0,0,0-.47-2.048A1.532,1.532,0,0,0,42.7-7.62a1.663,1.663,0,0,0-1.644.914v3.894a1.692,1.692,0,0,0,1.661.94Q44.534-1.872,44.534-4.852Zm9.457-2.276a6.9,6.9,0,0,0-.914-.07,1.86,1.86,0,0,0-1.89.976V0h-2.54V-9.51h2.4l.07,1.134a2.354,2.354,0,0,1,2.118-1.31,2.662,2.662,0,0,1,.791.114ZM60.46,0a2.821,2.821,0,0,1-.255-.853,3.073,3.073,0,0,1-2.4,1.028A3.376,3.376,0,0,1,55.49-.633a2.6,2.6,0,0,1-.918-2.039,2.687,2.687,0,0,1,1.121-2.32,5.529,5.529,0,0,1,3.239-.817H60.1v-.545a1.567,1.567,0,0,0-.338-1.055,1.331,1.331,0,0,0-1.068-.4,1.513,1.513,0,0,0-1.006.308,1.045,1.045,0,0,0-.365.844h-2.54a2.551,2.551,0,0,1,.51-1.529,3.37,3.37,0,0,1,1.441-1.1,5.253,5.253,0,0,1,2.092-.4,4.15,4.15,0,0,1,2.791.883,3.09,3.09,0,0,1,1.033,2.483V-2.2a4.546,4.546,0,0,0,.378,2.048V0Zm-2.1-1.767a2.188,2.188,0,0,0,1.037-.25,1.645,1.645,0,0,0,.7-.672V-4.324H59.15q-1.907,0-2.03,1.318l-.009.149a1.017,1.017,0,0,0,.334.782A1.3,1.3,0,0,0,58.359-1.767ZM64.2-4.825a5.731,5.731,0,0,1,1-3.542,3.237,3.237,0,0,1,2.729-1.318,2.913,2.913,0,0,1,2.294,1.037V-13.5h2.549V0H70.479l-.123-1.011A2.989,2.989,0,0,1,67.913.176a3.228,3.228,0,0,1-2.694-1.323A5.916,5.916,0,0,1,64.2-4.825Zm2.54.189a3.754,3.754,0,0,0,.466,2.051,1.517,1.517,0,0,0,1.354.713,1.7,1.7,0,0,0,1.661-.995V-6.625a1.675,1.675,0,0,0-1.644-.995Q66.744-7.62,66.744-4.636Zm7.6-.207a5.64,5.64,0,0,1,.545-2.522A3.989,3.989,0,0,1,76.46-9.079a4.577,4.577,0,0,1,2.377-.606A4.33,4.33,0,0,1,81.98-8.508a4.727,4.727,0,0,1,1.358,3.2l.018.65a4.97,4.97,0,0,1-1.222,3.511A4.247,4.247,0,0,1,78.855.176a4.268,4.268,0,0,1-3.283-1.318,5.058,5.058,0,0,1-1.226-3.586Zm2.54.18a3.555,3.555,0,0,0,.51,2.073,1.682,1.682,0,0,0,1.459.717A1.686,1.686,0,0,0,80.3-2.581a3.89,3.89,0,0,0,.519-2.267,3.519,3.519,0,0,0-.519-2.06,1.686,1.686,0,0,0-1.459-.731,1.658,1.658,0,0,0-1.441.726A3.955,3.955,0,0,0,76.887-4.662ZM90.264-7.128a6.9,6.9,0,0,0-.914-.07,1.86,1.86,0,0,0-1.89.976V0H84.92V-9.51h2.4l.07,1.134a2.354,2.354,0,0,1,2.118-1.31,2.662,2.662,0,0,1,.791.114Z" transform="translate(1020 1871)" fill="#12263f"/>
    <path id="Trazado_611303" data-name="Trazado 611303" d="M-7329-10105h-67.817v70.969h-72.729" transform="translate(8244 11700)" fill="none" stroke="#ffac47" stroke-linecap="round" stroke-linejoin="round" stroke-width="5"/>
    <path id="Trazado_875201" data-name="Trazado 875201" d="M7,0A7,7,0,1,1,0,7,7,7,0,0,1,7,0Z" transform="translate(771 1659)" fill="#ffac47"/>
    <path id="Trazado_875202" data-name="Trazado 875202" d="M7,0A7,7,0,1,1,0,7,7,7,0,0,1,7,0Z" transform="translate(512 1858)" fill="#ffac47"/>
    <path id="Trazado_875203" data-name="Trazado 875203" d="M7,0A7,7,0,1,1,0,7,7,7,0,0,1,7,0Z" transform="translate(902 1588)" fill="#ffac47"/>
    <path id="Trazado_875204" data-name="Trazado 875204" d="M7,0A7,7,0,1,1,0,7,7,7,0,0,1,7,0Z" transform="translate(902 1723)" fill="#8ad0ce"/>
    <path id="Trazado_875205" data-name="Trazado 875205" d="M7,0A7,7,0,1,1,0,7,7,7,0,0,1,7,0Z" transform="translate(657 1811)" fill="#8ad0ce"/>
    <path id="Trazado_875206" data-name="Trazado 875206" d="M7,0A7,7,0,1,1,0,7,7,7,0,0,1,7,0Z" transform="translate(902 1858)" fill="#ffac47"/>
    <path id="Trazado_611304" data-name="Trazado 611304" d="M-7335.313-9835h-392.025" transform="translate(8246 11700)" fill="none" stroke="#ffac47" stroke-width="5"/>
    <path id="Trazado_611305" data-name="Trazado 611305" d="M-7329-9970h-91.782v88.472H-7582.6" transform="translate(8244 11700)" fill="none" stroke="#8ad0ce" stroke-width="5"/>
  </g>
</svg>
