<svg xmlns="http://www.w3.org/2000/svg" xmlns:xlink="http://www.w3.org/1999/xlink" width="120" height="120" viewBox="0 0 120 120">
  <defs>
    <clipPath id="clip-path">
      <path id="Trazado_611025" data-name="Trazado 611025" d="M60.2,1.073a9.086,9.086,0,0,0-7.37,3.762A8.709,8.709,0,0,1,44.126,6.7a9.052,9.052,0,0,0-7.7-.5c-.129.048-.258.1-.385.152l-.1.042a9.132,9.132,0,0,0-5.208,6.448,8.743,8.743,0,0,1-7.2,5.262,9.061,9.061,0,0,0-7.6,3.07,9.166,9.166,0,0,0-2.151,7.986,8.774,8.774,0,0,1-4.423,7.764,9.134,9.134,0,0,0-5.728,5.933c-.009.028-.014.054-.022.078-.041.144-.08.286-.116.43A9.17,9.17,0,0,0,4.9,51.028a8.813,8.813,0,0,1-.9,8.9A9.3,9.3,0,0,0,5.664,74.658a8.81,8.81,0,0,1,2.754,8.505,9.174,9.174,0,0,0,.312,7.746c.063.134.132.259.2.385.015.028.027.055.041.078A9.093,9.093,0,0,0,15.9,95.9a8.774,8.774,0,0,1,5.958,6.646,9.221,9.221,0,0,0,11.966,8.589,8.71,8.71,0,0,1,8.146,3.606,9.108,9.108,0,0,0,6.471,5.105c.026.006.051.006.078.013.145.025.288.052.438.072a9.077,9.077,0,0,0,7.439-2.208,8.687,8.687,0,0,1,8.9-.034,9.21,9.21,0,0,0,14.407-3.2,8.712,8.712,0,0,1,8.129-3.639,9.056,9.056,0,0,0,7.636-1.123c.121-.075.24-.157.355-.239.026-.017.055-.034.079-.054a9.155,9.155,0,0,0,3.762-7.4,8.764,8.764,0,0,1,5.955-6.644,9.26,9.26,0,0,0,7.25-12.855A8.806,8.806,0,0,1,115.614,74a9.281,9.281,0,0,0,1.419-14.7,8.818,8.818,0,0,1-.951-8.922,9.273,9.273,0,0,0-4.654-14.013,8.79,8.79,0,0,1-4.484-7.763,9.166,9.166,0,0,0-2.249-7.915A9.056,9.056,0,0,0,97.02,17.7a8.745,8.745,0,0,1-7.225-5.234,9.134,9.134,0,0,0-5.272-6.342.731.731,0,0,0-.088-.034c-.129-.054-.264-.106-.4-.157a9.068,9.068,0,0,0-7.737.605,8.7,8.7,0,0,1-8.714-1.827,9.088,9.088,0,0,0-7.253-3.64H60.2" transform="translate(-1.105 -1.072)" fill="#b0dfde"/>
    </clipPath>
    <clipPath id="clip-path-2">
      <path id="Trazado_611025-2" data-name="Trazado 611025" d="M60.2,1.073a9.086,9.086,0,0,0-7.37,3.762A8.709,8.709,0,0,1,44.126,6.7a9.052,9.052,0,0,0-7.7-.5c-.129.048-.258.1-.385.152l-.1.042a9.132,9.132,0,0,0-5.208,6.448,8.743,8.743,0,0,1-7.2,5.262,9.061,9.061,0,0,0-7.6,3.07,9.166,9.166,0,0,0-2.151,7.986,8.774,8.774,0,0,1-4.423,7.764,9.134,9.134,0,0,0-5.728,5.933c-.009.028-.014.054-.022.078-.041.144-.08.286-.116.43A9.17,9.17,0,0,0,4.9,51.028a8.813,8.813,0,0,1-.9,8.9A9.3,9.3,0,0,0,5.664,74.658a8.81,8.81,0,0,1,2.754,8.505,9.174,9.174,0,0,0,.312,7.746c.063.134.132.259.2.385.015.028.027.055.041.078A9.093,9.093,0,0,0,15.9,95.9a8.774,8.774,0,0,1,5.958,6.646,9.221,9.221,0,0,0,11.966,8.589,8.71,8.71,0,0,1,8.146,3.606,9.108,9.108,0,0,0,6.471,5.105c.026.006.051.006.078.013.145.025.288.052.438.072a9.077,9.077,0,0,0,7.439-2.208,8.687,8.687,0,0,1,8.9-.034,9.21,9.21,0,0,0,14.407-3.2,8.712,8.712,0,0,1,8.129-3.639,9.056,9.056,0,0,0,7.636-1.123c.121-.075.24-.157.355-.239.026-.017.055-.034.079-.054a9.155,9.155,0,0,0,3.762-7.4,8.764,8.764,0,0,1,5.955-6.644,9.26,9.26,0,0,0,7.25-12.855A8.806,8.806,0,0,1,115.614,74a9.281,9.281,0,0,0,1.419-14.7,8.818,8.818,0,0,1-.951-8.922,9.273,9.273,0,0,0-4.654-14.013,8.79,8.79,0,0,1-4.484-7.763,9.166,9.166,0,0,0-2.249-7.915A9.056,9.056,0,0,0,97.02,17.7a8.745,8.745,0,0,1-7.225-5.234,9.134,9.134,0,0,0-5.272-6.342.731.731,0,0,0-.088-.034c-.129-.054-.264-.106-.4-.157a9.068,9.068,0,0,0-7.737.605,8.7,8.7,0,0,1-8.714-1.827,9.088,9.088,0,0,0-7.253-3.64H60.2" transform="translate(-1.105 -1.072)" fill="#fff"/>
    </clipPath>
    <clipPath id="clip-path-3">
      <rect id="Rectángulo_378432" data-name="Rectángulo 378432" width="120" height="120" fill="none"/>
    </clipPath>
    <clipPath id="clip-path-4">
      <rect id="Rectángulo_379107" data-name="Rectángulo 379107" width="60.005" height="62.549" fill="#3c5756"/>
    </clipPath>
  </defs>
  <g id="Grupo_1099934" data-name="Grupo 1099934" transform="translate(-180 -6013.999)">
    <g id="Grupo_1099685" data-name="Grupo 1099685" transform="translate(-128 -3131.001)">
      <g id="Grupo_1074149" data-name="Grupo 1074149" transform="translate(308 9145)">
        <g id="Grupo_1074143" data-name="Grupo 1074143" transform="translate(0)">
          <g id="Grupo_1074028" data-name="Grupo 1074028" transform="translate(0 0)">
            <g id="Grupo_1074021" data-name="Grupo 1074021" transform="translate(0)">
              <g id="Grupo_1074018" data-name="Grupo 1074018" transform="translate(0.458 0.445)">
                <g id="Grupo_1074017" data-name="Grupo 1074017" clip-path="url(#clip-path)">
                  <path id="Trazado_611056" data-name="Trazado 611056" d="M0,0H132.2V131.995H0Z" transform="translate(-4.993 128.152) rotate(-90)" fill="#b0dfde"/>
                </g>
              </g>
              <g id="Grupo_1074020" data-name="Grupo 1074020">
                <g id="Grupo_1074019" data-name="Grupo 1074019" clip-path="url(#clip-path-3)">
                  <path id="Trazado_611027" data-name="Trazado 611027" d="M20.249,115.762a9.02,9.02,0,0,0,2.992,3.361,9.123,9.123,0,0,0,4.2,1.5h.014l.016.006a9.021,9.021,0,0,1,3.985,2.5,10.017,10.017,0,0,1,2.172,4.215l.007.026v.031a8.863,8.863,0,0,0,3.81,7.007,8.71,8.71,0,0,0,7.784,1.188l.038-.013.049,0a9.3,9.3,0,0,1,4.791.681,10.136,10.136,0,0,1,3.782,3.042l.034.042.026.055a8.636,8.636,0,0,0,2.538,3.148,8.51,8.51,0,0,0,3.7,1.641l-.043-.009.5.075c.171.017.359.049.516.056a8.63,8.63,0,0,0,.979.017,8.421,8.421,0,0,0,1.953-.306,8.526,8.526,0,0,0,3.434-1.892l.044-.04.061-.036a9.4,9.4,0,0,1,4.747-1.344,10.25,10.25,0,0,1,4.755,1.275l.067.035.055.049a8.556,8.556,0,0,0,13.372-3l.028-.065.046-.064a9.565,9.565,0,0,1,3.835-3.171,10.358,10.358,0,0,1,4.89-.768l.079,0,.078.023a8.4,8.4,0,0,0,3.9.215,8.567,8.567,0,0,0,7.014-8.358v-.079l.017-.078a9.657,9.657,0,0,1,2.249-4.465,10.407,10.407,0,0,1,4.172-2.683l.079-.029.075-.009A8.435,8.435,0,0,0,123.4,115.3a8.526,8.526,0,0,0,.429-7.643l-.028-.064-.015-.07a9.639,9.639,0,0,1,.229-4.983,10.378,10.378,0,0,1,2.713-4.15l.054-.052.061-.036a8.713,8.713,0,0,0,1.382-13.752l-.045-.041-.033-.046a9.5,9.5,0,0,1-1.765-4.6,10.3,10.3,0,0,1,.812-4.828l.023-.056.029-.04a8.867,8.867,0,0,0-4.37-13.412l-.038-.013-.029-.017a9.252,9.252,0,0,1-3.381-3.414,10.033,10.033,0,0,1-1.163-4.642v-.03l.005-.023a9.116,9.116,0,0,0-9.7-10.856,9.111,9.111,0,0,1,7.761,2.877,9.245,9.245,0,0,1,2.152,3.734,9.452,9.452,0,0,1,.244,4.333l0-.053a9.488,9.488,0,0,0,1.2,4.371,8.6,8.6,0,0,0,3.228,3.1l-.067-.03a9.46,9.46,0,0,1,6.087,6.04,9.567,9.567,0,0,1,.446,4.42,9.7,9.7,0,0,1-1.593,4.162l.051-.1a9.273,9.273,0,0,0-.679,4.369,8.417,8.417,0,0,0,1.632,4.057l-.078-.088a9.738,9.738,0,0,1,3.175,8.174,9.593,9.593,0,0,1-1.422,4.3,9.8,9.8,0,0,1-3.211,3.19l.114-.089a9.1,9.1,0,0,0-2.37,3.641,8.311,8.311,0,0,0-.168,4.308l-.043-.133a9.9,9.9,0,0,1,.824,4.477,9.9,9.9,0,0,1-8.593,9.348l.154-.037a8.987,8.987,0,0,0-3.606,2.328,8.193,8.193,0,0,0-1.887,3.815l.017-.158a9.963,9.963,0,0,1-1.055,4.468,9.8,9.8,0,0,1-2.963,3.489,9.993,9.993,0,0,1-4.192,1.81,9.8,9.8,0,0,1-4.553-.273l.157.029a8.982,8.982,0,0,0-4.245.633,8.192,8.192,0,0,0-3.294,2.71l.075-.129a9.84,9.84,0,0,1-2.783,3.623,9.822,9.822,0,0,1-12.669-.213l.121.084a8.988,8.988,0,0,0-4.166-1.15,8.33,8.33,0,0,0-4.138,1.15l.1-.075a9.7,9.7,0,0,1-6.166,2.417,9.436,9.436,0,0,1-1.134-.04c-.194-.014-.355-.044-.534-.066l-.542-.088.021,0-.064-.012a9.478,9.478,0,0,1-2.137-.7,9.64,9.64,0,0,1-4.722-4.752l.059.1a9.205,9.205,0,0,0-3.389-2.819,8.411,8.411,0,0,0-4.337-.673l.086-.018a9.495,9.495,0,0,1-4.4.305,9.265,9.265,0,0,1-4.044-1.721,9.375,9.375,0,0,1-2.855-3.328,9.5,9.5,0,0,1-1.047-4.243l.008.057a9.578,9.578,0,0,0-1.98-4.082,8.7,8.7,0,0,0-3.783-2.5l.03.007a9.129,9.129,0,0,1-7.162-5.136" transform="translate(-12.182 -25.469)" fill="#3c5756"/>
                  <path id="Trazado_611028" data-name="Trazado 611028" d="M83.8,5.449a9.116,9.116,0,0,0-8.053.6l-.013.008-.02.006a9.058,9.058,0,0,1-4.708.371,9.933,9.933,0,0,1-4.268-2.109L66.712,4.3l-.026-.034A8.8,8.8,0,0,0,59.54.86,8.632,8.632,0,0,0,52.6,4.5l-.028.041-.048.043a9.394,9.394,0,0,1-4.323,2.3,10.249,10.249,0,0,1-4.892-.231l-.061-.017-.068-.036a8.544,8.544,0,0,0-7.667-.232,8.484,8.484,0,0,0-4.782,5.984l-.014.068-.033.072a9.6,9.6,0,0,1-3.09,3.9,10.379,10.379,0,0,1-4.623,1.78l-.08.012-.08-.007a8.624,8.624,0,0,0-8.878,6.3,8.515,8.515,0,0,0-.126,3.911l.015.075v.074a9.686,9.686,0,0,1-1.258,4.835,10.358,10.358,0,0,1-3.514,3.5l-.07.044-.07.023A8.493,8.493,0,0,0,3.58,42.418c-.085.3-.176.644-.251.992a9.265,9.265,0,0,0-.137.969,8.557,8.557,0,0,0,.067,1.988A8.693,8.693,0,0,0,4.731,50.04l.041.058.024.055a9.576,9.576,0,0,1,.768,4.878,10.291,10.291,0,0,1-1.8,4.559l-.038.056-.039.036A8.72,8.72,0,0,0,.933,67.038a8.865,8.865,0,0,0,4.231,6.717l.035.02.022.022a9.187,9.187,0,0,1,2.553,4.035,10.022,10.022,0,0,1,.149,4.741l0,.023-.007.014a9.218,9.218,0,0,0-.425,6.12,9.926,9.926,0,0,0,.784,1.948,10.021,10.021,0,0,1-.875-1.92,9.208,9.208,0,0,1,.2-6.28l-.01.037A9.6,9.6,0,0,0,7.3,77.982a8.606,8.606,0,0,0-2.52-3.7l.057.042A9.33,9.33,0,0,1,1.6,71.314,9.521,9.521,0,0,1,.081,67.138a9.656,9.656,0,0,1,2.9-8.214l-.078.092a9.223,9.223,0,0,0,1.535-4.107,8.386,8.386,0,0,0-.769-4.264l.065.113a9.73,9.73,0,0,1-1.727-4.2,9.871,9.871,0,0,1-.092-2.287,10.311,10.311,0,0,1,.158-1.154c.075-.351.159-.7.27-1.087a9.814,9.814,0,0,1,6.126-6.383l-.141.068a8.983,8.983,0,0,0,3.041-3.052,8.262,8.262,0,0,0,1.039-4.146l.015.149a9.959,9.959,0,0,1,.117-4.574,9.856,9.856,0,0,1,10.389-7.335l-.161.005a9,9,0,0,0,4.024-1.5,8.227,8.227,0,0,0,2.667-3.34l-.046.14a9.867,9.867,0,0,1,1.967-4.111,9.688,9.688,0,0,1,3.594-2.767A9.918,9.918,0,0,1,39.418,4.3a9.609,9.609,0,0,1,4.353,1.218l-.128-.052a9.078,9.078,0,0,0,4.335.3A8.321,8.321,0,0,0,51.846,3.8l-.076.084A9.63,9.63,0,0,1,55.2,1.006a9.764,9.764,0,0,1,8.643.006A9.323,9.323,0,0,1,67.2,3.873l-.052-.054A9.381,9.381,0,0,0,71.11,5.945a8.64,8.64,0,0,0,4.5-.21l-.033.014a9.132,9.132,0,0,1,4.095-1.13,9.256,9.256,0,0,1,4.126.829" transform="translate(0 0)" fill="#3c5756"/>
                </g>
              </g>
            </g>
          </g>
        </g>
        <g id="Grupo_1074144" data-name="Grupo 1074144" transform="translate(23.322 23.326)">
          <rect id="Rectángulo_378411" data-name="Rectángulo 378411" width="73.516" height="73.515" transform="translate(0 0)" fill="none"/>
        </g>
      </g>
    </g>
    <g id="Grupo_1099737" data-name="Grupo 1099737" transform="translate(209.997 6042.725)">
      <g id="Grupo_1099736" data-name="Grupo 1099736" clip-path="url(#clip-path-4)">
        <path id="Trazado_874700" data-name="Trazado 874700" d="M57.539,27.787c-1.793,3.1-3.55,6.154-5.316,9.2-.378.652-.627,1.454-1.6,1.494-.1,0-.218.149-.278.257-.788,1.415-1.69,2.694-1.645,4.519.135,5.476.05,10.958.048,16.438,0,2.087-.767,2.855-2.851,2.855q-21.532,0-43.063,0C.847,62.548,0,61.723,0,59.748Q0,31.257,0,2.767C0,.851.86.013,2.78.013Q20.984.01,39.187,0A3.145,3.145,0,0,1,41.6,1q3.066,3.135,6.2,6.2a3.035,3.035,0,0,1,.958,2.332c-.023,4.874-.011,9.749-.01,14.623v1.083l.2.077c.49-.849.976-1.7,1.472-2.545.362-.618.842-1,1.568-.573.532.316.618-.108.8-.406,1.14-1.837,2.082-2.076,3.888-.988,1.453.875,1.788,1.939.882,3.37-.5.786-.32,1.086.422,1.5,2.184,1.208,2.551,2.669,1.3,4.842q-2.131,3.712-4.274,7.417c-.067.116-.148.225-.209.344a1.011,1.011,0,0,1-1.5.552c-.669-.362-.617-.948-.265-1.557q2.221-3.834,4.424-7.68c.117-.2.241-.4.349-.611a.876.876,0,0,0-.284-1.195M46.547,45.328a39.935,39.935,0,0,0-2.161,3.759,8.683,8.683,0,0,1-5.284,5,1.852,1.852,0,0,0-1.19,1.012c-.415.968-1.067,1.117-2.035.689a5.307,5.307,0,0,0-5.788.562,5.286,5.286,0,0,1-.6.363,3.62,3.62,0,0,1-4.081-.067c-.619-.4-1.245-.8-1.872-1.185a2.083,2.083,0,0,0-2.911.234.929.929,0,0,1-1.5.008.99.99,0,0,1,.1-1.442,3.76,3.76,0,0,1,4.122-1.1,10.355,10.355,0,0,1,2.8,1.568,2.018,2.018,0,0,0,2.67.026A7.116,7.116,0,0,1,35.762,53.6c.6.206.793-.039.746-.625-.072-.9-.165-1.81-.159-2.715.006-.833-.321-1.027-1.134-1.023-7.8.034-15.6.021-23.4.02q-2.168,0-4.336,0A.948.948,0,0,1,6.4,48.319c-.036-.7.4-1.031,1.061-1.078.3-.021.6-.007.907-.007q13.916,0,27.833-.009c.376,0,.852.2,1.113-.236.852-1.431,1.678-2.878,2.524-4.337a2.616,2.616,0,0,0-1.3-.146Q23.459,42.5,8.383,42.5a5.98,5.98,0,0,1-1.2-.07.917.917,0,0,1-.791-1.012.89.89,0,0,1,.888-.913c.367-.034.738-.03,1.108-.03q15.883,0,31.766.013a1.38,1.38,0,0,0,1.425-.812c.755-1.422,1.6-2.8,2.4-4.2.129-.226.413-.464.273-.72-.428-.785.056-1.347.4-1.951.58-1.021,1.152-2.048,1.76-3.053a2.1,2.1,0,0,0,.327-1.135q-.01-9.076.007-18.152c0-.644-.168-.9-.847-.878-1.511.042-3.025.018-4.538.01-1.675-.008-2.184-.5-2.2-2.153-.011-1.479-.049-2.96.016-4.436.035-.81-.235-.994-1.014-.993q-17.546.037-35.093,0c-.872,0-1.052.292-1.052,1.1q.029,28.185,0,56.371c0,.856.268,1.06,1.09,1.058q21.278-.035,42.556.006c.941,0,1.1-.31,1.088-1.15-.039-4.369-.015-8.74-.024-13.109a1.272,1.272,0,0,0-.173-.96m-7.928,6.653a5.514,5.514,0,0,0,3.326-2.673c1.838-3.424,3.851-6.754,5.791-10.123,1.025-1.78,1.008-1.754-.792-2.838-.644-.388-.955-.355-1.347.34-2.006,3.563-4,7.137-6.142,10.618a5.308,5.308,0,0,0-.837,4.676M50.224,35.91c.371.017.423-.253.534-.445,1.561-2.7,3.107-5.407,4.689-8.095.287-.488.271-.734-.254-1.008-.891-.465-1.765-.969-2.606-1.519-.562-.368-.853-.346-1.2.294-1.109,2.03-2.3,4.016-3.438,6.029-.474.838-1.476,1.714-1.25,2.519s1.541,1.033,2.353,1.556c.394.253.813.466,1.175.67M44.785,7.558l-3.6-3.744c0,1.055,0,2.124,0,3.192,0,.3.082.546.435.549,1.122.007,2.244,0,3.165,0m10.2,14.635a2.065,2.065,0,0,0-.663,1.156c-.018.4.54.6.812.6.529-.018.715-.635.779-1.015.071-.426-.538-.472-.928-.736" transform="translate(0 0)" fill="#3c5756"/>
        <path id="Trazado_874701" data-name="Trazado 874701" d="M31.809,45.192a1.076,1.076,0,0,1,.1-.419,2.255,2.255,0,0,0-.036-2.438A1.564,1.564,0,0,0,30.785,41.3a1.405,1.405,0,0,1-1.158-1.713,5.849,5.849,0,0,0,0-1.207c-.144-1.22.172-2.067,1.517-2.394.68-.165,1.4-2.051,1.043-2.663a1.719,1.719,0,0,1,.527-2.526,4.916,4.916,0,0,0,.853-.853,1.645,1.645,0,0,1,2.363-.485,2.47,2.47,0,0,0,2.786-1.173,1.618,1.618,0,0,1,1.933-1.313,5.09,5.09,0,0,0,1.307,0,1.726,1.726,0,0,1,2.157,1.416A2.574,2.574,0,0,0,46.78,29.5a1.725,1.725,0,0,1,2.529.515,4.4,4.4,0,0,0,.785.779,1.712,1.712,0,0,1,.545,2.516,2.5,2.5,0,0,0,1.172,2.737,1.639,1.639,0,0,1,1.345,2,5.074,5.074,0,0,0,0,1.207,1.753,1.753,0,0,1-1.4,2.183,2.458,2.458,0,0,0-1.1,2.751,1.623,1.623,0,0,1-.462,2.359,5.47,5.47,0,0,0-.925.924,1.676,1.676,0,0,1-2.45.485,2.482,2.482,0,0,0-2.737,1.168,1.656,1.656,0,0,1-2.011,1.346,5.617,5.617,0,0,0-1.207,0,1.758,1.758,0,0,1-2.18-1.394,2.437,2.437,0,0,0-2.764-1.1,1.646,1.646,0,0,1-2.369-.469,16.857,16.857,0,0,0-1.345-1.359,1.238,1.238,0,0,1-.4-.958m19.3-6.438c.06-.482.006-.891-.558-1.012a1.823,1.823,0,0,1-1.38-1.544,5.086,5.086,0,0,0-.59-1.38,1.546,1.546,0,0,1-.057-1.782.792.792,0,0,0-.16-1.136c-.4-.382-.743-.639-1.3-.295a1.624,1.624,0,0,1-1.8-.094,4.836,4.836,0,0,0-1.477-.621A1.6,1.6,0,0,1,42.4,29.617c-.13-.566-.482-.631-.966-.621-.456.009-.886-.015-1.011.564a1.663,1.663,0,0,1-1.434,1.347,5.251,5.251,0,0,0-1.474.627,1.649,1.649,0,0,1-1.806.058c-.522-.314-.849-.1-1.217.278-.343.348-.526.639-.227,1.121a1.663,1.663,0,0,1-.074,1.888,5.247,5.247,0,0,0-.607,1.48,1.66,1.66,0,0,1-1.3,1.372c-.533.119-.644.435-.639.941.005.524.065.918.662,1.046A1.653,1.653,0,0,1,33.586,41.1a4.8,4.8,0,0,0,.563,1.391,1.713,1.713,0,0,1,.1,1.978c-.31.494-.1.786.258,1.115.326.3.589.664,1.1.308a1.707,1.707,0,0,1,2.054.085,5.2,5.2,0,0,0,1.39.562,1.588,1.588,0,0,1,1.323,1.214c.126.568.5.7,1.037.692s.889-.135,1.019-.714a1.574,1.574,0,0,1,1.34-1.2,4.331,4.331,0,0,0,1.3-.518,1.777,1.777,0,0,1,2.144-.122c.521.359.776-.047,1.089-.34s.6-.551.282-1.013A1.8,1.8,0,0,1,48.7,42.4a5.953,5.953,0,0,0,.544-1.4,1.561,1.561,0,0,1,1.16-1.248c.53-.121.825-.432.708-1" transform="translate(-23.625 -21.507)" fill="#3c5756"/>
        <path id="Trazado_874702" data-name="Trazado 874702" d="M49.616,167.014q8.267,0,16.534,0c.706,0,1.441-.005,1.46.946.02.975-.7,1.082-1.468,1.082q-16.484,0-32.968,0a1.841,1.841,0,0,1-.98-.153.958.958,0,0,1-.539-1.085.88.88,0,0,1,.823-.762,9.852,9.852,0,0,1,1.007-.022H49.616" transform="translate(-25.253 -133.323)" fill="#3c5756"/>
        <path id="Trazado_874703" data-name="Trazado 874703" d="M166.622,65.934c1.242,0,2.484.009,3.726,0,.669-.006,1.133.244,1.158.955.028.765-.448,1.069-1.159,1.07q-3.676,0-7.351,0c-.7,0-1.218-.273-1.221-1.022s.519-1.011,1.221-1c1.208.011,2.417,0,3.625,0" transform="translate(-129.143 -52.631)" fill="#3c5756"/>
        <path id="Trazado_874704" data-name="Trazado 874704" d="M166.622,135.1c-1.207,0-2.415-.007-3.623,0-.688.006-1.236-.2-1.237-.98,0-.756.534-1.037,1.213-1.04q3.673-.016,7.346,0c.689,0,1.2.3,1.176,1.064-.021.794-.568.966-1.252.957-1.207-.015-2.415,0-3.622,0" transform="translate(-129.133 -106.233)" fill="#3c5756"/>
        <path id="Trazado_874705" data-name="Trazado 874705" d="M166.624,101.464c-1.24,0-2.48,0-3.721,0-.648,0-1.144-.243-1.163-.959a.978.978,0,0,1,1.1-1.046q3.77-.037,7.541-.005c.645,0,1.113.316,1.1,1.033s-.481.976-1.138.977q-1.86,0-3.721,0" transform="translate(-129.115 -79.382)" fill="#3c5756"/>
        <path id="Trazado_874706" data-name="Trazado 874706" d="M70.06,61.239a6.011,6.011,0,0,1-6.041,6.095,6.074,6.074,0,1,1,6.041-6.095m-2.027.01a4.01,4.01,0,0,0-4.007-4.038,4.048,4.048,0,1,0,.03,8.1,3.988,3.988,0,0,0,3.977-4.058" transform="translate(-46.245 -44.054)" fill="#3c5756"/>
      </g>
    </g>
  </g>
</svg>
