<svg xmlns="http://www.w3.org/2000/svg" xmlns:xlink="http://www.w3.org/1999/xlink" width="120" height="120" viewBox="0 0 120 120">
  <defs>
    <clipPath id="clip-path">
      <path id="Trazado_611025" data-name="Trazado 611025" d="M60.2,1.073a9.086,9.086,0,0,0-7.37,3.762A8.709,8.709,0,0,1,44.126,6.7a9.052,9.052,0,0,0-7.7-.5c-.129.048-.258.1-.385.152l-.1.042a9.132,9.132,0,0,0-5.208,6.448,8.743,8.743,0,0,1-7.2,5.262,9.061,9.061,0,0,0-7.6,3.07,9.166,9.166,0,0,0-2.151,7.986,8.774,8.774,0,0,1-4.423,7.764,9.134,9.134,0,0,0-5.728,5.933c-.009.028-.014.054-.022.078-.041.144-.08.286-.116.43A9.17,9.17,0,0,0,4.9,51.028a8.813,8.813,0,0,1-.9,8.9A9.3,9.3,0,0,0,5.664,74.658a8.81,8.81,0,0,1,2.754,8.505,9.174,9.174,0,0,0,.312,7.746c.063.134.132.259.2.385.015.028.027.055.041.078A9.093,9.093,0,0,0,15.9,95.9a8.774,8.774,0,0,1,5.958,6.646,9.221,9.221,0,0,0,11.966,8.589,8.71,8.71,0,0,1,8.146,3.606,9.108,9.108,0,0,0,6.471,5.105c.026.006.051.006.078.013.145.025.288.052.438.072a9.077,9.077,0,0,0,7.439-2.208,8.687,8.687,0,0,1,8.9-.034,9.21,9.21,0,0,0,14.407-3.2,8.712,8.712,0,0,1,8.129-3.639,9.056,9.056,0,0,0,7.636-1.123c.121-.075.24-.157.355-.239.026-.017.055-.034.079-.054a9.155,9.155,0,0,0,3.762-7.4,8.764,8.764,0,0,1,5.955-6.644,9.26,9.26,0,0,0,7.25-12.855A8.806,8.806,0,0,1,115.614,74a9.281,9.281,0,0,0,1.419-14.7,8.818,8.818,0,0,1-.951-8.922,9.273,9.273,0,0,0-4.654-14.013,8.79,8.79,0,0,1-4.484-7.763,9.166,9.166,0,0,0-2.249-7.915A9.056,9.056,0,0,0,97.02,17.7a8.745,8.745,0,0,1-7.225-5.234,9.134,9.134,0,0,0-5.272-6.342.731.731,0,0,0-.088-.034c-.129-.054-.264-.106-.4-.157a9.068,9.068,0,0,0-7.737.605,8.7,8.7,0,0,1-8.714-1.827,9.088,9.088,0,0,0-7.253-3.64H60.2" transform="translate(-1.105 -1.072)" fill="#b0dfde"/>
    </clipPath>
    <clipPath id="clip-path-3">
      <rect id="Rectángulo_378432" data-name="Rectángulo 378432" width="120" height="120" fill="none"/>
    </clipPath>
    <clipPath id="clip-path-4">
      <rect id="Rectángulo_379108" data-name="Rectángulo 379108" width="72.259" height="53.557" fill="#3c5756"/>
    </clipPath>
  </defs>
  <g id="Grupo_1099935" data-name="Grupo 1099935" transform="translate(-809.999 -6013.999)">
    <g id="Grupo_1099686" data-name="Grupo 1099686" transform="translate(502 -3131.001)">
      <g id="Grupo_1074149" data-name="Grupo 1074149" transform="translate(307.999 9145)">
        <g id="Grupo_1074143" data-name="Grupo 1074143" transform="translate(0)">
          <g id="Grupo_1074028" data-name="Grupo 1074028" transform="translate(0 0)">
            <g id="Grupo_1074021" data-name="Grupo 1074021" transform="translate(0)">
              <g id="Grupo_1074018" data-name="Grupo 1074018" transform="translate(0.458 0.445)">
                <g id="Grupo_1074017" data-name="Grupo 1074017" clip-path="url(#clip-path)">
                  <path id="Trazado_611056" data-name="Trazado 611056" d="M0,0H132.2V131.995H0Z" transform="translate(-4.993 128.152) rotate(-90)" fill="#b0dfde"/>
                </g>
              </g>
              <g id="Grupo_1074020" data-name="Grupo 1074020">
                <g id="Grupo_1074019" data-name="Grupo 1074019" clip-path="url(#clip-path-3)">
                  <path id="Trazado_611027" data-name="Trazado 611027" d="M20.249,115.762a9.02,9.02,0,0,0,2.992,3.361,9.123,9.123,0,0,0,4.2,1.5h.014l.016.006a9.021,9.021,0,0,1,3.985,2.5,10.017,10.017,0,0,1,2.172,4.215l.007.026v.031a8.863,8.863,0,0,0,3.81,7.007,8.71,8.71,0,0,0,7.784,1.188l.038-.013.049,0a9.3,9.3,0,0,1,4.791.681,10.136,10.136,0,0,1,3.782,3.042l.034.042.026.055a8.636,8.636,0,0,0,2.538,3.148,8.51,8.51,0,0,0,3.7,1.641l-.043-.009.5.075c.171.017.359.049.516.056a8.63,8.63,0,0,0,.979.017,8.421,8.421,0,0,0,1.953-.306,8.526,8.526,0,0,0,3.434-1.892l.044-.04.061-.036a9.4,9.4,0,0,1,4.747-1.344,10.25,10.25,0,0,1,4.755,1.275l.067.035.055.049a8.556,8.556,0,0,0,13.372-3l.028-.065.046-.064a9.565,9.565,0,0,1,3.835-3.171,10.358,10.358,0,0,1,4.89-.768l.079,0,.078.023a8.4,8.4,0,0,0,3.9.215,8.567,8.567,0,0,0,7.014-8.358v-.079l.017-.078a9.657,9.657,0,0,1,2.249-4.465,10.407,10.407,0,0,1,4.172-2.683l.079-.029.075-.009A8.435,8.435,0,0,0,123.4,115.3a8.526,8.526,0,0,0,.429-7.643l-.028-.064-.015-.07a9.639,9.639,0,0,1,.229-4.983,10.378,10.378,0,0,1,2.713-4.15l.054-.052.061-.036a8.713,8.713,0,0,0,1.382-13.752l-.045-.041-.033-.046a9.5,9.5,0,0,1-1.765-4.6,10.3,10.3,0,0,1,.812-4.828l.023-.056.029-.04a8.867,8.867,0,0,0-4.37-13.412l-.038-.013-.029-.017a9.252,9.252,0,0,1-3.381-3.414,10.033,10.033,0,0,1-1.163-4.642v-.03l.005-.023a9.116,9.116,0,0,0-9.7-10.856,9.111,9.111,0,0,1,7.761,2.877,9.245,9.245,0,0,1,2.152,3.734,9.452,9.452,0,0,1,.244,4.333l0-.053a9.488,9.488,0,0,0,1.2,4.371,8.6,8.6,0,0,0,3.228,3.1l-.067-.03a9.46,9.46,0,0,1,6.087,6.04,9.567,9.567,0,0,1,.446,4.42,9.7,9.7,0,0,1-1.593,4.162l.051-.1a9.273,9.273,0,0,0-.679,4.369,8.417,8.417,0,0,0,1.632,4.057l-.078-.088a9.738,9.738,0,0,1,3.175,8.174,9.593,9.593,0,0,1-1.422,4.3,9.8,9.8,0,0,1-3.211,3.19l.114-.089a9.1,9.1,0,0,0-2.37,3.641,8.311,8.311,0,0,0-.168,4.308l-.043-.133a9.9,9.9,0,0,1,.824,4.477,9.9,9.9,0,0,1-8.593,9.348l.154-.037a8.987,8.987,0,0,0-3.606,2.328,8.193,8.193,0,0,0-1.887,3.815l.017-.158a9.963,9.963,0,0,1-1.055,4.468,9.8,9.8,0,0,1-2.963,3.489,9.993,9.993,0,0,1-4.192,1.81,9.8,9.8,0,0,1-4.553-.273l.157.029a8.982,8.982,0,0,0-4.245.633,8.192,8.192,0,0,0-3.294,2.71l.075-.129a9.84,9.84,0,0,1-2.783,3.623,9.822,9.822,0,0,1-12.669-.213l.121.084a8.988,8.988,0,0,0-4.166-1.15,8.33,8.33,0,0,0-4.138,1.15l.1-.075a9.7,9.7,0,0,1-6.166,2.417,9.436,9.436,0,0,1-1.134-.04c-.194-.014-.355-.044-.534-.066l-.542-.088.021,0-.064-.012a9.478,9.478,0,0,1-2.137-.7,9.64,9.64,0,0,1-4.722-4.752l.059.1a9.205,9.205,0,0,0-3.389-2.819,8.411,8.411,0,0,0-4.337-.673l.086-.018a9.495,9.495,0,0,1-4.4.305,9.265,9.265,0,0,1-4.044-1.721,9.375,9.375,0,0,1-2.855-3.328,9.5,9.5,0,0,1-1.047-4.243l.008.057a9.578,9.578,0,0,0-1.98-4.082,8.7,8.7,0,0,0-3.783-2.5l.03.007a9.129,9.129,0,0,1-7.162-5.136" transform="translate(-12.182 -25.469)" fill="#3c5756"/>
                  <path id="Trazado_611028" data-name="Trazado 611028" d="M83.8,5.449a9.116,9.116,0,0,0-8.053.6l-.013.008-.02.006a9.058,9.058,0,0,1-4.708.371,9.933,9.933,0,0,1-4.268-2.109L66.712,4.3l-.026-.034A8.8,8.8,0,0,0,59.54.86,8.632,8.632,0,0,0,52.6,4.5l-.028.041-.048.043a9.394,9.394,0,0,1-4.323,2.3,10.249,10.249,0,0,1-4.892-.231l-.061-.017-.068-.036a8.544,8.544,0,0,0-7.667-.232,8.484,8.484,0,0,0-4.782,5.984l-.014.068-.033.072a9.6,9.6,0,0,1-3.09,3.9,10.379,10.379,0,0,1-4.623,1.78l-.08.012-.08-.007a8.624,8.624,0,0,0-8.878,6.3,8.515,8.515,0,0,0-.126,3.911l.015.075v.074a9.686,9.686,0,0,1-1.258,4.835,10.358,10.358,0,0,1-3.514,3.5l-.07.044-.07.023A8.493,8.493,0,0,0,3.58,42.418c-.085.3-.176.644-.251.992a9.265,9.265,0,0,0-.137.969,8.557,8.557,0,0,0,.067,1.988A8.693,8.693,0,0,0,4.731,50.04l.041.058.024.055a9.576,9.576,0,0,1,.768,4.878,10.291,10.291,0,0,1-1.8,4.559l-.038.056-.039.036A8.72,8.72,0,0,0,.933,67.038a8.865,8.865,0,0,0,4.231,6.717l.035.02.022.022a9.187,9.187,0,0,1,2.553,4.035,10.022,10.022,0,0,1,.149,4.741l0,.023-.007.014a9.218,9.218,0,0,0-.425,6.12,9.926,9.926,0,0,0,.784,1.948,10.021,10.021,0,0,1-.875-1.92,9.208,9.208,0,0,1,.2-6.28l-.01.037A9.6,9.6,0,0,0,7.3,77.982a8.606,8.606,0,0,0-2.52-3.7l.057.042A9.33,9.33,0,0,1,1.6,71.314,9.521,9.521,0,0,1,.081,67.138a9.656,9.656,0,0,1,2.9-8.214l-.078.092a9.223,9.223,0,0,0,1.535-4.107,8.386,8.386,0,0,0-.769-4.264l.065.113a9.73,9.73,0,0,1-1.727-4.2,9.871,9.871,0,0,1-.092-2.287,10.311,10.311,0,0,1,.158-1.154c.075-.351.159-.7.27-1.087a9.814,9.814,0,0,1,6.126-6.383l-.141.068a8.983,8.983,0,0,0,3.041-3.052,8.262,8.262,0,0,0,1.039-4.146l.015.149a9.959,9.959,0,0,1,.117-4.574,9.856,9.856,0,0,1,10.389-7.335l-.161.005a9,9,0,0,0,4.024-1.5,8.227,8.227,0,0,0,2.667-3.34l-.046.14a9.867,9.867,0,0,1,1.967-4.111,9.688,9.688,0,0,1,3.594-2.767A9.918,9.918,0,0,1,39.418,4.3a9.609,9.609,0,0,1,4.353,1.218l-.128-.052a9.078,9.078,0,0,0,4.335.3A8.321,8.321,0,0,0,51.846,3.8l-.076.084A9.63,9.63,0,0,1,55.2,1.006a9.764,9.764,0,0,1,8.643.006A9.323,9.323,0,0,1,67.2,3.873l-.052-.054A9.381,9.381,0,0,0,71.11,5.945a8.64,8.64,0,0,0,4.5-.21l-.033.014a9.132,9.132,0,0,1,4.095-1.13,9.256,9.256,0,0,1,4.126.829" transform="translate(0 0)" fill="#3c5756"/>
                </g>
              </g>
            </g>
          </g>
        </g>
        <g id="Grupo_1074144" data-name="Grupo 1074144" transform="translate(23.322 23.326)">
          <rect id="Rectángulo_378411" data-name="Rectángulo 378411" width="73.516" height="73.515" transform="translate(0 0)" fill="none"/>
        </g>
      </g>
      <g id="Grupo_1099739" data-name="Grupo 1099739" transform="translate(331.869 9178.222)">
        <g id="Grupo_1099738" data-name="Grupo 1099738" clip-path="url(#clip-path-4)">
          <path id="Trazado_874707" data-name="Trazado 874707" d="M60.415,28.254c.753,0,1.508-.035,2.258.008a3.022,3.022,0,0,0,3.164-1.334c1.19-1.751,3.853-1.638,5.337-.091a3.733,3.733,0,0,1-.435,5.473,3.6,3.6,0,0,1-5.307-.806,1.631,1.631,0,0,0-1.683-.9c-2.258.039-4.519.07-6.775-.011-1.028-.037-1.3.308-1.22,1.272a28.907,28.907,0,0,1,.011,3.089c-.016.561.189.78.754.762.871-.027,1.744-.02,2.615.008.714.023,1.255.337,1.261,1.126.006.836-.521,1.186-1.31,1.191-.872.006-1.744.022-2.615,0-.509-.015-.709.18-.7.689.019,1.228.028,2.457,0,3.685-.015.625.322.7.819.7,1.743-.011,3.489.042,5.23-.019a2.807,2.807,0,0,1,2.5,1.056c.344.43.81.763,1.161,1.189a2.274,2.274,0,0,0,2.722.936c1.391-.413,2.982.644,3.663,2.053a3.486,3.486,0,0,1-.774,4.234,3.781,3.781,0,0,1-4.3.575,3.627,3.627,0,0,1-1.865-3.9c.246-.873-.147-1.268-.593-1.849a4.726,4.726,0,0,0-4.813-2.008,10.308,10.308,0,0,1-2.61,0c-.993-.1-1.171.321-1.154,1.206.042,2.2-.118,2.323-2.364,2.323q-16.287,0-32.573,0c-1.832,0-2.073-.239-2.076-2.033,0-1.426.008-2.853-.008-4.28,0-.292.155-.683-.216-.849a.7.7,0,0,0-.921.335c-1.159,1.937-2.656,1.81-4.42.864A27.224,27.224,0,0,0,9.665,41.5a1.51,1.51,0,0,1-1.088-1.837c.077-.613.377-1.347-.04-1.845a16.64,16.64,0,0,0-2.624-2.56c-.349-.266-1.08-.1-1.623-.025a1.665,1.665,0,0,1-2.021-1.193c-.625-1.623-1.3-3.231-2.028-4.808A1.659,1.659,0,0,1,.787,26.97c.475-.386,1.189-.7,1.241-1.367a17.177,17.177,0,0,0-.036-3.555c-.078-.6-.814-.931-1.293-1.332a1.559,1.559,0,0,1-.5-2.078c.728-1.623,1.408-3.269,2.053-4.927.337-.867.887-1.348,1.8-1.119,2.311.577,3.142-1.382,4.387-2.563.469-.445.087-1.224.057-1.841a1.678,1.678,0,0,1,1.222-1.9c1.591-.594,3.165-1.247,4.7-1.972a1.73,1.73,0,0,1,2.381.536c.423.51.785,1.493,1.586,1.176.785-.31.259-1.257.328-1.913.083-.784.012-1.583.022-2.376.017-1.369.33-1.7,1.674-1.716,1.585-.017,3.17,0,4.755,0C31.431.023,37.692.045,43.953,0a3.162,3.162,0,0,1,2.495,1.066c2.725,2.818,5.47,5.62,8.271,8.363a2.768,2.768,0,0,1,1.048,2.592c-.19,1.083.276,1.389,1.3,1.275a8.384,8.384,0,0,1,2.372,0c2.262.406,3.848-.557,5.174-2.261A1.2,1.2,0,0,0,64.926,9.8a3.686,3.686,0,1,1,2.892,2.61,1.6,1.6,0,0,0-1.925.61,6.062,6.062,0,0,1-6.357,2.637,24.346,24.346,0,0,0-2.969-.029c-.51-.012-.822.075-.8.7.035,1.227.033,2.457,0,3.685-.016.6.266.74.793.726q1.247-.032,2.5.008c.754.025,1.351.33,1.342,1.182s-.565,1.155-1.352,1.133c-.158,0-.317,0-.476,0-2.8.012-2.8.012-2.8,2.872,0,2.319,0,2.319,2.265,2.319h2.378m-39.324-3.82q0,10.519,0,21.037c0,.625-.063,1.1.883,1.1q15.273-.054,30.546-.012c.622,0,.918-.107.917-.833q-.031-16.4,0-32.8c0-.694-.233-.867-.887-.858-2.377.032-4.754.02-7.131.009-1.336-.006-1.691-.357-1.7-1.7-.014-2.3-.046-4.6.017-6.893.024-.895-.241-1.132-1.13-1.127q-10.162.055-20.324-.006c-1.045-.008-1.211.344-1.206,1.282.038,6.933.02,13.867.021,20.8M18.718,10.8c0-.555-.016-1.11,0-1.664.018-.464-.089-.824-.636-.737C17,8.569,16.392,7.9,15.829,7.167a.982.982,0,0,0-1.407-.361,23.719,23.719,0,0,1-2.845,1.178c-.585.2-.788.572-.643,1.072.395,1.366-.266,2.251-1.214,3.085a27.924,27.924,0,0,0-2.1,2.095,1.9,1.9,0,0,1-1.886.735,1.477,1.477,0,0,0-2.022,1.315,2.817,2.817,0,0,1-.369.87c-.757,1.277-.958,2.354.556,3.351.844.556.919,6.125.083,6.669-1.685,1.1-1.307,2.3-.552,3.666a10.109,10.109,0,0,1,.6,1.42.706.706,0,0,0,.9.539,3.282,3.282,0,0,1,3.388,1.414,19.658,19.658,0,0,0,1.843,1.851,2.177,2.177,0,0,1,.8,2.319,1.043,1.043,0,0,0,.807,1.434A19.338,19.338,0,0,1,14.389,40.9a1,1,0,0,0,1.424-.316c.411-.508.793-1.279,1.528-1.2,1.5.166,1.455-.712,1.385-1.728a10.337,10.337,0,0,1,0-1.781c.09-.846-.173-1.193-1.078-1.372a10.835,10.835,0,0,1-.907-21.013c1.973-.6,1.973-.6,1.972-2.7m-.007,4.7a8.36,8.36,0,0,0-7.33,7.971A8.524,8.524,0,0,0,17.928,32.1c.682.169.8-.1.792-.706-.027-2.1-.01-4.193-.01-6.289V15.5m32.4-5.793L46.1,4.636c0,1.357.02,2.853-.01,4.348-.011.586.23.739.773.73,1.5-.025,2.991-.009,4.245-.009M68.442,51.259A1.288,1.288,0,0,0,69.8,49.929a1.311,1.311,0,1,0-1.362,1.329m-.074-20.531a1.236,1.236,0,0,0,1.372-1.179,1.286,1.286,0,1,0-1.372,1.179m.043-23.195A1.1,1.1,0,0,0,67.2,8.744a1.148,1.148,0,0,0,1.231,1.274A1.175,1.175,0,0,0,69.8,8.751c0-.751-.507-1.212-1.387-1.218" transform="translate(0 0)" fill="#3c5756"/>
          <path id="Trazado_874708" data-name="Trazado 874708" d="M132.326,49.392c-2.021,0-4.042-.027-6.062.011a1.307,1.307,0,0,1-1.508-1.423q-.057-3.862.019-7.726c.013-.7.294-1.423,1.173-1.337,1.117.109,1.068-.532,1.077-1.3a5.171,5.171,0,0,1,3.7-4.969,5.234,5.234,0,0,1,5.9,1.929,5.145,5.145,0,0,1,1.011,3.339c-.026.649.072,1.064.884.995,1.029-.088,1.407.554,1.411,1.478q.013,3.744,0,7.489a1.337,1.337,0,0,1-1.534,1.519c-2.021-.025-4.042-.007-6.062-.007Zm-.1-2.384c1.464,0,2.927-.018,4.39.01.557.01.771-.174.76-.744-.028-1.423-.026-2.848,0-4.271.01-.561-.186-.748-.757-.742q-4.39.041-8.78.01c-.557,0-.767.16-.755.737q.048,2.134,0,4.271c-.013.575.194.751.752.74,1.463-.029,2.926-.01,4.39-.01m.074-8.142v.016h2.249c.331,0,.577-.03.669-.465a3.127,3.127,0,0,0-2.147-3.509,3,3,0,0,0-3.559,2c-.428,1.473-.064,1.952,1.486,1.957.434,0,.868,0,1.3,0" transform="translate(-95.068 -24.685)" fill="#3c5756"/>
          <path id="Trazado_874709" data-name="Trazado 874709" d="M114.943,143.579c2.135,0,4.271.014,6.406-.007.853-.009,1.557.187,1.556,1.177s-.718,1.207-1.556,1.207q-6.465,0-12.93.007c-.892,0-1.53-.369-1.508-1.272.021-.856.677-1.137,1.508-1.127,2.174.027,4.35.009,6.524.009Z" transform="translate(-81.485 -109.421)" fill="#3c5756"/>
          <path id="Trazado_874710" data-name="Trazado 874710" d="M153.207,121.1c-1.858,0-3.715-.012-5.573.005-.845.008-1.587-.221-1.611-1.159-.026-1.008.722-1.26,1.626-1.255q5.573.029,11.146.007c.879,0,1.554.278,1.551,1.2s-.7,1.206-1.566,1.195c-1.857-.024-3.715-.007-5.573-.007v.01" transform="translate(-111.296 -90.46)" fill="#3c5756"/>
          <path id="Trazado_874711" data-name="Trazado 874711" d="M161.5,170.34c-1.541,0-3.083,0-4.624,0-.765,0-1.341-.234-1.381-1.1-.042-.932.556-1.257,1.362-1.261,3.082-.015,6.164-.01,9.247-.005.8,0,1.46.311,1.464,1.19s-.61,1.192-1.445,1.183c-1.541-.018-3.082,0-4.623-.005" transform="translate(-118.514 -128.022)" fill="#3c5756"/>
          <path id="Trazado_874712" data-name="Trazado 874712" d="M111.4,170.314c-1.1,0-2.209-.006-3.313,0a1.139,1.139,0,0,1-1.27-1.121,1.118,1.118,0,0,1,1.163-1.236c2.286-.049,4.575-.038,6.861.016a1.12,1.12,0,0,1,1.165,1.235,1.144,1.144,0,0,1-1.293,1.1c-1.1,0-2.209,0-3.314,0v.009" transform="translate(-81.413 -127.99)" fill="#3c5756"/>
          <path id="Trazado_874713" data-name="Trazado 874713" d="M110.5,118.708c.75,0,1.5-.026,2.249.007a1.124,1.124,0,0,1,1.172,1.219,1.105,1.105,0,0,1-1.132,1.142q-2.367.055-4.735.014a1.112,1.112,0,0,1-1.164-1.227,1.147,1.147,0,0,1,1.241-1.161c.789-.012,1.578,0,2.368,0Z" transform="translate(-81.473 -90.467)" fill="#3c5756"/>
          <path id="Trazado_874714" data-name="Trazado 874714" d="M186.5,145.976a10.1,10.1,0,0,1-1.532-.015,1.11,1.11,0,0,1-1.031-1.228,1.079,1.079,0,0,1,1.155-1.1c1.024-.011,2.048-.016,3.071.007a1.059,1.059,0,0,1,1.084,1.042,1.1,1.1,0,0,1-.98,1.264,11.222,11.222,0,0,1-1.767.02v.007" transform="translate(-140.187 -109.469)" fill="#3c5756"/>
        </g>
      </g>
    </g>
  </g>
</svg>
