<svg xmlns="http://www.w3.org/2000/svg" xmlns:xlink="http://www.w3.org/1999/xlink" width="120" height="120" viewBox="0 0 120 120">
  <defs>
    <clipPath id="clip-path">
      <path id="Trazado_611025" data-name="Trazado 611025" d="M60.2,1.073a9.086,9.086,0,0,0-7.37,3.762A8.709,8.709,0,0,1,44.126,6.7a9.052,9.052,0,0,0-7.7-.5c-.129.048-.258.1-.385.152l-.1.042a9.132,9.132,0,0,0-5.208,6.448,8.743,8.743,0,0,1-7.2,5.262,9.061,9.061,0,0,0-7.6,3.07,9.166,9.166,0,0,0-2.151,7.986,8.774,8.774,0,0,1-4.423,7.764,9.134,9.134,0,0,0-5.728,5.933c-.009.028-.014.054-.022.078-.041.144-.08.286-.116.43A9.17,9.17,0,0,0,4.9,51.028a8.813,8.813,0,0,1-.9,8.9A9.3,9.3,0,0,0,5.664,74.658a8.81,8.81,0,0,1,2.754,8.505,9.174,9.174,0,0,0,.312,7.746c.063.134.132.259.2.385.015.028.027.055.041.078A9.093,9.093,0,0,0,15.9,95.9a8.774,8.774,0,0,1,5.958,6.646,9.221,9.221,0,0,0,11.966,8.589,8.71,8.71,0,0,1,8.146,3.606,9.108,9.108,0,0,0,6.471,5.105c.026.006.051.006.078.013.145.025.288.052.438.072a9.077,9.077,0,0,0,7.439-2.208,8.687,8.687,0,0,1,8.9-.034,9.21,9.21,0,0,0,14.407-3.2,8.712,8.712,0,0,1,8.129-3.639,9.056,9.056,0,0,0,7.636-1.123c.121-.075.24-.157.355-.239.026-.017.055-.034.079-.054a9.155,9.155,0,0,0,3.762-7.4,8.764,8.764,0,0,1,5.955-6.644,9.26,9.26,0,0,0,7.25-12.855A8.806,8.806,0,0,1,115.614,74a9.281,9.281,0,0,0,1.419-14.7,8.818,8.818,0,0,1-.951-8.922,9.273,9.273,0,0,0-4.654-14.013,8.79,8.79,0,0,1-4.484-7.763,9.166,9.166,0,0,0-2.249-7.915A9.056,9.056,0,0,0,97.02,17.7a8.745,8.745,0,0,1-7.225-5.234,9.134,9.134,0,0,0-5.272-6.342.731.731,0,0,0-.088-.034c-.129-.054-.264-.106-.4-.157a9.068,9.068,0,0,0-7.737.605,8.7,8.7,0,0,1-8.714-1.827,9.088,9.088,0,0,0-7.253-3.64H60.2" transform="translate(-1.105 -1.072)" fill="#b0dfde"/>
    </clipPath>
    <clipPath id="clip-path-3">
      <rect id="Rectángulo_378432" data-name="Rectángulo 378432" width="120" height="120" fill="none"/>
    </clipPath>
    <clipPath id="clip-path-4">
      <rect id="Rectángulo_379033" data-name="Rectángulo 379033" width="73.391" height="56.196" fill="#3c5756"/>
    </clipPath>
  </defs>
  <g id="Grupo_1099931" data-name="Grupo 1099931" transform="translate(-809.999 -15992.059)">
    <g id="Grupo_1099601" data-name="Grupo 1099601" transform="translate(502 6847.059)">
      <g id="Grupo_1074149" data-name="Grupo 1074149" transform="translate(307.999 9145)">
        <g id="Grupo_1074143" data-name="Grupo 1074143" transform="translate(0)">
          <g id="Grupo_1074028" data-name="Grupo 1074028" transform="translate(0 0)">
            <g id="Grupo_1074021" data-name="Grupo 1074021" transform="translate(0)">
              <g id="Grupo_1074018" data-name="Grupo 1074018" transform="translate(0.458 0.445)">
                <g id="Grupo_1074017" data-name="Grupo 1074017" clip-path="url(#clip-path)">
                  <path id="Trazado_611056" data-name="Trazado 611056" d="M0,0H132.2V131.995H0Z" transform="translate(-4.993 128.152) rotate(-90)" fill="#b0dfde"/>
                </g>
              </g>
              <g id="Grupo_1074020" data-name="Grupo 1074020">
                <g id="Grupo_1074019" data-name="Grupo 1074019" clip-path="url(#clip-path-3)">
                  <path id="Trazado_611027" data-name="Trazado 611027" d="M20.249,115.762a9.02,9.02,0,0,0,2.992,3.361,9.123,9.123,0,0,0,4.2,1.5h.014l.016.006a9.021,9.021,0,0,1,3.985,2.5,10.017,10.017,0,0,1,2.172,4.215l.007.026v.031a8.863,8.863,0,0,0,3.81,7.007,8.71,8.71,0,0,0,7.784,1.188l.038-.013.049,0a9.3,9.3,0,0,1,4.791.681,10.136,10.136,0,0,1,3.782,3.042l.034.042.026.055a8.636,8.636,0,0,0,2.538,3.148,8.51,8.51,0,0,0,3.7,1.641l-.043-.009.5.075c.171.017.359.049.516.056a8.63,8.63,0,0,0,.979.017,8.421,8.421,0,0,0,1.953-.306,8.526,8.526,0,0,0,3.434-1.892l.044-.04.061-.036a9.4,9.4,0,0,1,4.747-1.344,10.25,10.25,0,0,1,4.755,1.275l.067.035.055.049a8.556,8.556,0,0,0,13.372-3l.028-.065.046-.064a9.565,9.565,0,0,1,3.835-3.171,10.358,10.358,0,0,1,4.89-.768l.079,0,.078.023a8.4,8.4,0,0,0,3.9.215,8.567,8.567,0,0,0,7.014-8.358v-.079l.017-.078a9.657,9.657,0,0,1,2.249-4.465,10.407,10.407,0,0,1,4.172-2.683l.079-.029.075-.009A8.435,8.435,0,0,0,123.4,115.3a8.526,8.526,0,0,0,.429-7.643l-.028-.064-.015-.07a9.639,9.639,0,0,1,.229-4.983,10.378,10.378,0,0,1,2.713-4.15l.054-.052.061-.036a8.713,8.713,0,0,0,1.382-13.752l-.045-.041-.033-.046a9.5,9.5,0,0,1-1.765-4.6,10.3,10.3,0,0,1,.812-4.828l.023-.056.029-.04a8.867,8.867,0,0,0-4.37-13.412l-.038-.013-.029-.017a9.252,9.252,0,0,1-3.381-3.414,10.033,10.033,0,0,1-1.163-4.642v-.03l.005-.023a9.116,9.116,0,0,0-9.7-10.856,9.111,9.111,0,0,1,7.761,2.877,9.245,9.245,0,0,1,2.152,3.734,9.452,9.452,0,0,1,.244,4.333l0-.053a9.488,9.488,0,0,0,1.2,4.371,8.6,8.6,0,0,0,3.228,3.1l-.067-.03a9.46,9.46,0,0,1,6.087,6.04,9.567,9.567,0,0,1,.446,4.42,9.7,9.7,0,0,1-1.593,4.162l.051-.1a9.273,9.273,0,0,0-.679,4.369,8.417,8.417,0,0,0,1.632,4.057l-.078-.088a9.738,9.738,0,0,1,3.175,8.174,9.593,9.593,0,0,1-1.422,4.3,9.8,9.8,0,0,1-3.211,3.19l.114-.089a9.1,9.1,0,0,0-2.37,3.641,8.311,8.311,0,0,0-.168,4.308l-.043-.133a9.9,9.9,0,0,1,.824,4.477,9.9,9.9,0,0,1-8.593,9.348l.154-.037a8.987,8.987,0,0,0-3.606,2.328,8.193,8.193,0,0,0-1.887,3.815l.017-.158a9.963,9.963,0,0,1-1.055,4.468,9.8,9.8,0,0,1-2.963,3.489,9.993,9.993,0,0,1-4.192,1.81,9.8,9.8,0,0,1-4.553-.273l.157.029a8.982,8.982,0,0,0-4.245.633,8.192,8.192,0,0,0-3.294,2.71l.075-.129a9.84,9.84,0,0,1-2.783,3.623,9.822,9.822,0,0,1-12.669-.213l.121.084a8.988,8.988,0,0,0-4.166-1.15,8.33,8.33,0,0,0-4.138,1.15l.1-.075a9.7,9.7,0,0,1-6.166,2.417,9.436,9.436,0,0,1-1.134-.04c-.194-.014-.355-.044-.534-.066l-.542-.088.021,0-.064-.012a9.478,9.478,0,0,1-2.137-.7,9.64,9.64,0,0,1-4.722-4.752l.059.1a9.205,9.205,0,0,0-3.389-2.819,8.411,8.411,0,0,0-4.337-.673l.086-.018a9.495,9.495,0,0,1-4.4.305,9.265,9.265,0,0,1-4.044-1.721,9.375,9.375,0,0,1-2.855-3.328,9.5,9.5,0,0,1-1.047-4.243l.008.057a9.578,9.578,0,0,0-1.98-4.082,8.7,8.7,0,0,0-3.783-2.5l.03.007a9.129,9.129,0,0,1-7.162-5.136" transform="translate(-12.182 -25.469)" fill="#3c5756"/>
                  <path id="Trazado_611028" data-name="Trazado 611028" d="M83.8,5.449a9.116,9.116,0,0,0-8.053.6l-.013.008-.02.006a9.058,9.058,0,0,1-4.708.371,9.933,9.933,0,0,1-4.268-2.109L66.712,4.3l-.026-.034A8.8,8.8,0,0,0,59.54.86,8.632,8.632,0,0,0,52.6,4.5l-.028.041-.048.043a9.394,9.394,0,0,1-4.323,2.3,10.249,10.249,0,0,1-4.892-.231l-.061-.017-.068-.036a8.544,8.544,0,0,0-7.667-.232,8.484,8.484,0,0,0-4.782,5.984l-.014.068-.033.072a9.6,9.6,0,0,1-3.09,3.9,10.379,10.379,0,0,1-4.623,1.78l-.08.012-.08-.007a8.624,8.624,0,0,0-8.878,6.3,8.515,8.515,0,0,0-.126,3.911l.015.075v.074a9.686,9.686,0,0,1-1.258,4.835,10.358,10.358,0,0,1-3.514,3.5l-.07.044-.07.023A8.493,8.493,0,0,0,3.58,42.418c-.085.3-.176.644-.251.992a9.265,9.265,0,0,0-.137.969,8.557,8.557,0,0,0,.067,1.988A8.693,8.693,0,0,0,4.731,50.04l.041.058.024.055a9.576,9.576,0,0,1,.768,4.878,10.291,10.291,0,0,1-1.8,4.559l-.038.056-.039.036A8.72,8.72,0,0,0,.933,67.038a8.865,8.865,0,0,0,4.231,6.717l.035.02.022.022a9.187,9.187,0,0,1,2.553,4.035,10.022,10.022,0,0,1,.149,4.741l0,.023-.007.014a9.218,9.218,0,0,0-.425,6.12,9.926,9.926,0,0,0,.784,1.948,10.021,10.021,0,0,1-.875-1.92,9.208,9.208,0,0,1,.2-6.28l-.01.037A9.6,9.6,0,0,0,7.3,77.982a8.606,8.606,0,0,0-2.52-3.7l.057.042A9.33,9.33,0,0,1,1.6,71.314,9.521,9.521,0,0,1,.081,67.138a9.656,9.656,0,0,1,2.9-8.214l-.078.092a9.223,9.223,0,0,0,1.535-4.107,8.386,8.386,0,0,0-.769-4.264l.065.113a9.73,9.73,0,0,1-1.727-4.2,9.871,9.871,0,0,1-.092-2.287,10.311,10.311,0,0,1,.158-1.154c.075-.351.159-.7.27-1.087a9.814,9.814,0,0,1,6.126-6.383l-.141.068a8.983,8.983,0,0,0,3.041-3.052,8.262,8.262,0,0,0,1.039-4.146l.015.149a9.959,9.959,0,0,1,.117-4.574,9.856,9.856,0,0,1,10.389-7.335l-.161.005a9,9,0,0,0,4.024-1.5,8.227,8.227,0,0,0,2.667-3.34l-.046.14a9.867,9.867,0,0,1,1.967-4.111,9.688,9.688,0,0,1,3.594-2.767A9.918,9.918,0,0,1,39.418,4.3a9.609,9.609,0,0,1,4.353,1.218l-.128-.052a9.078,9.078,0,0,0,4.335.3A8.321,8.321,0,0,0,51.846,3.8l-.076.084A9.63,9.63,0,0,1,55.2,1.006a9.764,9.764,0,0,1,8.643.006A9.323,9.323,0,0,1,67.2,3.873l-.052-.054A9.381,9.381,0,0,0,71.11,5.945a8.64,8.64,0,0,0,4.5-.21l-.033.014a9.132,9.132,0,0,1,4.095-1.13,9.256,9.256,0,0,1,4.126.829" transform="translate(0 0)" fill="#3c5756"/>
                </g>
              </g>
            </g>
          </g>
        </g>
        <g id="Grupo_1074144" data-name="Grupo 1074144" transform="translate(23.322 23.326)">
          <rect id="Rectángulo_378411" data-name="Rectángulo 378411" width="73.516" height="73.515" transform="translate(0 0)" fill="none"/>
        </g>
      </g>
    </g>
    <g id="Grupo_1099662" data-name="Grupo 1099662" transform="translate(832.884 16023.961)">
      <g id="Grupo_1099661" data-name="Grupo 1099661" clip-path="url(#clip-path-4)">
        <path id="Trazado_874450" data-name="Trazado 874450" d="M75.34,56.195q-10.184,0-20.369,0c-1.7,0-1.981-.276-1.985-1.93q-.01-4.654,0-9.308a15.458,15.458,0,0,1,11.937-15.2,14.732,14.732,0,0,0,2.317-.686c.985-.425,2.6-.169,2.322-2.1-.162-1.12.27-2.353-.808-3.258a2.7,2.7,0,0,1-.611-.882c-.725-1.471-1-3.228-2.826-3.958a1.586,1.586,0,0,1-.731-1.387c-.09-2.379-.9-4.656-.837-7.069.131-5,2.55-8.4,7.347-9.72a18.036,18.036,0,0,1,11.013.345,8.944,8.944,0,0,1,6.185,7.92c.353,2.912-.415,5.706-.974,8.517a1.816,1.816,0,0,1-.534,1.061c-1.493,1.089-2,2.772-2.767,4.311a3.632,3.632,0,0,1-.939,1.3c-1.293.967-.907,2.316-.948,3.578-.018.55.452.6.8.776a33.107,33.107,0,0,0,4.254,1.66A15.369,15.369,0,0,1,97.766,44.759c.02,3.147.008,6.295,0,9.443,0,1.751-.253,1.992-2.059,1.993q-10.185,0-20.369,0m-2.947-16.2c-1.364.6-2.466,1.1-3.575,1.578-1.444.625-1.957.393-2.331-1.089-.591-2.346-1.175-4.694-1.723-7.05-.188-.807-.409-1.137-1.336-.724a13.059,13.059,0,0,0-7.676,8.824c-.753,2.733-.316,5.541-.373,8.314-.026,1.278-.6,3.03.276,3.716.818.642,2.491.163,3.784.241.805.049,1.115-.2,1.081-1.048-.062-1.57-.011-3.145-.02-4.718,0-.845,0-1.758,1.124-1.777,1.2-.02,1.24.944,1.248,1.831.01,1.123,0,2.247,0,3.37,0,2.331,0,2.331,2.337,2.331h8.532c-1.1-1.65-2.015-3.074-2.985-4.462a2.366,2.366,0,0,1-.347-2.261c.7-2.258,1.283-4.551,1.981-7.075m5.191,13.8c3.369,0,6.38-.018,9.391.013.725.008.924-.27.912-.947-.03-1.708-.021-3.418,0-5.126.011-.781.257-1.484,1.2-1.481s1.172.658,1.167,1.476c-.01,1.664.035,3.329-.017,4.991-.025.8.178,1.151,1.042,1.091a19.389,19.389,0,0,1,2.965,0c.993.084,1.191-.332,1.173-1.233-.054-2.652.032-5.307-.035-7.959-.134-5.289-2.695-9.069-7.3-11.572-1.058-.575-1.423-.3-1.675.817-.56,2.493-1.235,4.96-1.885,7.432-.4,1.514-1.057,1.76-2.46.954-.834-.48-1.663-.97-2.826-1.651.641,2.307,1.122,4.254,1.735,6.159a2.911,2.911,0,0,1-.525,2.979c-.963,1.214-1.8,2.531-2.861,4.054M76.063,25.233a7.354,7.354,0,0,0,6.756-5.6,2.272,2.272,0,0,1,.668-1.415c2.073-1.686,2.065-1.693.812-3.989-.172-.315-.313-.646-.464-.971A7.685,7.685,0,0,0,79.619,9.3a15.4,15.4,0,0,0-7.544-.873c-.49.05-.7.237-.753.735a7.52,7.52,0,0,1-2.741,4.648,5.868,5.868,0,0,0-1.421,1.6c-.667,1.367-.431,2.016,1.024,2.356.944.221,1.162.751,1.268,1.607a7.162,7.162,0,0,0,6.612,5.859m9.764-13.441c.724-4.431-1.186-7.556-5.249-8.759a16.669,16.669,0,0,0-8.525-.163c-4.508,1.026-6.719,4.663-5.647,9.607a5.221,5.221,0,0,0,2.608-4A2.648,2.648,0,0,1,71.536,6.09c5.622-.477,10.8.255,14.291,5.7m-7.1,35.9c-.019-.087-.035-.176-.059-.262-.718-2.582-1.451-5.161-2.144-7.75-.117-.437-.295-.524-.725-.548-.584-.033-.8.25-.929.722-.692,2.5-1.377,5-2.087,7.49a1.1,1.1,0,0,0,.159,1.005c.753,1.112,1.507,2.223,2.238,3.35.333.514.588.586.962.025.746-1.117,1.532-2.207,2.309-3.3a1.01,1.01,0,0,0,.277-.728m.876-20.859a7.861,7.861,0,0,1-6.165.251c-1.58-.661-1.593-.64-1.531,1.061a2.143,2.143,0,0,0,.13.919c1.187,2.142,2.407,4.265,3.7,6.538,1.222-2.137,2.3-4.1,3.46-6.015a3.546,3.546,0,0,0,.406-2.754m2.158,3.755a.652.652,0,0,0-.7.437c-1,1.751-1.983,3.515-3.009,5.253-.317.537-.141.794.327,1.06,1.131.643,2.262,1.288,3.361,1.981.645.407.819.172.973-.465.516-2.133,1.08-4.255,1.632-6.379.066-.252.308-.589.028-.73-.876-.443-1.794-.8-2.612-1.157M66.887,32.3c.373,1.547.782,3.248,1.194,4.948.453,1.866.454,1.867,2.263,1.066.861-.382,1.713-.787,2.585-1.143.6-.243.71-.532.365-1.111-.942-1.581-1.832-3.193-2.742-4.793-.207-.364-.4-.684-.939-.487-.8.3-1.616.539-2.43.791-.308.095-.472.243-.295.729" transform="translate(-38.681 0)" fill="#3c5756"/>
        <path id="Trazado_874451" data-name="Trazado 874451" d="M188.69,44.321a11.234,11.234,0,0,1,22.468.124,11.234,11.234,0,0,1-22.468-.124m20.107.107a8.872,8.872,0,0,0-8.829-8.97,8.876,8.876,0,1,0-.029,17.75,8.811,8.811,0,0,0,8.858-8.781" transform="translate(-137.767 -24.204)" fill="#3c5756"/>
        <path id="Trazado_874452" data-name="Trazado 874452" d="M22.468,44.384A11.234,11.234,0,1,1,11.3,33.15,11.246,11.246,0,0,1,22.468,44.384M11.259,53.207a8.874,8.874,0,1,0-8.9-8.873,8.815,8.815,0,0,0,8.9,8.873" transform="translate(0 -24.203)" fill="#3c5756"/>
        <path id="Trazado_874453" data-name="Trazado 874453" d="M215.173,67.045a1.385,1.385,0,0,1-1.159-.706,1.061,1.061,0,0,1,.165-1.246c.711-.908,2.236-1.549,2.175-2.541-.053-.856-1.4-1.618-2.145-2.451a1.15,1.15,0,0,1,1.619-1.625,22.8,22.8,0,0,1,1.915,1.886c.448.5.756.444,1.174-.02.569-.632,1.174-1.235,1.8-1.812a1.119,1.119,0,0,1,1.68-.04,1.091,1.091,0,0,1-.009,1.666c-.72.847-2.152,1.5-2.109,2.448.037.813,1.335,1.561,2.059,2.351a1.089,1.089,0,0,1,.058,1.667,1.11,1.11,0,0,1-1.672.029c-.848-.708-1.482-2.147-2.442-2.087-.824.052-1.56,1.336-2.358,2.049a3.864,3.864,0,0,1-.75.432" transform="translate(-156.157 -42.441)" fill="#3c5756"/>
        <path id="Trazado_874454" data-name="Trazado 874454" d="M32.49,60.326a1.6,1.6,0,0,1-.587,1.027c-1.841,1.841-3.691,3.672-5.52,5.525A1.321,1.321,0,0,1,24.2,66.9c-.68-.715-1.4-1.4-2.085-2.1A1.165,1.165,0,0,1,22,63.025c.6-.636,1.18-.385,1.76.117,1.62,1.4,1.628,1.393,3.17-.152q1.712-1.714,3.426-3.426a1.212,1.212,0,0,1,1.468-.321,1.116,1.116,0,0,1,.661,1.082" transform="translate(-15.8 -43.162)" fill="#3c5756"/>
      </g>
    </g>
  </g>
</svg>
