<svg xmlns="http://www.w3.org/2000/svg" xmlns:xlink="http://www.w3.org/1999/xlink" width="145" height="145" viewBox="0 0 145 145">
  <defs>
    <clipPath id="clip-path">
      <path id="Trazado_611025" data-name="Trazado 611025" d="M72.628,1.073a11,11,0,0,0-8.919,4.552A10.54,10.54,0,0,1,53.171,7.88a10.955,10.955,0,0,0-9.324-.6c-.156.058-.312.119-.466.184l-.12.05a11.051,11.051,0,0,0-6.3,7.8,10.581,10.581,0,0,1-8.714,6.368,10.966,10.966,0,0,0-9.2,3.715,11.091,11.091,0,0,0-2.6,9.664,10.617,10.617,0,0,1-5.353,9.395,11.053,11.053,0,0,0-6.932,7.179c-.011.033-.016.065-.027.094-.049.174-.1.347-.14.521A11.1,11.1,0,0,0,5.7,61.525,10.665,10.665,0,0,1,4.61,72.3,11.249,11.249,0,0,0,6.623,90.121a10.661,10.661,0,0,1,3.332,10.292,11.1,11.1,0,0,0,.377,9.374c.076.162.16.313.246.466.018.033.033.066.049.094a11,11,0,0,0,8.387,5.485,10.618,10.618,0,0,1,7.21,8.042,11.159,11.159,0,0,0,14.481,10.394,10.542,10.542,0,0,1,9.859,4.364A11.023,11.023,0,0,0,58.4,144.81c.031.008.062.008.094.016.175.03.349.063.531.087a10.986,10.986,0,0,0,9-2.671A10.514,10.514,0,0,1,78.8,142.2a11.147,11.147,0,0,0,17.436-3.876,10.544,10.544,0,0,1,9.838-4.4,10.96,10.96,0,0,0,9.241-1.359c.147-.091.29-.19.43-.29.031-.021.067-.041.1-.065a11.079,11.079,0,0,0,4.553-8.954,10.606,10.606,0,0,1,7.207-8.041,11.205,11.205,0,0,0,8.775-15.557,10.656,10.656,0,0,1,3.316-10.334,11.23,11.23,0,0,0,1.717-17.792,10.671,10.671,0,0,1-1.151-10.8,11.221,11.221,0,0,0-5.632-16.957,10.637,10.637,0,0,1-5.427-9.394,11.092,11.092,0,0,0-2.721-9.578,10.96,10.96,0,0,0-9.29-3.608,10.583,10.583,0,0,1-8.744-6.334,11.053,11.053,0,0,0-6.381-7.675.884.884,0,0,0-.107-.042c-.156-.066-.32-.128-.48-.19a10.975,10.975,0,0,0-9.364.732A10.528,10.528,0,0,1,81.563,5.477a11,11,0,0,0-8.778-4.405h-.157" transform="translate(-1.105 -1.072)" fill="#e36849"/>
    </clipPath>
    <clipPath id="clip-path-2">
      <path id="Trazado_611025-2" data-name="Trazado 611025" d="M72.628,1.073a11,11,0,0,0-8.919,4.552A10.54,10.54,0,0,1,53.171,7.88a10.955,10.955,0,0,0-9.324-.6c-.156.058-.312.119-.466.184l-.12.05a11.051,11.051,0,0,0-6.3,7.8,10.581,10.581,0,0,1-8.714,6.368,10.966,10.966,0,0,0-9.2,3.715,11.091,11.091,0,0,0-2.6,9.664,10.617,10.617,0,0,1-5.353,9.395,11.053,11.053,0,0,0-6.932,7.179c-.011.033-.016.065-.027.094-.049.174-.1.347-.14.521A11.1,11.1,0,0,0,5.7,61.525,10.665,10.665,0,0,1,4.61,72.3,11.249,11.249,0,0,0,6.623,90.121a10.661,10.661,0,0,1,3.332,10.292,11.1,11.1,0,0,0,.377,9.374c.076.162.16.313.246.466.018.033.033.066.049.094a11,11,0,0,0,8.387,5.485,10.618,10.618,0,0,1,7.21,8.042,11.159,11.159,0,0,0,14.481,10.394,10.542,10.542,0,0,1,9.859,4.364A11.023,11.023,0,0,0,58.4,144.81c.031.008.062.008.094.016.175.03.349.063.531.087a10.986,10.986,0,0,0,9-2.671A10.514,10.514,0,0,1,78.8,142.2a11.147,11.147,0,0,0,17.436-3.876,10.544,10.544,0,0,1,9.838-4.4,10.96,10.96,0,0,0,9.241-1.359c.147-.091.29-.19.43-.29.031-.021.067-.041.1-.065a11.079,11.079,0,0,0,4.553-8.954,10.606,10.606,0,0,1,7.207-8.041,11.205,11.205,0,0,0,8.775-15.557,10.656,10.656,0,0,1,3.316-10.334,11.23,11.23,0,0,0,1.717-17.792,10.671,10.671,0,0,1-1.151-10.8,11.221,11.221,0,0,0-5.632-16.957,10.637,10.637,0,0,1-5.427-9.394,11.092,11.092,0,0,0-2.721-9.578,10.96,10.96,0,0,0-9.29-3.608,10.583,10.583,0,0,1-8.744-6.334,11.053,11.053,0,0,0-6.381-7.675.884.884,0,0,0-.107-.042c-.156-.066-.32-.128-.48-.19a10.975,10.975,0,0,0-9.364.732A10.528,10.528,0,0,1,81.563,5.477a11,11,0,0,0-8.778-4.405h-.157" transform="translate(-1.105 -1.072)" fill="#fff"/>
    </clipPath>
    <clipPath id="clip-path-3">
      <rect id="Rectángulo_378432" data-name="Rectángulo 378432" width="145" height="145" fill="none"/>
    </clipPath>
    <clipPath id="clip-path-4">
      <rect id="Rectángulo_378716" data-name="Rectángulo 378716" width="72.224" height="72.205" fill="#fef0d7"/>
    </clipPath>
  </defs>
  <g id="Grupo_1099908" data-name="Grupo 1099908" transform="translate(-1148 -6634)">
    <g id="Grupo_1099404" data-name="Grupo 1099404" transform="translate(828 -2917)">
      <g id="Grupo_1074143" data-name="Grupo 1074143" transform="translate(320 9551)">
        <g id="Grupo_1074028" data-name="Grupo 1074028" transform="translate(0)">
          <g id="Grupo_1074021" data-name="Grupo 1074021" transform="translate(0 0)">
            <g id="Grupo_1074018" data-name="Grupo 1074018" transform="translate(0.458 0.445)">
              <g id="Grupo_1074017" data-name="Grupo 1074017" clip-path="url(#clip-path)">
                <path id="Trazado_611056" data-name="Trazado 611056" d="M0,0H159.982V159.745H0Z" transform="translate(-6.043 155.081) rotate(-90)" fill="#e36849"/>
              </g>
            </g>
            <g id="Grupo_1074020" data-name="Grupo 1074020">
              <g id="Grupo_1074019" data-name="Grupo 1074019" clip-path="url(#clip-path-3)">
                <path id="Trazado_611027" data-name="Trazado 611027" d="M20.249,131.032a10.9,10.9,0,0,0,3.616,4.062,11.024,11.024,0,0,0,5.073,1.81h.016l.019.007a10.9,10.9,0,0,1,4.815,3.022,12.1,12.1,0,0,1,2.625,5.093l.008.031v.037a10.709,10.709,0,0,0,4.6,8.467A10.524,10.524,0,0,0,50.432,155l.046-.016.059-.006a11.233,11.233,0,0,1,5.789.823,12.248,12.248,0,0,1,4.569,3.676l.041.051.031.067a10.436,10.436,0,0,0,3.067,3.8,10.284,10.284,0,0,0,4.475,1.982l-.052-.011.607.091c.207.021.434.059.623.068a10.424,10.424,0,0,0,1.183.021,10.176,10.176,0,0,0,2.36-.37,10.3,10.3,0,0,0,4.15-2.287l.053-.048.074-.043a11.357,11.357,0,0,1,5.736-1.625,12.385,12.385,0,0,1,5.746,1.54l.081.042.067.059a10.338,10.338,0,0,0,16.157-3.62l.034-.078.055-.077a11.557,11.557,0,0,1,4.634-3.831,12.516,12.516,0,0,1,5.909-.928l.1.006.095.028a10.15,10.15,0,0,0,4.707.26,10.352,10.352,0,0,0,8.475-10.1v-.1l.021-.095a11.669,11.669,0,0,1,2.717-5.4,12.575,12.575,0,0,1,5.041-3.242l.1-.035.091-.011a10.192,10.192,0,0,0,7.623-5.136,10.3,10.3,0,0,0,.518-9.236l-.033-.077-.018-.084a11.647,11.647,0,0,1,.277-6.021,12.54,12.54,0,0,1,3.278-5.015l.065-.063.074-.044a10.529,10.529,0,0,0,1.669-16.617l-.054-.05-.04-.056a11.479,11.479,0,0,1-2.132-5.553,12.44,12.44,0,0,1,.982-5.834l.028-.067.035-.049a10.714,10.714,0,0,0-5.28-16.206l-.046-.016-.036-.021a11.179,11.179,0,0,1-4.085-4.125,12.123,12.123,0,0,1-1.405-5.609V55.69l.006-.028a11.015,11.015,0,0,0-11.72-13.118,11.009,11.009,0,0,1,9.378,3.476,11.17,11.17,0,0,1,2.6,4.512,11.421,11.421,0,0,1,.3,5.236l.005-.064a11.464,11.464,0,0,0,1.449,5.282,10.389,10.389,0,0,0,3.9,3.749l-.08-.036a11.431,11.431,0,0,1,7.355,7.3,11.56,11.56,0,0,1,.539,5.341,11.717,11.717,0,0,1-1.925,5.029l.062-.116a11.205,11.205,0,0,0-.821,5.28,10.17,10.17,0,0,0,1.972,4.9l-.094-.106a11.766,11.766,0,0,1,3.837,9.877,11.592,11.592,0,0,1-1.719,5.194,11.84,11.84,0,0,1-3.88,3.855l.138-.107a11,11,0,0,0-2.864,4.4,10.042,10.042,0,0,0-.2,5.206l-.051-.161a11.966,11.966,0,0,1,1,5.409,11.961,11.961,0,0,1-10.383,11.3l.186-.045a10.859,10.859,0,0,0-4.357,2.812,9.9,9.9,0,0,0-2.28,4.61l.021-.191a12.039,12.039,0,0,1-1.275,5.4,11.841,11.841,0,0,1-3.581,4.216,12.075,12.075,0,0,1-5.066,2.187,11.844,11.844,0,0,1-5.5-.33l.189.035a10.853,10.853,0,0,0-5.129.765,9.9,9.9,0,0,0-3.98,3.275l.09-.155a11.89,11.89,0,0,1-3.363,4.378,11.869,11.869,0,0,1-15.308-.258l.147.1a10.86,10.86,0,0,0-5.034-1.39,10.066,10.066,0,0,0-5,1.39l.126-.09a11.725,11.725,0,0,1-7.451,2.92,11.4,11.4,0,0,1-1.371-.048c-.235-.017-.429-.054-.646-.079l-.655-.107.026,0-.078-.014a11.452,11.452,0,0,1-2.583-.843,11.648,11.648,0,0,1-5.706-5.742l.072.117a11.123,11.123,0,0,0-4.095-3.406,10.164,10.164,0,0,0-5.241-.813l.1-.022a11.473,11.473,0,0,1-5.317.369,11.2,11.2,0,0,1-4.887-2.08,11.328,11.328,0,0,1-3.45-4.022,11.473,11.473,0,0,1-1.265-5.127l.01.069a11.574,11.574,0,0,0-2.392-4.932,10.512,10.512,0,0,0-4.571-3.017l.036.009a11.03,11.03,0,0,1-8.654-6.206" transform="translate(-10.501 -21.928)" fill="#ffc278"/>
                <path id="Trazado_611028" data-name="Trazado 611028" d="M101.257,6.584a11.015,11.015,0,0,0-9.731.72l-.016.01-.024.008A10.945,10.945,0,0,1,85.8,7.77a12,12,0,0,1-5.157-2.548L80.61,5.2l-.031-.041a10.635,10.635,0,0,0-8.634-4.115,10.43,10.43,0,0,0-8.382,4.395l-.034.049-.058.052a11.351,11.351,0,0,1-5.224,2.774,12.384,12.384,0,0,1-5.911-.279l-.073-.021-.082-.044a10.324,10.324,0,0,0-9.264-.28,10.251,10.251,0,0,0-5.778,7.23L37.122,15l-.039.088A11.6,11.6,0,0,1,33.348,19.8a12.541,12.541,0,0,1-5.587,2.15l-.1.015-.1-.009A10.42,10.42,0,0,0,16.839,29.57a10.289,10.289,0,0,0-.152,4.726l.018.09v.09a11.7,11.7,0,0,1-1.52,5.842,12.515,12.515,0,0,1-4.246,4.228l-.085.054-.084.028a10.262,10.262,0,0,0-6.444,6.627c-.1.358-.213.779-.3,1.2a11.2,11.2,0,0,0-.166,1.171,10.34,10.34,0,0,0,.081,2.4,10.5,10.5,0,0,0,1.779,4.438l.049.07.028.066A11.571,11.571,0,0,1,6.722,66.5,12.436,12.436,0,0,1,4.552,72l-.046.068-.048.044A10.537,10.537,0,0,0,1.127,81,10.711,10.711,0,0,0,6.24,89.12l.042.025.027.026a11.1,11.1,0,0,1,3.084,4.876,12.11,12.11,0,0,1,.18,5.728l0,.028-.008.017a11.138,11.138,0,0,0-.514,7.395,11.994,11.994,0,0,0,.948,2.354,12.108,12.108,0,0,1-1.057-2.32,11.127,11.127,0,0,1,.246-7.588l-.013.044a11.6,11.6,0,0,0-.347-5.477,10.4,10.4,0,0,0-3.045-4.475l.069.051a11.274,11.274,0,0,1-3.909-3.634A11.5,11.5,0,0,1,.1,81.125,11.667,11.667,0,0,1,3.607,71.2l-.094.111a11.144,11.144,0,0,0,1.854-4.962A10.134,10.134,0,0,0,4.439,61.2l.078.137a11.757,11.757,0,0,1-2.086-5.07A11.927,11.927,0,0,1,2.319,53.5a12.46,12.46,0,0,1,.191-1.394c.09-.424.192-.84.326-1.313a11.858,11.858,0,0,1,7.4-7.713l-.17.082a10.854,10.854,0,0,0,3.675-3.687A9.984,9.984,0,0,0,15,34.464l.018.18a12.034,12.034,0,0,1,.141-5.527A11.909,11.909,0,0,1,27.71,20.254l-.194.006a10.874,10.874,0,0,0,4.863-1.818A9.941,9.941,0,0,0,35.6,14.406l-.055.169a11.923,11.923,0,0,1,2.376-4.968,11.706,11.706,0,0,1,4.343-3.343A11.984,11.984,0,0,1,47.63,5.2a11.61,11.61,0,0,1,5.26,1.471l-.155-.063a10.97,10.97,0,0,0,5.238.367A10.054,10.054,0,0,0,62.647,4.6l-.091.1A11.636,11.636,0,0,1,66.7,1.215a11.8,11.8,0,0,1,10.444.007A11.266,11.266,0,0,1,81.2,4.68l-.063-.065a11.335,11.335,0,0,0,4.783,2.569,10.44,10.44,0,0,0,5.439-.254l-.04.017a11.035,11.035,0,0,1,4.948-1.365,11.184,11.184,0,0,1,4.986,1" transform="translate(0 0)" fill="#ffc278"/>
              </g>
            </g>
          </g>
        </g>
      </g>
      <g id="Grupo_1074144" data-name="Grupo 1074144" transform="translate(347.117 9578.125)">
        <rect id="Rectángulo_378411" data-name="Rectángulo 378411" width="91.063" height="91.062" transform="translate(0)" fill="none"/>
      </g>
    </g>
    <g id="Grupo_1099432" data-name="Grupo 1099432" transform="translate(1184.388 6670.384)">
      <g id="Grupo_1099431" data-name="Grupo 1099431" clip-path="url(#clip-path-4)">
        <path id="Trazado_873587" data-name="Trazado 873587" d="M29.97,35.863a4.6,4.6,0,0,1,3.361,1.356c.752.737,1.514,1.466,2.231,2.236.406.436.684.42,1.093,0,1.362-1.4,2.776-2.756,4.137-4.161a4.754,4.754,0,0,1,5.032-1.424,4.5,4.5,0,0,1,3.351,3.974c.055.4.164.554.589.624a4.633,4.633,0,0,1,4.2,4.19c.069.459.314.5.667.572A4.789,4.789,0,0,1,58.761,47.4c.076.468.328.6.745.665A4.565,4.565,0,0,1,63.345,51.3a4.459,4.459,0,0,1-1.417,5.1c-1.668,1.382-2.5,2.745-1.239,4.871a6.722,6.722,0,0,1,.609,3.186,3.083,3.083,0,0,0,1.1,2.209c3,2.959,5.961,5.948,8.938,8.926.133.133.272.26.4.4a1.349,1.349,0,0,1,.019,2.09,1.333,1.333,0,0,1-2.01-.1c-1.24-1.206-2.454-2.438-3.678-3.661-1.075-1.074-1.075-1.075-2.178-.036-1.01.95-2.212.78-2.607-.367a1.513,1.513,0,0,1,.737-1.738c.811-.646.993-1.169.058-1.876-.8-.605-1.352-1.923-2.217-1.932s-1.5,1.229-2.21,1.937c-2.938,2.91-5.84,5.856-8.787,8.757-.522.514-.576.831,0,1.324a23.91,23.91,0,0,1,1.919,1.908c.387.419.689.5,1.087.02a5.511,5.511,0,0,1,.979-.93,1.283,1.283,0,0,1,1.828.174,1.26,1.26,0,0,1,.134,1.74,3.879,3.879,0,0,1-.286.347c-1.117,1.261-1.116,1.26.051,2.426L63.9,95.419c.454.454.965.9.83,1.628a1.4,1.4,0,0,1-.981,1.138,1.513,1.513,0,0,1-1.615-.53q-3.31-3.312-6.623-6.621-5.745-5.744-11.479-11.5a1.727,1.727,0,0,0-1.574-.578A9.994,9.994,0,0,1,36.2,77.532a19.232,19.232,0,0,1-2.728-1.791c-1.029-.886-1.743-.581-2.568.255-2.958,3-5.95,5.96-8.928,8.937Q15.791,91.114,9.61,97.294a5.177,5.177,0,0,1-.574.54,1.342,1.342,0,0,1-1.929-.111,1.33,1.33,0,0,1-.051-1.851,7.163,7.163,0,0,1,.7-.732Q15.133,87.761,22.526,80.4c.576-.57.666-.866.034-1.481q-4.4-4.291-8.693-8.694c-.562-.575-.836-.528-1.372.017-3.163,3.217-6.366,6.4-9.562,9.58a3.481,3.481,0,0,1-.949.78A1.291,1.291,0,0,1,.29,80.121a1.352,1.352,0,0,1,.2-1.845c1.023-1.051,2.065-2.083,3.1-3.12q6.023-6.022,12.058-12.032c.493-.488.624-.8.024-1.294a13.51,13.51,0,0,1-1.51-1.519A4.739,4.739,0,0,1,15.3,52.947c.552-.326.8-.539.565-1.273a4.723,4.723,0,0,1,3.719-6.2c.585-.115.81-.282.912-.863a4.54,4.54,0,0,1,3.836-3.887.981.981,0,0,0,.961-.97,4.633,4.633,0,0,1,4.681-3.893m14.446.57a2.85,2.85,0,0,0-1.585.826c-1.345,1.367-2.687,2.738-4.078,4.057-.522.5-.513.779-.052,1.343a4.715,4.715,0,0,1-2.84,7.738.941.941,0,0,0-.9.9A4.534,4.534,0,0,1,31,55.2c-.445.077-.691.188-.785.733a4.7,4.7,0,0,1-4.068,4.1c-.507.1-.658.269-.731.758A4.475,4.475,0,0,1,23.086,64.2c-.6.33-.537.53-.1.958Q26.515,68.642,30,72.18a.849.849,0,0,0,1.157.239,8.316,8.316,0,0,1,3.711-.789,18.91,18.91,0,0,0,13.074-5.252c4.1-3.925,8.054-8.005,12.072-12.018a2.108,2.108,0,0,0,.71-1.243,1.864,1.864,0,0,0-.95-2,1.925,1.925,0,0,0-2.47.4q-2.208,2.18-4.391,4.386a1.453,1.453,0,0,1-2.186.254c-.679-.571-.6-1.441.2-2.25,1.4-1.423,2.819-2.819,4.216-4.241.983-1,1.085-2.164.3-2.994a2.071,2.071,0,0,0-3.081.226c-1.392,1.373-2.763,2.769-4.155,4.143-.861.85-1.6.951-2.254.344-.671-.626-.582-1.5.266-2.353,1.4-1.418,2.825-2.812,4.216-4.239.994-1.019,1.03-2.131.147-2.976a1.988,1.988,0,0,0-2.907.2c-.894.861-1.753,1.758-2.64,2.627-.861.844-1.612.936-2.269.3-.623-.6-.541-1.468.241-2.269.945-.969,1.928-1.9,2.854-2.89a1.819,1.819,0,0,0,.353-2.186,2.153,2.153,0,0,0-1.792-1.167M36.7,74.391a7.206,7.206,0,0,0,6.051,1.691A2.507,2.507,0,0,1,45.572,77.1c.471.6.795.509,1.3,0,3.671-3.713,7.374-7.394,11.063-11.088.26-.26.558-.484.554-.929a10.363,10.363,0,0,0-.981-4.256c-2.141,2.158-4.206,4.176-6.2,6.264a23.2,23.2,0,0,1-14.611,7.3M25.354,77.484c.126-.11.3-.247.455-.4.667-.661,1.3-1.359,2-1.981.508-.45.4-.736-.03-1.164q-4.445-4.4-8.843-8.849c-.469-.476-.773-.578-1.252-.036A23.845,23.845,0,0,1,15.7,67.048c-.475.424-.366.682.031,1.076q4.523,4.481,9.015,8.994c.154.154.271.37.608.366m4.388-38.819a1.941,1.941,0,0,0-1.557,1.174,1.818,1.818,0,0,0,.4,2.178c1.653,1.692,3.32,3.372,5.02,5.017a1.961,1.961,0,1,0,2.707-2.827c-1.6-1.64-3.231-3.246-4.854-4.862a2.186,2.186,0,0,0-1.714-.679M27.433,55.252a1.98,1.98,0,0,0-.383-1.11c-1.821-1.844-3.615-3.719-5.511-5.483a1.743,1.743,0,0,0-2.463.123,1.836,1.836,0,0,0-.243,2.55c1.777,1.884,3.624,3.706,5.49,5.5a1.754,1.754,0,0,0,2.02.185,1.935,1.935,0,0,0,1.091-1.767m4.788-4.724a1.826,1.826,0,0,0-.481-1.293c-1.769-1.785-3.522-3.587-5.344-5.317a1.927,1.927,0,0,0-2.719,2.707c1.754,1.849,3.569,3.641,5.408,5.405a1.683,1.683,0,0,0,2.093.181,1.926,1.926,0,0,0,1.043-1.682M17.784,55.146a1.818,1.818,0,0,0-1.857,1.13,1.869,1.869,0,0,0,.389,2.185c.91.948,1.843,1.874,2.785,2.789a2.031,2.031,0,0,0,2.906.255,2,2,0,0,0-.095-2.992c-.882-.922-1.8-1.809-2.708-2.708a1.826,1.826,0,0,0-1.421-.66" transform="translate(-0.012 -26.051)" fill="#fef0d7"/>
        <path id="Trazado_873588" data-name="Trazado 873588" d="M18.917,20.249a1.576,1.576,0,0,1-1.159-.516c-2.126-2.125-4.262-4.24-6.372-6.382-.751-.763-.773-1.575-.109-2.164a1.371,1.371,0,0,1,2.09.159q3.194,3.183,6.379,6.376a1.42,1.42,0,0,1,.372,1.739,1.345,1.345,0,0,1-1.2.787" transform="translate(-8.362 -8.342)" fill="#fef0d7"/>
        <path id="Trazado_873589" data-name="Trazado 873589" d="M275.077,10.844a1.414,1.414,0,0,1,1.241.832,1.259,1.259,0,0,1-.266,1.55c-.963,1-1.952,1.98-2.934,2.964-1.168,1.171-2.328,2.349-3.512,3.5-.774.754-1.567.805-2.181.2a1.426,1.426,0,0,1,.174-2.18c2.087-2.111,4.194-4.2,6.3-6.3a1.494,1.494,0,0,1,1.18-.569" transform="translate(-206.724 -8.394)" fill="#fef0d7"/>
        <path id="Trazado_873590" data-name="Trazado 873590" d="M69.863,3.921c0-.824-.025-1.65.007-2.473A1.335,1.335,0,0,1,71.261,0a1.311,1.311,0,0,1,1.41,1.421c.032,1.611.041,3.224-.009,4.833a1.3,1.3,0,0,1-1.434,1.391,1.344,1.344,0,0,1-1.361-1.476c-.026-.749-.005-1.5-.005-2.248" transform="translate(-54.085 0)" fill="#fef0d7"/>
        <path id="Trazado_873591" data-name="Trazado 873591" d="M240.161,3.727c0,.824.027,1.65-.008,2.473a1.333,1.333,0,0,1-1.389,1.446,1.311,1.311,0,0,1-1.408-1.421q-.063-2.416,0-4.834A1.3,1.3,0,0,1,238.793,0a1.345,1.345,0,0,1,1.364,1.477c.023.749,0,1.5,0,2.249" transform="translate(-183.752 -0.001)" fill="#fef0d7"/>
        <path id="Trazado_873592" data-name="Trazado 873592" d="M3.892,69.852c.787,0,1.576-.037,2.36.01a1.323,1.323,0,0,1,1.4,1.435,1.289,1.289,0,0,1-1.363,1.349c-1.647.045-3.3.042-4.945,0A1.28,1.28,0,0,1,0,71.276,1.329,1.329,0,0,1,1.419,69.86c.823-.038,1.649-.008,2.473-.008" transform="translate(0 -54.073)" fill="#fef0d7"/>
        <path id="Trazado_873593" data-name="Trazado 873593" d="M289.693,72.654c-.787,0-1.576.036-2.36-.008a1.4,1.4,0,1,1,.014-2.8c1.611-.032,3.224-.037,4.834,0a1.3,1.3,0,0,1,1.371,1.347,1.316,1.316,0,0,1-1.386,1.443c-.822.044-1.648.009-2.473.011" transform="translate(-221.366 -54.061)" fill="#fef0d7"/>
        <path id="Trazado_873594" data-name="Trazado 873594" d="M252.825,224.009a1.467,1.467,0,0,1,1.262,1.577,1.366,1.366,0,0,1-1.61,1.193,1.323,1.323,0,0,1-1.208-1.485,1.438,1.438,0,0,1,1.556-1.285" transform="translate(-194.546 -173.435)" fill="#fef0d7"/>
      </g>
    </g>
  </g>
</svg>
