<svg xmlns="http://www.w3.org/2000/svg" xmlns:xlink="http://www.w3.org/1999/xlink" width="120" height="120" viewBox="0 0 120 120">
  <defs>
    <clipPath id="clip-path">
      <path id="Trazado_611025" data-name="Trazado 611025" d="M60.2,1.073a9.086,9.086,0,0,0-7.37,3.762A8.709,8.709,0,0,1,44.126,6.7a9.052,9.052,0,0,0-7.7-.5c-.129.048-.258.1-.385.152l-.1.042a9.132,9.132,0,0,0-5.208,6.448,8.743,8.743,0,0,1-7.2,5.262,9.061,9.061,0,0,0-7.6,3.07,9.166,9.166,0,0,0-2.151,7.986,8.774,8.774,0,0,1-4.423,7.764,9.134,9.134,0,0,0-5.728,5.933c-.009.028-.014.054-.022.078-.041.144-.08.286-.116.43A9.17,9.17,0,0,0,4.9,51.028a8.813,8.813,0,0,1-.9,8.9A9.3,9.3,0,0,0,5.664,74.658a8.81,8.81,0,0,1,2.754,8.505,9.174,9.174,0,0,0,.312,7.746c.063.134.132.259.2.385.015.028.027.055.041.078A9.093,9.093,0,0,0,15.9,95.9a8.774,8.774,0,0,1,5.958,6.646,9.221,9.221,0,0,0,11.966,8.589,8.71,8.71,0,0,1,8.146,3.606,9.108,9.108,0,0,0,6.471,5.105c.026.006.051.006.078.013.145.025.288.052.438.072a9.077,9.077,0,0,0,7.439-2.208,8.687,8.687,0,0,1,8.9-.034,9.21,9.21,0,0,0,14.407-3.2,8.712,8.712,0,0,1,8.129-3.639,9.056,9.056,0,0,0,7.636-1.123c.121-.075.24-.157.355-.239.026-.017.055-.034.079-.054a9.155,9.155,0,0,0,3.762-7.4,8.764,8.764,0,0,1,5.955-6.644,9.26,9.26,0,0,0,7.25-12.855A8.806,8.806,0,0,1,115.614,74a9.281,9.281,0,0,0,1.419-14.7,8.818,8.818,0,0,1-.951-8.922,9.273,9.273,0,0,0-4.654-14.013,8.79,8.79,0,0,1-4.484-7.763,9.166,9.166,0,0,0-2.249-7.915A9.056,9.056,0,0,0,97.02,17.7a8.745,8.745,0,0,1-7.225-5.234,9.134,9.134,0,0,0-5.272-6.342.731.731,0,0,0-.088-.034c-.129-.054-.264-.106-.4-.157a9.068,9.068,0,0,0-7.737.605,8.7,8.7,0,0,1-8.714-1.827,9.088,9.088,0,0,0-7.253-3.64H60.2" transform="translate(-1.105 -1.072)" fill="#b0dfde"/>
    </clipPath>
    <clipPath id="clip-path-2">
      <path id="Trazado_611025-2" data-name="Trazado 611025" d="M60.2,1.073a9.086,9.086,0,0,0-7.37,3.762A8.709,8.709,0,0,1,44.126,6.7a9.052,9.052,0,0,0-7.7-.5c-.129.048-.258.1-.385.152l-.1.042a9.132,9.132,0,0,0-5.208,6.448,8.743,8.743,0,0,1-7.2,5.262,9.061,9.061,0,0,0-7.6,3.07,9.166,9.166,0,0,0-2.151,7.986,8.774,8.774,0,0,1-4.423,7.764,9.134,9.134,0,0,0-5.728,5.933c-.009.028-.014.054-.022.078-.041.144-.08.286-.116.43A9.17,9.17,0,0,0,4.9,51.028a8.813,8.813,0,0,1-.9,8.9A9.3,9.3,0,0,0,5.664,74.658a8.81,8.81,0,0,1,2.754,8.505,9.174,9.174,0,0,0,.312,7.746c.063.134.132.259.2.385.015.028.027.055.041.078A9.093,9.093,0,0,0,15.9,95.9a8.774,8.774,0,0,1,5.958,6.646,9.221,9.221,0,0,0,11.966,8.589,8.71,8.71,0,0,1,8.146,3.606,9.108,9.108,0,0,0,6.471,5.105c.026.006.051.006.078.013.145.025.288.052.438.072a9.077,9.077,0,0,0,7.439-2.208,8.687,8.687,0,0,1,8.9-.034,9.21,9.21,0,0,0,14.407-3.2,8.712,8.712,0,0,1,8.129-3.639,9.056,9.056,0,0,0,7.636-1.123c.121-.075.24-.157.355-.239.026-.017.055-.034.079-.054a9.155,9.155,0,0,0,3.762-7.4,8.764,8.764,0,0,1,5.955-6.644,9.26,9.26,0,0,0,7.25-12.855A8.806,8.806,0,0,1,115.614,74a9.281,9.281,0,0,0,1.419-14.7,8.818,8.818,0,0,1-.951-8.922,9.273,9.273,0,0,0-4.654-14.013,8.79,8.79,0,0,1-4.484-7.763,9.166,9.166,0,0,0-2.249-7.915A9.056,9.056,0,0,0,97.02,17.7a8.745,8.745,0,0,1-7.225-5.234,9.134,9.134,0,0,0-5.272-6.342.731.731,0,0,0-.088-.034c-.129-.054-.264-.106-.4-.157a9.068,9.068,0,0,0-7.737.605,8.7,8.7,0,0,1-8.714-1.827,9.088,9.088,0,0,0-7.253-3.64H60.2" transform="translate(-1.105 -1.072)" fill="#fff"/>
    </clipPath>
    <clipPath id="clip-path-3">
      <rect id="Rectángulo_378432" data-name="Rectángulo 378432" width="120" height="120" fill="none"/>
    </clipPath>
    <clipPath id="clip-path-4">
      <rect id="Rectángulo_379030" data-name="Rectángulo 379030" width="66.012" height="66.032" fill="#3c5756"/>
    </clipPath>
  </defs>
  <g id="Grupo_1100031" data-name="Grupo 1100031" transform="translate(-180 -17785.117)">
    <g id="Grupo_1099607" data-name="Grupo 1099607" transform="translate(-128 8640.118)">
      <g id="Grupo_1074149" data-name="Grupo 1074149" transform="translate(308 9145)">
        <g id="Grupo_1074143" data-name="Grupo 1074143" transform="translate(0)">
          <g id="Grupo_1074028" data-name="Grupo 1074028" transform="translate(0 0)">
            <g id="Grupo_1074021" data-name="Grupo 1074021" transform="translate(0)">
              <g id="Grupo_1074018" data-name="Grupo 1074018" transform="translate(0.458 0.445)">
                <g id="Grupo_1074017" data-name="Grupo 1074017" clip-path="url(#clip-path)">
                  <path id="Trazado_611056" data-name="Trazado 611056" d="M0,0H132.2V131.995H0Z" transform="translate(-4.993 128.152) rotate(-90)" fill="#b0dfde"/>
                </g>
              </g>
              <g id="Grupo_1074020" data-name="Grupo 1074020">
                <g id="Grupo_1074019" data-name="Grupo 1074019" clip-path="url(#clip-path-3)">
                  <path id="Trazado_611027" data-name="Trazado 611027" d="M20.249,115.762a9.02,9.02,0,0,0,2.992,3.361,9.123,9.123,0,0,0,4.2,1.5h.014l.016.006a9.021,9.021,0,0,1,3.985,2.5,10.017,10.017,0,0,1,2.172,4.215l.007.026v.031a8.863,8.863,0,0,0,3.81,7.007,8.71,8.71,0,0,0,7.784,1.188l.038-.013.049,0a9.3,9.3,0,0,1,4.791.681,10.136,10.136,0,0,1,3.782,3.042l.034.042.026.055a8.636,8.636,0,0,0,2.538,3.148,8.51,8.51,0,0,0,3.7,1.641l-.043-.009.5.075c.171.017.359.049.516.056a8.63,8.63,0,0,0,.979.017,8.421,8.421,0,0,0,1.953-.306,8.526,8.526,0,0,0,3.434-1.892l.044-.04.061-.036a9.4,9.4,0,0,1,4.747-1.344,10.25,10.25,0,0,1,4.755,1.275l.067.035.055.049a8.556,8.556,0,0,0,13.372-3l.028-.065.046-.064a9.565,9.565,0,0,1,3.835-3.171,10.358,10.358,0,0,1,4.89-.768l.079,0,.078.023a8.4,8.4,0,0,0,3.9.215,8.567,8.567,0,0,0,7.014-8.358v-.079l.017-.078a9.657,9.657,0,0,1,2.249-4.465,10.407,10.407,0,0,1,4.172-2.683l.079-.029.075-.009A8.435,8.435,0,0,0,123.4,115.3a8.526,8.526,0,0,0,.429-7.643l-.028-.064-.015-.07a9.639,9.639,0,0,1,.229-4.983,10.378,10.378,0,0,1,2.713-4.15l.054-.052.061-.036a8.713,8.713,0,0,0,1.382-13.752l-.045-.041-.033-.046a9.5,9.5,0,0,1-1.765-4.6,10.3,10.3,0,0,1,.812-4.828l.023-.056.029-.04a8.867,8.867,0,0,0-4.37-13.412l-.038-.013-.029-.017a9.252,9.252,0,0,1-3.381-3.414,10.033,10.033,0,0,1-1.163-4.642v-.03l.005-.023a9.116,9.116,0,0,0-9.7-10.856,9.111,9.111,0,0,1,7.761,2.877,9.245,9.245,0,0,1,2.152,3.734,9.452,9.452,0,0,1,.244,4.333l0-.053a9.488,9.488,0,0,0,1.2,4.371,8.6,8.6,0,0,0,3.228,3.1l-.067-.03a9.46,9.46,0,0,1,6.087,6.04,9.567,9.567,0,0,1,.446,4.42,9.7,9.7,0,0,1-1.593,4.162l.051-.1a9.273,9.273,0,0,0-.679,4.369,8.417,8.417,0,0,0,1.632,4.057l-.078-.088a9.738,9.738,0,0,1,3.175,8.174,9.593,9.593,0,0,1-1.422,4.3,9.8,9.8,0,0,1-3.211,3.19l.114-.089a9.1,9.1,0,0,0-2.37,3.641,8.311,8.311,0,0,0-.168,4.308l-.043-.133a9.9,9.9,0,0,1,.824,4.477,9.9,9.9,0,0,1-8.593,9.348l.154-.037a8.987,8.987,0,0,0-3.606,2.328,8.193,8.193,0,0,0-1.887,3.815l.017-.158a9.963,9.963,0,0,1-1.055,4.468,9.8,9.8,0,0,1-2.963,3.489,9.993,9.993,0,0,1-4.192,1.81,9.8,9.8,0,0,1-4.553-.273l.157.029a8.982,8.982,0,0,0-4.245.633,8.192,8.192,0,0,0-3.294,2.71l.075-.129a9.84,9.84,0,0,1-2.783,3.623,9.822,9.822,0,0,1-12.669-.213l.121.084a8.988,8.988,0,0,0-4.166-1.15,8.33,8.33,0,0,0-4.138,1.15l.1-.075a9.7,9.7,0,0,1-6.166,2.417,9.436,9.436,0,0,1-1.134-.04c-.194-.014-.355-.044-.534-.066l-.542-.088.021,0-.064-.012a9.478,9.478,0,0,1-2.137-.7,9.64,9.64,0,0,1-4.722-4.752l.059.1a9.205,9.205,0,0,0-3.389-2.819,8.411,8.411,0,0,0-4.337-.673l.086-.018a9.495,9.495,0,0,1-4.4.305,9.265,9.265,0,0,1-4.044-1.721,9.375,9.375,0,0,1-2.855-3.328,9.5,9.5,0,0,1-1.047-4.243l.008.057a9.578,9.578,0,0,0-1.98-4.082,8.7,8.7,0,0,0-3.783-2.5l.03.007a9.129,9.129,0,0,1-7.162-5.136" transform="translate(-12.182 -25.469)" fill="#3c5756"/>
                  <path id="Trazado_611028" data-name="Trazado 611028" d="M83.8,5.449a9.116,9.116,0,0,0-8.053.6l-.013.008-.02.006a9.058,9.058,0,0,1-4.708.371,9.933,9.933,0,0,1-4.268-2.109L66.712,4.3l-.026-.034A8.8,8.8,0,0,0,59.54.86,8.632,8.632,0,0,0,52.6,4.5l-.028.041-.048.043a9.394,9.394,0,0,1-4.323,2.3,10.249,10.249,0,0,1-4.892-.231l-.061-.017-.068-.036a8.544,8.544,0,0,0-7.667-.232,8.484,8.484,0,0,0-4.782,5.984l-.014.068-.033.072a9.6,9.6,0,0,1-3.09,3.9,10.379,10.379,0,0,1-4.623,1.78l-.08.012-.08-.007a8.624,8.624,0,0,0-8.878,6.3,8.515,8.515,0,0,0-.126,3.911l.015.075v.074a9.686,9.686,0,0,1-1.258,4.835,10.358,10.358,0,0,1-3.514,3.5l-.07.044-.07.023A8.493,8.493,0,0,0,3.58,42.418c-.085.3-.176.644-.251.992a9.265,9.265,0,0,0-.137.969,8.557,8.557,0,0,0,.067,1.988A8.693,8.693,0,0,0,4.731,50.04l.041.058.024.055a9.576,9.576,0,0,1,.768,4.878,10.291,10.291,0,0,1-1.8,4.559l-.038.056-.039.036A8.72,8.72,0,0,0,.933,67.038a8.865,8.865,0,0,0,4.231,6.717l.035.02.022.022a9.187,9.187,0,0,1,2.553,4.035,10.022,10.022,0,0,1,.149,4.741l0,.023-.007.014a9.218,9.218,0,0,0-.425,6.12,9.926,9.926,0,0,0,.784,1.948,10.021,10.021,0,0,1-.875-1.92,9.208,9.208,0,0,1,.2-6.28l-.01.037A9.6,9.6,0,0,0,7.3,77.982a8.606,8.606,0,0,0-2.52-3.7l.057.042A9.33,9.33,0,0,1,1.6,71.314,9.521,9.521,0,0,1,.081,67.138a9.656,9.656,0,0,1,2.9-8.214l-.078.092a9.223,9.223,0,0,0,1.535-4.107,8.386,8.386,0,0,0-.769-4.264l.065.113a9.73,9.73,0,0,1-1.727-4.2,9.871,9.871,0,0,1-.092-2.287,10.311,10.311,0,0,1,.158-1.154c.075-.351.159-.7.27-1.087a9.814,9.814,0,0,1,6.126-6.383l-.141.068a8.983,8.983,0,0,0,3.041-3.052,8.262,8.262,0,0,0,1.039-4.146l.015.149a9.959,9.959,0,0,1,.117-4.574,9.856,9.856,0,0,1,10.389-7.335l-.161.005a9,9,0,0,0,4.024-1.5,8.227,8.227,0,0,0,2.667-3.34l-.046.14a9.867,9.867,0,0,1,1.967-4.111,9.688,9.688,0,0,1,3.594-2.767A9.918,9.918,0,0,1,39.418,4.3a9.609,9.609,0,0,1,4.353,1.218l-.128-.052a9.078,9.078,0,0,0,4.335.3A8.321,8.321,0,0,0,51.846,3.8l-.076.084A9.63,9.63,0,0,1,55.2,1.006a9.764,9.764,0,0,1,8.643.006A9.323,9.323,0,0,1,67.2,3.873l-.052-.054A9.381,9.381,0,0,0,71.11,5.945a8.64,8.64,0,0,0,4.5-.21l-.033.014a9.132,9.132,0,0,1,4.095-1.13,9.256,9.256,0,0,1,4.126.829" transform="translate(0 0)" fill="#3c5756"/>
                </g>
              </g>
            </g>
          </g>
        </g>
        <g id="Grupo_1074144" data-name="Grupo 1074144" transform="translate(23.322 23.326)">
          <rect id="Rectángulo_378411" data-name="Rectángulo 378411" width="73.516" height="73.515" transform="translate(0 0)" fill="none"/>
        </g>
      </g>
    </g>
    <g id="Grupo_1099656" data-name="Grupo 1099656" transform="translate(206.994 17809.102)">
      <g id="Grupo_1099655" data-name="Grupo 1099655" clip-path="url(#clip-path-4)">
        <path id="Trazado_874435" data-name="Trazado 874435" d="M15.587,126c.008,1.8-.18,2-1.829,2q-5.988,0-11.976,0c-1.442,0-1.779-.33-1.78-1.75Q0,113.491,0,100.739c0-1.368.35-1.727,1.688-1.732,2.809-.01,5.618.018,8.427-.014,1.091-.012,1.682.4,1.695,1.533,0,.255.116.507.131.763.029.506.183.658.674.371,5.083-2.972,9.11-6.755,10.326-12.863.485-2.435.722-4.89.981-7.348.133-1.263.484-1.594,1.777-1.5,5.378.372,8.083,3.256,8.23,8.741a53.427,53.427,0,0,1-.92,9.355c-.122.81.069,1,.864.98,2.069-.052,4.141-.061,6.209,0,.977.029.984-.246.682-1.057a13.046,13.046,0,1,1,8.252,7.828c-.344-.1-.913-.635-1.09.09s-1.561,1-.636,2.194a4.653,4.653,0,0,1-1.287,6.7c-.71.458-1,.713-.651,1.672a4.6,4.6,0,0,1-2.072,5.374c-.54.342-.728.574-.546,1.286.509,1.994-.6,3.729-2.742,4.569a7.248,7.248,0,0,1-2.6.51,164.078,164.078,0,0,1-16.508-.34,13.1,13.1,0,0,1-5.3-1.854m13.492.01c2.883,0,5.211,0,7.539,0a7.731,7.731,0,0,0,2.613-.414,1.764,1.764,0,0,0,1.361-1.447,1.426,1.426,0,0,0-.931-1.579,1,1,0,0,1-.568-1.2,1.092,1.092,0,0,1,1.128-.877,4.245,4.245,0,0,0,.663-.043,2.839,2.839,0,0,0,2.375-2.181,2.035,2.035,0,0,0-1.414-2.53,1.12,1.12,0,0,1,.426-2.126,5.668,5.668,0,0,0,1.847-.312,2.615,2.615,0,0,0,1.809-2.526,2.154,2.154,0,0,0-1.85-2.274,1.045,1.045,0,0,1-.9-1.095,1.058,1.058,0,0,1,.9-1.1,2.829,2.829,0,0,0,1.414-.821c.509-.572.717-1.05-.132-1.562a7.847,7.847,0,0,1-2.206-2,1.757,1.757,0,0,0-1.615-.7c-3.14.029-6.281.02-9.422.009-1.309,0-1.626-.281-1.5-1.583.19-1.944.514-3.874.752-5.814A20.879,20.879,0,0,0,31.459,87,5.521,5.521,0,0,0,27,82.366c-.7-.122-1,.058-1.054.8-.106,1.4-.256,2.793-.466,4.177-.754,4.975-2.716,9.321-6.647,12.637a37.19,37.19,0,0,1-5.542,3.844c-.667.381-.977.76-.77,1.559a21.778,21.778,0,0,1,.352,2.294q1.088,7.389,2.172,14.778c.054.372.081.71.473.927a15.879,15.879,0,0,0,4.3,1.989c3.244.691,6.541.519,9.265.631M52.992,82.479A10.836,10.836,0,1,0,63.847,93.338,10.828,10.828,0,0,0,52.992,82.479M2.227,113.443c0,3.805.01,7.61-.01,11.416,0,.617.09.934.829.925,3.14-.037,6.28-.032,9.42,0,.7.006.766-.236.665-.855-.354-2.183-.642-4.377-.96-6.567-.79-5.437-1.6-10.872-2.358-16.313-.1-.682-.371-.834-.994-.823-1.81.033-3.622.059-5.43-.009-.9-.033-1.2.2-1.186,1.147.057,3.693.023,7.388.023,11.083" transform="translate(0 -62.203)" fill="#3c5756"/>
        <path id="Trazado_874436" data-name="Trazado 874436" d="M117.086,3.647c0,.775.007,1.55,0,2.325a1.112,1.112,0,1,1-2.219-.032c0-1.587,0-3.174,0-4.761A1.07,1.07,0,0,1,115.932,0a1.091,1.091,0,0,1,1.152,1.211c.012.812,0,1.624,0,2.436" transform="translate(-89.388 0)" fill="#3c5756"/>
        <path id="Trazado_874437" data-name="Trazado 874437" d="M32.022,50.708a1.418,1.418,0,0,1,.834.245c1.273.734,2.543,1.474,3.82,2.2.68.386.984.956.6,1.648-.407.726-1.068.66-1.722.279q-2-1.166-4-2.331a1.066,1.066,0,0,1-.521-1.321.965.965,0,0,1,.993-.72" transform="translate(-24.101 -39.458)" fill="#3c5756"/>
        <path id="Trazado_874438" data-name="Trazado 874438" d="M157.623,13.573a4.765,4.765,0,0,1-.265.664q-1.088,1.919-2.2,3.824c-.369.635-.874,1.075-1.622.66-.793-.441-.7-1.108-.295-1.8.763-1.3,1.516-2.605,2.269-3.91a1.1,1.1,0,0,1,1.414-.522c.484.152.658.547.7,1.084" transform="translate(-119.015 -9.659)" fill="#3c5756"/>
        <path id="Trazado_874439" data-name="Trazado 874439" d="M70.708,19.348a1.075,1.075,0,0,1-1.941.668q-1.334-2.218-2.59-4.484a.975.975,0,0,1,.385-1.351.926.926,0,0,1,1.309.1,32.49,32.49,0,0,1,2.809,4.847.7.7,0,0,1,.027.218" transform="translate(-51.393 -10.865)" fill="#3c5756"/>
        <path id="Trazado_874440" data-name="Trazado 874440" d="M187.8,48.657a1.376,1.376,0,0,1-.775,1.128c-1.276.728-2.552,1.456-3.821,2.2-.661.385-1.307.429-1.728-.271s-.063-1.262.593-1.642c1.3-.754,2.6-1.532,3.922-2.243.908-.487,1.788-.046,1.809.832" transform="translate(-141.078 -37.061)" fill="#3c5756"/>
        <path id="Trazado_874441" data-name="Trazado 874441" d="M220.721,118.13a1.446,1.446,0,0,1-.525,1.122q-3.833,3.838-7.668,7.675a1.236,1.236,0,0,1-2.005-.03q-1.79-1.812-3.6-3.6c-.532-.529-.809-1.13-.22-1.737.63-.651,1.26-.378,1.822.191.8.814,1.65,1.589,2.416,2.438.476.528.764.449,1.226-.024,2.116-2.163,4.269-4.289,6.407-6.429.411-.411.845-.725,1.466-.458a1.029,1.029,0,0,1,.681.857" transform="translate(-160.599 -91.185)" fill="#3c5756"/>
      </g>
    </g>
  </g>
</svg>
