<svg xmlns="http://www.w3.org/2000/svg" xmlns:xlink="http://www.w3.org/1999/xlink" width="120" height="120" viewBox="0 0 120 120">
  <defs>
    <clipPath id="clip-path">
      <path id="Trazado_611025" data-name="Trazado 611025" d="M60.2,1.073a9.086,9.086,0,0,0-7.37,3.762A8.709,8.709,0,0,1,44.126,6.7a9.052,9.052,0,0,0-7.7-.5c-.129.048-.258.1-.385.152l-.1.042a9.132,9.132,0,0,0-5.208,6.448,8.743,8.743,0,0,1-7.2,5.262,9.061,9.061,0,0,0-7.6,3.07,9.166,9.166,0,0,0-2.151,7.986,8.774,8.774,0,0,1-4.423,7.764,9.134,9.134,0,0,0-5.728,5.933c-.009.028-.014.054-.022.078-.041.144-.08.286-.116.43A9.17,9.17,0,0,0,4.9,51.028a8.813,8.813,0,0,1-.9,8.9A9.3,9.3,0,0,0,5.664,74.658a8.81,8.81,0,0,1,2.754,8.505,9.174,9.174,0,0,0,.312,7.746c.063.134.132.259.2.385.015.028.027.055.041.078A9.093,9.093,0,0,0,15.9,95.9a8.774,8.774,0,0,1,5.958,6.646,9.221,9.221,0,0,0,11.966,8.589,8.71,8.71,0,0,1,8.146,3.606,9.108,9.108,0,0,0,6.471,5.105c.026.006.051.006.078.013.145.025.288.052.438.072a9.077,9.077,0,0,0,7.439-2.208,8.687,8.687,0,0,1,8.9-.034,9.21,9.21,0,0,0,14.407-3.2,8.712,8.712,0,0,1,8.129-3.639,9.056,9.056,0,0,0,7.636-1.123c.121-.075.24-.157.355-.239.026-.017.055-.034.079-.054a9.155,9.155,0,0,0,3.762-7.4,8.764,8.764,0,0,1,5.955-6.644,9.26,9.26,0,0,0,7.25-12.855A8.806,8.806,0,0,1,115.614,74a9.281,9.281,0,0,0,1.419-14.7,8.818,8.818,0,0,1-.951-8.922,9.273,9.273,0,0,0-4.654-14.013,8.79,8.79,0,0,1-4.484-7.763,9.166,9.166,0,0,0-2.249-7.915A9.056,9.056,0,0,0,97.02,17.7a8.745,8.745,0,0,1-7.225-5.234,9.134,9.134,0,0,0-5.272-6.342.731.731,0,0,0-.088-.034c-.129-.054-.264-.106-.4-.157a9.068,9.068,0,0,0-7.737.605,8.7,8.7,0,0,1-8.714-1.827,9.088,9.088,0,0,0-7.253-3.64H60.2" transform="translate(-1.105 -1.072)" fill="#b0dfde"/>
    </clipPath>
    <clipPath id="clip-path-3">
      <rect id="Rectángulo_378432" data-name="Rectángulo 378432" width="120" height="120" fill="none"/>
    </clipPath>
    <clipPath id="clip-path-4">
      <rect id="Rectángulo_379031" data-name="Rectángulo 379031" width="67.2" height="65.928" fill="#3c5756"/>
    </clipPath>
  </defs>
  <g id="Grupo_1099611" data-name="Grupo 1099611" transform="translate(-307.999 -9144.999)">
    <g id="Grupo_1074149" data-name="Grupo 1074149" transform="translate(307.999 9145)">
      <g id="Grupo_1074143" data-name="Grupo 1074143" transform="translate(0)">
        <g id="Grupo_1074028" data-name="Grupo 1074028" transform="translate(0 0)">
          <g id="Grupo_1074021" data-name="Grupo 1074021" transform="translate(0)">
            <g id="Grupo_1074018" data-name="Grupo 1074018" transform="translate(0.458 0.445)">
              <g id="Grupo_1074017" data-name="Grupo 1074017" clip-path="url(#clip-path)">
                <path id="Trazado_611056" data-name="Trazado 611056" d="M0,0H132.2V131.995H0Z" transform="translate(-4.993 128.152) rotate(-90)" fill="#b0dfde"/>
              </g>
            </g>
            <g id="Grupo_1074020" data-name="Grupo 1074020">
              <g id="Grupo_1074019" data-name="Grupo 1074019" clip-path="url(#clip-path-3)">
                <path id="Trazado_611027" data-name="Trazado 611027" d="M20.249,115.762a9.02,9.02,0,0,0,2.992,3.361,9.123,9.123,0,0,0,4.2,1.5h.014l.016.006a9.021,9.021,0,0,1,3.985,2.5,10.017,10.017,0,0,1,2.172,4.215l.007.026v.031a8.863,8.863,0,0,0,3.81,7.007,8.71,8.71,0,0,0,7.784,1.188l.038-.013.049,0a9.3,9.3,0,0,1,4.791.681,10.136,10.136,0,0,1,3.782,3.042l.034.042.026.055a8.636,8.636,0,0,0,2.538,3.148,8.51,8.51,0,0,0,3.7,1.641l-.043-.009.5.075c.171.017.359.049.516.056a8.63,8.63,0,0,0,.979.017,8.421,8.421,0,0,0,1.953-.306,8.526,8.526,0,0,0,3.434-1.892l.044-.04.061-.036a9.4,9.4,0,0,1,4.747-1.344,10.25,10.25,0,0,1,4.755,1.275l.067.035.055.049a8.556,8.556,0,0,0,13.372-3l.028-.065.046-.064a9.565,9.565,0,0,1,3.835-3.171,10.358,10.358,0,0,1,4.89-.768l.079,0,.078.023a8.4,8.4,0,0,0,3.9.215,8.567,8.567,0,0,0,7.014-8.358v-.079l.017-.078a9.657,9.657,0,0,1,2.249-4.465,10.407,10.407,0,0,1,4.172-2.683l.079-.029.075-.009A8.435,8.435,0,0,0,123.4,115.3a8.526,8.526,0,0,0,.429-7.643l-.028-.064-.015-.07a9.639,9.639,0,0,1,.229-4.983,10.378,10.378,0,0,1,2.713-4.15l.054-.052.061-.036a8.713,8.713,0,0,0,1.382-13.752l-.045-.041-.033-.046a9.5,9.5,0,0,1-1.765-4.6,10.3,10.3,0,0,1,.812-4.828l.023-.056.029-.04a8.867,8.867,0,0,0-4.37-13.412l-.038-.013-.029-.017a9.252,9.252,0,0,1-3.381-3.414,10.033,10.033,0,0,1-1.163-4.642v-.03l.005-.023a9.116,9.116,0,0,0-9.7-10.856,9.111,9.111,0,0,1,7.761,2.877,9.245,9.245,0,0,1,2.152,3.734,9.452,9.452,0,0,1,.244,4.333l0-.053a9.488,9.488,0,0,0,1.2,4.371,8.6,8.6,0,0,0,3.228,3.1l-.067-.03a9.46,9.46,0,0,1,6.087,6.04,9.567,9.567,0,0,1,.446,4.42,9.7,9.7,0,0,1-1.593,4.162l.051-.1a9.273,9.273,0,0,0-.679,4.369,8.417,8.417,0,0,0,1.632,4.057l-.078-.088a9.738,9.738,0,0,1,3.175,8.174,9.593,9.593,0,0,1-1.422,4.3,9.8,9.8,0,0,1-3.211,3.19l.114-.089a9.1,9.1,0,0,0-2.37,3.641,8.311,8.311,0,0,0-.168,4.308l-.043-.133a9.9,9.9,0,0,1,.824,4.477,9.9,9.9,0,0,1-8.593,9.348l.154-.037a8.987,8.987,0,0,0-3.606,2.328,8.193,8.193,0,0,0-1.887,3.815l.017-.158a9.963,9.963,0,0,1-1.055,4.468,9.8,9.8,0,0,1-2.963,3.489,9.993,9.993,0,0,1-4.192,1.81,9.8,9.8,0,0,1-4.553-.273l.157.029a8.982,8.982,0,0,0-4.245.633,8.192,8.192,0,0,0-3.294,2.71l.075-.129a9.84,9.84,0,0,1-2.783,3.623,9.822,9.822,0,0,1-12.669-.213l.121.084a8.988,8.988,0,0,0-4.166-1.15,8.33,8.33,0,0,0-4.138,1.15l.1-.075a9.7,9.7,0,0,1-6.166,2.417,9.436,9.436,0,0,1-1.134-.04c-.194-.014-.355-.044-.534-.066l-.542-.088.021,0-.064-.012a9.478,9.478,0,0,1-2.137-.7,9.64,9.64,0,0,1-4.722-4.752l.059.1a9.205,9.205,0,0,0-3.389-2.819,8.411,8.411,0,0,0-4.337-.673l.086-.018a9.495,9.495,0,0,1-4.4.305,9.265,9.265,0,0,1-4.044-1.721,9.375,9.375,0,0,1-2.855-3.328,9.5,9.5,0,0,1-1.047-4.243l.008.057a9.578,9.578,0,0,0-1.98-4.082,8.7,8.7,0,0,0-3.783-2.5l.03.007a9.129,9.129,0,0,1-7.162-5.136" transform="translate(-12.182 -25.469)" fill="#3c5756"/>
                <path id="Trazado_611028" data-name="Trazado 611028" d="M83.8,5.449a9.116,9.116,0,0,0-8.053.6l-.013.008-.02.006a9.058,9.058,0,0,1-4.708.371,9.933,9.933,0,0,1-4.268-2.109L66.712,4.3l-.026-.034A8.8,8.8,0,0,0,59.54.86,8.632,8.632,0,0,0,52.6,4.5l-.028.041-.048.043a9.394,9.394,0,0,1-4.323,2.3,10.249,10.249,0,0,1-4.892-.231l-.061-.017-.068-.036a8.544,8.544,0,0,0-7.667-.232,8.484,8.484,0,0,0-4.782,5.984l-.014.068-.033.072a9.6,9.6,0,0,1-3.09,3.9,10.379,10.379,0,0,1-4.623,1.78l-.08.012-.08-.007a8.624,8.624,0,0,0-8.878,6.3,8.515,8.515,0,0,0-.126,3.911l.015.075v.074a9.686,9.686,0,0,1-1.258,4.835,10.358,10.358,0,0,1-3.514,3.5l-.07.044-.07.023A8.493,8.493,0,0,0,3.58,42.418c-.085.3-.176.644-.251.992a9.265,9.265,0,0,0-.137.969,8.557,8.557,0,0,0,.067,1.988A8.693,8.693,0,0,0,4.731,50.04l.041.058.024.055a9.576,9.576,0,0,1,.768,4.878,10.291,10.291,0,0,1-1.8,4.559l-.038.056-.039.036A8.72,8.72,0,0,0,.933,67.038a8.865,8.865,0,0,0,4.231,6.717l.035.02.022.022a9.187,9.187,0,0,1,2.553,4.035,10.022,10.022,0,0,1,.149,4.741l0,.023-.007.014a9.218,9.218,0,0,0-.425,6.12,9.926,9.926,0,0,0,.784,1.948,10.021,10.021,0,0,1-.875-1.92,9.208,9.208,0,0,1,.2-6.28l-.01.037A9.6,9.6,0,0,0,7.3,77.982a8.606,8.606,0,0,0-2.52-3.7l.057.042A9.33,9.33,0,0,1,1.6,71.314,9.521,9.521,0,0,1,.081,67.138a9.656,9.656,0,0,1,2.9-8.214l-.078.092a9.223,9.223,0,0,0,1.535-4.107,8.386,8.386,0,0,0-.769-4.264l.065.113a9.73,9.73,0,0,1-1.727-4.2,9.871,9.871,0,0,1-.092-2.287,10.311,10.311,0,0,1,.158-1.154c.075-.351.159-.7.27-1.087a9.814,9.814,0,0,1,6.126-6.383l-.141.068a8.983,8.983,0,0,0,3.041-3.052,8.262,8.262,0,0,0,1.039-4.146l.015.149a9.959,9.959,0,0,1,.117-4.574,9.856,9.856,0,0,1,10.389-7.335l-.161.005a9,9,0,0,0,4.024-1.5,8.227,8.227,0,0,0,2.667-3.34l-.046.14a9.867,9.867,0,0,1,1.967-4.111,9.688,9.688,0,0,1,3.594-2.767A9.918,9.918,0,0,1,39.418,4.3a9.609,9.609,0,0,1,4.353,1.218l-.128-.052a9.078,9.078,0,0,0,4.335.3A8.321,8.321,0,0,0,51.846,3.8l-.076.084A9.63,9.63,0,0,1,55.2,1.006a9.764,9.764,0,0,1,8.643.006A9.323,9.323,0,0,1,67.2,3.873l-.052-.054A9.381,9.381,0,0,0,71.11,5.945a8.64,8.64,0,0,0,4.5-.21l-.033.014a9.132,9.132,0,0,1,4.095-1.13,9.256,9.256,0,0,1,4.126.829" transform="translate(0 0)" fill="#3c5756"/>
              </g>
            </g>
          </g>
        </g>
      </g>
      <g id="Grupo_1074144" data-name="Grupo 1074144" transform="translate(23.322 23.326)">
        <rect id="Rectángulo_378411" data-name="Rectángulo 378411" width="73.516" height="73.515" transform="translate(0 0)" fill="none"/>
      </g>
    </g>
    <g id="Grupo_1099658" data-name="Grupo 1099658" transform="translate(334.399 9172.036)">
      <g id="Grupo_1099657" data-name="Grupo 1099657" clip-path="url(#clip-path-4)">
        <path id="Trazado_874442" data-name="Trazado 874442" d="M26.676,39.89a20.686,20.686,0,0,1-11.331.3A1.266,1.266,0,0,0,14.1,40.5c-2.958,2.482-6.493,3.777-10.125,4.855a1.457,1.457,0,0,1-1.651-.317,1.465,1.465,0,0,1-.067-1.756,25.134,25.134,0,0,0,2.287-9.3,2,2,0,0,0-.537-1.4A20.411,20.411,0,1,1,40.535,17.046a19.73,19.73,0,0,1-.065,7.088c-.163.825.1.906.809.9q10.391-.032,20.783-.012c3.345,0,5.135,1.776,5.136,5.093q0,10.863,0,21.727c0,3.2-1.874,5.062-5.089,5.071a17.115,17.115,0,0,1-2.1-.016c-.978-.119-1.114.349-.993,1.148a19.7,19.7,0,0,0,1.521,5.533c.313.663.571,1.31-.008,1.941-.534.582-1.155.418-1.836.238a18.481,18.481,0,0,1-11.483-8.193,1.3,1.3,0,0,0-1.278-.662q-7.085.028-14.17.009c-3.231,0-5.085-1.848-5.088-5.061,0-3.95,0-7.9,0-11.964M57.208,62.439c-.078-.391-.114-.658-.185-.916A22.777,22.777,0,0,1,56.3,56.24c-.054-1.531.452-2.024,1.96-2.03,1.294-.006,2.589,0,3.883,0,1.833-.005,2.419-.593,2.42-2.464q.007-10.81,0-21.621c0-1.841-.615-2.457-2.455-2.458q-15.166-.008-30.332,0c-1.85,0-2.486.617-2.488,2.439q-.013,10.863,0,21.725c0,1.777.63,2.377,2.418,2.378,5.038,0,10.076.016,15.113-.011a2.119,2.119,0,0,1,2.069,1.113,21.264,21.264,0,0,0,1.684,2.4,13.876,13.876,0,0,0,6.637,4.729M5.65,42.045A19.592,19.592,0,0,0,13,37.96a2.09,2.09,0,0,1,2.28-.533A17.563,17.563,0,0,0,25.8,37.395a1.055,1.055,0,0,0,.892-1.248c-.046-2.1-.024-4.2-.014-6.295a4.52,4.52,0,0,1,4.867-4.826c1.679-.008,3.359-.041,5.035.016.765.026,1.122-.19,1.25-.974a20.857,20.857,0,0,0,.211-5.937,17.776,17.776,0,1,0-31.5,13.4,2.82,2.82,0,0,1,.638,1.91,29.781,29.781,0,0,1-1.526,8.6" transform="translate(0 0)" fill="#3c5756"/>
        <path id="Trazado_874443" data-name="Trazado 874443" d="M193.726,163.674c1.81-1.831,3.551-3.6,5.3-5.358.8-.8,1.592-.908,2.188-.317s.494,1.352-.326,2.18c-1.477,1.491-2.913,3.027-4.465,4.435-.8.723-.669,1.108.038,1.767,1.535,1.429,2.989,2.946,4.465,4.437.782.79.878,1.5.318,2.1-.6.642-1.36.571-2.181-.242-1.591-1.574-3.192-3.14-4.737-4.759-.493-.516-.754-.457-1.211.018-1.455,1.512-2.957,2.977-4.441,4.461-.173.173-.335.358-.52.518a1.279,1.279,0,0,1-1.882.062,1.226,1.226,0,0,1,.034-1.936c1.4-1.423,2.814-2.825,4.224-4.233,1.332-1.331,1.331-1.328.033-2.623-1.362-1.358-2.726-2.715-4.077-4.084-.78-.791-.852-1.5-.255-2.094.573-.573,1.378-.5,2.113.237,1.779,1.781,3.542,3.577,5.379,5.434" transform="translate(-146.795 -124.522)" fill="#3c5756"/>
        <path id="Trazado_874444" data-name="Trazado 874444" d="M73.589,54.169c0-.665-.007-1.329,0-1.994.014-1.175.321-1.509,1.515-1.677a3.223,3.223,0,0,0,3-3.3,3.176,3.176,0,0,0-2.93-3.133,3.137,3.137,0,0,0-3.453,2.661c-.04.241-.072.484-.118.724a1.2,1.2,0,0,1-1.41,1.093,1.271,1.271,0,0,1-1.183-1.361,5.932,5.932,0,0,1,3.9-5.447A5.848,5.848,0,0,1,80.364,45.2a5.741,5.741,0,0,1-3.235,7.441,1.3,1.3,0,0,0-.966,1.533,22.645,22.645,0,0,1,0,2.412,1.178,1.178,0,0,1-1.23,1.285A1.2,1.2,0,0,1,73.6,56.582c-.026-.8-.005-1.609-.005-2.413Z" transform="translate(-54.516 -32.702)" fill="#3c5756"/>
        <path id="Trazado_874445" data-name="Trazado 874445" d="M90.847,137.878A1.35,1.35,0,0,1,92.2,136.43a1.231,1.231,0,0,1,1.219,1.3,1.255,1.255,0,0,1-1.285,1.335,1.235,1.235,0,0,1-1.283-1.182" transform="translate(-71.769 -107.774)" fill="#3c5756"/>
      </g>
    </g>
  </g>
</svg>
