<svg xmlns="http://www.w3.org/2000/svg" xmlns:xlink="http://www.w3.org/1999/xlink" width="116" height="116" viewBox="0 0 116 116">
  <defs>
    <clipPath id="clip-path">
      <rect id="Rect치ngulo_378477" data-name="Rect치ngulo 378477" width="90" height="89.999" fill="none"/>
    </clipPath>
    <clipPath id="clip-path-2">
      <rect id="Rect치ngulo_379029" data-name="Rect치ngulo 379029" width="54.212" height="48.871" fill="#12263f"/>
    </clipPath>
  </defs>
  <g id="Grupo_1100033" data-name="Grupo 1100033" transform="translate(-1164 -14320)">
    <circle id="Elipse_6044" data-name="Elipse 6044" cx="58" cy="58" r="58" transform="translate(1164 14320)" fill="#851717"/>
    <g id="Grupo_1099948" data-name="Grupo 1099948">
      <g id="Grupo_1099560" data-name="Grupo 1099560" transform="translate(840 8631)">
        <g id="Grupo_1074114" data-name="Grupo 1074114" transform="translate(257 -26)">
          <g id="Grupo_1074112" data-name="Grupo 1074112" transform="translate(80 5728)">
            <g id="Grupo_1074103" data-name="Grupo 1074103" clip-path="url(#clip-path)">
              <path id="Trazado_611090" data-name="Trazado 611090" d="M45,0c2.318.367,4.306,2.287,6.625,2.654S56.587,1.835,58.9,2.2C61,3.267,62.293,5.709,64.385,6.773s4.974.756,7.065,1.82c1.66,1.66,2.139,4.382,3.8,6.041s4.5,2.255,6.157,3.916c1.066,2.09.681,4.828,1.746,6.918S86.733,29,87.8,31.093c.368,2.318-.844,4.8-.477,7.12S89.632,42.682,90,45c-.367,2.318-2.286,4.306-2.654,6.625s.819,4.964.452,7.282c-1.064,2.09-3.506,3.388-4.571,5.479s-.755,4.974-1.821,7.065c-1.659,1.659-4.382,2.14-6.041,3.8s-2.255,4.5-3.915,6.158c-2.09,1.065-4.828.68-6.918,1.745S61,86.732,58.907,87.8c-2.319.368-4.8-.844-7.121-.477S47.317,89.632,45,90c-2.317-.367-4.305-2.287-6.624-2.654s-4.964.819-7.282.452C29,86.732,27.7,84.29,25.615,83.226s-4.975-.755-7.066-1.82c-1.66-1.66-2.14-4.382-3.8-6.041s-4.5-2.256-6.158-3.915c-1.066-2.091-.679-4.829-1.744-6.919S3.267,61,2.2,58.906c-.368-2.318.844-4.8.477-7.121S.368,47.317,0,45c.368-2.317,2.286-4.306,2.654-6.624s-.818-4.964-.451-7.282C3.267,29,5.709,27.7,6.774,25.614s.754-4.974,1.819-7.065c1.66-1.66,4.382-2.14,6.041-3.8s2.255-4.5,3.915-6.158c2.091-1.065,4.829-.68,6.92-1.745S29,3.267,31.093,2.2c2.318-.368,4.8.844,7.12.477S42.682.367,45,0" transform="translate(0 0)" fill="#ffac47" fill-rule="evenodd"/>
              <path id="Trazado_611091" data-name="Trazado 611091" d="M46.344,88.074A41.73,41.73,0,1,0,4.614,46.344a41.811,41.811,0,0,0,41.73,41.731" transform="translate(-1.345 -1.345)" fill="#fef0d7" fill-rule="evenodd"/>
            </g>
          </g>
        </g>
      </g>
      <g id="Grupo_1099651" data-name="Grupo 1099651" transform="translate(1194.894 14353.564)">
        <g id="Grupo_1099650" data-name="Grupo 1099650" clip-path="url(#clip-path-2)">
          <path id="Trazado_874427" data-name="Trazado 874427" d="M58.3,57.574H44.9c-1.411,0-1.51-.1-1.51-1.471,0-2.035-.015-4.07.01-6.1.006-.509-.122-.726-.662-.827a11.177,11.177,0,0,1-9.024-11.307c.075-2.2.016-4.409.009-6.613,0-.415.014-.919.469-.97.769-.086.693-.557.685-1.071-.012-.763.009-1.526,0-2.289a2.566,2.566,0,0,1,.591-1.639,3.687,3.687,0,0,1,3.892-.944,2.955,2.955,0,0,1,1.993,2.86c.015.819.011,1.639,0,2.459,0,.324.049.541.447.547.7.011.791.489.789,1.053q-.012,3.222,0,6.444c0,1.94.849,2.693,2.786,2.815A6.488,6.488,0,0,0,49.813,39.3a9.827,9.827,0,0,1,1.979-1.138,1.555,1.555,0,0,0,.993-1.875.782.782,0,0,0-.4-.676,10.465,10.465,0,0,1-4.933-7.264,4.2,4.2,0,0,0-.912-1.569c-2.7-3.876-3.527-10.307,2.035-14.009,5.346-3.558,13.9-3.249,18.082,2.973A8.508,8.508,0,0,1,65.49,27.057a2.059,2.059,0,0,0-.6,1.162,10.881,10.881,0,0,1-4.145,6.864,1.991,1.991,0,0,0,.135,2.816c.363.217.732.425,1.089.653a10.806,10.806,0,0,0,6.187,2.036c3.159-.047,5.12,2.327,5.129,5.525.009,3.363,0,6.727,0,10.09,0,1.264-.1,1.37-1.341,1.37q-6.826,0-13.651,0M55.788,41.892l-.2-.091c-.971.982-1.951,1.955-2.91,2.95a.921.921,0,0,1-1.465.08c-.508-.448-1.109-.8-1.573-1.286a5.31,5.31,0,0,0-4.478-1.6c-2.477.14-4.013-1.484-4.028-3.965-.011-1.865-.017-3.731.006-5.6.006-.523-.111-.762-.7-.748-1.525.037-3.052.033-4.578,0-.542-.011-.665.2-.659.7.023,2.147.013,4.3.026,6.443a5.079,5.079,0,0,0,.1,1.009,9.576,9.576,0,0,0,8.447,8.046c.948.148,1.149.557,1.135,1.39-.033,2.062,0,4.126-.017,6.189,0,.433.057.665.586.664q9.665-.024,19.33,0c.572,0,.63-.252.627-.716-.016-2.4-.007-4.8-.007-7.206,0-.2.009-.4,0-.593-.027-.533.2-.927.739-.938.561-.011.747.421.757.929,0,.226,0,.452,0,.678,0,2.374.014,4.748-.01,7.122-.006.539.135.746.705.727,1.186-.04,2.374-.027,3.56,0,.458.009.655-.114.652-.614-.018-3.193.04-6.388-.028-9.58A3.792,3.792,0,0,0,67.7,41.99c-.537,0-1.075.024-1.61-.008a1.649,1.649,0,0,0-1.231.422c-1,.834-2.034,1.618-3.033,2.448a.9.9,0,0,1-1.4-.065q-1.276-1.3-2.577-2.577c-.143-.14-.234-.406-.563-.3v.925q0,4.748,0,9.5c0,.576.136,1.33-.764,1.309s-.72-.778-.723-1.347c-.01-2.091,0-4.182,0-6.274v-4.13m7.88-15.819c-.009-2.313-1.015-3.532-3.164-3.934a7.432,7.432,0,0,0-2.611-.121,8.447,8.447,0,0,1-6.977-2.067c-.473-.382-.633-.3-.908.181a11.865,11.865,0,0,0-1.283,6.133A9.543,9.543,0,0,0,51.424,33a6.276,6.276,0,0,0,9.324.145,10.289,10.289,0,0,0,2.919-7.073m1.516-.893a6.265,6.265,0,0,0,1.6-4.048c-.009-3.73-1.995-6.281-5.187-7.89-3.75-1.89-7.589-1.536-11.259.214-4.369,2.083-5.469,7.18-3.252,11.19a1.964,1.964,0,0,0,.22-.975,11.929,11.929,0,0,1,1.92-5.18c.8-1.108,1.351-1.023,2.131-.167a6.975,6.975,0,0,0,4.679,2.3c1.115.091,2.25-.086,3.374-.063,2.922.06,5.143,1.215,5.778,4.621M39.833,28.344c0-.4.014-.791,0-1.185a1.391,1.391,0,0,0-1.486-1.479c-1.512-.062-2.027.44-2.032,1.978,0,.282,0,.564,0,.846,0,1.691,0,1.691,1.682,1.691,1.841,0,1.841,0,1.839-1.851m9.431,13c.8.646,1.5,1.205,2.191,1.783a.481.481,0,0,0,.781-.041c.9-.933,1.831-1.836,2.744-2.757.107-.108.294-.193.213-.407a2.943,2.943,0,0,0-2.037-.847c-1.267.729-2.527,1.471-3.892,2.268m14.537,0c-1.053-.619-2.041-1.2-3.033-1.782-1.354-.79-1.406-.771-2.657.159-.286.213-.3.334-.062.57.943.93,1.885,1.862,2.809,2.81a.446.446,0,0,0,.714.052c.713-.593,1.439-1.17,2.229-1.809M58.8,37c.011-.79.011-.789-.693-.628a7.905,7.905,0,0,1-3.021.195c-.243-.038-.66-.37-.778.105a.942.942,0,0,0,.388,1.169c1.842,1.184,1.821,1.2,3.647.008A.793.793,0,0,0,58.8,37" transform="translate(-27.991 -8.703)" fill="#12263f"/>
          <path id="Trazado_874428" data-name="Trazado 874428" d="M234.5,99.546c1.836,0,3.673-.01,5.509,0,1.615.011,2.349.724,2.359,2.31q.022,3.475,0,6.95c-.01,1.549-.826,2.476-2.364,2.308a7.109,7.109,0,0,0-6.309,2.221,2.13,2.13,0,0,1-.478.348c-.627.365-1.1.109-1.17-.624-.061-.61.274-1.43-.154-1.781-.481-.394-1.3-.087-1.974-.128a6.671,6.671,0,0,1-1.932-.141,1.8,1.8,0,0,1-1.361-1.743c-.027-2.627-.039-5.255,0-7.882.019-1.158.815-1.817,2.106-1.833,1.921-.024,3.842-.006,5.763-.007m-.889,11.967a13.306,13.306,0,0,0,1.072-.834,3.574,3.574,0,0,1,3.065-1.065c.752.091,1.525,0,2.288.022.62.02.852-.244.847-.86-.02-2.318-.016-4.636,0-6.954,0-.576-.232-.815-.808-.814q-5.6.014-11.194,0c-.591,0-.806.259-.8.818q.012,3.477,0,6.954c0,.6.219.883.852.859.819-.032,1.639-.007,2.459-.007,1.9,0,1.9,0,2.229,1.882" transform="translate(-188.167 -82.657)" fill="#12263f"/>
          <path id="Trazado_874429" data-name="Trazado 874429" d="M7.967,0c1.866,0,3.731-.007,5.6,0A1.986,1.986,0,0,1,15.772,2.2q.024,3.6,0,7.208a1.95,1.95,0,0,1-2.216,2.166c-.848.006-1.7.026-2.544-.008-.511-.021-.689.14-.688.668s.273,1.207-.425,1.5c-.653.277-1.082-.275-1.458-.64a5.342,5.342,0,0,0-4.694-1.535,10.841,10.841,0,0,1-1.694.008A1.877,1.877,0,0,1,.045,9.711q-.088-3.9,0-7.8A1.919,1.919,0,0,1,2.115.009c1.95-.016,3.9,0,5.851,0m.849,11.473c.18-1.334.206-1.357,1.512-1.359,1.018,0,2.036-.02,3.053.006.633.016.934-.2.928-.877q-.03-3.434,0-6.869c.005-.661-.265-.882-.917-.878q-5.47.032-10.939,0c-.679,0-.965.2-.954.921.033,2.261.028,4.523,0,6.784-.007.652.224.949.884.916.423-.021.848.012,1.272-.006,1.833-.076,3.668-.17,5.16,1.362" transform="translate(0 0)" fill="#12263f"/>
          <path id="Trazado_874430" data-name="Trazado 874430" d="M245.385,130.714c-1.5,0-3-.007-4.493,0-.532,0-1.01-.1-1.033-.725-.026-.7.5-.786,1.053-.786h9.071c.517,0,1.023.088,1.036.724.014.682-.492.79-1.057.787-1.526-.009-3.052,0-4.578,0" transform="translate(-199.175 -107.291)" fill="#12263f"/>
          <path id="Trazado_874431" data-name="Trazado 874431" d="M245.446,116.044c1.524,0,3.049.006,4.574,0,.532,0,1.012.091,1,.738-.015.625-.5.752-1.021.752h-9.148c-.532,0-1-.149-1-.774,0-.653.5-.719,1.02-.716,1.525.008,3.049,0,4.574,0" transform="translate(-199.17 -96.359)" fill="#12263f"/>
          <path id="Trazado_874432" data-name="Trazado 874432" d="M245.448,144.182c-1.523,0-3.046,0-4.57,0-.524,0-1.007-.085-1.027-.722-.021-.661.479-.742,1-.743h9.139c.508,0,1.029.058,1.028.715,0,.7-.533.753-1.08.75-1.495-.007-2.99,0-4.485,0" transform="translate(-199.169 -118.513)" fill="#12263f"/>
          <path id="Trazado_874433" data-name="Trazado 874433" d="M36.656,14.743a2.4,2.4,0,0,1-1.465,2.2c-.39.191-.646.358-.659.844-.011.425-.323.635-.756.615-.458-.021-.618-.312-.666-.723a1.614,1.614,0,0,1,1.063-1.893c.5-.252,1.143-.458.944-1.187a1.14,1.14,0,0,0-1.274-.773c-.66.032-1.25.232-1.341,1.012-.066.566-.3.957-.906.828-.649-.138-.682-.647-.552-1.2a2.794,2.794,0,0,1,3.023-2.145,2.644,2.644,0,0,1,2.59,2.427" transform="translate(-25.727 -10.215)" fill="#12263f"/>
          <path id="Trazado_874434" data-name="Trazado 874434" d="M45.035,51.044a.7.7,0,0,1-.785.664.652.652,0,0,1-.641-.735.668.668,0,0,1,.728-.737.716.716,0,0,1,.7.809" transform="translate(-36.211 -41.714)" fill="#12263f"/>
        </g>
      </g>
    </g>
  </g>
</svg>
