<svg xmlns="http://www.w3.org/2000/svg" xmlns:xlink="http://www.w3.org/1999/xlink" width="116" height="116" viewBox="0 0 116 116">
  <defs>
    <clipPath id="clip-path">
      <rect id="Rect치ngulo_378477" data-name="Rect치ngulo 378477" width="90" height="89.999" fill="none"/>
    </clipPath>
    <clipPath id="clip-path-2">
      <rect id="Rect치ngulo_379027" data-name="Rect치ngulo 379027" width="54.523" height="53.683" fill="#12263f"/>
    </clipPath>
  </defs>
  <g id="Grupo_1100031" data-name="Grupo 1100031" transform="translate(-324 -14320)">
    <circle id="Elipse_6042" data-name="Elipse 6042" cx="58" cy="58" r="58" transform="translate(324 14320)" fill="#851717"/>
    <g id="Grupo_1099946" data-name="Grupo 1099946">
      <g id="Grupo_1099556" data-name="Grupo 1099556" transform="translate(0 8631)">
        <g id="Grupo_1074114" data-name="Grupo 1074114" transform="translate(257 -26)">
          <g id="Grupo_1074112" data-name="Grupo 1074112" transform="translate(80 5728)">
            <g id="Grupo_1074103" data-name="Grupo 1074103" clip-path="url(#clip-path)">
              <path id="Trazado_611090" data-name="Trazado 611090" d="M45,0c2.318.367,4.306,2.287,6.625,2.654S56.587,1.835,58.9,2.2C61,3.267,62.293,5.709,64.385,6.773s4.974.756,7.065,1.82c1.66,1.66,2.139,4.382,3.8,6.041s4.5,2.255,6.157,3.916c1.066,2.09.681,4.828,1.746,6.918S86.733,29,87.8,31.093c.368,2.318-.844,4.8-.477,7.12S89.632,42.682,90,45c-.367,2.318-2.286,4.306-2.654,6.625s.819,4.964.452,7.282c-1.064,2.09-3.506,3.388-4.571,5.479s-.755,4.974-1.821,7.065c-1.659,1.659-4.382,2.14-6.041,3.8s-2.255,4.5-3.915,6.158c-2.09,1.065-4.828.68-6.918,1.745S61,86.732,58.907,87.8c-2.319.368-4.8-.844-7.121-.477S47.317,89.632,45,90c-2.317-.367-4.305-2.287-6.624-2.654s-4.964.819-7.282.452C29,86.732,27.7,84.29,25.615,83.226s-4.975-.755-7.066-1.82c-1.66-1.66-2.14-4.382-3.8-6.041s-4.5-2.256-6.158-3.915c-1.066-2.091-.679-4.829-1.744-6.919S3.267,61,2.2,58.906c-.368-2.318.844-4.8.477-7.121S.368,47.317,0,45c.368-2.317,2.286-4.306,2.654-6.624s-.818-4.964-.451-7.282C3.267,29,5.709,27.7,6.774,25.614s.754-4.974,1.819-7.065c1.66-1.66,4.382-2.14,6.041-3.8s2.255-4.5,3.915-6.158c2.091-1.065,4.829-.68,6.92-1.745S29,3.267,31.093,2.2c2.318-.368,4.8.844,7.12.477S42.682.367,45,0" transform="translate(0 0)" fill="#ffac47" fill-rule="evenodd"/>
              <path id="Trazado_611091" data-name="Trazado 611091" d="M46.344,88.074A41.73,41.73,0,1,0,4.614,46.344a41.811,41.811,0,0,0,41.73,41.731" transform="translate(-1.345 -1.345)" fill="#fef0d7" fill-rule="evenodd"/>
            </g>
          </g>
        </g>
      </g>
      <g id="Grupo_1099647" data-name="Grupo 1099647" transform="translate(354.739 14349.061)">
        <g id="Grupo_1099646" data-name="Grupo 1099646" clip-path="url(#clip-path-2)">
          <path id="Trazado_874413" data-name="Trazado 874413" d="M214.131,91.952c0,2.071.014,4.141-.012,6.212a.849.849,0,0,0,.564.918,3.051,3.051,0,0,1,1.84,2.851c.042,2.244-.006,4.491.027,6.736.012.827-.551.554-.957.587-.445.036-.843.084-.827-.627.046-2.069.013-4.141.017-6.211a1.8,1.8,0,0,0-.536-1.509,1.54,1.54,0,0,0-2.551,1.115c-.016,3.558-.055,7.116.018,10.673.038,1.86,1.62,3.327,3.734,3.7a4.494,4.494,0,0,0,1.3.161c2.213-.283,4.088.665,5.994,1.544,1.479.681,2.958,1.372,4.476,1.957.842.325.33.721.2,1.12-.154.472-.287.82-.965.5-2.158-1.016-4.361-1.938-6.537-2.917a4.924,4.924,0,0,0-2.2-.429,9.014,9.014,0,0,1-4.962-1.112,5.372,5.372,0,0,1-2.817-4.817c-.023-3.412-.009-6.824-.006-10.236a3.128,3.128,0,0,1,1.88-3.088.892.892,0,0,0,.571-1q-.014-6.255,0-12.511a2.978,2.978,0,0,1,2.574-2.96,2.935,2.935,0,0,1,3.339,2.052,24.469,24.469,0,0,1,.546,2.824q1.127,6.67,2.239,13.343.367,2.2.717,4.4a3.884,3.884,0,0,0,2.3,3.079c1.054.5,2.079,1.055,3.153,1.5.636.264.493.6.236.984-.226.337-.172,1.074-.977.651-1.21-.637-2.492-1.14-3.679-1.814a5.424,5.424,0,0,1-2.747-3.963c-.839-4.993-1.638-9.994-2.458-14.991-.283-1.723-.569-3.446-.87-5.165a1.284,1.284,0,0,0-1.48-1.158,1.24,1.24,0,0,0-1.142,1.4q.006,3.106,0,6.211" transform="translate(-173.178 -68.12)" fill="#12263f"/>
          <path id="Trazado_874414" data-name="Trazado 874414" d="M23.2,222.268c-1.749,0-3.5,0-5.247,0-1.037,0-1.283-.255-1.3-1.282-.016-1.1-.014-1.089-1.084-.8q-7.035,1.87-14.074,3.727c-.828.218-1.366-.031-1.445-.636-.086-.666.418-.895.888-1.142,4.429-2.33,8.809-4.762,13.31-6.942,1.823-.883,2.8-1.859,2.434-3.965-.156-.9.249-1.2,1.162-1.206q5.378-.012,10.756,0c.91,0,1.181.284,1.183,1.218q.011,4.9,0,9.794c0,.972-.272,1.235-1.251,1.24-1.778.008-3.556,0-5.334,0M8.765,220l.086.131c2.443-.643,4.9-1.237,7.324-1.946,1.753-.513,2.407-.479,2.23,1.643-.044.522.108.7.666.7,2.769-.029,5.539-.022,8.308,0,.464,0,.669-.087.664-.614q-.038-3.76,0-7.521c0-.509-.165-.633-.649-.629q-4.154.03-8.308,0c-.535,0-.782.142-.672.681.4,1.975-.568,2.962-2.3,3.743-2.512,1.131-4.9,2.535-7.344,3.822" transform="translate(-0.034 -173.249)" fill="#12263f"/>
          <path id="Trazado_874415" data-name="Trazado 874415" d="M119.523,15.8c.609,1.233,1.175,2.406,1.766,3.565.253.5.464.99-.037,1.425s-.965.134-1.42-.171c-2.251-1.508-4.513-3-6.758-4.515a1.883,1.883,0,0,0-1.134-.345q-2.493.023-4.986,0a1.772,1.772,0,0,1-2.013-1.978q-.015-5.9,0-11.809A1.745,1.745,0,0,1,106.876.008q6.823-.017,13.647,0a1.754,1.754,0,0,1,1.92,1.981q.015,5.774,0,11.547c0,1.625-.579,2.2-2.208,2.226-.2,0-.4.019-.715.034m-1.44,1.538.149-.113c-.234-.488-.465-.978-.7-1.464-.624-1.274-.322-1.748,1.122-1.752.466,0,.934-.028,1.4.007.48.036.655-.109.652-.623q-.031-5.506,0-11.012c0-.509-.165-.63-.648-.628q-6.336.025-12.673,0c-.514,0-.7.105-.7.668q.039,5.462,0,10.925c0,.552.166.687.692.676,1.514-.033,3.031.021,4.544-.025a3.271,3.271,0,0,1,2.11.628c1.325.943,2.7,1.814,4.055,2.714" transform="translate(-86.567 0.001)" fill="#12263f"/>
          <path id="Trazado_874416" data-name="Trazado 874416" d="M4.721,151.407c-.764,0-1.376.008-1.987,0a.888.888,0,0,1-.986-.974q-.011-4.721,0-9.443a.883.883,0,0,1,1-.958q5.989,0,11.978,0a.914.914,0,0,1,1.02,1.032q0,4.634,0,9.268a.944.944,0,0,1-1.067,1.079c-.874,0-1.753.055-2.622-.015a2.045,2.045,0,0,0-1.916.874c-2.748,3.322-5.553,6.6-8.338,9.888l-.055.068c-.353.448-.764.767-1.34.4s-.452-.874-.215-1.386q2.053-4.433,4.1-8.867c.131-.284.249-.575.419-.967m-.1,4.5.117.073a48.232,48.232,0,0,0,3.336-4.015,4.619,4.619,0,0,1,5.048-2.316c.113.021.234-.01.349,0,.44.056.532-.166.53-.561-.014-2.245-.019-4.491,0-6.736,0-.473-.162-.585-.605-.583q-4.637.023-9.274,0c-.5,0-.645.146-.637.641.027,1.691,0,3.383.017,5.074.008.692-.3,1.582.13,2.022s1.327.12,2.018.137c1.323.032,1.616.481,1.061,1.694q-1.046,2.284-2.093,4.566" transform="translate(0 -115.518)" fill="#12263f"/>
          <path id="Trazado_874417" data-name="Trazado 874417" d="M118.2,241.631c-.787.211-.884-.194-.909-.872-.029-.765.265-.88.944-.888.7-.008.872.212.863.879s-.094,1.1-.9.881" transform="translate(-96.758 -197.886)" fill="#12263f"/>
          <path id="Trazado_874418" data-name="Trazado 874418" d="M138.119,241.616c-.9.225-.763-.383-.823-.948-.093-.882.451-.745,1.006-.808.835-.1.74.4.787.942.069.793-.3.949-.971.814" transform="translate(-113.257 -197.867)" fill="#12263f"/>
          <path id="Trazado_874419" data-name="Trazado 874419" d="M141.8,25.449c-.255.284-.389.432-.521.58-.614.689-1.781,1.219-1.774,2.025.006.739,1.09,1.345,1.76,1.936.6.533.207.785-.145,1.154-.377.4-.664.7-1.152.1-.458-.561-1.033-1.026-1.524-1.563-.312-.341-.537-.322-.843.007-.535.576-1.128,1.1-1.654,1.681s-.743.027-1.005-.245-.85-.472-.263-1c.539-.488,1.012-1.05,1.558-1.53.443-.39.512-.679.026-1.1-.551-.473-1.019-1.042-1.56-1.527-.632-.565.022-.768.273-1.072.275-.333.538-.71,1.013-.17.518.589,1.114,1.11,1.652,1.684.287.307.5.294.779-.006.5-.532,1.011-1.049,1.545-1.544.187-.174.326-.6.677-.372a11.917,11.917,0,0,1,1.16.963" transform="translate(-110.896 -20.146)" fill="#12263f"/>
          <path id="Trazado_874420" data-name="Trazado 874420" d="M35.692,169.132c-.79.2-.869-.212-.9-.881-.039-.786.288-.869.949-.881.7-.013.859.224.856.885,0,.683-.122,1.076-.9.878" transform="translate(-28.698 -138.074)" fill="#12263f"/>
          <path id="Trazado_874421" data-name="Trazado 874421" d="M56.556,168.309c.223.832-.265.839-.9.882-.813.055-.827-.337-.86-.968-.04-.751.285-.82.9-.836.714-.019,1.05.17.856.923" transform="translate(-45.203 -138.087)" fill="#12263f"/>
        </g>
      </g>
    </g>
  </g>
</svg>
